%TF.GenerationSoftware,KiCad,Pcbnew,9.0.6*%
%TF.CreationDate,2026-03-18T23:30:31+05:30*%
%TF.ProjectId,esp32_javid_bhaijaan,65737033-325f-46a6-9176-69645f626861,rev?*%
%TF.SameCoordinates,Original*%
%TF.FileFunction,Legend,Bot*%
%TF.FilePolarity,Positive*%
%FSLAX46Y46*%
G04 Gerber Fmt 4.6, Leading zero omitted, Abs format (unit mm)*
G04 Created by KiCad (PCBNEW 9.0.6) date 2026-03-18 23:30:31*
%MOMM*%
%LPD*%
G01*
G04 APERTURE LIST*
%ADD10C,0.200000*%
G04 APERTURE END LIST*
D10*
X172742231Y-114644838D02*
X172742231Y-112644838D01*
X172742231Y-112644838D02*
X172075564Y-114073409D01*
X172075564Y-114073409D02*
X171408898Y-112644838D01*
X171408898Y-112644838D02*
X171408898Y-114644838D01*
X169599374Y-114644838D02*
X169599374Y-113597219D01*
X169599374Y-113597219D02*
X169694612Y-113406742D01*
X169694612Y-113406742D02*
X169885088Y-113311504D01*
X169885088Y-113311504D02*
X170266041Y-113311504D01*
X170266041Y-113311504D02*
X170456517Y-113406742D01*
X169599374Y-114549600D02*
X169789850Y-114644838D01*
X169789850Y-114644838D02*
X170266041Y-114644838D01*
X170266041Y-114644838D02*
X170456517Y-114549600D01*
X170456517Y-114549600D02*
X170551755Y-114359123D01*
X170551755Y-114359123D02*
X170551755Y-114168647D01*
X170551755Y-114168647D02*
X170456517Y-113978171D01*
X170456517Y-113978171D02*
X170266041Y-113882933D01*
X170266041Y-113882933D02*
X169789850Y-113882933D01*
X169789850Y-113882933D02*
X169599374Y-113787695D01*
X167789850Y-114644838D02*
X167789850Y-112644838D01*
X167789850Y-114549600D02*
X167980326Y-114644838D01*
X167980326Y-114644838D02*
X168361279Y-114644838D01*
X168361279Y-114644838D02*
X168551755Y-114549600D01*
X168551755Y-114549600D02*
X168646993Y-114454361D01*
X168646993Y-114454361D02*
X168742231Y-114263885D01*
X168742231Y-114263885D02*
X168742231Y-113692457D01*
X168742231Y-113692457D02*
X168646993Y-113501980D01*
X168646993Y-113501980D02*
X168551755Y-113406742D01*
X168551755Y-113406742D02*
X168361279Y-113311504D01*
X168361279Y-113311504D02*
X167980326Y-113311504D01*
X167980326Y-113311504D02*
X167789850Y-113406742D01*
X166075564Y-114549600D02*
X166266040Y-114644838D01*
X166266040Y-114644838D02*
X166646993Y-114644838D01*
X166646993Y-114644838D02*
X166837469Y-114549600D01*
X166837469Y-114549600D02*
X166932707Y-114359123D01*
X166932707Y-114359123D02*
X166932707Y-113597219D01*
X166932707Y-113597219D02*
X166837469Y-113406742D01*
X166837469Y-113406742D02*
X166646993Y-113311504D01*
X166646993Y-113311504D02*
X166266040Y-113311504D01*
X166266040Y-113311504D02*
X166075564Y-113406742D01*
X166075564Y-113406742D02*
X165980326Y-113597219D01*
X165980326Y-113597219D02*
X165980326Y-113787695D01*
X165980326Y-113787695D02*
X166932707Y-113978171D01*
X163789849Y-112644838D02*
X163313659Y-114644838D01*
X163313659Y-114644838D02*
X162932706Y-113216266D01*
X162932706Y-113216266D02*
X162551754Y-114644838D01*
X162551754Y-114644838D02*
X162075564Y-112644838D01*
X161313659Y-114644838D02*
X161313659Y-113311504D01*
X161313659Y-112644838D02*
X161408897Y-112740076D01*
X161408897Y-112740076D02*
X161313659Y-112835314D01*
X161313659Y-112835314D02*
X161218421Y-112740076D01*
X161218421Y-112740076D02*
X161313659Y-112644838D01*
X161313659Y-112644838D02*
X161313659Y-112835314D01*
X160646992Y-113311504D02*
X159885088Y-113311504D01*
X160361278Y-112644838D02*
X160361278Y-114359123D01*
X160361278Y-114359123D02*
X160266040Y-114549600D01*
X160266040Y-114549600D02*
X160075564Y-114644838D01*
X160075564Y-114644838D02*
X159885088Y-114644838D01*
X159218421Y-114644838D02*
X159218421Y-112644838D01*
X158361278Y-114644838D02*
X158361278Y-113597219D01*
X158361278Y-113597219D02*
X158456516Y-113406742D01*
X158456516Y-113406742D02*
X158646992Y-113311504D01*
X158646992Y-113311504D02*
X158932707Y-113311504D01*
X158932707Y-113311504D02*
X159123183Y-113406742D01*
X159123183Y-113406742D02*
X159218421Y-113501980D01*
X154932706Y-114644838D02*
X155885087Y-114644838D01*
X155885087Y-114644838D02*
X155885087Y-112644838D01*
X153980325Y-114644838D02*
X154170801Y-114549600D01*
X154170801Y-114549600D02*
X154266039Y-114454361D01*
X154266039Y-114454361D02*
X154361277Y-114263885D01*
X154361277Y-114263885D02*
X154361277Y-113692457D01*
X154361277Y-113692457D02*
X154266039Y-113501980D01*
X154266039Y-113501980D02*
X154170801Y-113406742D01*
X154170801Y-113406742D02*
X153980325Y-113311504D01*
X153980325Y-113311504D02*
X153694610Y-113311504D01*
X153694610Y-113311504D02*
X153504134Y-113406742D01*
X153504134Y-113406742D02*
X153408896Y-113501980D01*
X153408896Y-113501980D02*
X153313658Y-113692457D01*
X153313658Y-113692457D02*
X153313658Y-114263885D01*
X153313658Y-114263885D02*
X153408896Y-114454361D01*
X153408896Y-114454361D02*
X153504134Y-114549600D01*
X153504134Y-114549600D02*
X153694610Y-114644838D01*
X153694610Y-114644838D02*
X153980325Y-114644838D01*
X152646991Y-113311504D02*
X152170801Y-114644838D01*
X152170801Y-114644838D02*
X151694610Y-113311504D01*
X150170800Y-114549600D02*
X150361276Y-114644838D01*
X150361276Y-114644838D02*
X150742229Y-114644838D01*
X150742229Y-114644838D02*
X150932705Y-114549600D01*
X150932705Y-114549600D02*
X151027943Y-114359123D01*
X151027943Y-114359123D02*
X151027943Y-113597219D01*
X151027943Y-113597219D02*
X150932705Y-113406742D01*
X150932705Y-113406742D02*
X150742229Y-113311504D01*
X150742229Y-113311504D02*
X150361276Y-113311504D01*
X150361276Y-113311504D02*
X150170800Y-113406742D01*
X150170800Y-113406742D02*
X150075562Y-113597219D01*
X150075562Y-113597219D02*
X150075562Y-113787695D01*
X150075562Y-113787695D02*
X151027943Y-113978171D01*
X147694609Y-114644838D02*
X147694609Y-112644838D01*
X147694609Y-113406742D02*
X147504133Y-113311504D01*
X147504133Y-113311504D02*
X147123180Y-113311504D01*
X147123180Y-113311504D02*
X146932704Y-113406742D01*
X146932704Y-113406742D02*
X146837466Y-113501980D01*
X146837466Y-113501980D02*
X146742228Y-113692457D01*
X146742228Y-113692457D02*
X146742228Y-114263885D01*
X146742228Y-114263885D02*
X146837466Y-114454361D01*
X146837466Y-114454361D02*
X146932704Y-114549600D01*
X146932704Y-114549600D02*
X147123180Y-114644838D01*
X147123180Y-114644838D02*
X147504133Y-114644838D01*
X147504133Y-114644838D02*
X147694609Y-114549600D01*
X146075561Y-113311504D02*
X145599371Y-114644838D01*
X145123180Y-113311504D02*
X145599371Y-114644838D01*
X145599371Y-114644838D02*
X145789847Y-115121028D01*
X145789847Y-115121028D02*
X145885085Y-115216266D01*
X145885085Y-115216266D02*
X146075561Y-115311504D01*
X142170798Y-113597219D02*
X141885084Y-113692457D01*
X141885084Y-113692457D02*
X141789846Y-113787695D01*
X141789846Y-113787695D02*
X141694608Y-113978171D01*
X141694608Y-113978171D02*
X141694608Y-114263885D01*
X141694608Y-114263885D02*
X141789846Y-114454361D01*
X141789846Y-114454361D02*
X141885084Y-114549600D01*
X141885084Y-114549600D02*
X142075560Y-114644838D01*
X142075560Y-114644838D02*
X142837465Y-114644838D01*
X142837465Y-114644838D02*
X142837465Y-112644838D01*
X142837465Y-112644838D02*
X142170798Y-112644838D01*
X142170798Y-112644838D02*
X141980322Y-112740076D01*
X141980322Y-112740076D02*
X141885084Y-112835314D01*
X141885084Y-112835314D02*
X141789846Y-113025790D01*
X141789846Y-113025790D02*
X141789846Y-113216266D01*
X141789846Y-113216266D02*
X141885084Y-113406742D01*
X141885084Y-113406742D02*
X141980322Y-113501980D01*
X141980322Y-113501980D02*
X142170798Y-113597219D01*
X142170798Y-113597219D02*
X142837465Y-113597219D01*
X140075560Y-114549600D02*
X140266036Y-114644838D01*
X140266036Y-114644838D02*
X140646989Y-114644838D01*
X140646989Y-114644838D02*
X140837465Y-114549600D01*
X140837465Y-114549600D02*
X140932703Y-114359123D01*
X140932703Y-114359123D02*
X140932703Y-113597219D01*
X140932703Y-113597219D02*
X140837465Y-113406742D01*
X140837465Y-113406742D02*
X140646989Y-113311504D01*
X140646989Y-113311504D02*
X140266036Y-113311504D01*
X140266036Y-113311504D02*
X140075560Y-113406742D01*
X140075560Y-113406742D02*
X139980322Y-113597219D01*
X139980322Y-113597219D02*
X139980322Y-113787695D01*
X139980322Y-113787695D02*
X140932703Y-113978171D01*
X138361274Y-114549600D02*
X138551750Y-114644838D01*
X138551750Y-114644838D02*
X138932703Y-114644838D01*
X138932703Y-114644838D02*
X139123179Y-114549600D01*
X139123179Y-114549600D02*
X139218417Y-114359123D01*
X139218417Y-114359123D02*
X139218417Y-113597219D01*
X139218417Y-113597219D02*
X139123179Y-113406742D01*
X139123179Y-113406742D02*
X138932703Y-113311504D01*
X138932703Y-113311504D02*
X138551750Y-113311504D01*
X138551750Y-113311504D02*
X138361274Y-113406742D01*
X138361274Y-113406742D02*
X138266036Y-113597219D01*
X138266036Y-113597219D02*
X138266036Y-113787695D01*
X138266036Y-113787695D02*
X139218417Y-113978171D01*
X137408893Y-114644838D02*
X137408893Y-113311504D01*
X137408893Y-113692457D02*
X137313655Y-113501980D01*
X137313655Y-113501980D02*
X137218417Y-113406742D01*
X137218417Y-113406742D02*
X137027941Y-113311504D01*
X137027941Y-113311504D02*
X136837464Y-113311504D01*
X134646988Y-114454361D02*
X134551750Y-114549600D01*
X134551750Y-114549600D02*
X134646988Y-114644838D01*
X134646988Y-114644838D02*
X134742226Y-114549600D01*
X134742226Y-114549600D02*
X134646988Y-114454361D01*
X134646988Y-114454361D02*
X134646988Y-114644838D01*
X134646988Y-113882933D02*
X134742226Y-112740076D01*
X134742226Y-112740076D02*
X134646988Y-112644838D01*
X134646988Y-112644838D02*
X134551750Y-112740076D01*
X134551750Y-112740076D02*
X134646988Y-113882933D01*
X134646988Y-113882933D02*
X134646988Y-112644838D01*
M02*
