M48
; DRILL file {KiCad 9.0.6} date 2026-03-18T23:30:44+0530
; FORMAT={-:-/ absolute / metric / decimal}
; #@! TF.CreationDate,2026-03-18T23:30:44+05:30
; #@! TF.GenerationSoftware,Kicad,Pcbnew,9.0.6
; #@! TF.FileFunction,Plated,1,2,PTH
FMAT,2
METRIC
; #@! TA.AperFunction,Plated,PTH,ComponentDrill
T1C0.800
; #@! TA.AperFunction,Plated,PTH,ComponentDrill
T2C1.000
; #@! TA.AperFunction,Plated,PTH,ComponentDrill
T3C1.200
; #@! TA.AperFunction,Plated,PTH,ComponentDrill
T4C1.300
%
G90
G05
T1
X144.32Y-122.1
X154.48Y-122.1
T2
X126.75Y-68.94
X126.75Y-71.48
X126.75Y-74.02
X126.75Y-76.56
X126.75Y-79.1
X126.75Y-81.64
X126.75Y-84.18
X126.75Y-86.72
X126.75Y-89.26
X126.75Y-91.8
X126.75Y-94.34
X126.75Y-96.88
X126.75Y-99.42
X126.75Y-101.96
X126.75Y-104.5
X134.85Y-69.29
X134.85Y-71.83
X134.85Y-74.37
X134.85Y-76.91
X134.85Y-79.45
X134.85Y-81.99
X134.85Y-84.53
X134.85Y-87.07
X134.85Y-89.61
X134.85Y-92.15
X134.85Y-94.69
X134.85Y-97.23
X134.85Y-99.77
X134.85Y-102.31
X134.85Y-104.85
X143.4Y-69.34
X143.4Y-71.88
X143.4Y-74.42
X143.4Y-76.96
X143.4Y-79.5
X143.4Y-82.04
X143.4Y-84.58
X143.4Y-87.12
X143.4Y-89.66
X143.4Y-92.2
X143.4Y-94.74
X143.4Y-97.28
X143.4Y-99.82
X143.4Y-102.36
X143.4Y-104.9
X165.2Y-69.34
X165.2Y-71.88
X165.2Y-74.42
X165.2Y-76.96
X165.2Y-79.5
X165.2Y-82.04
X165.2Y-84.58
X165.2Y-87.12
X165.2Y-89.66
X165.2Y-92.2
X165.2Y-94.74
X165.2Y-97.28
X165.2Y-99.82
X165.2Y-102.36
X165.2Y-104.9
X174.35Y-69.64
X174.35Y-72.18
X174.35Y-74.72
X174.35Y-77.26
X174.35Y-79.8
X174.35Y-82.34
X174.35Y-84.88
X174.35Y-87.42
X174.35Y-89.96
X174.35Y-92.5
X174.35Y-95.04
X174.35Y-97.58
X174.35Y-100.12
X174.35Y-102.66
X174.35Y-105.2
X182.75Y-69.44
X182.75Y-71.98
X182.75Y-74.52
X182.75Y-77.06
X182.75Y-79.6
X182.75Y-82.14
X182.75Y-84.68
X182.75Y-87.22
X182.75Y-89.76
X182.75Y-92.3
X182.75Y-94.84
X182.75Y-97.38
X182.75Y-99.92
X182.75Y-102.46
X182.75Y-105.0
T3
X111.4Y-106.35
X111.4Y-109.85
X111.4Y-113.35
X111.4Y-116.85
X111.4Y-120.35
X111.4Y-123.85
X196.6Y-60.85
X196.6Y-64.35
X196.6Y-67.85
X196.6Y-71.35
X196.6Y-74.85
X196.6Y-78.35
T4
X111.9Y-60.95
X111.9Y-65.95
X111.9Y-70.95
X111.9Y-75.95
X111.9Y-80.95
X111.9Y-85.95
X111.9Y-90.95
X111.9Y-95.95
X111.9Y-100.95
X196.1Y-83.75
X196.1Y-88.75
X196.1Y-93.75
X196.1Y-98.75
X196.1Y-103.75
X196.1Y-108.75
X196.1Y-113.75
X196.1Y-118.75
X196.1Y-123.75
M30
