%TF.GenerationSoftware,KiCad,Pcbnew,9.0.6*%
%TF.CreationDate,2026-03-18T23:30:31+05:30*%
%TF.ProjectId,esp32_javid_bhaijaan,65737033-325f-46a6-9176-69645f626861,rev?*%
%TF.SameCoordinates,Original*%
%TF.FileFunction,Soldermask,Top*%
%TF.FilePolarity,Negative*%
%FSLAX46Y46*%
G04 Gerber Fmt 4.6, Leading zero omitted, Abs format (unit mm)*
G04 Created by KiCad (PCBNEW 9.0.6) date 2026-03-18 23:30:31*
%MOMM*%
%LPD*%
G01*
G04 APERTURE LIST*
G04 Aperture macros list*
%AMRoundRect*
0 Rectangle with rounded corners*
0 $1 Rounding radius*
0 $2 $3 $4 $5 $6 $7 $8 $9 X,Y pos of 4 corners*
0 Add a 4 corners polygon primitive as box body*
4,1,4,$2,$3,$4,$5,$6,$7,$8,$9,$2,$3,0*
0 Add four circle primitives for the rounded corners*
1,1,$1+$1,$2,$3*
1,1,$1+$1,$4,$5*
1,1,$1+$1,$6,$7*
1,1,$1+$1,$8,$9*
0 Add four rect primitives between the rounded corners*
20,1,$1+$1,$2,$3,$4,$5,0*
20,1,$1+$1,$4,$5,$6,$7,0*
20,1,$1+$1,$6,$7,$8,$9,0*
20,1,$1+$1,$8,$9,$2,$3,0*%
G04 Aperture macros list end*
%ADD10C,2.100000*%
%ADD11RoundRect,0.140000X0.170000X-0.140000X0.170000X0.140000X-0.170000X0.140000X-0.170000X-0.140000X0*%
%ADD12RoundRect,0.250000X0.375000X0.625000X-0.375000X0.625000X-0.375000X-0.625000X0.375000X-0.625000X0*%
%ADD13C,1.600000*%
%ADD14RoundRect,0.140000X-0.170000X0.140000X-0.170000X-0.140000X0.170000X-0.140000X0.170000X0.140000X0*%
%ADD15R,1.700000X1.700000*%
%ADD16C,1.700000*%
%ADD17RoundRect,0.250001X0.949999X-0.949999X0.949999X0.949999X-0.949999X0.949999X-0.949999X-0.949999X0*%
%ADD18C,2.400000*%
%ADD19RoundRect,0.250001X-0.949999X0.949999X-0.949999X-0.949999X0.949999X-0.949999X0.949999X0.949999X0*%
%ADD20RoundRect,0.250000X1.050000X-1.050000X1.050000X1.050000X-1.050000X1.050000X-1.050000X-1.050000X0*%
%ADD21C,2.600000*%
%ADD22RoundRect,0.250000X-1.050000X1.050000X-1.050000X-1.050000X1.050000X-1.050000X1.050000X1.050000X0*%
G04 APERTURE END LIST*
D10*
%TO.C,Screw*%
X131000000Y-61250000D03*
%TD*%
%TO.C,Screw*%
X173300000Y-61650000D03*
%TD*%
%TO.C,Screw*%
X173400000Y-121250000D03*
%TD*%
%TO.C,Screw*%
X129900000Y-121450000D03*
%TD*%
D11*
%TO.C,C1*%
X170050000Y-107100000D03*
X170050000Y-108060000D03*
%TD*%
D12*
%TO.C,D1*%
X157980000Y-122200000D03*
X160780000Y-122200000D03*
%TD*%
D13*
%TO.C,R1*%
X154480000Y-122100000D03*
X144320000Y-122100000D03*
%TD*%
D14*
%TO.C,C4*%
X171600000Y-107050000D03*
X171600000Y-108010000D03*
%TD*%
D15*
%TO.C,J6*%
X174350000Y-69640000D03*
D16*
X174350000Y-72180000D03*
X174350000Y-74720000D03*
X174350000Y-77260000D03*
X174350000Y-79800000D03*
X174350000Y-82340000D03*
X174350000Y-84880000D03*
X174350000Y-87420000D03*
X174350000Y-89960000D03*
X174350000Y-92500000D03*
X174350000Y-95040000D03*
X174350000Y-97580000D03*
X174350000Y-100120000D03*
X174350000Y-102660000D03*
X174350000Y-105200000D03*
%TD*%
D15*
%TO.C,J4*%
X165200000Y-69340000D03*
D16*
X165200000Y-71880000D03*
X165200000Y-74420000D03*
X165200000Y-76960000D03*
X165200000Y-79500000D03*
X165200000Y-82040000D03*
X165200000Y-84580000D03*
X165200000Y-87120000D03*
X165200000Y-89660000D03*
X165200000Y-92200000D03*
X165200000Y-94740000D03*
X165200000Y-97280000D03*
X165200000Y-99820000D03*
X165200000Y-102360000D03*
X165200000Y-104900000D03*
%TD*%
D15*
%TO.C,J3*%
X143400000Y-69340000D03*
D16*
X143400000Y-71880000D03*
X143400000Y-74420000D03*
X143400000Y-76960000D03*
X143400000Y-79500000D03*
X143400000Y-82040000D03*
X143400000Y-84580000D03*
X143400000Y-87120000D03*
X143400000Y-89660000D03*
X143400000Y-92200000D03*
X143400000Y-94740000D03*
X143400000Y-97280000D03*
X143400000Y-99820000D03*
X143400000Y-102360000D03*
X143400000Y-104900000D03*
%TD*%
D15*
%TO.C,J5*%
X134850000Y-69290000D03*
D16*
X134850000Y-71830000D03*
X134850000Y-74370000D03*
X134850000Y-76910000D03*
X134850000Y-79450000D03*
X134850000Y-81990000D03*
X134850000Y-84530000D03*
X134850000Y-87070000D03*
X134850000Y-89610000D03*
X134850000Y-92150000D03*
X134850000Y-94690000D03*
X134850000Y-97230000D03*
X134850000Y-99770000D03*
X134850000Y-102310000D03*
X134850000Y-104850000D03*
%TD*%
D17*
%TO.C,J10*%
X196600000Y-78350000D03*
D18*
X196600000Y-74850000D03*
X196600000Y-71350000D03*
X196600000Y-67850000D03*
X196600000Y-64350000D03*
X196600000Y-60850000D03*
%TD*%
D19*
%TO.C,J8*%
X111400000Y-106350000D03*
D18*
X111400000Y-109850000D03*
X111400000Y-113350000D03*
X111400000Y-116850000D03*
X111400000Y-120350000D03*
X111400000Y-123850000D03*
%TD*%
D15*
%TO.C,J2*%
X126750000Y-68940000D03*
D16*
X126750000Y-71480000D03*
X126750000Y-74020000D03*
X126750000Y-76560000D03*
X126750000Y-79100000D03*
X126750000Y-81640000D03*
X126750000Y-84180000D03*
X126750000Y-86720000D03*
X126750000Y-89260000D03*
X126750000Y-91800000D03*
X126750000Y-94340000D03*
X126750000Y-96880000D03*
X126750000Y-99420000D03*
X126750000Y-101960000D03*
X126750000Y-104500000D03*
%TD*%
D20*
%TO.C,J9*%
X196100000Y-123750000D03*
D21*
X196100000Y-118750000D03*
X196100000Y-113750000D03*
X196100000Y-108750000D03*
X196100000Y-103750000D03*
X196100000Y-98750000D03*
X196100000Y-93750000D03*
X196100000Y-88750000D03*
X196100000Y-83750000D03*
%TD*%
D15*
%TO.C,J1*%
X182750000Y-69440000D03*
D16*
X182750000Y-71980000D03*
X182750000Y-74520000D03*
X182750000Y-77060000D03*
X182750000Y-79600000D03*
X182750000Y-82140000D03*
X182750000Y-84680000D03*
X182750000Y-87220000D03*
X182750000Y-89760000D03*
X182750000Y-92300000D03*
X182750000Y-94840000D03*
X182750000Y-97380000D03*
X182750000Y-99920000D03*
X182750000Y-102460000D03*
X182750000Y-105000000D03*
%TD*%
D22*
%TO.C,J7*%
X111900000Y-60950000D03*
D21*
X111900000Y-65950000D03*
X111900000Y-70950000D03*
X111900000Y-75950000D03*
X111900000Y-80950000D03*
X111900000Y-85950000D03*
X111900000Y-90950000D03*
X111900000Y-95950000D03*
X111900000Y-100950000D03*
%TD*%
M02*
