%TF.GenerationSoftware,KiCad,Pcbnew,9.0.6*%
%TF.CreationDate,2026-05-15T22:18:39+05:30*%
%TF.ProjectId,power_supply,706f7765-725f-4737-9570-706c792e6b69,rev?*%
%TF.SameCoordinates,Original*%
%TF.FileFunction,Legend,Top*%
%TF.FilePolarity,Positive*%
%FSLAX46Y46*%
G04 Gerber Fmt 4.6, Leading zero omitted, Abs format (unit mm)*
G04 Created by KiCad (PCBNEW 9.0.6) date 2026-05-15 22:18:39*
%MOMM*%
%LPD*%
G01*
G04 APERTURE LIST*
%ADD10C,0.100000*%
%ADD11C,0.200000*%
%ADD12C,0.300000*%
%ADD13C,0.120000*%
G04 APERTURE END LIST*
D10*
X121171409Y-90223912D02*
X121209504Y-90147722D01*
X121209504Y-90147722D02*
X121209504Y-90033436D01*
X121209504Y-90033436D02*
X121171409Y-89919150D01*
X121171409Y-89919150D02*
X121095219Y-89842960D01*
X121095219Y-89842960D02*
X121019028Y-89804865D01*
X121019028Y-89804865D02*
X120866647Y-89766769D01*
X120866647Y-89766769D02*
X120752361Y-89766769D01*
X120752361Y-89766769D02*
X120599980Y-89804865D01*
X120599980Y-89804865D02*
X120523790Y-89842960D01*
X120523790Y-89842960D02*
X120447600Y-89919150D01*
X120447600Y-89919150D02*
X120409504Y-90033436D01*
X120409504Y-90033436D02*
X120409504Y-90109627D01*
X120409504Y-90109627D02*
X120447600Y-90223912D01*
X120447600Y-90223912D02*
X120485695Y-90262008D01*
X120485695Y-90262008D02*
X120752361Y-90262008D01*
X120752361Y-90262008D02*
X120752361Y-90109627D01*
X120409504Y-90604865D02*
X121209504Y-90604865D01*
X121209504Y-90604865D02*
X120409504Y-91062008D01*
X120409504Y-91062008D02*
X121209504Y-91062008D01*
X120409504Y-91442960D02*
X121209504Y-91442960D01*
X121209504Y-91442960D02*
X121209504Y-91633436D01*
X121209504Y-91633436D02*
X121171409Y-91747722D01*
X121171409Y-91747722D02*
X121095219Y-91823912D01*
X121095219Y-91823912D02*
X121019028Y-91862007D01*
X121019028Y-91862007D02*
X120866647Y-91900103D01*
X120866647Y-91900103D02*
X120752361Y-91900103D01*
X120752361Y-91900103D02*
X120599980Y-91862007D01*
X120599980Y-91862007D02*
X120523790Y-91823912D01*
X120523790Y-91823912D02*
X120447600Y-91747722D01*
X120447600Y-91747722D02*
X120409504Y-91633436D01*
X120409504Y-91633436D02*
X120409504Y-91442960D01*
X120972209Y-102120312D02*
X121010304Y-102044122D01*
X121010304Y-102044122D02*
X121010304Y-101929836D01*
X121010304Y-101929836D02*
X120972209Y-101815550D01*
X120972209Y-101815550D02*
X120896019Y-101739360D01*
X120896019Y-101739360D02*
X120819828Y-101701265D01*
X120819828Y-101701265D02*
X120667447Y-101663169D01*
X120667447Y-101663169D02*
X120553161Y-101663169D01*
X120553161Y-101663169D02*
X120400780Y-101701265D01*
X120400780Y-101701265D02*
X120324590Y-101739360D01*
X120324590Y-101739360D02*
X120248400Y-101815550D01*
X120248400Y-101815550D02*
X120210304Y-101929836D01*
X120210304Y-101929836D02*
X120210304Y-102006027D01*
X120210304Y-102006027D02*
X120248400Y-102120312D01*
X120248400Y-102120312D02*
X120286495Y-102158408D01*
X120286495Y-102158408D02*
X120553161Y-102158408D01*
X120553161Y-102158408D02*
X120553161Y-102006027D01*
X120210304Y-102501265D02*
X121010304Y-102501265D01*
X121010304Y-102501265D02*
X120210304Y-102958408D01*
X120210304Y-102958408D02*
X121010304Y-102958408D01*
X120210304Y-103339360D02*
X121010304Y-103339360D01*
X121010304Y-103339360D02*
X121010304Y-103529836D01*
X121010304Y-103529836D02*
X120972209Y-103644122D01*
X120972209Y-103644122D02*
X120896019Y-103720312D01*
X120896019Y-103720312D02*
X120819828Y-103758407D01*
X120819828Y-103758407D02*
X120667447Y-103796503D01*
X120667447Y-103796503D02*
X120553161Y-103796503D01*
X120553161Y-103796503D02*
X120400780Y-103758407D01*
X120400780Y-103758407D02*
X120324590Y-103720312D01*
X120324590Y-103720312D02*
X120248400Y-103644122D01*
X120248400Y-103644122D02*
X120210304Y-103529836D01*
X120210304Y-103529836D02*
X120210304Y-103339360D01*
D11*
X131608304Y-82741101D02*
X131608304Y-82283958D01*
X131608304Y-82512530D02*
X132408304Y-82512530D01*
X132408304Y-82512530D02*
X132294019Y-82436339D01*
X132294019Y-82436339D02*
X132217828Y-82360149D01*
X132217828Y-82360149D02*
X132179733Y-82283958D01*
X132332114Y-83045863D02*
X132370209Y-83083959D01*
X132370209Y-83083959D02*
X132408304Y-83160149D01*
X132408304Y-83160149D02*
X132408304Y-83350625D01*
X132408304Y-83350625D02*
X132370209Y-83426816D01*
X132370209Y-83426816D02*
X132332114Y-83464911D01*
X132332114Y-83464911D02*
X132255923Y-83503006D01*
X132255923Y-83503006D02*
X132179733Y-83503006D01*
X132179733Y-83503006D02*
X132065447Y-83464911D01*
X132065447Y-83464911D02*
X131608304Y-83007768D01*
X131608304Y-83007768D02*
X131608304Y-83503006D01*
X131913066Y-84455388D02*
X131913066Y-85064912D01*
X132141638Y-85445864D02*
X131913066Y-86055388D01*
X131913066Y-86055388D02*
X131684495Y-85445864D01*
X132408304Y-87426816D02*
X132408304Y-87045864D01*
X132408304Y-87045864D02*
X132027352Y-87007768D01*
X132027352Y-87007768D02*
X132065447Y-87045864D01*
X132065447Y-87045864D02*
X132103542Y-87122054D01*
X132103542Y-87122054D02*
X132103542Y-87312530D01*
X132103542Y-87312530D02*
X132065447Y-87388721D01*
X132065447Y-87388721D02*
X132027352Y-87426816D01*
X132027352Y-87426816D02*
X131951161Y-87464911D01*
X131951161Y-87464911D02*
X131760685Y-87464911D01*
X131760685Y-87464911D02*
X131684495Y-87426816D01*
X131684495Y-87426816D02*
X131646400Y-87388721D01*
X131646400Y-87388721D02*
X131608304Y-87312530D01*
X131608304Y-87312530D02*
X131608304Y-87122054D01*
X131608304Y-87122054D02*
X131646400Y-87045864D01*
X131646400Y-87045864D02*
X131684495Y-87007768D01*
X132408304Y-87693483D02*
X131608304Y-87960150D01*
X131608304Y-87960150D02*
X132408304Y-88226816D01*
D10*
X120610304Y-106186979D02*
X119810304Y-106453646D01*
X119810304Y-106453646D02*
X120610304Y-106720312D01*
X120610304Y-107139360D02*
X120610304Y-107291741D01*
X120610304Y-107291741D02*
X120572209Y-107367931D01*
X120572209Y-107367931D02*
X120496019Y-107444122D01*
X120496019Y-107444122D02*
X120343638Y-107482217D01*
X120343638Y-107482217D02*
X120076971Y-107482217D01*
X120076971Y-107482217D02*
X119924590Y-107444122D01*
X119924590Y-107444122D02*
X119848400Y-107367931D01*
X119848400Y-107367931D02*
X119810304Y-107291741D01*
X119810304Y-107291741D02*
X119810304Y-107139360D01*
X119810304Y-107139360D02*
X119848400Y-107063169D01*
X119848400Y-107063169D02*
X119924590Y-106986979D01*
X119924590Y-106986979D02*
X120076971Y-106948883D01*
X120076971Y-106948883D02*
X120343638Y-106948883D01*
X120343638Y-106948883D02*
X120496019Y-106986979D01*
X120496019Y-106986979D02*
X120572209Y-107063169D01*
X120572209Y-107063169D02*
X120610304Y-107139360D01*
X120610304Y-107825074D02*
X119962685Y-107825074D01*
X119962685Y-107825074D02*
X119886495Y-107863169D01*
X119886495Y-107863169D02*
X119848400Y-107901264D01*
X119848400Y-107901264D02*
X119810304Y-107977455D01*
X119810304Y-107977455D02*
X119810304Y-108129836D01*
X119810304Y-108129836D02*
X119848400Y-108206026D01*
X119848400Y-108206026D02*
X119886495Y-108244121D01*
X119886495Y-108244121D02*
X119962685Y-108282217D01*
X119962685Y-108282217D02*
X120610304Y-108282217D01*
X120610304Y-108548883D02*
X120610304Y-109006026D01*
X119810304Y-108777454D02*
X120610304Y-108777454D01*
X119734114Y-109082217D02*
X119734114Y-109691740D01*
X120610304Y-109806026D02*
X120610304Y-110301264D01*
X120610304Y-110301264D02*
X120305542Y-110034598D01*
X120305542Y-110034598D02*
X120305542Y-110148883D01*
X120305542Y-110148883D02*
X120267447Y-110225074D01*
X120267447Y-110225074D02*
X120229352Y-110263169D01*
X120229352Y-110263169D02*
X120153161Y-110301264D01*
X120153161Y-110301264D02*
X119962685Y-110301264D01*
X119962685Y-110301264D02*
X119886495Y-110263169D01*
X119886495Y-110263169D02*
X119848400Y-110225074D01*
X119848400Y-110225074D02*
X119810304Y-110148883D01*
X119810304Y-110148883D02*
X119810304Y-109920312D01*
X119810304Y-109920312D02*
X119848400Y-109844121D01*
X119848400Y-109844121D02*
X119886495Y-109806026D01*
X119886495Y-110644122D02*
X119848400Y-110682217D01*
X119848400Y-110682217D02*
X119810304Y-110644122D01*
X119810304Y-110644122D02*
X119848400Y-110606026D01*
X119848400Y-110606026D02*
X119886495Y-110644122D01*
X119886495Y-110644122D02*
X119810304Y-110644122D01*
X120610304Y-110948883D02*
X120610304Y-111444121D01*
X120610304Y-111444121D02*
X120305542Y-111177455D01*
X120305542Y-111177455D02*
X120305542Y-111291740D01*
X120305542Y-111291740D02*
X120267447Y-111367931D01*
X120267447Y-111367931D02*
X120229352Y-111406026D01*
X120229352Y-111406026D02*
X120153161Y-111444121D01*
X120153161Y-111444121D02*
X119962685Y-111444121D01*
X119962685Y-111444121D02*
X119886495Y-111406026D01*
X119886495Y-111406026D02*
X119848400Y-111367931D01*
X119848400Y-111367931D02*
X119810304Y-111291740D01*
X119810304Y-111291740D02*
X119810304Y-111063169D01*
X119810304Y-111063169D02*
X119848400Y-110986978D01*
X119848400Y-110986978D02*
X119886495Y-110948883D01*
X120610304Y-111672693D02*
X119810304Y-111939360D01*
X119810304Y-111939360D02*
X120610304Y-112206026D01*
X169034290Y-93004287D02*
X168996195Y-93080477D01*
X168996195Y-93080477D02*
X168996195Y-93194763D01*
X168996195Y-93194763D02*
X169034290Y-93309049D01*
X169034290Y-93309049D02*
X169110480Y-93385239D01*
X169110480Y-93385239D02*
X169186671Y-93423334D01*
X169186671Y-93423334D02*
X169339052Y-93461430D01*
X169339052Y-93461430D02*
X169453338Y-93461430D01*
X169453338Y-93461430D02*
X169605719Y-93423334D01*
X169605719Y-93423334D02*
X169681909Y-93385239D01*
X169681909Y-93385239D02*
X169758100Y-93309049D01*
X169758100Y-93309049D02*
X169796195Y-93194763D01*
X169796195Y-93194763D02*
X169796195Y-93118572D01*
X169796195Y-93118572D02*
X169758100Y-93004287D01*
X169758100Y-93004287D02*
X169720004Y-92966191D01*
X169720004Y-92966191D02*
X169453338Y-92966191D01*
X169453338Y-92966191D02*
X169453338Y-93118572D01*
X169796195Y-92623334D02*
X168996195Y-92623334D01*
X168996195Y-92623334D02*
X169796195Y-92166191D01*
X169796195Y-92166191D02*
X168996195Y-92166191D01*
X169796195Y-91785239D02*
X168996195Y-91785239D01*
X168996195Y-91785239D02*
X168996195Y-91594763D01*
X168996195Y-91594763D02*
X169034290Y-91480477D01*
X169034290Y-91480477D02*
X169110480Y-91404287D01*
X169110480Y-91404287D02*
X169186671Y-91366192D01*
X169186671Y-91366192D02*
X169339052Y-91328096D01*
X169339052Y-91328096D02*
X169453338Y-91328096D01*
X169453338Y-91328096D02*
X169605719Y-91366192D01*
X169605719Y-91366192D02*
X169681909Y-91404287D01*
X169681909Y-91404287D02*
X169758100Y-91480477D01*
X169758100Y-91480477D02*
X169796195Y-91594763D01*
X169796195Y-91594763D02*
X169796195Y-91785239D01*
X120810304Y-82886979D02*
X120010304Y-83153646D01*
X120010304Y-83153646D02*
X120810304Y-83420312D01*
X120810304Y-83839360D02*
X120810304Y-83991741D01*
X120810304Y-83991741D02*
X120772209Y-84067931D01*
X120772209Y-84067931D02*
X120696019Y-84144122D01*
X120696019Y-84144122D02*
X120543638Y-84182217D01*
X120543638Y-84182217D02*
X120276971Y-84182217D01*
X120276971Y-84182217D02*
X120124590Y-84144122D01*
X120124590Y-84144122D02*
X120048400Y-84067931D01*
X120048400Y-84067931D02*
X120010304Y-83991741D01*
X120010304Y-83991741D02*
X120010304Y-83839360D01*
X120010304Y-83839360D02*
X120048400Y-83763169D01*
X120048400Y-83763169D02*
X120124590Y-83686979D01*
X120124590Y-83686979D02*
X120276971Y-83648883D01*
X120276971Y-83648883D02*
X120543638Y-83648883D01*
X120543638Y-83648883D02*
X120696019Y-83686979D01*
X120696019Y-83686979D02*
X120772209Y-83763169D01*
X120772209Y-83763169D02*
X120810304Y-83839360D01*
X120810304Y-84525074D02*
X120162685Y-84525074D01*
X120162685Y-84525074D02*
X120086495Y-84563169D01*
X120086495Y-84563169D02*
X120048400Y-84601264D01*
X120048400Y-84601264D02*
X120010304Y-84677455D01*
X120010304Y-84677455D02*
X120010304Y-84829836D01*
X120010304Y-84829836D02*
X120048400Y-84906026D01*
X120048400Y-84906026D02*
X120086495Y-84944121D01*
X120086495Y-84944121D02*
X120162685Y-84982217D01*
X120162685Y-84982217D02*
X120810304Y-84982217D01*
X120810304Y-85248883D02*
X120810304Y-85706026D01*
X120010304Y-85477454D02*
X120810304Y-85477454D01*
X119934114Y-85782217D02*
X119934114Y-86391740D01*
X120810304Y-86963169D02*
X120810304Y-86582217D01*
X120810304Y-86582217D02*
X120429352Y-86544121D01*
X120429352Y-86544121D02*
X120467447Y-86582217D01*
X120467447Y-86582217D02*
X120505542Y-86658407D01*
X120505542Y-86658407D02*
X120505542Y-86848883D01*
X120505542Y-86848883D02*
X120467447Y-86925074D01*
X120467447Y-86925074D02*
X120429352Y-86963169D01*
X120429352Y-86963169D02*
X120353161Y-87001264D01*
X120353161Y-87001264D02*
X120162685Y-87001264D01*
X120162685Y-87001264D02*
X120086495Y-86963169D01*
X120086495Y-86963169D02*
X120048400Y-86925074D01*
X120048400Y-86925074D02*
X120010304Y-86848883D01*
X120010304Y-86848883D02*
X120010304Y-86658407D01*
X120010304Y-86658407D02*
X120048400Y-86582217D01*
X120048400Y-86582217D02*
X120086495Y-86544121D01*
X120810304Y-87229836D02*
X120010304Y-87496503D01*
X120010304Y-87496503D02*
X120810304Y-87763169D01*
X120810304Y-93986979D02*
X120010304Y-94253646D01*
X120010304Y-94253646D02*
X120810304Y-94520312D01*
X120810304Y-94939360D02*
X120810304Y-95091741D01*
X120810304Y-95091741D02*
X120772209Y-95167931D01*
X120772209Y-95167931D02*
X120696019Y-95244122D01*
X120696019Y-95244122D02*
X120543638Y-95282217D01*
X120543638Y-95282217D02*
X120276971Y-95282217D01*
X120276971Y-95282217D02*
X120124590Y-95244122D01*
X120124590Y-95244122D02*
X120048400Y-95167931D01*
X120048400Y-95167931D02*
X120010304Y-95091741D01*
X120010304Y-95091741D02*
X120010304Y-94939360D01*
X120010304Y-94939360D02*
X120048400Y-94863169D01*
X120048400Y-94863169D02*
X120124590Y-94786979D01*
X120124590Y-94786979D02*
X120276971Y-94748883D01*
X120276971Y-94748883D02*
X120543638Y-94748883D01*
X120543638Y-94748883D02*
X120696019Y-94786979D01*
X120696019Y-94786979D02*
X120772209Y-94863169D01*
X120772209Y-94863169D02*
X120810304Y-94939360D01*
X120810304Y-95625074D02*
X120162685Y-95625074D01*
X120162685Y-95625074D02*
X120086495Y-95663169D01*
X120086495Y-95663169D02*
X120048400Y-95701264D01*
X120048400Y-95701264D02*
X120010304Y-95777455D01*
X120010304Y-95777455D02*
X120010304Y-95929836D01*
X120010304Y-95929836D02*
X120048400Y-96006026D01*
X120048400Y-96006026D02*
X120086495Y-96044121D01*
X120086495Y-96044121D02*
X120162685Y-96082217D01*
X120162685Y-96082217D02*
X120810304Y-96082217D01*
X120810304Y-96348883D02*
X120810304Y-96806026D01*
X120010304Y-96577454D02*
X120810304Y-96577454D01*
X119934114Y-96882217D02*
X119934114Y-97491740D01*
X120543638Y-98025074D02*
X120010304Y-98025074D01*
X120848400Y-97834598D02*
X120276971Y-97644121D01*
X120276971Y-97644121D02*
X120276971Y-98139360D01*
X120086495Y-98444122D02*
X120048400Y-98482217D01*
X120048400Y-98482217D02*
X120010304Y-98444122D01*
X120010304Y-98444122D02*
X120048400Y-98406026D01*
X120048400Y-98406026D02*
X120086495Y-98444122D01*
X120086495Y-98444122D02*
X120010304Y-98444122D01*
X120734114Y-98786978D02*
X120772209Y-98825074D01*
X120772209Y-98825074D02*
X120810304Y-98901264D01*
X120810304Y-98901264D02*
X120810304Y-99091740D01*
X120810304Y-99091740D02*
X120772209Y-99167931D01*
X120772209Y-99167931D02*
X120734114Y-99206026D01*
X120734114Y-99206026D02*
X120657923Y-99244121D01*
X120657923Y-99244121D02*
X120581733Y-99244121D01*
X120581733Y-99244121D02*
X120467447Y-99206026D01*
X120467447Y-99206026D02*
X120010304Y-98748883D01*
X120010304Y-98748883D02*
X120010304Y-99244121D01*
X120810304Y-99472693D02*
X120010304Y-99739360D01*
X120010304Y-99739360D02*
X120810304Y-100006026D01*
D12*
X148883081Y-110470996D02*
X148883081Y-108970996D01*
X148883081Y-108970996D02*
X149454510Y-108970996D01*
X149454510Y-108970996D02*
X149597367Y-109042425D01*
X149597367Y-109042425D02*
X149668796Y-109113853D01*
X149668796Y-109113853D02*
X149740224Y-109256710D01*
X149740224Y-109256710D02*
X149740224Y-109470996D01*
X149740224Y-109470996D02*
X149668796Y-109613853D01*
X149668796Y-109613853D02*
X149597367Y-109685282D01*
X149597367Y-109685282D02*
X149454510Y-109756710D01*
X149454510Y-109756710D02*
X148883081Y-109756710D01*
X150668796Y-108970996D02*
X150954510Y-108970996D01*
X150954510Y-108970996D02*
X151097367Y-109042425D01*
X151097367Y-109042425D02*
X151240224Y-109185282D01*
X151240224Y-109185282D02*
X151311653Y-109470996D01*
X151311653Y-109470996D02*
X151311653Y-109970996D01*
X151311653Y-109970996D02*
X151240224Y-110256710D01*
X151240224Y-110256710D02*
X151097367Y-110399568D01*
X151097367Y-110399568D02*
X150954510Y-110470996D01*
X150954510Y-110470996D02*
X150668796Y-110470996D01*
X150668796Y-110470996D02*
X150525939Y-110399568D01*
X150525939Y-110399568D02*
X150383081Y-110256710D01*
X150383081Y-110256710D02*
X150311653Y-109970996D01*
X150311653Y-109970996D02*
X150311653Y-109470996D01*
X150311653Y-109470996D02*
X150383081Y-109185282D01*
X150383081Y-109185282D02*
X150525939Y-109042425D01*
X150525939Y-109042425D02*
X150668796Y-108970996D01*
X151811653Y-108970996D02*
X152168796Y-110470996D01*
X152168796Y-110470996D02*
X152454510Y-109399568D01*
X152454510Y-109399568D02*
X152740225Y-110470996D01*
X152740225Y-110470996D02*
X153097368Y-108970996D01*
X153668796Y-109685282D02*
X154168796Y-109685282D01*
X154383082Y-110470996D02*
X153668796Y-110470996D01*
X153668796Y-110470996D02*
X153668796Y-108970996D01*
X153668796Y-108970996D02*
X154383082Y-108970996D01*
X155883082Y-110470996D02*
X155383082Y-109756710D01*
X155025939Y-110470996D02*
X155025939Y-108970996D01*
X155025939Y-108970996D02*
X155597368Y-108970996D01*
X155597368Y-108970996D02*
X155740225Y-109042425D01*
X155740225Y-109042425D02*
X155811654Y-109113853D01*
X155811654Y-109113853D02*
X155883082Y-109256710D01*
X155883082Y-109256710D02*
X155883082Y-109470996D01*
X155883082Y-109470996D02*
X155811654Y-109613853D01*
X155811654Y-109613853D02*
X155740225Y-109685282D01*
X155740225Y-109685282D02*
X155597368Y-109756710D01*
X155597368Y-109756710D02*
X155025939Y-109756710D01*
X157597368Y-110399568D02*
X157811654Y-110470996D01*
X157811654Y-110470996D02*
X158168796Y-110470996D01*
X158168796Y-110470996D02*
X158311654Y-110399568D01*
X158311654Y-110399568D02*
X158383082Y-110328139D01*
X158383082Y-110328139D02*
X158454511Y-110185282D01*
X158454511Y-110185282D02*
X158454511Y-110042425D01*
X158454511Y-110042425D02*
X158383082Y-109899568D01*
X158383082Y-109899568D02*
X158311654Y-109828139D01*
X158311654Y-109828139D02*
X158168796Y-109756710D01*
X158168796Y-109756710D02*
X157883082Y-109685282D01*
X157883082Y-109685282D02*
X157740225Y-109613853D01*
X157740225Y-109613853D02*
X157668796Y-109542425D01*
X157668796Y-109542425D02*
X157597368Y-109399568D01*
X157597368Y-109399568D02*
X157597368Y-109256710D01*
X157597368Y-109256710D02*
X157668796Y-109113853D01*
X157668796Y-109113853D02*
X157740225Y-109042425D01*
X157740225Y-109042425D02*
X157883082Y-108970996D01*
X157883082Y-108970996D02*
X158240225Y-108970996D01*
X158240225Y-108970996D02*
X158454511Y-109042425D01*
X159740225Y-109470996D02*
X159740225Y-110470996D01*
X159097367Y-109470996D02*
X159097367Y-110256710D01*
X159097367Y-110256710D02*
X159168796Y-110399568D01*
X159168796Y-110399568D02*
X159311653Y-110470996D01*
X159311653Y-110470996D02*
X159525939Y-110470996D01*
X159525939Y-110470996D02*
X159668796Y-110399568D01*
X159668796Y-110399568D02*
X159740225Y-110328139D01*
X160454510Y-109470996D02*
X160454510Y-110970996D01*
X160454510Y-109542425D02*
X160597368Y-109470996D01*
X160597368Y-109470996D02*
X160883082Y-109470996D01*
X160883082Y-109470996D02*
X161025939Y-109542425D01*
X161025939Y-109542425D02*
X161097368Y-109613853D01*
X161097368Y-109613853D02*
X161168796Y-109756710D01*
X161168796Y-109756710D02*
X161168796Y-110185282D01*
X161168796Y-110185282D02*
X161097368Y-110328139D01*
X161097368Y-110328139D02*
X161025939Y-110399568D01*
X161025939Y-110399568D02*
X160883082Y-110470996D01*
X160883082Y-110470996D02*
X160597368Y-110470996D01*
X160597368Y-110470996D02*
X160454510Y-110399568D01*
X161811653Y-109470996D02*
X161811653Y-110970996D01*
X161811653Y-109542425D02*
X161954511Y-109470996D01*
X161954511Y-109470996D02*
X162240225Y-109470996D01*
X162240225Y-109470996D02*
X162383082Y-109542425D01*
X162383082Y-109542425D02*
X162454511Y-109613853D01*
X162454511Y-109613853D02*
X162525939Y-109756710D01*
X162525939Y-109756710D02*
X162525939Y-110185282D01*
X162525939Y-110185282D02*
X162454511Y-110328139D01*
X162454511Y-110328139D02*
X162383082Y-110399568D01*
X162383082Y-110399568D02*
X162240225Y-110470996D01*
X162240225Y-110470996D02*
X161954511Y-110470996D01*
X161954511Y-110470996D02*
X161811653Y-110399568D01*
X163383082Y-110470996D02*
X163240225Y-110399568D01*
X163240225Y-110399568D02*
X163168796Y-110256710D01*
X163168796Y-110256710D02*
X163168796Y-108970996D01*
X163811653Y-109470996D02*
X164168796Y-110470996D01*
X164525939Y-109470996D02*
X164168796Y-110470996D01*
X164168796Y-110470996D02*
X164025939Y-110828139D01*
X164025939Y-110828139D02*
X163954510Y-110899568D01*
X163954510Y-110899568D02*
X163811653Y-110970996D01*
X145454510Y-112314484D02*
X146597368Y-112314484D01*
X146025939Y-112885912D02*
X146025939Y-111743055D01*
X148025939Y-111385912D02*
X147311653Y-111385912D01*
X147311653Y-111385912D02*
X147240225Y-112100198D01*
X147240225Y-112100198D02*
X147311653Y-112028769D01*
X147311653Y-112028769D02*
X147454511Y-111957341D01*
X147454511Y-111957341D02*
X147811653Y-111957341D01*
X147811653Y-111957341D02*
X147954511Y-112028769D01*
X147954511Y-112028769D02*
X148025939Y-112100198D01*
X148025939Y-112100198D02*
X148097368Y-112243055D01*
X148097368Y-112243055D02*
X148097368Y-112600198D01*
X148097368Y-112600198D02*
X148025939Y-112743055D01*
X148025939Y-112743055D02*
X147954511Y-112814484D01*
X147954511Y-112814484D02*
X147811653Y-112885912D01*
X147811653Y-112885912D02*
X147454511Y-112885912D01*
X147454511Y-112885912D02*
X147311653Y-112814484D01*
X147311653Y-112814484D02*
X147240225Y-112743055D01*
X148525939Y-111385912D02*
X149025939Y-112885912D01*
X149025939Y-112885912D02*
X149525939Y-111385912D01*
X150097367Y-112814484D02*
X150097367Y-112885912D01*
X150097367Y-112885912D02*
X150025938Y-113028769D01*
X150025938Y-113028769D02*
X149954510Y-113100198D01*
X151883081Y-112314484D02*
X153025939Y-112314484D01*
X152454510Y-112885912D02*
X152454510Y-111743055D01*
X154383082Y-111885912D02*
X154383082Y-112885912D01*
X154025939Y-111314484D02*
X153668796Y-112385912D01*
X153668796Y-112385912D02*
X154597367Y-112385912D01*
X155168795Y-112743055D02*
X155240224Y-112814484D01*
X155240224Y-112814484D02*
X155168795Y-112885912D01*
X155168795Y-112885912D02*
X155097367Y-112814484D01*
X155097367Y-112814484D02*
X155168795Y-112743055D01*
X155168795Y-112743055D02*
X155168795Y-112885912D01*
X155811653Y-111528769D02*
X155883081Y-111457341D01*
X155883081Y-111457341D02*
X156025939Y-111385912D01*
X156025939Y-111385912D02*
X156383081Y-111385912D01*
X156383081Y-111385912D02*
X156525939Y-111457341D01*
X156525939Y-111457341D02*
X156597367Y-111528769D01*
X156597367Y-111528769D02*
X156668796Y-111671626D01*
X156668796Y-111671626D02*
X156668796Y-111814484D01*
X156668796Y-111814484D02*
X156597367Y-112028769D01*
X156597367Y-112028769D02*
X155740224Y-112885912D01*
X155740224Y-112885912D02*
X156668796Y-112885912D01*
X157097367Y-111385912D02*
X157597367Y-112885912D01*
X157597367Y-112885912D02*
X158097367Y-111385912D01*
X160954509Y-112885912D02*
X160883081Y-112885912D01*
X160883081Y-112885912D02*
X160740223Y-112814484D01*
X160740223Y-112814484D02*
X160525938Y-112600198D01*
X160525938Y-112600198D02*
X160168795Y-112171626D01*
X160168795Y-112171626D02*
X160025938Y-111957341D01*
X160025938Y-111957341D02*
X159954509Y-111743055D01*
X159954509Y-111743055D02*
X159954509Y-111600198D01*
X159954509Y-111600198D02*
X160025938Y-111457341D01*
X160025938Y-111457341D02*
X160168795Y-111385912D01*
X160168795Y-111385912D02*
X160240223Y-111385912D01*
X160240223Y-111385912D02*
X160383081Y-111457341D01*
X160383081Y-111457341D02*
X160454509Y-111600198D01*
X160454509Y-111600198D02*
X160454509Y-111671626D01*
X160454509Y-111671626D02*
X160383081Y-111814484D01*
X160383081Y-111814484D02*
X160311652Y-111885912D01*
X160311652Y-111885912D02*
X159883081Y-112171626D01*
X159883081Y-112171626D02*
X159811652Y-112243055D01*
X159811652Y-112243055D02*
X159740223Y-112385912D01*
X159740223Y-112385912D02*
X159740223Y-112600198D01*
X159740223Y-112600198D02*
X159811652Y-112743055D01*
X159811652Y-112743055D02*
X159883081Y-112814484D01*
X159883081Y-112814484D02*
X160025938Y-112885912D01*
X160025938Y-112885912D02*
X160240223Y-112885912D01*
X160240223Y-112885912D02*
X160383081Y-112814484D01*
X160383081Y-112814484D02*
X160454509Y-112743055D01*
X160454509Y-112743055D02*
X160668795Y-112457341D01*
X160668795Y-112457341D02*
X160740223Y-112243055D01*
X160740223Y-112243055D02*
X160740223Y-112100198D01*
X162740223Y-112314484D02*
X163883081Y-112314484D01*
X163311652Y-112885912D02*
X163311652Y-111743055D01*
X164454509Y-111385912D02*
X165383081Y-111385912D01*
X165383081Y-111385912D02*
X164883081Y-111957341D01*
X164883081Y-111957341D02*
X165097366Y-111957341D01*
X165097366Y-111957341D02*
X165240224Y-112028769D01*
X165240224Y-112028769D02*
X165311652Y-112100198D01*
X165311652Y-112100198D02*
X165383081Y-112243055D01*
X165383081Y-112243055D02*
X165383081Y-112600198D01*
X165383081Y-112600198D02*
X165311652Y-112743055D01*
X165311652Y-112743055D02*
X165240224Y-112814484D01*
X165240224Y-112814484D02*
X165097366Y-112885912D01*
X165097366Y-112885912D02*
X164668795Y-112885912D01*
X164668795Y-112885912D02*
X164525938Y-112814484D01*
X164525938Y-112814484D02*
X164454509Y-112743055D01*
X166025937Y-112743055D02*
X166097366Y-112814484D01*
X166097366Y-112814484D02*
X166025937Y-112885912D01*
X166025937Y-112885912D02*
X165954509Y-112814484D01*
X165954509Y-112814484D02*
X166025937Y-112743055D01*
X166025937Y-112743055D02*
X166025937Y-112885912D01*
X166597366Y-111385912D02*
X167525938Y-111385912D01*
X167525938Y-111385912D02*
X167025938Y-111957341D01*
X167025938Y-111957341D02*
X167240223Y-111957341D01*
X167240223Y-111957341D02*
X167383081Y-112028769D01*
X167383081Y-112028769D02*
X167454509Y-112100198D01*
X167454509Y-112100198D02*
X167525938Y-112243055D01*
X167525938Y-112243055D02*
X167525938Y-112600198D01*
X167525938Y-112600198D02*
X167454509Y-112743055D01*
X167454509Y-112743055D02*
X167383081Y-112814484D01*
X167383081Y-112814484D02*
X167240223Y-112885912D01*
X167240223Y-112885912D02*
X166811652Y-112885912D01*
X166811652Y-112885912D02*
X166668795Y-112814484D01*
X166668795Y-112814484D02*
X166597366Y-112743055D01*
X167954509Y-111385912D02*
X168454509Y-112885912D01*
X168454509Y-112885912D02*
X168954509Y-111385912D01*
X147454510Y-115157971D02*
X147383082Y-115229400D01*
X147383082Y-115229400D02*
X147168796Y-115300828D01*
X147168796Y-115300828D02*
X147025939Y-115300828D01*
X147025939Y-115300828D02*
X146811653Y-115229400D01*
X146811653Y-115229400D02*
X146668796Y-115086542D01*
X146668796Y-115086542D02*
X146597367Y-114943685D01*
X146597367Y-114943685D02*
X146525939Y-114657971D01*
X146525939Y-114657971D02*
X146525939Y-114443685D01*
X146525939Y-114443685D02*
X146597367Y-114157971D01*
X146597367Y-114157971D02*
X146668796Y-114015114D01*
X146668796Y-114015114D02*
X146811653Y-113872257D01*
X146811653Y-113872257D02*
X147025939Y-113800828D01*
X147025939Y-113800828D02*
X147168796Y-113800828D01*
X147168796Y-113800828D02*
X147383082Y-113872257D01*
X147383082Y-113872257D02*
X147454510Y-113943685D01*
X148311653Y-115300828D02*
X148168796Y-115229400D01*
X148168796Y-115229400D02*
X148097367Y-115157971D01*
X148097367Y-115157971D02*
X148025939Y-115015114D01*
X148025939Y-115015114D02*
X148025939Y-114586542D01*
X148025939Y-114586542D02*
X148097367Y-114443685D01*
X148097367Y-114443685D02*
X148168796Y-114372257D01*
X148168796Y-114372257D02*
X148311653Y-114300828D01*
X148311653Y-114300828D02*
X148525939Y-114300828D01*
X148525939Y-114300828D02*
X148668796Y-114372257D01*
X148668796Y-114372257D02*
X148740225Y-114443685D01*
X148740225Y-114443685D02*
X148811653Y-114586542D01*
X148811653Y-114586542D02*
X148811653Y-115015114D01*
X148811653Y-115015114D02*
X148740225Y-115157971D01*
X148740225Y-115157971D02*
X148668796Y-115229400D01*
X148668796Y-115229400D02*
X148525939Y-115300828D01*
X148525939Y-115300828D02*
X148311653Y-115300828D01*
X149454510Y-114300828D02*
X149454510Y-115300828D01*
X149454510Y-114443685D02*
X149525939Y-114372257D01*
X149525939Y-114372257D02*
X149668796Y-114300828D01*
X149668796Y-114300828D02*
X149883082Y-114300828D01*
X149883082Y-114300828D02*
X150025939Y-114372257D01*
X150025939Y-114372257D02*
X150097368Y-114515114D01*
X150097368Y-114515114D02*
X150097368Y-115300828D01*
X150668796Y-114300828D02*
X151025939Y-115300828D01*
X151025939Y-115300828D02*
X151383082Y-114300828D01*
X152525939Y-115229400D02*
X152383082Y-115300828D01*
X152383082Y-115300828D02*
X152097368Y-115300828D01*
X152097368Y-115300828D02*
X151954510Y-115229400D01*
X151954510Y-115229400D02*
X151883082Y-115086542D01*
X151883082Y-115086542D02*
X151883082Y-114515114D01*
X151883082Y-114515114D02*
X151954510Y-114372257D01*
X151954510Y-114372257D02*
X152097368Y-114300828D01*
X152097368Y-114300828D02*
X152383082Y-114300828D01*
X152383082Y-114300828D02*
X152525939Y-114372257D01*
X152525939Y-114372257D02*
X152597368Y-114515114D01*
X152597368Y-114515114D02*
X152597368Y-114657971D01*
X152597368Y-114657971D02*
X151883082Y-114800828D01*
X153240224Y-115300828D02*
X153240224Y-114300828D01*
X153240224Y-114586542D02*
X153311653Y-114443685D01*
X153311653Y-114443685D02*
X153383082Y-114372257D01*
X153383082Y-114372257D02*
X153525939Y-114300828D01*
X153525939Y-114300828D02*
X153668796Y-114300828D01*
X154097367Y-115229400D02*
X154240224Y-115300828D01*
X154240224Y-115300828D02*
X154525938Y-115300828D01*
X154525938Y-115300828D02*
X154668795Y-115229400D01*
X154668795Y-115229400D02*
X154740224Y-115086542D01*
X154740224Y-115086542D02*
X154740224Y-115015114D01*
X154740224Y-115015114D02*
X154668795Y-114872257D01*
X154668795Y-114872257D02*
X154525938Y-114800828D01*
X154525938Y-114800828D02*
X154311653Y-114800828D01*
X154311653Y-114800828D02*
X154168795Y-114729400D01*
X154168795Y-114729400D02*
X154097367Y-114586542D01*
X154097367Y-114586542D02*
X154097367Y-114515114D01*
X154097367Y-114515114D02*
X154168795Y-114372257D01*
X154168795Y-114372257D02*
X154311653Y-114300828D01*
X154311653Y-114300828D02*
X154525938Y-114300828D01*
X154525938Y-114300828D02*
X154668795Y-114372257D01*
X155383081Y-115300828D02*
X155383081Y-114300828D01*
X155383081Y-113800828D02*
X155311653Y-113872257D01*
X155311653Y-113872257D02*
X155383081Y-113943685D01*
X155383081Y-113943685D02*
X155454510Y-113872257D01*
X155454510Y-113872257D02*
X155383081Y-113800828D01*
X155383081Y-113800828D02*
X155383081Y-113943685D01*
X156311653Y-115300828D02*
X156168796Y-115229400D01*
X156168796Y-115229400D02*
X156097367Y-115157971D01*
X156097367Y-115157971D02*
X156025939Y-115015114D01*
X156025939Y-115015114D02*
X156025939Y-114586542D01*
X156025939Y-114586542D02*
X156097367Y-114443685D01*
X156097367Y-114443685D02*
X156168796Y-114372257D01*
X156168796Y-114372257D02*
X156311653Y-114300828D01*
X156311653Y-114300828D02*
X156525939Y-114300828D01*
X156525939Y-114300828D02*
X156668796Y-114372257D01*
X156668796Y-114372257D02*
X156740225Y-114443685D01*
X156740225Y-114443685D02*
X156811653Y-114586542D01*
X156811653Y-114586542D02*
X156811653Y-115015114D01*
X156811653Y-115015114D02*
X156740225Y-115157971D01*
X156740225Y-115157971D02*
X156668796Y-115229400D01*
X156668796Y-115229400D02*
X156525939Y-115300828D01*
X156525939Y-115300828D02*
X156311653Y-115300828D01*
X157454510Y-114300828D02*
X157454510Y-115300828D01*
X157454510Y-114443685D02*
X157525939Y-114372257D01*
X157525939Y-114372257D02*
X157668796Y-114300828D01*
X157668796Y-114300828D02*
X157883082Y-114300828D01*
X157883082Y-114300828D02*
X158025939Y-114372257D01*
X158025939Y-114372257D02*
X158097368Y-114515114D01*
X158097368Y-114515114D02*
X158097368Y-115300828D01*
X160811653Y-115157971D02*
X160740225Y-115229400D01*
X160740225Y-115229400D02*
X160525939Y-115300828D01*
X160525939Y-115300828D02*
X160383082Y-115300828D01*
X160383082Y-115300828D02*
X160168796Y-115229400D01*
X160168796Y-115229400D02*
X160025939Y-115086542D01*
X160025939Y-115086542D02*
X159954510Y-114943685D01*
X159954510Y-114943685D02*
X159883082Y-114657971D01*
X159883082Y-114657971D02*
X159883082Y-114443685D01*
X159883082Y-114443685D02*
X159954510Y-114157971D01*
X159954510Y-114157971D02*
X160025939Y-114015114D01*
X160025939Y-114015114D02*
X160168796Y-113872257D01*
X160168796Y-113872257D02*
X160383082Y-113800828D01*
X160383082Y-113800828D02*
X160525939Y-113800828D01*
X160525939Y-113800828D02*
X160740225Y-113872257D01*
X160740225Y-113872257D02*
X160811653Y-113943685D01*
X161454510Y-115300828D02*
X161454510Y-114300828D01*
X161454510Y-113800828D02*
X161383082Y-113872257D01*
X161383082Y-113872257D02*
X161454510Y-113943685D01*
X161454510Y-113943685D02*
X161525939Y-113872257D01*
X161525939Y-113872257D02*
X161454510Y-113800828D01*
X161454510Y-113800828D02*
X161454510Y-113943685D01*
X162168796Y-115300828D02*
X162168796Y-114300828D01*
X162168796Y-114586542D02*
X162240225Y-114443685D01*
X162240225Y-114443685D02*
X162311654Y-114372257D01*
X162311654Y-114372257D02*
X162454511Y-114300828D01*
X162454511Y-114300828D02*
X162597368Y-114300828D01*
X163740225Y-115229400D02*
X163597367Y-115300828D01*
X163597367Y-115300828D02*
X163311653Y-115300828D01*
X163311653Y-115300828D02*
X163168796Y-115229400D01*
X163168796Y-115229400D02*
X163097367Y-115157971D01*
X163097367Y-115157971D02*
X163025939Y-115015114D01*
X163025939Y-115015114D02*
X163025939Y-114586542D01*
X163025939Y-114586542D02*
X163097367Y-114443685D01*
X163097367Y-114443685D02*
X163168796Y-114372257D01*
X163168796Y-114372257D02*
X163311653Y-114300828D01*
X163311653Y-114300828D02*
X163597367Y-114300828D01*
X163597367Y-114300828D02*
X163740225Y-114372257D01*
X165025939Y-114300828D02*
X165025939Y-115300828D01*
X164383081Y-114300828D02*
X164383081Y-115086542D01*
X164383081Y-115086542D02*
X164454510Y-115229400D01*
X164454510Y-115229400D02*
X164597367Y-115300828D01*
X164597367Y-115300828D02*
X164811653Y-115300828D01*
X164811653Y-115300828D02*
X164954510Y-115229400D01*
X164954510Y-115229400D02*
X165025939Y-115157971D01*
X165740224Y-115300828D02*
X165740224Y-114300828D01*
X165740224Y-113800828D02*
X165668796Y-113872257D01*
X165668796Y-113872257D02*
X165740224Y-113943685D01*
X165740224Y-113943685D02*
X165811653Y-113872257D01*
X165811653Y-113872257D02*
X165740224Y-113800828D01*
X165740224Y-113800828D02*
X165740224Y-113943685D01*
X166240225Y-114300828D02*
X166811653Y-114300828D01*
X166454510Y-113800828D02*
X166454510Y-115086542D01*
X166454510Y-115086542D02*
X166525939Y-115229400D01*
X166525939Y-115229400D02*
X166668796Y-115300828D01*
X166668796Y-115300828D02*
X166811653Y-115300828D01*
D11*
X132408304Y-97903006D02*
X132408304Y-97522054D01*
X132408304Y-97522054D02*
X132027352Y-97483958D01*
X132027352Y-97483958D02*
X132065447Y-97522054D01*
X132065447Y-97522054D02*
X132103542Y-97598244D01*
X132103542Y-97598244D02*
X132103542Y-97788720D01*
X132103542Y-97788720D02*
X132065447Y-97864911D01*
X132065447Y-97864911D02*
X132027352Y-97903006D01*
X132027352Y-97903006D02*
X131951161Y-97941101D01*
X131951161Y-97941101D02*
X131760685Y-97941101D01*
X131760685Y-97941101D02*
X131684495Y-97903006D01*
X131684495Y-97903006D02*
X131646400Y-97864911D01*
X131646400Y-97864911D02*
X131608304Y-97788720D01*
X131608304Y-97788720D02*
X131608304Y-97598244D01*
X131608304Y-97598244D02*
X131646400Y-97522054D01*
X131646400Y-97522054D02*
X131684495Y-97483958D01*
X131913066Y-98893483D02*
X131913066Y-99503007D01*
X132141638Y-99883959D02*
X131913066Y-100493483D01*
X131913066Y-100493483D02*
X131684495Y-99883959D01*
X132141638Y-101826816D02*
X131608304Y-101826816D01*
X132446400Y-101636340D02*
X131874971Y-101445863D01*
X131874971Y-101445863D02*
X131874971Y-101941102D01*
X131684495Y-102245864D02*
X131646400Y-102283959D01*
X131646400Y-102283959D02*
X131608304Y-102245864D01*
X131608304Y-102245864D02*
X131646400Y-102207768D01*
X131646400Y-102207768D02*
X131684495Y-102245864D01*
X131684495Y-102245864D02*
X131608304Y-102245864D01*
X132332114Y-102588720D02*
X132370209Y-102626816D01*
X132370209Y-102626816D02*
X132408304Y-102703006D01*
X132408304Y-102703006D02*
X132408304Y-102893482D01*
X132408304Y-102893482D02*
X132370209Y-102969673D01*
X132370209Y-102969673D02*
X132332114Y-103007768D01*
X132332114Y-103007768D02*
X132255923Y-103045863D01*
X132255923Y-103045863D02*
X132179733Y-103045863D01*
X132179733Y-103045863D02*
X132065447Y-103007768D01*
X132065447Y-103007768D02*
X131608304Y-102550625D01*
X131608304Y-102550625D02*
X131608304Y-103045863D01*
X132408304Y-103274435D02*
X131608304Y-103541102D01*
X131608304Y-103541102D02*
X132408304Y-103807768D01*
D10*
X120865009Y-114220312D02*
X120903104Y-114144122D01*
X120903104Y-114144122D02*
X120903104Y-114029836D01*
X120903104Y-114029836D02*
X120865009Y-113915550D01*
X120865009Y-113915550D02*
X120788819Y-113839360D01*
X120788819Y-113839360D02*
X120712628Y-113801265D01*
X120712628Y-113801265D02*
X120560247Y-113763169D01*
X120560247Y-113763169D02*
X120445961Y-113763169D01*
X120445961Y-113763169D02*
X120293580Y-113801265D01*
X120293580Y-113801265D02*
X120217390Y-113839360D01*
X120217390Y-113839360D02*
X120141200Y-113915550D01*
X120141200Y-113915550D02*
X120103104Y-114029836D01*
X120103104Y-114029836D02*
X120103104Y-114106027D01*
X120103104Y-114106027D02*
X120141200Y-114220312D01*
X120141200Y-114220312D02*
X120179295Y-114258408D01*
X120179295Y-114258408D02*
X120445961Y-114258408D01*
X120445961Y-114258408D02*
X120445961Y-114106027D01*
X120103104Y-114601265D02*
X120903104Y-114601265D01*
X120903104Y-114601265D02*
X120103104Y-115058408D01*
X120103104Y-115058408D02*
X120903104Y-115058408D01*
X120103104Y-115439360D02*
X120903104Y-115439360D01*
X120903104Y-115439360D02*
X120903104Y-115629836D01*
X120903104Y-115629836D02*
X120865009Y-115744122D01*
X120865009Y-115744122D02*
X120788819Y-115820312D01*
X120788819Y-115820312D02*
X120712628Y-115858407D01*
X120712628Y-115858407D02*
X120560247Y-115896503D01*
X120560247Y-115896503D02*
X120445961Y-115896503D01*
X120445961Y-115896503D02*
X120293580Y-115858407D01*
X120293580Y-115858407D02*
X120217390Y-115820312D01*
X120217390Y-115820312D02*
X120141200Y-115744122D01*
X120141200Y-115744122D02*
X120103104Y-115629836D01*
X120103104Y-115629836D02*
X120103104Y-115439360D01*
X169004095Y-99703020D02*
X169804095Y-99436353D01*
X169804095Y-99436353D02*
X169004095Y-99169687D01*
X169804095Y-98903020D02*
X169004095Y-98903020D01*
X169804095Y-98522068D02*
X169004095Y-98522068D01*
X169004095Y-98522068D02*
X169804095Y-98064925D01*
X169804095Y-98064925D02*
X169004095Y-98064925D01*
X169880285Y-97874450D02*
X169880285Y-97264926D01*
X169804095Y-96655402D02*
X169804095Y-97112545D01*
X169804095Y-96883973D02*
X169004095Y-96883973D01*
X169004095Y-96883973D02*
X169118380Y-96960164D01*
X169118380Y-96960164D02*
X169194571Y-97036354D01*
X169194571Y-97036354D02*
X169232666Y-97112545D01*
X169080285Y-96350640D02*
X169042190Y-96312544D01*
X169042190Y-96312544D02*
X169004095Y-96236354D01*
X169004095Y-96236354D02*
X169004095Y-96045878D01*
X169004095Y-96045878D02*
X169042190Y-95969687D01*
X169042190Y-95969687D02*
X169080285Y-95931592D01*
X169080285Y-95931592D02*
X169156476Y-95893497D01*
X169156476Y-95893497D02*
X169232666Y-95893497D01*
X169232666Y-95893497D02*
X169346952Y-95931592D01*
X169346952Y-95931592D02*
X169804095Y-96388735D01*
X169804095Y-96388735D02*
X169804095Y-95893497D01*
X169004095Y-95664925D02*
X169804095Y-95398258D01*
X169804095Y-95398258D02*
X169004095Y-95131592D01*
D11*
X132408304Y-108603006D02*
X132408304Y-108222054D01*
X132408304Y-108222054D02*
X132027352Y-108183958D01*
X132027352Y-108183958D02*
X132065447Y-108222054D01*
X132065447Y-108222054D02*
X132103542Y-108298244D01*
X132103542Y-108298244D02*
X132103542Y-108488720D01*
X132103542Y-108488720D02*
X132065447Y-108564911D01*
X132065447Y-108564911D02*
X132027352Y-108603006D01*
X132027352Y-108603006D02*
X131951161Y-108641101D01*
X131951161Y-108641101D02*
X131760685Y-108641101D01*
X131760685Y-108641101D02*
X131684495Y-108603006D01*
X131684495Y-108603006D02*
X131646400Y-108564911D01*
X131646400Y-108564911D02*
X131608304Y-108488720D01*
X131608304Y-108488720D02*
X131608304Y-108298244D01*
X131608304Y-108298244D02*
X131646400Y-108222054D01*
X131646400Y-108222054D02*
X131684495Y-108183958D01*
X131913066Y-109593483D02*
X131913066Y-110203007D01*
X132141638Y-110583959D02*
X131913066Y-111193483D01*
X131913066Y-111193483D02*
X131684495Y-110583959D01*
X132408304Y-112107768D02*
X132408304Y-112603006D01*
X132408304Y-112603006D02*
X132103542Y-112336340D01*
X132103542Y-112336340D02*
X132103542Y-112450625D01*
X132103542Y-112450625D02*
X132065447Y-112526816D01*
X132065447Y-112526816D02*
X132027352Y-112564911D01*
X132027352Y-112564911D02*
X131951161Y-112603006D01*
X131951161Y-112603006D02*
X131760685Y-112603006D01*
X131760685Y-112603006D02*
X131684495Y-112564911D01*
X131684495Y-112564911D02*
X131646400Y-112526816D01*
X131646400Y-112526816D02*
X131608304Y-112450625D01*
X131608304Y-112450625D02*
X131608304Y-112222054D01*
X131608304Y-112222054D02*
X131646400Y-112145863D01*
X131646400Y-112145863D02*
X131684495Y-112107768D01*
X131684495Y-112945864D02*
X131646400Y-112983959D01*
X131646400Y-112983959D02*
X131608304Y-112945864D01*
X131608304Y-112945864D02*
X131646400Y-112907768D01*
X131646400Y-112907768D02*
X131684495Y-112945864D01*
X131684495Y-112945864D02*
X131608304Y-112945864D01*
X132408304Y-113250625D02*
X132408304Y-113745863D01*
X132408304Y-113745863D02*
X132103542Y-113479197D01*
X132103542Y-113479197D02*
X132103542Y-113593482D01*
X132103542Y-113593482D02*
X132065447Y-113669673D01*
X132065447Y-113669673D02*
X132027352Y-113707768D01*
X132027352Y-113707768D02*
X131951161Y-113745863D01*
X131951161Y-113745863D02*
X131760685Y-113745863D01*
X131760685Y-113745863D02*
X131684495Y-113707768D01*
X131684495Y-113707768D02*
X131646400Y-113669673D01*
X131646400Y-113669673D02*
X131608304Y-113593482D01*
X131608304Y-113593482D02*
X131608304Y-113364911D01*
X131608304Y-113364911D02*
X131646400Y-113288720D01*
X131646400Y-113288720D02*
X131684495Y-113250625D01*
X132408304Y-113974435D02*
X131608304Y-114241102D01*
X131608304Y-114241102D02*
X132408304Y-114507768D01*
D10*
X169042190Y-104269687D02*
X169004095Y-104345877D01*
X169004095Y-104345877D02*
X169004095Y-104460163D01*
X169004095Y-104460163D02*
X169042190Y-104574449D01*
X169042190Y-104574449D02*
X169118380Y-104650639D01*
X169118380Y-104650639D02*
X169194571Y-104688734D01*
X169194571Y-104688734D02*
X169346952Y-104726830D01*
X169346952Y-104726830D02*
X169461238Y-104726830D01*
X169461238Y-104726830D02*
X169613619Y-104688734D01*
X169613619Y-104688734D02*
X169689809Y-104650639D01*
X169689809Y-104650639D02*
X169766000Y-104574449D01*
X169766000Y-104574449D02*
X169804095Y-104460163D01*
X169804095Y-104460163D02*
X169804095Y-104383972D01*
X169804095Y-104383972D02*
X169766000Y-104269687D01*
X169766000Y-104269687D02*
X169727904Y-104231591D01*
X169727904Y-104231591D02*
X169461238Y-104231591D01*
X169461238Y-104231591D02*
X169461238Y-104383972D01*
X169804095Y-103888734D02*
X169004095Y-103888734D01*
X169004095Y-103888734D02*
X169804095Y-103431591D01*
X169804095Y-103431591D02*
X169004095Y-103431591D01*
X169804095Y-103050639D02*
X169004095Y-103050639D01*
X169004095Y-103050639D02*
X169004095Y-102860163D01*
X169004095Y-102860163D02*
X169042190Y-102745877D01*
X169042190Y-102745877D02*
X169118380Y-102669687D01*
X169118380Y-102669687D02*
X169194571Y-102631592D01*
X169194571Y-102631592D02*
X169346952Y-102593496D01*
X169346952Y-102593496D02*
X169461238Y-102593496D01*
X169461238Y-102593496D02*
X169613619Y-102631592D01*
X169613619Y-102631592D02*
X169689809Y-102669687D01*
X169689809Y-102669687D02*
X169766000Y-102745877D01*
X169766000Y-102745877D02*
X169804095Y-102860163D01*
X169804095Y-102860163D02*
X169804095Y-103050639D01*
D11*
X158998895Y-101822945D02*
X158198895Y-101822945D01*
X158198895Y-101822945D02*
X158198895Y-101518183D01*
X158198895Y-101518183D02*
X158236990Y-101441993D01*
X158236990Y-101441993D02*
X158275085Y-101403898D01*
X158275085Y-101403898D02*
X158351276Y-101365802D01*
X158351276Y-101365802D02*
X158465561Y-101365802D01*
X158465561Y-101365802D02*
X158541752Y-101403898D01*
X158541752Y-101403898D02*
X158579847Y-101441993D01*
X158579847Y-101441993D02*
X158617942Y-101518183D01*
X158617942Y-101518183D02*
X158617942Y-101822945D01*
X158198895Y-100870564D02*
X158198895Y-100718183D01*
X158198895Y-100718183D02*
X158236990Y-100641993D01*
X158236990Y-100641993D02*
X158313180Y-100565802D01*
X158313180Y-100565802D02*
X158465561Y-100527707D01*
X158465561Y-100527707D02*
X158732228Y-100527707D01*
X158732228Y-100527707D02*
X158884609Y-100565802D01*
X158884609Y-100565802D02*
X158960800Y-100641993D01*
X158960800Y-100641993D02*
X158998895Y-100718183D01*
X158998895Y-100718183D02*
X158998895Y-100870564D01*
X158998895Y-100870564D02*
X158960800Y-100946755D01*
X158960800Y-100946755D02*
X158884609Y-101022945D01*
X158884609Y-101022945D02*
X158732228Y-101061041D01*
X158732228Y-101061041D02*
X158465561Y-101061041D01*
X158465561Y-101061041D02*
X158313180Y-101022945D01*
X158313180Y-101022945D02*
X158236990Y-100946755D01*
X158236990Y-100946755D02*
X158198895Y-100870564D01*
X158998895Y-99727707D02*
X158617942Y-99994374D01*
X158998895Y-100184850D02*
X158198895Y-100184850D01*
X158198895Y-100184850D02*
X158198895Y-99880088D01*
X158198895Y-99880088D02*
X158236990Y-99803898D01*
X158236990Y-99803898D02*
X158275085Y-99765803D01*
X158275085Y-99765803D02*
X158351276Y-99727707D01*
X158351276Y-99727707D02*
X158465561Y-99727707D01*
X158465561Y-99727707D02*
X158541752Y-99765803D01*
X158541752Y-99765803D02*
X158579847Y-99803898D01*
X158579847Y-99803898D02*
X158617942Y-99880088D01*
X158617942Y-99880088D02*
X158617942Y-100184850D01*
X158198895Y-99499136D02*
X158198895Y-99041993D01*
X158998895Y-99270565D02*
X158198895Y-99270565D01*
X158694133Y-98165802D02*
X158694133Y-97556279D01*
X158275085Y-96603898D02*
X158236990Y-96565802D01*
X158236990Y-96565802D02*
X158198895Y-96489612D01*
X158198895Y-96489612D02*
X158198895Y-96299136D01*
X158198895Y-96299136D02*
X158236990Y-96222945D01*
X158236990Y-96222945D02*
X158275085Y-96184850D01*
X158275085Y-96184850D02*
X158351276Y-96146755D01*
X158351276Y-96146755D02*
X158427466Y-96146755D01*
X158427466Y-96146755D02*
X158541752Y-96184850D01*
X158541752Y-96184850D02*
X158998895Y-96641993D01*
X158998895Y-96641993D02*
X158998895Y-96146755D01*
D10*
X168970795Y-88102020D02*
X169770795Y-87835353D01*
X169770795Y-87835353D02*
X168970795Y-87568687D01*
X169770795Y-87302020D02*
X168970795Y-87302020D01*
X169770795Y-86921068D02*
X168970795Y-86921068D01*
X168970795Y-86921068D02*
X169770795Y-86463925D01*
X169770795Y-86463925D02*
X168970795Y-86463925D01*
X169846985Y-86273450D02*
X169846985Y-85663926D01*
X169770795Y-85054402D02*
X169770795Y-85511545D01*
X169770795Y-85282973D02*
X168970795Y-85282973D01*
X168970795Y-85282973D02*
X169085080Y-85359164D01*
X169085080Y-85359164D02*
X169161271Y-85435354D01*
X169161271Y-85435354D02*
X169199366Y-85511545D01*
X169046985Y-84749640D02*
X169008890Y-84711544D01*
X169008890Y-84711544D02*
X168970795Y-84635354D01*
X168970795Y-84635354D02*
X168970795Y-84444878D01*
X168970795Y-84444878D02*
X169008890Y-84368687D01*
X169008890Y-84368687D02*
X169046985Y-84330592D01*
X169046985Y-84330592D02*
X169123176Y-84292497D01*
X169123176Y-84292497D02*
X169199366Y-84292497D01*
X169199366Y-84292497D02*
X169313652Y-84330592D01*
X169313652Y-84330592D02*
X169770795Y-84787735D01*
X169770795Y-84787735D02*
X169770795Y-84292497D01*
X168970795Y-84063925D02*
X169770795Y-83797258D01*
X169770795Y-83797258D02*
X168970795Y-83530592D01*
D11*
X158998895Y-91322945D02*
X158198895Y-91322945D01*
X158198895Y-91322945D02*
X158198895Y-91018183D01*
X158198895Y-91018183D02*
X158236990Y-90941993D01*
X158236990Y-90941993D02*
X158275085Y-90903898D01*
X158275085Y-90903898D02*
X158351276Y-90865802D01*
X158351276Y-90865802D02*
X158465561Y-90865802D01*
X158465561Y-90865802D02*
X158541752Y-90903898D01*
X158541752Y-90903898D02*
X158579847Y-90941993D01*
X158579847Y-90941993D02*
X158617942Y-91018183D01*
X158617942Y-91018183D02*
X158617942Y-91322945D01*
X158198895Y-90370564D02*
X158198895Y-90218183D01*
X158198895Y-90218183D02*
X158236990Y-90141993D01*
X158236990Y-90141993D02*
X158313180Y-90065802D01*
X158313180Y-90065802D02*
X158465561Y-90027707D01*
X158465561Y-90027707D02*
X158732228Y-90027707D01*
X158732228Y-90027707D02*
X158884609Y-90065802D01*
X158884609Y-90065802D02*
X158960800Y-90141993D01*
X158960800Y-90141993D02*
X158998895Y-90218183D01*
X158998895Y-90218183D02*
X158998895Y-90370564D01*
X158998895Y-90370564D02*
X158960800Y-90446755D01*
X158960800Y-90446755D02*
X158884609Y-90522945D01*
X158884609Y-90522945D02*
X158732228Y-90561041D01*
X158732228Y-90561041D02*
X158465561Y-90561041D01*
X158465561Y-90561041D02*
X158313180Y-90522945D01*
X158313180Y-90522945D02*
X158236990Y-90446755D01*
X158236990Y-90446755D02*
X158198895Y-90370564D01*
X158998895Y-89227707D02*
X158617942Y-89494374D01*
X158998895Y-89684850D02*
X158198895Y-89684850D01*
X158198895Y-89684850D02*
X158198895Y-89380088D01*
X158198895Y-89380088D02*
X158236990Y-89303898D01*
X158236990Y-89303898D02*
X158275085Y-89265803D01*
X158275085Y-89265803D02*
X158351276Y-89227707D01*
X158351276Y-89227707D02*
X158465561Y-89227707D01*
X158465561Y-89227707D02*
X158541752Y-89265803D01*
X158541752Y-89265803D02*
X158579847Y-89303898D01*
X158579847Y-89303898D02*
X158617942Y-89380088D01*
X158617942Y-89380088D02*
X158617942Y-89684850D01*
X158198895Y-88999136D02*
X158198895Y-88541993D01*
X158998895Y-88770565D02*
X158198895Y-88770565D01*
X158694133Y-87665802D02*
X158694133Y-87056279D01*
X158998895Y-85646755D02*
X158998895Y-86103898D01*
X158998895Y-85875326D02*
X158198895Y-85875326D01*
X158198895Y-85875326D02*
X158313180Y-85951517D01*
X158313180Y-85951517D02*
X158389371Y-86027707D01*
X158389371Y-86027707D02*
X158427466Y-86103898D01*
D13*
%TO.C,C9*%
X120622400Y-72452200D02*
X123362400Y-72452200D01*
X120622400Y-77692200D02*
X120622400Y-72452200D01*
X123362400Y-72452200D02*
X123362400Y-77692200D01*
X123362400Y-77692200D02*
X120622400Y-77692200D01*
%TO.C,C8*%
X123721200Y-72472200D02*
X126461200Y-72472200D01*
X123721200Y-77712200D02*
X123721200Y-72472200D01*
X126461200Y-72472200D02*
X126461200Y-77712200D01*
X126461200Y-77712200D02*
X123721200Y-77712200D01*
%TO.C,J1*%
X159200700Y-83134800D02*
X168440700Y-83134800D01*
X159200700Y-93374800D02*
X159200700Y-83134800D01*
X166820700Y-93374800D02*
X166820700Y-83134800D01*
X167920700Y-93374800D02*
X167920700Y-83134800D01*
X168440700Y-83134800D02*
X168440700Y-90454800D01*
X168440700Y-91054800D02*
X168440700Y-93374800D01*
X168440700Y-93374800D02*
X159200700Y-93374800D01*
X169050700Y-91194800D02*
X168440700Y-90754800D01*
X169050700Y-90314800D01*
X169050700Y-91194800D01*
G36*
X169050700Y-91194800D02*
G01*
X168440700Y-90754800D01*
X169050700Y-90314800D01*
X169050700Y-91194800D01*
G37*
%TO.C,C16*%
X149337200Y-99075000D02*
X152077200Y-99075000D01*
X149337200Y-104315000D02*
X149337200Y-99075000D01*
X152077200Y-99075000D02*
X152077200Y-104315000D01*
X152077200Y-104315000D02*
X149337200Y-104315000D01*
%TO.C,J3*%
X121587200Y-94025000D02*
X130827200Y-94025000D01*
X121587200Y-96345000D02*
X121587200Y-94025000D01*
X121587200Y-104265000D02*
X121587200Y-96945000D01*
X122107200Y-94025000D02*
X122107200Y-104265000D01*
X123207200Y-94025000D02*
X123207200Y-104265000D01*
X130827200Y-94025000D02*
X130827200Y-104265000D01*
X130827200Y-104265000D02*
X121587200Y-104265000D01*
X121587200Y-96645000D02*
X120977200Y-97085000D01*
X120977200Y-96205000D01*
X121587200Y-96645000D01*
G36*
X121587200Y-96645000D02*
G01*
X120977200Y-97085000D01*
X120977200Y-96205000D01*
X121587200Y-96645000D01*
G37*
%TO.C,J2*%
X121619700Y-82425000D02*
X130859700Y-82425000D01*
X121619700Y-84745000D02*
X121619700Y-82425000D01*
X121619700Y-92665000D02*
X121619700Y-85345000D01*
X122139700Y-82425000D02*
X122139700Y-92665000D01*
X123239700Y-82425000D02*
X123239700Y-92665000D01*
X130859700Y-82425000D02*
X130859700Y-92665000D01*
X130859700Y-92665000D02*
X121619700Y-92665000D01*
X121619700Y-85045000D02*
X121009700Y-85485000D01*
X121009700Y-84605000D01*
X121619700Y-85045000D01*
G36*
X121619700Y-85045000D02*
G01*
X121009700Y-85485000D01*
X121009700Y-84605000D01*
X121619700Y-85045000D01*
G37*
%TO.C,D6*%
X133319700Y-114445000D02*
X133319700Y-115445000D01*
%TO.C,D5*%
X134607200Y-95845000D02*
X134607200Y-96845000D01*
%TO.C,R5*%
X138365778Y-114435000D02*
X137848622Y-114435000D01*
X138365778Y-115855000D02*
X137848622Y-115855000D01*
%TO.C,D2*%
X126525000Y-66792800D02*
X121015000Y-66792800D01*
X126525000Y-70092800D02*
X121015000Y-70092800D01*
X126525000Y-70092800D02*
X126525000Y-66792800D01*
%TO.C,C5*%
X152079651Y-79974000D02*
X152079651Y-78908000D01*
X152119651Y-80209000D02*
X152119651Y-78673000D01*
X152159651Y-80388000D02*
X152159651Y-78494000D01*
X152199651Y-80538000D02*
X152199651Y-78344000D01*
X152239651Y-80669000D02*
X152239651Y-78213000D01*
X152279651Y-80787000D02*
X152279651Y-78095000D01*
X152319651Y-80894000D02*
X152319651Y-77988000D01*
X152359651Y-80993000D02*
X152359651Y-77889000D01*
X152399651Y-81085000D02*
X152399651Y-77797000D01*
X152439651Y-81172000D02*
X152439651Y-77710000D01*
X152479651Y-81254000D02*
X152479651Y-77628000D01*
X152519651Y-81331000D02*
X152519651Y-77551000D01*
X152559651Y-81405000D02*
X152559651Y-77477000D01*
X152599651Y-81475000D02*
X152599651Y-77407000D01*
X152639651Y-81542000D02*
X152639651Y-77340000D01*
X152679651Y-81606000D02*
X152679651Y-77276000D01*
X152719651Y-81668000D02*
X152719651Y-77214000D01*
X152759651Y-81728000D02*
X152759651Y-77154000D01*
X152799651Y-81785000D02*
X152799651Y-77097000D01*
X152839651Y-81841000D02*
X152839651Y-77041000D01*
X152879651Y-81894000D02*
X152879651Y-76988000D01*
X152919651Y-81946000D02*
X152919651Y-76936000D01*
X152959651Y-81996000D02*
X152959651Y-76886000D01*
X152999651Y-82045000D02*
X152999651Y-76837000D01*
X153039651Y-82092000D02*
X153039651Y-76790000D01*
X153079651Y-82137000D02*
X153079651Y-76745000D01*
X153119651Y-82182000D02*
X153119651Y-76700000D01*
X153159651Y-82225000D02*
X153159651Y-76657000D01*
X153199651Y-82267000D02*
X153199651Y-76615000D01*
X153239651Y-82308000D02*
X153239651Y-76574000D01*
X153279651Y-82347000D02*
X153279651Y-76535000D01*
X153319651Y-82386000D02*
X153319651Y-76496000D01*
X153359651Y-82423000D02*
X153359651Y-76459000D01*
X153399651Y-78401000D02*
X153399651Y-76422000D01*
X153399651Y-82460000D02*
X153399651Y-80481000D01*
X153439651Y-78401000D02*
X153439651Y-76386000D01*
X153439651Y-82496000D02*
X153439651Y-80481000D01*
X153479651Y-78401000D02*
X153479651Y-76352000D01*
X153479651Y-82530000D02*
X153479651Y-80481000D01*
X153519651Y-78401000D02*
X153519651Y-76318000D01*
X153519651Y-82564000D02*
X153519651Y-80481000D01*
X153559651Y-78401000D02*
X153559651Y-76285000D01*
X153559651Y-82597000D02*
X153559651Y-80481000D01*
X153599651Y-78401000D02*
X153599651Y-76253000D01*
X153599651Y-82629000D02*
X153599651Y-80481000D01*
X153639651Y-78401000D02*
X153639651Y-76222000D01*
X153639651Y-82660000D02*
X153639651Y-80481000D01*
X153679651Y-78401000D02*
X153679651Y-76191000D01*
X153679651Y-82691000D02*
X153679651Y-80481000D01*
X153719651Y-78401000D02*
X153719651Y-76161000D01*
X153719651Y-82721000D02*
X153719651Y-80481000D01*
X153759651Y-78401000D02*
X153759651Y-76132000D01*
X153759651Y-82750000D02*
X153759651Y-80481000D01*
X153799651Y-78401000D02*
X153799651Y-76104000D01*
X153799651Y-82778000D02*
X153799651Y-80481000D01*
X153839651Y-78401000D02*
X153839651Y-76076000D01*
X153839651Y-82806000D02*
X153839651Y-80481000D01*
X153879651Y-78401000D02*
X153879651Y-76049000D01*
X153879651Y-82833000D02*
X153879651Y-80481000D01*
X153919651Y-78401000D02*
X153919651Y-76023000D01*
X153919651Y-82859000D02*
X153919651Y-80481000D01*
X153959651Y-78401000D02*
X153959651Y-75998000D01*
X153959651Y-82884000D02*
X153959651Y-80481000D01*
X153999651Y-78401000D02*
X153999651Y-75973000D01*
X153999651Y-82909000D02*
X153999651Y-80481000D01*
X154039651Y-78401000D02*
X154039651Y-75948000D01*
X154039651Y-82934000D02*
X154039651Y-80481000D01*
X154079651Y-78401000D02*
X154079651Y-75925000D01*
X154079651Y-82957000D02*
X154079651Y-80481000D01*
X154119651Y-78401000D02*
X154119651Y-75902000D01*
X154119651Y-82980000D02*
X154119651Y-80481000D01*
X154159651Y-78401000D02*
X154159651Y-75879000D01*
X154159651Y-83003000D02*
X154159651Y-80481000D01*
X154199651Y-78401000D02*
X154199651Y-75857000D01*
X154199651Y-83025000D02*
X154199651Y-80481000D01*
X154239651Y-78401000D02*
X154239651Y-75836000D01*
X154239651Y-83046000D02*
X154239651Y-80481000D01*
X154279651Y-78401000D02*
X154279651Y-75815000D01*
X154279651Y-83067000D02*
X154279651Y-80481000D01*
X154319651Y-78401000D02*
X154319651Y-75795000D01*
X154319651Y-83087000D02*
X154319651Y-80481000D01*
X154359651Y-78401000D02*
X154359651Y-75775000D01*
X154359651Y-83107000D02*
X154359651Y-80481000D01*
X154399651Y-78401000D02*
X154399651Y-75756000D01*
X154399651Y-83126000D02*
X154399651Y-80481000D01*
X154439651Y-78401000D02*
X154439651Y-75737000D01*
X154439651Y-83145000D02*
X154439651Y-80481000D01*
X154479651Y-78401000D02*
X154479651Y-75719000D01*
X154479651Y-83163000D02*
X154479651Y-80481000D01*
X154519651Y-78401000D02*
X154519651Y-75701000D01*
X154519651Y-83181000D02*
X154519651Y-80481000D01*
X154559651Y-78401000D02*
X154559651Y-75684000D01*
X154559651Y-83198000D02*
X154559651Y-80481000D01*
X154599651Y-78401000D02*
X154599651Y-75668000D01*
X154599651Y-83214000D02*
X154599651Y-80481000D01*
X154639651Y-78401000D02*
X154639651Y-75652000D01*
X154639651Y-83230000D02*
X154639651Y-80481000D01*
X154679651Y-78401000D02*
X154679651Y-75636000D01*
X154679651Y-83246000D02*
X154679651Y-80481000D01*
X154719651Y-78401000D02*
X154719651Y-75621000D01*
X154719651Y-83261000D02*
X154719651Y-80481000D01*
X154759651Y-78401000D02*
X154759651Y-75606000D01*
X154759651Y-83276000D02*
X154759651Y-80481000D01*
X154799651Y-78401000D02*
X154799651Y-75592000D01*
X154799651Y-83290000D02*
X154799651Y-80481000D01*
X154839651Y-78401000D02*
X154839651Y-75578000D01*
X154839651Y-83304000D02*
X154839651Y-80481000D01*
X154879651Y-78401000D02*
X154879651Y-75565000D01*
X154879651Y-83317000D02*
X154879651Y-80481000D01*
X154919651Y-78401000D02*
X154919651Y-75552000D01*
X154919651Y-83330000D02*
X154919651Y-80481000D01*
X154959651Y-78401000D02*
X154959651Y-75540000D01*
X154959651Y-83342000D02*
X154959651Y-80481000D01*
X154999651Y-78401000D02*
X154999651Y-75528000D01*
X154999651Y-83354000D02*
X154999651Y-80481000D01*
X155039651Y-78401000D02*
X155039651Y-75516000D01*
X155039651Y-83366000D02*
X155039651Y-80481000D01*
X155079651Y-78401000D02*
X155079651Y-75505000D01*
X155079651Y-83377000D02*
X155079651Y-80481000D01*
X155119651Y-78401000D02*
X155119651Y-75494000D01*
X155119651Y-83388000D02*
X155119651Y-80481000D01*
X155159651Y-78401000D02*
X155159651Y-75484000D01*
X155159651Y-83398000D02*
X155159651Y-80481000D01*
X155199651Y-78401000D02*
X155199651Y-75474000D01*
X155199651Y-83408000D02*
X155199651Y-80481000D01*
X155239651Y-78401000D02*
X155239651Y-75465000D01*
X155239651Y-83417000D02*
X155239651Y-80481000D01*
X155279651Y-78401000D02*
X155279651Y-75456000D01*
X155279651Y-83426000D02*
X155279651Y-80481000D01*
X155319651Y-78401000D02*
X155319651Y-75448000D01*
X155319651Y-83434000D02*
X155319651Y-80481000D01*
X155359651Y-78401000D02*
X155359651Y-75439000D01*
X155359651Y-83443000D02*
X155359651Y-80481000D01*
X155399651Y-78401000D02*
X155399651Y-75432000D01*
X155399651Y-83450000D02*
X155399651Y-80481000D01*
X155439651Y-78401000D02*
X155439651Y-75424000D01*
X155439651Y-83458000D02*
X155439651Y-80481000D01*
X155479651Y-83464000D02*
X155479651Y-75418000D01*
X155519651Y-83471000D02*
X155519651Y-75411000D01*
X155559651Y-83477000D02*
X155559651Y-75405000D01*
X155599651Y-83483000D02*
X155599651Y-75399000D01*
X155639651Y-83488000D02*
X155639651Y-75394000D01*
X155679651Y-83493000D02*
X155679651Y-75389000D01*
X155719651Y-83497000D02*
X155719651Y-75385000D01*
X155759651Y-83502000D02*
X155759651Y-75380000D01*
X155799651Y-83505000D02*
X155799651Y-75377000D01*
X155839651Y-83509000D02*
X155839651Y-75373000D01*
X155879651Y-83511000D02*
X155879651Y-75371000D01*
X155919651Y-83514000D02*
X155919651Y-75368000D01*
X155959651Y-83516000D02*
X155959651Y-75366000D01*
X155999651Y-83518000D02*
X155999651Y-75364000D01*
X156039651Y-83519000D02*
X156039651Y-75363000D01*
X156079651Y-83520000D02*
X156079651Y-75362000D01*
X156119651Y-83521000D02*
X156119651Y-75361000D01*
X156159651Y-83521000D02*
X156159651Y-75361000D01*
X160169349Y-82156000D02*
X160169349Y-81356000D01*
X160569349Y-81756000D02*
X159769349Y-81756000D01*
X160279651Y-79441000D02*
G75*
G02*
X152039651Y-79441000I-4120000J0D01*
G01*
X152039651Y-79441000D02*
G75*
G02*
X160279651Y-79441000I4120000J0D01*
G01*
%TO.C,D4*%
X120160600Y-70787600D02*
X120160600Y-71787600D01*
%TO.C,J5*%
X159187200Y-94325000D02*
X168427200Y-94325000D01*
X159187200Y-104565000D02*
X159187200Y-94325000D01*
X166807200Y-104565000D02*
X166807200Y-94325000D01*
X167907200Y-104565000D02*
X167907200Y-94325000D01*
X168427200Y-94325000D02*
X168427200Y-101645000D01*
X168427200Y-102245000D02*
X168427200Y-104565000D01*
X168427200Y-104565000D02*
X159187200Y-104565000D01*
X169037200Y-102385000D02*
X168427200Y-101945000D01*
X169037200Y-101505000D01*
X169037200Y-102385000D01*
G36*
X169037200Y-102385000D02*
G01*
X168427200Y-101945000D01*
X169037200Y-101505000D01*
X169037200Y-102385000D01*
G37*
%TO.C,R4*%
X139997200Y-95186422D02*
X139997200Y-95703578D01*
X141417200Y-95186422D02*
X141417200Y-95703578D01*
%TO.C,C12*%
X143837200Y-89275000D02*
X149077200Y-89275000D01*
X143837200Y-92015000D02*
X143837200Y-89275000D01*
X149077200Y-89275000D02*
X149077200Y-92015000D01*
X149077200Y-92015000D02*
X143837200Y-92015000D01*
%TO.C,C1*%
X160734702Y-68871000D02*
X161534702Y-68871000D01*
X161134702Y-68471000D02*
X161134702Y-69271000D01*
X165144400Y-67106000D02*
X165144400Y-75266000D01*
X165184400Y-67106000D02*
X165184400Y-75266000D01*
X165224400Y-67107000D02*
X165224400Y-75265000D01*
X165264400Y-67108000D02*
X165264400Y-75264000D01*
X165304400Y-67109000D02*
X165304400Y-75263000D01*
X165344400Y-67111000D02*
X165344400Y-75261000D01*
X165384400Y-67113000D02*
X165384400Y-75259000D01*
X165424400Y-67116000D02*
X165424400Y-75256000D01*
X165464400Y-67118000D02*
X165464400Y-75254000D01*
X165504400Y-67122000D02*
X165504400Y-75250000D01*
X165544400Y-67125000D02*
X165544400Y-75247000D01*
X165584400Y-67130000D02*
X165584400Y-75242000D01*
X165624400Y-67134000D02*
X165624400Y-75238000D01*
X165664400Y-67139000D02*
X165664400Y-75233000D01*
X165704400Y-67144000D02*
X165704400Y-75228000D01*
X165744400Y-67150000D02*
X165744400Y-75222000D01*
X165784400Y-67156000D02*
X165784400Y-75216000D01*
X165824400Y-67163000D02*
X165824400Y-75209000D01*
X165864400Y-67169000D02*
X165864400Y-70146000D01*
X165864400Y-72226000D02*
X165864400Y-75203000D01*
X165904400Y-67177000D02*
X165904400Y-70146000D01*
X165904400Y-72226000D02*
X165904400Y-75195000D01*
X165944400Y-67184000D02*
X165944400Y-70146000D01*
X165944400Y-72226000D02*
X165944400Y-75188000D01*
X165984400Y-67193000D02*
X165984400Y-70146000D01*
X165984400Y-72226000D02*
X165984400Y-75179000D01*
X166024400Y-67201000D02*
X166024400Y-70146000D01*
X166024400Y-72226000D02*
X166024400Y-75171000D01*
X166064400Y-67210000D02*
X166064400Y-70146000D01*
X166064400Y-72226000D02*
X166064400Y-75162000D01*
X166104400Y-67219000D02*
X166104400Y-70146000D01*
X166104400Y-72226000D02*
X166104400Y-75153000D01*
X166144400Y-67229000D02*
X166144400Y-70146000D01*
X166144400Y-72226000D02*
X166144400Y-75143000D01*
X166184400Y-67239000D02*
X166184400Y-70146000D01*
X166184400Y-72226000D02*
X166184400Y-75133000D01*
X166224400Y-67250000D02*
X166224400Y-70146000D01*
X166224400Y-72226000D02*
X166224400Y-75122000D01*
X166264400Y-67261000D02*
X166264400Y-70146000D01*
X166264400Y-72226000D02*
X166264400Y-75111000D01*
X166304400Y-67273000D02*
X166304400Y-70146000D01*
X166304400Y-72226000D02*
X166304400Y-75099000D01*
X166344400Y-67285000D02*
X166344400Y-70146000D01*
X166344400Y-72226000D02*
X166344400Y-75087000D01*
X166384400Y-67297000D02*
X166384400Y-70146000D01*
X166384400Y-72226000D02*
X166384400Y-75075000D01*
X166424400Y-67310000D02*
X166424400Y-70146000D01*
X166424400Y-72226000D02*
X166424400Y-75062000D01*
X166464400Y-67323000D02*
X166464400Y-70146000D01*
X166464400Y-72226000D02*
X166464400Y-75049000D01*
X166504400Y-67337000D02*
X166504400Y-70146000D01*
X166504400Y-72226000D02*
X166504400Y-75035000D01*
X166544400Y-67351000D02*
X166544400Y-70146000D01*
X166544400Y-72226000D02*
X166544400Y-75021000D01*
X166584400Y-67366000D02*
X166584400Y-70146000D01*
X166584400Y-72226000D02*
X166584400Y-75006000D01*
X166624400Y-67381000D02*
X166624400Y-70146000D01*
X166624400Y-72226000D02*
X166624400Y-74991000D01*
X166664400Y-67397000D02*
X166664400Y-70146000D01*
X166664400Y-72226000D02*
X166664400Y-74975000D01*
X166704400Y-67413000D02*
X166704400Y-70146000D01*
X166704400Y-72226000D02*
X166704400Y-74959000D01*
X166744400Y-67429000D02*
X166744400Y-70146000D01*
X166744400Y-72226000D02*
X166744400Y-74943000D01*
X166784400Y-67446000D02*
X166784400Y-70146000D01*
X166784400Y-72226000D02*
X166784400Y-74926000D01*
X166824400Y-67464000D02*
X166824400Y-70146000D01*
X166824400Y-72226000D02*
X166824400Y-74908000D01*
X166864400Y-67482000D02*
X166864400Y-70146000D01*
X166864400Y-72226000D02*
X166864400Y-74890000D01*
X166904400Y-67501000D02*
X166904400Y-70146000D01*
X166904400Y-72226000D02*
X166904400Y-74871000D01*
X166944400Y-67520000D02*
X166944400Y-70146000D01*
X166944400Y-72226000D02*
X166944400Y-74852000D01*
X166984400Y-67540000D02*
X166984400Y-70146000D01*
X166984400Y-72226000D02*
X166984400Y-74832000D01*
X167024400Y-67560000D02*
X167024400Y-70146000D01*
X167024400Y-72226000D02*
X167024400Y-74812000D01*
X167064400Y-67581000D02*
X167064400Y-70146000D01*
X167064400Y-72226000D02*
X167064400Y-74791000D01*
X167104400Y-67602000D02*
X167104400Y-70146000D01*
X167104400Y-72226000D02*
X167104400Y-74770000D01*
X167144400Y-67624000D02*
X167144400Y-70146000D01*
X167144400Y-72226000D02*
X167144400Y-74748000D01*
X167184400Y-67647000D02*
X167184400Y-70146000D01*
X167184400Y-72226000D02*
X167184400Y-74725000D01*
X167224400Y-67670000D02*
X167224400Y-70146000D01*
X167224400Y-72226000D02*
X167224400Y-74702000D01*
X167264400Y-67693000D02*
X167264400Y-70146000D01*
X167264400Y-72226000D02*
X167264400Y-74679000D01*
X167304400Y-67718000D02*
X167304400Y-70146000D01*
X167304400Y-72226000D02*
X167304400Y-74654000D01*
X167344400Y-67743000D02*
X167344400Y-70146000D01*
X167344400Y-72226000D02*
X167344400Y-74629000D01*
X167384400Y-67768000D02*
X167384400Y-70146000D01*
X167384400Y-72226000D02*
X167384400Y-74604000D01*
X167424400Y-67794000D02*
X167424400Y-70146000D01*
X167424400Y-72226000D02*
X167424400Y-74578000D01*
X167464400Y-67821000D02*
X167464400Y-70146000D01*
X167464400Y-72226000D02*
X167464400Y-74551000D01*
X167504400Y-67849000D02*
X167504400Y-70146000D01*
X167504400Y-72226000D02*
X167504400Y-74523000D01*
X167544400Y-67877000D02*
X167544400Y-70146000D01*
X167544400Y-72226000D02*
X167544400Y-74495000D01*
X167584400Y-67906000D02*
X167584400Y-70146000D01*
X167584400Y-72226000D02*
X167584400Y-74466000D01*
X167624400Y-67936000D02*
X167624400Y-70146000D01*
X167624400Y-72226000D02*
X167624400Y-74436000D01*
X167664400Y-67967000D02*
X167664400Y-70146000D01*
X167664400Y-72226000D02*
X167664400Y-74405000D01*
X167704400Y-67998000D02*
X167704400Y-70146000D01*
X167704400Y-72226000D02*
X167704400Y-74374000D01*
X167744400Y-68030000D02*
X167744400Y-70146000D01*
X167744400Y-72226000D02*
X167744400Y-74342000D01*
X167784400Y-68063000D02*
X167784400Y-70146000D01*
X167784400Y-72226000D02*
X167784400Y-74309000D01*
X167824400Y-68097000D02*
X167824400Y-70146000D01*
X167824400Y-72226000D02*
X167824400Y-74275000D01*
X167864400Y-68131000D02*
X167864400Y-70146000D01*
X167864400Y-72226000D02*
X167864400Y-74241000D01*
X167904400Y-68167000D02*
X167904400Y-70146000D01*
X167904400Y-72226000D02*
X167904400Y-74205000D01*
X167944400Y-68204000D02*
X167944400Y-74168000D01*
X167984400Y-68241000D02*
X167984400Y-74131000D01*
X168024400Y-68280000D02*
X168024400Y-74092000D01*
X168064400Y-68319000D02*
X168064400Y-74053000D01*
X168104400Y-68360000D02*
X168104400Y-74012000D01*
X168144400Y-68402000D02*
X168144400Y-73970000D01*
X168184400Y-68445000D02*
X168184400Y-73927000D01*
X168224400Y-68490000D02*
X168224400Y-73882000D01*
X168264400Y-68535000D02*
X168264400Y-73837000D01*
X168304400Y-68582000D02*
X168304400Y-73790000D01*
X168344400Y-68631000D02*
X168344400Y-73741000D01*
X168384400Y-68681000D02*
X168384400Y-73691000D01*
X168424400Y-68733000D02*
X168424400Y-73639000D01*
X168464400Y-68786000D02*
X168464400Y-73586000D01*
X168504400Y-68842000D02*
X168504400Y-73530000D01*
X168544400Y-68899000D02*
X168544400Y-73473000D01*
X168584400Y-68959000D02*
X168584400Y-73413000D01*
X168624400Y-69021000D02*
X168624400Y-73351000D01*
X168664400Y-69085000D02*
X168664400Y-73287000D01*
X168704400Y-69152000D02*
X168704400Y-73220000D01*
X168744400Y-69222000D02*
X168744400Y-73150000D01*
X168784400Y-69296000D02*
X168784400Y-73076000D01*
X168824400Y-69373000D02*
X168824400Y-72999000D01*
X168864400Y-69455000D02*
X168864400Y-72917000D01*
X168904400Y-69542000D02*
X168904400Y-72830000D01*
X168944400Y-69634000D02*
X168944400Y-72738000D01*
X168984400Y-69733000D02*
X168984400Y-72639000D01*
X169024400Y-69840000D02*
X169024400Y-72532000D01*
X169064400Y-69958000D02*
X169064400Y-72414000D01*
X169104400Y-70089000D02*
X169104400Y-72283000D01*
X169144400Y-70239000D02*
X169144400Y-72133000D01*
X169184400Y-70418000D02*
X169184400Y-71954000D01*
X169224400Y-70653000D02*
X169224400Y-71719000D01*
X169264400Y-71186000D02*
G75*
G02*
X161024400Y-71186000I-4120000J0D01*
G01*
X161024400Y-71186000D02*
G75*
G02*
X169264400Y-71186000I4120000J0D01*
G01*
%TO.C,C6*%
X152867200Y-89215000D02*
X149890200Y-89215000D01*
X152867200Y-89255000D02*
X149898200Y-89255000D01*
X152867200Y-89295000D02*
X149905200Y-89295000D01*
X152867200Y-89335000D02*
X149914200Y-89335000D01*
X152867200Y-89375000D02*
X149922200Y-89375000D01*
X152867200Y-89415000D02*
X149931200Y-89415000D01*
X152867200Y-89455000D02*
X149940200Y-89455000D01*
X152867200Y-89495000D02*
X149950200Y-89495000D01*
X152867200Y-89535000D02*
X149960200Y-89535000D01*
X152867200Y-89575000D02*
X149971200Y-89575000D01*
X152867200Y-89615000D02*
X149982200Y-89615000D01*
X152867200Y-89655000D02*
X149994200Y-89655000D01*
X152867200Y-89695000D02*
X150006200Y-89695000D01*
X152867200Y-89735000D02*
X150018200Y-89735000D01*
X152867200Y-89775000D02*
X150031200Y-89775000D01*
X152867200Y-89815000D02*
X150044200Y-89815000D01*
X152867200Y-89855000D02*
X150058200Y-89855000D01*
X152867200Y-89895000D02*
X150072200Y-89895000D01*
X152867200Y-89935000D02*
X150087200Y-89935000D01*
X152867200Y-89975000D02*
X150102200Y-89975000D01*
X152867200Y-90015000D02*
X150118200Y-90015000D01*
X152867200Y-90055000D02*
X150134200Y-90055000D01*
X152867200Y-90095000D02*
X150150200Y-90095000D01*
X152867200Y-90135000D02*
X150167200Y-90135000D01*
X152867200Y-90175000D02*
X150185200Y-90175000D01*
X152867200Y-90215000D02*
X150203200Y-90215000D01*
X152867200Y-90255000D02*
X150222200Y-90255000D01*
X152867200Y-90295000D02*
X150241200Y-90295000D01*
X152867200Y-90335000D02*
X150261200Y-90335000D01*
X152867200Y-90375000D02*
X150281200Y-90375000D01*
X152867200Y-90415000D02*
X150302200Y-90415000D01*
X152867200Y-90455000D02*
X150323200Y-90455000D01*
X152867200Y-90495000D02*
X150345200Y-90495000D01*
X152867200Y-90535000D02*
X150368200Y-90535000D01*
X152867200Y-90575000D02*
X150391200Y-90575000D01*
X152867200Y-90615000D02*
X150414200Y-90615000D01*
X152867200Y-90655000D02*
X150439200Y-90655000D01*
X152867200Y-90695000D02*
X150464200Y-90695000D01*
X152867200Y-90735000D02*
X150489200Y-90735000D01*
X152867200Y-90775000D02*
X150515200Y-90775000D01*
X152867200Y-90815000D02*
X150542200Y-90815000D01*
X152867200Y-90855000D02*
X150570200Y-90855000D01*
X152867200Y-90895000D02*
X150598200Y-90895000D01*
X152867200Y-90935000D02*
X150627200Y-90935000D01*
X152867200Y-90975000D02*
X150657200Y-90975000D01*
X152867200Y-91015000D02*
X150688200Y-91015000D01*
X152867200Y-91055000D02*
X150719200Y-91055000D01*
X152867200Y-91095000D02*
X150751200Y-91095000D01*
X152867200Y-91135000D02*
X150784200Y-91135000D01*
X152867200Y-91175000D02*
X150818200Y-91175000D01*
X152867200Y-91215000D02*
X150852200Y-91215000D01*
X152867200Y-91255000D02*
X150888200Y-91255000D01*
X154440200Y-92575000D02*
X153374200Y-92575000D01*
X154675200Y-92535000D02*
X153139200Y-92535000D01*
X154854200Y-92495000D02*
X152960200Y-92495000D01*
X155004200Y-92455000D02*
X152810200Y-92455000D01*
X155135200Y-92415000D02*
X152679200Y-92415000D01*
X155253200Y-92375000D02*
X152561200Y-92375000D01*
X155360200Y-92335000D02*
X152454200Y-92335000D01*
X155459200Y-92295000D02*
X152355200Y-92295000D01*
X155551200Y-92255000D02*
X152263200Y-92255000D01*
X155638200Y-92215000D02*
X152176200Y-92215000D01*
X155720200Y-92175000D02*
X152094200Y-92175000D01*
X155797200Y-92135000D02*
X152017200Y-92135000D01*
X155871200Y-92095000D02*
X151943200Y-92095000D01*
X155941200Y-92055000D02*
X151873200Y-92055000D01*
X156008200Y-92015000D02*
X151806200Y-92015000D01*
X156072200Y-91975000D02*
X151742200Y-91975000D01*
X156134200Y-91935000D02*
X151680200Y-91935000D01*
X156194200Y-91895000D02*
X151620200Y-91895000D01*
X156222200Y-84085302D02*
X156222200Y-84885302D01*
X156251200Y-91855000D02*
X151563200Y-91855000D01*
X156307200Y-91815000D02*
X151507200Y-91815000D01*
X156360200Y-91775000D02*
X151454200Y-91775000D01*
X156412200Y-91735000D02*
X151402200Y-91735000D01*
X156462200Y-91695000D02*
X151352200Y-91695000D01*
X156511200Y-91655000D02*
X151303200Y-91655000D01*
X156558200Y-91615000D02*
X151256200Y-91615000D01*
X156603200Y-91575000D02*
X151211200Y-91575000D01*
X156622200Y-84485302D02*
X155822200Y-84485302D01*
X156648200Y-91535000D02*
X151166200Y-91535000D01*
X156691200Y-91495000D02*
X151123200Y-91495000D01*
X156733200Y-91455000D02*
X151081200Y-91455000D01*
X156774200Y-91415000D02*
X151040200Y-91415000D01*
X156813200Y-91375000D02*
X151001200Y-91375000D01*
X156852200Y-91335000D02*
X150962200Y-91335000D01*
X156889200Y-91295000D02*
X150925200Y-91295000D01*
X156926200Y-91255000D02*
X154947200Y-91255000D01*
X156962200Y-91215000D02*
X154947200Y-91215000D01*
X156996200Y-91175000D02*
X154947200Y-91175000D01*
X157030200Y-91135000D02*
X154947200Y-91135000D01*
X157063200Y-91095000D02*
X154947200Y-91095000D01*
X157095200Y-91055000D02*
X154947200Y-91055000D01*
X157126200Y-91015000D02*
X154947200Y-91015000D01*
X157157200Y-90975000D02*
X154947200Y-90975000D01*
X157187200Y-90935000D02*
X154947200Y-90935000D01*
X157216200Y-90895000D02*
X154947200Y-90895000D01*
X157244200Y-90855000D02*
X154947200Y-90855000D01*
X157272200Y-90815000D02*
X154947200Y-90815000D01*
X157299200Y-90775000D02*
X154947200Y-90775000D01*
X157325200Y-90735000D02*
X154947200Y-90735000D01*
X157350200Y-90695000D02*
X154947200Y-90695000D01*
X157375200Y-90655000D02*
X154947200Y-90655000D01*
X157400200Y-90615000D02*
X154947200Y-90615000D01*
X157423200Y-90575000D02*
X154947200Y-90575000D01*
X157446200Y-90535000D02*
X154947200Y-90535000D01*
X157469200Y-90495000D02*
X154947200Y-90495000D01*
X157491200Y-90455000D02*
X154947200Y-90455000D01*
X157512200Y-90415000D02*
X154947200Y-90415000D01*
X157533200Y-90375000D02*
X154947200Y-90375000D01*
X157553200Y-90335000D02*
X154947200Y-90335000D01*
X157573200Y-90295000D02*
X154947200Y-90295000D01*
X157592200Y-90255000D02*
X154947200Y-90255000D01*
X157611200Y-90215000D02*
X154947200Y-90215000D01*
X157629200Y-90175000D02*
X154947200Y-90175000D01*
X157647200Y-90135000D02*
X154947200Y-90135000D01*
X157664200Y-90095000D02*
X154947200Y-90095000D01*
X157680200Y-90055000D02*
X154947200Y-90055000D01*
X157696200Y-90015000D02*
X154947200Y-90015000D01*
X157712200Y-89975000D02*
X154947200Y-89975000D01*
X157727200Y-89935000D02*
X154947200Y-89935000D01*
X157742200Y-89895000D02*
X154947200Y-89895000D01*
X157756200Y-89855000D02*
X154947200Y-89855000D01*
X157770200Y-89815000D02*
X154947200Y-89815000D01*
X157783200Y-89775000D02*
X154947200Y-89775000D01*
X157796200Y-89735000D02*
X154947200Y-89735000D01*
X157808200Y-89695000D02*
X154947200Y-89695000D01*
X157820200Y-89655000D02*
X154947200Y-89655000D01*
X157832200Y-89615000D02*
X154947200Y-89615000D01*
X157843200Y-89575000D02*
X154947200Y-89575000D01*
X157854200Y-89535000D02*
X154947200Y-89535000D01*
X157864200Y-89495000D02*
X154947200Y-89495000D01*
X157874200Y-89455000D02*
X154947200Y-89455000D01*
X157883200Y-89415000D02*
X154947200Y-89415000D01*
X157892200Y-89375000D02*
X154947200Y-89375000D01*
X157900200Y-89335000D02*
X154947200Y-89335000D01*
X157909200Y-89295000D02*
X154947200Y-89295000D01*
X157916200Y-89255000D02*
X154947200Y-89255000D01*
X157924200Y-89215000D02*
X154947200Y-89215000D01*
X157930200Y-89175000D02*
X149884200Y-89175000D01*
X157937200Y-89135000D02*
X149877200Y-89135000D01*
X157943200Y-89095000D02*
X149871200Y-89095000D01*
X157949200Y-89055000D02*
X149865200Y-89055000D01*
X157954200Y-89015000D02*
X149860200Y-89015000D01*
X157959200Y-88975000D02*
X149855200Y-88975000D01*
X157963200Y-88935000D02*
X149851200Y-88935000D01*
X157968200Y-88895000D02*
X149846200Y-88895000D01*
X157971200Y-88855000D02*
X149843200Y-88855000D01*
X157975200Y-88815000D02*
X149839200Y-88815000D01*
X157977200Y-88775000D02*
X149837200Y-88775000D01*
X157980200Y-88735000D02*
X149834200Y-88735000D01*
X157982200Y-88695000D02*
X149832200Y-88695000D01*
X157984200Y-88655000D02*
X149830200Y-88655000D01*
X157985200Y-88615000D02*
X149829200Y-88615000D01*
X157986200Y-88575000D02*
X149828200Y-88575000D01*
X157987200Y-88495000D02*
X149827200Y-88495000D01*
X157987200Y-88535000D02*
X149827200Y-88535000D01*
X158027200Y-88495000D02*
G75*
G02*
X149787200Y-88495000I-4120000J0D01*
G01*
X149787200Y-88495000D02*
G75*
G02*
X158027200Y-88495000I4120000J0D01*
G01*
%TO.C,C15*%
X133637200Y-105475000D02*
X138877200Y-105475000D01*
X133637200Y-108215000D02*
X133637200Y-105475000D01*
X138877200Y-105475000D02*
X138877200Y-108215000D01*
X138877200Y-108215000D02*
X133637200Y-108215000D01*
%TO.C,D7*%
X153857200Y-100655000D02*
X153857200Y-95145000D01*
X153857200Y-100655000D02*
X157157200Y-100655000D01*
X157157200Y-100655000D02*
X157157200Y-95145000D01*
%TO.C,U2*%
X141957200Y-93885000D02*
X152177200Y-93885000D01*
X141957200Y-98505000D02*
X141957200Y-93885000D01*
X145217200Y-98505000D02*
X145217200Y-97125000D01*
X148917200Y-98505000D02*
X148917200Y-97125000D01*
X152177200Y-93885000D02*
X152177200Y-98505000D01*
X152177200Y-97125000D02*
X141957200Y-97125000D01*
X152177200Y-98505000D02*
X141957200Y-98505000D01*
%TO.C,R3*%
X140265778Y-97535000D02*
X139748622Y-97535000D01*
X140265778Y-98955000D02*
X139748622Y-98955000D01*
%TO.C,C3*%
X121898052Y-78350400D02*
X121375548Y-78350400D01*
X121898052Y-79820400D02*
X121375548Y-79820400D01*
%TO.C,D3*%
X130753600Y-78248200D02*
X125243600Y-78248200D01*
X130753600Y-81548200D02*
X125243600Y-81548200D01*
X130753600Y-81548200D02*
X130753600Y-78248200D01*
%TO.C,U3*%
X141297200Y-103545000D02*
X141297200Y-107305000D01*
X141297200Y-107305000D02*
X142557200Y-107305000D01*
X148117200Y-103545000D02*
X148117200Y-107305000D01*
X148117200Y-107305000D02*
X146857200Y-107305000D01*
X148347200Y-102505000D02*
X148017200Y-102265000D01*
X148347200Y-102025000D01*
X148347200Y-102505000D01*
G36*
X148347200Y-102505000D02*
G01*
X148017200Y-102265000D01*
X148347200Y-102025000D01*
X148347200Y-102505000D01*
G37*
%TO.C,J4*%
X121619700Y-105825000D02*
X130859700Y-105825000D01*
X121619700Y-108145000D02*
X121619700Y-105825000D01*
X121619700Y-116065000D02*
X121619700Y-108745000D01*
X122139700Y-105825000D02*
X122139700Y-116065000D01*
X123239700Y-105825000D02*
X123239700Y-116065000D01*
X130859700Y-105825000D02*
X130859700Y-116065000D01*
X130859700Y-116065000D02*
X121619700Y-116065000D01*
X121619700Y-108445000D02*
X121009700Y-108885000D01*
X121009700Y-108005000D01*
X121619700Y-108445000D01*
G36*
X121619700Y-108445000D02*
G01*
X121009700Y-108885000D01*
X121009700Y-108005000D01*
X121619700Y-108445000D01*
G37*
%TO.C,C14*%
X133507200Y-109885000D02*
X134007200Y-109885000D01*
X133757200Y-109635000D02*
X133757200Y-110135000D01*
X134247200Y-110249437D02*
X134247200Y-110385000D01*
X134247200Y-110249437D02*
X135311637Y-109185000D01*
X134247200Y-112640563D02*
X134247200Y-112505000D01*
X134247200Y-112640563D02*
X135311637Y-113705000D01*
X135311637Y-109185000D02*
X138767200Y-109185000D01*
X135311637Y-113705000D02*
X138767200Y-113705000D01*
X138767200Y-109185000D02*
X138767200Y-110385000D01*
X138767200Y-113705000D02*
X138767200Y-112505000D01*
%TO.C,D1*%
X131213600Y-66755000D02*
X131213600Y-72265000D01*
X134513600Y-66755000D02*
X131213600Y-66755000D01*
X134513600Y-66755000D02*
X134513600Y-72265000D01*
%TO.C,F2*%
X154207200Y-100895000D02*
X155705200Y-100895000D01*
X154207200Y-106257000D02*
X154207200Y-100895000D01*
X154207200Y-108195000D02*
X154207200Y-107933000D01*
X154505200Y-108195000D02*
X154207200Y-108195000D01*
X157109200Y-100895000D02*
X157407200Y-100895000D01*
X157407200Y-100895000D02*
X157407200Y-101157000D01*
X157407200Y-102833000D02*
X157407200Y-108195000D01*
X157407200Y-108195000D02*
X155909200Y-108195000D01*
%TO.C,R2*%
X137897200Y-95741078D02*
X137897200Y-95223922D01*
X139317200Y-95741078D02*
X139317200Y-95223922D01*
%TO.C,R1*%
X125174278Y-70552200D02*
X124657122Y-70552200D01*
X125174278Y-71972200D02*
X124657122Y-71972200D01*
%TO.C,L1*%
X150327200Y-83645000D02*
G75*
G02*
X140087200Y-83645000I-5120000J0D01*
G01*
X140087200Y-83645000D02*
G75*
G02*
X150327200Y-83645000I5120000J0D01*
G01*
%TO.C,C7*%
X126947000Y-72477600D02*
X129687000Y-72477600D01*
X126947000Y-77717600D02*
X126947000Y-72477600D01*
X129687000Y-72477600D02*
X129687000Y-77717600D01*
X129687000Y-77717600D02*
X126947000Y-77717600D01*
%TO.C,C11*%
X136907200Y-88985000D02*
X137407200Y-88985000D01*
X137157200Y-88735000D02*
X137157200Y-89235000D01*
X137647200Y-89349437D02*
X137647200Y-89485000D01*
X137647200Y-89349437D02*
X138711637Y-88285000D01*
X137647200Y-91740563D02*
X137647200Y-91605000D01*
X137647200Y-91740563D02*
X138711637Y-92805000D01*
X138711637Y-88285000D02*
X142167200Y-88285000D01*
X138711637Y-92805000D02*
X142167200Y-92805000D01*
X142167200Y-88285000D02*
X142167200Y-89485000D01*
X142167200Y-92805000D02*
X142167200Y-91605000D01*
%TO.C,F1*%
X161329200Y-78949000D02*
X161591200Y-78949000D01*
X161329200Y-79247000D02*
X161329200Y-78949000D01*
X161329200Y-82149000D02*
X161329200Y-80651000D01*
X163267200Y-78949000D02*
X168629200Y-78949000D01*
X166691200Y-82149000D02*
X161329200Y-82149000D01*
X168629200Y-78949000D02*
X168629200Y-80447000D01*
X168629200Y-81851000D02*
X168629200Y-82149000D01*
X168629200Y-82149000D02*
X168367200Y-82149000D01*
%TO.C,C2*%
X126947000Y-66808000D02*
X129687000Y-66808000D01*
X126947000Y-72048000D02*
X126947000Y-66808000D01*
X129687000Y-66808000D02*
X129687000Y-72048000D01*
X129687000Y-72048000D02*
X126947000Y-72048000D01*
%TO.C,U1*%
X140378400Y-67205200D02*
X140378400Y-68155200D01*
X140378400Y-77605200D02*
X140378400Y-76655200D01*
X141743400Y-67205200D02*
X140378400Y-67205200D01*
X141743400Y-77605200D02*
X140378400Y-77605200D01*
X137553400Y-68195200D02*
X137213400Y-67725200D01*
X137893400Y-67725200D01*
X137553400Y-68195200D01*
G36*
X137553400Y-68195200D02*
G01*
X137213400Y-67725200D01*
X137893400Y-67725200D01*
X137553400Y-68195200D01*
G37*
%TO.C,C13*%
X133507200Y-100885000D02*
X134007200Y-100885000D01*
X133757200Y-100635000D02*
X133757200Y-101135000D01*
X134247200Y-101249437D02*
X134247200Y-101385000D01*
X134247200Y-101249437D02*
X135311637Y-100185000D01*
X134247200Y-103640563D02*
X134247200Y-103505000D01*
X134247200Y-103640563D02*
X135311637Y-104705000D01*
X135311637Y-100185000D02*
X138767200Y-100185000D01*
X135311637Y-104705000D02*
X138767200Y-104705000D01*
X138767200Y-100185000D02*
X138767200Y-101385000D01*
X138767200Y-104705000D02*
X138767200Y-103505000D01*
%TO.C,C10*%
X131594200Y-89294437D02*
X131594200Y-92750000D01*
X131594200Y-92750000D02*
X132794200Y-92750000D01*
X132658637Y-88230000D02*
X131594200Y-89294437D01*
X132658637Y-88230000D02*
X132794200Y-88230000D01*
X135049763Y-88230000D02*
X134914200Y-88230000D01*
X135049763Y-88230000D02*
X136114200Y-89294437D01*
X135414200Y-87490000D02*
X135414200Y-87990000D01*
X135664200Y-87740000D02*
X135164200Y-87740000D01*
X136114200Y-89294437D02*
X136114200Y-92750000D01*
X136114200Y-92750000D02*
X134914200Y-92750000D01*
%TO.C,C4*%
X152255800Y-71363400D02*
X152255800Y-70297400D01*
X152295800Y-71598400D02*
X152295800Y-70062400D01*
X152335800Y-71777400D02*
X152335800Y-69883400D01*
X152375800Y-71927400D02*
X152375800Y-69733400D01*
X152415800Y-72058400D02*
X152415800Y-69602400D01*
X152455800Y-72176400D02*
X152455800Y-69484400D01*
X152495800Y-72283400D02*
X152495800Y-69377400D01*
X152535800Y-72382400D02*
X152535800Y-69278400D01*
X152575800Y-72474400D02*
X152575800Y-69186400D01*
X152615800Y-72561400D02*
X152615800Y-69099400D01*
X152655800Y-72643400D02*
X152655800Y-69017400D01*
X152695800Y-72720400D02*
X152695800Y-68940400D01*
X152735800Y-72794400D02*
X152735800Y-68866400D01*
X152775800Y-72864400D02*
X152775800Y-68796400D01*
X152815800Y-72931400D02*
X152815800Y-68729400D01*
X152855800Y-72995400D02*
X152855800Y-68665400D01*
X152895800Y-73057400D02*
X152895800Y-68603400D01*
X152935800Y-73117400D02*
X152935800Y-68543400D01*
X152975800Y-73174400D02*
X152975800Y-68486400D01*
X153015800Y-73230400D02*
X153015800Y-68430400D01*
X153055800Y-73283400D02*
X153055800Y-68377400D01*
X153095800Y-73335400D02*
X153095800Y-68325400D01*
X153135800Y-73385400D02*
X153135800Y-68275400D01*
X153175800Y-73434400D02*
X153175800Y-68226400D01*
X153215800Y-73481400D02*
X153215800Y-68179400D01*
X153255800Y-73526400D02*
X153255800Y-68134400D01*
X153295800Y-73571400D02*
X153295800Y-68089400D01*
X153335800Y-73614400D02*
X153335800Y-68046400D01*
X153375800Y-73656400D02*
X153375800Y-68004400D01*
X153415800Y-73697400D02*
X153415800Y-67963400D01*
X153455800Y-73736400D02*
X153455800Y-67924400D01*
X153495800Y-73775400D02*
X153495800Y-67885400D01*
X153535800Y-73812400D02*
X153535800Y-67848400D01*
X153575800Y-69790400D02*
X153575800Y-67811400D01*
X153575800Y-73849400D02*
X153575800Y-71870400D01*
X153615800Y-69790400D02*
X153615800Y-67775400D01*
X153615800Y-73885400D02*
X153615800Y-71870400D01*
X153655800Y-69790400D02*
X153655800Y-67741400D01*
X153655800Y-73919400D02*
X153655800Y-71870400D01*
X153695800Y-69790400D02*
X153695800Y-67707400D01*
X153695800Y-73953400D02*
X153695800Y-71870400D01*
X153735800Y-69790400D02*
X153735800Y-67674400D01*
X153735800Y-73986400D02*
X153735800Y-71870400D01*
X153775800Y-69790400D02*
X153775800Y-67642400D01*
X153775800Y-74018400D02*
X153775800Y-71870400D01*
X153815800Y-69790400D02*
X153815800Y-67611400D01*
X153815800Y-74049400D02*
X153815800Y-71870400D01*
X153855800Y-69790400D02*
X153855800Y-67580400D01*
X153855800Y-74080400D02*
X153855800Y-71870400D01*
X153895800Y-69790400D02*
X153895800Y-67550400D01*
X153895800Y-74110400D02*
X153895800Y-71870400D01*
X153935800Y-69790400D02*
X153935800Y-67521400D01*
X153935800Y-74139400D02*
X153935800Y-71870400D01*
X153975800Y-69790400D02*
X153975800Y-67493400D01*
X153975800Y-74167400D02*
X153975800Y-71870400D01*
X154015800Y-69790400D02*
X154015800Y-67465400D01*
X154015800Y-74195400D02*
X154015800Y-71870400D01*
X154055800Y-69790400D02*
X154055800Y-67438400D01*
X154055800Y-74222400D02*
X154055800Y-71870400D01*
X154095800Y-69790400D02*
X154095800Y-67412400D01*
X154095800Y-74248400D02*
X154095800Y-71870400D01*
X154135800Y-69790400D02*
X154135800Y-67387400D01*
X154135800Y-74273400D02*
X154135800Y-71870400D01*
X154175800Y-69790400D02*
X154175800Y-67362400D01*
X154175800Y-74298400D02*
X154175800Y-71870400D01*
X154215800Y-69790400D02*
X154215800Y-67337400D01*
X154215800Y-74323400D02*
X154215800Y-71870400D01*
X154255800Y-69790400D02*
X154255800Y-67314400D01*
X154255800Y-74346400D02*
X154255800Y-71870400D01*
X154295800Y-69790400D02*
X154295800Y-67291400D01*
X154295800Y-74369400D02*
X154295800Y-71870400D01*
X154335800Y-69790400D02*
X154335800Y-67268400D01*
X154335800Y-74392400D02*
X154335800Y-71870400D01*
X154375800Y-69790400D02*
X154375800Y-67246400D01*
X154375800Y-74414400D02*
X154375800Y-71870400D01*
X154415800Y-69790400D02*
X154415800Y-67225400D01*
X154415800Y-74435400D02*
X154415800Y-71870400D01*
X154455800Y-69790400D02*
X154455800Y-67204400D01*
X154455800Y-74456400D02*
X154455800Y-71870400D01*
X154495800Y-69790400D02*
X154495800Y-67184400D01*
X154495800Y-74476400D02*
X154495800Y-71870400D01*
X154535800Y-69790400D02*
X154535800Y-67164400D01*
X154535800Y-74496400D02*
X154535800Y-71870400D01*
X154575800Y-69790400D02*
X154575800Y-67145400D01*
X154575800Y-74515400D02*
X154575800Y-71870400D01*
X154615800Y-69790400D02*
X154615800Y-67126400D01*
X154615800Y-74534400D02*
X154615800Y-71870400D01*
X154655800Y-69790400D02*
X154655800Y-67108400D01*
X154655800Y-74552400D02*
X154655800Y-71870400D01*
X154695800Y-69790400D02*
X154695800Y-67090400D01*
X154695800Y-74570400D02*
X154695800Y-71870400D01*
X154735800Y-69790400D02*
X154735800Y-67073400D01*
X154735800Y-74587400D02*
X154735800Y-71870400D01*
X154775800Y-69790400D02*
X154775800Y-67057400D01*
X154775800Y-74603400D02*
X154775800Y-71870400D01*
X154815800Y-69790400D02*
X154815800Y-67041400D01*
X154815800Y-74619400D02*
X154815800Y-71870400D01*
X154855800Y-69790400D02*
X154855800Y-67025400D01*
X154855800Y-74635400D02*
X154855800Y-71870400D01*
X154895800Y-69790400D02*
X154895800Y-67010400D01*
X154895800Y-74650400D02*
X154895800Y-71870400D01*
X154935800Y-69790400D02*
X154935800Y-66995400D01*
X154935800Y-74665400D02*
X154935800Y-71870400D01*
X154975800Y-69790400D02*
X154975800Y-66981400D01*
X154975800Y-74679400D02*
X154975800Y-71870400D01*
X155015800Y-69790400D02*
X155015800Y-66967400D01*
X155015800Y-74693400D02*
X155015800Y-71870400D01*
X155055800Y-69790400D02*
X155055800Y-66954400D01*
X155055800Y-74706400D02*
X155055800Y-71870400D01*
X155095800Y-69790400D02*
X155095800Y-66941400D01*
X155095800Y-74719400D02*
X155095800Y-71870400D01*
X155135800Y-69790400D02*
X155135800Y-66929400D01*
X155135800Y-74731400D02*
X155135800Y-71870400D01*
X155175800Y-69790400D02*
X155175800Y-66917400D01*
X155175800Y-74743400D02*
X155175800Y-71870400D01*
X155215800Y-69790400D02*
X155215800Y-66905400D01*
X155215800Y-74755400D02*
X155215800Y-71870400D01*
X155255800Y-69790400D02*
X155255800Y-66894400D01*
X155255800Y-74766400D02*
X155255800Y-71870400D01*
X155295800Y-69790400D02*
X155295800Y-66883400D01*
X155295800Y-74777400D02*
X155295800Y-71870400D01*
X155335800Y-69790400D02*
X155335800Y-66873400D01*
X155335800Y-74787400D02*
X155335800Y-71870400D01*
X155375800Y-69790400D02*
X155375800Y-66863400D01*
X155375800Y-74797400D02*
X155375800Y-71870400D01*
X155415800Y-69790400D02*
X155415800Y-66854400D01*
X155415800Y-74806400D02*
X155415800Y-71870400D01*
X155455800Y-69790400D02*
X155455800Y-66845400D01*
X155455800Y-74815400D02*
X155455800Y-71870400D01*
X155495800Y-69790400D02*
X155495800Y-66837400D01*
X155495800Y-74823400D02*
X155495800Y-71870400D01*
X155535800Y-69790400D02*
X155535800Y-66828400D01*
X155535800Y-74832400D02*
X155535800Y-71870400D01*
X155575800Y-69790400D02*
X155575800Y-66821400D01*
X155575800Y-74839400D02*
X155575800Y-71870400D01*
X155615800Y-69790400D02*
X155615800Y-66813400D01*
X155615800Y-74847400D02*
X155615800Y-71870400D01*
X155655800Y-74853400D02*
X155655800Y-66807400D01*
X155695800Y-74860400D02*
X155695800Y-66800400D01*
X155735800Y-74866400D02*
X155735800Y-66794400D01*
X155775800Y-74872400D02*
X155775800Y-66788400D01*
X155815800Y-74877400D02*
X155815800Y-66783400D01*
X155855800Y-74882400D02*
X155855800Y-66778400D01*
X155895800Y-74886400D02*
X155895800Y-66774400D01*
X155935800Y-74891400D02*
X155935800Y-66769400D01*
X155975800Y-74894400D02*
X155975800Y-66766400D01*
X156015800Y-74898400D02*
X156015800Y-66762400D01*
X156055800Y-74900400D02*
X156055800Y-66760400D01*
X156095800Y-74903400D02*
X156095800Y-66757400D01*
X156135800Y-74905400D02*
X156135800Y-66755400D01*
X156175800Y-74907400D02*
X156175800Y-66753400D01*
X156215800Y-74908400D02*
X156215800Y-66752400D01*
X156255800Y-74909400D02*
X156255800Y-66751400D01*
X156295800Y-74910400D02*
X156295800Y-66750400D01*
X156335800Y-74910400D02*
X156335800Y-66750400D01*
X160345498Y-73545400D02*
X160345498Y-72745400D01*
X160745498Y-73145400D02*
X159945498Y-73145400D01*
X160455800Y-70830400D02*
G75*
G02*
X152215800Y-70830400I-4120000J0D01*
G01*
X152215800Y-70830400D02*
G75*
G02*
X160455800Y-70830400I4120000J0D01*
G01*
%TD*%
M02*
