M48
; DRILL file {KiCad 9.0.6} date 2026-05-15T22:18:32+0530
; FORMAT={-:-/ absolute / metric / decimal}
; #@! TF.CreationDate,2026-05-15T22:18:32+05:30
; #@! TF.GenerationSoftware,Kicad,Pcbnew,9.0.6
; #@! TF.FileFunction,Plated,1,2,PTH
FMAT,2
METRIC
; #@! TA.AperFunction,Plated,PTH,ViaDrill
T1C0.300
; #@! TA.AperFunction,Plated,PTH,ComponentDrill
T2C0.800
; #@! TA.AperFunction,Plated,PTH,ComponentDrill
T3C1.010
; #@! TA.AperFunction,Plated,PTH,ComponentDrill
T4C1.100
; #@! TA.AperFunction,Plated,PTH,ComponentDrill
T5C1.300
%
G90
G05
T1
X130.603Y-70.78
X131.289Y-71.872
X134.362Y-71.567
X134.438Y-78.273
T2
X121.992Y-73.822
X121.992Y-76.322
X125.091Y-73.842
X125.091Y-76.342
X128.317Y-68.178
X128.317Y-70.678
X128.317Y-73.848
X128.317Y-76.348
X135.007Y-106.845
X137.507Y-106.845
X145.207Y-90.645
X147.707Y-90.645
X150.707Y-100.445
X150.707Y-102.945
X153.907Y-86.745
X153.907Y-90.245
X154.41Y-79.441
X154.586Y-70.83
X157.91Y-79.441
X158.086Y-70.83
X163.394Y-71.186
X166.894Y-71.186
T3
X155.207Y-107.095
X156.407Y-101.995
X162.429Y-79.949
X167.529Y-81.149
T4
X144.527Y-95.245
X147.067Y-95.245
X149.607Y-95.245
T5
X126.707Y-96.645
X126.707Y-101.645
X126.74Y-85.045
X126.74Y-90.045
X126.74Y-108.445
X126.74Y-113.445
X142.707Y-83.645
X147.707Y-83.645
X163.307Y-96.945
X163.307Y-101.945
X163.321Y-85.755
X163.321Y-90.755
M30
