%TF.GenerationSoftware,KiCad,Pcbnew,9.0.6*%
%TF.CreationDate,2026-05-15T22:18:39+05:30*%
%TF.ProjectId,power_supply,706f7765-725f-4737-9570-706c792e6b69,rev?*%
%TF.SameCoordinates,Original*%
%TF.FileFunction,Soldermask,Top*%
%TF.FilePolarity,Negative*%
%FSLAX46Y46*%
G04 Gerber Fmt 4.6, Leading zero omitted, Abs format (unit mm)*
G04 Created by KiCad (PCBNEW 9.0.6) date 2026-05-15 22:18:39*
%MOMM*%
%LPD*%
G01*
G04 APERTURE LIST*
G04 Aperture macros list*
%AMRoundRect*
0 Rectangle with rounded corners*
0 $1 Rounding radius*
0 $2 $3 $4 $5 $6 $7 $8 $9 X,Y pos of 4 corners*
0 Add a 4 corners polygon primitive as box body*
4,1,4,$2,$3,$4,$5,$6,$7,$8,$9,$2,$3,0*
0 Add four circle primitives for the rounded corners*
1,1,$1+$1,$2,$3*
1,1,$1+$1,$4,$5*
1,1,$1+$1,$6,$7*
1,1,$1+$1,$8,$9*
0 Add four rect primitives between the rounded corners*
20,1,$1+$1,$2,$3,$4,$5,0*
20,1,$1+$1,$4,$5,$6,$7,0*
20,1,$1+$1,$6,$7,$8,$9,0*
20,1,$1+$1,$8,$9,$2,$3,0*%
G04 Aperture macros list end*
%ADD10C,1.600000*%
%ADD11RoundRect,0.250000X1.050000X-1.050000X1.050000X1.050000X-1.050000X1.050000X-1.050000X-1.050000X0*%
%ADD12C,2.600000*%
%ADD13RoundRect,0.250000X-1.050000X1.050000X-1.050000X-1.050000X1.050000X-1.050000X1.050000X1.050000X0*%
%ADD14RoundRect,0.218750X-0.218750X-0.256250X0.218750X-0.256250X0.218750X0.256250X-0.218750X0.256250X0*%
%ADD15RoundRect,0.243750X0.243750X0.456250X-0.243750X0.456250X-0.243750X-0.456250X0.243750X-0.456250X0*%
%ADD16RoundRect,0.250000X1.000000X0.650000X-1.000000X0.650000X-1.000000X-0.650000X1.000000X-0.650000X0*%
%ADD17RoundRect,0.250000X0.550000X0.550000X-0.550000X0.550000X-0.550000X-0.550000X0.550000X-0.550000X0*%
%ADD18RoundRect,0.243750X-0.456250X0.243750X-0.456250X-0.243750X0.456250X-0.243750X0.456250X0.243750X0*%
%ADD19RoundRect,0.250000X-0.550000X-0.550000X0.550000X-0.550000X0.550000X0.550000X-0.550000X0.550000X0*%
%ADD20RoundRect,0.250000X-0.550000X0.550000X-0.550000X-0.550000X0.550000X-0.550000X0.550000X0.550000X0*%
%ADD21RoundRect,0.250000X0.650000X-1.000000X0.650000X1.000000X-0.650000X1.000000X-0.650000X-1.000000X0*%
%ADD22R,1.905000X2.000000*%
%ADD23O,1.905000X2.000000*%
%ADD24RoundRect,0.250000X0.250000X0.475000X-0.250000X0.475000X-0.250000X-0.475000X0.250000X-0.475000X0*%
%ADD25RoundRect,0.375000X-0.375000X0.625000X-0.375000X-0.625000X0.375000X-0.625000X0.375000X0.625000X0*%
%ADD26RoundRect,0.500000X-1.400000X0.500000X-1.400000X-0.500000X1.400000X-0.500000X1.400000X0.500000X0*%
%ADD27RoundRect,0.250000X-1.050000X-0.550000X1.050000X-0.550000X1.050000X0.550000X-1.050000X0.550000X0*%
%ADD28RoundRect,0.250000X-0.650000X1.000000X-0.650000X-1.000000X0.650000X-1.000000X0.650000X1.000000X0*%
%ADD29C,2.010000*%
%ADD30RoundRect,0.243750X0.456250X-0.243750X0.456250X0.243750X-0.456250X0.243750X-0.456250X-0.243750X0*%
%ADD31RoundRect,0.250000X-2.050000X-0.300000X2.050000X-0.300000X2.050000X0.300000X-2.050000X0.300000X0*%
%ADD32RoundRect,0.250002X-4.449998X-5.149998X4.449998X-5.149998X4.449998X5.149998X-4.449998X5.149998X0*%
%ADD33RoundRect,0.250000X-0.550000X1.050000X-0.550000X-1.050000X0.550000X-1.050000X0.550000X1.050000X0*%
G04 APERTURE END LIST*
D10*
%TO.C,C9*%
X121992400Y-76322200D03*
X121992400Y-73822200D03*
%TD*%
%TO.C,C8*%
X125091200Y-76342200D03*
X125091200Y-73842200D03*
%TD*%
D11*
%TO.C,J1*%
X163320700Y-90754800D03*
D12*
X163320700Y-85754800D03*
%TD*%
D10*
%TO.C,C16*%
X150707200Y-100445000D03*
X150707200Y-102945000D03*
%TD*%
D13*
%TO.C,J3*%
X126707200Y-96645000D03*
D12*
X126707200Y-101645000D03*
%TD*%
D13*
%TO.C,J2*%
X126739700Y-85045000D03*
D12*
X126739700Y-90045000D03*
%TD*%
D14*
%TO.C,D6*%
X133932200Y-114945000D03*
X135507200Y-114945000D03*
%TD*%
%TO.C,D5*%
X135219700Y-96345000D03*
X136794700Y-96345000D03*
%TD*%
D15*
%TO.C,R5*%
X139044700Y-115145000D03*
X137169700Y-115145000D03*
%TD*%
D16*
%TO.C,D2*%
X125015000Y-68442800D03*
X121015000Y-68442800D03*
%TD*%
D17*
%TO.C,C5*%
X157909651Y-79441000D03*
D10*
X154409651Y-79441000D03*
%TD*%
D14*
%TO.C,D4*%
X120773100Y-71287600D03*
X122348100Y-71287600D03*
%TD*%
D11*
%TO.C,J5*%
X163307200Y-101945000D03*
D12*
X163307200Y-96945000D03*
%TD*%
D18*
%TO.C,R4*%
X140707200Y-94507500D03*
X140707200Y-96382500D03*
%TD*%
D10*
%TO.C,C12*%
X145207200Y-90645000D03*
X147707200Y-90645000D03*
%TD*%
D19*
%TO.C,C1*%
X163394400Y-71186000D03*
D10*
X166894400Y-71186000D03*
%TD*%
D20*
%TO.C,C6*%
X153907200Y-86745000D03*
D10*
X153907200Y-90245000D03*
%TD*%
%TO.C,C15*%
X135007200Y-106845000D03*
X137507200Y-106845000D03*
%TD*%
D21*
%TO.C,D7*%
X155507200Y-99145000D03*
X155507200Y-95145000D03*
%TD*%
D22*
%TO.C,U2*%
X149607200Y-95245000D03*
D23*
X147067200Y-95245000D03*
X144527200Y-95245000D03*
%TD*%
D15*
%TO.C,R3*%
X140944700Y-98245000D03*
X139069700Y-98245000D03*
%TD*%
D24*
%TO.C,C3*%
X122586800Y-79085400D03*
X120686800Y-79085400D03*
%TD*%
D16*
%TO.C,D3*%
X129243600Y-79898200D03*
X125243600Y-79898200D03*
%TD*%
D25*
%TO.C,U3*%
X147007200Y-102245000D03*
X144707200Y-102245000D03*
D26*
X144707200Y-108545000D03*
D25*
X142407200Y-102245000D03*
%TD*%
D13*
%TO.C,J4*%
X126739700Y-108445000D03*
D12*
X126739700Y-113445000D03*
%TD*%
D27*
%TO.C,C14*%
X134707200Y-111445000D03*
X138307200Y-111445000D03*
%TD*%
D28*
%TO.C,D1*%
X132863600Y-68265000D03*
X132863600Y-72265000D03*
%TD*%
D29*
%TO.C,F2*%
X156407200Y-101995000D03*
X155207200Y-107095000D03*
%TD*%
D30*
%TO.C,R2*%
X138607200Y-96420000D03*
X138607200Y-94545000D03*
%TD*%
D15*
%TO.C,R1*%
X125853200Y-71262200D03*
X123978200Y-71262200D03*
%TD*%
D12*
%TO.C,L1*%
X142707200Y-83645000D03*
X147707200Y-83645000D03*
%TD*%
D10*
%TO.C,C7*%
X128317000Y-76347600D03*
X128317000Y-73847600D03*
%TD*%
D27*
%TO.C,C11*%
X138107200Y-90545000D03*
X141707200Y-90545000D03*
%TD*%
D29*
%TO.C,F1*%
X167529200Y-81149000D03*
X162429200Y-79949000D03*
%TD*%
D10*
%TO.C,C2*%
X128317000Y-70678000D03*
X128317000Y-68178000D03*
%TD*%
D31*
%TO.C,U1*%
X137553400Y-69005200D03*
X137553400Y-70705200D03*
X137553400Y-72405200D03*
D32*
X146703400Y-72405200D03*
D31*
X137553400Y-74105200D03*
X137553400Y-75805200D03*
%TD*%
D27*
%TO.C,C13*%
X134707200Y-102445000D03*
X138307200Y-102445000D03*
%TD*%
D33*
%TO.C,C10*%
X133854200Y-88690000D03*
X133854200Y-92290000D03*
%TD*%
D17*
%TO.C,C4*%
X158085800Y-70830400D03*
D10*
X154585800Y-70830400D03*
%TD*%
M02*
