%TF.GenerationSoftware,KiCad,Pcbnew,9.0.6*%
%TF.CreationDate,2026-04-08T18:28:23+05:30*%
%TF.ProjectId,buck_pcb,6275636b-5f70-4636-922e-6b696361645f,rev?*%
%TF.SameCoordinates,Original*%
%TF.FileFunction,Legend,Bot*%
%TF.FilePolarity,Positive*%
%FSLAX46Y46*%
G04 Gerber Fmt 4.6, Leading zero omitted, Abs format (unit mm)*
G04 Created by KiCad (PCBNEW 9.0.6) date 2026-04-08 18:28:23*
%MOMM*%
%LPD*%
G01*
G04 APERTURE LIST*
%ADD10C,0.300000*%
%ADD11C,0.120000*%
G04 APERTURE END LIST*
D10*
X97794289Y-110392428D02*
X97794289Y-108892428D01*
X97794289Y-108892428D02*
X97437146Y-108892428D01*
X97437146Y-108892428D02*
X97222860Y-108963857D01*
X97222860Y-108963857D02*
X97080003Y-109106714D01*
X97080003Y-109106714D02*
X97008574Y-109249571D01*
X97008574Y-109249571D02*
X96937146Y-109535285D01*
X96937146Y-109535285D02*
X96937146Y-109749571D01*
X96937146Y-109749571D02*
X97008574Y-110035285D01*
X97008574Y-110035285D02*
X97080003Y-110178142D01*
X97080003Y-110178142D02*
X97222860Y-110321000D01*
X97222860Y-110321000D02*
X97437146Y-110392428D01*
X97437146Y-110392428D02*
X97794289Y-110392428D01*
X96294289Y-110392428D02*
X96294289Y-109392428D01*
X96294289Y-109678142D02*
X96222860Y-109535285D01*
X96222860Y-109535285D02*
X96151432Y-109463857D01*
X96151432Y-109463857D02*
X96008574Y-109392428D01*
X96008574Y-109392428D02*
X95865717Y-109392428D01*
X95365718Y-110392428D02*
X95365718Y-109392428D01*
X95365718Y-108892428D02*
X95437146Y-108963857D01*
X95437146Y-108963857D02*
X95365718Y-109035285D01*
X95365718Y-109035285D02*
X95294289Y-108963857D01*
X95294289Y-108963857D02*
X95365718Y-108892428D01*
X95365718Y-108892428D02*
X95365718Y-109035285D01*
X94794289Y-109392428D02*
X94437146Y-110392428D01*
X94437146Y-110392428D02*
X94080003Y-109392428D01*
X92937146Y-110321000D02*
X93080003Y-110392428D01*
X93080003Y-110392428D02*
X93365718Y-110392428D01*
X93365718Y-110392428D02*
X93508575Y-110321000D01*
X93508575Y-110321000D02*
X93580003Y-110178142D01*
X93580003Y-110178142D02*
X93580003Y-109606714D01*
X93580003Y-109606714D02*
X93508575Y-109463857D01*
X93508575Y-109463857D02*
X93365718Y-109392428D01*
X93365718Y-109392428D02*
X93080003Y-109392428D01*
X93080003Y-109392428D02*
X92937146Y-109463857D01*
X92937146Y-109463857D02*
X92865718Y-109606714D01*
X92865718Y-109606714D02*
X92865718Y-109749571D01*
X92865718Y-109749571D02*
X93580003Y-109892428D01*
X92222861Y-109606714D02*
X91722861Y-109606714D01*
X91508575Y-110392428D02*
X92222861Y-110392428D01*
X92222861Y-110392428D02*
X92222861Y-108892428D01*
X92222861Y-108892428D02*
X91508575Y-108892428D01*
X90222861Y-110392428D02*
X90222861Y-109606714D01*
X90222861Y-109606714D02*
X90294289Y-109463857D01*
X90294289Y-109463857D02*
X90437146Y-109392428D01*
X90437146Y-109392428D02*
X90722861Y-109392428D01*
X90722861Y-109392428D02*
X90865718Y-109463857D01*
X90222861Y-110321000D02*
X90365718Y-110392428D01*
X90365718Y-110392428D02*
X90722861Y-110392428D01*
X90722861Y-110392428D02*
X90865718Y-110321000D01*
X90865718Y-110321000D02*
X90937146Y-110178142D01*
X90937146Y-110178142D02*
X90937146Y-110035285D01*
X90937146Y-110035285D02*
X90865718Y-109892428D01*
X90865718Y-109892428D02*
X90722861Y-109821000D01*
X90722861Y-109821000D02*
X90365718Y-109821000D01*
X90365718Y-109821000D02*
X90222861Y-109749571D01*
X89580003Y-110321000D02*
X89437146Y-110392428D01*
X89437146Y-110392428D02*
X89151432Y-110392428D01*
X89151432Y-110392428D02*
X89008575Y-110321000D01*
X89008575Y-110321000D02*
X88937146Y-110178142D01*
X88937146Y-110178142D02*
X88937146Y-110106714D01*
X88937146Y-110106714D02*
X89008575Y-109963857D01*
X89008575Y-109963857D02*
X89151432Y-109892428D01*
X89151432Y-109892428D02*
X89365718Y-109892428D01*
X89365718Y-109892428D02*
X89508575Y-109821000D01*
X89508575Y-109821000D02*
X89580003Y-109678142D01*
X89580003Y-109678142D02*
X89580003Y-109606714D01*
X89580003Y-109606714D02*
X89508575Y-109463857D01*
X89508575Y-109463857D02*
X89365718Y-109392428D01*
X89365718Y-109392428D02*
X89151432Y-109392428D01*
X89151432Y-109392428D02*
X89008575Y-109463857D01*
X88437146Y-109392428D02*
X88080003Y-110392428D01*
X87722860Y-109392428D02*
X88080003Y-110392428D01*
X88080003Y-110392428D02*
X88222860Y-110749571D01*
X88222860Y-110749571D02*
X88294289Y-110821000D01*
X88294289Y-110821000D02*
X88437146Y-110892428D01*
X86008575Y-110392428D02*
X86008575Y-108892428D01*
X85294289Y-109392428D02*
X85294289Y-110392428D01*
X85294289Y-109535285D02*
X85222860Y-109463857D01*
X85222860Y-109463857D02*
X85080003Y-109392428D01*
X85080003Y-109392428D02*
X84865717Y-109392428D01*
X84865717Y-109392428D02*
X84722860Y-109463857D01*
X84722860Y-109463857D02*
X84651432Y-109606714D01*
X84651432Y-109606714D02*
X84651432Y-110392428D01*
X83294289Y-110392428D02*
X83294289Y-108892428D01*
X83294289Y-110321000D02*
X83437146Y-110392428D01*
X83437146Y-110392428D02*
X83722860Y-110392428D01*
X83722860Y-110392428D02*
X83865717Y-110321000D01*
X83865717Y-110321000D02*
X83937146Y-110249571D01*
X83937146Y-110249571D02*
X84008574Y-110106714D01*
X84008574Y-110106714D02*
X84008574Y-109678142D01*
X84008574Y-109678142D02*
X83937146Y-109535285D01*
X83937146Y-109535285D02*
X83865717Y-109463857D01*
X83865717Y-109463857D02*
X83722860Y-109392428D01*
X83722860Y-109392428D02*
X83437146Y-109392428D01*
X83437146Y-109392428D02*
X83294289Y-109463857D01*
X82580003Y-110392428D02*
X82580003Y-109392428D01*
X82580003Y-108892428D02*
X82651431Y-108963857D01*
X82651431Y-108963857D02*
X82580003Y-109035285D01*
X82580003Y-109035285D02*
X82508574Y-108963857D01*
X82508574Y-108963857D02*
X82580003Y-108892428D01*
X82580003Y-108892428D02*
X82580003Y-109035285D01*
X81222860Y-110392428D02*
X81222860Y-109606714D01*
X81222860Y-109606714D02*
X81294288Y-109463857D01*
X81294288Y-109463857D02*
X81437145Y-109392428D01*
X81437145Y-109392428D02*
X81722860Y-109392428D01*
X81722860Y-109392428D02*
X81865717Y-109463857D01*
X81222860Y-110321000D02*
X81365717Y-110392428D01*
X81365717Y-110392428D02*
X81722860Y-110392428D01*
X81722860Y-110392428D02*
X81865717Y-110321000D01*
X81865717Y-110321000D02*
X81937145Y-110178142D01*
X81937145Y-110178142D02*
X81937145Y-110035285D01*
X81937145Y-110035285D02*
X81865717Y-109892428D01*
X81865717Y-109892428D02*
X81722860Y-109821000D01*
X81722860Y-109821000D02*
X81365717Y-109821000D01*
X81365717Y-109821000D02*
X81222860Y-109749571D01*
D11*
%TO.C,RV1*%
X93827600Y-92913200D02*
X95605600Y-92913200D01*
X93827600Y-93675200D02*
X93827600Y-92913200D01*
X95605600Y-92913200D02*
X95732600Y-92659200D01*
X95732600Y-92659200D02*
X95986600Y-93167200D01*
X95986600Y-93167200D02*
X96240600Y-92659200D01*
X96240600Y-92659200D02*
X96494600Y-93167200D01*
X96367600Y-93294200D02*
X96367600Y-93738700D01*
X96494600Y-93167200D02*
X96748600Y-92659200D01*
X96748600Y-92659200D02*
X97002600Y-93167200D01*
X97002600Y-93167200D02*
X97129600Y-92913200D01*
X97129600Y-92913200D02*
X98907600Y-92913200D01*
X98907600Y-92913200D02*
X98907600Y-93675200D01*
X96494600Y-93548200D02*
X96240600Y-93548200D01*
X96367600Y-93294200D01*
X96494600Y-93548200D01*
G36*
X96494600Y-93548200D02*
G01*
X96240600Y-93548200D01*
X96367600Y-93294200D01*
X96494600Y-93548200D01*
G37*
%TD*%
M02*
