%TF.GenerationSoftware,KiCad,Pcbnew,9.0.6*%
%TF.CreationDate,2026-04-08T18:28:23+05:30*%
%TF.ProjectId,buck_pcb,6275636b-5f70-4636-922e-6b696361645f,rev?*%
%TF.SameCoordinates,Original*%
%TF.FileFunction,Copper,L2,Bot*%
%TF.FilePolarity,Positive*%
%FSLAX46Y46*%
G04 Gerber Fmt 4.6, Leading zero omitted, Abs format (unit mm)*
G04 Created by KiCad (PCBNEW 9.0.6) date 2026-04-08 18:28:23*
%MOMM*%
%LPD*%
G01*
G04 APERTURE LIST*
%TA.AperFunction,ComponentPad*%
%ADD10R,2.800000X1.800000*%
%TD*%
%TA.AperFunction,ComponentPad*%
%ADD11C,1.440000*%
%TD*%
%TA.AperFunction,ViaPad*%
%ADD12C,0.600000*%
%TD*%
%TA.AperFunction,Conductor*%
%ADD13C,1.250000*%
%TD*%
G04 APERTURE END LIST*
D10*
%TO.P,J2,1,Pin_1*%
%TO.N,GND*%
X71628000Y-110134400D03*
%TD*%
%TO.P,J3,1,Pin_1*%
%TO.N,VIN*%
X71577200Y-93167200D03*
%TD*%
%TO.P,J1,1,Pin_1*%
%TO.N,GND*%
X109423200Y-110185200D03*
%TD*%
%TO.P,J4,1,Pin_1*%
%TO.N,VOUT*%
X109321600Y-93218000D03*
%TD*%
D11*
%TO.P,RV1,1,1*%
%TO.N,VOUT*%
X98907600Y-94691200D03*
%TO.P,RV1,2,2*%
%TO.N,Net-(U1-FB)*%
X96367600Y-94691200D03*
%TO.P,RV1,3,3*%
%TO.N,Net-(R1-Pad1)*%
X93827600Y-94691200D03*
%TD*%
D12*
%TO.N,GND*%
X72999600Y-99009200D03*
%TO.N,Net-(U1-FB)*%
X88341200Y-102540600D03*
%TD*%
D13*
%TO.N,GND*%
X72999600Y-108762800D02*
X71628000Y-110134400D01*
X72999600Y-99009200D02*
X72999600Y-108762800D01*
%TO.N,Net-(U1-FB)*%
X96190600Y-94691200D02*
X88341200Y-102540600D01*
X96367600Y-94691200D02*
X96190600Y-94691200D01*
%TD*%
%TA.AperFunction,Conductor*%
%TO.N,GND*%
G36*
X107416664Y-91960185D02*
G01*
X107462419Y-92012989D01*
X107472363Y-92082147D01*
X107465807Y-92107833D01*
X107427508Y-92210517D01*
X107421101Y-92270116D01*
X107421100Y-92270135D01*
X107421100Y-94165870D01*
X107421101Y-94165876D01*
X107427508Y-94225483D01*
X107477802Y-94360328D01*
X107477806Y-94360335D01*
X107564052Y-94475544D01*
X107564055Y-94475547D01*
X107679264Y-94561793D01*
X107679271Y-94561797D01*
X107814117Y-94612091D01*
X107814116Y-94612091D01*
X107821044Y-94612835D01*
X107873727Y-94618500D01*
X110769472Y-94618499D01*
X110829083Y-94612091D01*
X110963931Y-94561796D01*
X110963934Y-94561793D01*
X110971714Y-94557546D01*
X110973065Y-94560021D01*
X111025043Y-94540630D01*
X111093317Y-94555475D01*
X111142727Y-94604876D01*
X111157900Y-94664313D01*
X111157900Y-111237100D01*
X111138215Y-111304139D01*
X111085411Y-111349894D01*
X111033900Y-111361100D01*
X70017300Y-111361100D01*
X69950261Y-111341415D01*
X69904506Y-111288611D01*
X69893300Y-111237100D01*
X69893300Y-109244648D01*
X101112300Y-109244648D01*
X101112300Y-109449351D01*
X101144322Y-109651534D01*
X101207581Y-109846223D01*
X101300515Y-110028613D01*
X101420828Y-110194213D01*
X101565586Y-110338971D01*
X101720549Y-110451556D01*
X101731190Y-110459287D01*
X101847407Y-110518503D01*
X101913576Y-110552218D01*
X101913578Y-110552218D01*
X101913581Y-110552220D01*
X102017937Y-110586127D01*
X102108265Y-110615477D01*
X102209357Y-110631488D01*
X102310448Y-110647500D01*
X102310449Y-110647500D01*
X102515151Y-110647500D01*
X102515152Y-110647500D01*
X102717334Y-110615477D01*
X102912019Y-110552220D01*
X103094410Y-110459287D01*
X103187390Y-110391732D01*
X103260013Y-110338971D01*
X103260015Y-110338968D01*
X103260019Y-110338966D01*
X103404766Y-110194219D01*
X103404768Y-110194215D01*
X103404771Y-110194213D01*
X103457532Y-110121590D01*
X103525087Y-110028610D01*
X103618020Y-109846219D01*
X103681277Y-109651534D01*
X103713300Y-109449352D01*
X103713300Y-109244648D01*
X103681277Y-109042466D01*
X103618020Y-108847781D01*
X103618018Y-108847778D01*
X103618018Y-108847776D01*
X103584303Y-108781607D01*
X103525087Y-108665390D01*
X103517356Y-108654749D01*
X103404771Y-108499786D01*
X103260013Y-108355028D01*
X103094413Y-108234715D01*
X103094412Y-108234714D01*
X103094410Y-108234713D01*
X103037453Y-108205691D01*
X102912023Y-108141781D01*
X102717334Y-108078522D01*
X102542795Y-108050878D01*
X102515152Y-108046500D01*
X102310448Y-108046500D01*
X102286129Y-108050351D01*
X102108265Y-108078522D01*
X101913576Y-108141781D01*
X101731186Y-108234715D01*
X101565586Y-108355028D01*
X101420828Y-108499786D01*
X101300515Y-108665386D01*
X101207581Y-108847776D01*
X101144322Y-109042465D01*
X101112300Y-109244648D01*
X69893300Y-109244648D01*
X69893300Y-102452021D01*
X87215700Y-102452021D01*
X87215700Y-102629179D01*
X87243414Y-102804156D01*
X87298158Y-102972642D01*
X87378587Y-103130490D01*
X87482717Y-103273814D01*
X87607986Y-103399083D01*
X87751310Y-103503213D01*
X87909158Y-103583642D01*
X88077644Y-103638386D01*
X88252621Y-103666100D01*
X88252622Y-103666100D01*
X88429778Y-103666100D01*
X88429779Y-103666100D01*
X88604756Y-103638386D01*
X88773242Y-103583642D01*
X88931090Y-103503213D01*
X89074414Y-103399083D01*
X96551779Y-95921717D01*
X96613100Y-95888234D01*
X96620019Y-95886933D01*
X96653401Y-95881647D01*
X96836109Y-95822282D01*
X97007281Y-95735065D01*
X97162702Y-95622145D01*
X97298545Y-95486302D01*
X97411465Y-95330881D01*
X97498682Y-95159709D01*
X97498684Y-95159704D01*
X97519669Y-95095119D01*
X97559106Y-95037443D01*
X97623464Y-95010244D01*
X97692311Y-95022158D01*
X97743787Y-95069402D01*
X97755531Y-95095119D01*
X97776515Y-95159704D01*
X97863735Y-95330881D01*
X97976655Y-95486302D01*
X98112498Y-95622145D01*
X98267919Y-95735065D01*
X98402198Y-95803484D01*
X98439093Y-95822283D01*
X98521155Y-95848946D01*
X98621799Y-95881647D01*
X98811545Y-95911700D01*
X98811546Y-95911700D01*
X99003654Y-95911700D01*
X99003655Y-95911700D01*
X99193401Y-95881647D01*
X99376109Y-95822282D01*
X99547281Y-95735065D01*
X99702702Y-95622145D01*
X99838545Y-95486302D01*
X99951465Y-95330881D01*
X100038682Y-95159709D01*
X100098047Y-94977001D01*
X100128100Y-94787255D01*
X100128100Y-94595145D01*
X100127103Y-94588848D01*
X101163100Y-94588848D01*
X101163100Y-94793551D01*
X101195122Y-94995734D01*
X101258381Y-95190423D01*
X101351315Y-95372813D01*
X101471628Y-95538413D01*
X101616386Y-95683171D01*
X101751724Y-95781498D01*
X101781990Y-95803487D01*
X101898207Y-95862703D01*
X101964376Y-95896418D01*
X101964378Y-95896418D01*
X101964381Y-95896420D01*
X102068737Y-95930327D01*
X102159065Y-95959677D01*
X102182748Y-95963428D01*
X102361248Y-95991700D01*
X102361249Y-95991700D01*
X102565951Y-95991700D01*
X102565952Y-95991700D01*
X102768134Y-95959677D01*
X102962819Y-95896420D01*
X103145210Y-95803487D01*
X103239387Y-95735064D01*
X103310813Y-95683171D01*
X103310815Y-95683168D01*
X103310819Y-95683166D01*
X103455566Y-95538419D01*
X103455568Y-95538415D01*
X103455571Y-95538413D01*
X103508332Y-95465790D01*
X103575887Y-95372810D01*
X103668820Y-95190419D01*
X103732077Y-94995734D01*
X103764100Y-94793552D01*
X103764100Y-94588848D01*
X103746155Y-94475547D01*
X103732077Y-94386665D01*
X103668818Y-94191976D01*
X103597251Y-94051520D01*
X103575887Y-94009590D01*
X103568156Y-93998949D01*
X103455571Y-93843986D01*
X103310813Y-93699228D01*
X103145213Y-93578915D01*
X103145212Y-93578914D01*
X103145210Y-93578913D01*
X103088253Y-93549891D01*
X102962823Y-93485981D01*
X102768134Y-93422722D01*
X102593595Y-93395078D01*
X102565952Y-93390700D01*
X102361248Y-93390700D01*
X102336929Y-93394551D01*
X102159065Y-93422722D01*
X101964376Y-93485981D01*
X101781986Y-93578915D01*
X101616386Y-93699228D01*
X101471628Y-93843986D01*
X101351315Y-94009586D01*
X101258381Y-94191976D01*
X101195122Y-94386665D01*
X101163100Y-94588848D01*
X100127103Y-94588848D01*
X100098047Y-94405399D01*
X100065346Y-94304755D01*
X100038683Y-94222693D01*
X100023032Y-94191976D01*
X99951465Y-94051519D01*
X99838545Y-93896098D01*
X99702702Y-93760255D01*
X99547281Y-93647335D01*
X99547279Y-93647334D01*
X99376106Y-93560116D01*
X99193402Y-93500753D01*
X99098528Y-93485726D01*
X99003655Y-93470700D01*
X98811545Y-93470700D01*
X98748296Y-93480717D01*
X98621797Y-93500753D01*
X98439093Y-93560116D01*
X98267918Y-93647335D01*
X98200085Y-93696619D01*
X98112498Y-93760255D01*
X98112496Y-93760257D01*
X98112495Y-93760257D01*
X97976657Y-93896095D01*
X97976657Y-93896096D01*
X97976655Y-93896098D01*
X97928160Y-93962845D01*
X97863735Y-94051518D01*
X97776516Y-94222693D01*
X97755531Y-94287281D01*
X97716094Y-94344956D01*
X97651735Y-94372155D01*
X97582889Y-94360241D01*
X97531413Y-94312997D01*
X97519669Y-94287281D01*
X97498683Y-94222693D01*
X97483032Y-94191976D01*
X97411465Y-94051519D01*
X97298545Y-93896098D01*
X97162702Y-93760255D01*
X97007281Y-93647335D01*
X97007279Y-93647334D01*
X96836106Y-93560116D01*
X96653402Y-93500753D01*
X96558528Y-93485726D01*
X96463655Y-93470700D01*
X96271545Y-93470700D01*
X96208296Y-93480717D01*
X96081797Y-93500753D01*
X95899093Y-93560116D01*
X95727920Y-93647334D01*
X95727918Y-93647335D01*
X95660084Y-93696619D01*
X95654138Y-93700680D01*
X95648961Y-93703999D01*
X95600710Y-93728586D01*
X95529048Y-93780651D01*
X95526152Y-93782754D01*
X95526138Y-93782764D01*
X95457389Y-93832712D01*
X95457387Y-93832714D01*
X95116064Y-94174036D01*
X95054741Y-94207521D01*
X94985049Y-94202537D01*
X94929116Y-94160665D01*
X94917898Y-94142649D01*
X94903847Y-94115073D01*
X94871465Y-94051519D01*
X94871464Y-94051518D01*
X94840999Y-94009586D01*
X94758545Y-93896098D01*
X94622702Y-93760255D01*
X94467281Y-93647335D01*
X94467279Y-93647334D01*
X94296106Y-93560116D01*
X94113402Y-93500753D01*
X94018528Y-93485726D01*
X93923655Y-93470700D01*
X93731545Y-93470700D01*
X93668296Y-93480717D01*
X93541797Y-93500753D01*
X93359093Y-93560116D01*
X93187918Y-93647335D01*
X93120085Y-93696619D01*
X93032498Y-93760255D01*
X93032496Y-93760257D01*
X93032495Y-93760257D01*
X92896657Y-93896095D01*
X92896657Y-93896096D01*
X92896655Y-93896098D01*
X92848160Y-93962845D01*
X92783735Y-94051518D01*
X92696516Y-94222693D01*
X92637153Y-94405397D01*
X92625357Y-94479877D01*
X92607100Y-94595145D01*
X92607100Y-94787255D01*
X92622126Y-94882128D01*
X92637153Y-94977002D01*
X92696516Y-95159706D01*
X92783735Y-95330881D01*
X92896655Y-95486302D01*
X93032498Y-95622145D01*
X93116486Y-95683166D01*
X93187920Y-95735066D01*
X93242689Y-95762972D01*
X93279049Y-95781498D01*
X93329846Y-95829472D01*
X93346641Y-95897293D01*
X93324104Y-95963428D01*
X93310436Y-95979664D01*
X87482717Y-101807385D01*
X87378586Y-101950710D01*
X87298157Y-102108560D01*
X87243414Y-102277042D01*
X87243414Y-102277044D01*
X87215700Y-102452021D01*
X69893300Y-102452021D01*
X69893300Y-94674085D01*
X69912985Y-94607046D01*
X69965789Y-94561291D01*
X70034947Y-94551347D01*
X70060631Y-94557902D01*
X70069717Y-94561291D01*
X70129327Y-94567700D01*
X73025072Y-94567699D01*
X73084683Y-94561291D01*
X73219531Y-94510996D01*
X73334746Y-94424746D01*
X73420996Y-94309531D01*
X73471291Y-94174683D01*
X73477700Y-94115073D01*
X73477699Y-92219328D01*
X73471291Y-92159717D01*
X73451940Y-92107833D01*
X73446956Y-92038141D01*
X73480441Y-91976818D01*
X73541765Y-91943334D01*
X73568122Y-91940500D01*
X107349625Y-91940500D01*
X107416664Y-91960185D01*
G37*
%TD.AperFunction*%
%TD*%
M02*
