%TF.GenerationSoftware,KiCad,Pcbnew,9.0.6*%
%TF.CreationDate,2026-04-01T13:16:40+05:30*%
%TF.ProjectId,realy_8_connections,7265616c-795f-4385-9f63-6f6e6e656374,rev?*%
%TF.SameCoordinates,Original*%
%TF.FileFunction,Legend,Top*%
%TF.FilePolarity,Positive*%
%FSLAX46Y46*%
G04 Gerber Fmt 4.6, Leading zero omitted, Abs format (unit mm)*
G04 Created by KiCad (PCBNEW 9.0.6) date 2026-04-01 13:16:40*
%MOMM*%
%LPD*%
G01*
G04 APERTURE LIST*
%ADD10C,0.100000*%
%ADD11C,0.150000*%
%ADD12C,0.120000*%
G04 APERTURE END LIST*
D10*
X161627180Y-58274687D02*
X161674800Y-58322306D01*
X161674800Y-58322306D02*
X161722419Y-58465163D01*
X161722419Y-58465163D02*
X161722419Y-58560401D01*
X161722419Y-58560401D02*
X161674800Y-58703258D01*
X161674800Y-58703258D02*
X161579561Y-58798496D01*
X161579561Y-58798496D02*
X161484323Y-58846115D01*
X161484323Y-58846115D02*
X161293847Y-58893734D01*
X161293847Y-58893734D02*
X161150990Y-58893734D01*
X161150990Y-58893734D02*
X160960514Y-58846115D01*
X160960514Y-58846115D02*
X160865276Y-58798496D01*
X160865276Y-58798496D02*
X160770038Y-58703258D01*
X160770038Y-58703258D02*
X160722419Y-58560401D01*
X160722419Y-58560401D02*
X160722419Y-58465163D01*
X160722419Y-58465163D02*
X160770038Y-58322306D01*
X160770038Y-58322306D02*
X160817657Y-58274687D01*
X160722419Y-57655639D02*
X160722419Y-57465163D01*
X160722419Y-57465163D02*
X160770038Y-57369925D01*
X160770038Y-57369925D02*
X160865276Y-57274687D01*
X160865276Y-57274687D02*
X161055752Y-57227068D01*
X161055752Y-57227068D02*
X161389085Y-57227068D01*
X161389085Y-57227068D02*
X161579561Y-57274687D01*
X161579561Y-57274687D02*
X161674800Y-57369925D01*
X161674800Y-57369925D02*
X161722419Y-57465163D01*
X161722419Y-57465163D02*
X161722419Y-57655639D01*
X161722419Y-57655639D02*
X161674800Y-57750877D01*
X161674800Y-57750877D02*
X161579561Y-57846115D01*
X161579561Y-57846115D02*
X161389085Y-57893734D01*
X161389085Y-57893734D02*
X161055752Y-57893734D01*
X161055752Y-57893734D02*
X160865276Y-57846115D01*
X160865276Y-57846115D02*
X160770038Y-57750877D01*
X160770038Y-57750877D02*
X160722419Y-57655639D01*
X161722419Y-56798496D02*
X160722419Y-56798496D01*
X160722419Y-56798496D02*
X161436704Y-56465163D01*
X161436704Y-56465163D02*
X160722419Y-56131830D01*
X160722419Y-56131830D02*
X161722419Y-56131830D01*
X55402580Y-78203884D02*
X56402580Y-78203884D01*
X56402580Y-78203884D02*
X55402580Y-78775312D01*
X55402580Y-78775312D02*
X56402580Y-78775312D01*
X55497819Y-79822931D02*
X55450200Y-79775312D01*
X55450200Y-79775312D02*
X55402580Y-79632455D01*
X55402580Y-79632455D02*
X55402580Y-79537217D01*
X55402580Y-79537217D02*
X55450200Y-79394360D01*
X55450200Y-79394360D02*
X55545438Y-79299122D01*
X55545438Y-79299122D02*
X55640676Y-79251503D01*
X55640676Y-79251503D02*
X55831152Y-79203884D01*
X55831152Y-79203884D02*
X55974009Y-79203884D01*
X55974009Y-79203884D02*
X56164485Y-79251503D01*
X56164485Y-79251503D02*
X56259723Y-79299122D01*
X56259723Y-79299122D02*
X56354961Y-79394360D01*
X56354961Y-79394360D02*
X56402580Y-79537217D01*
X56402580Y-79537217D02*
X56402580Y-79632455D01*
X56402580Y-79632455D02*
X56354961Y-79775312D01*
X56354961Y-79775312D02*
X56307342Y-79822931D01*
X161672419Y-116246115D02*
X160672419Y-116246115D01*
X160672419Y-116246115D02*
X161672419Y-115674687D01*
X161672419Y-115674687D02*
X160672419Y-115674687D01*
X161577180Y-114627068D02*
X161624800Y-114674687D01*
X161624800Y-114674687D02*
X161672419Y-114817544D01*
X161672419Y-114817544D02*
X161672419Y-114912782D01*
X161672419Y-114912782D02*
X161624800Y-115055639D01*
X161624800Y-115055639D02*
X161529561Y-115150877D01*
X161529561Y-115150877D02*
X161434323Y-115198496D01*
X161434323Y-115198496D02*
X161243847Y-115246115D01*
X161243847Y-115246115D02*
X161100990Y-115246115D01*
X161100990Y-115246115D02*
X160910514Y-115198496D01*
X160910514Y-115198496D02*
X160815276Y-115150877D01*
X160815276Y-115150877D02*
X160720038Y-115055639D01*
X160720038Y-115055639D02*
X160672419Y-114912782D01*
X160672419Y-114912782D02*
X160672419Y-114817544D01*
X160672419Y-114817544D02*
X160720038Y-114674687D01*
X160720038Y-114674687D02*
X160767657Y-114627068D01*
X161552180Y-93399687D02*
X161599800Y-93447306D01*
X161599800Y-93447306D02*
X161647419Y-93590163D01*
X161647419Y-93590163D02*
X161647419Y-93685401D01*
X161647419Y-93685401D02*
X161599800Y-93828258D01*
X161599800Y-93828258D02*
X161504561Y-93923496D01*
X161504561Y-93923496D02*
X161409323Y-93971115D01*
X161409323Y-93971115D02*
X161218847Y-94018734D01*
X161218847Y-94018734D02*
X161075990Y-94018734D01*
X161075990Y-94018734D02*
X160885514Y-93971115D01*
X160885514Y-93971115D02*
X160790276Y-93923496D01*
X160790276Y-93923496D02*
X160695038Y-93828258D01*
X160695038Y-93828258D02*
X160647419Y-93685401D01*
X160647419Y-93685401D02*
X160647419Y-93590163D01*
X160647419Y-93590163D02*
X160695038Y-93447306D01*
X160695038Y-93447306D02*
X160742657Y-93399687D01*
X160647419Y-92780639D02*
X160647419Y-92590163D01*
X160647419Y-92590163D02*
X160695038Y-92494925D01*
X160695038Y-92494925D02*
X160790276Y-92399687D01*
X160790276Y-92399687D02*
X160980752Y-92352068D01*
X160980752Y-92352068D02*
X161314085Y-92352068D01*
X161314085Y-92352068D02*
X161504561Y-92399687D01*
X161504561Y-92399687D02*
X161599800Y-92494925D01*
X161599800Y-92494925D02*
X161647419Y-92590163D01*
X161647419Y-92590163D02*
X161647419Y-92780639D01*
X161647419Y-92780639D02*
X161599800Y-92875877D01*
X161599800Y-92875877D02*
X161504561Y-92971115D01*
X161504561Y-92971115D02*
X161314085Y-93018734D01*
X161314085Y-93018734D02*
X160980752Y-93018734D01*
X160980752Y-93018734D02*
X160790276Y-92971115D01*
X160790276Y-92971115D02*
X160695038Y-92875877D01*
X160695038Y-92875877D02*
X160647419Y-92780639D01*
X161647419Y-91923496D02*
X160647419Y-91923496D01*
X160647419Y-91923496D02*
X161361704Y-91590163D01*
X161361704Y-91590163D02*
X160647419Y-91256830D01*
X160647419Y-91256830D02*
X161647419Y-91256830D01*
D11*
X100789160Y-116794295D02*
X100789160Y-115994295D01*
X101170112Y-116794295D02*
X101170112Y-115994295D01*
X101170112Y-115994295D02*
X101627255Y-116794295D01*
X101627255Y-116794295D02*
X101627255Y-115994295D01*
X101932016Y-115994295D02*
X102465350Y-115994295D01*
X102465350Y-115994295D02*
X102122492Y-116794295D01*
D10*
X161652180Y-76499687D02*
X161699800Y-76547306D01*
X161699800Y-76547306D02*
X161747419Y-76690163D01*
X161747419Y-76690163D02*
X161747419Y-76785401D01*
X161747419Y-76785401D02*
X161699800Y-76928258D01*
X161699800Y-76928258D02*
X161604561Y-77023496D01*
X161604561Y-77023496D02*
X161509323Y-77071115D01*
X161509323Y-77071115D02*
X161318847Y-77118734D01*
X161318847Y-77118734D02*
X161175990Y-77118734D01*
X161175990Y-77118734D02*
X160985514Y-77071115D01*
X160985514Y-77071115D02*
X160890276Y-77023496D01*
X160890276Y-77023496D02*
X160795038Y-76928258D01*
X160795038Y-76928258D02*
X160747419Y-76785401D01*
X160747419Y-76785401D02*
X160747419Y-76690163D01*
X160747419Y-76690163D02*
X160795038Y-76547306D01*
X160795038Y-76547306D02*
X160842657Y-76499687D01*
X160747419Y-75880639D02*
X160747419Y-75690163D01*
X160747419Y-75690163D02*
X160795038Y-75594925D01*
X160795038Y-75594925D02*
X160890276Y-75499687D01*
X160890276Y-75499687D02*
X161080752Y-75452068D01*
X161080752Y-75452068D02*
X161414085Y-75452068D01*
X161414085Y-75452068D02*
X161604561Y-75499687D01*
X161604561Y-75499687D02*
X161699800Y-75594925D01*
X161699800Y-75594925D02*
X161747419Y-75690163D01*
X161747419Y-75690163D02*
X161747419Y-75880639D01*
X161747419Y-75880639D02*
X161699800Y-75975877D01*
X161699800Y-75975877D02*
X161604561Y-76071115D01*
X161604561Y-76071115D02*
X161414085Y-76118734D01*
X161414085Y-76118734D02*
X161080752Y-76118734D01*
X161080752Y-76118734D02*
X160890276Y-76071115D01*
X160890276Y-76071115D02*
X160795038Y-75975877D01*
X160795038Y-75975877D02*
X160747419Y-75880639D01*
X161747419Y-75023496D02*
X160747419Y-75023496D01*
X160747419Y-75023496D02*
X161461704Y-74690163D01*
X161461704Y-74690163D02*
X160747419Y-74356830D01*
X160747419Y-74356830D02*
X161747419Y-74356830D01*
D11*
X98089160Y-116794295D02*
X98089160Y-115994295D01*
X98470112Y-116794295D02*
X98470112Y-115994295D01*
X98470112Y-115994295D02*
X98927255Y-116794295D01*
X98927255Y-116794295D02*
X98927255Y-115994295D01*
X99422492Y-116337152D02*
X99346302Y-116299057D01*
X99346302Y-116299057D02*
X99308207Y-116260961D01*
X99308207Y-116260961D02*
X99270111Y-116184771D01*
X99270111Y-116184771D02*
X99270111Y-116146676D01*
X99270111Y-116146676D02*
X99308207Y-116070485D01*
X99308207Y-116070485D02*
X99346302Y-116032390D01*
X99346302Y-116032390D02*
X99422492Y-115994295D01*
X99422492Y-115994295D02*
X99574873Y-115994295D01*
X99574873Y-115994295D02*
X99651064Y-116032390D01*
X99651064Y-116032390D02*
X99689159Y-116070485D01*
X99689159Y-116070485D02*
X99727254Y-116146676D01*
X99727254Y-116146676D02*
X99727254Y-116184771D01*
X99727254Y-116184771D02*
X99689159Y-116260961D01*
X99689159Y-116260961D02*
X99651064Y-116299057D01*
X99651064Y-116299057D02*
X99574873Y-116337152D01*
X99574873Y-116337152D02*
X99422492Y-116337152D01*
X99422492Y-116337152D02*
X99346302Y-116375247D01*
X99346302Y-116375247D02*
X99308207Y-116413342D01*
X99308207Y-116413342D02*
X99270111Y-116489533D01*
X99270111Y-116489533D02*
X99270111Y-116641914D01*
X99270111Y-116641914D02*
X99308207Y-116718104D01*
X99308207Y-116718104D02*
X99346302Y-116756200D01*
X99346302Y-116756200D02*
X99422492Y-116794295D01*
X99422492Y-116794295D02*
X99574873Y-116794295D01*
X99574873Y-116794295D02*
X99651064Y-116756200D01*
X99651064Y-116756200D02*
X99689159Y-116718104D01*
X99689159Y-116718104D02*
X99727254Y-116641914D01*
X99727254Y-116641914D02*
X99727254Y-116489533D01*
X99727254Y-116489533D02*
X99689159Y-116413342D01*
X99689159Y-116413342D02*
X99651064Y-116375247D01*
X99651064Y-116375247D02*
X99574873Y-116337152D01*
X152904819Y-45361904D02*
X151904819Y-45361904D01*
X152381009Y-45361904D02*
X152381009Y-44790476D01*
X152904819Y-44790476D02*
X151904819Y-44790476D01*
X151904819Y-44409523D02*
X151904819Y-43790476D01*
X151904819Y-43790476D02*
X152285771Y-44123809D01*
X152285771Y-44123809D02*
X152285771Y-43980952D01*
X152285771Y-43980952D02*
X152333390Y-43885714D01*
X152333390Y-43885714D02*
X152381009Y-43838095D01*
X152381009Y-43838095D02*
X152476247Y-43790476D01*
X152476247Y-43790476D02*
X152714342Y-43790476D01*
X152714342Y-43790476D02*
X152809580Y-43838095D01*
X152809580Y-43838095D02*
X152857200Y-43885714D01*
X152857200Y-43885714D02*
X152904819Y-43980952D01*
X152904819Y-43980952D02*
X152904819Y-44266666D01*
X152904819Y-44266666D02*
X152857200Y-44361904D01*
X152857200Y-44361904D02*
X152809580Y-44409523D01*
D10*
X55552580Y-114653884D02*
X56552580Y-114653884D01*
X56552580Y-114653884D02*
X55552580Y-115225312D01*
X55552580Y-115225312D02*
X56552580Y-115225312D01*
X55647819Y-116272931D02*
X55600200Y-116225312D01*
X55600200Y-116225312D02*
X55552580Y-116082455D01*
X55552580Y-116082455D02*
X55552580Y-115987217D01*
X55552580Y-115987217D02*
X55600200Y-115844360D01*
X55600200Y-115844360D02*
X55695438Y-115749122D01*
X55695438Y-115749122D02*
X55790676Y-115701503D01*
X55790676Y-115701503D02*
X55981152Y-115653884D01*
X55981152Y-115653884D02*
X56124009Y-115653884D01*
X56124009Y-115653884D02*
X56314485Y-115701503D01*
X56314485Y-115701503D02*
X56409723Y-115749122D01*
X56409723Y-115749122D02*
X56504961Y-115844360D01*
X56504961Y-115844360D02*
X56552580Y-115987217D01*
X56552580Y-115987217D02*
X56552580Y-116082455D01*
X56552580Y-116082455D02*
X56504961Y-116225312D01*
X56504961Y-116225312D02*
X56457342Y-116272931D01*
X55502580Y-95078884D02*
X56502580Y-95078884D01*
X56502580Y-95078884D02*
X55502580Y-95650312D01*
X55502580Y-95650312D02*
X56502580Y-95650312D01*
X55597819Y-96697931D02*
X55550200Y-96650312D01*
X55550200Y-96650312D02*
X55502580Y-96507455D01*
X55502580Y-96507455D02*
X55502580Y-96412217D01*
X55502580Y-96412217D02*
X55550200Y-96269360D01*
X55550200Y-96269360D02*
X55645438Y-96174122D01*
X55645438Y-96174122D02*
X55740676Y-96126503D01*
X55740676Y-96126503D02*
X55931152Y-96078884D01*
X55931152Y-96078884D02*
X56074009Y-96078884D01*
X56074009Y-96078884D02*
X56264485Y-96126503D01*
X56264485Y-96126503D02*
X56359723Y-96174122D01*
X56359723Y-96174122D02*
X56454961Y-96269360D01*
X56454961Y-96269360D02*
X56502580Y-96412217D01*
X56502580Y-96412217D02*
X56502580Y-96507455D01*
X56502580Y-96507455D02*
X56454961Y-96650312D01*
X56454961Y-96650312D02*
X56407342Y-96697931D01*
D11*
X113689160Y-116794295D02*
X113689160Y-115994295D01*
X114070112Y-116794295D02*
X114070112Y-115994295D01*
X114070112Y-115994295D02*
X114527255Y-116794295D01*
X114527255Y-116794295D02*
X114527255Y-115994295D01*
X114870111Y-116070485D02*
X114908207Y-116032390D01*
X114908207Y-116032390D02*
X114984397Y-115994295D01*
X114984397Y-115994295D02*
X115174873Y-115994295D01*
X115174873Y-115994295D02*
X115251064Y-116032390D01*
X115251064Y-116032390D02*
X115289159Y-116070485D01*
X115289159Y-116070485D02*
X115327254Y-116146676D01*
X115327254Y-116146676D02*
X115327254Y-116222866D01*
X115327254Y-116222866D02*
X115289159Y-116337152D01*
X115289159Y-116337152D02*
X114832016Y-116794295D01*
X114832016Y-116794295D02*
X115327254Y-116794295D01*
D10*
X98152693Y-42670038D02*
X98057455Y-42622419D01*
X98057455Y-42622419D02*
X97914598Y-42622419D01*
X97914598Y-42622419D02*
X97771741Y-42670038D01*
X97771741Y-42670038D02*
X97676503Y-42765276D01*
X97676503Y-42765276D02*
X97628884Y-42860514D01*
X97628884Y-42860514D02*
X97581265Y-43050990D01*
X97581265Y-43050990D02*
X97581265Y-43193847D01*
X97581265Y-43193847D02*
X97628884Y-43384323D01*
X97628884Y-43384323D02*
X97676503Y-43479561D01*
X97676503Y-43479561D02*
X97771741Y-43574800D01*
X97771741Y-43574800D02*
X97914598Y-43622419D01*
X97914598Y-43622419D02*
X98009836Y-43622419D01*
X98009836Y-43622419D02*
X98152693Y-43574800D01*
X98152693Y-43574800D02*
X98200312Y-43527180D01*
X98200312Y-43527180D02*
X98200312Y-43193847D01*
X98200312Y-43193847D02*
X98009836Y-43193847D01*
X98628884Y-43622419D02*
X98628884Y-42622419D01*
X98628884Y-42622419D02*
X99200312Y-43622419D01*
X99200312Y-43622419D02*
X99200312Y-42622419D01*
X99676503Y-43622419D02*
X99676503Y-42622419D01*
X99676503Y-42622419D02*
X99914598Y-42622419D01*
X99914598Y-42622419D02*
X100057455Y-42670038D01*
X100057455Y-42670038D02*
X100152693Y-42765276D01*
X100152693Y-42765276D02*
X100200312Y-42860514D01*
X100200312Y-42860514D02*
X100247931Y-43050990D01*
X100247931Y-43050990D02*
X100247931Y-43193847D01*
X100247931Y-43193847D02*
X100200312Y-43384323D01*
X100200312Y-43384323D02*
X100152693Y-43479561D01*
X100152693Y-43479561D02*
X100057455Y-43574800D01*
X100057455Y-43574800D02*
X99914598Y-43622419D01*
X99914598Y-43622419D02*
X99676503Y-43622419D01*
X55497819Y-54950312D02*
X55450200Y-54902693D01*
X55450200Y-54902693D02*
X55402580Y-54759836D01*
X55402580Y-54759836D02*
X55402580Y-54664598D01*
X55402580Y-54664598D02*
X55450200Y-54521741D01*
X55450200Y-54521741D02*
X55545438Y-54426503D01*
X55545438Y-54426503D02*
X55640676Y-54378884D01*
X55640676Y-54378884D02*
X55831152Y-54331265D01*
X55831152Y-54331265D02*
X55974009Y-54331265D01*
X55974009Y-54331265D02*
X56164485Y-54378884D01*
X56164485Y-54378884D02*
X56259723Y-54426503D01*
X56259723Y-54426503D02*
X56354961Y-54521741D01*
X56354961Y-54521741D02*
X56402580Y-54664598D01*
X56402580Y-54664598D02*
X56402580Y-54759836D01*
X56402580Y-54759836D02*
X56354961Y-54902693D01*
X56354961Y-54902693D02*
X56307342Y-54950312D01*
X56402580Y-55569360D02*
X56402580Y-55759836D01*
X56402580Y-55759836D02*
X56354961Y-55855074D01*
X56354961Y-55855074D02*
X56259723Y-55950312D01*
X56259723Y-55950312D02*
X56069247Y-55997931D01*
X56069247Y-55997931D02*
X55735914Y-55997931D01*
X55735914Y-55997931D02*
X55545438Y-55950312D01*
X55545438Y-55950312D02*
X55450200Y-55855074D01*
X55450200Y-55855074D02*
X55402580Y-55759836D01*
X55402580Y-55759836D02*
X55402580Y-55569360D01*
X55402580Y-55569360D02*
X55450200Y-55474122D01*
X55450200Y-55474122D02*
X55545438Y-55378884D01*
X55545438Y-55378884D02*
X55735914Y-55331265D01*
X55735914Y-55331265D02*
X56069247Y-55331265D01*
X56069247Y-55331265D02*
X56259723Y-55378884D01*
X56259723Y-55378884D02*
X56354961Y-55474122D01*
X56354961Y-55474122D02*
X56402580Y-55569360D01*
X55402580Y-56426503D02*
X56402580Y-56426503D01*
X56402580Y-56426503D02*
X55688295Y-56759836D01*
X55688295Y-56759836D02*
X56402580Y-57093169D01*
X56402580Y-57093169D02*
X55402580Y-57093169D01*
X161622419Y-88571115D02*
X160622419Y-88571115D01*
X160622419Y-88571115D02*
X161622419Y-87999687D01*
X161622419Y-87999687D02*
X160622419Y-87999687D01*
X160622419Y-87333020D02*
X160622419Y-87142544D01*
X160622419Y-87142544D02*
X160670038Y-87047306D01*
X160670038Y-87047306D02*
X160765276Y-86952068D01*
X160765276Y-86952068D02*
X160955752Y-86904449D01*
X160955752Y-86904449D02*
X161289085Y-86904449D01*
X161289085Y-86904449D02*
X161479561Y-86952068D01*
X161479561Y-86952068D02*
X161574800Y-87047306D01*
X161574800Y-87047306D02*
X161622419Y-87142544D01*
X161622419Y-87142544D02*
X161622419Y-87333020D01*
X161622419Y-87333020D02*
X161574800Y-87428258D01*
X161574800Y-87428258D02*
X161479561Y-87523496D01*
X161479561Y-87523496D02*
X161289085Y-87571115D01*
X161289085Y-87571115D02*
X160955752Y-87571115D01*
X160955752Y-87571115D02*
X160765276Y-87523496D01*
X160765276Y-87523496D02*
X160670038Y-87428258D01*
X160670038Y-87428258D02*
X160622419Y-87333020D01*
D11*
X103339160Y-116794295D02*
X103339160Y-115994295D01*
X103720112Y-116794295D02*
X103720112Y-115994295D01*
X103720112Y-115994295D02*
X104177255Y-116794295D01*
X104177255Y-116794295D02*
X104177255Y-115994295D01*
X104901064Y-115994295D02*
X104748683Y-115994295D01*
X104748683Y-115994295D02*
X104672492Y-116032390D01*
X104672492Y-116032390D02*
X104634397Y-116070485D01*
X104634397Y-116070485D02*
X104558207Y-116184771D01*
X104558207Y-116184771D02*
X104520111Y-116337152D01*
X104520111Y-116337152D02*
X104520111Y-116641914D01*
X104520111Y-116641914D02*
X104558207Y-116718104D01*
X104558207Y-116718104D02*
X104596302Y-116756200D01*
X104596302Y-116756200D02*
X104672492Y-116794295D01*
X104672492Y-116794295D02*
X104824873Y-116794295D01*
X104824873Y-116794295D02*
X104901064Y-116756200D01*
X104901064Y-116756200D02*
X104939159Y-116718104D01*
X104939159Y-116718104D02*
X104977254Y-116641914D01*
X104977254Y-116641914D02*
X104977254Y-116451438D01*
X104977254Y-116451438D02*
X104939159Y-116375247D01*
X104939159Y-116375247D02*
X104901064Y-116337152D01*
X104901064Y-116337152D02*
X104824873Y-116299057D01*
X104824873Y-116299057D02*
X104672492Y-116299057D01*
X104672492Y-116299057D02*
X104596302Y-116337152D01*
X104596302Y-116337152D02*
X104558207Y-116375247D01*
X104558207Y-116375247D02*
X104520111Y-116451438D01*
D10*
X161647419Y-99071115D02*
X160647419Y-99071115D01*
X160647419Y-99071115D02*
X161647419Y-98499687D01*
X161647419Y-98499687D02*
X160647419Y-98499687D01*
X161552180Y-97452068D02*
X161599800Y-97499687D01*
X161599800Y-97499687D02*
X161647419Y-97642544D01*
X161647419Y-97642544D02*
X161647419Y-97737782D01*
X161647419Y-97737782D02*
X161599800Y-97880639D01*
X161599800Y-97880639D02*
X161504561Y-97975877D01*
X161504561Y-97975877D02*
X161409323Y-98023496D01*
X161409323Y-98023496D02*
X161218847Y-98071115D01*
X161218847Y-98071115D02*
X161075990Y-98071115D01*
X161075990Y-98071115D02*
X160885514Y-98023496D01*
X160885514Y-98023496D02*
X160790276Y-97975877D01*
X160790276Y-97975877D02*
X160695038Y-97880639D01*
X160695038Y-97880639D02*
X160647419Y-97737782D01*
X160647419Y-97737782D02*
X160647419Y-97642544D01*
X160647419Y-97642544D02*
X160695038Y-97499687D01*
X160695038Y-97499687D02*
X160742657Y-97452068D01*
X161747419Y-70746115D02*
X160747419Y-70746115D01*
X160747419Y-70746115D02*
X161747419Y-70174687D01*
X161747419Y-70174687D02*
X160747419Y-70174687D01*
X160747419Y-69508020D02*
X160747419Y-69317544D01*
X160747419Y-69317544D02*
X160795038Y-69222306D01*
X160795038Y-69222306D02*
X160890276Y-69127068D01*
X160890276Y-69127068D02*
X161080752Y-69079449D01*
X161080752Y-69079449D02*
X161414085Y-69079449D01*
X161414085Y-69079449D02*
X161604561Y-69127068D01*
X161604561Y-69127068D02*
X161699800Y-69222306D01*
X161699800Y-69222306D02*
X161747419Y-69317544D01*
X161747419Y-69317544D02*
X161747419Y-69508020D01*
X161747419Y-69508020D02*
X161699800Y-69603258D01*
X161699800Y-69603258D02*
X161604561Y-69698496D01*
X161604561Y-69698496D02*
X161414085Y-69746115D01*
X161414085Y-69746115D02*
X161080752Y-69746115D01*
X161080752Y-69746115D02*
X160890276Y-69698496D01*
X160890276Y-69698496D02*
X160795038Y-69603258D01*
X160795038Y-69603258D02*
X160747419Y-69508020D01*
X55697819Y-109975312D02*
X55650200Y-109927693D01*
X55650200Y-109927693D02*
X55602580Y-109784836D01*
X55602580Y-109784836D02*
X55602580Y-109689598D01*
X55602580Y-109689598D02*
X55650200Y-109546741D01*
X55650200Y-109546741D02*
X55745438Y-109451503D01*
X55745438Y-109451503D02*
X55840676Y-109403884D01*
X55840676Y-109403884D02*
X56031152Y-109356265D01*
X56031152Y-109356265D02*
X56174009Y-109356265D01*
X56174009Y-109356265D02*
X56364485Y-109403884D01*
X56364485Y-109403884D02*
X56459723Y-109451503D01*
X56459723Y-109451503D02*
X56554961Y-109546741D01*
X56554961Y-109546741D02*
X56602580Y-109689598D01*
X56602580Y-109689598D02*
X56602580Y-109784836D01*
X56602580Y-109784836D02*
X56554961Y-109927693D01*
X56554961Y-109927693D02*
X56507342Y-109975312D01*
X56602580Y-110594360D02*
X56602580Y-110784836D01*
X56602580Y-110784836D02*
X56554961Y-110880074D01*
X56554961Y-110880074D02*
X56459723Y-110975312D01*
X56459723Y-110975312D02*
X56269247Y-111022931D01*
X56269247Y-111022931D02*
X55935914Y-111022931D01*
X55935914Y-111022931D02*
X55745438Y-110975312D01*
X55745438Y-110975312D02*
X55650200Y-110880074D01*
X55650200Y-110880074D02*
X55602580Y-110784836D01*
X55602580Y-110784836D02*
X55602580Y-110594360D01*
X55602580Y-110594360D02*
X55650200Y-110499122D01*
X55650200Y-110499122D02*
X55745438Y-110403884D01*
X55745438Y-110403884D02*
X55935914Y-110356265D01*
X55935914Y-110356265D02*
X56269247Y-110356265D01*
X56269247Y-110356265D02*
X56459723Y-110403884D01*
X56459723Y-110403884D02*
X56554961Y-110499122D01*
X56554961Y-110499122D02*
X56602580Y-110594360D01*
X55602580Y-111451503D02*
X56602580Y-111451503D01*
X56602580Y-111451503D02*
X55888295Y-111784836D01*
X55888295Y-111784836D02*
X56602580Y-112118169D01*
X56602580Y-112118169D02*
X55602580Y-112118169D01*
X55672819Y-89750312D02*
X55625200Y-89702693D01*
X55625200Y-89702693D02*
X55577580Y-89559836D01*
X55577580Y-89559836D02*
X55577580Y-89464598D01*
X55577580Y-89464598D02*
X55625200Y-89321741D01*
X55625200Y-89321741D02*
X55720438Y-89226503D01*
X55720438Y-89226503D02*
X55815676Y-89178884D01*
X55815676Y-89178884D02*
X56006152Y-89131265D01*
X56006152Y-89131265D02*
X56149009Y-89131265D01*
X56149009Y-89131265D02*
X56339485Y-89178884D01*
X56339485Y-89178884D02*
X56434723Y-89226503D01*
X56434723Y-89226503D02*
X56529961Y-89321741D01*
X56529961Y-89321741D02*
X56577580Y-89464598D01*
X56577580Y-89464598D02*
X56577580Y-89559836D01*
X56577580Y-89559836D02*
X56529961Y-89702693D01*
X56529961Y-89702693D02*
X56482342Y-89750312D01*
X56577580Y-90369360D02*
X56577580Y-90559836D01*
X56577580Y-90559836D02*
X56529961Y-90655074D01*
X56529961Y-90655074D02*
X56434723Y-90750312D01*
X56434723Y-90750312D02*
X56244247Y-90797931D01*
X56244247Y-90797931D02*
X55910914Y-90797931D01*
X55910914Y-90797931D02*
X55720438Y-90750312D01*
X55720438Y-90750312D02*
X55625200Y-90655074D01*
X55625200Y-90655074D02*
X55577580Y-90559836D01*
X55577580Y-90559836D02*
X55577580Y-90369360D01*
X55577580Y-90369360D02*
X55625200Y-90274122D01*
X55625200Y-90274122D02*
X55720438Y-90178884D01*
X55720438Y-90178884D02*
X55910914Y-90131265D01*
X55910914Y-90131265D02*
X56244247Y-90131265D01*
X56244247Y-90131265D02*
X56434723Y-90178884D01*
X56434723Y-90178884D02*
X56529961Y-90274122D01*
X56529961Y-90274122D02*
X56577580Y-90369360D01*
X55577580Y-91226503D02*
X56577580Y-91226503D01*
X56577580Y-91226503D02*
X55863295Y-91559836D01*
X55863295Y-91559836D02*
X56577580Y-91893169D01*
X56577580Y-91893169D02*
X55577580Y-91893169D01*
X55377580Y-49403884D02*
X56377580Y-49403884D01*
X56377580Y-49403884D02*
X55377580Y-49975312D01*
X55377580Y-49975312D02*
X56377580Y-49975312D01*
X56377580Y-50641979D02*
X56377580Y-50832455D01*
X56377580Y-50832455D02*
X56329961Y-50927693D01*
X56329961Y-50927693D02*
X56234723Y-51022931D01*
X56234723Y-51022931D02*
X56044247Y-51070550D01*
X56044247Y-51070550D02*
X55710914Y-51070550D01*
X55710914Y-51070550D02*
X55520438Y-51022931D01*
X55520438Y-51022931D02*
X55425200Y-50927693D01*
X55425200Y-50927693D02*
X55377580Y-50832455D01*
X55377580Y-50832455D02*
X55377580Y-50641979D01*
X55377580Y-50641979D02*
X55425200Y-50546741D01*
X55425200Y-50546741D02*
X55520438Y-50451503D01*
X55520438Y-50451503D02*
X55710914Y-50403884D01*
X55710914Y-50403884D02*
X56044247Y-50403884D01*
X56044247Y-50403884D02*
X56234723Y-50451503D01*
X56234723Y-50451503D02*
X56329961Y-50546741D01*
X56329961Y-50546741D02*
X56377580Y-50641979D01*
D11*
X108389160Y-116794295D02*
X108389160Y-115994295D01*
X108770112Y-116794295D02*
X108770112Y-115994295D01*
X108770112Y-115994295D02*
X109227255Y-116794295D01*
X109227255Y-116794295D02*
X109227255Y-115994295D01*
X109951064Y-116260961D02*
X109951064Y-116794295D01*
X109760588Y-115956200D02*
X109570111Y-116527628D01*
X109570111Y-116527628D02*
X110065350Y-116527628D01*
D10*
X161697419Y-81346115D02*
X160697419Y-81346115D01*
X160697419Y-81346115D02*
X161697419Y-80774687D01*
X161697419Y-80774687D02*
X160697419Y-80774687D01*
X161602180Y-79727068D02*
X161649800Y-79774687D01*
X161649800Y-79774687D02*
X161697419Y-79917544D01*
X161697419Y-79917544D02*
X161697419Y-80012782D01*
X161697419Y-80012782D02*
X161649800Y-80155639D01*
X161649800Y-80155639D02*
X161554561Y-80250877D01*
X161554561Y-80250877D02*
X161459323Y-80298496D01*
X161459323Y-80298496D02*
X161268847Y-80346115D01*
X161268847Y-80346115D02*
X161125990Y-80346115D01*
X161125990Y-80346115D02*
X160935514Y-80298496D01*
X160935514Y-80298496D02*
X160840276Y-80250877D01*
X160840276Y-80250877D02*
X160745038Y-80155639D01*
X160745038Y-80155639D02*
X160697419Y-80012782D01*
X160697419Y-80012782D02*
X160697419Y-79917544D01*
X160697419Y-79917544D02*
X160745038Y-79774687D01*
X160745038Y-79774687D02*
X160792657Y-79727068D01*
X103253884Y-43191466D02*
X104015789Y-43191466D01*
X103634836Y-43572419D02*
X103634836Y-42810514D01*
X104968169Y-42572419D02*
X104491979Y-42572419D01*
X104491979Y-42572419D02*
X104444360Y-43048609D01*
X104444360Y-43048609D02*
X104491979Y-43000990D01*
X104491979Y-43000990D02*
X104587217Y-42953371D01*
X104587217Y-42953371D02*
X104825312Y-42953371D01*
X104825312Y-42953371D02*
X104920550Y-43000990D01*
X104920550Y-43000990D02*
X104968169Y-43048609D01*
X104968169Y-43048609D02*
X105015788Y-43143847D01*
X105015788Y-43143847D02*
X105015788Y-43381942D01*
X105015788Y-43381942D02*
X104968169Y-43477180D01*
X104968169Y-43477180D02*
X104920550Y-43524800D01*
X104920550Y-43524800D02*
X104825312Y-43572419D01*
X104825312Y-43572419D02*
X104587217Y-43572419D01*
X104587217Y-43572419D02*
X104491979Y-43524800D01*
X104491979Y-43524800D02*
X104444360Y-43477180D01*
X105301503Y-42572419D02*
X105634836Y-43572419D01*
X105634836Y-43572419D02*
X105968169Y-42572419D01*
X161697419Y-105671115D02*
X160697419Y-105671115D01*
X160697419Y-105671115D02*
X161697419Y-105099687D01*
X161697419Y-105099687D02*
X160697419Y-105099687D01*
X160697419Y-104433020D02*
X160697419Y-104242544D01*
X160697419Y-104242544D02*
X160745038Y-104147306D01*
X160745038Y-104147306D02*
X160840276Y-104052068D01*
X160840276Y-104052068D02*
X161030752Y-104004449D01*
X161030752Y-104004449D02*
X161364085Y-104004449D01*
X161364085Y-104004449D02*
X161554561Y-104052068D01*
X161554561Y-104052068D02*
X161649800Y-104147306D01*
X161649800Y-104147306D02*
X161697419Y-104242544D01*
X161697419Y-104242544D02*
X161697419Y-104433020D01*
X161697419Y-104433020D02*
X161649800Y-104528258D01*
X161649800Y-104528258D02*
X161554561Y-104623496D01*
X161554561Y-104623496D02*
X161364085Y-104671115D01*
X161364085Y-104671115D02*
X161030752Y-104671115D01*
X161030752Y-104671115D02*
X160840276Y-104623496D01*
X160840276Y-104623496D02*
X160745038Y-104528258D01*
X160745038Y-104528258D02*
X160697419Y-104433020D01*
X55577580Y-104403884D02*
X56577580Y-104403884D01*
X56577580Y-104403884D02*
X55577580Y-104975312D01*
X55577580Y-104975312D02*
X56577580Y-104975312D01*
X56577580Y-105641979D02*
X56577580Y-105832455D01*
X56577580Y-105832455D02*
X56529961Y-105927693D01*
X56529961Y-105927693D02*
X56434723Y-106022931D01*
X56434723Y-106022931D02*
X56244247Y-106070550D01*
X56244247Y-106070550D02*
X55910914Y-106070550D01*
X55910914Y-106070550D02*
X55720438Y-106022931D01*
X55720438Y-106022931D02*
X55625200Y-105927693D01*
X55625200Y-105927693D02*
X55577580Y-105832455D01*
X55577580Y-105832455D02*
X55577580Y-105641979D01*
X55577580Y-105641979D02*
X55625200Y-105546741D01*
X55625200Y-105546741D02*
X55720438Y-105451503D01*
X55720438Y-105451503D02*
X55910914Y-105403884D01*
X55910914Y-105403884D02*
X56244247Y-105403884D01*
X56244247Y-105403884D02*
X56434723Y-105451503D01*
X56434723Y-105451503D02*
X56529961Y-105546741D01*
X56529961Y-105546741D02*
X56577580Y-105641979D01*
X161672419Y-52771115D02*
X160672419Y-52771115D01*
X160672419Y-52771115D02*
X161672419Y-52199687D01*
X161672419Y-52199687D02*
X160672419Y-52199687D01*
X160672419Y-51533020D02*
X160672419Y-51342544D01*
X160672419Y-51342544D02*
X160720038Y-51247306D01*
X160720038Y-51247306D02*
X160815276Y-51152068D01*
X160815276Y-51152068D02*
X161005752Y-51104449D01*
X161005752Y-51104449D02*
X161339085Y-51104449D01*
X161339085Y-51104449D02*
X161529561Y-51152068D01*
X161529561Y-51152068D02*
X161624800Y-51247306D01*
X161624800Y-51247306D02*
X161672419Y-51342544D01*
X161672419Y-51342544D02*
X161672419Y-51533020D01*
X161672419Y-51533020D02*
X161624800Y-51628258D01*
X161624800Y-51628258D02*
X161529561Y-51723496D01*
X161529561Y-51723496D02*
X161339085Y-51771115D01*
X161339085Y-51771115D02*
X161005752Y-51771115D01*
X161005752Y-51771115D02*
X160815276Y-51723496D01*
X160815276Y-51723496D02*
X160720038Y-51628258D01*
X160720038Y-51628258D02*
X160672419Y-51533020D01*
X55472819Y-73050312D02*
X55425200Y-73002693D01*
X55425200Y-73002693D02*
X55377580Y-72859836D01*
X55377580Y-72859836D02*
X55377580Y-72764598D01*
X55377580Y-72764598D02*
X55425200Y-72621741D01*
X55425200Y-72621741D02*
X55520438Y-72526503D01*
X55520438Y-72526503D02*
X55615676Y-72478884D01*
X55615676Y-72478884D02*
X55806152Y-72431265D01*
X55806152Y-72431265D02*
X55949009Y-72431265D01*
X55949009Y-72431265D02*
X56139485Y-72478884D01*
X56139485Y-72478884D02*
X56234723Y-72526503D01*
X56234723Y-72526503D02*
X56329961Y-72621741D01*
X56329961Y-72621741D02*
X56377580Y-72764598D01*
X56377580Y-72764598D02*
X56377580Y-72859836D01*
X56377580Y-72859836D02*
X56329961Y-73002693D01*
X56329961Y-73002693D02*
X56282342Y-73050312D01*
X56377580Y-73669360D02*
X56377580Y-73859836D01*
X56377580Y-73859836D02*
X56329961Y-73955074D01*
X56329961Y-73955074D02*
X56234723Y-74050312D01*
X56234723Y-74050312D02*
X56044247Y-74097931D01*
X56044247Y-74097931D02*
X55710914Y-74097931D01*
X55710914Y-74097931D02*
X55520438Y-74050312D01*
X55520438Y-74050312D02*
X55425200Y-73955074D01*
X55425200Y-73955074D02*
X55377580Y-73859836D01*
X55377580Y-73859836D02*
X55377580Y-73669360D01*
X55377580Y-73669360D02*
X55425200Y-73574122D01*
X55425200Y-73574122D02*
X55520438Y-73478884D01*
X55520438Y-73478884D02*
X55710914Y-73431265D01*
X55710914Y-73431265D02*
X56044247Y-73431265D01*
X56044247Y-73431265D02*
X56234723Y-73478884D01*
X56234723Y-73478884D02*
X56329961Y-73574122D01*
X56329961Y-73574122D02*
X56377580Y-73669360D01*
X55377580Y-74526503D02*
X56377580Y-74526503D01*
X56377580Y-74526503D02*
X55663295Y-74859836D01*
X55663295Y-74859836D02*
X56377580Y-75193169D01*
X56377580Y-75193169D02*
X55377580Y-75193169D01*
X161772419Y-63446115D02*
X160772419Y-63446115D01*
X160772419Y-63446115D02*
X161772419Y-62874687D01*
X161772419Y-62874687D02*
X160772419Y-62874687D01*
X161677180Y-61827068D02*
X161724800Y-61874687D01*
X161724800Y-61874687D02*
X161772419Y-62017544D01*
X161772419Y-62017544D02*
X161772419Y-62112782D01*
X161772419Y-62112782D02*
X161724800Y-62255639D01*
X161724800Y-62255639D02*
X161629561Y-62350877D01*
X161629561Y-62350877D02*
X161534323Y-62398496D01*
X161534323Y-62398496D02*
X161343847Y-62446115D01*
X161343847Y-62446115D02*
X161200990Y-62446115D01*
X161200990Y-62446115D02*
X161010514Y-62398496D01*
X161010514Y-62398496D02*
X160915276Y-62350877D01*
X160915276Y-62350877D02*
X160820038Y-62255639D01*
X160820038Y-62255639D02*
X160772419Y-62112782D01*
X160772419Y-62112782D02*
X160772419Y-62017544D01*
X160772419Y-62017544D02*
X160820038Y-61874687D01*
X160820038Y-61874687D02*
X160867657Y-61827068D01*
X55327580Y-67728884D02*
X56327580Y-67728884D01*
X56327580Y-67728884D02*
X55327580Y-68300312D01*
X55327580Y-68300312D02*
X56327580Y-68300312D01*
X56327580Y-68966979D02*
X56327580Y-69157455D01*
X56327580Y-69157455D02*
X56279961Y-69252693D01*
X56279961Y-69252693D02*
X56184723Y-69347931D01*
X56184723Y-69347931D02*
X55994247Y-69395550D01*
X55994247Y-69395550D02*
X55660914Y-69395550D01*
X55660914Y-69395550D02*
X55470438Y-69347931D01*
X55470438Y-69347931D02*
X55375200Y-69252693D01*
X55375200Y-69252693D02*
X55327580Y-69157455D01*
X55327580Y-69157455D02*
X55327580Y-68966979D01*
X55327580Y-68966979D02*
X55375200Y-68871741D01*
X55375200Y-68871741D02*
X55470438Y-68776503D01*
X55470438Y-68776503D02*
X55660914Y-68728884D01*
X55660914Y-68728884D02*
X55994247Y-68728884D01*
X55994247Y-68728884D02*
X56184723Y-68776503D01*
X56184723Y-68776503D02*
X56279961Y-68871741D01*
X56279961Y-68871741D02*
X56327580Y-68966979D01*
D11*
X116289160Y-116794295D02*
X116289160Y-115994295D01*
X116670112Y-116794295D02*
X116670112Y-115994295D01*
X116670112Y-115994295D02*
X117127255Y-116794295D01*
X117127255Y-116794295D02*
X117127255Y-115994295D01*
X117927254Y-116794295D02*
X117470111Y-116794295D01*
X117698683Y-116794295D02*
X117698683Y-115994295D01*
X117698683Y-115994295D02*
X117622492Y-116108580D01*
X117622492Y-116108580D02*
X117546302Y-116184771D01*
X117546302Y-116184771D02*
X117470111Y-116222866D01*
D10*
X55652580Y-84928884D02*
X56652580Y-84928884D01*
X56652580Y-84928884D02*
X55652580Y-85500312D01*
X55652580Y-85500312D02*
X56652580Y-85500312D01*
X56652580Y-86166979D02*
X56652580Y-86357455D01*
X56652580Y-86357455D02*
X56604961Y-86452693D01*
X56604961Y-86452693D02*
X56509723Y-86547931D01*
X56509723Y-86547931D02*
X56319247Y-86595550D01*
X56319247Y-86595550D02*
X55985914Y-86595550D01*
X55985914Y-86595550D02*
X55795438Y-86547931D01*
X55795438Y-86547931D02*
X55700200Y-86452693D01*
X55700200Y-86452693D02*
X55652580Y-86357455D01*
X55652580Y-86357455D02*
X55652580Y-86166979D01*
X55652580Y-86166979D02*
X55700200Y-86071741D01*
X55700200Y-86071741D02*
X55795438Y-85976503D01*
X55795438Y-85976503D02*
X55985914Y-85928884D01*
X55985914Y-85928884D02*
X56319247Y-85928884D01*
X56319247Y-85928884D02*
X56509723Y-85976503D01*
X56509723Y-85976503D02*
X56604961Y-86071741D01*
X56604961Y-86071741D02*
X56652580Y-86166979D01*
D11*
X105939160Y-116794295D02*
X105939160Y-115994295D01*
X106320112Y-116794295D02*
X106320112Y-115994295D01*
X106320112Y-115994295D02*
X106777255Y-116794295D01*
X106777255Y-116794295D02*
X106777255Y-115994295D01*
X107539159Y-115994295D02*
X107158207Y-115994295D01*
X107158207Y-115994295D02*
X107120111Y-116375247D01*
X107120111Y-116375247D02*
X107158207Y-116337152D01*
X107158207Y-116337152D02*
X107234397Y-116299057D01*
X107234397Y-116299057D02*
X107424873Y-116299057D01*
X107424873Y-116299057D02*
X107501064Y-116337152D01*
X107501064Y-116337152D02*
X107539159Y-116375247D01*
X107539159Y-116375247D02*
X107577254Y-116451438D01*
X107577254Y-116451438D02*
X107577254Y-116641914D01*
X107577254Y-116641914D02*
X107539159Y-116718104D01*
X107539159Y-116718104D02*
X107501064Y-116756200D01*
X107501064Y-116756200D02*
X107424873Y-116794295D01*
X107424873Y-116794295D02*
X107234397Y-116794295D01*
X107234397Y-116794295D02*
X107158207Y-116756200D01*
X107158207Y-116756200D02*
X107120111Y-116718104D01*
D10*
X55352580Y-59228884D02*
X56352580Y-59228884D01*
X56352580Y-59228884D02*
X55352580Y-59800312D01*
X55352580Y-59800312D02*
X56352580Y-59800312D01*
X55447819Y-60847931D02*
X55400200Y-60800312D01*
X55400200Y-60800312D02*
X55352580Y-60657455D01*
X55352580Y-60657455D02*
X55352580Y-60562217D01*
X55352580Y-60562217D02*
X55400200Y-60419360D01*
X55400200Y-60419360D02*
X55495438Y-60324122D01*
X55495438Y-60324122D02*
X55590676Y-60276503D01*
X55590676Y-60276503D02*
X55781152Y-60228884D01*
X55781152Y-60228884D02*
X55924009Y-60228884D01*
X55924009Y-60228884D02*
X56114485Y-60276503D01*
X56114485Y-60276503D02*
X56209723Y-60324122D01*
X56209723Y-60324122D02*
X56304961Y-60419360D01*
X56304961Y-60419360D02*
X56352580Y-60562217D01*
X56352580Y-60562217D02*
X56352580Y-60657455D01*
X56352580Y-60657455D02*
X56304961Y-60800312D01*
X56304961Y-60800312D02*
X56257342Y-60847931D01*
D11*
X111039160Y-116794295D02*
X111039160Y-115994295D01*
X111420112Y-116794295D02*
X111420112Y-115994295D01*
X111420112Y-115994295D02*
X111877255Y-116794295D01*
X111877255Y-116794295D02*
X111877255Y-115994295D01*
X112182016Y-115994295D02*
X112677254Y-115994295D01*
X112677254Y-115994295D02*
X112410588Y-116299057D01*
X112410588Y-116299057D02*
X112524873Y-116299057D01*
X112524873Y-116299057D02*
X112601064Y-116337152D01*
X112601064Y-116337152D02*
X112639159Y-116375247D01*
X112639159Y-116375247D02*
X112677254Y-116451438D01*
X112677254Y-116451438D02*
X112677254Y-116641914D01*
X112677254Y-116641914D02*
X112639159Y-116718104D01*
X112639159Y-116718104D02*
X112601064Y-116756200D01*
X112601064Y-116756200D02*
X112524873Y-116794295D01*
X112524873Y-116794295D02*
X112296302Y-116794295D01*
X112296302Y-116794295D02*
X112220111Y-116756200D01*
X112220111Y-116756200D02*
X112182016Y-116718104D01*
D10*
X161577180Y-110949687D02*
X161624800Y-110997306D01*
X161624800Y-110997306D02*
X161672419Y-111140163D01*
X161672419Y-111140163D02*
X161672419Y-111235401D01*
X161672419Y-111235401D02*
X161624800Y-111378258D01*
X161624800Y-111378258D02*
X161529561Y-111473496D01*
X161529561Y-111473496D02*
X161434323Y-111521115D01*
X161434323Y-111521115D02*
X161243847Y-111568734D01*
X161243847Y-111568734D02*
X161100990Y-111568734D01*
X161100990Y-111568734D02*
X160910514Y-111521115D01*
X160910514Y-111521115D02*
X160815276Y-111473496D01*
X160815276Y-111473496D02*
X160720038Y-111378258D01*
X160720038Y-111378258D02*
X160672419Y-111235401D01*
X160672419Y-111235401D02*
X160672419Y-111140163D01*
X160672419Y-111140163D02*
X160720038Y-110997306D01*
X160720038Y-110997306D02*
X160767657Y-110949687D01*
X160672419Y-110330639D02*
X160672419Y-110140163D01*
X160672419Y-110140163D02*
X160720038Y-110044925D01*
X160720038Y-110044925D02*
X160815276Y-109949687D01*
X160815276Y-109949687D02*
X161005752Y-109902068D01*
X161005752Y-109902068D02*
X161339085Y-109902068D01*
X161339085Y-109902068D02*
X161529561Y-109949687D01*
X161529561Y-109949687D02*
X161624800Y-110044925D01*
X161624800Y-110044925D02*
X161672419Y-110140163D01*
X161672419Y-110140163D02*
X161672419Y-110330639D01*
X161672419Y-110330639D02*
X161624800Y-110425877D01*
X161624800Y-110425877D02*
X161529561Y-110521115D01*
X161529561Y-110521115D02*
X161339085Y-110568734D01*
X161339085Y-110568734D02*
X161005752Y-110568734D01*
X161005752Y-110568734D02*
X160815276Y-110521115D01*
X160815276Y-110521115D02*
X160720038Y-110425877D01*
X160720038Y-110425877D02*
X160672419Y-110330639D01*
X161672419Y-109473496D02*
X160672419Y-109473496D01*
X160672419Y-109473496D02*
X161386704Y-109140163D01*
X161386704Y-109140163D02*
X160672419Y-108806830D01*
X160672419Y-108806830D02*
X161672419Y-108806830D01*
D11*
X113396142Y-105249819D02*
X113062809Y-104773628D01*
X112824714Y-105249819D02*
X112824714Y-104249819D01*
X112824714Y-104249819D02*
X113205666Y-104249819D01*
X113205666Y-104249819D02*
X113300904Y-104297438D01*
X113300904Y-104297438D02*
X113348523Y-104345057D01*
X113348523Y-104345057D02*
X113396142Y-104440295D01*
X113396142Y-104440295D02*
X113396142Y-104583152D01*
X113396142Y-104583152D02*
X113348523Y-104678390D01*
X113348523Y-104678390D02*
X113300904Y-104726009D01*
X113300904Y-104726009D02*
X113205666Y-104773628D01*
X113205666Y-104773628D02*
X112824714Y-104773628D01*
X114348523Y-105249819D02*
X113777095Y-105249819D01*
X114062809Y-105249819D02*
X114062809Y-104249819D01*
X114062809Y-104249819D02*
X113967571Y-104392676D01*
X113967571Y-104392676D02*
X113872333Y-104487914D01*
X113872333Y-104487914D02*
X113777095Y-104535533D01*
X115300904Y-105249819D02*
X114729476Y-105249819D01*
X115015190Y-105249819D02*
X115015190Y-104249819D01*
X115015190Y-104249819D02*
X114919952Y-104392676D01*
X114919952Y-104392676D02*
X114824714Y-104487914D01*
X114824714Y-104487914D02*
X114729476Y-104535533D01*
X63204819Y-122961904D02*
X62204819Y-122961904D01*
X62681009Y-122961904D02*
X62681009Y-122390476D01*
X63204819Y-122390476D02*
X62204819Y-122390476D01*
X63204819Y-121390476D02*
X63204819Y-121961904D01*
X63204819Y-121676190D02*
X62204819Y-121676190D01*
X62204819Y-121676190D02*
X62347676Y-121771428D01*
X62347676Y-121771428D02*
X62442914Y-121866666D01*
X62442914Y-121866666D02*
X62490533Y-121961904D01*
X120034833Y-105149819D02*
X119701500Y-104673628D01*
X119463405Y-105149819D02*
X119463405Y-104149819D01*
X119463405Y-104149819D02*
X119844357Y-104149819D01*
X119844357Y-104149819D02*
X119939595Y-104197438D01*
X119939595Y-104197438D02*
X119987214Y-104245057D01*
X119987214Y-104245057D02*
X120034833Y-104340295D01*
X120034833Y-104340295D02*
X120034833Y-104483152D01*
X120034833Y-104483152D02*
X119987214Y-104578390D01*
X119987214Y-104578390D02*
X119939595Y-104626009D01*
X119939595Y-104626009D02*
X119844357Y-104673628D01*
X119844357Y-104673628D02*
X119463405Y-104673628D01*
X120368167Y-104149819D02*
X120987214Y-104149819D01*
X120987214Y-104149819D02*
X120653881Y-104530771D01*
X120653881Y-104530771D02*
X120796738Y-104530771D01*
X120796738Y-104530771D02*
X120891976Y-104578390D01*
X120891976Y-104578390D02*
X120939595Y-104626009D01*
X120939595Y-104626009D02*
X120987214Y-104721247D01*
X120987214Y-104721247D02*
X120987214Y-104959342D01*
X120987214Y-104959342D02*
X120939595Y-105054580D01*
X120939595Y-105054580D02*
X120891976Y-105102200D01*
X120891976Y-105102200D02*
X120796738Y-105149819D01*
X120796738Y-105149819D02*
X120511024Y-105149819D01*
X120511024Y-105149819D02*
X120415786Y-105102200D01*
X120415786Y-105102200D02*
X120368167Y-105054580D01*
X96629819Y-60441666D02*
X96153628Y-60774999D01*
X96629819Y-61013094D02*
X95629819Y-61013094D01*
X95629819Y-61013094D02*
X95629819Y-60632142D01*
X95629819Y-60632142D02*
X95677438Y-60536904D01*
X95677438Y-60536904D02*
X95725057Y-60489285D01*
X95725057Y-60489285D02*
X95820295Y-60441666D01*
X95820295Y-60441666D02*
X95963152Y-60441666D01*
X95963152Y-60441666D02*
X96058390Y-60489285D01*
X96058390Y-60489285D02*
X96106009Y-60536904D01*
X96106009Y-60536904D02*
X96153628Y-60632142D01*
X96153628Y-60632142D02*
X96153628Y-61013094D01*
X96629819Y-59489285D02*
X96629819Y-60060713D01*
X96629819Y-59774999D02*
X95629819Y-59774999D01*
X95629819Y-59774999D02*
X95772676Y-59870237D01*
X95772676Y-59870237D02*
X95867914Y-59965475D01*
X95867914Y-59965475D02*
X95915533Y-60060713D01*
X123054819Y-78214285D02*
X122054819Y-78214285D01*
X122054819Y-78214285D02*
X122054819Y-77976190D01*
X122054819Y-77976190D02*
X122102438Y-77833333D01*
X122102438Y-77833333D02*
X122197676Y-77738095D01*
X122197676Y-77738095D02*
X122292914Y-77690476D01*
X122292914Y-77690476D02*
X122483390Y-77642857D01*
X122483390Y-77642857D02*
X122626247Y-77642857D01*
X122626247Y-77642857D02*
X122816723Y-77690476D01*
X122816723Y-77690476D02*
X122911961Y-77738095D01*
X122911961Y-77738095D02*
X123007200Y-77833333D01*
X123007200Y-77833333D02*
X123054819Y-77976190D01*
X123054819Y-77976190D02*
X123054819Y-78214285D01*
X123054819Y-76690476D02*
X123054819Y-77261904D01*
X123054819Y-76976190D02*
X122054819Y-76976190D01*
X122054819Y-76976190D02*
X122197676Y-77071428D01*
X122197676Y-77071428D02*
X122292914Y-77166666D01*
X122292914Y-77166666D02*
X122340533Y-77261904D01*
X122150057Y-76309523D02*
X122102438Y-76261904D01*
X122102438Y-76261904D02*
X122054819Y-76166666D01*
X122054819Y-76166666D02*
X122054819Y-75928571D01*
X122054819Y-75928571D02*
X122102438Y-75833333D01*
X122102438Y-75833333D02*
X122150057Y-75785714D01*
X122150057Y-75785714D02*
X122245295Y-75738095D01*
X122245295Y-75738095D02*
X122340533Y-75738095D01*
X122340533Y-75738095D02*
X122483390Y-75785714D01*
X122483390Y-75785714D02*
X123054819Y-76357142D01*
X123054819Y-76357142D02*
X123054819Y-75738095D01*
X94704819Y-71638094D02*
X93704819Y-71638094D01*
X93704819Y-71638094D02*
X93704819Y-71399999D01*
X93704819Y-71399999D02*
X93752438Y-71257142D01*
X93752438Y-71257142D02*
X93847676Y-71161904D01*
X93847676Y-71161904D02*
X93942914Y-71114285D01*
X93942914Y-71114285D02*
X94133390Y-71066666D01*
X94133390Y-71066666D02*
X94276247Y-71066666D01*
X94276247Y-71066666D02*
X94466723Y-71114285D01*
X94466723Y-71114285D02*
X94561961Y-71161904D01*
X94561961Y-71161904D02*
X94657200Y-71257142D01*
X94657200Y-71257142D02*
X94704819Y-71399999D01*
X94704819Y-71399999D02*
X94704819Y-71638094D01*
X94038152Y-70209523D02*
X94704819Y-70209523D01*
X93657200Y-70447618D02*
X94371485Y-70685713D01*
X94371485Y-70685713D02*
X94371485Y-70066666D01*
X80229819Y-110763094D02*
X79229819Y-110763094D01*
X80229819Y-110191666D02*
X79658390Y-110620237D01*
X79229819Y-110191666D02*
X79801247Y-110763094D01*
X79563152Y-109334523D02*
X80229819Y-109334523D01*
X79182200Y-109572618D02*
X79896485Y-109810713D01*
X79896485Y-109810713D02*
X79896485Y-109191666D01*
X122754819Y-107964285D02*
X121754819Y-107964285D01*
X121754819Y-107964285D02*
X121754819Y-107726190D01*
X121754819Y-107726190D02*
X121802438Y-107583333D01*
X121802438Y-107583333D02*
X121897676Y-107488095D01*
X121897676Y-107488095D02*
X121992914Y-107440476D01*
X121992914Y-107440476D02*
X122183390Y-107392857D01*
X122183390Y-107392857D02*
X122326247Y-107392857D01*
X122326247Y-107392857D02*
X122516723Y-107440476D01*
X122516723Y-107440476D02*
X122611961Y-107488095D01*
X122611961Y-107488095D02*
X122707200Y-107583333D01*
X122707200Y-107583333D02*
X122754819Y-107726190D01*
X122754819Y-107726190D02*
X122754819Y-107964285D01*
X122754819Y-106440476D02*
X122754819Y-107011904D01*
X122754819Y-106726190D02*
X121754819Y-106726190D01*
X121754819Y-106726190D02*
X121897676Y-106821428D01*
X121897676Y-106821428D02*
X121992914Y-106916666D01*
X121992914Y-106916666D02*
X122040533Y-107011904D01*
X122088152Y-105583333D02*
X122754819Y-105583333D01*
X121707200Y-105821428D02*
X122421485Y-106059523D01*
X122421485Y-106059523D02*
X122421485Y-105440476D01*
X94704819Y-67842857D02*
X94228628Y-68176190D01*
X94704819Y-68414285D02*
X93704819Y-68414285D01*
X93704819Y-68414285D02*
X93704819Y-68033333D01*
X93704819Y-68033333D02*
X93752438Y-67938095D01*
X93752438Y-67938095D02*
X93800057Y-67890476D01*
X93800057Y-67890476D02*
X93895295Y-67842857D01*
X93895295Y-67842857D02*
X94038152Y-67842857D01*
X94038152Y-67842857D02*
X94133390Y-67890476D01*
X94133390Y-67890476D02*
X94181009Y-67938095D01*
X94181009Y-67938095D02*
X94228628Y-68033333D01*
X94228628Y-68033333D02*
X94228628Y-68414285D01*
X94704819Y-66890476D02*
X94704819Y-67461904D01*
X94704819Y-67176190D02*
X93704819Y-67176190D01*
X93704819Y-67176190D02*
X93847676Y-67271428D01*
X93847676Y-67271428D02*
X93942914Y-67366666D01*
X93942914Y-67366666D02*
X93990533Y-67461904D01*
X94704819Y-66414285D02*
X94704819Y-66223809D01*
X94704819Y-66223809D02*
X94657200Y-66128571D01*
X94657200Y-66128571D02*
X94609580Y-66080952D01*
X94609580Y-66080952D02*
X94466723Y-65985714D01*
X94466723Y-65985714D02*
X94276247Y-65938095D01*
X94276247Y-65938095D02*
X93895295Y-65938095D01*
X93895295Y-65938095D02*
X93800057Y-65985714D01*
X93800057Y-65985714D02*
X93752438Y-66033333D01*
X93752438Y-66033333D02*
X93704819Y-66128571D01*
X93704819Y-66128571D02*
X93704819Y-66319047D01*
X93704819Y-66319047D02*
X93752438Y-66414285D01*
X93752438Y-66414285D02*
X93800057Y-66461904D01*
X93800057Y-66461904D02*
X93895295Y-66509523D01*
X93895295Y-66509523D02*
X94133390Y-66509523D01*
X94133390Y-66509523D02*
X94228628Y-66461904D01*
X94228628Y-66461904D02*
X94276247Y-66414285D01*
X94276247Y-66414285D02*
X94323866Y-66319047D01*
X94323866Y-66319047D02*
X94323866Y-66128571D01*
X94323866Y-66128571D02*
X94276247Y-66033333D01*
X94276247Y-66033333D02*
X94228628Y-65985714D01*
X94228628Y-65985714D02*
X94133390Y-65938095D01*
X113396142Y-92249819D02*
X113062809Y-91773628D01*
X112824714Y-92249819D02*
X112824714Y-91249819D01*
X112824714Y-91249819D02*
X113205666Y-91249819D01*
X113205666Y-91249819D02*
X113300904Y-91297438D01*
X113300904Y-91297438D02*
X113348523Y-91345057D01*
X113348523Y-91345057D02*
X113396142Y-91440295D01*
X113396142Y-91440295D02*
X113396142Y-91583152D01*
X113396142Y-91583152D02*
X113348523Y-91678390D01*
X113348523Y-91678390D02*
X113300904Y-91726009D01*
X113300904Y-91726009D02*
X113205666Y-91773628D01*
X113205666Y-91773628D02*
X112824714Y-91773628D01*
X114348523Y-92249819D02*
X113777095Y-92249819D01*
X114062809Y-92249819D02*
X114062809Y-91249819D01*
X114062809Y-91249819D02*
X113967571Y-91392676D01*
X113967571Y-91392676D02*
X113872333Y-91487914D01*
X113872333Y-91487914D02*
X113777095Y-91535533D01*
X115205666Y-91249819D02*
X115015190Y-91249819D01*
X115015190Y-91249819D02*
X114919952Y-91297438D01*
X114919952Y-91297438D02*
X114872333Y-91345057D01*
X114872333Y-91345057D02*
X114777095Y-91487914D01*
X114777095Y-91487914D02*
X114729476Y-91678390D01*
X114729476Y-91678390D02*
X114729476Y-92059342D01*
X114729476Y-92059342D02*
X114777095Y-92154580D01*
X114777095Y-92154580D02*
X114824714Y-92202200D01*
X114824714Y-92202200D02*
X114919952Y-92249819D01*
X114919952Y-92249819D02*
X115110428Y-92249819D01*
X115110428Y-92249819D02*
X115205666Y-92202200D01*
X115205666Y-92202200D02*
X115253285Y-92154580D01*
X115253285Y-92154580D02*
X115300904Y-92059342D01*
X115300904Y-92059342D02*
X115300904Y-91821247D01*
X115300904Y-91821247D02*
X115253285Y-91726009D01*
X115253285Y-91726009D02*
X115205666Y-91678390D01*
X115205666Y-91678390D02*
X115110428Y-91630771D01*
X115110428Y-91630771D02*
X114919952Y-91630771D01*
X114919952Y-91630771D02*
X114824714Y-91678390D01*
X114824714Y-91678390D02*
X114777095Y-91726009D01*
X114777095Y-91726009D02*
X114729476Y-91821247D01*
X113396142Y-102574819D02*
X113062809Y-102098628D01*
X112824714Y-102574819D02*
X112824714Y-101574819D01*
X112824714Y-101574819D02*
X113205666Y-101574819D01*
X113205666Y-101574819D02*
X113300904Y-101622438D01*
X113300904Y-101622438D02*
X113348523Y-101670057D01*
X113348523Y-101670057D02*
X113396142Y-101765295D01*
X113396142Y-101765295D02*
X113396142Y-101908152D01*
X113396142Y-101908152D02*
X113348523Y-102003390D01*
X113348523Y-102003390D02*
X113300904Y-102051009D01*
X113300904Y-102051009D02*
X113205666Y-102098628D01*
X113205666Y-102098628D02*
X112824714Y-102098628D01*
X114348523Y-102574819D02*
X113777095Y-102574819D01*
X114062809Y-102574819D02*
X114062809Y-101574819D01*
X114062809Y-101574819D02*
X113967571Y-101717676D01*
X113967571Y-101717676D02*
X113872333Y-101812914D01*
X113872333Y-101812914D02*
X113777095Y-101860533D01*
X114729476Y-101670057D02*
X114777095Y-101622438D01*
X114777095Y-101622438D02*
X114872333Y-101574819D01*
X114872333Y-101574819D02*
X115110428Y-101574819D01*
X115110428Y-101574819D02*
X115205666Y-101622438D01*
X115205666Y-101622438D02*
X115253285Y-101670057D01*
X115253285Y-101670057D02*
X115300904Y-101765295D01*
X115300904Y-101765295D02*
X115300904Y-101860533D01*
X115300904Y-101860533D02*
X115253285Y-102003390D01*
X115253285Y-102003390D02*
X114681857Y-102574819D01*
X114681857Y-102574819D02*
X115300904Y-102574819D01*
X113371142Y-100024819D02*
X113037809Y-99548628D01*
X112799714Y-100024819D02*
X112799714Y-99024819D01*
X112799714Y-99024819D02*
X113180666Y-99024819D01*
X113180666Y-99024819D02*
X113275904Y-99072438D01*
X113275904Y-99072438D02*
X113323523Y-99120057D01*
X113323523Y-99120057D02*
X113371142Y-99215295D01*
X113371142Y-99215295D02*
X113371142Y-99358152D01*
X113371142Y-99358152D02*
X113323523Y-99453390D01*
X113323523Y-99453390D02*
X113275904Y-99501009D01*
X113275904Y-99501009D02*
X113180666Y-99548628D01*
X113180666Y-99548628D02*
X112799714Y-99548628D01*
X114323523Y-100024819D02*
X113752095Y-100024819D01*
X114037809Y-100024819D02*
X114037809Y-99024819D01*
X114037809Y-99024819D02*
X113942571Y-99167676D01*
X113942571Y-99167676D02*
X113847333Y-99262914D01*
X113847333Y-99262914D02*
X113752095Y-99310533D01*
X114656857Y-99024819D02*
X115275904Y-99024819D01*
X115275904Y-99024819D02*
X114942571Y-99405771D01*
X114942571Y-99405771D02*
X115085428Y-99405771D01*
X115085428Y-99405771D02*
X115180666Y-99453390D01*
X115180666Y-99453390D02*
X115228285Y-99501009D01*
X115228285Y-99501009D02*
X115275904Y-99596247D01*
X115275904Y-99596247D02*
X115275904Y-99834342D01*
X115275904Y-99834342D02*
X115228285Y-99929580D01*
X115228285Y-99929580D02*
X115180666Y-99977200D01*
X115180666Y-99977200D02*
X115085428Y-100024819D01*
X115085428Y-100024819D02*
X114799714Y-100024819D01*
X114799714Y-100024819D02*
X114704476Y-99977200D01*
X114704476Y-99977200D02*
X114656857Y-99929580D01*
X94704819Y-75488094D02*
X93704819Y-75488094D01*
X93704819Y-75488094D02*
X93704819Y-75249999D01*
X93704819Y-75249999D02*
X93752438Y-75107142D01*
X93752438Y-75107142D02*
X93847676Y-75011904D01*
X93847676Y-75011904D02*
X93942914Y-74964285D01*
X93942914Y-74964285D02*
X94133390Y-74916666D01*
X94133390Y-74916666D02*
X94276247Y-74916666D01*
X94276247Y-74916666D02*
X94466723Y-74964285D01*
X94466723Y-74964285D02*
X94561961Y-75011904D01*
X94561961Y-75011904D02*
X94657200Y-75107142D01*
X94657200Y-75107142D02*
X94704819Y-75249999D01*
X94704819Y-75249999D02*
X94704819Y-75488094D01*
X93704819Y-74011904D02*
X93704819Y-74488094D01*
X93704819Y-74488094D02*
X94181009Y-74535713D01*
X94181009Y-74535713D02*
X94133390Y-74488094D01*
X94133390Y-74488094D02*
X94085771Y-74392856D01*
X94085771Y-74392856D02*
X94085771Y-74154761D01*
X94085771Y-74154761D02*
X94133390Y-74059523D01*
X94133390Y-74059523D02*
X94181009Y-74011904D01*
X94181009Y-74011904D02*
X94276247Y-73964285D01*
X94276247Y-73964285D02*
X94514342Y-73964285D01*
X94514342Y-73964285D02*
X94609580Y-74011904D01*
X94609580Y-74011904D02*
X94657200Y-74059523D01*
X94657200Y-74059523D02*
X94704819Y-74154761D01*
X94704819Y-74154761D02*
X94704819Y-74392856D01*
X94704819Y-74392856D02*
X94657200Y-74488094D01*
X94657200Y-74488094D02*
X94609580Y-74535713D01*
X153104819Y-123011904D02*
X152104819Y-123011904D01*
X152581009Y-123011904D02*
X152581009Y-122440476D01*
X153104819Y-122440476D02*
X152104819Y-122440476D01*
X152438152Y-121535714D02*
X153104819Y-121535714D01*
X152057200Y-121773809D02*
X152771485Y-122011904D01*
X152771485Y-122011904D02*
X152771485Y-121392857D01*
X94854819Y-54938094D02*
X93854819Y-54938094D01*
X93854819Y-54938094D02*
X93854819Y-54699999D01*
X93854819Y-54699999D02*
X93902438Y-54557142D01*
X93902438Y-54557142D02*
X93997676Y-54461904D01*
X93997676Y-54461904D02*
X94092914Y-54414285D01*
X94092914Y-54414285D02*
X94283390Y-54366666D01*
X94283390Y-54366666D02*
X94426247Y-54366666D01*
X94426247Y-54366666D02*
X94616723Y-54414285D01*
X94616723Y-54414285D02*
X94711961Y-54461904D01*
X94711961Y-54461904D02*
X94807200Y-54557142D01*
X94807200Y-54557142D02*
X94854819Y-54699999D01*
X94854819Y-54699999D02*
X94854819Y-54938094D01*
X93854819Y-54033332D02*
X93854819Y-53414285D01*
X93854819Y-53414285D02*
X94235771Y-53747618D01*
X94235771Y-53747618D02*
X94235771Y-53604761D01*
X94235771Y-53604761D02*
X94283390Y-53509523D01*
X94283390Y-53509523D02*
X94331009Y-53461904D01*
X94331009Y-53461904D02*
X94426247Y-53414285D01*
X94426247Y-53414285D02*
X94664342Y-53414285D01*
X94664342Y-53414285D02*
X94759580Y-53461904D01*
X94759580Y-53461904D02*
X94807200Y-53509523D01*
X94807200Y-53509523D02*
X94854819Y-53604761D01*
X94854819Y-53604761D02*
X94854819Y-53890475D01*
X94854819Y-53890475D02*
X94807200Y-53985713D01*
X94807200Y-53985713D02*
X94759580Y-54033332D01*
X94704819Y-94788094D02*
X93704819Y-94788094D01*
X93704819Y-94788094D02*
X93704819Y-94549999D01*
X93704819Y-94549999D02*
X93752438Y-94407142D01*
X93752438Y-94407142D02*
X93847676Y-94311904D01*
X93847676Y-94311904D02*
X93942914Y-94264285D01*
X93942914Y-94264285D02*
X94133390Y-94216666D01*
X94133390Y-94216666D02*
X94276247Y-94216666D01*
X94276247Y-94216666D02*
X94466723Y-94264285D01*
X94466723Y-94264285D02*
X94561961Y-94311904D01*
X94561961Y-94311904D02*
X94657200Y-94407142D01*
X94657200Y-94407142D02*
X94704819Y-94549999D01*
X94704819Y-94549999D02*
X94704819Y-94788094D01*
X93704819Y-93359523D02*
X93704819Y-93549999D01*
X93704819Y-93549999D02*
X93752438Y-93645237D01*
X93752438Y-93645237D02*
X93800057Y-93692856D01*
X93800057Y-93692856D02*
X93942914Y-93788094D01*
X93942914Y-93788094D02*
X94133390Y-93835713D01*
X94133390Y-93835713D02*
X94514342Y-93835713D01*
X94514342Y-93835713D02*
X94609580Y-93788094D01*
X94609580Y-93788094D02*
X94657200Y-93740475D01*
X94657200Y-93740475D02*
X94704819Y-93645237D01*
X94704819Y-93645237D02*
X94704819Y-93454761D01*
X94704819Y-93454761D02*
X94657200Y-93359523D01*
X94657200Y-93359523D02*
X94609580Y-93311904D01*
X94609580Y-93311904D02*
X94514342Y-93264285D01*
X94514342Y-93264285D02*
X94276247Y-93264285D01*
X94276247Y-93264285D02*
X94181009Y-93311904D01*
X94181009Y-93311904D02*
X94133390Y-93359523D01*
X94133390Y-93359523D02*
X94085771Y-93454761D01*
X94085771Y-93454761D02*
X94085771Y-93645237D01*
X94085771Y-93645237D02*
X94133390Y-93740475D01*
X94133390Y-93740475D02*
X94181009Y-93788094D01*
X94181009Y-93788094D02*
X94276247Y-93835713D01*
X59254819Y-91633333D02*
X59969104Y-91633333D01*
X59969104Y-91633333D02*
X60111961Y-91680952D01*
X60111961Y-91680952D02*
X60207200Y-91776190D01*
X60207200Y-91776190D02*
X60254819Y-91919047D01*
X60254819Y-91919047D02*
X60254819Y-92014285D01*
X59254819Y-90680952D02*
X59254819Y-91157142D01*
X59254819Y-91157142D02*
X59731009Y-91204761D01*
X59731009Y-91204761D02*
X59683390Y-91157142D01*
X59683390Y-91157142D02*
X59635771Y-91061904D01*
X59635771Y-91061904D02*
X59635771Y-90823809D01*
X59635771Y-90823809D02*
X59683390Y-90728571D01*
X59683390Y-90728571D02*
X59731009Y-90680952D01*
X59731009Y-90680952D02*
X59826247Y-90633333D01*
X59826247Y-90633333D02*
X60064342Y-90633333D01*
X60064342Y-90633333D02*
X60159580Y-90680952D01*
X60159580Y-90680952D02*
X60207200Y-90728571D01*
X60207200Y-90728571D02*
X60254819Y-90823809D01*
X60254819Y-90823809D02*
X60254819Y-91061904D01*
X60254819Y-91061904D02*
X60207200Y-91157142D01*
X60207200Y-91157142D02*
X60159580Y-91204761D01*
X80279819Y-74763094D02*
X79279819Y-74763094D01*
X80279819Y-74191666D02*
X79708390Y-74620237D01*
X79279819Y-74191666D02*
X79851247Y-74763094D01*
X79375057Y-73810713D02*
X79327438Y-73763094D01*
X79327438Y-73763094D02*
X79279819Y-73667856D01*
X79279819Y-73667856D02*
X79279819Y-73429761D01*
X79279819Y-73429761D02*
X79327438Y-73334523D01*
X79327438Y-73334523D02*
X79375057Y-73286904D01*
X79375057Y-73286904D02*
X79470295Y-73239285D01*
X79470295Y-73239285D02*
X79565533Y-73239285D01*
X79565533Y-73239285D02*
X79708390Y-73286904D01*
X79708390Y-73286904D02*
X80279819Y-73858332D01*
X80279819Y-73858332D02*
X80279819Y-73239285D01*
X113421142Y-107524819D02*
X113087809Y-107048628D01*
X112849714Y-107524819D02*
X112849714Y-106524819D01*
X112849714Y-106524819D02*
X113230666Y-106524819D01*
X113230666Y-106524819D02*
X113325904Y-106572438D01*
X113325904Y-106572438D02*
X113373523Y-106620057D01*
X113373523Y-106620057D02*
X113421142Y-106715295D01*
X113421142Y-106715295D02*
X113421142Y-106858152D01*
X113421142Y-106858152D02*
X113373523Y-106953390D01*
X113373523Y-106953390D02*
X113325904Y-107001009D01*
X113325904Y-107001009D02*
X113230666Y-107048628D01*
X113230666Y-107048628D02*
X112849714Y-107048628D01*
X114373523Y-107524819D02*
X113802095Y-107524819D01*
X114087809Y-107524819D02*
X114087809Y-106524819D01*
X114087809Y-106524819D02*
X113992571Y-106667676D01*
X113992571Y-106667676D02*
X113897333Y-106762914D01*
X113897333Y-106762914D02*
X113802095Y-106810533D01*
X114992571Y-106524819D02*
X115087809Y-106524819D01*
X115087809Y-106524819D02*
X115183047Y-106572438D01*
X115183047Y-106572438D02*
X115230666Y-106620057D01*
X115230666Y-106620057D02*
X115278285Y-106715295D01*
X115278285Y-106715295D02*
X115325904Y-106905771D01*
X115325904Y-106905771D02*
X115325904Y-107143866D01*
X115325904Y-107143866D02*
X115278285Y-107334342D01*
X115278285Y-107334342D02*
X115230666Y-107429580D01*
X115230666Y-107429580D02*
X115183047Y-107477200D01*
X115183047Y-107477200D02*
X115087809Y-107524819D01*
X115087809Y-107524819D02*
X114992571Y-107524819D01*
X114992571Y-107524819D02*
X114897333Y-107477200D01*
X114897333Y-107477200D02*
X114849714Y-107429580D01*
X114849714Y-107429580D02*
X114802095Y-107334342D01*
X114802095Y-107334342D02*
X114754476Y-107143866D01*
X114754476Y-107143866D02*
X114754476Y-106905771D01*
X114754476Y-106905771D02*
X114802095Y-106715295D01*
X114802095Y-106715295D02*
X114849714Y-106620057D01*
X114849714Y-106620057D02*
X114897333Y-106572438D01*
X114897333Y-106572438D02*
X114992571Y-106524819D01*
X137429819Y-75863094D02*
X136429819Y-75863094D01*
X137429819Y-75291666D02*
X136858390Y-75720237D01*
X136429819Y-75291666D02*
X137001247Y-75863094D01*
X136429819Y-74958332D02*
X136429819Y-74291666D01*
X136429819Y-74291666D02*
X137429819Y-74720237D01*
X120084833Y-107599819D02*
X119751500Y-107123628D01*
X119513405Y-107599819D02*
X119513405Y-106599819D01*
X119513405Y-106599819D02*
X119894357Y-106599819D01*
X119894357Y-106599819D02*
X119989595Y-106647438D01*
X119989595Y-106647438D02*
X120037214Y-106695057D01*
X120037214Y-106695057D02*
X120084833Y-106790295D01*
X120084833Y-106790295D02*
X120084833Y-106933152D01*
X120084833Y-106933152D02*
X120037214Y-107028390D01*
X120037214Y-107028390D02*
X119989595Y-107076009D01*
X119989595Y-107076009D02*
X119894357Y-107123628D01*
X119894357Y-107123628D02*
X119513405Y-107123628D01*
X120465786Y-106695057D02*
X120513405Y-106647438D01*
X120513405Y-106647438D02*
X120608643Y-106599819D01*
X120608643Y-106599819D02*
X120846738Y-106599819D01*
X120846738Y-106599819D02*
X120941976Y-106647438D01*
X120941976Y-106647438D02*
X120989595Y-106695057D01*
X120989595Y-106695057D02*
X121037214Y-106790295D01*
X121037214Y-106790295D02*
X121037214Y-106885533D01*
X121037214Y-106885533D02*
X120989595Y-107028390D01*
X120989595Y-107028390D02*
X120418167Y-107599819D01*
X120418167Y-107599819D02*
X121037214Y-107599819D01*
X122954819Y-95964285D02*
X121954819Y-95964285D01*
X121954819Y-95964285D02*
X121954819Y-95726190D01*
X121954819Y-95726190D02*
X122002438Y-95583333D01*
X122002438Y-95583333D02*
X122097676Y-95488095D01*
X122097676Y-95488095D02*
X122192914Y-95440476D01*
X122192914Y-95440476D02*
X122383390Y-95392857D01*
X122383390Y-95392857D02*
X122526247Y-95392857D01*
X122526247Y-95392857D02*
X122716723Y-95440476D01*
X122716723Y-95440476D02*
X122811961Y-95488095D01*
X122811961Y-95488095D02*
X122907200Y-95583333D01*
X122907200Y-95583333D02*
X122954819Y-95726190D01*
X122954819Y-95726190D02*
X122954819Y-95964285D01*
X122954819Y-94440476D02*
X122954819Y-95011904D01*
X122954819Y-94726190D02*
X121954819Y-94726190D01*
X121954819Y-94726190D02*
X122097676Y-94821428D01*
X122097676Y-94821428D02*
X122192914Y-94916666D01*
X122192914Y-94916666D02*
X122240533Y-95011904D01*
X122954819Y-93488095D02*
X122954819Y-94059523D01*
X122954819Y-93773809D02*
X121954819Y-93773809D01*
X121954819Y-93773809D02*
X122097676Y-93869047D01*
X122097676Y-93869047D02*
X122192914Y-93964285D01*
X122192914Y-93964285D02*
X122240533Y-94059523D01*
X113471142Y-97349819D02*
X113137809Y-96873628D01*
X112899714Y-97349819D02*
X112899714Y-96349819D01*
X112899714Y-96349819D02*
X113280666Y-96349819D01*
X113280666Y-96349819D02*
X113375904Y-96397438D01*
X113375904Y-96397438D02*
X113423523Y-96445057D01*
X113423523Y-96445057D02*
X113471142Y-96540295D01*
X113471142Y-96540295D02*
X113471142Y-96683152D01*
X113471142Y-96683152D02*
X113423523Y-96778390D01*
X113423523Y-96778390D02*
X113375904Y-96826009D01*
X113375904Y-96826009D02*
X113280666Y-96873628D01*
X113280666Y-96873628D02*
X112899714Y-96873628D01*
X114423523Y-97349819D02*
X113852095Y-97349819D01*
X114137809Y-97349819D02*
X114137809Y-96349819D01*
X114137809Y-96349819D02*
X114042571Y-96492676D01*
X114042571Y-96492676D02*
X113947333Y-96587914D01*
X113947333Y-96587914D02*
X113852095Y-96635533D01*
X115280666Y-96683152D02*
X115280666Y-97349819D01*
X115042571Y-96302200D02*
X114804476Y-97016485D01*
X114804476Y-97016485D02*
X115423523Y-97016485D01*
X123004819Y-117592857D02*
X122528628Y-117926190D01*
X123004819Y-118164285D02*
X122004819Y-118164285D01*
X122004819Y-118164285D02*
X122004819Y-117783333D01*
X122004819Y-117783333D02*
X122052438Y-117688095D01*
X122052438Y-117688095D02*
X122100057Y-117640476D01*
X122100057Y-117640476D02*
X122195295Y-117592857D01*
X122195295Y-117592857D02*
X122338152Y-117592857D01*
X122338152Y-117592857D02*
X122433390Y-117640476D01*
X122433390Y-117640476D02*
X122481009Y-117688095D01*
X122481009Y-117688095D02*
X122528628Y-117783333D01*
X122528628Y-117783333D02*
X122528628Y-118164285D01*
X122100057Y-117211904D02*
X122052438Y-117164285D01*
X122052438Y-117164285D02*
X122004819Y-117069047D01*
X122004819Y-117069047D02*
X122004819Y-116830952D01*
X122004819Y-116830952D02*
X122052438Y-116735714D01*
X122052438Y-116735714D02*
X122100057Y-116688095D01*
X122100057Y-116688095D02*
X122195295Y-116640476D01*
X122195295Y-116640476D02*
X122290533Y-116640476D01*
X122290533Y-116640476D02*
X122433390Y-116688095D01*
X122433390Y-116688095D02*
X123004819Y-117259523D01*
X123004819Y-117259523D02*
X123004819Y-116640476D01*
X122100057Y-116259523D02*
X122052438Y-116211904D01*
X122052438Y-116211904D02*
X122004819Y-116116666D01*
X122004819Y-116116666D02*
X122004819Y-115878571D01*
X122004819Y-115878571D02*
X122052438Y-115783333D01*
X122052438Y-115783333D02*
X122100057Y-115735714D01*
X122100057Y-115735714D02*
X122195295Y-115688095D01*
X122195295Y-115688095D02*
X122290533Y-115688095D01*
X122290533Y-115688095D02*
X122433390Y-115735714D01*
X122433390Y-115735714D02*
X123004819Y-116307142D01*
X123004819Y-116307142D02*
X123004819Y-115688095D01*
X58754819Y-55933333D02*
X59469104Y-55933333D01*
X59469104Y-55933333D02*
X59611961Y-55980952D01*
X59611961Y-55980952D02*
X59707200Y-56076190D01*
X59707200Y-56076190D02*
X59754819Y-56219047D01*
X59754819Y-56219047D02*
X59754819Y-56314285D01*
X58754819Y-55552380D02*
X58754819Y-54933333D01*
X58754819Y-54933333D02*
X59135771Y-55266666D01*
X59135771Y-55266666D02*
X59135771Y-55123809D01*
X59135771Y-55123809D02*
X59183390Y-55028571D01*
X59183390Y-55028571D02*
X59231009Y-54980952D01*
X59231009Y-54980952D02*
X59326247Y-54933333D01*
X59326247Y-54933333D02*
X59564342Y-54933333D01*
X59564342Y-54933333D02*
X59659580Y-54980952D01*
X59659580Y-54980952D02*
X59707200Y-55028571D01*
X59707200Y-55028571D02*
X59754819Y-55123809D01*
X59754819Y-55123809D02*
X59754819Y-55409523D01*
X59754819Y-55409523D02*
X59707200Y-55504761D01*
X59707200Y-55504761D02*
X59659580Y-55552380D01*
X95154819Y-116038094D02*
X94154819Y-116038094D01*
X94154819Y-116038094D02*
X94154819Y-115799999D01*
X94154819Y-115799999D02*
X94202438Y-115657142D01*
X94202438Y-115657142D02*
X94297676Y-115561904D01*
X94297676Y-115561904D02*
X94392914Y-115514285D01*
X94392914Y-115514285D02*
X94583390Y-115466666D01*
X94583390Y-115466666D02*
X94726247Y-115466666D01*
X94726247Y-115466666D02*
X94916723Y-115514285D01*
X94916723Y-115514285D02*
X95011961Y-115561904D01*
X95011961Y-115561904D02*
X95107200Y-115657142D01*
X95107200Y-115657142D02*
X95154819Y-115799999D01*
X95154819Y-115799999D02*
X95154819Y-116038094D01*
X95154819Y-114990475D02*
X95154819Y-114799999D01*
X95154819Y-114799999D02*
X95107200Y-114704761D01*
X95107200Y-114704761D02*
X95059580Y-114657142D01*
X95059580Y-114657142D02*
X94916723Y-114561904D01*
X94916723Y-114561904D02*
X94726247Y-114514285D01*
X94726247Y-114514285D02*
X94345295Y-114514285D01*
X94345295Y-114514285D02*
X94250057Y-114561904D01*
X94250057Y-114561904D02*
X94202438Y-114609523D01*
X94202438Y-114609523D02*
X94154819Y-114704761D01*
X94154819Y-114704761D02*
X94154819Y-114895237D01*
X94154819Y-114895237D02*
X94202438Y-114990475D01*
X94202438Y-114990475D02*
X94250057Y-115038094D01*
X94250057Y-115038094D02*
X94345295Y-115085713D01*
X94345295Y-115085713D02*
X94583390Y-115085713D01*
X94583390Y-115085713D02*
X94678628Y-115038094D01*
X94678628Y-115038094D02*
X94726247Y-114990475D01*
X94726247Y-114990475D02*
X94773866Y-114895237D01*
X94773866Y-114895237D02*
X94773866Y-114704761D01*
X94773866Y-114704761D02*
X94726247Y-114609523D01*
X94726247Y-114609523D02*
X94678628Y-114561904D01*
X94678628Y-114561904D02*
X94583390Y-114514285D01*
X120059833Y-102574819D02*
X119726500Y-102098628D01*
X119488405Y-102574819D02*
X119488405Y-101574819D01*
X119488405Y-101574819D02*
X119869357Y-101574819D01*
X119869357Y-101574819D02*
X119964595Y-101622438D01*
X119964595Y-101622438D02*
X120012214Y-101670057D01*
X120012214Y-101670057D02*
X120059833Y-101765295D01*
X120059833Y-101765295D02*
X120059833Y-101908152D01*
X120059833Y-101908152D02*
X120012214Y-102003390D01*
X120012214Y-102003390D02*
X119964595Y-102051009D01*
X119964595Y-102051009D02*
X119869357Y-102098628D01*
X119869357Y-102098628D02*
X119488405Y-102098628D01*
X120916976Y-101908152D02*
X120916976Y-102574819D01*
X120678881Y-101527200D02*
X120440786Y-102241485D01*
X120440786Y-102241485D02*
X121059833Y-102241485D01*
X94654819Y-85980357D02*
X94178628Y-86313690D01*
X94654819Y-86551785D02*
X93654819Y-86551785D01*
X93654819Y-86551785D02*
X93654819Y-86170833D01*
X93654819Y-86170833D02*
X93702438Y-86075595D01*
X93702438Y-86075595D02*
X93750057Y-86027976D01*
X93750057Y-86027976D02*
X93845295Y-85980357D01*
X93845295Y-85980357D02*
X93988152Y-85980357D01*
X93988152Y-85980357D02*
X94083390Y-86027976D01*
X94083390Y-86027976D02*
X94131009Y-86075595D01*
X94131009Y-86075595D02*
X94178628Y-86170833D01*
X94178628Y-86170833D02*
X94178628Y-86551785D01*
X93750057Y-85599404D02*
X93702438Y-85551785D01*
X93702438Y-85551785D02*
X93654819Y-85456547D01*
X93654819Y-85456547D02*
X93654819Y-85218452D01*
X93654819Y-85218452D02*
X93702438Y-85123214D01*
X93702438Y-85123214D02*
X93750057Y-85075595D01*
X93750057Y-85075595D02*
X93845295Y-85027976D01*
X93845295Y-85027976D02*
X93940533Y-85027976D01*
X93940533Y-85027976D02*
X94083390Y-85075595D01*
X94083390Y-85075595D02*
X94654819Y-85647023D01*
X94654819Y-85647023D02*
X94654819Y-85027976D01*
X93654819Y-84408928D02*
X93654819Y-84313690D01*
X93654819Y-84313690D02*
X93702438Y-84218452D01*
X93702438Y-84218452D02*
X93750057Y-84170833D01*
X93750057Y-84170833D02*
X93845295Y-84123214D01*
X93845295Y-84123214D02*
X94035771Y-84075595D01*
X94035771Y-84075595D02*
X94273866Y-84075595D01*
X94273866Y-84075595D02*
X94464342Y-84123214D01*
X94464342Y-84123214D02*
X94559580Y-84170833D01*
X94559580Y-84170833D02*
X94607200Y-84218452D01*
X94607200Y-84218452D02*
X94654819Y-84313690D01*
X94654819Y-84313690D02*
X94654819Y-84408928D01*
X94654819Y-84408928D02*
X94607200Y-84504166D01*
X94607200Y-84504166D02*
X94559580Y-84551785D01*
X94559580Y-84551785D02*
X94464342Y-84599404D01*
X94464342Y-84599404D02*
X94273866Y-84647023D01*
X94273866Y-84647023D02*
X94035771Y-84647023D01*
X94035771Y-84647023D02*
X93845295Y-84599404D01*
X93845295Y-84599404D02*
X93750057Y-84551785D01*
X93750057Y-84551785D02*
X93702438Y-84504166D01*
X93702438Y-84504166D02*
X93654819Y-84408928D01*
X122829819Y-60214285D02*
X121829819Y-60214285D01*
X121829819Y-60214285D02*
X121829819Y-59976190D01*
X121829819Y-59976190D02*
X121877438Y-59833333D01*
X121877438Y-59833333D02*
X121972676Y-59738095D01*
X121972676Y-59738095D02*
X122067914Y-59690476D01*
X122067914Y-59690476D02*
X122258390Y-59642857D01*
X122258390Y-59642857D02*
X122401247Y-59642857D01*
X122401247Y-59642857D02*
X122591723Y-59690476D01*
X122591723Y-59690476D02*
X122686961Y-59738095D01*
X122686961Y-59738095D02*
X122782200Y-59833333D01*
X122782200Y-59833333D02*
X122829819Y-59976190D01*
X122829819Y-59976190D02*
X122829819Y-60214285D01*
X122829819Y-58690476D02*
X122829819Y-59261904D01*
X122829819Y-58976190D02*
X121829819Y-58976190D01*
X121829819Y-58976190D02*
X121972676Y-59071428D01*
X121972676Y-59071428D02*
X122067914Y-59166666D01*
X122067914Y-59166666D02*
X122115533Y-59261904D01*
X121829819Y-58357142D02*
X121829819Y-57738095D01*
X121829819Y-57738095D02*
X122210771Y-58071428D01*
X122210771Y-58071428D02*
X122210771Y-57928571D01*
X122210771Y-57928571D02*
X122258390Y-57833333D01*
X122258390Y-57833333D02*
X122306009Y-57785714D01*
X122306009Y-57785714D02*
X122401247Y-57738095D01*
X122401247Y-57738095D02*
X122639342Y-57738095D01*
X122639342Y-57738095D02*
X122734580Y-57785714D01*
X122734580Y-57785714D02*
X122782200Y-57833333D01*
X122782200Y-57833333D02*
X122829819Y-57928571D01*
X122829819Y-57928571D02*
X122829819Y-58214285D01*
X122829819Y-58214285D02*
X122782200Y-58309523D01*
X122782200Y-58309523D02*
X122734580Y-58357142D01*
X157204819Y-93733333D02*
X157919104Y-93733333D01*
X157919104Y-93733333D02*
X158061961Y-93780952D01*
X158061961Y-93780952D02*
X158157200Y-93876190D01*
X158157200Y-93876190D02*
X158204819Y-94019047D01*
X158204819Y-94019047D02*
X158204819Y-94114285D01*
X157633390Y-93114285D02*
X157585771Y-93209523D01*
X157585771Y-93209523D02*
X157538152Y-93257142D01*
X157538152Y-93257142D02*
X157442914Y-93304761D01*
X157442914Y-93304761D02*
X157395295Y-93304761D01*
X157395295Y-93304761D02*
X157300057Y-93257142D01*
X157300057Y-93257142D02*
X157252438Y-93209523D01*
X157252438Y-93209523D02*
X157204819Y-93114285D01*
X157204819Y-93114285D02*
X157204819Y-92923809D01*
X157204819Y-92923809D02*
X157252438Y-92828571D01*
X157252438Y-92828571D02*
X157300057Y-92780952D01*
X157300057Y-92780952D02*
X157395295Y-92733333D01*
X157395295Y-92733333D02*
X157442914Y-92733333D01*
X157442914Y-92733333D02*
X157538152Y-92780952D01*
X157538152Y-92780952D02*
X157585771Y-92828571D01*
X157585771Y-92828571D02*
X157633390Y-92923809D01*
X157633390Y-92923809D02*
X157633390Y-93114285D01*
X157633390Y-93114285D02*
X157681009Y-93209523D01*
X157681009Y-93209523D02*
X157728628Y-93257142D01*
X157728628Y-93257142D02*
X157823866Y-93304761D01*
X157823866Y-93304761D02*
X158014342Y-93304761D01*
X158014342Y-93304761D02*
X158109580Y-93257142D01*
X158109580Y-93257142D02*
X158157200Y-93209523D01*
X158157200Y-93209523D02*
X158204819Y-93114285D01*
X158204819Y-93114285D02*
X158204819Y-92923809D01*
X158204819Y-92923809D02*
X158157200Y-92828571D01*
X158157200Y-92828571D02*
X158109580Y-92780952D01*
X158109580Y-92780952D02*
X158014342Y-92733333D01*
X158014342Y-92733333D02*
X157823866Y-92733333D01*
X157823866Y-92733333D02*
X157728628Y-92780952D01*
X157728628Y-92780952D02*
X157681009Y-92828571D01*
X157681009Y-92828571D02*
X157633390Y-92923809D01*
X101436905Y-62754819D02*
X101436905Y-61754819D01*
X101436905Y-61754819D02*
X101675000Y-61754819D01*
X101675000Y-61754819D02*
X101817857Y-61802438D01*
X101817857Y-61802438D02*
X101913095Y-61897676D01*
X101913095Y-61897676D02*
X101960714Y-61992914D01*
X101960714Y-61992914D02*
X102008333Y-62183390D01*
X102008333Y-62183390D02*
X102008333Y-62326247D01*
X102008333Y-62326247D02*
X101960714Y-62516723D01*
X101960714Y-62516723D02*
X101913095Y-62611961D01*
X101913095Y-62611961D02*
X101817857Y-62707200D01*
X101817857Y-62707200D02*
X101675000Y-62754819D01*
X101675000Y-62754819D02*
X101436905Y-62754819D01*
X102960714Y-62754819D02*
X102389286Y-62754819D01*
X102675000Y-62754819D02*
X102675000Y-61754819D01*
X102675000Y-61754819D02*
X102579762Y-61897676D01*
X102579762Y-61897676D02*
X102484524Y-61992914D01*
X102484524Y-61992914D02*
X102389286Y-62040533D01*
X123004819Y-81592857D02*
X122528628Y-81926190D01*
X123004819Y-82164285D02*
X122004819Y-82164285D01*
X122004819Y-82164285D02*
X122004819Y-81783333D01*
X122004819Y-81783333D02*
X122052438Y-81688095D01*
X122052438Y-81688095D02*
X122100057Y-81640476D01*
X122100057Y-81640476D02*
X122195295Y-81592857D01*
X122195295Y-81592857D02*
X122338152Y-81592857D01*
X122338152Y-81592857D02*
X122433390Y-81640476D01*
X122433390Y-81640476D02*
X122481009Y-81688095D01*
X122481009Y-81688095D02*
X122528628Y-81783333D01*
X122528628Y-81783333D02*
X122528628Y-82164285D01*
X122100057Y-81211904D02*
X122052438Y-81164285D01*
X122052438Y-81164285D02*
X122004819Y-81069047D01*
X122004819Y-81069047D02*
X122004819Y-80830952D01*
X122004819Y-80830952D02*
X122052438Y-80735714D01*
X122052438Y-80735714D02*
X122100057Y-80688095D01*
X122100057Y-80688095D02*
X122195295Y-80640476D01*
X122195295Y-80640476D02*
X122290533Y-80640476D01*
X122290533Y-80640476D02*
X122433390Y-80688095D01*
X122433390Y-80688095D02*
X123004819Y-81259523D01*
X123004819Y-81259523D02*
X123004819Y-80640476D01*
X122338152Y-79783333D02*
X123004819Y-79783333D01*
X121957200Y-80021428D02*
X122671485Y-80259523D01*
X122671485Y-80259523D02*
X122671485Y-79640476D01*
X122729819Y-113914285D02*
X121729819Y-113914285D01*
X121729819Y-113914285D02*
X121729819Y-113676190D01*
X121729819Y-113676190D02*
X121777438Y-113533333D01*
X121777438Y-113533333D02*
X121872676Y-113438095D01*
X121872676Y-113438095D02*
X121967914Y-113390476D01*
X121967914Y-113390476D02*
X122158390Y-113342857D01*
X122158390Y-113342857D02*
X122301247Y-113342857D01*
X122301247Y-113342857D02*
X122491723Y-113390476D01*
X122491723Y-113390476D02*
X122586961Y-113438095D01*
X122586961Y-113438095D02*
X122682200Y-113533333D01*
X122682200Y-113533333D02*
X122729819Y-113676190D01*
X122729819Y-113676190D02*
X122729819Y-113914285D01*
X122729819Y-112390476D02*
X122729819Y-112961904D01*
X122729819Y-112676190D02*
X121729819Y-112676190D01*
X121729819Y-112676190D02*
X121872676Y-112771428D01*
X121872676Y-112771428D02*
X121967914Y-112866666D01*
X121967914Y-112866666D02*
X122015533Y-112961904D01*
X121729819Y-111771428D02*
X121729819Y-111676190D01*
X121729819Y-111676190D02*
X121777438Y-111580952D01*
X121777438Y-111580952D02*
X121825057Y-111533333D01*
X121825057Y-111533333D02*
X121920295Y-111485714D01*
X121920295Y-111485714D02*
X122110771Y-111438095D01*
X122110771Y-111438095D02*
X122348866Y-111438095D01*
X122348866Y-111438095D02*
X122539342Y-111485714D01*
X122539342Y-111485714D02*
X122634580Y-111533333D01*
X122634580Y-111533333D02*
X122682200Y-111580952D01*
X122682200Y-111580952D02*
X122729819Y-111676190D01*
X122729819Y-111676190D02*
X122729819Y-111771428D01*
X122729819Y-111771428D02*
X122682200Y-111866666D01*
X122682200Y-111866666D02*
X122634580Y-111914285D01*
X122634580Y-111914285D02*
X122539342Y-111961904D01*
X122539342Y-111961904D02*
X122348866Y-112009523D01*
X122348866Y-112009523D02*
X122110771Y-112009523D01*
X122110771Y-112009523D02*
X121920295Y-111961904D01*
X121920295Y-111961904D02*
X121825057Y-111914285D01*
X121825057Y-111914285D02*
X121777438Y-111866666D01*
X121777438Y-111866666D02*
X121729819Y-111771428D01*
X123004819Y-63892857D02*
X122528628Y-64226190D01*
X123004819Y-64464285D02*
X122004819Y-64464285D01*
X122004819Y-64464285D02*
X122004819Y-64083333D01*
X122004819Y-64083333D02*
X122052438Y-63988095D01*
X122052438Y-63988095D02*
X122100057Y-63940476D01*
X122100057Y-63940476D02*
X122195295Y-63892857D01*
X122195295Y-63892857D02*
X122338152Y-63892857D01*
X122338152Y-63892857D02*
X122433390Y-63940476D01*
X122433390Y-63940476D02*
X122481009Y-63988095D01*
X122481009Y-63988095D02*
X122528628Y-64083333D01*
X122528628Y-64083333D02*
X122528628Y-64464285D01*
X122100057Y-63511904D02*
X122052438Y-63464285D01*
X122052438Y-63464285D02*
X122004819Y-63369047D01*
X122004819Y-63369047D02*
X122004819Y-63130952D01*
X122004819Y-63130952D02*
X122052438Y-63035714D01*
X122052438Y-63035714D02*
X122100057Y-62988095D01*
X122100057Y-62988095D02*
X122195295Y-62940476D01*
X122195295Y-62940476D02*
X122290533Y-62940476D01*
X122290533Y-62940476D02*
X122433390Y-62988095D01*
X122433390Y-62988095D02*
X123004819Y-63559523D01*
X123004819Y-63559523D02*
X123004819Y-62940476D01*
X122004819Y-62035714D02*
X122004819Y-62511904D01*
X122004819Y-62511904D02*
X122481009Y-62559523D01*
X122481009Y-62559523D02*
X122433390Y-62511904D01*
X122433390Y-62511904D02*
X122385771Y-62416666D01*
X122385771Y-62416666D02*
X122385771Y-62178571D01*
X122385771Y-62178571D02*
X122433390Y-62083333D01*
X122433390Y-62083333D02*
X122481009Y-62035714D01*
X122481009Y-62035714D02*
X122576247Y-61988095D01*
X122576247Y-61988095D02*
X122814342Y-61988095D01*
X122814342Y-61988095D02*
X122909580Y-62035714D01*
X122909580Y-62035714D02*
X122957200Y-62083333D01*
X122957200Y-62083333D02*
X123004819Y-62178571D01*
X123004819Y-62178571D02*
X123004819Y-62416666D01*
X123004819Y-62416666D02*
X122957200Y-62511904D01*
X122957200Y-62511904D02*
X122909580Y-62559523D01*
X59104819Y-110683333D02*
X59819104Y-110683333D01*
X59819104Y-110683333D02*
X59961961Y-110730952D01*
X59961961Y-110730952D02*
X60057200Y-110826190D01*
X60057200Y-110826190D02*
X60104819Y-110969047D01*
X60104819Y-110969047D02*
X60104819Y-111064285D01*
X59104819Y-109778571D02*
X59104819Y-109969047D01*
X59104819Y-109969047D02*
X59152438Y-110064285D01*
X59152438Y-110064285D02*
X59200057Y-110111904D01*
X59200057Y-110111904D02*
X59342914Y-110207142D01*
X59342914Y-110207142D02*
X59533390Y-110254761D01*
X59533390Y-110254761D02*
X59914342Y-110254761D01*
X59914342Y-110254761D02*
X60009580Y-110207142D01*
X60009580Y-110207142D02*
X60057200Y-110159523D01*
X60057200Y-110159523D02*
X60104819Y-110064285D01*
X60104819Y-110064285D02*
X60104819Y-109873809D01*
X60104819Y-109873809D02*
X60057200Y-109778571D01*
X60057200Y-109778571D02*
X60009580Y-109730952D01*
X60009580Y-109730952D02*
X59914342Y-109683333D01*
X59914342Y-109683333D02*
X59676247Y-109683333D01*
X59676247Y-109683333D02*
X59581009Y-109730952D01*
X59581009Y-109730952D02*
X59533390Y-109778571D01*
X59533390Y-109778571D02*
X59485771Y-109873809D01*
X59485771Y-109873809D02*
X59485771Y-110064285D01*
X59485771Y-110064285D02*
X59533390Y-110159523D01*
X59533390Y-110159523D02*
X59581009Y-110207142D01*
X59581009Y-110207142D02*
X59676247Y-110254761D01*
X80229819Y-56613094D02*
X79229819Y-56613094D01*
X80229819Y-56041666D02*
X79658390Y-56470237D01*
X79229819Y-56041666D02*
X79801247Y-56613094D01*
X80229819Y-55089285D02*
X80229819Y-55660713D01*
X80229819Y-55374999D02*
X79229819Y-55374999D01*
X79229819Y-55374999D02*
X79372676Y-55470237D01*
X79372676Y-55470237D02*
X79467914Y-55565475D01*
X79467914Y-55565475D02*
X79515533Y-55660713D01*
X157354819Y-110883333D02*
X158069104Y-110883333D01*
X158069104Y-110883333D02*
X158211961Y-110930952D01*
X158211961Y-110930952D02*
X158307200Y-111026190D01*
X158307200Y-111026190D02*
X158354819Y-111169047D01*
X158354819Y-111169047D02*
X158354819Y-111264285D01*
X157354819Y-110502380D02*
X157354819Y-109835714D01*
X157354819Y-109835714D02*
X158354819Y-110264285D01*
X122554819Y-54014285D02*
X121554819Y-54014285D01*
X121554819Y-54014285D02*
X121554819Y-53776190D01*
X121554819Y-53776190D02*
X121602438Y-53633333D01*
X121602438Y-53633333D02*
X121697676Y-53538095D01*
X121697676Y-53538095D02*
X121792914Y-53490476D01*
X121792914Y-53490476D02*
X121983390Y-53442857D01*
X121983390Y-53442857D02*
X122126247Y-53442857D01*
X122126247Y-53442857D02*
X122316723Y-53490476D01*
X122316723Y-53490476D02*
X122411961Y-53538095D01*
X122411961Y-53538095D02*
X122507200Y-53633333D01*
X122507200Y-53633333D02*
X122554819Y-53776190D01*
X122554819Y-53776190D02*
X122554819Y-54014285D01*
X122554819Y-52490476D02*
X122554819Y-53061904D01*
X122554819Y-52776190D02*
X121554819Y-52776190D01*
X121554819Y-52776190D02*
X121697676Y-52871428D01*
X121697676Y-52871428D02*
X121792914Y-52966666D01*
X121792914Y-52966666D02*
X121840533Y-53061904D01*
X121554819Y-52157142D02*
X121554819Y-51490476D01*
X121554819Y-51490476D02*
X122554819Y-51919047D01*
X120009833Y-97699819D02*
X119676500Y-97223628D01*
X119438405Y-97699819D02*
X119438405Y-96699819D01*
X119438405Y-96699819D02*
X119819357Y-96699819D01*
X119819357Y-96699819D02*
X119914595Y-96747438D01*
X119914595Y-96747438D02*
X119962214Y-96795057D01*
X119962214Y-96795057D02*
X120009833Y-96890295D01*
X120009833Y-96890295D02*
X120009833Y-97033152D01*
X120009833Y-97033152D02*
X119962214Y-97128390D01*
X119962214Y-97128390D02*
X119914595Y-97176009D01*
X119914595Y-97176009D02*
X119819357Y-97223628D01*
X119819357Y-97223628D02*
X119438405Y-97223628D01*
X120866976Y-96699819D02*
X120676500Y-96699819D01*
X120676500Y-96699819D02*
X120581262Y-96747438D01*
X120581262Y-96747438D02*
X120533643Y-96795057D01*
X120533643Y-96795057D02*
X120438405Y-96937914D01*
X120438405Y-96937914D02*
X120390786Y-97128390D01*
X120390786Y-97128390D02*
X120390786Y-97509342D01*
X120390786Y-97509342D02*
X120438405Y-97604580D01*
X120438405Y-97604580D02*
X120486024Y-97652200D01*
X120486024Y-97652200D02*
X120581262Y-97699819D01*
X120581262Y-97699819D02*
X120771738Y-97699819D01*
X120771738Y-97699819D02*
X120866976Y-97652200D01*
X120866976Y-97652200D02*
X120914595Y-97604580D01*
X120914595Y-97604580D02*
X120962214Y-97509342D01*
X120962214Y-97509342D02*
X120962214Y-97271247D01*
X120962214Y-97271247D02*
X120914595Y-97176009D01*
X120914595Y-97176009D02*
X120866976Y-97128390D01*
X120866976Y-97128390D02*
X120771738Y-97080771D01*
X120771738Y-97080771D02*
X120581262Y-97080771D01*
X120581262Y-97080771D02*
X120486024Y-97128390D01*
X120486024Y-97128390D02*
X120438405Y-97176009D01*
X120438405Y-97176009D02*
X120390786Y-97271247D01*
X95104819Y-99138094D02*
X94104819Y-99138094D01*
X94104819Y-99138094D02*
X94104819Y-98899999D01*
X94104819Y-98899999D02*
X94152438Y-98757142D01*
X94152438Y-98757142D02*
X94247676Y-98661904D01*
X94247676Y-98661904D02*
X94342914Y-98614285D01*
X94342914Y-98614285D02*
X94533390Y-98566666D01*
X94533390Y-98566666D02*
X94676247Y-98566666D01*
X94676247Y-98566666D02*
X94866723Y-98614285D01*
X94866723Y-98614285D02*
X94961961Y-98661904D01*
X94961961Y-98661904D02*
X95057200Y-98757142D01*
X95057200Y-98757142D02*
X95104819Y-98899999D01*
X95104819Y-98899999D02*
X95104819Y-99138094D01*
X94533390Y-97995237D02*
X94485771Y-98090475D01*
X94485771Y-98090475D02*
X94438152Y-98138094D01*
X94438152Y-98138094D02*
X94342914Y-98185713D01*
X94342914Y-98185713D02*
X94295295Y-98185713D01*
X94295295Y-98185713D02*
X94200057Y-98138094D01*
X94200057Y-98138094D02*
X94152438Y-98090475D01*
X94152438Y-98090475D02*
X94104819Y-97995237D01*
X94104819Y-97995237D02*
X94104819Y-97804761D01*
X94104819Y-97804761D02*
X94152438Y-97709523D01*
X94152438Y-97709523D02*
X94200057Y-97661904D01*
X94200057Y-97661904D02*
X94295295Y-97614285D01*
X94295295Y-97614285D02*
X94342914Y-97614285D01*
X94342914Y-97614285D02*
X94438152Y-97661904D01*
X94438152Y-97661904D02*
X94485771Y-97709523D01*
X94485771Y-97709523D02*
X94533390Y-97804761D01*
X94533390Y-97804761D02*
X94533390Y-97995237D01*
X94533390Y-97995237D02*
X94581009Y-98090475D01*
X94581009Y-98090475D02*
X94628628Y-98138094D01*
X94628628Y-98138094D02*
X94723866Y-98185713D01*
X94723866Y-98185713D02*
X94914342Y-98185713D01*
X94914342Y-98185713D02*
X95009580Y-98138094D01*
X95009580Y-98138094D02*
X95057200Y-98090475D01*
X95057200Y-98090475D02*
X95104819Y-97995237D01*
X95104819Y-97995237D02*
X95104819Y-97804761D01*
X95104819Y-97804761D02*
X95057200Y-97709523D01*
X95057200Y-97709523D02*
X95009580Y-97661904D01*
X95009580Y-97661904D02*
X94914342Y-97614285D01*
X94914342Y-97614285D02*
X94723866Y-97614285D01*
X94723866Y-97614285D02*
X94628628Y-97661904D01*
X94628628Y-97661904D02*
X94581009Y-97709523D01*
X94581009Y-97709523D02*
X94533390Y-97804761D01*
X94904819Y-111138094D02*
X93904819Y-111138094D01*
X93904819Y-111138094D02*
X93904819Y-110899999D01*
X93904819Y-110899999D02*
X93952438Y-110757142D01*
X93952438Y-110757142D02*
X94047676Y-110661904D01*
X94047676Y-110661904D02*
X94142914Y-110614285D01*
X94142914Y-110614285D02*
X94333390Y-110566666D01*
X94333390Y-110566666D02*
X94476247Y-110566666D01*
X94476247Y-110566666D02*
X94666723Y-110614285D01*
X94666723Y-110614285D02*
X94761961Y-110661904D01*
X94761961Y-110661904D02*
X94857200Y-110757142D01*
X94857200Y-110757142D02*
X94904819Y-110899999D01*
X94904819Y-110899999D02*
X94904819Y-111138094D01*
X93904819Y-110233332D02*
X93904819Y-109566666D01*
X93904819Y-109566666D02*
X94904819Y-109995237D01*
X137429819Y-93863094D02*
X136429819Y-93863094D01*
X137429819Y-93291666D02*
X136858390Y-93720237D01*
X136429819Y-93291666D02*
X137001247Y-93863094D01*
X136429819Y-92434523D02*
X136429819Y-92624999D01*
X136429819Y-92624999D02*
X136477438Y-92720237D01*
X136477438Y-92720237D02*
X136525057Y-92767856D01*
X136525057Y-92767856D02*
X136667914Y-92863094D01*
X136667914Y-92863094D02*
X136858390Y-92910713D01*
X136858390Y-92910713D02*
X137239342Y-92910713D01*
X137239342Y-92910713D02*
X137334580Y-92863094D01*
X137334580Y-92863094D02*
X137382200Y-92815475D01*
X137382200Y-92815475D02*
X137429819Y-92720237D01*
X137429819Y-92720237D02*
X137429819Y-92529761D01*
X137429819Y-92529761D02*
X137382200Y-92434523D01*
X137382200Y-92434523D02*
X137334580Y-92386904D01*
X137334580Y-92386904D02*
X137239342Y-92339285D01*
X137239342Y-92339285D02*
X137001247Y-92339285D01*
X137001247Y-92339285D02*
X136906009Y-92386904D01*
X136906009Y-92386904D02*
X136858390Y-92434523D01*
X136858390Y-92434523D02*
X136810771Y-92529761D01*
X136810771Y-92529761D02*
X136810771Y-92720237D01*
X136810771Y-92720237D02*
X136858390Y-92815475D01*
X136858390Y-92815475D02*
X136906009Y-92863094D01*
X136906009Y-92863094D02*
X137001247Y-92910713D01*
X113446142Y-94874819D02*
X113112809Y-94398628D01*
X112874714Y-94874819D02*
X112874714Y-93874819D01*
X112874714Y-93874819D02*
X113255666Y-93874819D01*
X113255666Y-93874819D02*
X113350904Y-93922438D01*
X113350904Y-93922438D02*
X113398523Y-93970057D01*
X113398523Y-93970057D02*
X113446142Y-94065295D01*
X113446142Y-94065295D02*
X113446142Y-94208152D01*
X113446142Y-94208152D02*
X113398523Y-94303390D01*
X113398523Y-94303390D02*
X113350904Y-94351009D01*
X113350904Y-94351009D02*
X113255666Y-94398628D01*
X113255666Y-94398628D02*
X112874714Y-94398628D01*
X114398523Y-94874819D02*
X113827095Y-94874819D01*
X114112809Y-94874819D02*
X114112809Y-93874819D01*
X114112809Y-93874819D02*
X114017571Y-94017676D01*
X114017571Y-94017676D02*
X113922333Y-94112914D01*
X113922333Y-94112914D02*
X113827095Y-94160533D01*
X115303285Y-93874819D02*
X114827095Y-93874819D01*
X114827095Y-93874819D02*
X114779476Y-94351009D01*
X114779476Y-94351009D02*
X114827095Y-94303390D01*
X114827095Y-94303390D02*
X114922333Y-94255771D01*
X114922333Y-94255771D02*
X115160428Y-94255771D01*
X115160428Y-94255771D02*
X115255666Y-94303390D01*
X115255666Y-94303390D02*
X115303285Y-94351009D01*
X115303285Y-94351009D02*
X115350904Y-94446247D01*
X115350904Y-94446247D02*
X115350904Y-94684342D01*
X115350904Y-94684342D02*
X115303285Y-94779580D01*
X115303285Y-94779580D02*
X115255666Y-94827200D01*
X115255666Y-94827200D02*
X115160428Y-94874819D01*
X115160428Y-94874819D02*
X114922333Y-94874819D01*
X114922333Y-94874819D02*
X114827095Y-94827200D01*
X114827095Y-94827200D02*
X114779476Y-94779580D01*
X157004819Y-76083333D02*
X157719104Y-76083333D01*
X157719104Y-76083333D02*
X157861961Y-76130952D01*
X157861961Y-76130952D02*
X157957200Y-76226190D01*
X157957200Y-76226190D02*
X158004819Y-76369047D01*
X158004819Y-76369047D02*
X158004819Y-76464285D01*
X158004819Y-75559523D02*
X158004819Y-75369047D01*
X158004819Y-75369047D02*
X157957200Y-75273809D01*
X157957200Y-75273809D02*
X157909580Y-75226190D01*
X157909580Y-75226190D02*
X157766723Y-75130952D01*
X157766723Y-75130952D02*
X157576247Y-75083333D01*
X157576247Y-75083333D02*
X157195295Y-75083333D01*
X157195295Y-75083333D02*
X157100057Y-75130952D01*
X157100057Y-75130952D02*
X157052438Y-75178571D01*
X157052438Y-75178571D02*
X157004819Y-75273809D01*
X157004819Y-75273809D02*
X157004819Y-75464285D01*
X157004819Y-75464285D02*
X157052438Y-75559523D01*
X157052438Y-75559523D02*
X157100057Y-75607142D01*
X157100057Y-75607142D02*
X157195295Y-75654761D01*
X157195295Y-75654761D02*
X157433390Y-75654761D01*
X157433390Y-75654761D02*
X157528628Y-75607142D01*
X157528628Y-75607142D02*
X157576247Y-75559523D01*
X157576247Y-75559523D02*
X157623866Y-75464285D01*
X157623866Y-75464285D02*
X157623866Y-75273809D01*
X157623866Y-75273809D02*
X157576247Y-75178571D01*
X157576247Y-75178571D02*
X157528628Y-75130952D01*
X157528628Y-75130952D02*
X157433390Y-75083333D01*
X105058333Y-63934580D02*
X105010714Y-63982200D01*
X105010714Y-63982200D02*
X104867857Y-64029819D01*
X104867857Y-64029819D02*
X104772619Y-64029819D01*
X104772619Y-64029819D02*
X104629762Y-63982200D01*
X104629762Y-63982200D02*
X104534524Y-63886961D01*
X104534524Y-63886961D02*
X104486905Y-63791723D01*
X104486905Y-63791723D02*
X104439286Y-63601247D01*
X104439286Y-63601247D02*
X104439286Y-63458390D01*
X104439286Y-63458390D02*
X104486905Y-63267914D01*
X104486905Y-63267914D02*
X104534524Y-63172676D01*
X104534524Y-63172676D02*
X104629762Y-63077438D01*
X104629762Y-63077438D02*
X104772619Y-63029819D01*
X104772619Y-63029819D02*
X104867857Y-63029819D01*
X104867857Y-63029819D02*
X105010714Y-63077438D01*
X105010714Y-63077438D02*
X105058333Y-63125057D01*
X106010714Y-64029819D02*
X105439286Y-64029819D01*
X105725000Y-64029819D02*
X105725000Y-63029819D01*
X105725000Y-63029819D02*
X105629762Y-63172676D01*
X105629762Y-63172676D02*
X105534524Y-63267914D01*
X105534524Y-63267914D02*
X105439286Y-63315533D01*
X137429819Y-111863094D02*
X136429819Y-111863094D01*
X137429819Y-111291666D02*
X136858390Y-111720237D01*
X136429819Y-111291666D02*
X137001247Y-111863094D01*
X136429819Y-110386904D02*
X136429819Y-110863094D01*
X136429819Y-110863094D02*
X136906009Y-110910713D01*
X136906009Y-110910713D02*
X136858390Y-110863094D01*
X136858390Y-110863094D02*
X136810771Y-110767856D01*
X136810771Y-110767856D02*
X136810771Y-110529761D01*
X136810771Y-110529761D02*
X136858390Y-110434523D01*
X136858390Y-110434523D02*
X136906009Y-110386904D01*
X136906009Y-110386904D02*
X137001247Y-110339285D01*
X137001247Y-110339285D02*
X137239342Y-110339285D01*
X137239342Y-110339285D02*
X137334580Y-110386904D01*
X137334580Y-110386904D02*
X137382200Y-110434523D01*
X137382200Y-110434523D02*
X137429819Y-110529761D01*
X137429819Y-110529761D02*
X137429819Y-110767856D01*
X137429819Y-110767856D02*
X137382200Y-110863094D01*
X137382200Y-110863094D02*
X137334580Y-110910713D01*
X122804819Y-90264285D02*
X121804819Y-90264285D01*
X121804819Y-90264285D02*
X121804819Y-90026190D01*
X121804819Y-90026190D02*
X121852438Y-89883333D01*
X121852438Y-89883333D02*
X121947676Y-89788095D01*
X121947676Y-89788095D02*
X122042914Y-89740476D01*
X122042914Y-89740476D02*
X122233390Y-89692857D01*
X122233390Y-89692857D02*
X122376247Y-89692857D01*
X122376247Y-89692857D02*
X122566723Y-89740476D01*
X122566723Y-89740476D02*
X122661961Y-89788095D01*
X122661961Y-89788095D02*
X122757200Y-89883333D01*
X122757200Y-89883333D02*
X122804819Y-90026190D01*
X122804819Y-90026190D02*
X122804819Y-90264285D01*
X122804819Y-88740476D02*
X122804819Y-89311904D01*
X122804819Y-89026190D02*
X121804819Y-89026190D01*
X121804819Y-89026190D02*
X121947676Y-89121428D01*
X121947676Y-89121428D02*
X122042914Y-89216666D01*
X122042914Y-89216666D02*
X122090533Y-89311904D01*
X121804819Y-87835714D02*
X121804819Y-88311904D01*
X121804819Y-88311904D02*
X122281009Y-88359523D01*
X122281009Y-88359523D02*
X122233390Y-88311904D01*
X122233390Y-88311904D02*
X122185771Y-88216666D01*
X122185771Y-88216666D02*
X122185771Y-87978571D01*
X122185771Y-87978571D02*
X122233390Y-87883333D01*
X122233390Y-87883333D02*
X122281009Y-87835714D01*
X122281009Y-87835714D02*
X122376247Y-87788095D01*
X122376247Y-87788095D02*
X122614342Y-87788095D01*
X122614342Y-87788095D02*
X122709580Y-87835714D01*
X122709580Y-87835714D02*
X122757200Y-87883333D01*
X122757200Y-87883333D02*
X122804819Y-87978571D01*
X122804819Y-87978571D02*
X122804819Y-88216666D01*
X122804819Y-88216666D02*
X122757200Y-88311904D01*
X122757200Y-88311904D02*
X122709580Y-88359523D01*
X119291666Y-113629819D02*
X119291666Y-114344104D01*
X119291666Y-114344104D02*
X119244047Y-114486961D01*
X119244047Y-114486961D02*
X119148809Y-114582200D01*
X119148809Y-114582200D02*
X119005952Y-114629819D01*
X119005952Y-114629819D02*
X118910714Y-114629819D01*
X119720238Y-113725057D02*
X119767857Y-113677438D01*
X119767857Y-113677438D02*
X119863095Y-113629819D01*
X119863095Y-113629819D02*
X120101190Y-113629819D01*
X120101190Y-113629819D02*
X120196428Y-113677438D01*
X120196428Y-113677438D02*
X120244047Y-113725057D01*
X120244047Y-113725057D02*
X120291666Y-113820295D01*
X120291666Y-113820295D02*
X120291666Y-113915533D01*
X120291666Y-113915533D02*
X120244047Y-114058390D01*
X120244047Y-114058390D02*
X119672619Y-114629819D01*
X119672619Y-114629819D02*
X120291666Y-114629819D01*
X105070238Y-111629819D02*
X105070238Y-110629819D01*
X105546428Y-111629819D02*
X105546428Y-110629819D01*
X105546428Y-110629819D02*
X106117856Y-111629819D01*
X106117856Y-111629819D02*
X106117856Y-110629819D01*
X106594047Y-111629819D02*
X106594047Y-110629819D01*
X106594047Y-110629819D02*
X106974999Y-110629819D01*
X106974999Y-110629819D02*
X107070237Y-110677438D01*
X107070237Y-110677438D02*
X107117856Y-110725057D01*
X107117856Y-110725057D02*
X107165475Y-110820295D01*
X107165475Y-110820295D02*
X107165475Y-110963152D01*
X107165475Y-110963152D02*
X107117856Y-111058390D01*
X107117856Y-111058390D02*
X107070237Y-111106009D01*
X107070237Y-111106009D02*
X106974999Y-111153628D01*
X106974999Y-111153628D02*
X106594047Y-111153628D01*
X107594047Y-110629819D02*
X107594047Y-111439342D01*
X107594047Y-111439342D02*
X107641666Y-111534580D01*
X107641666Y-111534580D02*
X107689285Y-111582200D01*
X107689285Y-111582200D02*
X107784523Y-111629819D01*
X107784523Y-111629819D02*
X107974999Y-111629819D01*
X107974999Y-111629819D02*
X108070237Y-111582200D01*
X108070237Y-111582200D02*
X108117856Y-111534580D01*
X108117856Y-111534580D02*
X108165475Y-111439342D01*
X108165475Y-111439342D02*
X108165475Y-110629819D01*
X108498809Y-110629819D02*
X109070237Y-110629819D01*
X108784523Y-111629819D02*
X108784523Y-110629819D01*
X109355952Y-111582200D02*
X109498809Y-111629819D01*
X109498809Y-111629819D02*
X109736904Y-111629819D01*
X109736904Y-111629819D02*
X109832142Y-111582200D01*
X109832142Y-111582200D02*
X109879761Y-111534580D01*
X109879761Y-111534580D02*
X109927380Y-111439342D01*
X109927380Y-111439342D02*
X109927380Y-111344104D01*
X109927380Y-111344104D02*
X109879761Y-111248866D01*
X109879761Y-111248866D02*
X109832142Y-111201247D01*
X109832142Y-111201247D02*
X109736904Y-111153628D01*
X109736904Y-111153628D02*
X109546428Y-111106009D01*
X109546428Y-111106009D02*
X109451190Y-111058390D01*
X109451190Y-111058390D02*
X109403571Y-111010771D01*
X109403571Y-111010771D02*
X109355952Y-110915533D01*
X109355952Y-110915533D02*
X109355952Y-110820295D01*
X109355952Y-110820295D02*
X109403571Y-110725057D01*
X109403571Y-110725057D02*
X109451190Y-110677438D01*
X109451190Y-110677438D02*
X109546428Y-110629819D01*
X109546428Y-110629819D02*
X109784523Y-110629819D01*
X109784523Y-110629819D02*
X109927380Y-110677438D01*
X113371142Y-89757319D02*
X113037809Y-89281128D01*
X112799714Y-89757319D02*
X112799714Y-88757319D01*
X112799714Y-88757319D02*
X113180666Y-88757319D01*
X113180666Y-88757319D02*
X113275904Y-88804938D01*
X113275904Y-88804938D02*
X113323523Y-88852557D01*
X113323523Y-88852557D02*
X113371142Y-88947795D01*
X113371142Y-88947795D02*
X113371142Y-89090652D01*
X113371142Y-89090652D02*
X113323523Y-89185890D01*
X113323523Y-89185890D02*
X113275904Y-89233509D01*
X113275904Y-89233509D02*
X113180666Y-89281128D01*
X113180666Y-89281128D02*
X112799714Y-89281128D01*
X114323523Y-89757319D02*
X113752095Y-89757319D01*
X114037809Y-89757319D02*
X114037809Y-88757319D01*
X114037809Y-88757319D02*
X113942571Y-88900176D01*
X113942571Y-88900176D02*
X113847333Y-88995414D01*
X113847333Y-88995414D02*
X113752095Y-89043033D01*
X114656857Y-88757319D02*
X115323523Y-88757319D01*
X115323523Y-88757319D02*
X114894952Y-89757319D01*
X102153095Y-108779819D02*
X102153095Y-109589342D01*
X102153095Y-109589342D02*
X102200714Y-109684580D01*
X102200714Y-109684580D02*
X102248333Y-109732200D01*
X102248333Y-109732200D02*
X102343571Y-109779819D01*
X102343571Y-109779819D02*
X102534047Y-109779819D01*
X102534047Y-109779819D02*
X102629285Y-109732200D01*
X102629285Y-109732200D02*
X102676904Y-109684580D01*
X102676904Y-109684580D02*
X102724523Y-109589342D01*
X102724523Y-109589342D02*
X102724523Y-108779819D01*
X103724523Y-109779819D02*
X103153095Y-109779819D01*
X103438809Y-109779819D02*
X103438809Y-108779819D01*
X103438809Y-108779819D02*
X103343571Y-108922676D01*
X103343571Y-108922676D02*
X103248333Y-109017914D01*
X103248333Y-109017914D02*
X103153095Y-109065533D01*
X122704819Y-72264285D02*
X121704819Y-72264285D01*
X121704819Y-72264285D02*
X121704819Y-72026190D01*
X121704819Y-72026190D02*
X121752438Y-71883333D01*
X121752438Y-71883333D02*
X121847676Y-71788095D01*
X121847676Y-71788095D02*
X121942914Y-71740476D01*
X121942914Y-71740476D02*
X122133390Y-71692857D01*
X122133390Y-71692857D02*
X122276247Y-71692857D01*
X122276247Y-71692857D02*
X122466723Y-71740476D01*
X122466723Y-71740476D02*
X122561961Y-71788095D01*
X122561961Y-71788095D02*
X122657200Y-71883333D01*
X122657200Y-71883333D02*
X122704819Y-72026190D01*
X122704819Y-72026190D02*
X122704819Y-72264285D01*
X122704819Y-70740476D02*
X122704819Y-71311904D01*
X122704819Y-71026190D02*
X121704819Y-71026190D01*
X121704819Y-71026190D02*
X121847676Y-71121428D01*
X121847676Y-71121428D02*
X121942914Y-71216666D01*
X121942914Y-71216666D02*
X121990533Y-71311904D01*
X121704819Y-69883333D02*
X121704819Y-70073809D01*
X121704819Y-70073809D02*
X121752438Y-70169047D01*
X121752438Y-70169047D02*
X121800057Y-70216666D01*
X121800057Y-70216666D02*
X121942914Y-70311904D01*
X121942914Y-70311904D02*
X122133390Y-70359523D01*
X122133390Y-70359523D02*
X122514342Y-70359523D01*
X122514342Y-70359523D02*
X122609580Y-70311904D01*
X122609580Y-70311904D02*
X122657200Y-70264285D01*
X122657200Y-70264285D02*
X122704819Y-70169047D01*
X122704819Y-70169047D02*
X122704819Y-69978571D01*
X122704819Y-69978571D02*
X122657200Y-69883333D01*
X122657200Y-69883333D02*
X122609580Y-69835714D01*
X122609580Y-69835714D02*
X122514342Y-69788095D01*
X122514342Y-69788095D02*
X122276247Y-69788095D01*
X122276247Y-69788095D02*
X122181009Y-69835714D01*
X122181009Y-69835714D02*
X122133390Y-69883333D01*
X122133390Y-69883333D02*
X122085771Y-69978571D01*
X122085771Y-69978571D02*
X122085771Y-70169047D01*
X122085771Y-70169047D02*
X122133390Y-70264285D01*
X122133390Y-70264285D02*
X122181009Y-70311904D01*
X122181009Y-70311904D02*
X122276247Y-70359523D01*
X64104819Y-44561904D02*
X63104819Y-44561904D01*
X63581009Y-44561904D02*
X63581009Y-43990476D01*
X64104819Y-43990476D02*
X63104819Y-43990476D01*
X63200057Y-43561904D02*
X63152438Y-43514285D01*
X63152438Y-43514285D02*
X63104819Y-43419047D01*
X63104819Y-43419047D02*
X63104819Y-43180952D01*
X63104819Y-43180952D02*
X63152438Y-43085714D01*
X63152438Y-43085714D02*
X63200057Y-43038095D01*
X63200057Y-43038095D02*
X63295295Y-42990476D01*
X63295295Y-42990476D02*
X63390533Y-42990476D01*
X63390533Y-42990476D02*
X63533390Y-43038095D01*
X63533390Y-43038095D02*
X64104819Y-43609523D01*
X64104819Y-43609523D02*
X64104819Y-42990476D01*
X122954819Y-99642857D02*
X122478628Y-99976190D01*
X122954819Y-100214285D02*
X121954819Y-100214285D01*
X121954819Y-100214285D02*
X121954819Y-99833333D01*
X121954819Y-99833333D02*
X122002438Y-99738095D01*
X122002438Y-99738095D02*
X122050057Y-99690476D01*
X122050057Y-99690476D02*
X122145295Y-99642857D01*
X122145295Y-99642857D02*
X122288152Y-99642857D01*
X122288152Y-99642857D02*
X122383390Y-99690476D01*
X122383390Y-99690476D02*
X122431009Y-99738095D01*
X122431009Y-99738095D02*
X122478628Y-99833333D01*
X122478628Y-99833333D02*
X122478628Y-100214285D01*
X122050057Y-99261904D02*
X122002438Y-99214285D01*
X122002438Y-99214285D02*
X121954819Y-99119047D01*
X121954819Y-99119047D02*
X121954819Y-98880952D01*
X121954819Y-98880952D02*
X122002438Y-98785714D01*
X122002438Y-98785714D02*
X122050057Y-98738095D01*
X122050057Y-98738095D02*
X122145295Y-98690476D01*
X122145295Y-98690476D02*
X122240533Y-98690476D01*
X122240533Y-98690476D02*
X122383390Y-98738095D01*
X122383390Y-98738095D02*
X122954819Y-99309523D01*
X122954819Y-99309523D02*
X122954819Y-98690476D01*
X121954819Y-98357142D02*
X121954819Y-97738095D01*
X121954819Y-97738095D02*
X122335771Y-98071428D01*
X122335771Y-98071428D02*
X122335771Y-97928571D01*
X122335771Y-97928571D02*
X122383390Y-97833333D01*
X122383390Y-97833333D02*
X122431009Y-97785714D01*
X122431009Y-97785714D02*
X122526247Y-97738095D01*
X122526247Y-97738095D02*
X122764342Y-97738095D01*
X122764342Y-97738095D02*
X122859580Y-97785714D01*
X122859580Y-97785714D02*
X122907200Y-97833333D01*
X122907200Y-97833333D02*
X122954819Y-97928571D01*
X122954819Y-97928571D02*
X122954819Y-98214285D01*
X122954819Y-98214285D02*
X122907200Y-98309523D01*
X122907200Y-98309523D02*
X122859580Y-98357142D01*
X94654819Y-104442857D02*
X94178628Y-104776190D01*
X94654819Y-105014285D02*
X93654819Y-105014285D01*
X93654819Y-105014285D02*
X93654819Y-104633333D01*
X93654819Y-104633333D02*
X93702438Y-104538095D01*
X93702438Y-104538095D02*
X93750057Y-104490476D01*
X93750057Y-104490476D02*
X93845295Y-104442857D01*
X93845295Y-104442857D02*
X93988152Y-104442857D01*
X93988152Y-104442857D02*
X94083390Y-104490476D01*
X94083390Y-104490476D02*
X94131009Y-104538095D01*
X94131009Y-104538095D02*
X94178628Y-104633333D01*
X94178628Y-104633333D02*
X94178628Y-105014285D01*
X93750057Y-104061904D02*
X93702438Y-104014285D01*
X93702438Y-104014285D02*
X93654819Y-103919047D01*
X93654819Y-103919047D02*
X93654819Y-103680952D01*
X93654819Y-103680952D02*
X93702438Y-103585714D01*
X93702438Y-103585714D02*
X93750057Y-103538095D01*
X93750057Y-103538095D02*
X93845295Y-103490476D01*
X93845295Y-103490476D02*
X93940533Y-103490476D01*
X93940533Y-103490476D02*
X94083390Y-103538095D01*
X94083390Y-103538095D02*
X94654819Y-104109523D01*
X94654819Y-104109523D02*
X94654819Y-103490476D01*
X94654819Y-102538095D02*
X94654819Y-103109523D01*
X94654819Y-102823809D02*
X93654819Y-102823809D01*
X93654819Y-102823809D02*
X93797676Y-102919047D01*
X93797676Y-102919047D02*
X93892914Y-103014285D01*
X93892914Y-103014285D02*
X93940533Y-103109523D01*
X101466666Y-44554819D02*
X101466666Y-45269104D01*
X101466666Y-45269104D02*
X101419047Y-45411961D01*
X101419047Y-45411961D02*
X101323809Y-45507200D01*
X101323809Y-45507200D02*
X101180952Y-45554819D01*
X101180952Y-45554819D02*
X101085714Y-45554819D01*
X102466666Y-45554819D02*
X101895238Y-45554819D01*
X102180952Y-45554819D02*
X102180952Y-44554819D01*
X102180952Y-44554819D02*
X102085714Y-44697676D01*
X102085714Y-44697676D02*
X101990476Y-44792914D01*
X101990476Y-44792914D02*
X101895238Y-44840533D01*
X157254819Y-58359523D02*
X157969104Y-58359523D01*
X157969104Y-58359523D02*
X158111961Y-58407142D01*
X158111961Y-58407142D02*
X158207200Y-58502380D01*
X158207200Y-58502380D02*
X158254819Y-58645237D01*
X158254819Y-58645237D02*
X158254819Y-58740475D01*
X158254819Y-57359523D02*
X158254819Y-57930951D01*
X158254819Y-57645237D02*
X157254819Y-57645237D01*
X157254819Y-57645237D02*
X157397676Y-57740475D01*
X157397676Y-57740475D02*
X157492914Y-57835713D01*
X157492914Y-57835713D02*
X157540533Y-57930951D01*
X157254819Y-56740475D02*
X157254819Y-56645237D01*
X157254819Y-56645237D02*
X157302438Y-56549999D01*
X157302438Y-56549999D02*
X157350057Y-56502380D01*
X157350057Y-56502380D02*
X157445295Y-56454761D01*
X157445295Y-56454761D02*
X157635771Y-56407142D01*
X157635771Y-56407142D02*
X157873866Y-56407142D01*
X157873866Y-56407142D02*
X158064342Y-56454761D01*
X158064342Y-56454761D02*
X158159580Y-56502380D01*
X158159580Y-56502380D02*
X158207200Y-56549999D01*
X158207200Y-56549999D02*
X158254819Y-56645237D01*
X158254819Y-56645237D02*
X158254819Y-56740475D01*
X158254819Y-56740475D02*
X158207200Y-56835713D01*
X158207200Y-56835713D02*
X158159580Y-56883332D01*
X158159580Y-56883332D02*
X158064342Y-56930951D01*
X158064342Y-56930951D02*
X157873866Y-56978570D01*
X157873866Y-56978570D02*
X157635771Y-56978570D01*
X157635771Y-56978570D02*
X157445295Y-56930951D01*
X157445295Y-56930951D02*
X157350057Y-56883332D01*
X157350057Y-56883332D02*
X157302438Y-56835713D01*
X157302438Y-56835713D02*
X157254819Y-56740475D01*
X80229819Y-92713094D02*
X79229819Y-92713094D01*
X80229819Y-92141666D02*
X79658390Y-92570237D01*
X79229819Y-92141666D02*
X79801247Y-92713094D01*
X79229819Y-91808332D02*
X79229819Y-91189285D01*
X79229819Y-91189285D02*
X79610771Y-91522618D01*
X79610771Y-91522618D02*
X79610771Y-91379761D01*
X79610771Y-91379761D02*
X79658390Y-91284523D01*
X79658390Y-91284523D02*
X79706009Y-91236904D01*
X79706009Y-91236904D02*
X79801247Y-91189285D01*
X79801247Y-91189285D02*
X80039342Y-91189285D01*
X80039342Y-91189285D02*
X80134580Y-91236904D01*
X80134580Y-91236904D02*
X80182200Y-91284523D01*
X80182200Y-91284523D02*
X80229819Y-91379761D01*
X80229819Y-91379761D02*
X80229819Y-91665475D01*
X80229819Y-91665475D02*
X80182200Y-91760713D01*
X80182200Y-91760713D02*
X80134580Y-91808332D01*
X137329819Y-57863094D02*
X136329819Y-57863094D01*
X137329819Y-57291666D02*
X136758390Y-57720237D01*
X136329819Y-57291666D02*
X136901247Y-57863094D01*
X136758390Y-56720237D02*
X136710771Y-56815475D01*
X136710771Y-56815475D02*
X136663152Y-56863094D01*
X136663152Y-56863094D02*
X136567914Y-56910713D01*
X136567914Y-56910713D02*
X136520295Y-56910713D01*
X136520295Y-56910713D02*
X136425057Y-56863094D01*
X136425057Y-56863094D02*
X136377438Y-56815475D01*
X136377438Y-56815475D02*
X136329819Y-56720237D01*
X136329819Y-56720237D02*
X136329819Y-56529761D01*
X136329819Y-56529761D02*
X136377438Y-56434523D01*
X136377438Y-56434523D02*
X136425057Y-56386904D01*
X136425057Y-56386904D02*
X136520295Y-56339285D01*
X136520295Y-56339285D02*
X136567914Y-56339285D01*
X136567914Y-56339285D02*
X136663152Y-56386904D01*
X136663152Y-56386904D02*
X136710771Y-56434523D01*
X136710771Y-56434523D02*
X136758390Y-56529761D01*
X136758390Y-56529761D02*
X136758390Y-56720237D01*
X136758390Y-56720237D02*
X136806009Y-56815475D01*
X136806009Y-56815475D02*
X136853628Y-56863094D01*
X136853628Y-56863094D02*
X136948866Y-56910713D01*
X136948866Y-56910713D02*
X137139342Y-56910713D01*
X137139342Y-56910713D02*
X137234580Y-56863094D01*
X137234580Y-56863094D02*
X137282200Y-56815475D01*
X137282200Y-56815475D02*
X137329819Y-56720237D01*
X137329819Y-56720237D02*
X137329819Y-56529761D01*
X137329819Y-56529761D02*
X137282200Y-56434523D01*
X137282200Y-56434523D02*
X137234580Y-56386904D01*
X137234580Y-56386904D02*
X137139342Y-56339285D01*
X137139342Y-56339285D02*
X136948866Y-56339285D01*
X136948866Y-56339285D02*
X136853628Y-56386904D01*
X136853628Y-56386904D02*
X136806009Y-56434523D01*
X136806009Y-56434523D02*
X136758390Y-56529761D01*
X120009833Y-95099819D02*
X119676500Y-94623628D01*
X119438405Y-95099819D02*
X119438405Y-94099819D01*
X119438405Y-94099819D02*
X119819357Y-94099819D01*
X119819357Y-94099819D02*
X119914595Y-94147438D01*
X119914595Y-94147438D02*
X119962214Y-94195057D01*
X119962214Y-94195057D02*
X120009833Y-94290295D01*
X120009833Y-94290295D02*
X120009833Y-94433152D01*
X120009833Y-94433152D02*
X119962214Y-94528390D01*
X119962214Y-94528390D02*
X119914595Y-94576009D01*
X119914595Y-94576009D02*
X119819357Y-94623628D01*
X119819357Y-94623628D02*
X119438405Y-94623628D01*
X120343167Y-94099819D02*
X121009833Y-94099819D01*
X121009833Y-94099819D02*
X120581262Y-95099819D01*
X120009833Y-100149819D02*
X119676500Y-99673628D01*
X119438405Y-100149819D02*
X119438405Y-99149819D01*
X119438405Y-99149819D02*
X119819357Y-99149819D01*
X119819357Y-99149819D02*
X119914595Y-99197438D01*
X119914595Y-99197438D02*
X119962214Y-99245057D01*
X119962214Y-99245057D02*
X120009833Y-99340295D01*
X120009833Y-99340295D02*
X120009833Y-99483152D01*
X120009833Y-99483152D02*
X119962214Y-99578390D01*
X119962214Y-99578390D02*
X119914595Y-99626009D01*
X119914595Y-99626009D02*
X119819357Y-99673628D01*
X119819357Y-99673628D02*
X119438405Y-99673628D01*
X120914595Y-99149819D02*
X120438405Y-99149819D01*
X120438405Y-99149819D02*
X120390786Y-99626009D01*
X120390786Y-99626009D02*
X120438405Y-99578390D01*
X120438405Y-99578390D02*
X120533643Y-99530771D01*
X120533643Y-99530771D02*
X120771738Y-99530771D01*
X120771738Y-99530771D02*
X120866976Y-99578390D01*
X120866976Y-99578390D02*
X120914595Y-99626009D01*
X120914595Y-99626009D02*
X120962214Y-99721247D01*
X120962214Y-99721247D02*
X120962214Y-99959342D01*
X120962214Y-99959342D02*
X120914595Y-100054580D01*
X120914595Y-100054580D02*
X120866976Y-100102200D01*
X120866976Y-100102200D02*
X120771738Y-100149819D01*
X120771738Y-100149819D02*
X120533643Y-100149819D01*
X120533643Y-100149819D02*
X120438405Y-100102200D01*
X120438405Y-100102200D02*
X120390786Y-100054580D01*
X119972333Y-89649819D02*
X119639000Y-89173628D01*
X119400905Y-89649819D02*
X119400905Y-88649819D01*
X119400905Y-88649819D02*
X119781857Y-88649819D01*
X119781857Y-88649819D02*
X119877095Y-88697438D01*
X119877095Y-88697438D02*
X119924714Y-88745057D01*
X119924714Y-88745057D02*
X119972333Y-88840295D01*
X119972333Y-88840295D02*
X119972333Y-88983152D01*
X119972333Y-88983152D02*
X119924714Y-89078390D01*
X119924714Y-89078390D02*
X119877095Y-89126009D01*
X119877095Y-89126009D02*
X119781857Y-89173628D01*
X119781857Y-89173628D02*
X119400905Y-89173628D01*
X120448524Y-89649819D02*
X120639000Y-89649819D01*
X120639000Y-89649819D02*
X120734238Y-89602200D01*
X120734238Y-89602200D02*
X120781857Y-89554580D01*
X120781857Y-89554580D02*
X120877095Y-89411723D01*
X120877095Y-89411723D02*
X120924714Y-89221247D01*
X120924714Y-89221247D02*
X120924714Y-88840295D01*
X120924714Y-88840295D02*
X120877095Y-88745057D01*
X120877095Y-88745057D02*
X120829476Y-88697438D01*
X120829476Y-88697438D02*
X120734238Y-88649819D01*
X120734238Y-88649819D02*
X120543762Y-88649819D01*
X120543762Y-88649819D02*
X120448524Y-88697438D01*
X120448524Y-88697438D02*
X120400905Y-88745057D01*
X120400905Y-88745057D02*
X120353286Y-88840295D01*
X120353286Y-88840295D02*
X120353286Y-89078390D01*
X120353286Y-89078390D02*
X120400905Y-89173628D01*
X120400905Y-89173628D02*
X120448524Y-89221247D01*
X120448524Y-89221247D02*
X120543762Y-89268866D01*
X120543762Y-89268866D02*
X120734238Y-89268866D01*
X120734238Y-89268866D02*
X120829476Y-89221247D01*
X120829476Y-89221247D02*
X120877095Y-89173628D01*
X120877095Y-89173628D02*
X120924714Y-89078390D01*
X96682200Y-57958332D02*
X96729819Y-57815475D01*
X96729819Y-57815475D02*
X96729819Y-57577380D01*
X96729819Y-57577380D02*
X96682200Y-57482142D01*
X96682200Y-57482142D02*
X96634580Y-57434523D01*
X96634580Y-57434523D02*
X96539342Y-57386904D01*
X96539342Y-57386904D02*
X96444104Y-57386904D01*
X96444104Y-57386904D02*
X96348866Y-57434523D01*
X96348866Y-57434523D02*
X96301247Y-57482142D01*
X96301247Y-57482142D02*
X96253628Y-57577380D01*
X96253628Y-57577380D02*
X96206009Y-57767856D01*
X96206009Y-57767856D02*
X96158390Y-57863094D01*
X96158390Y-57863094D02*
X96110771Y-57910713D01*
X96110771Y-57910713D02*
X96015533Y-57958332D01*
X96015533Y-57958332D02*
X95920295Y-57958332D01*
X95920295Y-57958332D02*
X95825057Y-57910713D01*
X95825057Y-57910713D02*
X95777438Y-57863094D01*
X95777438Y-57863094D02*
X95729819Y-57767856D01*
X95729819Y-57767856D02*
X95729819Y-57529761D01*
X95729819Y-57529761D02*
X95777438Y-57386904D01*
X95729819Y-57053570D02*
X96729819Y-56815475D01*
X96729819Y-56815475D02*
X96015533Y-56624999D01*
X96015533Y-56624999D02*
X96729819Y-56434523D01*
X96729819Y-56434523D02*
X95729819Y-56196428D01*
X96729819Y-55291666D02*
X96729819Y-55863094D01*
X96729819Y-55577380D02*
X95729819Y-55577380D01*
X95729819Y-55577380D02*
X95872676Y-55672618D01*
X95872676Y-55672618D02*
X95967914Y-55767856D01*
X95967914Y-55767856D02*
X96015533Y-55863094D01*
X58854819Y-74283333D02*
X59569104Y-74283333D01*
X59569104Y-74283333D02*
X59711961Y-74330952D01*
X59711961Y-74330952D02*
X59807200Y-74426190D01*
X59807200Y-74426190D02*
X59854819Y-74569047D01*
X59854819Y-74569047D02*
X59854819Y-74664285D01*
X59188152Y-73378571D02*
X59854819Y-73378571D01*
X58807200Y-73616666D02*
X59521485Y-73854761D01*
X59521485Y-73854761D02*
X59521485Y-73235714D01*
X120072333Y-92699819D02*
X119739000Y-92223628D01*
X119500905Y-92699819D02*
X119500905Y-91699819D01*
X119500905Y-91699819D02*
X119881857Y-91699819D01*
X119881857Y-91699819D02*
X119977095Y-91747438D01*
X119977095Y-91747438D02*
X120024714Y-91795057D01*
X120024714Y-91795057D02*
X120072333Y-91890295D01*
X120072333Y-91890295D02*
X120072333Y-92033152D01*
X120072333Y-92033152D02*
X120024714Y-92128390D01*
X120024714Y-92128390D02*
X119977095Y-92176009D01*
X119977095Y-92176009D02*
X119881857Y-92223628D01*
X119881857Y-92223628D02*
X119500905Y-92223628D01*
X120643762Y-92128390D02*
X120548524Y-92080771D01*
X120548524Y-92080771D02*
X120500905Y-92033152D01*
X120500905Y-92033152D02*
X120453286Y-91937914D01*
X120453286Y-91937914D02*
X120453286Y-91890295D01*
X120453286Y-91890295D02*
X120500905Y-91795057D01*
X120500905Y-91795057D02*
X120548524Y-91747438D01*
X120548524Y-91747438D02*
X120643762Y-91699819D01*
X120643762Y-91699819D02*
X120834238Y-91699819D01*
X120834238Y-91699819D02*
X120929476Y-91747438D01*
X120929476Y-91747438D02*
X120977095Y-91795057D01*
X120977095Y-91795057D02*
X121024714Y-91890295D01*
X121024714Y-91890295D02*
X121024714Y-91937914D01*
X121024714Y-91937914D02*
X120977095Y-92033152D01*
X120977095Y-92033152D02*
X120929476Y-92080771D01*
X120929476Y-92080771D02*
X120834238Y-92128390D01*
X120834238Y-92128390D02*
X120643762Y-92128390D01*
X120643762Y-92128390D02*
X120548524Y-92176009D01*
X120548524Y-92176009D02*
X120500905Y-92223628D01*
X120500905Y-92223628D02*
X120453286Y-92318866D01*
X120453286Y-92318866D02*
X120453286Y-92509342D01*
X120453286Y-92509342D02*
X120500905Y-92604580D01*
X120500905Y-92604580D02*
X120548524Y-92652200D01*
X120548524Y-92652200D02*
X120643762Y-92699819D01*
X120643762Y-92699819D02*
X120834238Y-92699819D01*
X120834238Y-92699819D02*
X120929476Y-92652200D01*
X120929476Y-92652200D02*
X120977095Y-92604580D01*
X120977095Y-92604580D02*
X121024714Y-92509342D01*
X121024714Y-92509342D02*
X121024714Y-92318866D01*
X121024714Y-92318866D02*
X120977095Y-92223628D01*
X120977095Y-92223628D02*
X120929476Y-92176009D01*
X120929476Y-92176009D02*
X120834238Y-92128390D01*
D12*
%TO.C,R11*%
X110716936Y-104002500D02*
X111171064Y-104002500D01*
X110716936Y-105472500D02*
X111171064Y-105472500D01*
%TO.C,R3*%
X117728564Y-103960000D02*
X117274436Y-103960000D01*
X117728564Y-105430000D02*
X117274436Y-105430000D01*
%TO.C,R1*%
X98889564Y-59715000D02*
X98435436Y-59715000D01*
X98889564Y-61185000D02*
X98435436Y-61185000D01*
%TO.C,D12*%
X123315000Y-75540000D02*
X123315000Y-78225000D01*
X125235000Y-75540000D02*
X123315000Y-75540000D01*
X125235000Y-78225000D02*
X125235000Y-75540000D01*
%TO.C,D4*%
X91515000Y-69962500D02*
X91515000Y-72647500D01*
X91515000Y-72647500D02*
X93435000Y-72647500D01*
X93435000Y-72647500D02*
X93435000Y-69962500D01*
%TO.C,K4*%
X68425000Y-101675000D02*
X68425000Y-118375000D01*
X68425000Y-118375000D02*
X91125000Y-118375000D01*
X85675000Y-109675000D02*
X85675000Y-110375000D01*
X85675000Y-110375000D02*
X86875000Y-110375000D01*
X86075000Y-109675000D02*
X86475000Y-110375000D01*
X86275000Y-105525000D02*
X86275000Y-108675000D01*
X86275000Y-111375000D02*
X86275000Y-114525000D01*
X86875000Y-109675000D02*
X85675000Y-109675000D01*
X86875000Y-110375000D02*
X86875000Y-109675000D01*
X91125000Y-101675000D02*
X68425000Y-101675000D01*
X91125000Y-118375000D02*
X91125000Y-101675000D01*
X91385000Y-109025000D02*
X91385000Y-111025000D01*
%TO.C,D14*%
X123040000Y-104640000D02*
X123040000Y-108525000D01*
X125310000Y-104640000D02*
X123040000Y-104640000D01*
X125310000Y-108525000D02*
X125310000Y-104640000D01*
%TO.C,R19*%
X91740000Y-67339564D02*
X91740000Y-66885436D01*
X93210000Y-67339564D02*
X93210000Y-66885436D01*
%TO.C,R16*%
X110716936Y-91002500D02*
X111171064Y-91002500D01*
X110716936Y-92472500D02*
X111171064Y-92472500D01*
%TO.C,R12*%
X110716936Y-101352500D02*
X111171064Y-101352500D01*
X110716936Y-102822500D02*
X111171064Y-102822500D01*
%TO.C,R13*%
X110716936Y-98802500D02*
X111171064Y-98802500D01*
X110716936Y-100272500D02*
X111171064Y-100272500D01*
%TO.C,D5*%
X91790000Y-75086252D02*
X91790000Y-74563748D01*
X93260000Y-75086252D02*
X93260000Y-74563748D01*
%TO.C,D3*%
X91665000Y-53087500D02*
X91665000Y-55772500D01*
X91665000Y-55772500D02*
X93585000Y-55772500D01*
X93585000Y-55772500D02*
X93585000Y-53087500D01*
%TO.C,D6*%
X91515000Y-93087500D02*
X91515000Y-95772500D01*
X91515000Y-95772500D02*
X93435000Y-95772500D01*
X93435000Y-95772500D02*
X93435000Y-93087500D01*
%TO.C,J5*%
X57240000Y-83590000D02*
X57240000Y-98810000D01*
X57240000Y-98810000D02*
X65960000Y-98810000D01*
X61850000Y-82790000D02*
X62450000Y-82790000D01*
X62150000Y-83390000D02*
X61850000Y-82790000D01*
X62450000Y-82790000D02*
X62150000Y-83390000D01*
X65960000Y-83590000D02*
X57240000Y-83590000D01*
X65960000Y-98810000D02*
X65960000Y-83590000D01*
%TO.C,K2*%
X68425000Y-65575000D02*
X68425000Y-82275000D01*
X68425000Y-82275000D02*
X91125000Y-82275000D01*
X85675000Y-73575000D02*
X85675000Y-74275000D01*
X85675000Y-74275000D02*
X86875000Y-74275000D01*
X86075000Y-73575000D02*
X86475000Y-74275000D01*
X86275000Y-69425000D02*
X86275000Y-72575000D01*
X86275000Y-75275000D02*
X86275000Y-78425000D01*
X86875000Y-73575000D02*
X85675000Y-73575000D01*
X86875000Y-74275000D02*
X86875000Y-73575000D01*
X91125000Y-65575000D02*
X68425000Y-65575000D01*
X91125000Y-82275000D02*
X91125000Y-65575000D01*
X91385000Y-72925000D02*
X91385000Y-74925000D01*
%TO.C,R10*%
X110716936Y-106277500D02*
X111171064Y-106277500D01*
X110716936Y-107747500D02*
X111171064Y-107747500D01*
%TO.C,K7*%
X125365000Y-76075000D02*
X125365000Y-74075000D01*
X125625000Y-66725000D02*
X125625000Y-83425000D01*
X125625000Y-83425000D02*
X148325000Y-83425000D01*
X129875000Y-74725000D02*
X129875000Y-75425000D01*
X129875000Y-75425000D02*
X131075000Y-75425000D01*
X130475000Y-73725000D02*
X130475000Y-70575000D01*
X130475000Y-79575000D02*
X130475000Y-76425000D01*
X130675000Y-75425000D02*
X130275000Y-74725000D01*
X131075000Y-74725000D02*
X129875000Y-74725000D01*
X131075000Y-75425000D02*
X131075000Y-74725000D01*
X148325000Y-66725000D02*
X125625000Y-66725000D01*
X148325000Y-83425000D02*
X148325000Y-66725000D01*
%TO.C,R2*%
X117678564Y-106410000D02*
X117224436Y-106410000D01*
X117678564Y-107880000D02*
X117224436Y-107880000D01*
%TO.C,D11*%
X123315000Y-93277500D02*
X123315000Y-95962500D01*
X125235000Y-93277500D02*
X123315000Y-93277500D01*
X125235000Y-95962500D02*
X125235000Y-93277500D01*
%TO.C,R14*%
X110716936Y-96152500D02*
X111171064Y-96152500D01*
X110716936Y-97622500D02*
X111171064Y-97622500D01*
%TO.C,R22*%
X123540000Y-116910436D02*
X123540000Y-117364564D01*
X125010000Y-116910436D02*
X125010000Y-117364564D01*
%TO.C,J3*%
X57040000Y-47990000D02*
X57040000Y-63210000D01*
X57040000Y-63210000D02*
X65760000Y-63210000D01*
X61650000Y-47190000D02*
X62250000Y-47190000D01*
X61950000Y-47790000D02*
X61650000Y-47190000D01*
X62250000Y-47190000D02*
X61950000Y-47790000D01*
X65760000Y-47990000D02*
X57040000Y-47990000D01*
X65760000Y-63210000D02*
X65760000Y-47990000D01*
%TO.C,D9*%
X91540000Y-113825000D02*
X91540000Y-117710000D01*
X91540000Y-117710000D02*
X93810000Y-117710000D01*
X93810000Y-117710000D02*
X93810000Y-113825000D01*
%TO.C,R4*%
X117703564Y-101385000D02*
X117249436Y-101385000D01*
X117703564Y-102855000D02*
X117249436Y-102855000D01*
%TO.C,R20*%
X91740000Y-85564564D02*
X91740000Y-85110436D01*
X93210000Y-85564564D02*
X93210000Y-85110436D01*
%TO.C,D13*%
X123240000Y-57527500D02*
X123240000Y-60212500D01*
X125160000Y-57527500D02*
X123240000Y-57527500D01*
X125160000Y-60212500D02*
X125160000Y-57527500D01*
%TO.C,J8*%
X151340000Y-85715000D02*
X151340000Y-100935000D01*
X151340000Y-100935000D02*
X160060000Y-100935000D01*
X154850000Y-101735000D02*
X155150000Y-101135000D01*
X155150000Y-101135000D02*
X155450000Y-101735000D01*
X155450000Y-101735000D02*
X154850000Y-101735000D01*
X160060000Y-85715000D02*
X151340000Y-85715000D01*
X160060000Y-100935000D02*
X160060000Y-85715000D01*
%TO.C,D1*%
X101300000Y-61460000D02*
X103985000Y-61460000D01*
X103985000Y-59540000D02*
X101300000Y-59540000D01*
X103985000Y-61460000D02*
X103985000Y-59540000D01*
%TO.C,R24*%
X123540000Y-81085436D02*
X123540000Y-81539564D01*
X125010000Y-81085436D02*
X125010000Y-81539564D01*
%TO.C,D10*%
X123240000Y-111202500D02*
X123240000Y-113887500D01*
X125160000Y-111202500D02*
X123240000Y-111202500D01*
X125160000Y-113887500D02*
X125160000Y-111202500D01*
%TO.C,R25*%
X123540000Y-63110436D02*
X123540000Y-63564564D01*
X125010000Y-63110436D02*
X125010000Y-63564564D01*
%TO.C,J6*%
X57240000Y-102790000D02*
X57240000Y-118010000D01*
X57240000Y-118010000D02*
X65960000Y-118010000D01*
X61850000Y-101990000D02*
X62450000Y-101990000D01*
X62150000Y-102590000D02*
X61850000Y-101990000D01*
X62450000Y-101990000D02*
X62150000Y-102590000D01*
X65960000Y-102790000D02*
X57240000Y-102790000D01*
X65960000Y-118010000D02*
X65960000Y-102790000D01*
%TO.C,K1*%
X68425000Y-47525000D02*
X68425000Y-64225000D01*
X68425000Y-64225000D02*
X91125000Y-64225000D01*
X85675000Y-55525000D02*
X85675000Y-56225000D01*
X85675000Y-56225000D02*
X86875000Y-56225000D01*
X86075000Y-55525000D02*
X86475000Y-56225000D01*
X86275000Y-51375000D02*
X86275000Y-54525000D01*
X86275000Y-57225000D02*
X86275000Y-60375000D01*
X86875000Y-55525000D02*
X85675000Y-55525000D01*
X86875000Y-56225000D02*
X86875000Y-55525000D01*
X91125000Y-47525000D02*
X68425000Y-47525000D01*
X91125000Y-64225000D02*
X91125000Y-47525000D01*
X91385000Y-54875000D02*
X91385000Y-56875000D01*
%TO.C,J7*%
X151340000Y-102890000D02*
X151340000Y-118110000D01*
X151340000Y-118110000D02*
X160060000Y-118110000D01*
X154850000Y-118910000D02*
X155150000Y-118310000D01*
X155150000Y-118310000D02*
X155450000Y-118910000D01*
X155450000Y-118910000D02*
X154850000Y-118910000D01*
X160060000Y-102890000D02*
X151340000Y-102890000D01*
X160060000Y-118110000D02*
X160060000Y-102890000D01*
%TO.C,D17*%
X122940000Y-50540000D02*
X122940000Y-54425000D01*
X125210000Y-50540000D02*
X122940000Y-50540000D01*
X125210000Y-54425000D02*
X125210000Y-50540000D01*
%TO.C,R6*%
X117703564Y-96360000D02*
X117249436Y-96360000D01*
X117703564Y-97830000D02*
X117249436Y-97830000D01*
%TO.C,D8*%
X91540000Y-97025000D02*
X91540000Y-100910000D01*
X91540000Y-100910000D02*
X93810000Y-100910000D01*
X93810000Y-100910000D02*
X93810000Y-97025000D01*
%TO.C,D7*%
X91715000Y-109287500D02*
X91715000Y-111972500D01*
X91715000Y-111972500D02*
X93635000Y-111972500D01*
X93635000Y-111972500D02*
X93635000Y-109287500D01*
%TO.C,K6*%
X125365000Y-94125000D02*
X125365000Y-92125000D01*
X125625000Y-84775000D02*
X125625000Y-101475000D01*
X125625000Y-101475000D02*
X148325000Y-101475000D01*
X129875000Y-92775000D02*
X129875000Y-93475000D01*
X129875000Y-93475000D02*
X131075000Y-93475000D01*
X130475000Y-91775000D02*
X130475000Y-88625000D01*
X130475000Y-97625000D02*
X130475000Y-94475000D01*
X130675000Y-93475000D02*
X130275000Y-92775000D01*
X131075000Y-92775000D02*
X129875000Y-92775000D01*
X131075000Y-93475000D02*
X131075000Y-92775000D01*
X148325000Y-84775000D02*
X125625000Y-84775000D01*
X148325000Y-101475000D02*
X148325000Y-84775000D01*
%TO.C,R15*%
X110716936Y-93702500D02*
X111171064Y-93702500D01*
X110716936Y-95172500D02*
X111171064Y-95172500D01*
%TO.C,J9*%
X151340000Y-67915000D02*
X151340000Y-83135000D01*
X151340000Y-83135000D02*
X160060000Y-83135000D01*
X154850000Y-83935000D02*
X155150000Y-83335000D01*
X155150000Y-83335000D02*
X155450000Y-83935000D01*
X155450000Y-83935000D02*
X154850000Y-83935000D01*
X160060000Y-67915000D02*
X151340000Y-67915000D01*
X160060000Y-83135000D02*
X160060000Y-67915000D01*
%TO.C,C1*%
X104440000Y-61311252D02*
X104440000Y-60788748D01*
X105910000Y-61311252D02*
X105910000Y-60788748D01*
%TO.C,K5*%
X125365000Y-112175000D02*
X125365000Y-110175000D01*
X125625000Y-102825000D02*
X125625000Y-119525000D01*
X125625000Y-119525000D02*
X148325000Y-119525000D01*
X129875000Y-110825000D02*
X129875000Y-111525000D01*
X129875000Y-111525000D02*
X131075000Y-111525000D01*
X130475000Y-109825000D02*
X130475000Y-106675000D01*
X130475000Y-115675000D02*
X130475000Y-112525000D01*
X130675000Y-111525000D02*
X130275000Y-110825000D01*
X131075000Y-110825000D02*
X129875000Y-110825000D01*
X131075000Y-111525000D02*
X131075000Y-110825000D01*
X148325000Y-102825000D02*
X125625000Y-102825000D01*
X148325000Y-119525000D02*
X148325000Y-102825000D01*
%TO.C,D15*%
X123040000Y-87140000D02*
X123040000Y-91025000D01*
X125310000Y-87140000D02*
X123040000Y-87140000D01*
X125310000Y-91025000D02*
X125310000Y-87140000D01*
%TO.C,C2*%
X109963748Y-83340000D02*
X110486252Y-83340000D01*
X109963748Y-84810000D02*
X110486252Y-84810000D01*
%TO.C,J2*%
X97815000Y-112595000D02*
X97815000Y-115355000D01*
X115705000Y-112595000D02*
X97815000Y-112595000D01*
X115705000Y-112595000D02*
X115705000Y-115355000D01*
X115705000Y-115355000D02*
X97815000Y-115355000D01*
X116975000Y-112595000D02*
X118355000Y-112595000D01*
X118355000Y-112595000D02*
X118355000Y-113975000D01*
%TO.C,R17*%
X110716936Y-88485000D02*
X111171064Y-88485000D01*
X110716936Y-89955000D02*
X111171064Y-89955000D01*
%TO.C,U1*%
X100665000Y-72645000D02*
X100665000Y-108325000D01*
X100665000Y-108325000D02*
X101915000Y-108325000D01*
X103915000Y-108325000D02*
X105165000Y-108325000D01*
X105165000Y-72645000D02*
X100665000Y-72645000D01*
X105165000Y-108325000D02*
X105165000Y-72645000D01*
X101915000Y-108325000D02*
G75*
G02*
X103915000Y-108325000I1000000J0D01*
G01*
%TO.C,D2*%
X91915000Y-58586252D02*
X91915000Y-58063748D01*
X93385000Y-58586252D02*
X93385000Y-58063748D01*
%TO.C,D16*%
X122940000Y-69040000D02*
X122940000Y-72925000D01*
X125210000Y-69040000D02*
X122940000Y-69040000D01*
X125210000Y-72925000D02*
X125210000Y-69040000D01*
%TO.C,R23*%
X123540000Y-98710436D02*
X123540000Y-99164564D01*
X125010000Y-98710436D02*
X125010000Y-99164564D01*
%TO.C,R21*%
X91740000Y-104164564D02*
X91740000Y-103710436D01*
X93210000Y-104164564D02*
X93210000Y-103710436D01*
%TO.C,J1*%
X96665000Y-44315000D02*
X96665000Y-53035000D01*
X96665000Y-53035000D02*
X106885000Y-53035000D01*
X106885000Y-44315000D02*
X96665000Y-44315000D01*
X106885000Y-53035000D02*
X106885000Y-44315000D01*
X107085000Y-49225000D02*
X107685000Y-48925000D01*
X107685000Y-48925000D02*
X107685000Y-49525000D01*
X107685000Y-49525000D02*
X107085000Y-49225000D01*
%TO.C,J10*%
X151340000Y-49915000D02*
X151340000Y-65135000D01*
X151340000Y-65135000D02*
X160060000Y-65135000D01*
X154850000Y-65935000D02*
X155150000Y-65335000D01*
X155150000Y-65335000D02*
X155450000Y-65935000D01*
X155450000Y-65935000D02*
X154850000Y-65935000D01*
X160060000Y-49915000D02*
X151340000Y-49915000D01*
X160060000Y-65135000D02*
X160060000Y-49915000D01*
%TO.C,K3*%
X68425000Y-83625000D02*
X68425000Y-100325000D01*
X68425000Y-100325000D02*
X91125000Y-100325000D01*
X85675000Y-91625000D02*
X85675000Y-92325000D01*
X85675000Y-92325000D02*
X86875000Y-92325000D01*
X86075000Y-91625000D02*
X86475000Y-92325000D01*
X86275000Y-87475000D02*
X86275000Y-90625000D01*
X86275000Y-93325000D02*
X86275000Y-96475000D01*
X86875000Y-91625000D02*
X85675000Y-91625000D01*
X86875000Y-92325000D02*
X86875000Y-91625000D01*
X91125000Y-83625000D02*
X68425000Y-83625000D01*
X91125000Y-100325000D02*
X91125000Y-83625000D01*
X91385000Y-90975000D02*
X91385000Y-92975000D01*
%TO.C,K8*%
X125365000Y-58025000D02*
X125365000Y-56025000D01*
X125625000Y-48675000D02*
X125625000Y-65375000D01*
X125625000Y-65375000D02*
X148325000Y-65375000D01*
X129875000Y-56675000D02*
X129875000Y-57375000D01*
X129875000Y-57375000D02*
X131075000Y-57375000D01*
X130475000Y-55675000D02*
X130475000Y-52525000D01*
X130475000Y-61525000D02*
X130475000Y-58375000D01*
X130675000Y-57375000D02*
X130275000Y-56675000D01*
X131075000Y-56675000D02*
X129875000Y-56675000D01*
X131075000Y-57375000D02*
X131075000Y-56675000D01*
X148325000Y-48675000D02*
X125625000Y-48675000D01*
X148325000Y-65375000D02*
X148325000Y-48675000D01*
%TO.C,R7*%
X117703564Y-93810000D02*
X117249436Y-93810000D01*
X117703564Y-95280000D02*
X117249436Y-95280000D01*
%TO.C,R5*%
X117703564Y-98810000D02*
X117249436Y-98810000D01*
X117703564Y-100280000D02*
X117249436Y-100280000D01*
%TO.C,R9*%
X117703564Y-88410000D02*
X117249436Y-88410000D01*
X117703564Y-89880000D02*
X117249436Y-89880000D01*
%TO.C,SW1*%
X98300000Y-55625000D02*
X98300000Y-54315000D01*
X98300000Y-58535000D02*
X98300000Y-57225000D01*
X102313333Y-57060000D02*
X102313333Y-55790000D01*
X105120000Y-54315000D02*
X98300000Y-54315000D01*
X105120000Y-55625000D02*
X105120000Y-54315000D01*
X105120000Y-58535000D02*
X98300000Y-58535000D01*
X105120000Y-58535000D02*
X105120000Y-57225000D01*
X105360000Y-58775000D02*
X103977000Y-58775000D01*
X105360000Y-58775000D02*
X105360000Y-57392000D01*
X103520000Y-57060000D02*
X99900000Y-57060000D01*
X99900000Y-55790000D01*
X103520000Y-55790000D01*
X103520000Y-57060000D01*
X103520000Y-57060000D02*
X102313333Y-57060000D01*
X102313333Y-55790000D01*
X103520000Y-55790000D01*
X103520000Y-57060000D01*
G36*
X103520000Y-57060000D02*
G01*
X102313333Y-57060000D01*
X102313333Y-55790000D01*
X103520000Y-55790000D01*
X103520000Y-57060000D01*
G37*
%TO.C,J4*%
X57040000Y-66390000D02*
X57040000Y-81610000D01*
X57040000Y-81610000D02*
X65760000Y-81610000D01*
X61650000Y-65590000D02*
X62250000Y-65590000D01*
X61950000Y-66190000D02*
X61650000Y-65590000D01*
X62250000Y-65590000D02*
X61950000Y-66190000D01*
X65760000Y-66390000D02*
X57040000Y-66390000D01*
X65760000Y-81610000D02*
X65760000Y-66390000D01*
%TO.C,R18*%
X91890000Y-62464564D02*
X91890000Y-62010436D01*
X93360000Y-62464564D02*
X93360000Y-62010436D01*
%TO.C,R8*%
X117703564Y-91260000D02*
X117249436Y-91260000D01*
X117703564Y-92730000D02*
X117249436Y-92730000D01*
%TD*%
M02*
