%TF.GenerationSoftware,KiCad,Pcbnew,9.0.6*%
%TF.CreationDate,2026-04-01T13:16:40+05:30*%
%TF.ProjectId,realy_8_connections,7265616c-795f-4385-9f63-6f6e6e656374,rev?*%
%TF.SameCoordinates,Original*%
%TF.FileFunction,Soldermask,Bot*%
%TF.FilePolarity,Negative*%
%FSLAX46Y46*%
G04 Gerber Fmt 4.6, Leading zero omitted, Abs format (unit mm)*
G04 Created by KiCad (PCBNEW 9.0.6) date 2026-04-01 13:16:40*
%MOMM*%
%LPD*%
G01*
G04 APERTURE LIST*
G04 Aperture macros list*
%AMRoundRect*
0 Rectangle with rounded corners*
0 $1 Rounding radius*
0 $2 $3 $4 $5 $6 $7 $8 $9 X,Y pos of 4 corners*
0 Add a 4 corners polygon primitive as box body*
4,1,4,$2,$3,$4,$5,$6,$7,$8,$9,$2,$3,0*
0 Add four circle primitives for the rounded corners*
1,1,$1+$1,$2,$3*
1,1,$1+$1,$4,$5*
1,1,$1+$1,$6,$7*
1,1,$1+$1,$8,$9*
0 Add four rect primitives between the rounded corners*
20,1,$1+$1,$2,$3,$4,$5,0*
20,1,$1+$1,$4,$5,$6,$7,0*
20,1,$1+$1,$6,$7,$8,$9,0*
20,1,$1+$1,$8,$9,$2,$3,0*%
G04 Aperture macros list end*
%ADD10C,5.000000*%
%ADD11R,2.500000X2.500000*%
%ADD12O,2.500000X2.500000*%
%ADD13RoundRect,0.250001X-1.099999X1.099999X-1.099999X-1.099999X1.099999X-1.099999X1.099999X1.099999X0*%
%ADD14C,2.700000*%
%ADD15RoundRect,0.250001X1.099999X-1.099999X1.099999X1.099999X-1.099999X1.099999X-1.099999X-1.099999X0*%
%ADD16R,1.700000X1.700000*%
%ADD17C,1.700000*%
%ADD18RoundRect,0.250000X0.950000X0.550000X-0.950000X0.550000X-0.950000X-0.550000X0.950000X-0.550000X0*%
%ADD19O,2.400000X1.600000*%
%ADD20RoundRect,0.250001X1.099999X1.099999X-1.099999X1.099999X-1.099999X-1.099999X1.099999X-1.099999X0*%
G04 APERTURE END LIST*
D10*
%TO.C,H1*%
X58900000Y-122250000D03*
%TD*%
D11*
%TO.C,K4*%
X88475000Y-110025000D03*
D12*
X86475000Y-104025000D03*
X74275000Y-104025000D03*
X74275000Y-116025000D03*
X86475000Y-116025000D03*
%TD*%
D10*
%TO.C,H4*%
X156100000Y-122250000D03*
%TD*%
D13*
%TO.C,J5*%
X62150000Y-86200000D03*
D14*
X62150000Y-91200000D03*
X62150000Y-96200000D03*
%TD*%
D11*
%TO.C,K2*%
X88475000Y-73925000D03*
D12*
X86475000Y-67925000D03*
X74275000Y-67925000D03*
X74275000Y-79925000D03*
X86475000Y-79925000D03*
%TD*%
D11*
%TO.C,K7*%
X128275000Y-75075000D03*
D12*
X130275000Y-81075000D03*
X142475000Y-81075000D03*
X142475000Y-69075000D03*
X130275000Y-69075000D03*
%TD*%
D13*
%TO.C,J3*%
X61950000Y-50600000D03*
D14*
X61950000Y-55600000D03*
X61950000Y-60600000D03*
%TD*%
D15*
%TO.C,J8*%
X155150000Y-98325000D03*
D14*
X155150000Y-93325000D03*
X155150000Y-88325000D03*
%TD*%
D13*
%TO.C,J6*%
X62150000Y-105400000D03*
D14*
X62150000Y-110400000D03*
X62150000Y-115400000D03*
%TD*%
D11*
%TO.C,K1*%
X88475000Y-55875000D03*
D12*
X86475000Y-49875000D03*
X74275000Y-49875000D03*
X74275000Y-61875000D03*
X86475000Y-61875000D03*
%TD*%
D15*
%TO.C,J7*%
X155150000Y-115500000D03*
D14*
X155150000Y-110500000D03*
X155150000Y-105500000D03*
%TD*%
D10*
%TO.C,H3*%
X156100000Y-43700000D03*
%TD*%
D11*
%TO.C,K6*%
X128275000Y-93125000D03*
D12*
X130275000Y-99125000D03*
X142475000Y-99125000D03*
X142475000Y-87125000D03*
X130275000Y-87125000D03*
%TD*%
D15*
%TO.C,J9*%
X155150000Y-80525000D03*
D14*
X155150000Y-75525000D03*
X155150000Y-70525000D03*
%TD*%
D11*
%TO.C,K5*%
X128275000Y-111175000D03*
D12*
X130275000Y-117175000D03*
X142475000Y-117175000D03*
X142475000Y-105175000D03*
X130275000Y-105175000D03*
%TD*%
D16*
%TO.C,J2*%
X116975000Y-113975000D03*
D17*
X114435000Y-113975000D03*
X111895000Y-113975000D03*
X109355000Y-113975000D03*
X106815000Y-113975000D03*
X104275000Y-113975000D03*
X101735000Y-113975000D03*
X99195000Y-113975000D03*
%TD*%
D18*
%TO.C,U1*%
X106725000Y-106995000D03*
D19*
X106725000Y-104455000D03*
X106725000Y-101915000D03*
X106725000Y-99375000D03*
X106725000Y-96835000D03*
X106725000Y-94295000D03*
X106725000Y-91755000D03*
X106725000Y-89215000D03*
X106725000Y-86675000D03*
X106725000Y-84135000D03*
X106725000Y-81595000D03*
X106725000Y-79055000D03*
X106725000Y-76515000D03*
X106725000Y-73975000D03*
X99105000Y-73975000D03*
X99105000Y-76515000D03*
X99105000Y-79055000D03*
X99105000Y-81595000D03*
X99105000Y-84135000D03*
X99105000Y-86675000D03*
X99105000Y-89215000D03*
X99105000Y-91755000D03*
X99105000Y-94295000D03*
X99105000Y-96835000D03*
X99105000Y-99375000D03*
X99105000Y-101915000D03*
X99105000Y-104455000D03*
X99105000Y-106995000D03*
%TD*%
D10*
%TO.C,H2*%
X59900000Y-43700000D03*
%TD*%
D20*
%TO.C,J1*%
X104275000Y-49225000D03*
D14*
X99275000Y-49225000D03*
%TD*%
D15*
%TO.C,J10*%
X155150000Y-62525000D03*
D14*
X155150000Y-57525000D03*
X155150000Y-52525000D03*
%TD*%
D11*
%TO.C,K3*%
X88475000Y-91975000D03*
D12*
X86475000Y-85975000D03*
X74275000Y-85975000D03*
X74275000Y-97975000D03*
X86475000Y-97975000D03*
%TD*%
D11*
%TO.C,K8*%
X128275000Y-57025000D03*
D12*
X130275000Y-63025000D03*
X142475000Y-63025000D03*
X142475000Y-51025000D03*
X130275000Y-51025000D03*
%TD*%
D13*
%TO.C,J4*%
X61950000Y-69000000D03*
D14*
X61950000Y-74000000D03*
X61950000Y-79000000D03*
%TD*%
M02*
