M48
; DRILL file {KiCad 9.0.6} date 2026-04-01T13:17:11+0530
; FORMAT={-:-/ absolute / metric / decimal}
; #@! TF.CreationDate,2026-04-01T13:17:11+05:30
; #@! TF.GenerationSoftware,Kicad,Pcbnew,9.0.6
; #@! TF.FileFunction,Plated,1,2,PTH
FMAT,2
METRIC
; #@! TA.AperFunction,Plated,PTH,ViaDrill
T1C0.100
; #@! TA.AperFunction,Plated,PTH,ViaDrill
T2C0.300
; #@! TA.AperFunction,Plated,PTH,ComponentDrill
T3C0.800
; #@! TA.AperFunction,Plated,PTH,ComponentDrill
T4C1.000
; #@! TA.AperFunction,Plated,PTH,ComponentDrill
T5C1.300
; #@! TA.AperFunction,Plated,PTH,ComponentDrill
T6C1.700
; #@! TA.AperFunction,Plated,PTH,ComponentDrill
T7C2.500
%
G90
G05
T1
X67.183Y-47.117
X102.616Y-69.596
X109.22Y-74.964
X109.22Y-76.265
T2
X65.354Y-122.25
X65.647Y-43.7
X76.454Y-45.974
X93.091Y-49.276
X96.774Y-112.649
X102.489Y-86.995
X103.237Y-62.1
X107.05Y-60.15
X108.331Y-86.614
X112.521Y-84.075
X118.11Y-87.122
X118.237Y-108.458
X149.618Y-43.7
X150.241Y-47.244
X151.206Y-122.25
T3
X99.105Y-73.975
X99.105Y-76.515
X99.105Y-79.055
X99.105Y-81.595
X99.105Y-84.135
X99.105Y-86.675
X99.105Y-89.215
X99.105Y-91.755
X99.105Y-94.295
X99.105Y-96.835
X99.105Y-99.375
X99.105Y-101.915
X99.105Y-104.455
X99.105Y-106.995
X106.725Y-73.975
X106.725Y-76.515
X106.725Y-79.055
X106.725Y-81.595
X106.725Y-84.135
X106.725Y-86.675
X106.725Y-89.215
X106.725Y-91.755
X106.725Y-94.295
X106.725Y-96.835
X106.725Y-99.375
X106.725Y-101.915
X106.725Y-104.455
X106.725Y-106.995
T4
X99.195Y-113.975
X101.735Y-113.975
X104.275Y-113.975
X106.815Y-113.975
X109.355Y-113.975
X111.895Y-113.975
X114.435Y-113.975
X116.975Y-113.975
T5
X74.275Y-49.875
X74.275Y-61.875
X74.275Y-67.925
X74.275Y-79.925
X74.275Y-85.975
X74.275Y-97.975
X74.275Y-104.025
X74.275Y-116.025
X86.475Y-49.875
X86.475Y-61.875
X86.475Y-67.925
X86.475Y-79.925
X86.475Y-85.975
X86.475Y-97.975
X86.475Y-104.025
X86.475Y-116.025
X88.475Y-55.875
X88.475Y-73.925
X88.475Y-91.975
X88.475Y-110.025
X128.275Y-57.025
X128.275Y-75.075
X128.275Y-93.125
X128.275Y-111.175
X130.275Y-51.025
X130.275Y-63.025
X130.275Y-69.075
X130.275Y-81.075
X130.275Y-87.125
X130.275Y-99.125
X130.275Y-105.175
X130.275Y-117.175
X142.475Y-51.025
X142.475Y-63.025
X142.475Y-69.075
X142.475Y-81.075
X142.475Y-87.125
X142.475Y-99.125
X142.475Y-105.175
X142.475Y-117.175
T6
X61.95Y-50.6
X61.95Y-55.6
X61.95Y-60.6
X61.95Y-69.0
X61.95Y-74.0
X61.95Y-79.0
X62.15Y-86.2
X62.15Y-91.2
X62.15Y-96.2
X62.15Y-105.4
X62.15Y-110.4
X62.15Y-115.4
X99.275Y-49.225
X104.275Y-49.225
X155.15Y-52.525
X155.15Y-57.525
X155.15Y-62.525
X155.15Y-70.525
X155.15Y-75.525
X155.15Y-80.525
X155.15Y-88.325
X155.15Y-93.325
X155.15Y-98.325
X155.15Y-105.5
X155.15Y-110.5
X155.15Y-115.5
T7
X58.9Y-122.25
X59.9Y-43.7
X156.1Y-43.7
X156.1Y-122.25
M30
