%TF.GenerationSoftware,KiCad,Pcbnew,9.0.6*%
%TF.CreationDate,2026-04-01T13:16:39+05:30*%
%TF.ProjectId,realy_8_connections,7265616c-795f-4385-9f63-6f6e6e656374,rev?*%
%TF.SameCoordinates,Original*%
%TF.FileFunction,Paste,Top*%
%TF.FilePolarity,Positive*%
%FSLAX46Y46*%
G04 Gerber Fmt 4.6, Leading zero omitted, Abs format (unit mm)*
G04 Created by KiCad (PCBNEW 9.0.6) date 2026-04-01 13:16:39*
%MOMM*%
%LPD*%
G01*
G04 APERTURE LIST*
G04 Aperture macros list*
%AMRoundRect*
0 Rectangle with rounded corners*
0 $1 Rounding radius*
0 $2 $3 $4 $5 $6 $7 $8 $9 X,Y pos of 4 corners*
0 Add a 4 corners polygon primitive as box body*
4,1,4,$2,$3,$4,$5,$6,$7,$8,$9,$2,$3,0*
0 Add four circle primitives for the rounded corners*
1,1,$1+$1,$2,$3*
1,1,$1+$1,$4,$5*
1,1,$1+$1,$6,$7*
1,1,$1+$1,$8,$9*
0 Add four rect primitives between the rounded corners*
20,1,$1+$1,$2,$3,$4,$5,0*
20,1,$1+$1,$4,$5,$6,$7,0*
20,1,$1+$1,$6,$7,$8,$9,0*
20,1,$1+$1,$8,$9,$2,$3,0*%
G04 Aperture macros list end*
%ADD10RoundRect,0.250000X-0.262500X-0.450000X0.262500X-0.450000X0.262500X0.450000X-0.262500X0.450000X0*%
%ADD11RoundRect,0.250000X0.262500X0.450000X-0.262500X0.450000X-0.262500X-0.450000X0.262500X-0.450000X0*%
%ADD12RoundRect,0.243750X-0.456250X0.243750X-0.456250X-0.243750X0.456250X-0.243750X0.456250X0.243750X0*%
%ADD13RoundRect,0.243750X0.456250X-0.243750X0.456250X0.243750X-0.456250X0.243750X-0.456250X-0.243750X0*%
%ADD14RoundRect,0.250000X-0.625000X0.375000X-0.625000X-0.375000X0.625000X-0.375000X0.625000X0.375000X0*%
%ADD15RoundRect,0.250000X0.450000X-0.262500X0.450000X0.262500X-0.450000X0.262500X-0.450000X-0.262500X0*%
%ADD16RoundRect,0.250000X0.475000X-0.250000X0.475000X0.250000X-0.475000X0.250000X-0.475000X-0.250000X0*%
%ADD17RoundRect,0.250000X-0.450000X0.262500X-0.450000X-0.262500X0.450000X-0.262500X0.450000X0.262500X0*%
%ADD18RoundRect,0.250000X0.625000X-0.375000X0.625000X0.375000X-0.625000X0.375000X-0.625000X-0.375000X0*%
%ADD19RoundRect,0.243750X0.243750X0.456250X-0.243750X0.456250X-0.243750X-0.456250X0.243750X-0.456250X0*%
%ADD20RoundRect,0.250000X-0.250000X-0.475000X0.250000X-0.475000X0.250000X0.475000X-0.250000X0.475000X0*%
%ADD21RoundRect,0.250000X0.830000X0.310000X-0.830000X0.310000X-0.830000X-0.310000X0.830000X-0.310000X0*%
G04 APERTURE END LIST*
D10*
%TO.C,R11*%
X110031500Y-104737500D03*
X111856500Y-104737500D03*
%TD*%
D11*
%TO.C,R3*%
X118414000Y-104695000D03*
X116589000Y-104695000D03*
%TD*%
%TO.C,R1*%
X99575000Y-60450000D03*
X97750000Y-60450000D03*
%TD*%
D12*
%TO.C,D12*%
X124275000Y-76287500D03*
X124275000Y-78162500D03*
%TD*%
D13*
%TO.C,D4*%
X92475000Y-71900000D03*
X92475000Y-70025000D03*
%TD*%
D14*
%TO.C,D14*%
X124175000Y-105525000D03*
X124175000Y-108325000D03*
%TD*%
D15*
%TO.C,R19*%
X92475000Y-68025000D03*
X92475000Y-66200000D03*
%TD*%
D10*
%TO.C,R16*%
X110031500Y-91737500D03*
X111856500Y-91737500D03*
%TD*%
%TO.C,R12*%
X110031500Y-102087500D03*
X111856500Y-102087500D03*
%TD*%
%TO.C,R13*%
X110031500Y-99537500D03*
X111856500Y-99537500D03*
%TD*%
D16*
%TO.C,D5*%
X92525000Y-75775000D03*
X92525000Y-73875000D03*
%TD*%
D13*
%TO.C,D3*%
X92625000Y-55025000D03*
X92625000Y-53150000D03*
%TD*%
%TO.C,D6*%
X92475000Y-95025000D03*
X92475000Y-93150000D03*
%TD*%
D10*
%TO.C,R10*%
X110031500Y-107012500D03*
X111856500Y-107012500D03*
%TD*%
D11*
%TO.C,R2*%
X118364000Y-107145000D03*
X116539000Y-107145000D03*
%TD*%
D12*
%TO.C,D11*%
X124275000Y-94025000D03*
X124275000Y-95900000D03*
%TD*%
D10*
%TO.C,R14*%
X110031500Y-96887500D03*
X111856500Y-96887500D03*
%TD*%
D17*
%TO.C,R22*%
X124275000Y-116225000D03*
X124275000Y-118050000D03*
%TD*%
D18*
%TO.C,D9*%
X92675000Y-116825000D03*
X92675000Y-114025000D03*
%TD*%
D11*
%TO.C,R4*%
X118389000Y-102120000D03*
X116564000Y-102120000D03*
%TD*%
D15*
%TO.C,R20*%
X92475000Y-86250000D03*
X92475000Y-84425000D03*
%TD*%
D12*
%TO.C,D13*%
X124200000Y-58275000D03*
X124200000Y-60150000D03*
%TD*%
D19*
%TO.C,D1*%
X103237500Y-60500000D03*
X101362500Y-60500000D03*
%TD*%
D17*
%TO.C,R24*%
X124275000Y-80400000D03*
X124275000Y-82225000D03*
%TD*%
D12*
%TO.C,D10*%
X124200000Y-111950000D03*
X124200000Y-113825000D03*
%TD*%
D17*
%TO.C,R25*%
X124275000Y-62425000D03*
X124275000Y-64250000D03*
%TD*%
D14*
%TO.C,D17*%
X124075000Y-51425000D03*
X124075000Y-54225000D03*
%TD*%
D11*
%TO.C,R6*%
X118389000Y-97095000D03*
X116564000Y-97095000D03*
%TD*%
D18*
%TO.C,D8*%
X92675000Y-100025000D03*
X92675000Y-97225000D03*
%TD*%
D13*
%TO.C,D7*%
X92675000Y-111225000D03*
X92675000Y-109350000D03*
%TD*%
D10*
%TO.C,R15*%
X110031500Y-94437500D03*
X111856500Y-94437500D03*
%TD*%
D16*
%TO.C,C1*%
X105175000Y-62000000D03*
X105175000Y-60100000D03*
%TD*%
D14*
%TO.C,D15*%
X124175000Y-88025000D03*
X124175000Y-90825000D03*
%TD*%
D20*
%TO.C,C2*%
X109275000Y-84075000D03*
X111175000Y-84075000D03*
%TD*%
D10*
%TO.C,R17*%
X110031500Y-89220000D03*
X111856500Y-89220000D03*
%TD*%
D16*
%TO.C,D2*%
X92650000Y-59275000D03*
X92650000Y-57375000D03*
%TD*%
D14*
%TO.C,D16*%
X124075000Y-69925000D03*
X124075000Y-72725000D03*
%TD*%
D17*
%TO.C,R23*%
X124275000Y-98025000D03*
X124275000Y-99850000D03*
%TD*%
D15*
%TO.C,R21*%
X92475000Y-104850000D03*
X92475000Y-103025000D03*
%TD*%
D11*
%TO.C,R7*%
X118389000Y-94545000D03*
X116564000Y-94545000D03*
%TD*%
%TO.C,R5*%
X118389000Y-99545000D03*
X116564000Y-99545000D03*
%TD*%
%TO.C,R9*%
X118389000Y-89145000D03*
X116564000Y-89145000D03*
%TD*%
D21*
%TO.C,SW1*%
X105075000Y-56425000D03*
X98345000Y-56425000D03*
%TD*%
D15*
%TO.C,R18*%
X92625000Y-63150000D03*
X92625000Y-61325000D03*
%TD*%
D11*
%TO.C,R8*%
X118389000Y-91995000D03*
X116564000Y-91995000D03*
%TD*%
M02*
