%TF.GenerationSoftware,KiCad,Pcbnew,9.0.6*%
%TF.CreationDate,2026-04-01T13:16:39+05:30*%
%TF.ProjectId,realy_8_connections,7265616c-795f-4385-9f63-6f6e6e656374,rev?*%
%TF.SameCoordinates,Original*%
%TF.FileFunction,Copper,L2,Bot*%
%TF.FilePolarity,Positive*%
%FSLAX46Y46*%
G04 Gerber Fmt 4.6, Leading zero omitted, Abs format (unit mm)*
G04 Created by KiCad (PCBNEW 9.0.6) date 2026-04-01 13:16:39*
%MOMM*%
%LPD*%
G01*
G04 APERTURE LIST*
G04 Aperture macros list*
%AMRoundRect*
0 Rectangle with rounded corners*
0 $1 Rounding radius*
0 $2 $3 $4 $5 $6 $7 $8 $9 X,Y pos of 4 corners*
0 Add a 4 corners polygon primitive as box body*
4,1,4,$2,$3,$4,$5,$6,$7,$8,$9,$2,$3,0*
0 Add four circle primitives for the rounded corners*
1,1,$1+$1,$2,$3*
1,1,$1+$1,$4,$5*
1,1,$1+$1,$6,$7*
1,1,$1+$1,$8,$9*
0 Add four rect primitives between the rounded corners*
20,1,$1+$1,$2,$3,$4,$5,0*
20,1,$1+$1,$4,$5,$6,$7,0*
20,1,$1+$1,$6,$7,$8,$9,0*
20,1,$1+$1,$8,$9,$2,$3,0*%
G04 Aperture macros list end*
%TA.AperFunction,ComponentPad*%
%ADD10C,5.000000*%
%TD*%
%TA.AperFunction,ComponentPad*%
%ADD11R,2.500000X2.500000*%
%TD*%
%TA.AperFunction,ComponentPad*%
%ADD12O,2.500000X2.500000*%
%TD*%
%TA.AperFunction,ComponentPad*%
%ADD13RoundRect,0.250001X-1.099999X1.099999X-1.099999X-1.099999X1.099999X-1.099999X1.099999X1.099999X0*%
%TD*%
%TA.AperFunction,ComponentPad*%
%ADD14C,2.700000*%
%TD*%
%TA.AperFunction,ComponentPad*%
%ADD15RoundRect,0.250001X1.099999X-1.099999X1.099999X1.099999X-1.099999X1.099999X-1.099999X-1.099999X0*%
%TD*%
%TA.AperFunction,ComponentPad*%
%ADD16R,1.700000X1.700000*%
%TD*%
%TA.AperFunction,ComponentPad*%
%ADD17C,1.700000*%
%TD*%
%TA.AperFunction,ComponentPad*%
%ADD18RoundRect,0.250000X0.950000X0.550000X-0.950000X0.550000X-0.950000X-0.550000X0.950000X-0.550000X0*%
%TD*%
%TA.AperFunction,ComponentPad*%
%ADD19O,2.400000X1.600000*%
%TD*%
%TA.AperFunction,ComponentPad*%
%ADD20RoundRect,0.250001X1.099999X1.099999X-1.099999X1.099999X-1.099999X-1.099999X1.099999X-1.099999X0*%
%TD*%
%TA.AperFunction,ViaPad*%
%ADD21C,0.600000*%
%TD*%
%TA.AperFunction,ViaPad*%
%ADD22C,0.300000*%
%TD*%
%TA.AperFunction,Conductor*%
%ADD23C,0.500000*%
%TD*%
%TA.AperFunction,Conductor*%
%ADD24C,0.200000*%
%TD*%
G04 APERTURE END LIST*
D10*
%TO.P,H1,1*%
%TO.N,GND*%
X58900000Y-122250000D03*
%TD*%
D11*
%TO.P,K4,1*%
%TO.N,Net-(J6-Pin_2)*%
X88475000Y-110025000D03*
D12*
%TO.P,K4,2*%
%TO.N,/O4*%
X86475000Y-104025000D03*
%TO.P,K4,3*%
%TO.N,Net-(J6-Pin_1)*%
X74275000Y-104025000D03*
%TO.P,K4,4*%
%TO.N,Net-(J6-Pin_3)*%
X74275000Y-116025000D03*
%TO.P,K4,5*%
%TO.N,VCC*%
X86475000Y-116025000D03*
%TD*%
D10*
%TO.P,H4,1*%
%TO.N,GND*%
X156100000Y-122250000D03*
%TD*%
D13*
%TO.P,J5,1,Pin_1*%
%TO.N,Net-(J5-Pin_1)*%
X62150000Y-86200000D03*
D14*
%TO.P,J5,2,Pin_2*%
%TO.N,Net-(J5-Pin_2)*%
X62150000Y-91200000D03*
%TO.P,J5,3,Pin_3*%
%TO.N,Net-(J5-Pin_3)*%
X62150000Y-96200000D03*
%TD*%
D11*
%TO.P,K2,1*%
%TO.N,Net-(J4-Pin_2)*%
X88475000Y-73925000D03*
D12*
%TO.P,K2,2*%
%TO.N,/O2*%
X86475000Y-67925000D03*
%TO.P,K2,3*%
%TO.N,Net-(J4-Pin_1)*%
X74275000Y-67925000D03*
%TO.P,K2,4*%
%TO.N,Net-(J4-Pin_3)*%
X74275000Y-79925000D03*
%TO.P,K2,5*%
%TO.N,VCC*%
X86475000Y-79925000D03*
%TD*%
D11*
%TO.P,K7,1*%
%TO.N,Net-(J9-Pin_2)*%
X128275000Y-75075000D03*
D12*
%TO.P,K7,2*%
%TO.N,/O7*%
X130275000Y-81075000D03*
%TO.P,K7,3*%
%TO.N,Net-(J9-Pin_1)*%
X142475000Y-81075000D03*
%TO.P,K7,4*%
%TO.N,Net-(J9-Pin_3)*%
X142475000Y-69075000D03*
%TO.P,K7,5*%
%TO.N,VCC*%
X130275000Y-69075000D03*
%TD*%
D13*
%TO.P,J3,1,Pin_1*%
%TO.N,Net-(J3-Pin_1)*%
X61950000Y-50600000D03*
D14*
%TO.P,J3,2,Pin_2*%
%TO.N,Net-(J3-Pin_2)*%
X61950000Y-55600000D03*
%TO.P,J3,3,Pin_3*%
%TO.N,Net-(J3-Pin_3)*%
X61950000Y-60600000D03*
%TD*%
D15*
%TO.P,J8,1,Pin_1*%
%TO.N,Net-(J8-Pin_1)*%
X155150000Y-98325000D03*
D14*
%TO.P,J8,2,Pin_2*%
%TO.N,Net-(J8-Pin_2)*%
X155150000Y-93325000D03*
%TO.P,J8,3,Pin_3*%
%TO.N,Net-(J8-Pin_3)*%
X155150000Y-88325000D03*
%TD*%
D13*
%TO.P,J6,1,Pin_1*%
%TO.N,Net-(J6-Pin_1)*%
X62150000Y-105400000D03*
D14*
%TO.P,J6,2,Pin_2*%
%TO.N,Net-(J6-Pin_2)*%
X62150000Y-110400000D03*
%TO.P,J6,3,Pin_3*%
%TO.N,Net-(J6-Pin_3)*%
X62150000Y-115400000D03*
%TD*%
D11*
%TO.P,K1,1*%
%TO.N,Net-(J3-Pin_2)*%
X88475000Y-55875000D03*
D12*
%TO.P,K1,2*%
%TO.N,/O1*%
X86475000Y-49875000D03*
%TO.P,K1,3*%
%TO.N,Net-(J3-Pin_1)*%
X74275000Y-49875000D03*
%TO.P,K1,4*%
%TO.N,Net-(J3-Pin_3)*%
X74275000Y-61875000D03*
%TO.P,K1,5*%
%TO.N,VCC*%
X86475000Y-61875000D03*
%TD*%
D15*
%TO.P,J7,1,Pin_1*%
%TO.N,Net-(J7-Pin_1)*%
X155150000Y-115500000D03*
D14*
%TO.P,J7,2,Pin_2*%
%TO.N,Net-(J7-Pin_2)*%
X155150000Y-110500000D03*
%TO.P,J7,3,Pin_3*%
%TO.N,Net-(J7-Pin_3)*%
X155150000Y-105500000D03*
%TD*%
D10*
%TO.P,H3,1*%
%TO.N,GND*%
X156100000Y-43700000D03*
%TD*%
D11*
%TO.P,K6,1*%
%TO.N,Net-(J8-Pin_2)*%
X128275000Y-93125000D03*
D12*
%TO.P,K6,2*%
%TO.N,/O6*%
X130275000Y-99125000D03*
%TO.P,K6,3*%
%TO.N,Net-(J8-Pin_1)*%
X142475000Y-99125000D03*
%TO.P,K6,4*%
%TO.N,Net-(J8-Pin_3)*%
X142475000Y-87125000D03*
%TO.P,K6,5*%
%TO.N,VCC*%
X130275000Y-87125000D03*
%TD*%
D15*
%TO.P,J9,1,Pin_1*%
%TO.N,Net-(J9-Pin_1)*%
X155150000Y-80525000D03*
D14*
%TO.P,J9,2,Pin_2*%
%TO.N,Net-(J9-Pin_2)*%
X155150000Y-75525000D03*
%TO.P,J9,3,Pin_3*%
%TO.N,Net-(J9-Pin_3)*%
X155150000Y-70525000D03*
%TD*%
D11*
%TO.P,K5,1*%
%TO.N,Net-(J7-Pin_2)*%
X128275000Y-111175000D03*
D12*
%TO.P,K5,2*%
%TO.N,/O5*%
X130275000Y-117175000D03*
%TO.P,K5,3*%
%TO.N,Net-(J7-Pin_1)*%
X142475000Y-117175000D03*
%TO.P,K5,4*%
%TO.N,Net-(J7-Pin_3)*%
X142475000Y-105175000D03*
%TO.P,K5,5*%
%TO.N,VCC*%
X130275000Y-105175000D03*
%TD*%
D16*
%TO.P,J2,1,Pin_1*%
%TO.N,Net-(J2-Pin_1)*%
X116975000Y-113975000D03*
D17*
%TO.P,J2,2,Pin_2*%
%TO.N,Net-(J2-Pin_2)*%
X114435000Y-113975000D03*
%TO.P,J2,3,Pin_3*%
%TO.N,Net-(J2-Pin_3)*%
X111895000Y-113975000D03*
%TO.P,J2,4,Pin_4*%
%TO.N,Net-(J2-Pin_4)*%
X109355000Y-113975000D03*
%TO.P,J2,5,Pin_5*%
%TO.N,Net-(J2-Pin_5)*%
X106815000Y-113975000D03*
%TO.P,J2,6,Pin_6*%
%TO.N,Net-(J2-Pin_6)*%
X104275000Y-113975000D03*
%TO.P,J2,7,Pin_7*%
%TO.N,Net-(J2-Pin_7)*%
X101735000Y-113975000D03*
%TO.P,J2,8,Pin_8*%
%TO.N,Net-(J2-Pin_8)*%
X99195000Y-113975000D03*
%TD*%
D18*
%TO.P,U1,1,I1*%
%TO.N,Net-(U1-I1)*%
X106725000Y-106995000D03*
D19*
%TO.P,U1,2,I2*%
%TO.N,Net-(U1-I2)*%
X106725000Y-104455000D03*
%TO.P,U1,3,I3*%
%TO.N,Net-(U1-I3)*%
X106725000Y-101915000D03*
%TO.P,U1,4,I4*%
%TO.N,Net-(U1-I4)*%
X106725000Y-99375000D03*
%TO.P,U1,5,I5*%
%TO.N,Net-(U1-I5)*%
X106725000Y-96835000D03*
%TO.P,U1,6,I6*%
%TO.N,Net-(U1-I6)*%
X106725000Y-94295000D03*
%TO.P,U1,7,I7*%
%TO.N,Net-(U1-I7)*%
X106725000Y-91755000D03*
%TO.P,U1,8,I8*%
%TO.N,Net-(U1-I8)*%
X106725000Y-89215000D03*
%TO.P,U1,9,GND*%
%TO.N,GND*%
X106725000Y-86675000D03*
%TO.P,U1,10,COM*%
%TO.N,VCC*%
X106725000Y-84135000D03*
%TO.P,U1,11,O8*%
%TO.N,/O8*%
X106725000Y-81595000D03*
%TO.P,U1,12,O7*%
%TO.N,/O7*%
X106725000Y-79055000D03*
%TO.P,U1,13,O6*%
%TO.N,/O6*%
X106725000Y-76515000D03*
%TO.P,U1,14,O5*%
%TO.N,/O5*%
X106725000Y-73975000D03*
%TO.P,U1,15,O4*%
%TO.N,/O4*%
X99105000Y-73975000D03*
%TO.P,U1,16,O3*%
%TO.N,/O3*%
X99105000Y-76515000D03*
%TO.P,U1,17,O2*%
%TO.N,/O2*%
X99105000Y-79055000D03*
%TO.P,U1,18,O1*%
%TO.N,/O1*%
X99105000Y-81595000D03*
%TO.P,U1,19*%
%TO.N,N/C*%
X99105000Y-84135000D03*
%TO.P,U1,20*%
X99105000Y-86675000D03*
%TO.P,U1,21*%
X99105000Y-89215000D03*
%TO.P,U1,22*%
X99105000Y-91755000D03*
%TO.P,U1,23*%
X99105000Y-94295000D03*
%TO.P,U1,24*%
X99105000Y-96835000D03*
%TO.P,U1,25*%
X99105000Y-99375000D03*
%TO.P,U1,26*%
X99105000Y-101915000D03*
%TO.P,U1,27*%
X99105000Y-104455000D03*
%TO.P,U1,28*%
X99105000Y-106995000D03*
%TD*%
D10*
%TO.P,H2,1*%
%TO.N,GND*%
X59900000Y-43700000D03*
%TD*%
D20*
%TO.P,J1,1,Pin_1*%
%TO.N,Net-(J1-Pin_1)*%
X104275000Y-49225000D03*
D14*
%TO.P,J1,2,Pin_2*%
%TO.N,GND*%
X99275000Y-49225000D03*
%TD*%
D15*
%TO.P,J10,1,Pin_1*%
%TO.N,Net-(J10-Pin_1)*%
X155150000Y-62525000D03*
D14*
%TO.P,J10,2,Pin_2*%
%TO.N,Net-(J10-Pin_2)*%
X155150000Y-57525000D03*
%TO.P,J10,3,Pin_3*%
%TO.N,Net-(J10-Pin_3)*%
X155150000Y-52525000D03*
%TD*%
D11*
%TO.P,K3,1*%
%TO.N,Net-(J5-Pin_2)*%
X88475000Y-91975000D03*
D12*
%TO.P,K3,2*%
%TO.N,/O3*%
X86475000Y-85975000D03*
%TO.P,K3,3*%
%TO.N,Net-(J5-Pin_1)*%
X74275000Y-85975000D03*
%TO.P,K3,4*%
%TO.N,Net-(J5-Pin_3)*%
X74275000Y-97975000D03*
%TO.P,K3,5*%
%TO.N,VCC*%
X86475000Y-97975000D03*
%TD*%
D11*
%TO.P,K8,1*%
%TO.N,Net-(J10-Pin_2)*%
X128275000Y-57025000D03*
D12*
%TO.P,K8,2*%
%TO.N,/O8*%
X130275000Y-63025000D03*
%TO.P,K8,3*%
%TO.N,Net-(J10-Pin_1)*%
X142475000Y-63025000D03*
%TO.P,K8,4*%
%TO.N,Net-(J10-Pin_3)*%
X142475000Y-51025000D03*
%TO.P,K8,5*%
%TO.N,VCC*%
X130275000Y-51025000D03*
%TD*%
D13*
%TO.P,J4,1,Pin_1*%
%TO.N,Net-(J4-Pin_1)*%
X61950000Y-69000000D03*
D14*
%TO.P,J4,2,Pin_2*%
%TO.N,Net-(J4-Pin_2)*%
X61950000Y-74000000D03*
%TO.P,J4,3,Pin_3*%
%TO.N,Net-(J4-Pin_3)*%
X61950000Y-79000000D03*
%TD*%
D21*
%TO.N,GND*%
X96774000Y-112649000D03*
X112521000Y-84075000D03*
X65354000Y-122250000D03*
X118110000Y-87122000D03*
X149618000Y-43700000D03*
X108331000Y-86614000D03*
X76454000Y-45974000D03*
X118237000Y-108458000D03*
X65647000Y-43700000D03*
X107050000Y-60150000D03*
X103237500Y-62100000D03*
X93091000Y-49276000D03*
X102489000Y-86995000D03*
X150241000Y-47244000D03*
X151206000Y-122250000D03*
D22*
X102616000Y-69596000D03*
X67183000Y-47117000D03*
%TO.N,/O8*%
X109220000Y-76265000D03*
X109220000Y-74964000D03*
%TD*%
D23*
%TO.N,GND*%
X108619000Y-84781000D02*
X108619000Y-58569000D01*
X106725000Y-86675000D02*
X108619000Y-84781000D01*
X93142000Y-49225000D02*
X93091000Y-49276000D01*
X108619000Y-58569000D02*
X99275000Y-49225000D01*
D24*
%TO.N,/O8*%
X109220000Y-76265000D02*
X109220000Y-74964000D01*
%TD*%
%TA.AperFunction,Conductor*%
%TO.N,GND*%
G36*
X163026241Y-40149942D02*
G01*
X163093269Y-40169657D01*
X163138999Y-40222483D01*
X163150181Y-40273760D01*
X163274817Y-125250875D01*
X163255231Y-125317943D01*
X163202494Y-125363776D01*
X163150874Y-125375057D01*
X54674202Y-125424942D01*
X54607154Y-125405288D01*
X54561374Y-125352505D01*
X54550145Y-125300799D01*
X54561890Y-115278711D01*
X60299500Y-115278711D01*
X60299500Y-115521288D01*
X60331161Y-115761785D01*
X60393947Y-115996104D01*
X60453438Y-116139727D01*
X60486776Y-116220212D01*
X60608064Y-116430289D01*
X60608066Y-116430292D01*
X60608067Y-116430293D01*
X60755733Y-116622736D01*
X60755739Y-116622743D01*
X60927256Y-116794260D01*
X60927263Y-116794266D01*
X60935893Y-116800888D01*
X61119711Y-116941936D01*
X61329788Y-117063224D01*
X61553900Y-117156054D01*
X61788211Y-117218838D01*
X61968586Y-117242584D01*
X62028711Y-117250500D01*
X62028712Y-117250500D01*
X62271289Y-117250500D01*
X62319388Y-117244167D01*
X62511789Y-117218838D01*
X62746100Y-117156054D01*
X62970212Y-117063224D01*
X63180289Y-116941936D01*
X63372738Y-116794265D01*
X63544265Y-116622738D01*
X63691936Y-116430289D01*
X63813224Y-116220212D01*
X63906054Y-115996100D01*
X63929055Y-115910258D01*
X72524500Y-115910258D01*
X72524500Y-116139741D01*
X72549446Y-116329215D01*
X72554452Y-116367238D01*
X72613842Y-116588887D01*
X72701650Y-116800876D01*
X72701656Y-116800888D01*
X72813268Y-116994207D01*
X72816392Y-116999617D01*
X72956081Y-117181661D01*
X72956089Y-117181670D01*
X73118330Y-117343911D01*
X73118338Y-117343918D01*
X73118339Y-117343919D01*
X73168962Y-117382764D01*
X73300382Y-117483607D01*
X73300385Y-117483608D01*
X73300388Y-117483611D01*
X73499112Y-117598344D01*
X73499117Y-117598346D01*
X73499123Y-117598349D01*
X73590480Y-117636190D01*
X73711113Y-117686158D01*
X73932762Y-117745548D01*
X74160266Y-117775500D01*
X74160273Y-117775500D01*
X74389727Y-117775500D01*
X74389734Y-117775500D01*
X74617238Y-117745548D01*
X74838887Y-117686158D01*
X75050888Y-117598344D01*
X75249612Y-117483611D01*
X75431661Y-117343919D01*
X75431665Y-117343914D01*
X75431670Y-117343911D01*
X75593911Y-117181670D01*
X75593914Y-117181665D01*
X75593919Y-117181661D01*
X75733611Y-116999612D01*
X75848344Y-116800888D01*
X75936158Y-116588887D01*
X75995548Y-116367238D01*
X76025500Y-116139734D01*
X76025500Y-115910266D01*
X76025499Y-115910258D01*
X84724500Y-115910258D01*
X84724500Y-116139741D01*
X84749446Y-116329215D01*
X84754452Y-116367238D01*
X84813842Y-116588887D01*
X84901650Y-116800876D01*
X84901656Y-116800888D01*
X85013268Y-116994207D01*
X85016392Y-116999617D01*
X85156081Y-117181661D01*
X85156089Y-117181670D01*
X85318330Y-117343911D01*
X85318338Y-117343918D01*
X85318339Y-117343919D01*
X85368962Y-117382764D01*
X85500382Y-117483607D01*
X85500385Y-117483608D01*
X85500388Y-117483611D01*
X85699112Y-117598344D01*
X85699117Y-117598346D01*
X85699123Y-117598349D01*
X85790480Y-117636190D01*
X85911113Y-117686158D01*
X86132762Y-117745548D01*
X86360266Y-117775500D01*
X86360273Y-117775500D01*
X86589727Y-117775500D01*
X86589734Y-117775500D01*
X86817238Y-117745548D01*
X87038887Y-117686158D01*
X87250888Y-117598344D01*
X87449612Y-117483611D01*
X87631661Y-117343919D01*
X87631665Y-117343914D01*
X87631670Y-117343911D01*
X87793911Y-117181670D01*
X87793914Y-117181665D01*
X87793919Y-117181661D01*
X87887075Y-117060258D01*
X128524500Y-117060258D01*
X128524500Y-117289741D01*
X128532500Y-117350500D01*
X128554452Y-117517238D01*
X128613842Y-117738887D01*
X128701650Y-117950876D01*
X128701657Y-117950890D01*
X128816392Y-118149617D01*
X128956081Y-118331661D01*
X128956089Y-118331670D01*
X129118330Y-118493911D01*
X129118338Y-118493918D01*
X129300382Y-118633607D01*
X129300385Y-118633608D01*
X129300388Y-118633611D01*
X129499112Y-118748344D01*
X129499117Y-118748346D01*
X129499123Y-118748349D01*
X129590480Y-118786190D01*
X129711113Y-118836158D01*
X129932762Y-118895548D01*
X130160266Y-118925500D01*
X130160273Y-118925500D01*
X130389727Y-118925500D01*
X130389734Y-118925500D01*
X130617238Y-118895548D01*
X130838887Y-118836158D01*
X131050888Y-118748344D01*
X131249612Y-118633611D01*
X131431661Y-118493919D01*
X131431665Y-118493914D01*
X131431670Y-118493911D01*
X131593911Y-118331670D01*
X131593914Y-118331665D01*
X131593919Y-118331661D01*
X131733611Y-118149612D01*
X131848344Y-117950888D01*
X131936158Y-117738887D01*
X131995548Y-117517238D01*
X132025500Y-117289734D01*
X132025500Y-117060266D01*
X132025499Y-117060258D01*
X140724500Y-117060258D01*
X140724500Y-117289741D01*
X140732500Y-117350500D01*
X140754452Y-117517238D01*
X140813842Y-117738887D01*
X140901650Y-117950876D01*
X140901657Y-117950890D01*
X141016392Y-118149617D01*
X141156081Y-118331661D01*
X141156089Y-118331670D01*
X141318330Y-118493911D01*
X141318338Y-118493918D01*
X141500382Y-118633607D01*
X141500385Y-118633608D01*
X141500388Y-118633611D01*
X141699112Y-118748344D01*
X141699117Y-118748346D01*
X141699123Y-118748349D01*
X141790480Y-118786190D01*
X141911113Y-118836158D01*
X142132762Y-118895548D01*
X142360266Y-118925500D01*
X142360273Y-118925500D01*
X142589727Y-118925500D01*
X142589734Y-118925500D01*
X142817238Y-118895548D01*
X143038887Y-118836158D01*
X143250888Y-118748344D01*
X143449612Y-118633611D01*
X143631661Y-118493919D01*
X143631665Y-118493914D01*
X143631670Y-118493911D01*
X143793911Y-118331670D01*
X143793914Y-118331665D01*
X143793919Y-118331661D01*
X143933611Y-118149612D01*
X144048344Y-117950888D01*
X144136158Y-117738887D01*
X144195548Y-117517238D01*
X144225500Y-117289734D01*
X144225500Y-117060266D01*
X144195548Y-116832762D01*
X144136158Y-116611113D01*
X144048344Y-116399112D01*
X143933611Y-116200388D01*
X143933608Y-116200385D01*
X143933607Y-116200382D01*
X143793918Y-116018338D01*
X143793911Y-116018330D01*
X143631670Y-115856089D01*
X143631661Y-115856081D01*
X143449617Y-115716392D01*
X143250890Y-115601657D01*
X143250876Y-115601650D01*
X143038887Y-115513842D01*
X142817238Y-115454452D01*
X142779215Y-115449446D01*
X142589741Y-115424500D01*
X142589734Y-115424500D01*
X142360266Y-115424500D01*
X142360258Y-115424500D01*
X142143715Y-115453009D01*
X142132762Y-115454452D01*
X142107903Y-115461113D01*
X141911112Y-115513842D01*
X141699123Y-115601650D01*
X141699109Y-115601657D01*
X141500382Y-115716392D01*
X141318338Y-115856081D01*
X141156081Y-116018338D01*
X141016392Y-116200382D01*
X140901657Y-116399109D01*
X140901650Y-116399123D01*
X140813842Y-116611112D01*
X140810727Y-116622738D01*
X140764769Y-116794260D01*
X140754453Y-116832759D01*
X140754451Y-116832770D01*
X140724500Y-117060258D01*
X132025499Y-117060258D01*
X131995548Y-116832762D01*
X131936158Y-116611113D01*
X131848344Y-116399112D01*
X131733611Y-116200388D01*
X131733608Y-116200385D01*
X131733607Y-116200382D01*
X131593918Y-116018338D01*
X131593911Y-116018330D01*
X131431670Y-115856089D01*
X131431661Y-115856081D01*
X131249617Y-115716392D01*
X131050890Y-115601657D01*
X131050876Y-115601650D01*
X130838887Y-115513842D01*
X130617238Y-115454452D01*
X130579215Y-115449446D01*
X130389741Y-115424500D01*
X130389734Y-115424500D01*
X130160266Y-115424500D01*
X130160258Y-115424500D01*
X129943715Y-115453009D01*
X129932762Y-115454452D01*
X129907903Y-115461113D01*
X129711112Y-115513842D01*
X129499123Y-115601650D01*
X129499109Y-115601657D01*
X129300382Y-115716392D01*
X129118338Y-115856081D01*
X128956081Y-116018338D01*
X128816392Y-116200382D01*
X128701657Y-116399109D01*
X128701650Y-116399123D01*
X128613842Y-116611112D01*
X128610727Y-116622738D01*
X128564769Y-116794260D01*
X128554453Y-116832759D01*
X128554451Y-116832770D01*
X128524500Y-117060258D01*
X87887075Y-117060258D01*
X87933611Y-116999612D01*
X88048344Y-116800888D01*
X88136158Y-116588887D01*
X88195548Y-116367238D01*
X88225500Y-116139734D01*
X88225500Y-115910266D01*
X88195548Y-115682762D01*
X88136158Y-115461113D01*
X88060605Y-115278712D01*
X88048349Y-115249123D01*
X88048346Y-115249117D01*
X88048344Y-115249112D01*
X87933611Y-115050388D01*
X87933608Y-115050385D01*
X87933607Y-115050382D01*
X87793918Y-114868338D01*
X87793911Y-114868330D01*
X87631670Y-114706089D01*
X87631661Y-114706081D01*
X87449617Y-114566392D01*
X87250890Y-114451657D01*
X87250876Y-114451650D01*
X87038887Y-114363842D01*
X86987216Y-114349997D01*
X86817238Y-114304452D01*
X86779215Y-114299446D01*
X86589741Y-114274500D01*
X86589734Y-114274500D01*
X86360266Y-114274500D01*
X86360258Y-114274500D01*
X86143715Y-114303009D01*
X86132762Y-114304452D01*
X86039076Y-114329554D01*
X85911112Y-114363842D01*
X85699123Y-114451650D01*
X85699109Y-114451657D01*
X85500382Y-114566392D01*
X85318338Y-114706081D01*
X85156081Y-114868338D01*
X85016392Y-115050382D01*
X84901657Y-115249109D01*
X84901650Y-115249123D01*
X84813842Y-115461112D01*
X84754453Y-115682759D01*
X84754451Y-115682770D01*
X84724500Y-115910258D01*
X76025499Y-115910258D01*
X75995548Y-115682762D01*
X75936158Y-115461113D01*
X75860605Y-115278712D01*
X75848349Y-115249123D01*
X75848346Y-115249117D01*
X75848344Y-115249112D01*
X75733611Y-115050388D01*
X75733608Y-115050385D01*
X75733607Y-115050382D01*
X75593918Y-114868338D01*
X75593911Y-114868330D01*
X75431670Y-114706089D01*
X75431661Y-114706081D01*
X75249617Y-114566392D01*
X75050890Y-114451657D01*
X75050876Y-114451650D01*
X74838887Y-114363842D01*
X74787216Y-114349997D01*
X74617238Y-114304452D01*
X74579215Y-114299446D01*
X74389741Y-114274500D01*
X74389734Y-114274500D01*
X74160266Y-114274500D01*
X74160258Y-114274500D01*
X73943715Y-114303009D01*
X73932762Y-114304452D01*
X73839076Y-114329554D01*
X73711112Y-114363842D01*
X73499123Y-114451650D01*
X73499109Y-114451657D01*
X73300382Y-114566392D01*
X73118338Y-114706081D01*
X72956081Y-114868338D01*
X72816392Y-115050382D01*
X72701657Y-115249109D01*
X72701650Y-115249123D01*
X72613842Y-115461112D01*
X72554453Y-115682759D01*
X72554451Y-115682770D01*
X72524500Y-115910258D01*
X63929055Y-115910258D01*
X63968838Y-115761789D01*
X64000500Y-115521288D01*
X64000500Y-115278712D01*
X63968838Y-115038211D01*
X63906054Y-114803900D01*
X63813224Y-114579788D01*
X63691936Y-114369711D01*
X63544265Y-114177262D01*
X63544260Y-114177256D01*
X63372743Y-114005739D01*
X63372736Y-114005733D01*
X63316025Y-113962217D01*
X63194167Y-113868713D01*
X97844500Y-113868713D01*
X97844500Y-114081286D01*
X97870778Y-114247203D01*
X97877754Y-114291243D01*
X97903248Y-114369706D01*
X97943444Y-114493414D01*
X98039951Y-114682820D01*
X98164890Y-114854786D01*
X98315213Y-115005109D01*
X98487179Y-115130048D01*
X98487181Y-115130049D01*
X98487184Y-115130051D01*
X98676588Y-115226557D01*
X98878757Y-115292246D01*
X99088713Y-115325500D01*
X99088714Y-115325500D01*
X99301286Y-115325500D01*
X99301287Y-115325500D01*
X99511243Y-115292246D01*
X99713412Y-115226557D01*
X99902816Y-115130051D01*
X99989138Y-115067335D01*
X100074786Y-115005109D01*
X100074788Y-115005106D01*
X100074792Y-115005104D01*
X100225104Y-114854792D01*
X100225106Y-114854788D01*
X100225109Y-114854786D01*
X100350048Y-114682820D01*
X100350047Y-114682820D01*
X100350051Y-114682816D01*
X100354514Y-114674054D01*
X100402488Y-114623259D01*
X100470308Y-114606463D01*
X100536444Y-114628999D01*
X100575486Y-114674056D01*
X100579951Y-114682820D01*
X100704890Y-114854786D01*
X100855213Y-115005109D01*
X101027179Y-115130048D01*
X101027181Y-115130049D01*
X101027184Y-115130051D01*
X101216588Y-115226557D01*
X101418757Y-115292246D01*
X101628713Y-115325500D01*
X101628714Y-115325500D01*
X101841286Y-115325500D01*
X101841287Y-115325500D01*
X102051243Y-115292246D01*
X102253412Y-115226557D01*
X102442816Y-115130051D01*
X102529138Y-115067335D01*
X102614786Y-115005109D01*
X102614788Y-115005106D01*
X102614792Y-115005104D01*
X102765104Y-114854792D01*
X102765106Y-114854788D01*
X102765109Y-114854786D01*
X102890048Y-114682820D01*
X102890047Y-114682820D01*
X102890051Y-114682816D01*
X102894514Y-114674054D01*
X102942488Y-114623259D01*
X103010308Y-114606463D01*
X103076444Y-114628999D01*
X103115486Y-114674056D01*
X103119951Y-114682820D01*
X103244890Y-114854786D01*
X103395213Y-115005109D01*
X103567179Y-115130048D01*
X103567181Y-115130049D01*
X103567184Y-115130051D01*
X103756588Y-115226557D01*
X103958757Y-115292246D01*
X104168713Y-115325500D01*
X104168714Y-115325500D01*
X104381286Y-115325500D01*
X104381287Y-115325500D01*
X104591243Y-115292246D01*
X104793412Y-115226557D01*
X104982816Y-115130051D01*
X105069138Y-115067335D01*
X105154786Y-115005109D01*
X105154788Y-115005106D01*
X105154792Y-115005104D01*
X105305104Y-114854792D01*
X105305106Y-114854788D01*
X105305109Y-114854786D01*
X105430048Y-114682820D01*
X105430047Y-114682820D01*
X105430051Y-114682816D01*
X105434514Y-114674054D01*
X105482488Y-114623259D01*
X105550308Y-114606463D01*
X105616444Y-114628999D01*
X105655486Y-114674056D01*
X105659951Y-114682820D01*
X105784890Y-114854786D01*
X105935213Y-115005109D01*
X106107179Y-115130048D01*
X106107181Y-115130049D01*
X106107184Y-115130051D01*
X106296588Y-115226557D01*
X106498757Y-115292246D01*
X106708713Y-115325500D01*
X106708714Y-115325500D01*
X106921286Y-115325500D01*
X106921287Y-115325500D01*
X107131243Y-115292246D01*
X107333412Y-115226557D01*
X107522816Y-115130051D01*
X107609138Y-115067335D01*
X107694786Y-115005109D01*
X107694788Y-115005106D01*
X107694792Y-115005104D01*
X107845104Y-114854792D01*
X107845106Y-114854788D01*
X107845109Y-114854786D01*
X107970048Y-114682820D01*
X107970047Y-114682820D01*
X107970051Y-114682816D01*
X107974514Y-114674054D01*
X108022488Y-114623259D01*
X108090308Y-114606463D01*
X108156444Y-114628999D01*
X108195486Y-114674056D01*
X108199951Y-114682820D01*
X108324890Y-114854786D01*
X108475213Y-115005109D01*
X108647179Y-115130048D01*
X108647181Y-115130049D01*
X108647184Y-115130051D01*
X108836588Y-115226557D01*
X109038757Y-115292246D01*
X109248713Y-115325500D01*
X109248714Y-115325500D01*
X109461286Y-115325500D01*
X109461287Y-115325500D01*
X109671243Y-115292246D01*
X109873412Y-115226557D01*
X110062816Y-115130051D01*
X110149138Y-115067335D01*
X110234786Y-115005109D01*
X110234788Y-115005106D01*
X110234792Y-115005104D01*
X110385104Y-114854792D01*
X110385106Y-114854788D01*
X110385109Y-114854786D01*
X110510048Y-114682820D01*
X110510047Y-114682820D01*
X110510051Y-114682816D01*
X110514514Y-114674054D01*
X110562488Y-114623259D01*
X110630308Y-114606463D01*
X110696444Y-114628999D01*
X110735486Y-114674056D01*
X110739951Y-114682820D01*
X110864890Y-114854786D01*
X111015213Y-115005109D01*
X111187179Y-115130048D01*
X111187181Y-115130049D01*
X111187184Y-115130051D01*
X111376588Y-115226557D01*
X111578757Y-115292246D01*
X111788713Y-115325500D01*
X111788714Y-115325500D01*
X112001286Y-115325500D01*
X112001287Y-115325500D01*
X112211243Y-115292246D01*
X112413412Y-115226557D01*
X112602816Y-115130051D01*
X112689138Y-115067335D01*
X112774786Y-115005109D01*
X112774788Y-115005106D01*
X112774792Y-115005104D01*
X112925104Y-114854792D01*
X112925106Y-114854788D01*
X112925109Y-114854786D01*
X113050048Y-114682820D01*
X113050047Y-114682820D01*
X113050051Y-114682816D01*
X113054514Y-114674054D01*
X113102488Y-114623259D01*
X113170308Y-114606463D01*
X113236444Y-114628999D01*
X113275486Y-114674056D01*
X113279951Y-114682820D01*
X113404890Y-114854786D01*
X113555213Y-115005109D01*
X113727179Y-115130048D01*
X113727181Y-115130049D01*
X113727184Y-115130051D01*
X113916588Y-115226557D01*
X114118757Y-115292246D01*
X114328713Y-115325500D01*
X114328714Y-115325500D01*
X114541286Y-115325500D01*
X114541287Y-115325500D01*
X114751243Y-115292246D01*
X114953412Y-115226557D01*
X115142816Y-115130051D01*
X115229147Y-115067328D01*
X115314784Y-115005110D01*
X115314784Y-115005109D01*
X115314792Y-115005104D01*
X115428329Y-114891566D01*
X115489648Y-114858084D01*
X115559340Y-114863068D01*
X115615274Y-114904939D01*
X115632189Y-114935917D01*
X115681202Y-115067328D01*
X115681206Y-115067335D01*
X115767452Y-115182544D01*
X115767455Y-115182547D01*
X115882664Y-115268793D01*
X115882671Y-115268797D01*
X116017517Y-115319091D01*
X116017516Y-115319091D01*
X116024444Y-115319835D01*
X116077127Y-115325500D01*
X117872872Y-115325499D01*
X117932483Y-115319091D01*
X118067331Y-115268796D01*
X118182546Y-115182546D01*
X118268796Y-115067331D01*
X118319091Y-114932483D01*
X118325500Y-114872873D01*
X118325499Y-114349984D01*
X153299500Y-114349984D01*
X153299500Y-116650015D01*
X153310000Y-116752795D01*
X153310001Y-116752797D01*
X153336498Y-116832759D01*
X153365186Y-116919335D01*
X153365187Y-116919337D01*
X153457286Y-117068651D01*
X153457289Y-117068655D01*
X153581344Y-117192710D01*
X153581348Y-117192713D01*
X153730662Y-117284812D01*
X153730664Y-117284813D01*
X153730666Y-117284814D01*
X153897203Y-117339999D01*
X153999992Y-117350500D01*
X153999997Y-117350500D01*
X156300003Y-117350500D01*
X156300008Y-117350500D01*
X156402797Y-117339999D01*
X156569334Y-117284814D01*
X156718655Y-117192711D01*
X156842711Y-117068655D01*
X156934814Y-116919334D01*
X156989999Y-116752797D01*
X157000500Y-116650008D01*
X157000500Y-114349992D01*
X156989999Y-114247203D01*
X156934814Y-114080666D01*
X156888594Y-114005733D01*
X156842713Y-113931348D01*
X156842710Y-113931344D01*
X156718655Y-113807289D01*
X156718651Y-113807286D01*
X156569337Y-113715187D01*
X156569335Y-113715186D01*
X156486065Y-113687593D01*
X156402797Y-113660001D01*
X156402795Y-113660000D01*
X156300015Y-113649500D01*
X156300008Y-113649500D01*
X153999992Y-113649500D01*
X153999984Y-113649500D01*
X153897204Y-113660000D01*
X153897203Y-113660001D01*
X153730664Y-113715186D01*
X153730662Y-113715187D01*
X153581348Y-113807286D01*
X153581344Y-113807289D01*
X153457289Y-113931344D01*
X153457286Y-113931348D01*
X153365187Y-114080662D01*
X153365186Y-114080664D01*
X153310001Y-114247203D01*
X153310000Y-114247204D01*
X153299500Y-114349984D01*
X118325499Y-114349984D01*
X118325499Y-113962217D01*
X118325499Y-113077129D01*
X118325498Y-113077123D01*
X118319091Y-113017516D01*
X118268797Y-112882671D01*
X118268793Y-112882664D01*
X118182547Y-112767455D01*
X118182544Y-112767452D01*
X118067335Y-112681206D01*
X118067328Y-112681202D01*
X117932482Y-112630908D01*
X117932483Y-112630908D01*
X117872883Y-112624501D01*
X117872881Y-112624500D01*
X117872873Y-112624500D01*
X117872864Y-112624500D01*
X116077129Y-112624500D01*
X116077123Y-112624501D01*
X116017516Y-112630908D01*
X115882671Y-112681202D01*
X115882664Y-112681206D01*
X115767455Y-112767452D01*
X115767452Y-112767455D01*
X115681206Y-112882664D01*
X115681203Y-112882669D01*
X115632189Y-113014083D01*
X115590317Y-113070016D01*
X115524853Y-113094433D01*
X115456580Y-113079581D01*
X115428326Y-113058430D01*
X115314786Y-112944890D01*
X115142820Y-112819951D01*
X114953414Y-112723444D01*
X114953413Y-112723443D01*
X114953412Y-112723443D01*
X114751243Y-112657754D01*
X114751241Y-112657753D01*
X114751240Y-112657753D01*
X114589957Y-112632208D01*
X114541287Y-112624500D01*
X114328713Y-112624500D01*
X114280042Y-112632208D01*
X114118760Y-112657753D01*
X113916585Y-112723444D01*
X113727179Y-112819951D01*
X113555213Y-112944890D01*
X113404890Y-113095213D01*
X113279949Y-113267182D01*
X113275484Y-113275946D01*
X113227509Y-113326742D01*
X113159688Y-113343536D01*
X113093553Y-113320998D01*
X113054516Y-113275946D01*
X113050050Y-113267182D01*
X112925109Y-113095213D01*
X112774786Y-112944890D01*
X112602820Y-112819951D01*
X112413414Y-112723444D01*
X112413413Y-112723443D01*
X112413412Y-112723443D01*
X112211243Y-112657754D01*
X112211241Y-112657753D01*
X112211240Y-112657753D01*
X112049957Y-112632208D01*
X112001287Y-112624500D01*
X111788713Y-112624500D01*
X111740042Y-112632208D01*
X111578760Y-112657753D01*
X111376585Y-112723444D01*
X111187179Y-112819951D01*
X111015213Y-112944890D01*
X110864890Y-113095213D01*
X110739949Y-113267182D01*
X110735484Y-113275946D01*
X110687509Y-113326742D01*
X110619688Y-113343536D01*
X110553553Y-113320998D01*
X110514516Y-113275946D01*
X110510050Y-113267182D01*
X110385109Y-113095213D01*
X110234786Y-112944890D01*
X110062820Y-112819951D01*
X109873414Y-112723444D01*
X109873413Y-112723443D01*
X109873412Y-112723443D01*
X109671243Y-112657754D01*
X109671241Y-112657753D01*
X109671240Y-112657753D01*
X109509957Y-112632208D01*
X109461287Y-112624500D01*
X109248713Y-112624500D01*
X109200042Y-112632208D01*
X109038760Y-112657753D01*
X108836585Y-112723444D01*
X108647179Y-112819951D01*
X108475213Y-112944890D01*
X108324890Y-113095213D01*
X108199949Y-113267182D01*
X108195484Y-113275946D01*
X108147509Y-113326742D01*
X108079688Y-113343536D01*
X108013553Y-113320998D01*
X107974516Y-113275946D01*
X107970050Y-113267182D01*
X107845109Y-113095213D01*
X107694786Y-112944890D01*
X107522820Y-112819951D01*
X107333414Y-112723444D01*
X107333413Y-112723443D01*
X107333412Y-112723443D01*
X107131243Y-112657754D01*
X107131241Y-112657753D01*
X107131240Y-112657753D01*
X106969957Y-112632208D01*
X106921287Y-112624500D01*
X106708713Y-112624500D01*
X106660042Y-112632208D01*
X106498760Y-112657753D01*
X106296585Y-112723444D01*
X106107179Y-112819951D01*
X105935213Y-112944890D01*
X105784890Y-113095213D01*
X105659949Y-113267182D01*
X105655484Y-113275946D01*
X105607509Y-113326742D01*
X105539688Y-113343536D01*
X105473553Y-113320998D01*
X105434516Y-113275946D01*
X105430050Y-113267182D01*
X105305109Y-113095213D01*
X105154786Y-112944890D01*
X104982820Y-112819951D01*
X104793414Y-112723444D01*
X104793413Y-112723443D01*
X104793412Y-112723443D01*
X104591243Y-112657754D01*
X104591241Y-112657753D01*
X104591240Y-112657753D01*
X104429957Y-112632208D01*
X104381287Y-112624500D01*
X104168713Y-112624500D01*
X104120042Y-112632208D01*
X103958760Y-112657753D01*
X103756585Y-112723444D01*
X103567179Y-112819951D01*
X103395213Y-112944890D01*
X103244890Y-113095213D01*
X103119949Y-113267182D01*
X103115484Y-113275946D01*
X103067509Y-113326742D01*
X102999688Y-113343536D01*
X102933553Y-113320998D01*
X102894516Y-113275946D01*
X102890050Y-113267182D01*
X102765109Y-113095213D01*
X102614786Y-112944890D01*
X102442820Y-112819951D01*
X102253414Y-112723444D01*
X102253413Y-112723443D01*
X102253412Y-112723443D01*
X102051243Y-112657754D01*
X102051241Y-112657753D01*
X102051240Y-112657753D01*
X101889957Y-112632208D01*
X101841287Y-112624500D01*
X101628713Y-112624500D01*
X101580042Y-112632208D01*
X101418760Y-112657753D01*
X101216585Y-112723444D01*
X101027179Y-112819951D01*
X100855213Y-112944890D01*
X100704890Y-113095213D01*
X100579949Y-113267182D01*
X100575484Y-113275946D01*
X100527509Y-113326742D01*
X100459688Y-113343536D01*
X100393553Y-113320998D01*
X100354516Y-113275946D01*
X100350050Y-113267182D01*
X100225109Y-113095213D01*
X100074786Y-112944890D01*
X99902820Y-112819951D01*
X99713414Y-112723444D01*
X99713413Y-112723443D01*
X99713412Y-112723443D01*
X99511243Y-112657754D01*
X99511241Y-112657753D01*
X99511240Y-112657753D01*
X99349957Y-112632208D01*
X99301287Y-112624500D01*
X99088713Y-112624500D01*
X99040042Y-112632208D01*
X98878760Y-112657753D01*
X98676585Y-112723444D01*
X98487179Y-112819951D01*
X98315213Y-112944890D01*
X98164890Y-113095213D01*
X98039951Y-113267179D01*
X97943444Y-113456585D01*
X97877753Y-113658760D01*
X97844500Y-113868713D01*
X63194167Y-113868713D01*
X63180293Y-113858067D01*
X63180292Y-113858066D01*
X63180289Y-113858064D01*
X62970212Y-113736776D01*
X62970205Y-113736773D01*
X62746104Y-113643947D01*
X62511785Y-113581161D01*
X62271289Y-113549500D01*
X62271288Y-113549500D01*
X62028712Y-113549500D01*
X62028711Y-113549500D01*
X61788214Y-113581161D01*
X61553895Y-113643947D01*
X61329794Y-113736773D01*
X61329785Y-113736777D01*
X61119706Y-113858067D01*
X60927263Y-114005733D01*
X60927256Y-114005739D01*
X60755739Y-114177256D01*
X60755733Y-114177263D01*
X60608067Y-114369706D01*
X60486777Y-114579785D01*
X60486773Y-114579794D01*
X60393947Y-114803895D01*
X60331161Y-115038214D01*
X60299500Y-115278711D01*
X54561890Y-115278711D01*
X54567750Y-110278711D01*
X60299500Y-110278711D01*
X60299500Y-110521288D01*
X60331161Y-110761785D01*
X60393947Y-110996104D01*
X60435367Y-111096100D01*
X60486776Y-111220212D01*
X60608064Y-111430289D01*
X60608066Y-111430292D01*
X60608067Y-111430293D01*
X60755733Y-111622736D01*
X60755739Y-111622743D01*
X60927256Y-111794260D01*
X60927262Y-111794265D01*
X61119711Y-111941936D01*
X61329788Y-112063224D01*
X61553900Y-112156054D01*
X61788211Y-112218838D01*
X61968586Y-112242584D01*
X62028711Y-112250500D01*
X62028712Y-112250500D01*
X62271289Y-112250500D01*
X62319388Y-112244167D01*
X62511789Y-112218838D01*
X62746100Y-112156054D01*
X62970212Y-112063224D01*
X63180289Y-111941936D01*
X63372738Y-111794265D01*
X63544265Y-111622738D01*
X63691936Y-111430289D01*
X63813224Y-111220212D01*
X63906054Y-110996100D01*
X63968838Y-110761789D01*
X64000500Y-110521288D01*
X64000500Y-110278712D01*
X63968838Y-110038211D01*
X63906054Y-109803900D01*
X63813224Y-109579788D01*
X63691936Y-109369711D01*
X63544265Y-109177262D01*
X63544260Y-109177256D01*
X63372743Y-109005739D01*
X63372736Y-109005733D01*
X63180293Y-108858067D01*
X63180292Y-108858066D01*
X63180289Y-108858064D01*
X62970212Y-108736776D01*
X62946937Y-108727135D01*
X86724500Y-108727135D01*
X86724500Y-111322870D01*
X86724501Y-111322876D01*
X86730908Y-111382483D01*
X86781202Y-111517328D01*
X86781206Y-111517335D01*
X86867452Y-111632544D01*
X86867455Y-111632547D01*
X86982664Y-111718793D01*
X86982671Y-111718797D01*
X87117517Y-111769091D01*
X87117516Y-111769091D01*
X87124444Y-111769835D01*
X87177127Y-111775500D01*
X89772872Y-111775499D01*
X89832483Y-111769091D01*
X89967331Y-111718796D01*
X90082546Y-111632546D01*
X90168796Y-111517331D01*
X90219091Y-111382483D01*
X90225500Y-111322873D01*
X90225499Y-109877135D01*
X126524500Y-109877135D01*
X126524500Y-112472870D01*
X126524501Y-112472876D01*
X126530908Y-112532483D01*
X126581202Y-112667328D01*
X126581206Y-112667335D01*
X126667452Y-112782544D01*
X126667455Y-112782547D01*
X126782664Y-112868793D01*
X126782671Y-112868797D01*
X126917517Y-112919091D01*
X126917516Y-112919091D01*
X126924444Y-112919835D01*
X126977127Y-112925500D01*
X129572872Y-112925499D01*
X129632483Y-112919091D01*
X129767331Y-112868796D01*
X129882546Y-112782546D01*
X129968796Y-112667331D01*
X130019091Y-112532483D01*
X130025500Y-112472873D01*
X130025499Y-110378711D01*
X153299500Y-110378711D01*
X153299500Y-110621288D01*
X153331161Y-110861785D01*
X153393947Y-111096104D01*
X153486773Y-111320205D01*
X153486777Y-111320214D01*
X153488312Y-111322872D01*
X153608064Y-111530289D01*
X153608066Y-111530292D01*
X153608067Y-111530293D01*
X153755733Y-111722736D01*
X153755739Y-111722743D01*
X153927256Y-111894260D01*
X153927262Y-111894265D01*
X154119711Y-112041936D01*
X154329788Y-112163224D01*
X154553900Y-112256054D01*
X154788211Y-112318838D01*
X154968586Y-112342584D01*
X155028711Y-112350500D01*
X155028712Y-112350500D01*
X155271289Y-112350500D01*
X155319388Y-112344167D01*
X155511789Y-112318838D01*
X155746100Y-112256054D01*
X155970212Y-112163224D01*
X156180289Y-112041936D01*
X156372738Y-111894265D01*
X156544265Y-111722738D01*
X156691936Y-111530289D01*
X156813224Y-111320212D01*
X156906054Y-111096100D01*
X156968838Y-110861789D01*
X157000500Y-110621288D01*
X157000500Y-110378712D01*
X156968838Y-110138211D01*
X156906054Y-109903900D01*
X156813224Y-109679788D01*
X156691936Y-109469711D01*
X156631018Y-109390321D01*
X156544266Y-109277263D01*
X156544260Y-109277256D01*
X156372743Y-109105739D01*
X156372736Y-109105733D01*
X156180293Y-108958067D01*
X156180292Y-108958066D01*
X156180289Y-108958064D01*
X155970212Y-108836776D01*
X155970205Y-108836773D01*
X155746104Y-108743947D01*
X155511785Y-108681161D01*
X155271289Y-108649500D01*
X155271288Y-108649500D01*
X155028712Y-108649500D01*
X155028711Y-108649500D01*
X154788214Y-108681161D01*
X154553895Y-108743947D01*
X154329794Y-108836773D01*
X154329785Y-108836777D01*
X154119706Y-108958067D01*
X153927263Y-109105733D01*
X153927256Y-109105739D01*
X153755739Y-109277256D01*
X153755733Y-109277263D01*
X153608067Y-109469706D01*
X153486777Y-109679785D01*
X153486773Y-109679794D01*
X153393947Y-109903895D01*
X153331161Y-110138214D01*
X153299500Y-110378711D01*
X130025499Y-110378711D01*
X130025499Y-109877128D01*
X130019091Y-109817517D01*
X130014012Y-109803900D01*
X129968797Y-109682671D01*
X129968793Y-109682664D01*
X129882547Y-109567455D01*
X129882544Y-109567452D01*
X129767335Y-109481206D01*
X129767328Y-109481202D01*
X129632482Y-109430908D01*
X129632483Y-109430908D01*
X129572883Y-109424501D01*
X129572881Y-109424500D01*
X129572873Y-109424500D01*
X129572864Y-109424500D01*
X126977129Y-109424500D01*
X126977123Y-109424501D01*
X126917516Y-109430908D01*
X126782671Y-109481202D01*
X126782664Y-109481206D01*
X126667455Y-109567452D01*
X126667452Y-109567455D01*
X126581206Y-109682664D01*
X126581202Y-109682671D01*
X126530908Y-109817517D01*
X126524501Y-109877116D01*
X126524501Y-109877123D01*
X126524500Y-109877135D01*
X90225499Y-109877135D01*
X90225499Y-108727128D01*
X90219091Y-108667517D01*
X90186882Y-108581161D01*
X90168797Y-108532671D01*
X90168793Y-108532664D01*
X90082547Y-108417455D01*
X90082544Y-108417452D01*
X89967335Y-108331206D01*
X89967328Y-108331202D01*
X89832482Y-108280908D01*
X89832483Y-108280908D01*
X89772883Y-108274501D01*
X89772881Y-108274500D01*
X89772873Y-108274500D01*
X89772864Y-108274500D01*
X87177129Y-108274500D01*
X87177123Y-108274501D01*
X87117516Y-108280908D01*
X86982671Y-108331202D01*
X86982664Y-108331206D01*
X86867455Y-108417452D01*
X86867452Y-108417455D01*
X86781206Y-108532664D01*
X86781202Y-108532671D01*
X86730908Y-108667517D01*
X86724501Y-108727116D01*
X86724501Y-108727123D01*
X86724500Y-108727135D01*
X62946937Y-108727135D01*
X62946920Y-108727128D01*
X62746104Y-108643947D01*
X62511785Y-108581161D01*
X62271289Y-108549500D01*
X62271288Y-108549500D01*
X62028712Y-108549500D01*
X62028711Y-108549500D01*
X61788214Y-108581161D01*
X61553895Y-108643947D01*
X61329794Y-108736773D01*
X61329785Y-108736777D01*
X61119706Y-108858067D01*
X60927263Y-109005733D01*
X60927256Y-109005739D01*
X60755739Y-109177256D01*
X60755733Y-109177263D01*
X60608067Y-109369706D01*
X60486777Y-109579785D01*
X60486773Y-109579794D01*
X60393947Y-109803895D01*
X60331161Y-110038214D01*
X60299500Y-110278711D01*
X54567750Y-110278711D01*
X54574816Y-104249984D01*
X60299500Y-104249984D01*
X60299500Y-106550015D01*
X60310000Y-106652795D01*
X60310001Y-106652796D01*
X60365186Y-106819335D01*
X60365187Y-106819337D01*
X60457286Y-106968651D01*
X60457289Y-106968655D01*
X60581344Y-107092710D01*
X60581348Y-107092713D01*
X60730662Y-107184812D01*
X60730664Y-107184813D01*
X60730666Y-107184814D01*
X60897203Y-107239999D01*
X60999992Y-107250500D01*
X60999997Y-107250500D01*
X63300003Y-107250500D01*
X63300008Y-107250500D01*
X63402797Y-107239999D01*
X63569334Y-107184814D01*
X63718655Y-107092711D01*
X63842711Y-106968655D01*
X63934814Y-106819334D01*
X63989999Y-106652797D01*
X64000500Y-106550008D01*
X64000500Y-104249992D01*
X63989999Y-104147203D01*
X63934814Y-103980666D01*
X63891390Y-103910266D01*
X63891385Y-103910258D01*
X72524500Y-103910258D01*
X72524500Y-104139741D01*
X72542605Y-104277256D01*
X72554452Y-104367238D01*
X72581908Y-104469706D01*
X72613842Y-104588887D01*
X72701650Y-104800876D01*
X72701657Y-104800890D01*
X72816392Y-104999617D01*
X72956081Y-105181661D01*
X72956089Y-105181670D01*
X73118330Y-105343911D01*
X73118338Y-105343918D01*
X73300382Y-105483607D01*
X73300385Y-105483608D01*
X73300388Y-105483611D01*
X73499112Y-105598344D01*
X73499117Y-105598346D01*
X73499123Y-105598349D01*
X73572533Y-105628756D01*
X73711113Y-105686158D01*
X73932762Y-105745548D01*
X74160266Y-105775500D01*
X74160273Y-105775500D01*
X74389727Y-105775500D01*
X74389734Y-105775500D01*
X74617238Y-105745548D01*
X74838887Y-105686158D01*
X75050888Y-105598344D01*
X75249612Y-105483611D01*
X75431661Y-105343919D01*
X75431665Y-105343914D01*
X75431670Y-105343911D01*
X75593911Y-105181670D01*
X75593914Y-105181665D01*
X75593919Y-105181661D01*
X75733611Y-104999612D01*
X75848344Y-104800888D01*
X75936158Y-104588887D01*
X75995548Y-104367238D01*
X76025500Y-104139734D01*
X76025500Y-103910266D01*
X76025499Y-103910258D01*
X84724500Y-103910258D01*
X84724500Y-104139741D01*
X84742605Y-104277256D01*
X84754452Y-104367238D01*
X84781908Y-104469706D01*
X84813842Y-104588887D01*
X84901650Y-104800876D01*
X84901657Y-104800890D01*
X85016392Y-104999617D01*
X85156081Y-105181661D01*
X85156089Y-105181670D01*
X85318330Y-105343911D01*
X85318338Y-105343918D01*
X85500382Y-105483607D01*
X85500385Y-105483608D01*
X85500388Y-105483611D01*
X85699112Y-105598344D01*
X85699117Y-105598346D01*
X85699123Y-105598349D01*
X85772533Y-105628756D01*
X85911113Y-105686158D01*
X86132762Y-105745548D01*
X86360266Y-105775500D01*
X86360273Y-105775500D01*
X86589727Y-105775500D01*
X86589734Y-105775500D01*
X86817238Y-105745548D01*
X87038887Y-105686158D01*
X87250888Y-105598344D01*
X87449612Y-105483611D01*
X87631661Y-105343919D01*
X87631665Y-105343914D01*
X87631670Y-105343911D01*
X87793911Y-105181670D01*
X87793914Y-105181665D01*
X87793919Y-105181661D01*
X87933611Y-104999612D01*
X88048344Y-104800888D01*
X88136158Y-104588887D01*
X88195548Y-104367238D01*
X88225500Y-104139734D01*
X88225500Y-103910266D01*
X88195548Y-103682762D01*
X88136158Y-103461113D01*
X88086190Y-103340480D01*
X88048349Y-103249123D01*
X88048346Y-103249117D01*
X88048344Y-103249112D01*
X87933611Y-103050388D01*
X87933608Y-103050385D01*
X87933607Y-103050382D01*
X87793918Y-102868338D01*
X87793911Y-102868330D01*
X87631670Y-102706089D01*
X87631661Y-102706081D01*
X87449617Y-102566392D01*
X87250890Y-102451657D01*
X87250876Y-102451650D01*
X87038887Y-102363842D01*
X86817238Y-102304452D01*
X86779215Y-102299446D01*
X86589741Y-102274500D01*
X86589734Y-102274500D01*
X86360266Y-102274500D01*
X86360258Y-102274500D01*
X86143715Y-102303009D01*
X86132762Y-102304452D01*
X86039076Y-102329554D01*
X85911112Y-102363842D01*
X85699123Y-102451650D01*
X85699109Y-102451657D01*
X85500382Y-102566392D01*
X85318338Y-102706081D01*
X85156081Y-102868338D01*
X85016392Y-103050382D01*
X84901657Y-103249109D01*
X84901650Y-103249123D01*
X84813842Y-103461112D01*
X84813842Y-103461113D01*
X84763365Y-103649500D01*
X84754453Y-103682759D01*
X84754451Y-103682770D01*
X84724500Y-103910258D01*
X76025499Y-103910258D01*
X75995548Y-103682762D01*
X75936158Y-103461113D01*
X75886190Y-103340480D01*
X75848349Y-103249123D01*
X75848346Y-103249117D01*
X75848344Y-103249112D01*
X75733611Y-103050388D01*
X75733608Y-103050385D01*
X75733607Y-103050382D01*
X75593918Y-102868338D01*
X75593911Y-102868330D01*
X75431670Y-102706089D01*
X75431661Y-102706081D01*
X75249617Y-102566392D01*
X75050890Y-102451657D01*
X75050876Y-102451650D01*
X74838887Y-102363842D01*
X74617238Y-102304452D01*
X74579215Y-102299446D01*
X74389741Y-102274500D01*
X74389734Y-102274500D01*
X74160266Y-102274500D01*
X74160258Y-102274500D01*
X73943715Y-102303009D01*
X73932762Y-102304452D01*
X73839076Y-102329554D01*
X73711112Y-102363842D01*
X73499123Y-102451650D01*
X73499109Y-102451657D01*
X73300382Y-102566392D01*
X73118338Y-102706081D01*
X72956081Y-102868338D01*
X72816392Y-103050382D01*
X72701657Y-103249109D01*
X72701650Y-103249123D01*
X72613842Y-103461112D01*
X72613842Y-103461113D01*
X72563365Y-103649500D01*
X72554453Y-103682759D01*
X72554451Y-103682770D01*
X72524500Y-103910258D01*
X63891385Y-103910258D01*
X63842713Y-103831348D01*
X63842710Y-103831344D01*
X63718655Y-103707289D01*
X63718651Y-103707286D01*
X63569337Y-103615187D01*
X63569335Y-103615186D01*
X63486065Y-103587593D01*
X63402797Y-103560001D01*
X63402795Y-103560000D01*
X63300015Y-103549500D01*
X63300008Y-103549500D01*
X60999992Y-103549500D01*
X60999984Y-103549500D01*
X60897204Y-103560000D01*
X60897203Y-103560001D01*
X60730664Y-103615186D01*
X60730662Y-103615187D01*
X60581348Y-103707286D01*
X60581344Y-103707289D01*
X60457289Y-103831344D01*
X60457286Y-103831348D01*
X60365187Y-103980662D01*
X60365186Y-103980664D01*
X60310001Y-104147203D01*
X60310000Y-104147204D01*
X60299500Y-104249984D01*
X54574816Y-104249984D01*
X54584392Y-96078711D01*
X60299500Y-96078711D01*
X60299500Y-96321288D01*
X60331161Y-96561785D01*
X60393947Y-96796104D01*
X60452454Y-96937351D01*
X60486776Y-97020212D01*
X60608064Y-97230289D01*
X60608066Y-97230292D01*
X60608067Y-97230293D01*
X60755733Y-97422736D01*
X60755739Y-97422743D01*
X60927256Y-97594260D01*
X60927262Y-97594265D01*
X61119711Y-97741936D01*
X61329788Y-97863224D01*
X61525269Y-97944195D01*
X61532734Y-97947287D01*
X61553900Y-97956054D01*
X61788211Y-98018838D01*
X61967869Y-98042490D01*
X62028711Y-98050500D01*
X62028712Y-98050500D01*
X62271289Y-98050500D01*
X62332131Y-98042490D01*
X62511789Y-98018838D01*
X62746100Y-97956054D01*
X62970212Y-97863224D01*
X62975349Y-97860258D01*
X72524500Y-97860258D01*
X72524500Y-98089741D01*
X72547274Y-98262715D01*
X72554452Y-98317238D01*
X72572082Y-98383034D01*
X72613842Y-98538887D01*
X72701650Y-98750876D01*
X72701657Y-98750890D01*
X72816392Y-98949617D01*
X72956081Y-99131661D01*
X72956089Y-99131670D01*
X73118330Y-99293911D01*
X73118338Y-99293918D01*
X73300382Y-99433607D01*
X73300385Y-99433608D01*
X73300388Y-99433611D01*
X73499112Y-99548344D01*
X73499117Y-99548346D01*
X73499123Y-99548349D01*
X73590480Y-99586190D01*
X73711113Y-99636158D01*
X73932762Y-99695548D01*
X74160266Y-99725500D01*
X74160273Y-99725500D01*
X74389727Y-99725500D01*
X74389734Y-99725500D01*
X74617238Y-99695548D01*
X74838887Y-99636158D01*
X75050888Y-99548344D01*
X75249612Y-99433611D01*
X75431661Y-99293919D01*
X75431665Y-99293914D01*
X75431670Y-99293911D01*
X75593911Y-99131670D01*
X75593914Y-99131665D01*
X75593919Y-99131661D01*
X75733611Y-98949612D01*
X75848344Y-98750888D01*
X75936158Y-98538887D01*
X75995548Y-98317238D01*
X76025500Y-98089734D01*
X76025500Y-97860266D01*
X76025499Y-97860258D01*
X84724500Y-97860258D01*
X84724500Y-98089741D01*
X84747274Y-98262715D01*
X84754452Y-98317238D01*
X84772082Y-98383034D01*
X84813842Y-98538887D01*
X84901650Y-98750876D01*
X84901657Y-98750890D01*
X85016392Y-98949617D01*
X85156081Y-99131661D01*
X85156089Y-99131670D01*
X85318330Y-99293911D01*
X85318338Y-99293918D01*
X85500382Y-99433607D01*
X85500385Y-99433608D01*
X85500388Y-99433611D01*
X85699112Y-99548344D01*
X85699117Y-99548346D01*
X85699123Y-99548349D01*
X85790480Y-99586190D01*
X85911113Y-99636158D01*
X86132762Y-99695548D01*
X86360266Y-99725500D01*
X86360273Y-99725500D01*
X86589727Y-99725500D01*
X86589734Y-99725500D01*
X86817238Y-99695548D01*
X87038887Y-99636158D01*
X87250888Y-99548344D01*
X87449612Y-99433611D01*
X87631661Y-99293919D01*
X87631665Y-99293914D01*
X87631670Y-99293911D01*
X87793911Y-99131670D01*
X87793914Y-99131665D01*
X87793919Y-99131661D01*
X87933611Y-98949612D01*
X88048344Y-98750888D01*
X88136158Y-98538887D01*
X88195548Y-98317238D01*
X88225500Y-98089734D01*
X88225500Y-97860266D01*
X88195548Y-97632762D01*
X88136158Y-97411113D01*
X88048344Y-97199112D01*
X87933611Y-97000388D01*
X87933608Y-97000385D01*
X87933607Y-97000382D01*
X87793918Y-96818338D01*
X87793911Y-96818330D01*
X87631670Y-96656089D01*
X87631661Y-96656081D01*
X87449617Y-96516392D01*
X87250890Y-96401657D01*
X87250876Y-96401650D01*
X87038887Y-96313842D01*
X86817238Y-96254452D01*
X86779215Y-96249446D01*
X86589741Y-96224500D01*
X86589734Y-96224500D01*
X86360266Y-96224500D01*
X86360258Y-96224500D01*
X86143715Y-96253009D01*
X86132762Y-96254452D01*
X86039076Y-96279554D01*
X85911112Y-96313842D01*
X85699123Y-96401650D01*
X85699109Y-96401657D01*
X85500382Y-96516392D01*
X85318338Y-96656081D01*
X85156081Y-96818338D01*
X85016392Y-97000382D01*
X84901657Y-97199109D01*
X84901650Y-97199123D01*
X84813842Y-97411112D01*
X84810727Y-97422738D01*
X84764769Y-97594260D01*
X84754453Y-97632759D01*
X84754451Y-97632770D01*
X84724500Y-97860258D01*
X76025499Y-97860258D01*
X75995548Y-97632762D01*
X75936158Y-97411113D01*
X75848344Y-97199112D01*
X75733611Y-97000388D01*
X75733608Y-97000385D01*
X75733607Y-97000382D01*
X75593918Y-96818338D01*
X75593911Y-96818330D01*
X75431670Y-96656089D01*
X75431661Y-96656081D01*
X75249617Y-96516392D01*
X75050890Y-96401657D01*
X75050876Y-96401650D01*
X74838887Y-96313842D01*
X74617238Y-96254452D01*
X74579215Y-96249446D01*
X74389741Y-96224500D01*
X74389734Y-96224500D01*
X74160266Y-96224500D01*
X74160258Y-96224500D01*
X73943715Y-96253009D01*
X73932762Y-96254452D01*
X73839076Y-96279554D01*
X73711112Y-96313842D01*
X73499123Y-96401650D01*
X73499109Y-96401657D01*
X73300382Y-96516392D01*
X73118338Y-96656081D01*
X72956081Y-96818338D01*
X72816392Y-97000382D01*
X72701657Y-97199109D01*
X72701650Y-97199123D01*
X72613842Y-97411112D01*
X72610727Y-97422738D01*
X72564769Y-97594260D01*
X72554453Y-97632759D01*
X72554451Y-97632770D01*
X72524500Y-97860258D01*
X62975349Y-97860258D01*
X63180289Y-97741936D01*
X63372738Y-97594265D01*
X63544265Y-97422738D01*
X63691936Y-97230289D01*
X63813224Y-97020212D01*
X63906054Y-96796100D01*
X63968838Y-96561789D01*
X64000500Y-96321288D01*
X64000500Y-96078712D01*
X63968838Y-95838211D01*
X63906054Y-95603900D01*
X63813224Y-95379788D01*
X63691936Y-95169711D01*
X63552678Y-94988226D01*
X63544266Y-94977263D01*
X63544260Y-94977256D01*
X63372743Y-94805739D01*
X63372736Y-94805733D01*
X63180293Y-94658067D01*
X63180292Y-94658066D01*
X63180289Y-94658064D01*
X63008661Y-94558974D01*
X62970214Y-94536777D01*
X62970205Y-94536773D01*
X62746104Y-94443947D01*
X62511785Y-94381161D01*
X62271289Y-94349500D01*
X62271288Y-94349500D01*
X62028712Y-94349500D01*
X62028711Y-94349500D01*
X61788214Y-94381161D01*
X61553895Y-94443947D01*
X61329794Y-94536773D01*
X61329785Y-94536777D01*
X61119706Y-94658067D01*
X60927263Y-94805733D01*
X60927256Y-94805739D01*
X60755739Y-94977256D01*
X60755733Y-94977263D01*
X60608067Y-95169706D01*
X60486777Y-95379785D01*
X60486773Y-95379794D01*
X60393947Y-95603895D01*
X60331161Y-95838214D01*
X60299500Y-96078711D01*
X54584392Y-96078711D01*
X54590252Y-91078711D01*
X60299500Y-91078711D01*
X60299500Y-91321288D01*
X60331161Y-91561785D01*
X60393947Y-91796104D01*
X60449715Y-91930739D01*
X60486776Y-92020212D01*
X60608064Y-92230289D01*
X60608066Y-92230292D01*
X60608067Y-92230293D01*
X60755733Y-92422736D01*
X60755739Y-92422743D01*
X60927256Y-92594260D01*
X60927262Y-92594265D01*
X61119711Y-92741936D01*
X61329788Y-92863224D01*
X61553900Y-92956054D01*
X61788211Y-93018838D01*
X61968586Y-93042584D01*
X62028711Y-93050500D01*
X62028712Y-93050500D01*
X62271289Y-93050500D01*
X62319388Y-93044167D01*
X62511789Y-93018838D01*
X62746100Y-92956054D01*
X62970212Y-92863224D01*
X63180289Y-92741936D01*
X63372738Y-92594265D01*
X63544265Y-92422738D01*
X63691936Y-92230289D01*
X63813224Y-92020212D01*
X63906054Y-91796100D01*
X63968838Y-91561789D01*
X64000500Y-91321288D01*
X64000500Y-91078712D01*
X63968838Y-90838211D01*
X63925677Y-90677135D01*
X86724500Y-90677135D01*
X86724500Y-93272870D01*
X86724501Y-93272876D01*
X86730908Y-93332483D01*
X86781202Y-93467328D01*
X86781206Y-93467335D01*
X86867452Y-93582544D01*
X86867455Y-93582547D01*
X86982664Y-93668793D01*
X86982671Y-93668797D01*
X87117517Y-93719091D01*
X87117516Y-93719091D01*
X87124444Y-93719835D01*
X87177127Y-93725500D01*
X89772872Y-93725499D01*
X89832483Y-93719091D01*
X89967331Y-93668796D01*
X90082546Y-93582546D01*
X90168796Y-93467331D01*
X90219091Y-93332483D01*
X90225500Y-93272873D01*
X90225499Y-90677128D01*
X90219091Y-90617517D01*
X90214012Y-90603900D01*
X90168797Y-90482671D01*
X90168793Y-90482664D01*
X90082547Y-90367455D01*
X90082544Y-90367452D01*
X89967335Y-90281206D01*
X89967328Y-90281202D01*
X89832482Y-90230908D01*
X89832483Y-90230908D01*
X89772883Y-90224501D01*
X89772881Y-90224500D01*
X89772873Y-90224500D01*
X89772864Y-90224500D01*
X87177129Y-90224500D01*
X87177123Y-90224501D01*
X87117516Y-90230908D01*
X86982671Y-90281202D01*
X86982664Y-90281206D01*
X86867455Y-90367452D01*
X86867452Y-90367455D01*
X86781206Y-90482664D01*
X86781202Y-90482671D01*
X86730908Y-90617517D01*
X86724501Y-90677116D01*
X86724501Y-90677123D01*
X86724500Y-90677135D01*
X63925677Y-90677135D01*
X63906054Y-90603900D01*
X63813224Y-90379788D01*
X63691936Y-90169711D01*
X63552678Y-89988226D01*
X63544266Y-89977263D01*
X63544260Y-89977256D01*
X63372743Y-89805739D01*
X63372736Y-89805733D01*
X63180293Y-89658067D01*
X63180292Y-89658066D01*
X63180289Y-89658064D01*
X63008661Y-89558974D01*
X62970214Y-89536777D01*
X62970205Y-89536773D01*
X62746104Y-89443947D01*
X62511785Y-89381161D01*
X62271289Y-89349500D01*
X62271288Y-89349500D01*
X62028712Y-89349500D01*
X62028711Y-89349500D01*
X61788214Y-89381161D01*
X61553895Y-89443947D01*
X61329794Y-89536773D01*
X61329785Y-89536777D01*
X61119706Y-89658067D01*
X60927263Y-89805733D01*
X60927256Y-89805739D01*
X60755739Y-89977256D01*
X60755733Y-89977263D01*
X60608067Y-90169706D01*
X60486777Y-90379785D01*
X60486773Y-90379794D01*
X60393947Y-90603895D01*
X60331161Y-90838214D01*
X60299500Y-91078711D01*
X54590252Y-91078711D01*
X54597317Y-85049984D01*
X60299500Y-85049984D01*
X60299500Y-87350015D01*
X60310000Y-87452795D01*
X60310001Y-87452797D01*
X60314787Y-87467240D01*
X60365186Y-87619335D01*
X60365187Y-87619337D01*
X60457286Y-87768651D01*
X60457289Y-87768655D01*
X60581344Y-87892710D01*
X60581348Y-87892713D01*
X60730662Y-87984812D01*
X60730664Y-87984813D01*
X60730666Y-87984814D01*
X60897203Y-88039999D01*
X60999992Y-88050500D01*
X60999997Y-88050500D01*
X63300003Y-88050500D01*
X63300008Y-88050500D01*
X63402797Y-88039999D01*
X63569334Y-87984814D01*
X63718655Y-87892711D01*
X63842711Y-87768655D01*
X63934814Y-87619334D01*
X63989999Y-87452797D01*
X64000500Y-87350008D01*
X64000500Y-85860258D01*
X72524500Y-85860258D01*
X72524500Y-86089741D01*
X72535853Y-86175970D01*
X72554452Y-86317238D01*
X72608944Y-86520606D01*
X72613842Y-86538887D01*
X72701650Y-86750876D01*
X72701656Y-86750888D01*
X72799642Y-86920606D01*
X72816392Y-86949617D01*
X72956081Y-87131661D01*
X72956089Y-87131670D01*
X73118330Y-87293911D01*
X73118338Y-87293918D01*
X73300382Y-87433607D01*
X73300385Y-87433608D01*
X73300388Y-87433611D01*
X73499112Y-87548344D01*
X73499117Y-87548346D01*
X73499123Y-87548349D01*
X73590480Y-87586190D01*
X73711113Y-87636158D01*
X73932762Y-87695548D01*
X74160266Y-87725500D01*
X74160273Y-87725500D01*
X74389727Y-87725500D01*
X74389734Y-87725500D01*
X74617238Y-87695548D01*
X74838887Y-87636158D01*
X75050888Y-87548344D01*
X75249612Y-87433611D01*
X75431661Y-87293919D01*
X75431665Y-87293914D01*
X75431670Y-87293911D01*
X75593911Y-87131670D01*
X75593914Y-87131665D01*
X75593919Y-87131661D01*
X75733611Y-86949612D01*
X75848344Y-86750888D01*
X75936158Y-86538887D01*
X75995548Y-86317238D01*
X76025500Y-86089734D01*
X76025500Y-85860266D01*
X76025499Y-85860258D01*
X84724500Y-85860258D01*
X84724500Y-86089741D01*
X84735853Y-86175970D01*
X84754452Y-86317238D01*
X84808944Y-86520606D01*
X84813842Y-86538887D01*
X84901650Y-86750876D01*
X84901656Y-86750888D01*
X84999642Y-86920606D01*
X85016392Y-86949617D01*
X85156081Y-87131661D01*
X85156089Y-87131670D01*
X85318330Y-87293911D01*
X85318338Y-87293918D01*
X85500382Y-87433607D01*
X85500385Y-87433608D01*
X85500388Y-87433611D01*
X85699112Y-87548344D01*
X85699117Y-87548346D01*
X85699123Y-87548349D01*
X85790480Y-87586190D01*
X85911113Y-87636158D01*
X86132762Y-87695548D01*
X86360266Y-87725500D01*
X86360273Y-87725500D01*
X86589727Y-87725500D01*
X86589734Y-87725500D01*
X86817238Y-87695548D01*
X87038887Y-87636158D01*
X87250888Y-87548344D01*
X87449612Y-87433611D01*
X87631661Y-87293919D01*
X87631665Y-87293914D01*
X87631670Y-87293911D01*
X87793911Y-87131670D01*
X87793914Y-87131665D01*
X87793919Y-87131661D01*
X87933611Y-86949612D01*
X88048344Y-86750888D01*
X88136158Y-86538887D01*
X88195548Y-86317238D01*
X88225500Y-86089734D01*
X88225500Y-85860266D01*
X88195548Y-85632762D01*
X88136158Y-85411113D01*
X88048344Y-85199112D01*
X87933611Y-85000388D01*
X87933608Y-85000385D01*
X87933607Y-85000382D01*
X87793918Y-84818338D01*
X87793911Y-84818330D01*
X87631670Y-84656089D01*
X87631661Y-84656081D01*
X87449617Y-84516392D01*
X87250890Y-84401657D01*
X87250876Y-84401650D01*
X87038887Y-84313842D01*
X86817238Y-84254452D01*
X86779215Y-84249446D01*
X86589741Y-84224500D01*
X86589734Y-84224500D01*
X86360266Y-84224500D01*
X86360258Y-84224500D01*
X86143715Y-84253009D01*
X86132762Y-84254452D01*
X86039076Y-84279554D01*
X85911112Y-84313842D01*
X85699123Y-84401650D01*
X85699109Y-84401657D01*
X85500382Y-84516392D01*
X85318338Y-84656081D01*
X85156081Y-84818338D01*
X85016392Y-85000382D01*
X84901657Y-85199109D01*
X84901650Y-85199123D01*
X84813842Y-85411112D01*
X84754453Y-85632759D01*
X84754451Y-85632770D01*
X84724500Y-85860258D01*
X76025499Y-85860258D01*
X75995548Y-85632762D01*
X75936158Y-85411113D01*
X75848344Y-85199112D01*
X75733611Y-85000388D01*
X75733608Y-85000385D01*
X75733607Y-85000382D01*
X75593918Y-84818338D01*
X75593911Y-84818330D01*
X75431670Y-84656089D01*
X75431661Y-84656081D01*
X75249617Y-84516392D01*
X75050890Y-84401657D01*
X75050876Y-84401650D01*
X74838887Y-84313842D01*
X74617238Y-84254452D01*
X74579215Y-84249446D01*
X74389741Y-84224500D01*
X74389734Y-84224500D01*
X74160266Y-84224500D01*
X74160258Y-84224500D01*
X73943715Y-84253009D01*
X73932762Y-84254452D01*
X73839076Y-84279554D01*
X73711112Y-84313842D01*
X73499123Y-84401650D01*
X73499109Y-84401657D01*
X73300382Y-84516392D01*
X73118338Y-84656081D01*
X72956081Y-84818338D01*
X72816392Y-85000382D01*
X72701657Y-85199109D01*
X72701650Y-85199123D01*
X72613842Y-85411112D01*
X72554453Y-85632759D01*
X72554451Y-85632770D01*
X72524500Y-85860258D01*
X64000500Y-85860258D01*
X64000500Y-85049992D01*
X63989999Y-84947203D01*
X63934814Y-84780666D01*
X63857973Y-84656089D01*
X63842713Y-84631348D01*
X63842710Y-84631344D01*
X63718655Y-84507289D01*
X63718651Y-84507286D01*
X63569337Y-84415187D01*
X63569335Y-84415186D01*
X63486065Y-84387593D01*
X63402797Y-84360001D01*
X63402795Y-84360000D01*
X63300015Y-84349500D01*
X63300008Y-84349500D01*
X60999992Y-84349500D01*
X60999984Y-84349500D01*
X60897204Y-84360000D01*
X60897203Y-84360001D01*
X60730664Y-84415186D01*
X60730662Y-84415187D01*
X60581348Y-84507286D01*
X60581344Y-84507289D01*
X60457289Y-84631344D01*
X60457286Y-84631348D01*
X60365187Y-84780662D01*
X60365186Y-84780664D01*
X60310001Y-84947203D01*
X60310000Y-84947204D01*
X60299500Y-85049984D01*
X54597317Y-85049984D01*
X54604550Y-78878711D01*
X60099500Y-78878711D01*
X60099500Y-79121288D01*
X60131161Y-79361785D01*
X60193947Y-79596104D01*
X60202351Y-79616392D01*
X60286776Y-79820212D01*
X60408064Y-80030289D01*
X60408066Y-80030292D01*
X60408067Y-80030293D01*
X60555733Y-80222736D01*
X60555739Y-80222743D01*
X60727256Y-80394260D01*
X60727262Y-80394265D01*
X60919711Y-80541936D01*
X61129788Y-80663224D01*
X61353900Y-80756054D01*
X61588211Y-80818838D01*
X61768586Y-80842584D01*
X61828711Y-80850500D01*
X61828712Y-80850500D01*
X62071289Y-80850500D01*
X62119388Y-80844167D01*
X62311789Y-80818838D01*
X62546100Y-80756054D01*
X62770212Y-80663224D01*
X62980289Y-80541936D01*
X63172738Y-80394265D01*
X63344265Y-80222738D01*
X63491936Y-80030289D01*
X63613224Y-79820212D01*
X63617347Y-79810258D01*
X72524500Y-79810258D01*
X72524500Y-80039741D01*
X72541293Y-80167287D01*
X72554452Y-80267238D01*
X72588489Y-80394266D01*
X72613842Y-80488887D01*
X72701650Y-80700876D01*
X72701657Y-80700890D01*
X72816392Y-80899617D01*
X72956081Y-81081661D01*
X72956089Y-81081670D01*
X73118330Y-81243911D01*
X73118338Y-81243918D01*
X73300382Y-81383607D01*
X73300385Y-81383608D01*
X73300388Y-81383611D01*
X73499112Y-81498344D01*
X73499117Y-81498346D01*
X73499123Y-81498349D01*
X73590480Y-81536190D01*
X73711113Y-81586158D01*
X73932762Y-81645548D01*
X74160266Y-81675500D01*
X74160273Y-81675500D01*
X74389727Y-81675500D01*
X74389734Y-81675500D01*
X74617238Y-81645548D01*
X74838887Y-81586158D01*
X75050888Y-81498344D01*
X75249612Y-81383611D01*
X75431661Y-81243919D01*
X75431665Y-81243914D01*
X75431670Y-81243911D01*
X75593911Y-81081670D01*
X75593914Y-81081665D01*
X75593919Y-81081661D01*
X75733611Y-80899612D01*
X75848344Y-80700888D01*
X75936158Y-80488887D01*
X75995548Y-80267238D01*
X76025500Y-80039734D01*
X76025500Y-79810266D01*
X76025499Y-79810258D01*
X84724500Y-79810258D01*
X84724500Y-80039741D01*
X84741293Y-80167287D01*
X84754452Y-80267238D01*
X84788489Y-80394266D01*
X84813842Y-80488887D01*
X84901650Y-80700876D01*
X84901657Y-80700890D01*
X85016392Y-80899617D01*
X85156081Y-81081661D01*
X85156089Y-81081670D01*
X85318330Y-81243911D01*
X85318338Y-81243918D01*
X85500382Y-81383607D01*
X85500385Y-81383608D01*
X85500388Y-81383611D01*
X85699112Y-81498344D01*
X85699117Y-81498346D01*
X85699123Y-81498349D01*
X85790480Y-81536190D01*
X85911113Y-81586158D01*
X86132762Y-81645548D01*
X86360266Y-81675500D01*
X86360273Y-81675500D01*
X86589727Y-81675500D01*
X86589734Y-81675500D01*
X86817238Y-81645548D01*
X87038887Y-81586158D01*
X87250888Y-81498344D01*
X87449612Y-81383611D01*
X87631661Y-81243919D01*
X87631665Y-81243914D01*
X87631670Y-81243911D01*
X87793911Y-81081670D01*
X87793914Y-81081665D01*
X87793919Y-81081661D01*
X87933611Y-80899612D01*
X88048344Y-80700888D01*
X88136158Y-80488887D01*
X88195548Y-80267238D01*
X88225500Y-80039734D01*
X88225500Y-79810266D01*
X88195548Y-79582762D01*
X88136158Y-79361113D01*
X88086190Y-79240480D01*
X88048349Y-79149123D01*
X88048346Y-79149117D01*
X88048344Y-79149112D01*
X87933611Y-78950388D01*
X87933608Y-78950385D01*
X87933607Y-78950382D01*
X87793918Y-78768338D01*
X87793911Y-78768330D01*
X87631670Y-78606089D01*
X87631661Y-78606081D01*
X87449617Y-78466392D01*
X87250890Y-78351657D01*
X87250876Y-78351650D01*
X87038887Y-78263842D01*
X86817238Y-78204452D01*
X86779215Y-78199446D01*
X86589741Y-78174500D01*
X86589734Y-78174500D01*
X86360266Y-78174500D01*
X86360258Y-78174500D01*
X86143715Y-78203009D01*
X86132762Y-78204452D01*
X86039076Y-78229554D01*
X85911112Y-78263842D01*
X85699123Y-78351650D01*
X85699109Y-78351657D01*
X85500382Y-78466392D01*
X85318338Y-78606081D01*
X85156081Y-78768338D01*
X85016392Y-78950382D01*
X84901657Y-79149109D01*
X84901650Y-79149123D01*
X84813842Y-79361112D01*
X84754453Y-79582759D01*
X84754451Y-79582770D01*
X84724500Y-79810258D01*
X76025499Y-79810258D01*
X75995548Y-79582762D01*
X75936158Y-79361113D01*
X75886190Y-79240480D01*
X75848349Y-79149123D01*
X75848346Y-79149117D01*
X75848344Y-79149112D01*
X75733611Y-78950388D01*
X75733608Y-78950385D01*
X75733607Y-78950382D01*
X75593918Y-78768338D01*
X75593911Y-78768330D01*
X75431670Y-78606089D01*
X75431661Y-78606081D01*
X75249617Y-78466392D01*
X75050890Y-78351657D01*
X75050876Y-78351650D01*
X74838887Y-78263842D01*
X74617238Y-78204452D01*
X74579215Y-78199446D01*
X74389741Y-78174500D01*
X74389734Y-78174500D01*
X74160266Y-78174500D01*
X74160258Y-78174500D01*
X73943715Y-78203009D01*
X73932762Y-78204452D01*
X73839076Y-78229554D01*
X73711112Y-78263842D01*
X73499123Y-78351650D01*
X73499109Y-78351657D01*
X73300382Y-78466392D01*
X73118338Y-78606081D01*
X72956081Y-78768338D01*
X72816392Y-78950382D01*
X72701657Y-79149109D01*
X72701650Y-79149123D01*
X72613842Y-79361112D01*
X72554453Y-79582759D01*
X72554451Y-79582770D01*
X72524500Y-79810258D01*
X63617347Y-79810258D01*
X63706054Y-79596100D01*
X63768838Y-79361789D01*
X63800500Y-79121288D01*
X63800500Y-78878712D01*
X63768838Y-78638211D01*
X63706054Y-78403900D01*
X63613224Y-78179788D01*
X63491936Y-77969711D01*
X63344265Y-77777262D01*
X63344260Y-77777256D01*
X63172743Y-77605739D01*
X63172736Y-77605733D01*
X62980293Y-77458067D01*
X62980292Y-77458066D01*
X62980289Y-77458064D01*
X62770212Y-77336776D01*
X62770205Y-77336773D01*
X62546104Y-77243947D01*
X62338152Y-77188226D01*
X62311789Y-77181162D01*
X62311788Y-77181161D01*
X62311785Y-77181161D01*
X62071289Y-77149500D01*
X62071288Y-77149500D01*
X61828712Y-77149500D01*
X61828711Y-77149500D01*
X61588214Y-77181161D01*
X61353895Y-77243947D01*
X61129794Y-77336773D01*
X61129785Y-77336777D01*
X60919706Y-77458067D01*
X60727263Y-77605733D01*
X60727256Y-77605739D01*
X60555739Y-77777256D01*
X60555733Y-77777263D01*
X60408067Y-77969706D01*
X60286777Y-78179785D01*
X60286773Y-78179794D01*
X60193947Y-78403895D01*
X60131161Y-78638214D01*
X60099500Y-78878711D01*
X54604550Y-78878711D01*
X54610410Y-73878711D01*
X60099500Y-73878711D01*
X60099500Y-74121288D01*
X60128095Y-74338499D01*
X60131162Y-74361789D01*
X60157136Y-74458723D01*
X60193947Y-74596104D01*
X60286773Y-74820205D01*
X60286776Y-74820212D01*
X60408064Y-75030289D01*
X60408066Y-75030292D01*
X60408067Y-75030293D01*
X60555733Y-75222736D01*
X60555739Y-75222743D01*
X60727256Y-75394260D01*
X60727263Y-75394266D01*
X60757318Y-75417328D01*
X60919711Y-75541936D01*
X61129788Y-75663224D01*
X61353900Y-75756054D01*
X61588211Y-75818838D01*
X61768586Y-75842584D01*
X61828711Y-75850500D01*
X61828712Y-75850500D01*
X62071289Y-75850500D01*
X62119388Y-75844167D01*
X62311789Y-75818838D01*
X62546100Y-75756054D01*
X62770212Y-75663224D01*
X62980289Y-75541936D01*
X63172738Y-75394265D01*
X63344265Y-75222738D01*
X63491936Y-75030289D01*
X63613224Y-74820212D01*
X63706054Y-74596100D01*
X63768838Y-74361789D01*
X63800500Y-74121288D01*
X63800500Y-73878712D01*
X63768838Y-73638211D01*
X63706054Y-73403900D01*
X63613224Y-73179788D01*
X63491936Y-72969711D01*
X63344265Y-72777262D01*
X63344260Y-72777256D01*
X63194139Y-72627135D01*
X86724500Y-72627135D01*
X86724500Y-75222870D01*
X86724501Y-75222876D01*
X86730908Y-75282483D01*
X86781202Y-75417328D01*
X86781206Y-75417335D01*
X86867452Y-75532544D01*
X86867455Y-75532547D01*
X86982664Y-75618793D01*
X86982671Y-75618797D01*
X87117517Y-75669091D01*
X87117516Y-75669091D01*
X87124444Y-75669835D01*
X87177127Y-75675500D01*
X89772872Y-75675499D01*
X89832483Y-75669091D01*
X89967331Y-75618796D01*
X90082546Y-75532546D01*
X90168796Y-75417331D01*
X90219091Y-75282483D01*
X90225500Y-75222873D01*
X90225499Y-73872648D01*
X97404500Y-73872648D01*
X97404500Y-74077351D01*
X97436522Y-74279534D01*
X97499781Y-74474223D01*
X97561882Y-74596100D01*
X97592338Y-74655875D01*
X97592715Y-74656613D01*
X97713028Y-74822213D01*
X97857786Y-74966971D01*
X98012749Y-75079556D01*
X98023390Y-75087287D01*
X98114840Y-75133883D01*
X98116080Y-75134515D01*
X98166876Y-75182490D01*
X98183671Y-75250311D01*
X98161134Y-75316446D01*
X98116080Y-75355485D01*
X98023386Y-75402715D01*
X97857786Y-75523028D01*
X97713028Y-75667786D01*
X97592715Y-75833386D01*
X97499781Y-76015776D01*
X97436522Y-76210465D01*
X97404500Y-76412648D01*
X97404500Y-76617351D01*
X97436522Y-76819534D01*
X97499781Y-77014223D01*
X97563691Y-77139653D01*
X97588441Y-77188226D01*
X97592715Y-77196613D01*
X97713028Y-77362213D01*
X97857786Y-77506971D01*
X97993723Y-77605733D01*
X98023390Y-77627287D01*
X98114840Y-77673883D01*
X98116080Y-77674515D01*
X98166876Y-77722490D01*
X98183671Y-77790311D01*
X98161134Y-77856446D01*
X98116080Y-77895485D01*
X98023386Y-77942715D01*
X97857786Y-78063028D01*
X97713028Y-78207786D01*
X97592715Y-78373386D01*
X97499781Y-78555776D01*
X97436522Y-78750465D01*
X97404500Y-78952648D01*
X97404500Y-79157351D01*
X97436522Y-79359534D01*
X97499781Y-79554223D01*
X97592715Y-79736613D01*
X97713028Y-79902213D01*
X97857786Y-80046971D01*
X98012749Y-80159556D01*
X98023390Y-80167287D01*
X98114840Y-80213883D01*
X98116080Y-80214515D01*
X98166876Y-80262490D01*
X98183671Y-80330311D01*
X98161134Y-80396446D01*
X98116080Y-80435485D01*
X98023386Y-80482715D01*
X97857786Y-80603028D01*
X97713028Y-80747786D01*
X97592715Y-80913386D01*
X97499781Y-81095776D01*
X97436522Y-81290465D01*
X97404500Y-81492648D01*
X97404500Y-81697351D01*
X97436522Y-81899534D01*
X97499781Y-82094223D01*
X97592715Y-82276613D01*
X97713028Y-82442213D01*
X97857786Y-82586971D01*
X98012749Y-82699556D01*
X98023390Y-82707287D01*
X98114840Y-82753883D01*
X98116080Y-82754515D01*
X98166876Y-82802490D01*
X98183671Y-82870311D01*
X98161134Y-82936446D01*
X98116080Y-82975485D01*
X98023386Y-83022715D01*
X97857786Y-83143028D01*
X97713028Y-83287786D01*
X97592715Y-83453386D01*
X97499781Y-83635776D01*
X97436522Y-83830465D01*
X97404500Y-84032648D01*
X97404500Y-84237351D01*
X97436522Y-84439534D01*
X97499781Y-84634223D01*
X97592715Y-84816613D01*
X97713028Y-84982213D01*
X97857786Y-85126971D01*
X97957082Y-85199112D01*
X98023390Y-85247287D01*
X98114840Y-85293883D01*
X98116080Y-85294515D01*
X98166876Y-85342490D01*
X98183671Y-85410311D01*
X98161134Y-85476446D01*
X98116080Y-85515485D01*
X98023386Y-85562715D01*
X97857786Y-85683028D01*
X97713028Y-85827786D01*
X97592715Y-85993386D01*
X97499781Y-86175776D01*
X97436522Y-86370465D01*
X97409847Y-86538887D01*
X97404500Y-86572648D01*
X97404500Y-86777352D01*
X97405357Y-86782762D01*
X97436522Y-86979534D01*
X97499781Y-87174223D01*
X97533165Y-87239741D01*
X97589349Y-87350008D01*
X97592715Y-87356613D01*
X97713028Y-87522213D01*
X97857786Y-87666971D01*
X97997745Y-87768655D01*
X98023390Y-87787287D01*
X98114840Y-87833883D01*
X98116080Y-87834515D01*
X98166876Y-87882490D01*
X98183671Y-87950311D01*
X98161134Y-88016446D01*
X98116080Y-88055485D01*
X98023386Y-88102715D01*
X97857786Y-88223028D01*
X97713028Y-88367786D01*
X97592715Y-88533386D01*
X97499781Y-88715776D01*
X97436522Y-88910465D01*
X97404500Y-89112648D01*
X97404500Y-89317351D01*
X97436522Y-89519534D01*
X97499781Y-89714223D01*
X97546409Y-89805733D01*
X97577593Y-89866936D01*
X97592715Y-89896613D01*
X97713028Y-90062213D01*
X97857786Y-90206971D01*
X97959964Y-90281206D01*
X98023390Y-90327287D01*
X98102218Y-90367452D01*
X98116080Y-90374515D01*
X98166876Y-90422490D01*
X98183671Y-90490311D01*
X98161134Y-90556446D01*
X98116080Y-90595485D01*
X98023386Y-90642715D01*
X97857786Y-90763028D01*
X97713028Y-90907786D01*
X97592715Y-91073386D01*
X97499781Y-91255776D01*
X97436522Y-91450465D01*
X97404500Y-91652648D01*
X97404500Y-91857351D01*
X97436522Y-92059534D01*
X97499781Y-92254223D01*
X97563691Y-92379653D01*
X97585647Y-92422743D01*
X97592715Y-92436613D01*
X97713028Y-92602213D01*
X97857786Y-92746971D01*
X98012749Y-92859556D01*
X98023390Y-92867287D01*
X98114840Y-92913883D01*
X98116080Y-92914515D01*
X98166876Y-92962490D01*
X98183671Y-93030311D01*
X98161134Y-93096446D01*
X98116080Y-93135485D01*
X98023386Y-93182715D01*
X97857786Y-93303028D01*
X97713028Y-93447786D01*
X97592715Y-93613386D01*
X97499781Y-93795776D01*
X97436522Y-93990465D01*
X97404500Y-94192648D01*
X97404500Y-94397351D01*
X97436522Y-94599534D01*
X97499781Y-94794223D01*
X97592715Y-94976613D01*
X97713028Y-95142213D01*
X97857786Y-95286971D01*
X98012749Y-95399556D01*
X98023390Y-95407287D01*
X98114840Y-95453883D01*
X98116080Y-95454515D01*
X98166876Y-95502490D01*
X98183671Y-95570311D01*
X98161134Y-95636446D01*
X98116080Y-95675485D01*
X98023386Y-95722715D01*
X97857786Y-95843028D01*
X97713028Y-95987786D01*
X97592715Y-96153386D01*
X97499781Y-96335776D01*
X97436522Y-96530465D01*
X97404500Y-96732648D01*
X97404500Y-96937351D01*
X97436522Y-97139534D01*
X97499781Y-97334223D01*
X97592715Y-97516613D01*
X97713028Y-97682213D01*
X97857786Y-97826971D01*
X98012749Y-97939556D01*
X98023390Y-97947287D01*
X98114840Y-97993883D01*
X98116080Y-97994515D01*
X98166876Y-98042490D01*
X98183671Y-98110311D01*
X98161134Y-98176446D01*
X98116080Y-98215485D01*
X98023386Y-98262715D01*
X97857786Y-98383028D01*
X97713028Y-98527786D01*
X97592715Y-98693386D01*
X97499781Y-98875776D01*
X97436522Y-99070465D01*
X97404500Y-99272648D01*
X97404500Y-99477351D01*
X97436522Y-99679534D01*
X97499781Y-99874223D01*
X97563691Y-99999653D01*
X97572892Y-100017710D01*
X97592715Y-100056613D01*
X97713028Y-100222213D01*
X97857786Y-100366971D01*
X98012749Y-100479556D01*
X98023390Y-100487287D01*
X98114840Y-100533883D01*
X98116080Y-100534515D01*
X98166876Y-100582490D01*
X98183671Y-100650311D01*
X98161134Y-100716446D01*
X98116080Y-100755485D01*
X98023386Y-100802715D01*
X97857786Y-100923028D01*
X97713028Y-101067786D01*
X97592715Y-101233386D01*
X97499781Y-101415776D01*
X97436522Y-101610465D01*
X97404500Y-101812648D01*
X97404500Y-102017351D01*
X97436522Y-102219534D01*
X97499781Y-102414223D01*
X97592715Y-102596613D01*
X97713028Y-102762213D01*
X97857786Y-102906971D01*
X98012749Y-103019556D01*
X98023390Y-103027287D01*
X98114840Y-103073883D01*
X98116080Y-103074515D01*
X98166876Y-103122490D01*
X98183671Y-103190311D01*
X98161134Y-103256446D01*
X98116080Y-103295485D01*
X98023386Y-103342715D01*
X97857786Y-103463028D01*
X97713028Y-103607786D01*
X97592715Y-103773386D01*
X97499781Y-103955776D01*
X97436522Y-104150465D01*
X97404500Y-104352648D01*
X97404500Y-104557351D01*
X97436522Y-104759534D01*
X97499781Y-104954223D01*
X97592715Y-105136613D01*
X97713028Y-105302213D01*
X97857786Y-105446971D01*
X98012749Y-105559556D01*
X98023390Y-105567287D01*
X98084339Y-105598342D01*
X98116080Y-105614515D01*
X98166876Y-105662490D01*
X98183671Y-105730311D01*
X98161134Y-105796446D01*
X98116080Y-105835485D01*
X98023386Y-105882715D01*
X97857786Y-106003028D01*
X97713028Y-106147786D01*
X97592715Y-106313386D01*
X97499781Y-106495776D01*
X97436522Y-106690465D01*
X97404500Y-106892648D01*
X97404500Y-107097351D01*
X97436522Y-107299534D01*
X97499781Y-107494223D01*
X97592715Y-107676613D01*
X97713028Y-107842213D01*
X97857786Y-107986971D01*
X98012749Y-108099556D01*
X98023390Y-108107287D01*
X98139607Y-108166503D01*
X98205776Y-108200218D01*
X98205778Y-108200218D01*
X98205781Y-108200220D01*
X98296856Y-108229812D01*
X98400465Y-108263477D01*
X98501557Y-108279488D01*
X98602648Y-108295500D01*
X98602649Y-108295500D01*
X99607351Y-108295500D01*
X99607352Y-108295500D01*
X99809534Y-108263477D01*
X100004219Y-108200220D01*
X100186610Y-108107287D01*
X100315482Y-108013657D01*
X100352213Y-107986971D01*
X100352215Y-107986968D01*
X100352219Y-107986966D01*
X100496966Y-107842219D01*
X100496968Y-107842215D01*
X100496971Y-107842213D01*
X100601892Y-107697799D01*
X100617287Y-107676610D01*
X100710220Y-107494219D01*
X100773477Y-107299534D01*
X100805500Y-107097352D01*
X100805500Y-106892648D01*
X100796553Y-106836157D01*
X100773477Y-106690465D01*
X100727837Y-106550002D01*
X100710220Y-106495781D01*
X100710218Y-106495778D01*
X100710218Y-106495776D01*
X100658865Y-106394991D01*
X100617287Y-106313390D01*
X100601892Y-106292200D01*
X100496971Y-106147786D01*
X100352213Y-106003028D01*
X100186614Y-105882715D01*
X100145544Y-105861789D01*
X100093917Y-105835483D01*
X100043123Y-105787511D01*
X100026328Y-105719690D01*
X100048865Y-105653555D01*
X100093917Y-105614516D01*
X100186610Y-105567287D01*
X100207770Y-105551913D01*
X100352213Y-105446971D01*
X100352215Y-105446968D01*
X100352219Y-105446966D01*
X100496966Y-105302219D01*
X100496968Y-105302215D01*
X100496971Y-105302213D01*
X100584549Y-105181670D01*
X100617287Y-105136610D01*
X100710220Y-104954219D01*
X100773477Y-104759534D01*
X100805500Y-104557352D01*
X100805500Y-104352648D01*
X100773477Y-104150466D01*
X100769992Y-104139741D01*
X100718306Y-103980667D01*
X100710220Y-103955781D01*
X100710218Y-103955778D01*
X100710218Y-103955776D01*
X100649584Y-103836777D01*
X100617287Y-103773390D01*
X100575874Y-103716389D01*
X100496971Y-103607786D01*
X100352213Y-103463028D01*
X100186614Y-103342715D01*
X100180006Y-103339348D01*
X100093917Y-103295483D01*
X100043123Y-103247511D01*
X100026328Y-103179690D01*
X100048865Y-103113555D01*
X100093917Y-103074516D01*
X100186610Y-103027287D01*
X100207770Y-103011913D01*
X100352213Y-102906971D01*
X100352215Y-102906968D01*
X100352219Y-102906966D01*
X100496966Y-102762219D01*
X100496968Y-102762215D01*
X100496971Y-102762213D01*
X100549732Y-102689590D01*
X100617287Y-102596610D01*
X100710220Y-102414219D01*
X100773477Y-102219534D01*
X100805500Y-102017352D01*
X100805500Y-101812648D01*
X100773477Y-101610466D01*
X100710220Y-101415781D01*
X100710218Y-101415778D01*
X100710218Y-101415776D01*
X100676503Y-101349607D01*
X100617287Y-101233390D01*
X100609556Y-101222749D01*
X100496971Y-101067786D01*
X100352213Y-100923028D01*
X100186614Y-100802715D01*
X100154117Y-100786157D01*
X100093917Y-100755483D01*
X100043123Y-100707511D01*
X100026328Y-100639690D01*
X100048865Y-100573555D01*
X100093917Y-100534516D01*
X100186610Y-100487287D01*
X100207770Y-100471913D01*
X100352213Y-100366971D01*
X100352215Y-100366968D01*
X100352219Y-100366966D01*
X100496966Y-100222219D01*
X100496968Y-100222215D01*
X100496971Y-100222213D01*
X100578633Y-100109813D01*
X100617287Y-100056610D01*
X100710220Y-99874219D01*
X100773477Y-99679534D01*
X100805500Y-99477352D01*
X100805500Y-99272648D01*
X100783171Y-99131670D01*
X100773477Y-99070465D01*
X100710218Y-98875776D01*
X100662823Y-98782759D01*
X100617287Y-98693390D01*
X100609556Y-98682749D01*
X100496971Y-98527786D01*
X100352213Y-98383028D01*
X100186614Y-98262715D01*
X100180006Y-98259348D01*
X100093917Y-98215483D01*
X100043123Y-98167511D01*
X100026328Y-98099690D01*
X100048865Y-98033555D01*
X100093917Y-97994516D01*
X100186610Y-97947287D01*
X100207770Y-97931913D01*
X100352213Y-97826971D01*
X100352215Y-97826968D01*
X100352219Y-97826966D01*
X100496966Y-97682219D01*
X100496968Y-97682215D01*
X100496971Y-97682213D01*
X100591824Y-97551657D01*
X100617287Y-97516610D01*
X100710220Y-97334219D01*
X100773477Y-97139534D01*
X100805500Y-96937352D01*
X100805500Y-96732648D01*
X100793373Y-96656081D01*
X100773477Y-96530465D01*
X100710218Y-96335776D01*
X100653519Y-96224500D01*
X100617287Y-96153390D01*
X100563031Y-96078712D01*
X100496971Y-95987786D01*
X100352213Y-95843028D01*
X100186614Y-95722715D01*
X100180006Y-95719348D01*
X100093917Y-95675483D01*
X100043123Y-95627511D01*
X100026328Y-95559690D01*
X100048865Y-95493555D01*
X100093917Y-95454516D01*
X100186610Y-95407287D01*
X100224451Y-95379794D01*
X100352213Y-95286971D01*
X100352215Y-95286968D01*
X100352219Y-95286966D01*
X100496966Y-95142219D01*
X100496968Y-95142215D01*
X100496971Y-95142213D01*
X100549732Y-95069590D01*
X100617287Y-94976610D01*
X100710220Y-94794219D01*
X100773477Y-94599534D01*
X100805500Y-94397352D01*
X100805500Y-94192648D01*
X100773477Y-93990466D01*
X100710220Y-93795781D01*
X100710218Y-93795778D01*
X100710218Y-93795776D01*
X100671144Y-93719091D01*
X100617287Y-93613390D01*
X100609556Y-93602749D01*
X100496971Y-93447786D01*
X100352213Y-93303028D01*
X100186614Y-93182715D01*
X100180006Y-93179348D01*
X100093917Y-93135483D01*
X100043123Y-93087511D01*
X100026328Y-93019690D01*
X100048865Y-92953555D01*
X100093917Y-92914516D01*
X100186610Y-92867287D01*
X100207770Y-92851913D01*
X100352213Y-92746971D01*
X100352215Y-92746968D01*
X100352219Y-92746966D01*
X100496966Y-92602219D01*
X100496968Y-92602215D01*
X100496971Y-92602213D01*
X100567755Y-92504785D01*
X100617287Y-92436610D01*
X100710220Y-92254219D01*
X100773477Y-92059534D01*
X100805500Y-91857352D01*
X100805500Y-91652648D01*
X100791109Y-91561789D01*
X100773477Y-91450465D01*
X100744127Y-91360137D01*
X100710220Y-91255781D01*
X100710218Y-91255778D01*
X100710218Y-91255776D01*
X100676503Y-91189607D01*
X100617287Y-91073390D01*
X100609556Y-91062749D01*
X100496971Y-90907786D01*
X100352213Y-90763028D01*
X100186614Y-90642715D01*
X100110435Y-90603900D01*
X100093917Y-90595483D01*
X100043123Y-90547511D01*
X100026328Y-90479690D01*
X100048865Y-90413555D01*
X100093917Y-90374516D01*
X100186610Y-90327287D01*
X100250036Y-90281206D01*
X100352213Y-90206971D01*
X100352215Y-90206968D01*
X100352219Y-90206966D01*
X100496966Y-90062219D01*
X100496968Y-90062215D01*
X100496971Y-90062213D01*
X100558695Y-89977256D01*
X100617287Y-89896610D01*
X100710220Y-89714219D01*
X100773477Y-89519534D01*
X100805500Y-89317352D01*
X100805500Y-89112648D01*
X100773477Y-88910466D01*
X100710220Y-88715781D01*
X100710218Y-88715778D01*
X100710218Y-88715776D01*
X100676503Y-88649607D01*
X100617287Y-88533390D01*
X100609556Y-88522749D01*
X100496971Y-88367786D01*
X100352213Y-88223028D01*
X100186614Y-88102715D01*
X100180006Y-88099348D01*
X100093917Y-88055483D01*
X100043123Y-88007511D01*
X100026328Y-87939690D01*
X100048865Y-87873555D01*
X100093917Y-87834516D01*
X100186610Y-87787287D01*
X100212260Y-87768651D01*
X100352213Y-87666971D01*
X100352215Y-87666968D01*
X100352219Y-87666966D01*
X100496966Y-87522219D01*
X100496968Y-87522215D01*
X100496971Y-87522213D01*
X100561346Y-87433607D01*
X100617287Y-87356610D01*
X100710220Y-87174219D01*
X100773477Y-86979534D01*
X100805500Y-86777352D01*
X100805500Y-86572648D01*
X100797257Y-86520606D01*
X100773477Y-86370465D01*
X100710218Y-86175776D01*
X100617419Y-85993650D01*
X100617287Y-85993390D01*
X100599080Y-85968330D01*
X100496971Y-85827786D01*
X100352213Y-85683028D01*
X100186614Y-85562715D01*
X100164898Y-85551650D01*
X100093917Y-85515483D01*
X100043123Y-85467511D01*
X100026328Y-85399690D01*
X100048865Y-85333555D01*
X100093917Y-85294516D01*
X100186610Y-85247287D01*
X100252922Y-85199109D01*
X100352213Y-85126971D01*
X100352215Y-85126968D01*
X100352219Y-85126966D01*
X100496966Y-84982219D01*
X100496968Y-84982215D01*
X100496971Y-84982213D01*
X100549732Y-84909590D01*
X100617287Y-84816610D01*
X100710220Y-84634219D01*
X100773477Y-84439534D01*
X100805500Y-84237352D01*
X100805500Y-84032648D01*
X100773477Y-83830466D01*
X100710220Y-83635781D01*
X100710218Y-83635778D01*
X100710218Y-83635776D01*
X100676503Y-83569607D01*
X100617287Y-83453390D01*
X100609556Y-83442749D01*
X100496971Y-83287786D01*
X100352213Y-83143028D01*
X100186614Y-83022715D01*
X100180006Y-83019348D01*
X100093917Y-82975483D01*
X100043123Y-82927511D01*
X100026328Y-82859690D01*
X100048865Y-82793555D01*
X100093917Y-82754516D01*
X100186610Y-82707287D01*
X100267739Y-82648344D01*
X100352213Y-82586971D01*
X100352215Y-82586968D01*
X100352219Y-82586966D01*
X100496966Y-82442219D01*
X100496968Y-82442215D01*
X100496971Y-82442213D01*
X100593163Y-82309814D01*
X100617287Y-82276610D01*
X100710220Y-82094219D01*
X100773477Y-81899534D01*
X100805500Y-81697352D01*
X100805500Y-81492648D01*
X100773477Y-81290466D01*
X100758350Y-81243911D01*
X100710218Y-81095776D01*
X100667787Y-81012502D01*
X100617287Y-80913390D01*
X100607277Y-80899612D01*
X100496971Y-80747786D01*
X100352213Y-80603028D01*
X100186614Y-80482715D01*
X100180006Y-80479348D01*
X100093917Y-80435483D01*
X100043123Y-80387511D01*
X100026328Y-80319690D01*
X100048865Y-80253555D01*
X100093917Y-80214516D01*
X100186610Y-80167287D01*
X100207770Y-80151913D01*
X100352213Y-80046971D01*
X100352215Y-80046968D01*
X100352219Y-80046966D01*
X100496966Y-79902219D01*
X100496968Y-79902215D01*
X100496971Y-79902213D01*
X100563779Y-79810258D01*
X100617287Y-79736610D01*
X100710220Y-79554219D01*
X100773477Y-79359534D01*
X100805500Y-79157352D01*
X100805500Y-78952648D01*
X100805141Y-78950382D01*
X100773477Y-78750465D01*
X100710218Y-78555776D01*
X100664672Y-78466389D01*
X100617287Y-78373390D01*
X100601497Y-78351657D01*
X100496971Y-78207786D01*
X100352213Y-78063028D01*
X100186614Y-77942715D01*
X100180006Y-77939348D01*
X100093917Y-77895483D01*
X100043123Y-77847511D01*
X100026328Y-77779690D01*
X100048865Y-77713555D01*
X100093917Y-77674516D01*
X100186610Y-77627287D01*
X100216277Y-77605733D01*
X100352213Y-77506971D01*
X100352215Y-77506968D01*
X100352219Y-77506966D01*
X100496966Y-77362219D01*
X100496968Y-77362215D01*
X100496971Y-77362213D01*
X100582895Y-77243947D01*
X100617287Y-77196610D01*
X100710220Y-77014219D01*
X100773477Y-76819534D01*
X100805500Y-76617352D01*
X100805500Y-76412648D01*
X100794818Y-76345205D01*
X100773477Y-76210465D01*
X100729546Y-76075261D01*
X100710220Y-76015781D01*
X100710218Y-76015778D01*
X100710218Y-76015776D01*
X100644493Y-75886785D01*
X100617287Y-75833390D01*
X100561100Y-75756054D01*
X100496971Y-75667786D01*
X100352213Y-75523028D01*
X100186614Y-75402715D01*
X100170020Y-75394260D01*
X100093917Y-75355483D01*
X100043123Y-75307511D01*
X100026328Y-75239690D01*
X100048865Y-75173555D01*
X100093917Y-75134516D01*
X100186610Y-75087287D01*
X100207770Y-75071913D01*
X100352213Y-74966971D01*
X100352215Y-74966968D01*
X100352219Y-74966966D01*
X100496966Y-74822219D01*
X100496968Y-74822215D01*
X100496971Y-74822213D01*
X100549732Y-74749590D01*
X100617287Y-74656610D01*
X100710220Y-74474219D01*
X100773477Y-74279534D01*
X100805500Y-74077352D01*
X100805500Y-73872648D01*
X105024500Y-73872648D01*
X105024500Y-74077351D01*
X105056522Y-74279534D01*
X105119781Y-74474223D01*
X105181882Y-74596100D01*
X105212338Y-74655875D01*
X105212715Y-74656613D01*
X105333028Y-74822213D01*
X105477786Y-74966971D01*
X105632749Y-75079556D01*
X105643390Y-75087287D01*
X105734840Y-75133883D01*
X105736080Y-75134515D01*
X105786876Y-75182490D01*
X105803671Y-75250311D01*
X105781134Y-75316446D01*
X105736080Y-75355485D01*
X105643386Y-75402715D01*
X105477786Y-75523028D01*
X105333028Y-75667786D01*
X105212715Y-75833386D01*
X105119781Y-76015776D01*
X105056522Y-76210465D01*
X105024500Y-76412648D01*
X105024500Y-76617351D01*
X105056522Y-76819534D01*
X105119781Y-77014223D01*
X105183691Y-77139653D01*
X105208441Y-77188226D01*
X105212715Y-77196613D01*
X105333028Y-77362213D01*
X105477786Y-77506971D01*
X105613723Y-77605733D01*
X105643390Y-77627287D01*
X105734840Y-77673883D01*
X105736080Y-77674515D01*
X105786876Y-77722490D01*
X105803671Y-77790311D01*
X105781134Y-77856446D01*
X105736080Y-77895485D01*
X105643386Y-77942715D01*
X105477786Y-78063028D01*
X105333028Y-78207786D01*
X105212715Y-78373386D01*
X105119781Y-78555776D01*
X105056522Y-78750465D01*
X105024500Y-78952648D01*
X105024500Y-79157351D01*
X105056522Y-79359534D01*
X105119781Y-79554223D01*
X105212715Y-79736613D01*
X105333028Y-79902213D01*
X105477786Y-80046971D01*
X105632749Y-80159556D01*
X105643390Y-80167287D01*
X105734840Y-80213883D01*
X105736080Y-80214515D01*
X105786876Y-80262490D01*
X105803671Y-80330311D01*
X105781134Y-80396446D01*
X105736080Y-80435485D01*
X105643386Y-80482715D01*
X105477786Y-80603028D01*
X105333028Y-80747786D01*
X105212715Y-80913386D01*
X105119781Y-81095776D01*
X105056522Y-81290465D01*
X105024500Y-81492648D01*
X105024500Y-81697351D01*
X105056522Y-81899534D01*
X105119781Y-82094223D01*
X105212715Y-82276613D01*
X105333028Y-82442213D01*
X105477786Y-82586971D01*
X105632749Y-82699556D01*
X105643390Y-82707287D01*
X105734840Y-82753883D01*
X105736080Y-82754515D01*
X105786876Y-82802490D01*
X105803671Y-82870311D01*
X105781134Y-82936446D01*
X105736080Y-82975485D01*
X105643386Y-83022715D01*
X105477786Y-83143028D01*
X105333028Y-83287786D01*
X105212715Y-83453386D01*
X105119781Y-83635776D01*
X105056522Y-83830465D01*
X105024500Y-84032648D01*
X105024500Y-84237351D01*
X105056522Y-84439534D01*
X105119781Y-84634223D01*
X105212715Y-84816613D01*
X105333028Y-84982213D01*
X105477786Y-85126971D01*
X105577082Y-85199112D01*
X105643390Y-85247287D01*
X105715424Y-85283990D01*
X105736629Y-85294795D01*
X105787425Y-85342770D01*
X105804220Y-85410591D01*
X105781682Y-85476726D01*
X105736629Y-85515765D01*
X105643650Y-85563140D01*
X105478105Y-85683417D01*
X105478104Y-85683417D01*
X105333417Y-85828104D01*
X105333417Y-85828105D01*
X105213140Y-85993650D01*
X105120244Y-86175970D01*
X105057009Y-86370586D01*
X105048391Y-86425000D01*
X106409314Y-86425000D01*
X106404920Y-86429394D01*
X106352259Y-86520606D01*
X106325000Y-86622339D01*
X106325000Y-86727661D01*
X106352259Y-86829394D01*
X106404920Y-86920606D01*
X106409314Y-86925000D01*
X105048391Y-86925000D01*
X105057009Y-86979413D01*
X105120244Y-87174029D01*
X105213140Y-87356349D01*
X105333417Y-87521894D01*
X105333417Y-87521895D01*
X105478104Y-87666582D01*
X105643652Y-87786861D01*
X105736628Y-87834234D01*
X105787425Y-87882208D01*
X105804220Y-87950029D01*
X105781683Y-88016164D01*
X105736630Y-88055203D01*
X105643388Y-88102713D01*
X105477786Y-88223028D01*
X105333028Y-88367786D01*
X105212715Y-88533386D01*
X105119781Y-88715776D01*
X105056522Y-88910465D01*
X105024500Y-89112648D01*
X105024500Y-89317351D01*
X105056522Y-89519534D01*
X105119781Y-89714223D01*
X105166409Y-89805733D01*
X105197593Y-89866936D01*
X105212715Y-89896613D01*
X105333028Y-90062213D01*
X105477786Y-90206971D01*
X105579964Y-90281206D01*
X105643390Y-90327287D01*
X105722218Y-90367452D01*
X105736080Y-90374515D01*
X105786876Y-90422490D01*
X105803671Y-90490311D01*
X105781134Y-90556446D01*
X105736080Y-90595485D01*
X105643386Y-90642715D01*
X105477786Y-90763028D01*
X105333028Y-90907786D01*
X105212715Y-91073386D01*
X105119781Y-91255776D01*
X105056522Y-91450465D01*
X105024500Y-91652648D01*
X105024500Y-91857351D01*
X105056522Y-92059534D01*
X105119781Y-92254223D01*
X105183691Y-92379653D01*
X105205647Y-92422743D01*
X105212715Y-92436613D01*
X105333028Y-92602213D01*
X105477786Y-92746971D01*
X105632749Y-92859556D01*
X105643390Y-92867287D01*
X105734840Y-92913883D01*
X105736080Y-92914515D01*
X105786876Y-92962490D01*
X105803671Y-93030311D01*
X105781134Y-93096446D01*
X105736080Y-93135485D01*
X105643386Y-93182715D01*
X105477786Y-93303028D01*
X105333028Y-93447786D01*
X105212715Y-93613386D01*
X105119781Y-93795776D01*
X105056522Y-93990465D01*
X105024500Y-94192648D01*
X105024500Y-94397351D01*
X105056522Y-94599534D01*
X105119781Y-94794223D01*
X105212715Y-94976613D01*
X105333028Y-95142213D01*
X105477786Y-95286971D01*
X105632749Y-95399556D01*
X105643390Y-95407287D01*
X105734840Y-95453883D01*
X105736080Y-95454515D01*
X105786876Y-95502490D01*
X105803671Y-95570311D01*
X105781134Y-95636446D01*
X105736080Y-95675485D01*
X105643386Y-95722715D01*
X105477786Y-95843028D01*
X105333028Y-95987786D01*
X105212715Y-96153386D01*
X105119781Y-96335776D01*
X105056522Y-96530465D01*
X105024500Y-96732648D01*
X105024500Y-96937351D01*
X105056522Y-97139534D01*
X105119781Y-97334223D01*
X105212715Y-97516613D01*
X105333028Y-97682213D01*
X105477786Y-97826971D01*
X105632749Y-97939556D01*
X105643390Y-97947287D01*
X105734840Y-97993883D01*
X105736080Y-97994515D01*
X105786876Y-98042490D01*
X105803671Y-98110311D01*
X105781134Y-98176446D01*
X105736080Y-98215485D01*
X105643386Y-98262715D01*
X105477786Y-98383028D01*
X105333028Y-98527786D01*
X105212715Y-98693386D01*
X105119781Y-98875776D01*
X105056522Y-99070465D01*
X105024500Y-99272648D01*
X105024500Y-99477351D01*
X105056522Y-99679534D01*
X105119781Y-99874223D01*
X105183691Y-99999653D01*
X105192892Y-100017710D01*
X105212715Y-100056613D01*
X105333028Y-100222213D01*
X105477786Y-100366971D01*
X105632749Y-100479556D01*
X105643390Y-100487287D01*
X105734840Y-100533883D01*
X105736080Y-100534515D01*
X105786876Y-100582490D01*
X105803671Y-100650311D01*
X105781134Y-100716446D01*
X105736080Y-100755485D01*
X105643386Y-100802715D01*
X105477786Y-100923028D01*
X105333028Y-101067786D01*
X105212715Y-101233386D01*
X105119781Y-101415776D01*
X105056522Y-101610465D01*
X105024500Y-101812648D01*
X105024500Y-102017351D01*
X105056522Y-102219534D01*
X105119781Y-102414223D01*
X105212715Y-102596613D01*
X105333028Y-102762213D01*
X105477786Y-102906971D01*
X105632749Y-103019556D01*
X105643390Y-103027287D01*
X105734840Y-103073883D01*
X105736080Y-103074515D01*
X105786876Y-103122490D01*
X105803671Y-103190311D01*
X105781134Y-103256446D01*
X105736080Y-103295485D01*
X105643386Y-103342715D01*
X105477786Y-103463028D01*
X105333028Y-103607786D01*
X105212715Y-103773386D01*
X105119781Y-103955776D01*
X105056522Y-104150465D01*
X105024500Y-104352648D01*
X105024500Y-104557351D01*
X105056522Y-104759534D01*
X105119781Y-104954223D01*
X105212715Y-105136613D01*
X105333028Y-105302213D01*
X105333034Y-105302219D01*
X105477781Y-105446966D01*
X105571452Y-105515021D01*
X105614117Y-105570350D01*
X105620096Y-105639963D01*
X105587491Y-105701759D01*
X105537571Y-105733045D01*
X105455666Y-105760186D01*
X105455663Y-105760187D01*
X105306342Y-105852289D01*
X105182289Y-105976342D01*
X105090187Y-106125663D01*
X105090186Y-106125666D01*
X105035001Y-106292203D01*
X105035001Y-106292204D01*
X105035000Y-106292204D01*
X105024500Y-106394983D01*
X105024500Y-107595001D01*
X105024501Y-107595018D01*
X105035000Y-107697796D01*
X105035001Y-107697799D01*
X105082856Y-107842213D01*
X105090186Y-107864334D01*
X105182288Y-108013656D01*
X105306344Y-108137712D01*
X105455666Y-108229814D01*
X105622203Y-108284999D01*
X105724991Y-108295500D01*
X107725008Y-108295499D01*
X107827797Y-108284999D01*
X107994334Y-108229814D01*
X108143656Y-108137712D01*
X108267712Y-108013656D01*
X108359814Y-107864334D01*
X108414999Y-107697797D01*
X108425500Y-107595009D01*
X108425499Y-106394992D01*
X108414999Y-106292203D01*
X108359814Y-106125666D01*
X108267712Y-105976344D01*
X108143656Y-105852288D01*
X108019162Y-105775500D01*
X107994336Y-105760187D01*
X107994335Y-105760186D01*
X107994334Y-105760186D01*
X107912427Y-105733044D01*
X107854984Y-105693272D01*
X107828161Y-105628756D01*
X107840476Y-105559980D01*
X107878547Y-105515021D01*
X107972219Y-105446966D01*
X108116966Y-105302219D01*
X108116968Y-105302215D01*
X108116971Y-105302213D01*
X108237284Y-105136614D01*
X108237285Y-105136613D01*
X108237287Y-105136610D01*
X108276190Y-105060258D01*
X128524500Y-105060258D01*
X128524500Y-105289741D01*
X128536214Y-105378711D01*
X128554452Y-105517238D01*
X128601620Y-105693272D01*
X128613842Y-105738887D01*
X128701650Y-105950876D01*
X128701657Y-105950890D01*
X128816392Y-106149617D01*
X128956081Y-106331661D01*
X128956089Y-106331670D01*
X129118330Y-106493911D01*
X129118338Y-106493918D01*
X129300382Y-106633607D01*
X129300385Y-106633608D01*
X129300388Y-106633611D01*
X129499112Y-106748344D01*
X129499117Y-106748346D01*
X129499123Y-106748349D01*
X129590480Y-106786190D01*
X129711113Y-106836158D01*
X129932762Y-106895548D01*
X130160266Y-106925500D01*
X130160273Y-106925500D01*
X130389727Y-106925500D01*
X130389734Y-106925500D01*
X130617238Y-106895548D01*
X130838887Y-106836158D01*
X131050888Y-106748344D01*
X131249612Y-106633611D01*
X131431661Y-106493919D01*
X131431665Y-106493914D01*
X131431670Y-106493911D01*
X131593911Y-106331670D01*
X131593914Y-106331665D01*
X131593919Y-106331661D01*
X131733611Y-106149612D01*
X131848344Y-105950888D01*
X131936158Y-105738887D01*
X131995548Y-105517238D01*
X132025500Y-105289734D01*
X132025500Y-105060266D01*
X132025499Y-105060258D01*
X140724500Y-105060258D01*
X140724500Y-105289741D01*
X140736214Y-105378711D01*
X140754452Y-105517238D01*
X140801620Y-105693272D01*
X140813842Y-105738887D01*
X140901650Y-105950876D01*
X140901657Y-105950890D01*
X141016392Y-106149617D01*
X141156081Y-106331661D01*
X141156089Y-106331670D01*
X141318330Y-106493911D01*
X141318338Y-106493918D01*
X141500382Y-106633607D01*
X141500385Y-106633608D01*
X141500388Y-106633611D01*
X141699112Y-106748344D01*
X141699117Y-106748346D01*
X141699123Y-106748349D01*
X141790480Y-106786190D01*
X141911113Y-106836158D01*
X142132762Y-106895548D01*
X142360266Y-106925500D01*
X142360273Y-106925500D01*
X142589727Y-106925500D01*
X142589734Y-106925500D01*
X142817238Y-106895548D01*
X143038887Y-106836158D01*
X143250888Y-106748344D01*
X143449612Y-106633611D01*
X143631661Y-106493919D01*
X143631665Y-106493914D01*
X143631670Y-106493911D01*
X143793911Y-106331670D01*
X143793914Y-106331665D01*
X143793919Y-106331661D01*
X143933611Y-106149612D01*
X144048344Y-105950888D01*
X144136158Y-105738887D01*
X144195548Y-105517238D01*
X144213786Y-105378711D01*
X153299500Y-105378711D01*
X153299500Y-105621288D01*
X153331161Y-105861785D01*
X153393947Y-106096104D01*
X153483950Y-106313390D01*
X153486776Y-106320212D01*
X153608064Y-106530289D01*
X153608066Y-106530292D01*
X153608067Y-106530293D01*
X153755733Y-106722736D01*
X153755739Y-106722743D01*
X153927256Y-106894260D01*
X153927262Y-106894265D01*
X154119711Y-107041936D01*
X154329788Y-107163224D01*
X154553900Y-107256054D01*
X154788211Y-107318838D01*
X154968586Y-107342584D01*
X155028711Y-107350500D01*
X155028712Y-107350500D01*
X155271289Y-107350500D01*
X155319388Y-107344167D01*
X155511789Y-107318838D01*
X155746100Y-107256054D01*
X155970212Y-107163224D01*
X156180289Y-107041936D01*
X156372738Y-106894265D01*
X156544265Y-106722738D01*
X156691936Y-106530289D01*
X156813224Y-106320212D01*
X156906054Y-106096100D01*
X156968838Y-105861789D01*
X157000500Y-105621288D01*
X157000500Y-105378712D01*
X156995919Y-105343919D01*
X156968838Y-105138214D01*
X156968838Y-105138211D01*
X156906054Y-104903900D01*
X156813224Y-104679788D01*
X156691936Y-104469711D01*
X156544265Y-104277262D01*
X156544260Y-104277256D01*
X156372743Y-104105739D01*
X156372736Y-104105733D01*
X156180293Y-103958067D01*
X156180292Y-103958066D01*
X156180289Y-103958064D01*
X155970212Y-103836776D01*
X155957108Y-103831348D01*
X155746104Y-103743947D01*
X155511785Y-103681161D01*
X155271289Y-103649500D01*
X155271288Y-103649500D01*
X155028712Y-103649500D01*
X155028711Y-103649500D01*
X154788214Y-103681161D01*
X154553895Y-103743947D01*
X154329794Y-103836773D01*
X154329785Y-103836777D01*
X154119706Y-103958067D01*
X153927263Y-104105733D01*
X153927256Y-104105739D01*
X153755739Y-104277256D01*
X153755733Y-104277263D01*
X153608067Y-104469706D01*
X153486777Y-104679785D01*
X153486773Y-104679794D01*
X153393947Y-104903895D01*
X153331161Y-105138214D01*
X153299500Y-105378711D01*
X144213786Y-105378711D01*
X144225500Y-105289734D01*
X144225500Y-105060266D01*
X144195548Y-104832762D01*
X144136158Y-104611113D01*
X144048344Y-104399112D01*
X143933611Y-104200388D01*
X143933608Y-104200385D01*
X143933607Y-104200382D01*
X143793918Y-104018338D01*
X143793911Y-104018330D01*
X143631670Y-103856089D01*
X143631661Y-103856081D01*
X143449617Y-103716392D01*
X143250890Y-103601657D01*
X143250876Y-103601650D01*
X143038887Y-103513842D01*
X142817238Y-103454452D01*
X142779215Y-103449446D01*
X142589741Y-103424500D01*
X142589734Y-103424500D01*
X142360266Y-103424500D01*
X142360258Y-103424500D01*
X142143715Y-103453009D01*
X142132762Y-103454452D01*
X142039076Y-103479554D01*
X141911112Y-103513842D01*
X141699123Y-103601650D01*
X141699109Y-103601657D01*
X141500382Y-103716392D01*
X141318338Y-103856081D01*
X141156081Y-104018338D01*
X141016392Y-104200382D01*
X140901657Y-104399109D01*
X140901650Y-104399123D01*
X140813842Y-104611112D01*
X140754453Y-104832759D01*
X140754451Y-104832770D01*
X140724500Y-105060258D01*
X132025499Y-105060258D01*
X131995548Y-104832762D01*
X131936158Y-104611113D01*
X131848344Y-104399112D01*
X131733611Y-104200388D01*
X131733608Y-104200385D01*
X131733607Y-104200382D01*
X131593918Y-104018338D01*
X131593911Y-104018330D01*
X131431670Y-103856089D01*
X131431661Y-103856081D01*
X131249617Y-103716392D01*
X131050890Y-103601657D01*
X131050876Y-103601650D01*
X130838887Y-103513842D01*
X130617238Y-103454452D01*
X130579215Y-103449446D01*
X130389741Y-103424500D01*
X130389734Y-103424500D01*
X130160266Y-103424500D01*
X130160258Y-103424500D01*
X129943715Y-103453009D01*
X129932762Y-103454452D01*
X129839076Y-103479554D01*
X129711112Y-103513842D01*
X129499123Y-103601650D01*
X129499109Y-103601657D01*
X129300382Y-103716392D01*
X129118338Y-103856081D01*
X128956081Y-104018338D01*
X128816392Y-104200382D01*
X128701657Y-104399109D01*
X128701650Y-104399123D01*
X128613842Y-104611112D01*
X128554453Y-104832759D01*
X128554451Y-104832770D01*
X128524500Y-105060258D01*
X108276190Y-105060258D01*
X108330220Y-104954219D01*
X108393477Y-104759534D01*
X108425500Y-104557352D01*
X108425500Y-104352648D01*
X108393477Y-104150466D01*
X108389992Y-104139741D01*
X108338306Y-103980667D01*
X108330220Y-103955781D01*
X108330218Y-103955778D01*
X108330218Y-103955776D01*
X108269584Y-103836777D01*
X108237287Y-103773390D01*
X108195874Y-103716389D01*
X108116971Y-103607786D01*
X107972213Y-103463028D01*
X107806614Y-103342715D01*
X107800006Y-103339348D01*
X107713917Y-103295483D01*
X107663123Y-103247511D01*
X107646328Y-103179690D01*
X107668865Y-103113555D01*
X107713917Y-103074516D01*
X107806610Y-103027287D01*
X107827770Y-103011913D01*
X107972213Y-102906971D01*
X107972215Y-102906968D01*
X107972219Y-102906966D01*
X108116966Y-102762219D01*
X108116968Y-102762215D01*
X108116971Y-102762213D01*
X108169732Y-102689590D01*
X108237287Y-102596610D01*
X108330220Y-102414219D01*
X108393477Y-102219534D01*
X108425500Y-102017352D01*
X108425500Y-101812648D01*
X108393477Y-101610466D01*
X108330220Y-101415781D01*
X108330218Y-101415778D01*
X108330218Y-101415776D01*
X108296503Y-101349607D01*
X108237287Y-101233390D01*
X108229556Y-101222749D01*
X108116971Y-101067786D01*
X107972213Y-100923028D01*
X107806614Y-100802715D01*
X107774117Y-100786157D01*
X107713917Y-100755483D01*
X107663123Y-100707511D01*
X107646328Y-100639690D01*
X107668865Y-100573555D01*
X107713917Y-100534516D01*
X107806610Y-100487287D01*
X107827770Y-100471913D01*
X107972213Y-100366971D01*
X107972215Y-100366968D01*
X107972219Y-100366966D01*
X108116966Y-100222219D01*
X108116968Y-100222215D01*
X108116971Y-100222213D01*
X108198633Y-100109813D01*
X108237287Y-100056610D01*
X108330220Y-99874219D01*
X108393477Y-99679534D01*
X108425500Y-99477352D01*
X108425500Y-99272648D01*
X108393477Y-99070466D01*
X108393476Y-99070462D01*
X108393476Y-99070461D01*
X108385049Y-99044525D01*
X108373915Y-99010258D01*
X128524500Y-99010258D01*
X128524500Y-99239741D01*
X128549446Y-99429215D01*
X128554452Y-99467238D01*
X128611336Y-99679534D01*
X128613842Y-99688887D01*
X128701650Y-99900876D01*
X128701657Y-99900890D01*
X128816392Y-100099617D01*
X128956081Y-100281661D01*
X128956089Y-100281670D01*
X129118330Y-100443911D01*
X129118338Y-100443918D01*
X129300382Y-100583607D01*
X129300385Y-100583608D01*
X129300388Y-100583611D01*
X129499112Y-100698344D01*
X129499117Y-100698346D01*
X129499123Y-100698349D01*
X129590480Y-100736190D01*
X129711113Y-100786158D01*
X129932762Y-100845548D01*
X130160266Y-100875500D01*
X130160273Y-100875500D01*
X130389727Y-100875500D01*
X130389734Y-100875500D01*
X130617238Y-100845548D01*
X130838887Y-100786158D01*
X131050888Y-100698344D01*
X131249612Y-100583611D01*
X131431661Y-100443919D01*
X131431665Y-100443914D01*
X131431670Y-100443911D01*
X131593911Y-100281670D01*
X131593914Y-100281665D01*
X131593919Y-100281661D01*
X131733611Y-100099612D01*
X131848344Y-99900888D01*
X131936158Y-99688887D01*
X131995548Y-99467238D01*
X132025500Y-99239734D01*
X132025500Y-99010266D01*
X132025499Y-99010258D01*
X140724500Y-99010258D01*
X140724500Y-99239741D01*
X140749446Y-99429215D01*
X140754452Y-99467238D01*
X140811336Y-99679534D01*
X140813842Y-99688887D01*
X140901650Y-99900876D01*
X140901657Y-99900890D01*
X141016392Y-100099617D01*
X141156081Y-100281661D01*
X141156089Y-100281670D01*
X141318330Y-100443911D01*
X141318338Y-100443918D01*
X141500382Y-100583607D01*
X141500385Y-100583608D01*
X141500388Y-100583611D01*
X141699112Y-100698344D01*
X141699117Y-100698346D01*
X141699123Y-100698349D01*
X141790480Y-100736190D01*
X141911113Y-100786158D01*
X142132762Y-100845548D01*
X142360266Y-100875500D01*
X142360273Y-100875500D01*
X142589727Y-100875500D01*
X142589734Y-100875500D01*
X142817238Y-100845548D01*
X143038887Y-100786158D01*
X143250888Y-100698344D01*
X143449612Y-100583611D01*
X143631661Y-100443919D01*
X143631665Y-100443914D01*
X143631670Y-100443911D01*
X143793911Y-100281670D01*
X143793914Y-100281665D01*
X143793919Y-100281661D01*
X143933611Y-100099612D01*
X144048344Y-99900888D01*
X144136158Y-99688887D01*
X144195548Y-99467238D01*
X144225500Y-99239734D01*
X144225500Y-99010266D01*
X144195548Y-98782762D01*
X144136158Y-98561113D01*
X144048344Y-98349112D01*
X143933611Y-98150388D01*
X143933608Y-98150385D01*
X143933607Y-98150382D01*
X143793918Y-97968338D01*
X143793911Y-97968330D01*
X143631670Y-97806089D01*
X143631661Y-97806081D01*
X143449617Y-97666392D01*
X143250890Y-97551657D01*
X143250876Y-97551650D01*
X143038887Y-97463842D01*
X142817238Y-97404452D01*
X142779215Y-97399446D01*
X142589741Y-97374500D01*
X142589734Y-97374500D01*
X142360266Y-97374500D01*
X142360258Y-97374500D01*
X142143715Y-97403009D01*
X142132762Y-97404452D01*
X142064517Y-97422738D01*
X141911112Y-97463842D01*
X141699123Y-97551650D01*
X141699109Y-97551657D01*
X141500382Y-97666392D01*
X141318338Y-97806081D01*
X141156081Y-97968338D01*
X141016392Y-98150382D01*
X140901657Y-98349109D01*
X140901650Y-98349123D01*
X140813842Y-98561112D01*
X140754453Y-98782759D01*
X140754451Y-98782770D01*
X140724500Y-99010258D01*
X132025499Y-99010258D01*
X131995548Y-98782762D01*
X131936158Y-98561113D01*
X131848344Y-98349112D01*
X131733611Y-98150388D01*
X131733608Y-98150385D01*
X131733607Y-98150382D01*
X131593918Y-97968338D01*
X131593911Y-97968330D01*
X131431670Y-97806089D01*
X131431661Y-97806081D01*
X131249617Y-97666392D01*
X131050890Y-97551657D01*
X131050876Y-97551650D01*
X130838887Y-97463842D01*
X130617238Y-97404452D01*
X130579215Y-97399446D01*
X130389741Y-97374500D01*
X130389734Y-97374500D01*
X130160266Y-97374500D01*
X130160258Y-97374500D01*
X129943715Y-97403009D01*
X129932762Y-97404452D01*
X129864517Y-97422738D01*
X129711112Y-97463842D01*
X129499123Y-97551650D01*
X129499109Y-97551657D01*
X129300382Y-97666392D01*
X129118338Y-97806081D01*
X128956081Y-97968338D01*
X128816392Y-98150382D01*
X128701657Y-98349109D01*
X128701650Y-98349123D01*
X128613842Y-98561112D01*
X128554453Y-98782759D01*
X128554451Y-98782770D01*
X128524500Y-99010258D01*
X108373915Y-99010258D01*
X108330218Y-98875776D01*
X108282823Y-98782759D01*
X108237287Y-98693390D01*
X108229556Y-98682749D01*
X108116971Y-98527786D01*
X107972213Y-98383028D01*
X107806614Y-98262715D01*
X107800006Y-98259348D01*
X107713917Y-98215483D01*
X107663123Y-98167511D01*
X107646328Y-98099690D01*
X107668865Y-98033555D01*
X107713917Y-97994516D01*
X107806610Y-97947287D01*
X107827770Y-97931913D01*
X107972213Y-97826971D01*
X107972215Y-97826968D01*
X107972219Y-97826966D01*
X108116966Y-97682219D01*
X108116968Y-97682215D01*
X108116971Y-97682213D01*
X108211824Y-97551657D01*
X108237287Y-97516610D01*
X108330220Y-97334219D01*
X108381959Y-97174984D01*
X153299500Y-97174984D01*
X153299500Y-99475015D01*
X153310000Y-99577795D01*
X153310001Y-99577796D01*
X153365186Y-99744335D01*
X153365187Y-99744337D01*
X153457286Y-99893651D01*
X153457289Y-99893655D01*
X153581344Y-100017710D01*
X153581348Y-100017713D01*
X153730662Y-100109812D01*
X153730664Y-100109813D01*
X153730666Y-100109814D01*
X153897203Y-100164999D01*
X153999992Y-100175500D01*
X153999997Y-100175500D01*
X156300003Y-100175500D01*
X156300008Y-100175500D01*
X156402797Y-100164999D01*
X156569334Y-100109814D01*
X156718655Y-100017711D01*
X156842711Y-99893655D01*
X156934814Y-99744334D01*
X156989999Y-99577797D01*
X157000500Y-99475008D01*
X157000500Y-97174992D01*
X156989999Y-97072203D01*
X156934814Y-96905666D01*
X156867232Y-96796100D01*
X156842713Y-96756348D01*
X156842710Y-96756344D01*
X156718655Y-96632289D01*
X156718651Y-96632286D01*
X156569337Y-96540187D01*
X156569335Y-96540186D01*
X156486065Y-96512593D01*
X156402797Y-96485001D01*
X156402795Y-96485000D01*
X156300015Y-96474500D01*
X156300008Y-96474500D01*
X153999992Y-96474500D01*
X153999984Y-96474500D01*
X153897204Y-96485000D01*
X153897203Y-96485001D01*
X153730664Y-96540186D01*
X153730662Y-96540187D01*
X153581348Y-96632286D01*
X153581344Y-96632289D01*
X153457289Y-96756344D01*
X153457286Y-96756348D01*
X153365187Y-96905662D01*
X153365186Y-96905664D01*
X153310001Y-97072203D01*
X153310000Y-97072204D01*
X153299500Y-97174984D01*
X108381959Y-97174984D01*
X108393477Y-97139534D01*
X108425500Y-96937352D01*
X108425500Y-96732648D01*
X108413373Y-96656081D01*
X108393477Y-96530465D01*
X108330218Y-96335776D01*
X108273519Y-96224500D01*
X108237287Y-96153390D01*
X108183031Y-96078712D01*
X108116971Y-95987786D01*
X107972213Y-95843028D01*
X107806614Y-95722715D01*
X107800006Y-95719348D01*
X107713917Y-95675483D01*
X107663123Y-95627511D01*
X107646328Y-95559690D01*
X107668865Y-95493555D01*
X107713917Y-95454516D01*
X107806610Y-95407287D01*
X107844451Y-95379794D01*
X107972213Y-95286971D01*
X107972215Y-95286968D01*
X107972219Y-95286966D01*
X108116966Y-95142219D01*
X108116968Y-95142215D01*
X108116971Y-95142213D01*
X108169732Y-95069590D01*
X108237287Y-94976610D01*
X108330220Y-94794219D01*
X108393477Y-94599534D01*
X108425500Y-94397352D01*
X108425500Y-94192648D01*
X108393477Y-93990466D01*
X108330220Y-93795781D01*
X108330218Y-93795778D01*
X108330218Y-93795776D01*
X108291144Y-93719091D01*
X108237287Y-93613390D01*
X108229556Y-93602749D01*
X108116971Y-93447786D01*
X107972213Y-93303028D01*
X107806614Y-93182715D01*
X107800006Y-93179348D01*
X107713917Y-93135483D01*
X107663123Y-93087511D01*
X107646328Y-93019690D01*
X107668865Y-92953555D01*
X107713917Y-92914516D01*
X107806610Y-92867287D01*
X107827770Y-92851913D01*
X107972213Y-92746971D01*
X107972215Y-92746968D01*
X107972219Y-92746966D01*
X108116966Y-92602219D01*
X108116968Y-92602215D01*
X108116971Y-92602213D01*
X108187755Y-92504785D01*
X108237287Y-92436610D01*
X108330220Y-92254219D01*
X108393477Y-92059534D01*
X108425500Y-91857352D01*
X108425500Y-91827135D01*
X126524500Y-91827135D01*
X126524500Y-94422870D01*
X126524501Y-94422876D01*
X126530908Y-94482483D01*
X126581202Y-94617328D01*
X126581206Y-94617335D01*
X126667452Y-94732544D01*
X126667455Y-94732547D01*
X126782664Y-94818793D01*
X126782671Y-94818797D01*
X126917517Y-94869091D01*
X126917516Y-94869091D01*
X126924444Y-94869835D01*
X126977127Y-94875500D01*
X129572872Y-94875499D01*
X129632483Y-94869091D01*
X129767331Y-94818796D01*
X129882546Y-94732546D01*
X129968796Y-94617331D01*
X130019091Y-94482483D01*
X130025500Y-94422873D01*
X130025499Y-93203711D01*
X153299500Y-93203711D01*
X153299500Y-93446288D01*
X153331161Y-93686785D01*
X153393947Y-93921104D01*
X153422678Y-93990466D01*
X153486776Y-94145212D01*
X153608064Y-94355289D01*
X153608066Y-94355292D01*
X153608067Y-94355293D01*
X153755733Y-94547736D01*
X153755739Y-94547743D01*
X153927256Y-94719260D01*
X153927263Y-94719266D01*
X153944570Y-94732546D01*
X154119711Y-94866936D01*
X154329788Y-94988224D01*
X154553900Y-95081054D01*
X154788211Y-95143838D01*
X154968586Y-95167584D01*
X155028711Y-95175500D01*
X155028712Y-95175500D01*
X155271289Y-95175500D01*
X155319388Y-95169167D01*
X155511789Y-95143838D01*
X155746100Y-95081054D01*
X155970212Y-94988224D01*
X156180289Y-94866936D01*
X156372738Y-94719265D01*
X156544265Y-94547738D01*
X156691936Y-94355289D01*
X156813224Y-94145212D01*
X156906054Y-93921100D01*
X156968838Y-93686789D01*
X157000500Y-93446288D01*
X157000500Y-93203712D01*
X156997735Y-93182713D01*
X156985202Y-93087511D01*
X156968838Y-92963211D01*
X156906054Y-92728900D01*
X156813224Y-92504788D01*
X156691936Y-92294711D01*
X156544265Y-92102262D01*
X156544260Y-92102256D01*
X156372743Y-91930739D01*
X156372736Y-91930733D01*
X156180293Y-91783067D01*
X156180292Y-91783066D01*
X156180289Y-91783064D01*
X155970212Y-91661776D01*
X155948175Y-91652648D01*
X155746104Y-91568947D01*
X155511785Y-91506161D01*
X155271289Y-91474500D01*
X155271288Y-91474500D01*
X155028712Y-91474500D01*
X155028711Y-91474500D01*
X154788214Y-91506161D01*
X154553895Y-91568947D01*
X154329794Y-91661773D01*
X154329785Y-91661777D01*
X154119706Y-91783067D01*
X153927263Y-91930733D01*
X153927256Y-91930739D01*
X153755739Y-92102256D01*
X153755733Y-92102263D01*
X153608067Y-92294706D01*
X153486777Y-92504785D01*
X153486773Y-92504794D01*
X153393947Y-92728895D01*
X153331161Y-92963214D01*
X153299500Y-93203711D01*
X130025499Y-93203711D01*
X130025499Y-93096446D01*
X130025499Y-91827129D01*
X130025498Y-91827123D01*
X130025497Y-91827116D01*
X130019091Y-91767517D01*
X129968796Y-91632669D01*
X129968795Y-91632668D01*
X129968793Y-91632664D01*
X129882547Y-91517455D01*
X129882544Y-91517452D01*
X129767335Y-91431206D01*
X129767328Y-91431202D01*
X129632482Y-91380908D01*
X129632483Y-91380908D01*
X129572883Y-91374501D01*
X129572881Y-91374500D01*
X129572873Y-91374500D01*
X129572864Y-91374500D01*
X126977129Y-91374500D01*
X126977123Y-91374501D01*
X126917516Y-91380908D01*
X126782671Y-91431202D01*
X126782664Y-91431206D01*
X126667455Y-91517452D01*
X126667452Y-91517455D01*
X126581206Y-91632664D01*
X126581202Y-91632671D01*
X126530908Y-91767517D01*
X126527835Y-91796104D01*
X126524501Y-91827123D01*
X126524500Y-91827135D01*
X108425500Y-91827135D01*
X108425500Y-91652648D01*
X108411109Y-91561789D01*
X108393477Y-91450465D01*
X108364127Y-91360137D01*
X108330220Y-91255781D01*
X108330218Y-91255778D01*
X108330218Y-91255776D01*
X108296503Y-91189607D01*
X108237287Y-91073390D01*
X108229556Y-91062749D01*
X108116971Y-90907786D01*
X107972213Y-90763028D01*
X107806614Y-90642715D01*
X107730435Y-90603900D01*
X107713917Y-90595483D01*
X107663123Y-90547511D01*
X107646328Y-90479690D01*
X107668865Y-90413555D01*
X107713917Y-90374516D01*
X107806610Y-90327287D01*
X107870036Y-90281206D01*
X107972213Y-90206971D01*
X107972215Y-90206968D01*
X107972219Y-90206966D01*
X108116966Y-90062219D01*
X108116968Y-90062215D01*
X108116971Y-90062213D01*
X108178695Y-89977256D01*
X108237287Y-89896610D01*
X108330220Y-89714219D01*
X108393477Y-89519534D01*
X108425500Y-89317352D01*
X108425500Y-89112648D01*
X108393477Y-88910466D01*
X108330220Y-88715781D01*
X108330218Y-88715778D01*
X108330218Y-88715776D01*
X108296503Y-88649607D01*
X108237287Y-88533390D01*
X108229556Y-88522749D01*
X108116971Y-88367786D01*
X107972213Y-88223028D01*
X107806611Y-88102713D01*
X107713369Y-88055203D01*
X107662574Y-88007229D01*
X107645779Y-87939407D01*
X107668317Y-87873273D01*
X107713371Y-87834234D01*
X107806347Y-87786861D01*
X107971894Y-87666582D01*
X107971895Y-87666582D01*
X108116582Y-87521895D01*
X108116582Y-87521894D01*
X108236859Y-87356349D01*
X108329755Y-87174029D01*
X108382968Y-87010258D01*
X128524500Y-87010258D01*
X128524500Y-87239741D01*
X128549446Y-87429215D01*
X128554452Y-87467238D01*
X128607968Y-87666966D01*
X128613842Y-87688887D01*
X128701650Y-87900876D01*
X128701657Y-87900890D01*
X128816392Y-88099617D01*
X128956081Y-88281661D01*
X128956089Y-88281670D01*
X129118330Y-88443911D01*
X129118338Y-88443918D01*
X129118339Y-88443919D01*
X129168962Y-88482764D01*
X129300382Y-88583607D01*
X129300385Y-88583608D01*
X129300388Y-88583611D01*
X129499112Y-88698344D01*
X129499117Y-88698346D01*
X129499123Y-88698349D01*
X129541196Y-88715776D01*
X129711113Y-88786158D01*
X129932762Y-88845548D01*
X130160266Y-88875500D01*
X130160273Y-88875500D01*
X130389727Y-88875500D01*
X130389734Y-88875500D01*
X130617238Y-88845548D01*
X130838887Y-88786158D01*
X131050888Y-88698344D01*
X131249612Y-88583611D01*
X131431661Y-88443919D01*
X131431665Y-88443914D01*
X131431670Y-88443911D01*
X131593911Y-88281670D01*
X131593914Y-88281665D01*
X131593919Y-88281661D01*
X131733611Y-88099612D01*
X131848344Y-87900888D01*
X131936158Y-87688887D01*
X131995548Y-87467238D01*
X132025500Y-87239734D01*
X132025500Y-87010266D01*
X132025499Y-87010258D01*
X140724500Y-87010258D01*
X140724500Y-87239741D01*
X140749446Y-87429215D01*
X140754452Y-87467238D01*
X140807968Y-87666966D01*
X140813842Y-87688887D01*
X140901650Y-87900876D01*
X140901657Y-87900890D01*
X141016392Y-88099617D01*
X141156081Y-88281661D01*
X141156089Y-88281670D01*
X141318330Y-88443911D01*
X141318338Y-88443918D01*
X141318339Y-88443919D01*
X141368962Y-88482764D01*
X141500382Y-88583607D01*
X141500385Y-88583608D01*
X141500388Y-88583611D01*
X141699112Y-88698344D01*
X141699117Y-88698346D01*
X141699123Y-88698349D01*
X141741196Y-88715776D01*
X141911113Y-88786158D01*
X142132762Y-88845548D01*
X142360266Y-88875500D01*
X142360273Y-88875500D01*
X142589727Y-88875500D01*
X142589734Y-88875500D01*
X142817238Y-88845548D01*
X143038887Y-88786158D01*
X143250888Y-88698344D01*
X143449612Y-88583611D01*
X143631661Y-88443919D01*
X143631665Y-88443914D01*
X143631670Y-88443911D01*
X143793910Y-88281670D01*
X143793919Y-88281661D01*
X143853733Y-88203711D01*
X153299500Y-88203711D01*
X153299500Y-88446288D01*
X153317578Y-88583611D01*
X153331162Y-88686789D01*
X153357788Y-88786157D01*
X153393947Y-88921104D01*
X153486773Y-89145205D01*
X153486776Y-89145212D01*
X153608064Y-89355289D01*
X153608066Y-89355292D01*
X153608067Y-89355293D01*
X153755733Y-89547736D01*
X153755739Y-89547743D01*
X153927256Y-89719260D01*
X153927262Y-89719265D01*
X154119711Y-89866936D01*
X154329788Y-89988224D01*
X154553900Y-90081054D01*
X154788211Y-90143838D01*
X154968586Y-90167584D01*
X155028711Y-90175500D01*
X155028712Y-90175500D01*
X155271289Y-90175500D01*
X155319388Y-90169167D01*
X155511789Y-90143838D01*
X155746100Y-90081054D01*
X155970212Y-89988224D01*
X156180289Y-89866936D01*
X156372738Y-89719265D01*
X156544265Y-89547738D01*
X156691936Y-89355289D01*
X156813224Y-89145212D01*
X156906054Y-88921100D01*
X156968838Y-88686789D01*
X157000500Y-88446288D01*
X157000500Y-88203712D01*
X156968838Y-87963211D01*
X156906054Y-87728900D01*
X156813224Y-87504788D01*
X156691936Y-87294711D01*
X156599483Y-87174223D01*
X156544266Y-87102263D01*
X156544260Y-87102256D01*
X156372743Y-86930739D01*
X156372736Y-86930733D01*
X156180293Y-86783067D01*
X156180292Y-86783066D01*
X156180289Y-86783064D01*
X155970212Y-86661776D01*
X155970205Y-86661773D01*
X155746104Y-86568947D01*
X155511785Y-86506161D01*
X155271289Y-86474500D01*
X155271288Y-86474500D01*
X155028712Y-86474500D01*
X155028711Y-86474500D01*
X154788214Y-86506161D01*
X154553895Y-86568947D01*
X154329794Y-86661773D01*
X154329785Y-86661777D01*
X154175462Y-86750876D01*
X154129605Y-86777352D01*
X154119706Y-86783067D01*
X153927263Y-86930733D01*
X153927256Y-86930739D01*
X153755739Y-87102256D01*
X153755733Y-87102263D01*
X153608067Y-87294706D01*
X153486777Y-87504785D01*
X153486773Y-87504794D01*
X153393947Y-87728895D01*
X153331161Y-87963214D01*
X153299500Y-88203711D01*
X143853733Y-88203711D01*
X143933611Y-88099612D01*
X144048344Y-87900888D01*
X144136158Y-87688887D01*
X144195548Y-87467238D01*
X144225500Y-87239734D01*
X144225500Y-87010266D01*
X144195548Y-86782762D01*
X144136158Y-86561113D01*
X144048344Y-86349112D01*
X143933611Y-86150388D01*
X143933608Y-86150385D01*
X143933607Y-86150382D01*
X143793918Y-85968338D01*
X143793911Y-85968330D01*
X143631670Y-85806089D01*
X143631661Y-85806081D01*
X143449617Y-85666392D01*
X143250890Y-85551657D01*
X143250876Y-85551650D01*
X143038887Y-85463842D01*
X142817238Y-85404452D01*
X142779215Y-85399446D01*
X142589741Y-85374500D01*
X142589734Y-85374500D01*
X142360266Y-85374500D01*
X142360258Y-85374500D01*
X142143715Y-85403009D01*
X142132762Y-85404452D01*
X142107903Y-85411113D01*
X141911112Y-85463842D01*
X141699123Y-85551650D01*
X141699109Y-85551657D01*
X141500382Y-85666392D01*
X141318338Y-85806081D01*
X141156081Y-85968338D01*
X141016392Y-86150382D01*
X140901657Y-86349109D01*
X140901650Y-86349123D01*
X140813842Y-86561112D01*
X140754453Y-86782759D01*
X140754451Y-86782770D01*
X140724500Y-87010258D01*
X132025499Y-87010258D01*
X131995548Y-86782762D01*
X131936158Y-86561113D01*
X131848344Y-86349112D01*
X131733611Y-86150388D01*
X131733608Y-86150385D01*
X131733607Y-86150382D01*
X131593918Y-85968338D01*
X131593911Y-85968330D01*
X131431670Y-85806089D01*
X131431661Y-85806081D01*
X131249617Y-85666392D01*
X131050890Y-85551657D01*
X131050876Y-85551650D01*
X130838887Y-85463842D01*
X130617238Y-85404452D01*
X130579215Y-85399446D01*
X130389741Y-85374500D01*
X130389734Y-85374500D01*
X130160266Y-85374500D01*
X130160258Y-85374500D01*
X129943715Y-85403009D01*
X129932762Y-85404452D01*
X129907903Y-85411113D01*
X129711112Y-85463842D01*
X129499123Y-85551650D01*
X129499109Y-85551657D01*
X129300382Y-85666392D01*
X129118338Y-85806081D01*
X128956081Y-85968338D01*
X128816392Y-86150382D01*
X128701657Y-86349109D01*
X128701650Y-86349123D01*
X128613842Y-86561112D01*
X128554453Y-86782759D01*
X128554451Y-86782770D01*
X128524500Y-87010258D01*
X108382968Y-87010258D01*
X108392990Y-86979413D01*
X108401609Y-86925000D01*
X107040686Y-86925000D01*
X107045080Y-86920606D01*
X107097741Y-86829394D01*
X107125000Y-86727661D01*
X107125000Y-86622339D01*
X107097741Y-86520606D01*
X107045080Y-86429394D01*
X107040686Y-86425000D01*
X108401609Y-86425000D01*
X108392990Y-86370586D01*
X108329755Y-86175970D01*
X108236859Y-85993650D01*
X108116582Y-85828105D01*
X108116582Y-85828104D01*
X107971895Y-85683417D01*
X107806349Y-85563140D01*
X107713370Y-85515765D01*
X107662574Y-85467790D01*
X107645779Y-85399969D01*
X107668316Y-85333835D01*
X107713370Y-85294795D01*
X107713920Y-85294515D01*
X107806610Y-85247287D01*
X107872922Y-85199109D01*
X107972213Y-85126971D01*
X107972215Y-85126968D01*
X107972219Y-85126966D01*
X108116966Y-84982219D01*
X108116968Y-84982215D01*
X108116971Y-84982213D01*
X108169732Y-84909590D01*
X108237287Y-84816610D01*
X108330220Y-84634219D01*
X108393477Y-84439534D01*
X108425500Y-84237352D01*
X108425500Y-84032648D01*
X108393477Y-83830466D01*
X108330220Y-83635781D01*
X108330218Y-83635778D01*
X108330218Y-83635776D01*
X108296503Y-83569607D01*
X108237287Y-83453390D01*
X108229556Y-83442749D01*
X108116971Y-83287786D01*
X107972213Y-83143028D01*
X107806614Y-83022715D01*
X107800006Y-83019348D01*
X107713917Y-82975483D01*
X107663123Y-82927511D01*
X107646328Y-82859690D01*
X107668865Y-82793555D01*
X107713917Y-82754516D01*
X107806610Y-82707287D01*
X107887739Y-82648344D01*
X107972213Y-82586971D01*
X107972215Y-82586968D01*
X107972219Y-82586966D01*
X108116966Y-82442219D01*
X108116968Y-82442215D01*
X108116971Y-82442213D01*
X108213163Y-82309814D01*
X108237287Y-82276610D01*
X108330220Y-82094219D01*
X108393477Y-81899534D01*
X108425500Y-81697352D01*
X108425500Y-81492648D01*
X108393477Y-81290466D01*
X108378350Y-81243911D01*
X108330218Y-81095776D01*
X108287787Y-81012502D01*
X108261167Y-80960258D01*
X128524500Y-80960258D01*
X128524500Y-81189741D01*
X128549446Y-81379215D01*
X128554452Y-81417238D01*
X128613842Y-81638887D01*
X128701650Y-81850876D01*
X128701657Y-81850890D01*
X128816392Y-82049617D01*
X128956081Y-82231661D01*
X128956089Y-82231670D01*
X129118330Y-82393911D01*
X129118338Y-82393918D01*
X129300382Y-82533607D01*
X129300385Y-82533608D01*
X129300388Y-82533611D01*
X129499112Y-82648344D01*
X129499117Y-82648346D01*
X129499123Y-82648349D01*
X129590480Y-82686190D01*
X129711113Y-82736158D01*
X129932762Y-82795548D01*
X130160266Y-82825500D01*
X130160273Y-82825500D01*
X130389727Y-82825500D01*
X130389734Y-82825500D01*
X130617238Y-82795548D01*
X130838887Y-82736158D01*
X131050888Y-82648344D01*
X131249612Y-82533611D01*
X131431661Y-82393919D01*
X131431665Y-82393914D01*
X131431670Y-82393911D01*
X131593911Y-82231670D01*
X131593914Y-82231665D01*
X131593919Y-82231661D01*
X131733611Y-82049612D01*
X131848344Y-81850888D01*
X131936158Y-81638887D01*
X131995548Y-81417238D01*
X132025500Y-81189734D01*
X132025500Y-80960266D01*
X132025499Y-80960258D01*
X140724500Y-80960258D01*
X140724500Y-81189741D01*
X140749446Y-81379215D01*
X140754452Y-81417238D01*
X140813842Y-81638887D01*
X140901650Y-81850876D01*
X140901657Y-81850890D01*
X141016392Y-82049617D01*
X141156081Y-82231661D01*
X141156089Y-82231670D01*
X141318330Y-82393911D01*
X141318338Y-82393918D01*
X141500382Y-82533607D01*
X141500385Y-82533608D01*
X141500388Y-82533611D01*
X141699112Y-82648344D01*
X141699117Y-82648346D01*
X141699123Y-82648349D01*
X141790480Y-82686190D01*
X141911113Y-82736158D01*
X142132762Y-82795548D01*
X142360266Y-82825500D01*
X142360273Y-82825500D01*
X142589727Y-82825500D01*
X142589734Y-82825500D01*
X142817238Y-82795548D01*
X143038887Y-82736158D01*
X143250888Y-82648344D01*
X143449612Y-82533611D01*
X143631661Y-82393919D01*
X143631665Y-82393914D01*
X143631670Y-82393911D01*
X143793911Y-82231670D01*
X143793914Y-82231665D01*
X143793919Y-82231661D01*
X143933611Y-82049612D01*
X144048344Y-81850888D01*
X144136158Y-81638887D01*
X144195548Y-81417238D01*
X144225500Y-81189734D01*
X144225500Y-80960266D01*
X144195548Y-80732762D01*
X144136158Y-80511113D01*
X144059698Y-80326523D01*
X144048349Y-80299123D01*
X144048346Y-80299117D01*
X144048344Y-80299112D01*
X143933611Y-80100388D01*
X143933608Y-80100385D01*
X143933607Y-80100382D01*
X143793918Y-79918338D01*
X143793911Y-79918330D01*
X143631670Y-79756089D01*
X143631661Y-79756081D01*
X143449617Y-79616392D01*
X143250890Y-79501657D01*
X143250881Y-79501652D01*
X143214048Y-79486396D01*
X143214046Y-79486395D01*
X143038887Y-79413842D01*
X142893865Y-79374984D01*
X153299500Y-79374984D01*
X153299500Y-81675015D01*
X153310000Y-81777795D01*
X153310001Y-81777796D01*
X153365186Y-81944335D01*
X153365187Y-81944337D01*
X153457286Y-82093651D01*
X153457289Y-82093655D01*
X153581344Y-82217710D01*
X153581348Y-82217713D01*
X153730662Y-82309812D01*
X153730664Y-82309813D01*
X153730666Y-82309814D01*
X153897203Y-82364999D01*
X153999992Y-82375500D01*
X153999997Y-82375500D01*
X156300003Y-82375500D01*
X156300008Y-82375500D01*
X156402797Y-82364999D01*
X156569334Y-82309814D01*
X156718655Y-82217711D01*
X156842711Y-82093655D01*
X156934814Y-81944334D01*
X156989999Y-81777797D01*
X157000500Y-81675008D01*
X157000500Y-79374992D01*
X156989999Y-79272203D01*
X156934814Y-79105666D01*
X156842711Y-78956345D01*
X156718655Y-78832289D01*
X156718651Y-78832286D01*
X156569337Y-78740187D01*
X156569335Y-78740186D01*
X156486065Y-78712593D01*
X156402797Y-78685001D01*
X156402795Y-78685000D01*
X156300015Y-78674500D01*
X156300008Y-78674500D01*
X153999992Y-78674500D01*
X153999984Y-78674500D01*
X153897204Y-78685000D01*
X153897203Y-78685001D01*
X153730664Y-78740186D01*
X153730662Y-78740187D01*
X153581348Y-78832286D01*
X153581344Y-78832289D01*
X153457289Y-78956344D01*
X153457286Y-78956348D01*
X153365187Y-79105662D01*
X153365186Y-79105664D01*
X153310001Y-79272203D01*
X153310000Y-79272204D01*
X153299500Y-79374984D01*
X142893865Y-79374984D01*
X142817238Y-79354452D01*
X142779215Y-79349446D01*
X142589741Y-79324500D01*
X142589734Y-79324500D01*
X142360266Y-79324500D01*
X142360258Y-79324500D01*
X142143715Y-79353009D01*
X142132762Y-79354452D01*
X142107903Y-79361113D01*
X141911112Y-79413842D01*
X141699123Y-79501650D01*
X141699109Y-79501657D01*
X141500382Y-79616392D01*
X141318338Y-79756081D01*
X141156081Y-79918338D01*
X141016392Y-80100382D01*
X140901657Y-80299109D01*
X140901650Y-80299123D01*
X140813842Y-80511112D01*
X140754453Y-80732759D01*
X140754451Y-80732770D01*
X140724500Y-80960258D01*
X132025499Y-80960258D01*
X131995548Y-80732762D01*
X131936158Y-80511113D01*
X131859698Y-80326523D01*
X131848349Y-80299123D01*
X131848346Y-80299117D01*
X131848344Y-80299112D01*
X131733611Y-80100388D01*
X131733608Y-80100385D01*
X131733607Y-80100382D01*
X131593918Y-79918338D01*
X131593911Y-79918330D01*
X131431670Y-79756089D01*
X131431661Y-79756081D01*
X131249617Y-79616392D01*
X131050890Y-79501657D01*
X131050876Y-79501650D01*
X130838887Y-79413842D01*
X130617238Y-79354452D01*
X130579215Y-79349446D01*
X130389741Y-79324500D01*
X130389734Y-79324500D01*
X130160266Y-79324500D01*
X130160258Y-79324500D01*
X129943715Y-79353009D01*
X129932762Y-79354452D01*
X129907903Y-79361113D01*
X129711112Y-79413842D01*
X129499123Y-79501650D01*
X129499109Y-79501657D01*
X129300382Y-79616392D01*
X129118338Y-79756081D01*
X128956081Y-79918338D01*
X128816392Y-80100382D01*
X128701657Y-80299109D01*
X128701650Y-80299123D01*
X128613842Y-80511112D01*
X128554453Y-80732759D01*
X128554451Y-80732770D01*
X128524500Y-80960258D01*
X108261167Y-80960258D01*
X108237287Y-80913390D01*
X108237285Y-80913387D01*
X108237284Y-80913385D01*
X108116971Y-80747786D01*
X107972213Y-80603028D01*
X107806614Y-80482715D01*
X107800006Y-80479348D01*
X107713917Y-80435483D01*
X107663123Y-80387511D01*
X107646328Y-80319690D01*
X107668865Y-80253555D01*
X107713917Y-80214516D01*
X107806610Y-80167287D01*
X107827770Y-80151913D01*
X107972213Y-80046971D01*
X107972215Y-80046968D01*
X107972219Y-80046966D01*
X108116966Y-79902219D01*
X108116968Y-79902215D01*
X108116971Y-79902213D01*
X108183779Y-79810258D01*
X108237287Y-79736610D01*
X108330220Y-79554219D01*
X108393477Y-79359534D01*
X108425500Y-79157352D01*
X108425500Y-78952648D01*
X108425141Y-78950382D01*
X108393477Y-78750465D01*
X108330218Y-78555776D01*
X108284672Y-78466389D01*
X108237287Y-78373390D01*
X108221497Y-78351657D01*
X108116971Y-78207786D01*
X107972213Y-78063028D01*
X107806614Y-77942715D01*
X107800006Y-77939348D01*
X107713917Y-77895483D01*
X107663123Y-77847511D01*
X107646328Y-77779690D01*
X107668865Y-77713555D01*
X107713917Y-77674516D01*
X107806610Y-77627287D01*
X107836277Y-77605733D01*
X107972213Y-77506971D01*
X107972215Y-77506968D01*
X107972219Y-77506966D01*
X108116966Y-77362219D01*
X108116968Y-77362215D01*
X108116971Y-77362213D01*
X108202895Y-77243947D01*
X108237287Y-77196610D01*
X108330220Y-77014219D01*
X108393477Y-76819534D01*
X108423380Y-76630731D01*
X108453309Y-76567599D01*
X108512620Y-76530667D01*
X108582483Y-76531665D01*
X108640716Y-76570275D01*
X108648955Y-76581240D01*
X108714723Y-76679668D01*
X108714726Y-76679672D01*
X108805327Y-76770273D01*
X108805331Y-76770276D01*
X108911866Y-76841461D01*
X108911872Y-76841464D01*
X108911873Y-76841465D01*
X109030256Y-76890501D01*
X109030260Y-76890501D01*
X109030261Y-76890502D01*
X109155928Y-76915500D01*
X109155931Y-76915500D01*
X109284071Y-76915500D01*
X109368615Y-76898682D01*
X109409744Y-76890501D01*
X109528127Y-76841465D01*
X109634669Y-76770276D01*
X109725276Y-76679669D01*
X109796465Y-76573127D01*
X109845501Y-76454744D01*
X109861787Y-76372870D01*
X109870500Y-76329071D01*
X109870500Y-76200928D01*
X109845502Y-76075261D01*
X109845501Y-76075260D01*
X109845501Y-76075256D01*
X109829939Y-76037685D01*
X109820500Y-75990233D01*
X109820500Y-75238766D01*
X109829939Y-75191313D01*
X109845501Y-75153744D01*
X109853682Y-75112615D01*
X109870500Y-75028071D01*
X109870500Y-74899928D01*
X109845502Y-74774261D01*
X109845501Y-74774260D01*
X109845501Y-74774256D01*
X109796465Y-74655873D01*
X109796464Y-74655872D01*
X109796461Y-74655866D01*
X109725276Y-74549331D01*
X109725273Y-74549327D01*
X109634672Y-74458726D01*
X109634668Y-74458723D01*
X109528133Y-74387538D01*
X109528124Y-74387533D01*
X109409744Y-74338499D01*
X109409738Y-74338497D01*
X109284071Y-74313500D01*
X109284069Y-74313500D01*
X109155931Y-74313500D01*
X109155929Y-74313500D01*
X109030261Y-74338497D01*
X109030255Y-74338499D01*
X108911875Y-74387533D01*
X108911866Y-74387538D01*
X108805331Y-74458723D01*
X108805327Y-74458726D01*
X108714726Y-74549327D01*
X108714723Y-74549331D01*
X108643538Y-74655866D01*
X108643533Y-74655875D01*
X108594499Y-74774255D01*
X108594497Y-74774261D01*
X108569500Y-74899928D01*
X108569500Y-74899931D01*
X108569500Y-75028069D01*
X108569500Y-75028071D01*
X108569499Y-75028071D01*
X108594497Y-75153738D01*
X108594499Y-75153744D01*
X108610061Y-75191313D01*
X108619500Y-75238766D01*
X108619500Y-75990233D01*
X108618561Y-75995505D01*
X108619225Y-75998485D01*
X108614229Y-76019853D01*
X108611889Y-76033008D01*
X108611026Y-76035355D01*
X108594499Y-76075256D01*
X108592300Y-76086306D01*
X108588960Y-76095397D01*
X108573686Y-76116006D01*
X108561795Y-76138733D01*
X108553228Y-76143609D01*
X108547358Y-76151531D01*
X108523364Y-76160611D01*
X108501075Y-76173301D01*
X108491231Y-76172772D01*
X108482011Y-76176262D01*
X108456923Y-76170930D01*
X108431306Y-76169555D01*
X108423308Y-76163786D01*
X108413668Y-76161738D01*
X108395447Y-76143692D01*
X108374638Y-76128683D01*
X108368392Y-76116895D01*
X108364026Y-76112571D01*
X108362522Y-76105817D01*
X108354641Y-76090943D01*
X108330220Y-76015781D01*
X108237287Y-75833390D01*
X108181100Y-75756054D01*
X108116971Y-75667786D01*
X107972213Y-75523028D01*
X107806614Y-75402715D01*
X107790020Y-75394260D01*
X107713917Y-75355483D01*
X107663123Y-75307511D01*
X107646328Y-75239690D01*
X107668865Y-75173555D01*
X107713917Y-75134516D01*
X107806610Y-75087287D01*
X107827770Y-75071913D01*
X107972213Y-74966971D01*
X107972215Y-74966968D01*
X107972219Y-74966966D01*
X108116966Y-74822219D01*
X108116968Y-74822215D01*
X108116971Y-74822213D01*
X108169732Y-74749590D01*
X108237287Y-74656610D01*
X108330220Y-74474219D01*
X108393477Y-74279534D01*
X108425500Y-74077352D01*
X108425500Y-73872648D01*
X108410372Y-73777135D01*
X126524500Y-73777135D01*
X126524500Y-76372870D01*
X126524501Y-76372876D01*
X126530908Y-76432483D01*
X126581202Y-76567328D01*
X126581206Y-76567335D01*
X126667452Y-76682544D01*
X126667455Y-76682547D01*
X126782664Y-76768793D01*
X126782671Y-76768797D01*
X126917517Y-76819091D01*
X126917516Y-76819091D01*
X126921637Y-76819534D01*
X126977127Y-76825500D01*
X129572872Y-76825499D01*
X129632483Y-76819091D01*
X129767331Y-76768796D01*
X129882546Y-76682546D01*
X129968796Y-76567331D01*
X130019091Y-76432483D01*
X130025500Y-76372873D01*
X130025499Y-75403711D01*
X153299500Y-75403711D01*
X153299500Y-75646288D01*
X153331161Y-75886785D01*
X153393947Y-76121104D01*
X153486773Y-76345205D01*
X153486777Y-76345214D01*
X153502746Y-76372873D01*
X153608064Y-76555289D01*
X153608066Y-76555292D01*
X153608067Y-76555293D01*
X153755733Y-76747736D01*
X153755739Y-76747743D01*
X153927256Y-76919260D01*
X153927262Y-76919265D01*
X154119711Y-77066936D01*
X154329788Y-77188224D01*
X154553900Y-77281054D01*
X154788211Y-77343838D01*
X154968586Y-77367584D01*
X155028711Y-77375500D01*
X155028712Y-77375500D01*
X155271289Y-77375500D01*
X155319388Y-77369167D01*
X155511789Y-77343838D01*
X155746100Y-77281054D01*
X155970212Y-77188224D01*
X156180289Y-77066936D01*
X156372738Y-76919265D01*
X156544265Y-76747738D01*
X156691936Y-76555289D01*
X156813224Y-76345212D01*
X156906054Y-76121100D01*
X156968838Y-75886789D01*
X157000500Y-75646288D01*
X157000500Y-75403712D01*
X157000368Y-75402713D01*
X156979806Y-75246523D01*
X156968838Y-75163211D01*
X156906054Y-74928900D01*
X156813224Y-74704788D01*
X156691936Y-74494711D01*
X156544265Y-74302262D01*
X156544260Y-74302256D01*
X156372743Y-74130739D01*
X156372736Y-74130733D01*
X156180293Y-73983067D01*
X156180292Y-73983066D01*
X156180289Y-73983064D01*
X155970212Y-73861776D01*
X155970205Y-73861773D01*
X155746104Y-73768947D01*
X155511785Y-73706161D01*
X155271289Y-73674500D01*
X155271288Y-73674500D01*
X155028712Y-73674500D01*
X155028711Y-73674500D01*
X154788214Y-73706161D01*
X154553895Y-73768947D01*
X154329794Y-73861773D01*
X154329785Y-73861777D01*
X154119706Y-73983067D01*
X153927263Y-74130733D01*
X153927256Y-74130739D01*
X153755739Y-74302256D01*
X153755733Y-74302263D01*
X153608067Y-74494706D01*
X153486777Y-74704785D01*
X153486773Y-74704794D01*
X153393947Y-74928895D01*
X153331161Y-75163214D01*
X153299500Y-75403711D01*
X130025499Y-75403711D01*
X130025499Y-75030293D01*
X130025499Y-73777129D01*
X130025498Y-73777123D01*
X130025497Y-73777116D01*
X130019091Y-73717517D01*
X130014855Y-73706161D01*
X129968797Y-73582671D01*
X129968793Y-73582664D01*
X129882547Y-73467455D01*
X129882544Y-73467452D01*
X129767335Y-73381206D01*
X129767328Y-73381202D01*
X129632482Y-73330908D01*
X129632483Y-73330908D01*
X129572883Y-73324501D01*
X129572881Y-73324500D01*
X129572873Y-73324500D01*
X129572864Y-73324500D01*
X126977129Y-73324500D01*
X126977123Y-73324501D01*
X126917516Y-73330908D01*
X126782671Y-73381202D01*
X126782664Y-73381206D01*
X126667455Y-73467452D01*
X126667452Y-73467455D01*
X126581206Y-73582664D01*
X126581202Y-73582671D01*
X126530908Y-73717517D01*
X126525379Y-73768947D01*
X126524501Y-73777123D01*
X126524500Y-73777135D01*
X108410372Y-73777135D01*
X108393477Y-73670466D01*
X108330220Y-73475781D01*
X108330218Y-73475778D01*
X108330218Y-73475776D01*
X108293592Y-73403895D01*
X108237287Y-73293390D01*
X108229556Y-73282749D01*
X108116971Y-73127786D01*
X107972213Y-72983028D01*
X107806613Y-72862715D01*
X107806612Y-72862714D01*
X107806610Y-72862713D01*
X107749653Y-72833691D01*
X107624223Y-72769781D01*
X107429534Y-72706522D01*
X107254995Y-72678878D01*
X107227352Y-72674500D01*
X106222648Y-72674500D01*
X106198329Y-72678351D01*
X106020465Y-72706522D01*
X105825776Y-72769781D01*
X105643386Y-72862715D01*
X105477786Y-72983028D01*
X105333028Y-73127786D01*
X105212715Y-73293386D01*
X105119781Y-73475776D01*
X105056522Y-73670465D01*
X105024500Y-73872648D01*
X100805500Y-73872648D01*
X100773477Y-73670466D01*
X100710220Y-73475781D01*
X100710218Y-73475778D01*
X100710218Y-73475776D01*
X100673592Y-73403895D01*
X100617287Y-73293390D01*
X100609556Y-73282749D01*
X100496971Y-73127786D01*
X100352213Y-72983028D01*
X100186613Y-72862715D01*
X100186612Y-72862714D01*
X100186610Y-72862713D01*
X100129653Y-72833691D01*
X100004223Y-72769781D01*
X99809534Y-72706522D01*
X99634995Y-72678878D01*
X99607352Y-72674500D01*
X98602648Y-72674500D01*
X98578329Y-72678351D01*
X98400465Y-72706522D01*
X98205776Y-72769781D01*
X98023386Y-72862715D01*
X97857786Y-72983028D01*
X97713028Y-73127786D01*
X97592715Y-73293386D01*
X97499781Y-73475776D01*
X97436522Y-73670465D01*
X97404500Y-73872648D01*
X90225499Y-73872648D01*
X90225499Y-72627128D01*
X90219091Y-72567517D01*
X90168796Y-72432669D01*
X90168795Y-72432668D01*
X90168793Y-72432664D01*
X90082547Y-72317455D01*
X90082544Y-72317452D01*
X89967335Y-72231206D01*
X89967328Y-72231202D01*
X89832482Y-72180908D01*
X89832483Y-72180908D01*
X89772883Y-72174501D01*
X89772881Y-72174500D01*
X89772873Y-72174500D01*
X89772864Y-72174500D01*
X87177129Y-72174500D01*
X87177123Y-72174501D01*
X87117516Y-72180908D01*
X86982671Y-72231202D01*
X86982664Y-72231206D01*
X86867455Y-72317452D01*
X86867452Y-72317455D01*
X86781206Y-72432664D01*
X86781202Y-72432671D01*
X86730908Y-72567517D01*
X86724501Y-72627116D01*
X86724501Y-72627123D01*
X86724500Y-72627135D01*
X63194139Y-72627135D01*
X63172743Y-72605739D01*
X63172736Y-72605733D01*
X62980293Y-72458067D01*
X62980292Y-72458066D01*
X62980289Y-72458064D01*
X62770212Y-72336776D01*
X62723567Y-72317455D01*
X62546104Y-72243947D01*
X62338152Y-72188226D01*
X62311789Y-72181162D01*
X62311788Y-72181161D01*
X62311785Y-72181161D01*
X62071289Y-72149500D01*
X62071288Y-72149500D01*
X61828712Y-72149500D01*
X61828711Y-72149500D01*
X61588214Y-72181161D01*
X61353895Y-72243947D01*
X61129794Y-72336773D01*
X61129785Y-72336777D01*
X60919706Y-72458067D01*
X60727263Y-72605733D01*
X60727256Y-72605739D01*
X60555739Y-72777256D01*
X60555733Y-72777263D01*
X60408067Y-72969706D01*
X60286777Y-73179785D01*
X60286773Y-73179794D01*
X60193947Y-73403895D01*
X60131161Y-73638214D01*
X60099500Y-73878711D01*
X54610410Y-73878711D01*
X54617476Y-67849984D01*
X60099500Y-67849984D01*
X60099500Y-70150015D01*
X60110000Y-70252795D01*
X60110001Y-70252796D01*
X60165186Y-70419335D01*
X60165187Y-70419337D01*
X60257286Y-70568651D01*
X60257289Y-70568655D01*
X60381344Y-70692710D01*
X60381348Y-70692713D01*
X60530662Y-70784812D01*
X60530664Y-70784813D01*
X60530666Y-70784814D01*
X60697203Y-70839999D01*
X60799992Y-70850500D01*
X60799997Y-70850500D01*
X63100003Y-70850500D01*
X63100008Y-70850500D01*
X63202797Y-70839999D01*
X63369334Y-70784814D01*
X63518655Y-70692711D01*
X63642711Y-70568655D01*
X63734814Y-70419334D01*
X63789999Y-70252797D01*
X63800500Y-70150008D01*
X63800500Y-67849992D01*
X63796441Y-67810258D01*
X72524500Y-67810258D01*
X72524500Y-68039741D01*
X72532485Y-68100388D01*
X72554452Y-68267238D01*
X72613842Y-68488887D01*
X72701650Y-68700876D01*
X72701656Y-68700888D01*
X72813268Y-68894207D01*
X72816392Y-68899617D01*
X72956081Y-69081661D01*
X72956089Y-69081670D01*
X73118330Y-69243911D01*
X73118338Y-69243918D01*
X73300382Y-69383607D01*
X73300385Y-69383608D01*
X73300388Y-69383611D01*
X73499112Y-69498344D01*
X73499117Y-69498346D01*
X73499123Y-69498349D01*
X73590480Y-69536190D01*
X73711113Y-69586158D01*
X73932762Y-69645548D01*
X74160266Y-69675500D01*
X74160273Y-69675500D01*
X74389727Y-69675500D01*
X74389734Y-69675500D01*
X74617238Y-69645548D01*
X74838887Y-69586158D01*
X75050888Y-69498344D01*
X75249612Y-69383611D01*
X75431661Y-69243919D01*
X75431665Y-69243914D01*
X75431670Y-69243911D01*
X75593911Y-69081670D01*
X75593914Y-69081665D01*
X75593919Y-69081661D01*
X75733611Y-68899612D01*
X75848344Y-68700888D01*
X75936158Y-68488887D01*
X75995548Y-68267238D01*
X76025500Y-68039734D01*
X76025500Y-67810266D01*
X76025499Y-67810258D01*
X84724500Y-67810258D01*
X84724500Y-68039741D01*
X84732485Y-68100388D01*
X84754452Y-68267238D01*
X84813842Y-68488887D01*
X84901650Y-68700876D01*
X84901656Y-68700888D01*
X85013268Y-68894207D01*
X85016392Y-68899617D01*
X85156081Y-69081661D01*
X85156089Y-69081670D01*
X85318330Y-69243911D01*
X85318338Y-69243918D01*
X85500382Y-69383607D01*
X85500385Y-69383608D01*
X85500388Y-69383611D01*
X85699112Y-69498344D01*
X85699117Y-69498346D01*
X85699123Y-69498349D01*
X85790480Y-69536190D01*
X85911113Y-69586158D01*
X86132762Y-69645548D01*
X86360266Y-69675500D01*
X86360273Y-69675500D01*
X86589727Y-69675500D01*
X86589734Y-69675500D01*
X86817238Y-69645548D01*
X87038887Y-69586158D01*
X87250888Y-69498344D01*
X87449612Y-69383611D01*
X87631661Y-69243919D01*
X87631665Y-69243914D01*
X87631670Y-69243911D01*
X87793911Y-69081670D01*
X87793914Y-69081665D01*
X87793919Y-69081661D01*
X87887075Y-68960258D01*
X128524500Y-68960258D01*
X128524500Y-69189741D01*
X128539315Y-69302263D01*
X128554452Y-69417238D01*
X128613842Y-69638887D01*
X128701650Y-69850876D01*
X128701657Y-69850890D01*
X128816392Y-70049617D01*
X128956081Y-70231661D01*
X128956089Y-70231670D01*
X129118330Y-70393911D01*
X129118338Y-70393918D01*
X129118339Y-70393919D01*
X129151460Y-70419334D01*
X129300382Y-70533607D01*
X129300385Y-70533608D01*
X129300388Y-70533611D01*
X129499112Y-70648344D01*
X129499117Y-70648346D01*
X129499123Y-70648349D01*
X129590480Y-70686190D01*
X129711113Y-70736158D01*
X129932762Y-70795548D01*
X130160266Y-70825500D01*
X130160273Y-70825500D01*
X130389727Y-70825500D01*
X130389734Y-70825500D01*
X130617238Y-70795548D01*
X130838887Y-70736158D01*
X131050888Y-70648344D01*
X131249612Y-70533611D01*
X131431661Y-70393919D01*
X131431665Y-70393914D01*
X131431670Y-70393911D01*
X131593911Y-70231670D01*
X131593914Y-70231665D01*
X131593919Y-70231661D01*
X131733611Y-70049612D01*
X131848344Y-69850888D01*
X131936158Y-69638887D01*
X131995548Y-69417238D01*
X132025500Y-69189734D01*
X132025500Y-68960266D01*
X132025499Y-68960258D01*
X140724500Y-68960258D01*
X140724500Y-69189741D01*
X140739315Y-69302263D01*
X140754452Y-69417238D01*
X140813842Y-69638887D01*
X140901650Y-69850876D01*
X140901657Y-69850890D01*
X141016392Y-70049617D01*
X141156081Y-70231661D01*
X141156089Y-70231670D01*
X141318330Y-70393911D01*
X141318338Y-70393918D01*
X141318339Y-70393919D01*
X141351460Y-70419334D01*
X141500382Y-70533607D01*
X141500385Y-70533608D01*
X141500388Y-70533611D01*
X141699112Y-70648344D01*
X141699117Y-70648346D01*
X141699123Y-70648349D01*
X141790480Y-70686190D01*
X141911113Y-70736158D01*
X142132762Y-70795548D01*
X142360266Y-70825500D01*
X142360273Y-70825500D01*
X142589727Y-70825500D01*
X142589734Y-70825500D01*
X142817238Y-70795548D01*
X143038887Y-70736158D01*
X143250888Y-70648344D01*
X143449612Y-70533611D01*
X143618900Y-70403711D01*
X153299500Y-70403711D01*
X153299500Y-70646288D01*
X153331161Y-70886785D01*
X153393947Y-71121104D01*
X153486773Y-71345205D01*
X153486776Y-71345212D01*
X153608064Y-71555289D01*
X153608066Y-71555292D01*
X153608067Y-71555293D01*
X153755733Y-71747736D01*
X153755739Y-71747743D01*
X153927256Y-71919260D01*
X153927262Y-71919265D01*
X154119711Y-72066936D01*
X154329788Y-72188224D01*
X154553900Y-72281054D01*
X154788211Y-72343838D01*
X154968586Y-72367584D01*
X155028711Y-72375500D01*
X155028712Y-72375500D01*
X155271289Y-72375500D01*
X155319388Y-72369167D01*
X155511789Y-72343838D01*
X155746100Y-72281054D01*
X155970212Y-72188224D01*
X156180289Y-72066936D01*
X156372738Y-71919265D01*
X156544265Y-71747738D01*
X156691936Y-71555289D01*
X156813224Y-71345212D01*
X156906054Y-71121100D01*
X156968838Y-70886789D01*
X157000500Y-70646288D01*
X157000500Y-70403712D01*
X156968838Y-70163211D01*
X156906054Y-69928900D01*
X156813224Y-69704788D01*
X156691936Y-69494711D01*
X156544265Y-69302262D01*
X156544260Y-69302256D01*
X156372743Y-69130739D01*
X156372736Y-69130733D01*
X156180293Y-68983067D01*
X156180292Y-68983066D01*
X156180289Y-68983064D01*
X155970212Y-68861776D01*
X155970205Y-68861773D01*
X155746104Y-68768947D01*
X155628944Y-68737554D01*
X155511789Y-68706162D01*
X155511788Y-68706161D01*
X155511785Y-68706161D01*
X155271289Y-68674500D01*
X155271288Y-68674500D01*
X155028712Y-68674500D01*
X155028711Y-68674500D01*
X154788214Y-68706161D01*
X154553895Y-68768947D01*
X154329794Y-68861773D01*
X154329785Y-68861777D01*
X154119706Y-68983067D01*
X153927263Y-69130733D01*
X153927256Y-69130739D01*
X153755739Y-69302256D01*
X153755733Y-69302263D01*
X153608067Y-69494706D01*
X153608064Y-69494710D01*
X153608064Y-69494711D01*
X153605964Y-69498349D01*
X153486777Y-69704785D01*
X153486773Y-69704794D01*
X153393947Y-69928895D01*
X153331161Y-70163214D01*
X153299500Y-70403711D01*
X143618900Y-70403711D01*
X143631661Y-70393919D01*
X143631665Y-70393914D01*
X143631670Y-70393911D01*
X143793911Y-70231670D01*
X143793914Y-70231665D01*
X143793919Y-70231661D01*
X143933611Y-70049612D01*
X144048344Y-69850888D01*
X144136158Y-69638887D01*
X144195548Y-69417238D01*
X144225500Y-69189734D01*
X144225500Y-68960266D01*
X144195548Y-68732762D01*
X144136158Y-68511113D01*
X144048344Y-68299112D01*
X143933611Y-68100388D01*
X143933608Y-68100385D01*
X143933607Y-68100382D01*
X143793918Y-67918338D01*
X143793911Y-67918330D01*
X143631670Y-67756089D01*
X143631661Y-67756081D01*
X143449617Y-67616392D01*
X143250890Y-67501657D01*
X143250876Y-67501650D01*
X143038887Y-67413842D01*
X142817238Y-67354452D01*
X142779215Y-67349446D01*
X142589741Y-67324500D01*
X142589734Y-67324500D01*
X142360266Y-67324500D01*
X142360258Y-67324500D01*
X142143715Y-67353009D01*
X142132762Y-67354452D01*
X142107903Y-67361113D01*
X141911112Y-67413842D01*
X141699123Y-67501650D01*
X141699109Y-67501657D01*
X141500382Y-67616392D01*
X141318338Y-67756081D01*
X141156081Y-67918338D01*
X141016392Y-68100382D01*
X140901657Y-68299109D01*
X140901650Y-68299123D01*
X140823048Y-68488887D01*
X140813842Y-68511113D01*
X140761580Y-68706162D01*
X140754453Y-68732759D01*
X140754451Y-68732770D01*
X140724500Y-68960258D01*
X132025499Y-68960258D01*
X131995548Y-68732762D01*
X131936158Y-68511113D01*
X131848344Y-68299112D01*
X131733611Y-68100388D01*
X131733608Y-68100385D01*
X131733607Y-68100382D01*
X131593918Y-67918338D01*
X131593911Y-67918330D01*
X131431670Y-67756089D01*
X131431661Y-67756081D01*
X131249617Y-67616392D01*
X131050890Y-67501657D01*
X131050876Y-67501650D01*
X130838887Y-67413842D01*
X130617238Y-67354452D01*
X130579215Y-67349446D01*
X130389741Y-67324500D01*
X130389734Y-67324500D01*
X130160266Y-67324500D01*
X130160258Y-67324500D01*
X129943715Y-67353009D01*
X129932762Y-67354452D01*
X129907903Y-67361113D01*
X129711112Y-67413842D01*
X129499123Y-67501650D01*
X129499109Y-67501657D01*
X129300382Y-67616392D01*
X129118338Y-67756081D01*
X128956081Y-67918338D01*
X128816392Y-68100382D01*
X128701657Y-68299109D01*
X128701650Y-68299123D01*
X128623048Y-68488887D01*
X128613842Y-68511113D01*
X128561580Y-68706162D01*
X128554453Y-68732759D01*
X128554451Y-68732770D01*
X128524500Y-68960258D01*
X87887075Y-68960258D01*
X87933611Y-68899612D01*
X88048344Y-68700888D01*
X88136158Y-68488887D01*
X88195548Y-68267238D01*
X88225500Y-68039734D01*
X88225500Y-67810266D01*
X88195548Y-67582762D01*
X88136158Y-67361113D01*
X88075713Y-67215186D01*
X88048349Y-67149123D01*
X88048346Y-67149117D01*
X88048344Y-67149112D01*
X87933611Y-66950388D01*
X87933608Y-66950385D01*
X87933607Y-66950382D01*
X87793918Y-66768338D01*
X87793911Y-66768330D01*
X87631670Y-66606089D01*
X87631661Y-66606081D01*
X87449617Y-66466392D01*
X87250890Y-66351657D01*
X87250876Y-66351650D01*
X87038887Y-66263842D01*
X86817238Y-66204452D01*
X86779215Y-66199446D01*
X86589741Y-66174500D01*
X86589734Y-66174500D01*
X86360266Y-66174500D01*
X86360258Y-66174500D01*
X86143715Y-66203009D01*
X86132762Y-66204452D01*
X86039076Y-66229554D01*
X85911112Y-66263842D01*
X85699123Y-66351650D01*
X85699109Y-66351657D01*
X85500382Y-66466392D01*
X85318338Y-66606081D01*
X85156081Y-66768338D01*
X85016392Y-66950382D01*
X84901657Y-67149109D01*
X84901650Y-67149123D01*
X84813842Y-67361112D01*
X84754453Y-67582759D01*
X84754451Y-67582770D01*
X84724500Y-67810258D01*
X76025499Y-67810258D01*
X75995548Y-67582762D01*
X75936158Y-67361113D01*
X75875713Y-67215186D01*
X75848349Y-67149123D01*
X75848346Y-67149117D01*
X75848344Y-67149112D01*
X75733611Y-66950388D01*
X75733608Y-66950385D01*
X75733607Y-66950382D01*
X75593918Y-66768338D01*
X75593911Y-66768330D01*
X75431670Y-66606089D01*
X75431661Y-66606081D01*
X75249617Y-66466392D01*
X75050890Y-66351657D01*
X75050876Y-66351650D01*
X74838887Y-66263842D01*
X74617238Y-66204452D01*
X74579215Y-66199446D01*
X74389741Y-66174500D01*
X74389734Y-66174500D01*
X74160266Y-66174500D01*
X74160258Y-66174500D01*
X73943715Y-66203009D01*
X73932762Y-66204452D01*
X73839076Y-66229554D01*
X73711112Y-66263842D01*
X73499123Y-66351650D01*
X73499109Y-66351657D01*
X73300382Y-66466392D01*
X73118338Y-66606081D01*
X72956081Y-66768338D01*
X72816392Y-66950382D01*
X72701657Y-67149109D01*
X72701650Y-67149123D01*
X72613842Y-67361112D01*
X72554453Y-67582759D01*
X72554451Y-67582770D01*
X72524500Y-67810258D01*
X63796441Y-67810258D01*
X63789999Y-67747203D01*
X63734814Y-67580666D01*
X63686080Y-67501657D01*
X63642713Y-67431348D01*
X63642710Y-67431344D01*
X63518655Y-67307289D01*
X63518651Y-67307286D01*
X63369337Y-67215187D01*
X63369335Y-67215186D01*
X63286065Y-67187593D01*
X63202797Y-67160001D01*
X63202795Y-67160000D01*
X63100015Y-67149500D01*
X63100008Y-67149500D01*
X60799992Y-67149500D01*
X60799984Y-67149500D01*
X60697204Y-67160000D01*
X60697203Y-67160001D01*
X60530664Y-67215186D01*
X60530662Y-67215187D01*
X60381348Y-67307286D01*
X60381344Y-67307289D01*
X60257289Y-67431344D01*
X60257286Y-67431348D01*
X60165187Y-67580662D01*
X60165186Y-67580664D01*
X60110001Y-67747203D01*
X60110000Y-67747204D01*
X60099500Y-67849984D01*
X54617476Y-67849984D01*
X54626115Y-60478711D01*
X60099500Y-60478711D01*
X60099500Y-60721288D01*
X60131161Y-60961785D01*
X60193947Y-61196104D01*
X60263427Y-61363842D01*
X60286776Y-61420212D01*
X60408064Y-61630289D01*
X60408066Y-61630292D01*
X60408067Y-61630293D01*
X60555733Y-61822736D01*
X60555739Y-61822743D01*
X60727256Y-61994260D01*
X60727262Y-61994265D01*
X60919711Y-62141936D01*
X61129788Y-62263224D01*
X61353900Y-62356054D01*
X61588211Y-62418838D01*
X61740501Y-62438887D01*
X61828711Y-62450500D01*
X61828712Y-62450500D01*
X62071289Y-62450500D01*
X62119388Y-62444167D01*
X62311789Y-62418838D01*
X62546100Y-62356054D01*
X62770212Y-62263224D01*
X62980289Y-62141936D01*
X63172738Y-61994265D01*
X63344265Y-61822738D01*
X63392201Y-61760266D01*
X63392207Y-61760258D01*
X72524500Y-61760258D01*
X72524500Y-61989741D01*
X72544538Y-62141936D01*
X72554452Y-62217238D01*
X72591647Y-62356052D01*
X72613842Y-62438887D01*
X72701650Y-62650876D01*
X72701656Y-62650888D01*
X72813268Y-62844207D01*
X72816392Y-62849617D01*
X72956081Y-63031661D01*
X72956089Y-63031670D01*
X73118330Y-63193911D01*
X73118338Y-63193918D01*
X73300382Y-63333607D01*
X73300385Y-63333608D01*
X73300388Y-63333611D01*
X73499112Y-63448344D01*
X73499117Y-63448346D01*
X73499123Y-63448349D01*
X73590480Y-63486190D01*
X73711113Y-63536158D01*
X73932762Y-63595548D01*
X74160266Y-63625500D01*
X74160273Y-63625500D01*
X74389727Y-63625500D01*
X74389734Y-63625500D01*
X74617238Y-63595548D01*
X74838887Y-63536158D01*
X75050888Y-63448344D01*
X75249612Y-63333611D01*
X75431661Y-63193919D01*
X75431665Y-63193914D01*
X75431670Y-63193911D01*
X75593911Y-63031670D01*
X75593914Y-63031665D01*
X75593919Y-63031661D01*
X75733611Y-62849612D01*
X75848344Y-62650888D01*
X75936158Y-62438887D01*
X75995548Y-62217238D01*
X76025500Y-61989734D01*
X76025500Y-61760266D01*
X76025499Y-61760258D01*
X84724500Y-61760258D01*
X84724500Y-61989741D01*
X84744538Y-62141936D01*
X84754452Y-62217238D01*
X84791647Y-62356052D01*
X84813842Y-62438887D01*
X84901650Y-62650876D01*
X84901656Y-62650888D01*
X85013268Y-62844207D01*
X85016392Y-62849617D01*
X85156081Y-63031661D01*
X85156089Y-63031670D01*
X85318330Y-63193911D01*
X85318338Y-63193918D01*
X85500382Y-63333607D01*
X85500385Y-63333608D01*
X85500388Y-63333611D01*
X85699112Y-63448344D01*
X85699117Y-63448346D01*
X85699123Y-63448349D01*
X85790480Y-63486190D01*
X85911113Y-63536158D01*
X86132762Y-63595548D01*
X86360266Y-63625500D01*
X86360273Y-63625500D01*
X86589727Y-63625500D01*
X86589734Y-63625500D01*
X86817238Y-63595548D01*
X87038887Y-63536158D01*
X87250888Y-63448344D01*
X87449612Y-63333611D01*
X87631661Y-63193919D01*
X87631665Y-63193914D01*
X87631670Y-63193911D01*
X87793911Y-63031670D01*
X87793914Y-63031665D01*
X87793919Y-63031661D01*
X87887075Y-62910258D01*
X128524500Y-62910258D01*
X128524500Y-63139741D01*
X128549446Y-63329215D01*
X128554452Y-63367238D01*
X128613842Y-63588887D01*
X128701650Y-63800876D01*
X128701657Y-63800890D01*
X128816392Y-63999617D01*
X128956081Y-64181661D01*
X128956089Y-64181670D01*
X129118330Y-64343911D01*
X129118338Y-64343918D01*
X129300382Y-64483607D01*
X129300385Y-64483608D01*
X129300388Y-64483611D01*
X129499112Y-64598344D01*
X129499117Y-64598346D01*
X129499123Y-64598349D01*
X129590480Y-64636190D01*
X129711113Y-64686158D01*
X129932762Y-64745548D01*
X130160266Y-64775500D01*
X130160273Y-64775500D01*
X130389727Y-64775500D01*
X130389734Y-64775500D01*
X130617238Y-64745548D01*
X130838887Y-64686158D01*
X131050888Y-64598344D01*
X131249612Y-64483611D01*
X131431661Y-64343919D01*
X131431665Y-64343914D01*
X131431670Y-64343911D01*
X131593911Y-64181670D01*
X131593914Y-64181665D01*
X131593919Y-64181661D01*
X131733611Y-63999612D01*
X131848344Y-63800888D01*
X131936158Y-63588887D01*
X131995548Y-63367238D01*
X132025500Y-63139734D01*
X132025500Y-62910266D01*
X132025499Y-62910258D01*
X140724500Y-62910258D01*
X140724500Y-63139741D01*
X140749446Y-63329215D01*
X140754452Y-63367238D01*
X140813842Y-63588887D01*
X140901650Y-63800876D01*
X140901657Y-63800890D01*
X141016392Y-63999617D01*
X141156081Y-64181661D01*
X141156089Y-64181670D01*
X141318330Y-64343911D01*
X141318338Y-64343918D01*
X141500382Y-64483607D01*
X141500385Y-64483608D01*
X141500388Y-64483611D01*
X141699112Y-64598344D01*
X141699117Y-64598346D01*
X141699123Y-64598349D01*
X141790480Y-64636190D01*
X141911113Y-64686158D01*
X142132762Y-64745548D01*
X142360266Y-64775500D01*
X142360273Y-64775500D01*
X142589727Y-64775500D01*
X142589734Y-64775500D01*
X142817238Y-64745548D01*
X143038887Y-64686158D01*
X143250888Y-64598344D01*
X143449612Y-64483611D01*
X143631661Y-64343919D01*
X143631665Y-64343914D01*
X143631670Y-64343911D01*
X143793911Y-64181670D01*
X143793914Y-64181665D01*
X143793919Y-64181661D01*
X143933611Y-63999612D01*
X144048344Y-63800888D01*
X144136158Y-63588887D01*
X144195548Y-63367238D01*
X144225500Y-63139734D01*
X144225500Y-62910266D01*
X144195548Y-62682762D01*
X144136158Y-62461113D01*
X144086190Y-62340480D01*
X144048349Y-62249123D01*
X144048346Y-62249117D01*
X144048344Y-62249112D01*
X143933611Y-62050388D01*
X143933608Y-62050385D01*
X143933607Y-62050382D01*
X143793918Y-61868338D01*
X143793911Y-61868330D01*
X143631670Y-61706089D01*
X143631661Y-61706081D01*
X143449617Y-61566392D01*
X143298634Y-61479222D01*
X143250891Y-61451657D01*
X143250876Y-61451650D01*
X143065786Y-61374984D01*
X153299500Y-61374984D01*
X153299500Y-63675015D01*
X153310000Y-63777795D01*
X153310001Y-63777797D01*
X153337593Y-63861065D01*
X153365186Y-63944335D01*
X153365187Y-63944337D01*
X153457286Y-64093651D01*
X153457289Y-64093655D01*
X153581344Y-64217710D01*
X153581348Y-64217713D01*
X153730662Y-64309812D01*
X153730664Y-64309813D01*
X153730666Y-64309814D01*
X153897203Y-64364999D01*
X153999992Y-64375500D01*
X153999997Y-64375500D01*
X156300003Y-64375500D01*
X156300008Y-64375500D01*
X156402797Y-64364999D01*
X156569334Y-64309814D01*
X156718655Y-64217711D01*
X156842711Y-64093655D01*
X156934814Y-63944334D01*
X156989999Y-63777797D01*
X157000500Y-63675008D01*
X157000500Y-61374992D01*
X156989999Y-61272203D01*
X156934814Y-61105666D01*
X156930771Y-61099112D01*
X156842713Y-60956348D01*
X156842710Y-60956344D01*
X156718655Y-60832289D01*
X156718651Y-60832286D01*
X156569337Y-60740187D01*
X156569335Y-60740186D01*
X156486065Y-60712593D01*
X156402797Y-60685001D01*
X156402795Y-60685000D01*
X156300015Y-60674500D01*
X156300008Y-60674500D01*
X153999992Y-60674500D01*
X153999984Y-60674500D01*
X153897204Y-60685000D01*
X153897203Y-60685001D01*
X153730664Y-60740186D01*
X153730662Y-60740187D01*
X153581348Y-60832286D01*
X153581344Y-60832289D01*
X153457289Y-60956344D01*
X153457286Y-60956348D01*
X153365187Y-61105662D01*
X153365186Y-61105664D01*
X153310001Y-61272203D01*
X153310000Y-61272204D01*
X153299500Y-61374984D01*
X143065786Y-61374984D01*
X143038887Y-61363842D01*
X142817238Y-61304452D01*
X142779215Y-61299446D01*
X142589741Y-61274500D01*
X142589734Y-61274500D01*
X142360266Y-61274500D01*
X142360258Y-61274500D01*
X142143715Y-61303009D01*
X142132762Y-61304452D01*
X142107903Y-61311113D01*
X141911112Y-61363842D01*
X141699123Y-61451650D01*
X141699109Y-61451657D01*
X141500382Y-61566392D01*
X141318338Y-61706081D01*
X141156081Y-61868338D01*
X141016392Y-62050382D01*
X140901657Y-62249109D01*
X140901650Y-62249123D01*
X140813842Y-62461112D01*
X140754453Y-62682759D01*
X140754451Y-62682770D01*
X140724500Y-62910258D01*
X132025499Y-62910258D01*
X131995548Y-62682762D01*
X131936158Y-62461113D01*
X131886190Y-62340480D01*
X131848349Y-62249123D01*
X131848346Y-62249117D01*
X131848344Y-62249112D01*
X131733611Y-62050388D01*
X131733608Y-62050385D01*
X131733607Y-62050382D01*
X131593918Y-61868338D01*
X131593911Y-61868330D01*
X131431670Y-61706089D01*
X131431661Y-61706081D01*
X131249617Y-61566392D01*
X131050890Y-61451657D01*
X131050876Y-61451650D01*
X130838887Y-61363842D01*
X130617238Y-61304452D01*
X130579215Y-61299446D01*
X130389741Y-61274500D01*
X130389734Y-61274500D01*
X130160266Y-61274500D01*
X130160258Y-61274500D01*
X129943715Y-61303009D01*
X129932762Y-61304452D01*
X129907903Y-61311113D01*
X129711112Y-61363842D01*
X129499123Y-61451650D01*
X129499109Y-61451657D01*
X129300382Y-61566392D01*
X129118338Y-61706081D01*
X128956081Y-61868338D01*
X128816392Y-62050382D01*
X128701657Y-62249109D01*
X128701650Y-62249123D01*
X128613842Y-62461112D01*
X128554453Y-62682759D01*
X128554451Y-62682770D01*
X128524500Y-62910258D01*
X87887075Y-62910258D01*
X87933611Y-62849612D01*
X88048344Y-62650888D01*
X88136158Y-62438887D01*
X88195548Y-62217238D01*
X88225500Y-61989734D01*
X88225500Y-61760266D01*
X88195548Y-61532762D01*
X88136158Y-61311113D01*
X88048344Y-61099112D01*
X87933611Y-60900388D01*
X87933608Y-60900385D01*
X87933607Y-60900382D01*
X87793918Y-60718338D01*
X87793911Y-60718330D01*
X87631670Y-60556089D01*
X87631661Y-60556081D01*
X87449617Y-60416392D01*
X87250890Y-60301657D01*
X87250876Y-60301650D01*
X87038887Y-60213842D01*
X86817238Y-60154452D01*
X86779215Y-60149446D01*
X86589741Y-60124500D01*
X86589734Y-60124500D01*
X86360266Y-60124500D01*
X86360258Y-60124500D01*
X86143715Y-60153009D01*
X86132762Y-60154452D01*
X86039076Y-60179554D01*
X85911112Y-60213842D01*
X85699123Y-60301650D01*
X85699109Y-60301657D01*
X85500382Y-60416392D01*
X85318338Y-60556081D01*
X85156081Y-60718338D01*
X85016392Y-60900382D01*
X84901657Y-61099109D01*
X84901652Y-61099121D01*
X84813842Y-61311112D01*
X84754453Y-61532759D01*
X84754451Y-61532770D01*
X84724500Y-61760258D01*
X76025499Y-61760258D01*
X75995548Y-61532762D01*
X75936158Y-61311113D01*
X75848344Y-61099112D01*
X75733611Y-60900388D01*
X75733608Y-60900385D01*
X75733607Y-60900382D01*
X75593918Y-60718338D01*
X75593911Y-60718330D01*
X75431670Y-60556089D01*
X75431661Y-60556081D01*
X75249617Y-60416392D01*
X75050890Y-60301657D01*
X75050876Y-60301650D01*
X74838887Y-60213842D01*
X74617238Y-60154452D01*
X74579215Y-60149446D01*
X74389741Y-60124500D01*
X74389734Y-60124500D01*
X74160266Y-60124500D01*
X74160258Y-60124500D01*
X73943715Y-60153009D01*
X73932762Y-60154452D01*
X73839076Y-60179554D01*
X73711112Y-60213842D01*
X73499123Y-60301650D01*
X73499109Y-60301657D01*
X73300382Y-60416392D01*
X73118338Y-60556081D01*
X72956081Y-60718338D01*
X72816392Y-60900382D01*
X72701657Y-61099109D01*
X72701652Y-61099121D01*
X72613842Y-61311112D01*
X72554453Y-61532759D01*
X72554451Y-61532770D01*
X72524500Y-61760258D01*
X63392207Y-61760258D01*
X63453239Y-61680721D01*
X63470543Y-61658167D01*
X63491936Y-61630289D01*
X63613224Y-61420212D01*
X63706054Y-61196100D01*
X63768838Y-60961789D01*
X63800500Y-60721288D01*
X63800500Y-60478712D01*
X63768838Y-60238211D01*
X63706054Y-60003900D01*
X63613224Y-59779788D01*
X63491936Y-59569711D01*
X63344265Y-59377262D01*
X63344260Y-59377256D01*
X63172743Y-59205739D01*
X63172736Y-59205733D01*
X62980293Y-59058067D01*
X62980292Y-59058066D01*
X62980289Y-59058064D01*
X62770212Y-58936776D01*
X62770205Y-58936773D01*
X62546104Y-58843947D01*
X62311785Y-58781161D01*
X62071289Y-58749500D01*
X62071288Y-58749500D01*
X61828712Y-58749500D01*
X61828711Y-58749500D01*
X61588214Y-58781161D01*
X61353895Y-58843947D01*
X61129794Y-58936773D01*
X61129785Y-58936777D01*
X60919706Y-59058067D01*
X60727263Y-59205733D01*
X60727256Y-59205739D01*
X60555739Y-59377256D01*
X60555733Y-59377263D01*
X60408067Y-59569706D01*
X60286777Y-59779785D01*
X60286773Y-59779794D01*
X60193947Y-60003895D01*
X60131161Y-60238214D01*
X60099500Y-60478711D01*
X54626115Y-60478711D01*
X54631975Y-55478712D01*
X60099500Y-55478712D01*
X60099500Y-55721288D01*
X60131162Y-55961789D01*
X60162554Y-56078944D01*
X60193947Y-56196104D01*
X60237920Y-56302263D01*
X60286776Y-56420212D01*
X60408064Y-56630289D01*
X60408066Y-56630292D01*
X60408067Y-56630293D01*
X60555733Y-56822736D01*
X60555739Y-56822743D01*
X60727256Y-56994260D01*
X60727262Y-56994265D01*
X60919711Y-57141936D01*
X61129788Y-57263224D01*
X61353900Y-57356054D01*
X61588211Y-57418838D01*
X61768586Y-57442584D01*
X61828711Y-57450500D01*
X61828712Y-57450500D01*
X62071289Y-57450500D01*
X62119388Y-57444167D01*
X62311789Y-57418838D01*
X62546100Y-57356054D01*
X62770212Y-57263224D01*
X62980289Y-57141936D01*
X63172738Y-56994265D01*
X63344265Y-56822738D01*
X63491936Y-56630289D01*
X63613224Y-56420212D01*
X63706054Y-56196100D01*
X63768838Y-55961789D01*
X63800500Y-55721288D01*
X63800500Y-55478712D01*
X63768838Y-55238211D01*
X63706054Y-55003900D01*
X63613224Y-54779788D01*
X63496222Y-54577135D01*
X86724500Y-54577135D01*
X86724500Y-57172870D01*
X86724501Y-57172876D01*
X86730908Y-57232483D01*
X86781202Y-57367328D01*
X86781206Y-57367335D01*
X86867452Y-57482544D01*
X86867455Y-57482547D01*
X86982664Y-57568793D01*
X86982671Y-57568797D01*
X87117517Y-57619091D01*
X87117516Y-57619091D01*
X87124444Y-57619835D01*
X87177127Y-57625500D01*
X89772872Y-57625499D01*
X89832483Y-57619091D01*
X89967331Y-57568796D01*
X90082546Y-57482546D01*
X90168796Y-57367331D01*
X90219091Y-57232483D01*
X90225500Y-57172873D01*
X90225499Y-55727135D01*
X126524500Y-55727135D01*
X126524500Y-58322870D01*
X126524501Y-58322876D01*
X126530908Y-58382483D01*
X126581202Y-58517328D01*
X126581206Y-58517335D01*
X126667452Y-58632544D01*
X126667455Y-58632547D01*
X126782664Y-58718793D01*
X126782671Y-58718797D01*
X126917517Y-58769091D01*
X126917516Y-58769091D01*
X126924444Y-58769835D01*
X126977127Y-58775500D01*
X129572872Y-58775499D01*
X129632483Y-58769091D01*
X129767331Y-58718796D01*
X129882546Y-58632546D01*
X129968796Y-58517331D01*
X130019091Y-58382483D01*
X130025500Y-58322873D01*
X130025499Y-57403711D01*
X153299500Y-57403711D01*
X153299500Y-57646288D01*
X153331161Y-57886785D01*
X153393947Y-58121104D01*
X153477519Y-58322864D01*
X153486776Y-58345212D01*
X153608064Y-58555289D01*
X153608066Y-58555292D01*
X153608067Y-58555293D01*
X153755733Y-58747736D01*
X153755739Y-58747743D01*
X153927256Y-58919260D01*
X153927262Y-58919265D01*
X154119711Y-59066936D01*
X154329788Y-59188224D01*
X154553900Y-59281054D01*
X154788211Y-59343838D01*
X154968586Y-59367584D01*
X155028711Y-59375500D01*
X155028712Y-59375500D01*
X155271289Y-59375500D01*
X155319388Y-59369167D01*
X155511789Y-59343838D01*
X155746100Y-59281054D01*
X155970212Y-59188224D01*
X156180289Y-59066936D01*
X156372738Y-58919265D01*
X156544265Y-58747738D01*
X156691936Y-58555289D01*
X156813224Y-58345212D01*
X156906054Y-58121100D01*
X156968838Y-57886789D01*
X157000500Y-57646288D01*
X157000500Y-57403712D01*
X156968838Y-57163211D01*
X156906054Y-56928900D01*
X156813224Y-56704788D01*
X156691936Y-56494711D01*
X156544265Y-56302262D01*
X156544260Y-56302256D01*
X156372743Y-56130739D01*
X156372736Y-56130733D01*
X156180293Y-55983067D01*
X156180292Y-55983066D01*
X156180289Y-55983064D01*
X155970212Y-55861776D01*
X155970205Y-55861773D01*
X155746104Y-55768947D01*
X155511785Y-55706161D01*
X155271289Y-55674500D01*
X155271288Y-55674500D01*
X155028712Y-55674500D01*
X155028711Y-55674500D01*
X154788214Y-55706161D01*
X154553895Y-55768947D01*
X154329794Y-55861773D01*
X154329785Y-55861777D01*
X154119706Y-55983067D01*
X153927263Y-56130733D01*
X153927256Y-56130739D01*
X153755739Y-56302256D01*
X153755733Y-56302263D01*
X153608067Y-56494706D01*
X153486777Y-56704785D01*
X153486773Y-56704794D01*
X153393947Y-56928895D01*
X153331161Y-57163214D01*
X153299500Y-57403711D01*
X130025499Y-57403711D01*
X130025499Y-56994266D01*
X130025499Y-55727129D01*
X130025498Y-55727123D01*
X130025497Y-55727116D01*
X130019091Y-55667517D01*
X129968796Y-55532669D01*
X129968795Y-55532668D01*
X129968793Y-55532664D01*
X129882547Y-55417455D01*
X129882544Y-55417452D01*
X129767335Y-55331206D01*
X129767328Y-55331202D01*
X129632482Y-55280908D01*
X129632483Y-55280908D01*
X129572883Y-55274501D01*
X129572881Y-55274500D01*
X129572873Y-55274500D01*
X129572864Y-55274500D01*
X126977129Y-55274500D01*
X126977123Y-55274501D01*
X126917516Y-55280908D01*
X126782671Y-55331202D01*
X126782664Y-55331206D01*
X126667455Y-55417452D01*
X126667452Y-55417455D01*
X126581206Y-55532664D01*
X126581202Y-55532671D01*
X126530908Y-55667517D01*
X126526754Y-55706161D01*
X126524501Y-55727123D01*
X126524500Y-55727135D01*
X90225499Y-55727135D01*
X90225499Y-54577128D01*
X90219091Y-54517517D01*
X90168796Y-54382669D01*
X90168795Y-54382668D01*
X90168793Y-54382664D01*
X90082547Y-54267455D01*
X90082544Y-54267452D01*
X89967335Y-54181206D01*
X89967328Y-54181202D01*
X89832482Y-54130908D01*
X89832483Y-54130908D01*
X89772883Y-54124501D01*
X89772881Y-54124500D01*
X89772873Y-54124500D01*
X89772864Y-54124500D01*
X87177129Y-54124500D01*
X87177123Y-54124501D01*
X87117516Y-54130908D01*
X86982671Y-54181202D01*
X86982664Y-54181206D01*
X86867455Y-54267452D01*
X86867452Y-54267455D01*
X86781206Y-54382664D01*
X86781202Y-54382671D01*
X86730908Y-54517517D01*
X86725298Y-54569703D01*
X86724501Y-54577123D01*
X86724500Y-54577135D01*
X63496222Y-54577135D01*
X63491936Y-54569711D01*
X63451886Y-54517517D01*
X63344266Y-54377263D01*
X63344260Y-54377256D01*
X63172743Y-54205739D01*
X63172736Y-54205733D01*
X62980293Y-54058067D01*
X62980292Y-54058066D01*
X62980289Y-54058064D01*
X62770212Y-53936776D01*
X62770205Y-53936773D01*
X62546104Y-53843947D01*
X62311785Y-53781161D01*
X62071289Y-53749500D01*
X62071288Y-53749500D01*
X61828712Y-53749500D01*
X61828711Y-53749500D01*
X61588214Y-53781161D01*
X61353895Y-53843947D01*
X61129794Y-53936773D01*
X61129785Y-53936777D01*
X60919706Y-54058067D01*
X60727263Y-54205733D01*
X60727256Y-54205739D01*
X60555739Y-54377256D01*
X60555733Y-54377263D01*
X60408067Y-54569706D01*
X60286777Y-54779785D01*
X60286773Y-54779794D01*
X60193947Y-55003895D01*
X60131161Y-55238214D01*
X60107564Y-55417455D01*
X60099500Y-55478712D01*
X54631975Y-55478712D01*
X54639041Y-49449984D01*
X60099500Y-49449984D01*
X60099500Y-51750015D01*
X60110000Y-51852795D01*
X60110001Y-51852796D01*
X60165186Y-52019335D01*
X60165187Y-52019337D01*
X60257286Y-52168651D01*
X60257289Y-52168655D01*
X60381344Y-52292710D01*
X60381348Y-52292713D01*
X60530662Y-52384812D01*
X60530664Y-52384813D01*
X60530666Y-52384814D01*
X60697203Y-52439999D01*
X60799992Y-52450500D01*
X60799997Y-52450500D01*
X63100003Y-52450500D01*
X63100008Y-52450500D01*
X63202797Y-52439999D01*
X63369334Y-52384814D01*
X63518655Y-52292711D01*
X63642711Y-52168655D01*
X63734814Y-52019334D01*
X63789999Y-51852797D01*
X63800500Y-51750008D01*
X63800500Y-49760258D01*
X72524500Y-49760258D01*
X72524500Y-49989741D01*
X72549446Y-50179215D01*
X72554452Y-50217238D01*
X72588520Y-50344384D01*
X72613842Y-50438887D01*
X72701650Y-50650876D01*
X72701657Y-50650890D01*
X72816392Y-50849617D01*
X72956081Y-51031661D01*
X72956089Y-51031670D01*
X73118330Y-51193911D01*
X73118338Y-51193918D01*
X73300382Y-51333607D01*
X73300385Y-51333608D01*
X73300388Y-51333611D01*
X73499112Y-51448344D01*
X73499117Y-51448346D01*
X73499123Y-51448349D01*
X73590480Y-51486190D01*
X73711113Y-51536158D01*
X73932762Y-51595548D01*
X74160266Y-51625500D01*
X74160273Y-51625500D01*
X74389727Y-51625500D01*
X74389734Y-51625500D01*
X74617238Y-51595548D01*
X74838887Y-51536158D01*
X75050888Y-51448344D01*
X75249612Y-51333611D01*
X75431661Y-51193919D01*
X75431665Y-51193914D01*
X75431670Y-51193911D01*
X75593911Y-51031670D01*
X75593914Y-51031665D01*
X75593919Y-51031661D01*
X75733611Y-50849612D01*
X75848344Y-50650888D01*
X75936158Y-50438887D01*
X75995548Y-50217238D01*
X76025500Y-49989734D01*
X76025500Y-49760266D01*
X76025499Y-49760258D01*
X84724500Y-49760258D01*
X84724500Y-49989741D01*
X84749446Y-50179215D01*
X84754452Y-50217238D01*
X84788520Y-50344384D01*
X84813842Y-50438887D01*
X84901650Y-50650876D01*
X84901657Y-50650890D01*
X85016392Y-50849617D01*
X85156081Y-51031661D01*
X85156089Y-51031670D01*
X85318330Y-51193911D01*
X85318338Y-51193918D01*
X85500382Y-51333607D01*
X85500385Y-51333608D01*
X85500388Y-51333611D01*
X85699112Y-51448344D01*
X85699117Y-51448346D01*
X85699123Y-51448349D01*
X85790480Y-51486190D01*
X85911113Y-51536158D01*
X86132762Y-51595548D01*
X86360266Y-51625500D01*
X86360273Y-51625500D01*
X86589727Y-51625500D01*
X86589734Y-51625500D01*
X86817238Y-51595548D01*
X87038887Y-51536158D01*
X87250888Y-51448344D01*
X87449612Y-51333611D01*
X87631661Y-51193919D01*
X87631665Y-51193914D01*
X87631670Y-51193911D01*
X87793911Y-51031670D01*
X87793914Y-51031665D01*
X87793919Y-51031661D01*
X87933611Y-50849612D01*
X88048344Y-50650888D01*
X88136158Y-50438887D01*
X88195548Y-50217238D01*
X88225500Y-49989734D01*
X88225500Y-49760266D01*
X88195548Y-49532762D01*
X88136158Y-49311113D01*
X88100489Y-49225000D01*
X88068238Y-49147138D01*
X88050266Y-49103751D01*
X97425000Y-49103751D01*
X97425000Y-49346248D01*
X97425001Y-49346264D01*
X97456653Y-49586687D01*
X97519421Y-49820939D01*
X97612220Y-50044978D01*
X97612227Y-50044992D01*
X97733481Y-50255010D01*
X97802061Y-50344384D01*
X98520884Y-49625560D01*
X98521740Y-49627626D01*
X98614762Y-49766844D01*
X98733156Y-49885238D01*
X98872374Y-49978260D01*
X98874437Y-49979114D01*
X98155614Y-50697936D01*
X98155614Y-50697937D01*
X98244989Y-50766517D01*
X98244996Y-50766522D01*
X98455007Y-50887772D01*
X98455021Y-50887779D01*
X98679060Y-50980578D01*
X98913312Y-51043346D01*
X99153735Y-51074998D01*
X99153752Y-51075000D01*
X99396248Y-51075000D01*
X99396264Y-51074998D01*
X99636687Y-51043346D01*
X99870939Y-50980578D01*
X100094978Y-50887779D01*
X100094992Y-50887772D01*
X100305016Y-50766515D01*
X100394384Y-50697939D01*
X100394384Y-50697936D01*
X99675562Y-49979114D01*
X99677626Y-49978260D01*
X99816844Y-49885238D01*
X99935238Y-49766844D01*
X100028260Y-49627626D01*
X100029114Y-49625562D01*
X100747936Y-50344384D01*
X100747939Y-50344384D01*
X100816515Y-50255016D01*
X100937772Y-50044992D01*
X100937779Y-50044978D01*
X101030578Y-49820939D01*
X101093346Y-49586687D01*
X101124998Y-49346264D01*
X101125000Y-49346248D01*
X101125000Y-49103751D01*
X101124998Y-49103735D01*
X101093346Y-48863312D01*
X101030578Y-48629060D01*
X100937779Y-48405021D01*
X100937772Y-48405007D01*
X100816522Y-48194996D01*
X100816511Y-48194979D01*
X100779944Y-48147325D01*
X100779941Y-48147322D01*
X100747937Y-48105614D01*
X100747936Y-48105614D01*
X100029114Y-48824436D01*
X100028260Y-48822374D01*
X99935238Y-48683156D01*
X99816844Y-48564762D01*
X99677626Y-48471740D01*
X99675560Y-48470884D01*
X100071461Y-48074984D01*
X102424500Y-48074984D01*
X102424500Y-50375015D01*
X102435000Y-50477795D01*
X102435001Y-50477796D01*
X102490186Y-50644335D01*
X102490187Y-50644337D01*
X102582286Y-50793651D01*
X102582289Y-50793655D01*
X102706344Y-50917710D01*
X102706348Y-50917713D01*
X102855662Y-51009812D01*
X102855664Y-51009813D01*
X102855666Y-51009814D01*
X103022203Y-51064999D01*
X103124992Y-51075500D01*
X103124997Y-51075500D01*
X105425003Y-51075500D01*
X105425008Y-51075500D01*
X105527797Y-51064999D01*
X105694334Y-51009814D01*
X105843655Y-50917711D01*
X105851108Y-50910258D01*
X128524500Y-50910258D01*
X128524500Y-51139741D01*
X128545898Y-51302263D01*
X128554452Y-51367238D01*
X128613842Y-51588887D01*
X128701650Y-51800876D01*
X128701657Y-51800890D01*
X128816392Y-51999617D01*
X128956081Y-52181661D01*
X128956089Y-52181670D01*
X129118330Y-52343911D01*
X129118338Y-52343918D01*
X129300382Y-52483607D01*
X129300385Y-52483608D01*
X129300388Y-52483611D01*
X129499112Y-52598344D01*
X129499117Y-52598346D01*
X129499123Y-52598349D01*
X129590480Y-52636190D01*
X129711113Y-52686158D01*
X129932762Y-52745548D01*
X130160266Y-52775500D01*
X130160273Y-52775500D01*
X130389727Y-52775500D01*
X130389734Y-52775500D01*
X130617238Y-52745548D01*
X130838887Y-52686158D01*
X131050888Y-52598344D01*
X131249612Y-52483611D01*
X131431661Y-52343919D01*
X131431665Y-52343914D01*
X131431670Y-52343911D01*
X131593911Y-52181670D01*
X131593914Y-52181665D01*
X131593919Y-52181661D01*
X131733611Y-51999612D01*
X131848344Y-51800888D01*
X131936158Y-51588887D01*
X131995548Y-51367238D01*
X132025500Y-51139734D01*
X132025500Y-50910266D01*
X132025499Y-50910258D01*
X140724500Y-50910258D01*
X140724500Y-51139741D01*
X140745898Y-51302263D01*
X140754452Y-51367238D01*
X140813842Y-51588887D01*
X140901650Y-51800876D01*
X140901657Y-51800890D01*
X141016392Y-51999617D01*
X141156081Y-52181661D01*
X141156089Y-52181670D01*
X141318330Y-52343911D01*
X141318338Y-52343918D01*
X141500382Y-52483607D01*
X141500385Y-52483608D01*
X141500388Y-52483611D01*
X141699112Y-52598344D01*
X141699117Y-52598346D01*
X141699123Y-52598349D01*
X141790480Y-52636190D01*
X141911113Y-52686158D01*
X142132762Y-52745548D01*
X142360266Y-52775500D01*
X142360273Y-52775500D01*
X142589727Y-52775500D01*
X142589734Y-52775500D01*
X142817238Y-52745548D01*
X143038887Y-52686158D01*
X143250888Y-52598344D01*
X143449612Y-52483611D01*
X143553739Y-52403711D01*
X153299500Y-52403711D01*
X153299500Y-52646288D01*
X153331161Y-52886785D01*
X153393947Y-53121104D01*
X153486773Y-53345205D01*
X153486776Y-53345212D01*
X153608064Y-53555289D01*
X153608066Y-53555292D01*
X153608067Y-53555293D01*
X153755733Y-53747736D01*
X153755739Y-53747743D01*
X153927256Y-53919260D01*
X153927262Y-53919265D01*
X154119711Y-54066936D01*
X154329788Y-54188224D01*
X154553900Y-54281054D01*
X154788211Y-54343838D01*
X154968586Y-54367584D01*
X155028711Y-54375500D01*
X155028712Y-54375500D01*
X155271289Y-54375500D01*
X155319388Y-54369167D01*
X155511789Y-54343838D01*
X155746100Y-54281054D01*
X155970212Y-54188224D01*
X156180289Y-54066936D01*
X156372738Y-53919265D01*
X156544265Y-53747738D01*
X156691936Y-53555289D01*
X156813224Y-53345212D01*
X156906054Y-53121100D01*
X156968838Y-52886789D01*
X157000500Y-52646288D01*
X157000500Y-52403712D01*
X156968838Y-52163211D01*
X156906054Y-51928900D01*
X156813224Y-51704788D01*
X156691936Y-51494711D01*
X156544265Y-51302262D01*
X156544260Y-51302256D01*
X156372743Y-51130739D01*
X156372736Y-51130733D01*
X156180293Y-50983067D01*
X156180292Y-50983066D01*
X156180289Y-50983064D01*
X155970212Y-50861776D01*
X155940858Y-50849617D01*
X155746104Y-50768947D01*
X155511785Y-50706161D01*
X155271289Y-50674500D01*
X155271288Y-50674500D01*
X155028712Y-50674500D01*
X155028711Y-50674500D01*
X154788214Y-50706161D01*
X154553895Y-50768947D01*
X154329794Y-50861773D01*
X154329785Y-50861777D01*
X154119706Y-50983067D01*
X153927263Y-51130733D01*
X153927256Y-51130739D01*
X153755739Y-51302256D01*
X153755733Y-51302263D01*
X153608067Y-51494706D01*
X153486777Y-51704785D01*
X153486773Y-51704794D01*
X153393947Y-51928895D01*
X153331161Y-52163214D01*
X153299500Y-52403711D01*
X143553739Y-52403711D01*
X143631661Y-52343919D01*
X143631665Y-52343914D01*
X143631670Y-52343911D01*
X143793911Y-52181670D01*
X143793914Y-52181665D01*
X143793919Y-52181661D01*
X143933611Y-51999612D01*
X144048344Y-51800888D01*
X144136158Y-51588887D01*
X144195548Y-51367238D01*
X144225500Y-51139734D01*
X144225500Y-50910266D01*
X144195548Y-50682762D01*
X144136158Y-50461113D01*
X144048344Y-50249112D01*
X143933611Y-50050388D01*
X143933608Y-50050385D01*
X143933607Y-50050382D01*
X143793918Y-49868338D01*
X143793911Y-49868330D01*
X143631670Y-49706089D01*
X143631661Y-49706081D01*
X143449617Y-49566392D01*
X143250890Y-49451657D01*
X143250876Y-49451650D01*
X143038887Y-49363842D01*
X142976792Y-49347204D01*
X142817238Y-49304452D01*
X142779215Y-49299446D01*
X142589741Y-49274500D01*
X142589734Y-49274500D01*
X142360266Y-49274500D01*
X142360258Y-49274500D01*
X142143715Y-49303009D01*
X142132762Y-49304452D01*
X142107903Y-49311113D01*
X141911112Y-49363842D01*
X141699123Y-49451650D01*
X141699109Y-49451657D01*
X141500382Y-49566392D01*
X141318338Y-49706081D01*
X141156081Y-49868338D01*
X141016392Y-50050382D01*
X140901657Y-50249109D01*
X140901650Y-50249123D01*
X140813842Y-50461112D01*
X140754453Y-50682759D01*
X140754451Y-50682770D01*
X140724500Y-50910258D01*
X132025499Y-50910258D01*
X131995548Y-50682762D01*
X131936158Y-50461113D01*
X131848344Y-50249112D01*
X131733611Y-50050388D01*
X131733608Y-50050385D01*
X131733607Y-50050382D01*
X131593918Y-49868338D01*
X131593911Y-49868330D01*
X131431670Y-49706089D01*
X131431661Y-49706081D01*
X131249617Y-49566392D01*
X131050890Y-49451657D01*
X131050876Y-49451650D01*
X130838887Y-49363842D01*
X130776792Y-49347204D01*
X130617238Y-49304452D01*
X130579215Y-49299446D01*
X130389741Y-49274500D01*
X130389734Y-49274500D01*
X130160266Y-49274500D01*
X130160258Y-49274500D01*
X129943715Y-49303009D01*
X129932762Y-49304452D01*
X129907903Y-49311113D01*
X129711112Y-49363842D01*
X129499123Y-49451650D01*
X129499109Y-49451657D01*
X129300382Y-49566392D01*
X129118338Y-49706081D01*
X128956081Y-49868338D01*
X128816392Y-50050382D01*
X128701657Y-50249109D01*
X128701650Y-50249123D01*
X128613842Y-50461112D01*
X128554453Y-50682759D01*
X128554451Y-50682770D01*
X128524500Y-50910258D01*
X105851108Y-50910258D01*
X105967711Y-50793655D01*
X106059814Y-50644334D01*
X106114999Y-50477797D01*
X106125500Y-50375008D01*
X106125500Y-48074992D01*
X106114999Y-47972203D01*
X106059814Y-47805666D01*
X106026749Y-47752060D01*
X105967713Y-47656348D01*
X105967710Y-47656344D01*
X105843655Y-47532289D01*
X105843651Y-47532286D01*
X105694337Y-47440187D01*
X105694335Y-47440186D01*
X105593138Y-47406653D01*
X105527797Y-47385001D01*
X105527795Y-47385000D01*
X105425015Y-47374500D01*
X105425008Y-47374500D01*
X103124992Y-47374500D01*
X103124984Y-47374500D01*
X103022204Y-47385000D01*
X103022203Y-47385001D01*
X102855664Y-47440186D01*
X102855662Y-47440187D01*
X102706348Y-47532286D01*
X102706344Y-47532289D01*
X102582289Y-47656344D01*
X102582286Y-47656348D01*
X102490187Y-47805662D01*
X102490186Y-47805664D01*
X102435001Y-47972203D01*
X102435000Y-47972204D01*
X102424500Y-48074984D01*
X100071461Y-48074984D01*
X100394384Y-47752061D01*
X100305010Y-47683481D01*
X100094992Y-47562227D01*
X100094978Y-47562220D01*
X99870939Y-47469421D01*
X99636687Y-47406653D01*
X99396264Y-47375001D01*
X99396248Y-47375000D01*
X99153752Y-47375000D01*
X99153735Y-47375001D01*
X98913312Y-47406653D01*
X98679060Y-47469421D01*
X98455021Y-47562220D01*
X98455006Y-47562227D01*
X98244990Y-47683480D01*
X98155614Y-47752060D01*
X98155614Y-47752061D01*
X98874438Y-48470885D01*
X98872374Y-48471740D01*
X98733156Y-48564762D01*
X98614762Y-48683156D01*
X98521740Y-48822374D01*
X98520885Y-48824438D01*
X97802061Y-48105614D01*
X97802060Y-48105614D01*
X97733480Y-48194990D01*
X97612227Y-48405006D01*
X97612220Y-48405021D01*
X97519421Y-48629060D01*
X97456653Y-48863312D01*
X97425001Y-49103735D01*
X97425000Y-49103751D01*
X88050266Y-49103751D01*
X88048347Y-49099118D01*
X88048342Y-49099109D01*
X87933611Y-48900388D01*
X87933608Y-48900385D01*
X87933607Y-48900382D01*
X87793918Y-48718338D01*
X87793911Y-48718330D01*
X87631670Y-48556089D01*
X87631661Y-48556081D01*
X87449617Y-48416392D01*
X87434501Y-48407665D01*
X87250888Y-48301656D01*
X87250876Y-48301650D01*
X87038887Y-48213842D01*
X86817238Y-48154452D01*
X86779215Y-48149446D01*
X86589741Y-48124500D01*
X86589734Y-48124500D01*
X86360266Y-48124500D01*
X86360258Y-48124500D01*
X86143715Y-48153009D01*
X86132762Y-48154452D01*
X86039076Y-48179554D01*
X85911112Y-48213842D01*
X85699123Y-48301650D01*
X85699109Y-48301657D01*
X85500382Y-48416392D01*
X85318338Y-48556081D01*
X85156081Y-48718338D01*
X85016392Y-48900382D01*
X84901657Y-49099109D01*
X84901650Y-49099123D01*
X84813842Y-49311112D01*
X84754453Y-49532759D01*
X84754451Y-49532770D01*
X84724500Y-49760258D01*
X76025499Y-49760258D01*
X75995548Y-49532762D01*
X75936158Y-49311113D01*
X75868237Y-49147138D01*
X75848349Y-49099123D01*
X75848346Y-49099117D01*
X75848344Y-49099112D01*
X75733611Y-48900388D01*
X75733608Y-48900385D01*
X75733607Y-48900382D01*
X75593918Y-48718338D01*
X75593911Y-48718330D01*
X75431670Y-48556089D01*
X75431661Y-48556081D01*
X75249617Y-48416392D01*
X75234501Y-48407665D01*
X75050888Y-48301656D01*
X75050876Y-48301650D01*
X74838887Y-48213842D01*
X74617238Y-48154452D01*
X74579215Y-48149446D01*
X74389741Y-48124500D01*
X74389734Y-48124500D01*
X74160266Y-48124500D01*
X74160258Y-48124500D01*
X73943715Y-48153009D01*
X73932762Y-48154452D01*
X73839076Y-48179554D01*
X73711112Y-48213842D01*
X73499123Y-48301650D01*
X73499109Y-48301657D01*
X73300382Y-48416392D01*
X73118338Y-48556081D01*
X72956081Y-48718338D01*
X72816392Y-48900382D01*
X72701657Y-49099109D01*
X72701650Y-49099123D01*
X72613842Y-49311112D01*
X72554453Y-49532759D01*
X72554451Y-49532770D01*
X72524500Y-49760258D01*
X63800500Y-49760258D01*
X63800500Y-49449992D01*
X63789999Y-49347203D01*
X63734814Y-49180666D01*
X63710521Y-49141282D01*
X63642713Y-49031348D01*
X63642710Y-49031344D01*
X63518655Y-48907289D01*
X63518651Y-48907286D01*
X63369337Y-48815187D01*
X63369335Y-48815186D01*
X63286065Y-48787593D01*
X63202797Y-48760001D01*
X63202795Y-48760000D01*
X63100015Y-48749500D01*
X63100008Y-48749500D01*
X60799992Y-48749500D01*
X60799984Y-48749500D01*
X60697204Y-48760000D01*
X60697203Y-48760001D01*
X60530664Y-48815186D01*
X60530662Y-48815187D01*
X60381348Y-48907286D01*
X60381344Y-48907289D01*
X60257289Y-49031344D01*
X60257286Y-49031348D01*
X60165187Y-49180662D01*
X60165186Y-49180664D01*
X60110001Y-49347203D01*
X60110000Y-49347204D01*
X60099500Y-49449984D01*
X54639041Y-49449984D01*
X54649854Y-40223909D01*
X54669617Y-40156895D01*
X54722475Y-40111202D01*
X54773910Y-40100057D01*
X163026241Y-40149942D01*
G37*
%TD.AperFunction*%
%TD*%
M02*
