%TF.GenerationSoftware,KiCad,Pcbnew,9.0.6*%
%TF.CreationDate,2026-04-08T11:19:13+05:30*%
%TF.ProjectId,buck_converter,6275636b-5f63-46f6-9e76-65727465722e,rev?*%
%TF.SameCoordinates,Original*%
%TF.FileFunction,Copper,L1,Top*%
%TF.FilePolarity,Positive*%
%FSLAX46Y46*%
G04 Gerber Fmt 4.6, Leading zero omitted, Abs format (unit mm)*
G04 Created by KiCad (PCBNEW 9.0.6) date 2026-04-08 11:19:13*
%MOMM*%
%LPD*%
G01*
G04 APERTURE LIST*
G04 Aperture macros list*
%AMRoundRect*
0 Rectangle with rounded corners*
0 $1 Rounding radius*
0 $2 $3 $4 $5 $6 $7 $8 $9 X,Y pos of 4 corners*
0 Add a 4 corners polygon primitive as box body*
4,1,4,$2,$3,$4,$5,$6,$7,$8,$9,$2,$3,0*
0 Add four circle primitives for the rounded corners*
1,1,$1+$1,$2,$3*
1,1,$1+$1,$4,$5*
1,1,$1+$1,$6,$7*
1,1,$1+$1,$8,$9*
0 Add four rect primitives between the rounded corners*
20,1,$1+$1,$2,$3,$4,$5,0*
20,1,$1+$1,$4,$5,$6,$7,0*
20,1,$1+$1,$6,$7,$8,$9,0*
20,1,$1+$1,$8,$9,$2,$3,0*%
G04 Aperture macros list end*
%TA.AperFunction,SMDPad,CuDef*%
%ADD10RoundRect,0.250000X0.475000X-0.250000X0.475000X0.250000X-0.475000X0.250000X-0.475000X-0.250000X0*%
%TD*%
%TA.AperFunction,ComponentPad*%
%ADD11O,1.700000X1.700000*%
%TD*%
%TA.AperFunction,SMDPad,CuDef*%
%ADD12RoundRect,0.250000X0.650000X-1.000000X0.650000X1.000000X-0.650000X1.000000X-0.650000X-1.000000X0*%
%TD*%
%TA.AperFunction,SMDPad,CuDef*%
%ADD13RoundRect,0.250000X0.262500X0.450000X-0.262500X0.450000X-0.262500X-0.450000X0.262500X-0.450000X0*%
%TD*%
%TA.AperFunction,SMDPad,CuDef*%
%ADD14RoundRect,0.250000X0.450000X-0.325000X0.450000X0.325000X-0.450000X0.325000X-0.450000X-0.325000X0*%
%TD*%
%TA.AperFunction,SMDPad,CuDef*%
%ADD15RoundRect,0.250000X-0.450000X0.262500X-0.450000X-0.262500X0.450000X-0.262500X0.450000X0.262500X0*%
%TD*%
%TA.AperFunction,SMDPad,CuDef*%
%ADD16RoundRect,0.250000X-0.250000X-0.475000X0.250000X-0.475000X0.250000X0.475000X-0.250000X0.475000X0*%
%TD*%
%TA.AperFunction,SMDPad,CuDef*%
%ADD17RoundRect,0.250000X0.300000X-2.050000X0.300000X2.050000X-0.300000X2.050000X-0.300000X-2.050000X0*%
%TD*%
%TA.AperFunction,SMDPad,CuDef*%
%ADD18RoundRect,0.250002X5.149998X-4.449998X5.149998X4.449998X-5.149998X4.449998X-5.149998X-4.449998X0*%
%TD*%
%TA.AperFunction,SMDPad,CuDef*%
%ADD19R,1.600000X2.200000*%
%TD*%
%TA.AperFunction,SMDPad,CuDef*%
%ADD20RoundRect,0.243750X0.243750X0.456250X-0.243750X0.456250X-0.243750X-0.456250X0.243750X-0.456250X0*%
%TD*%
%TA.AperFunction,SMDPad,CuDef*%
%ADD21RoundRect,0.243750X0.456250X-0.243750X0.456250X0.243750X-0.456250X0.243750X-0.456250X-0.243750X0*%
%TD*%
%TA.AperFunction,SMDPad,CuDef*%
%ADD22RoundRect,0.250000X0.250000X0.475000X-0.250000X0.475000X-0.250000X-0.475000X0.250000X-0.475000X0*%
%TD*%
%TA.AperFunction,ComponentPad*%
%ADD23C,1.440000*%
%TD*%
%TA.AperFunction,SMDPad,CuDef*%
%ADD24RoundRect,0.250000X-0.475000X0.250000X-0.475000X-0.250000X0.475000X-0.250000X0.475000X0.250000X0*%
%TD*%
%TA.AperFunction,SMDPad,CuDef*%
%ADD25R,2.700000X3.600000*%
%TD*%
%TA.AperFunction,ViaPad*%
%ADD26C,0.600000*%
%TD*%
%TA.AperFunction,Conductor*%
%ADD27C,0.200000*%
%TD*%
G04 APERTURE END LIST*
D10*
%TO.P,C3,1*%
%TO.N,IN+*%
X63246000Y-54671000D03*
%TO.P,C3,2*%
%TO.N,GND*%
X63246000Y-52771000D03*
%TD*%
D11*
%TO.P,J1,1,Pin_1*%
%TO.N,IN+*%
X62484000Y-41381057D03*
%TD*%
D12*
%TO.P,D2,1,K*%
%TO.N,Net-(D2-K)*%
X77597000Y-58769000D03*
%TO.P,D2,2,A*%
%TO.N,GND*%
X77597000Y-54769000D03*
%TD*%
D13*
%TO.P,R3,1*%
%TO.N,GND*%
X92548200Y-41582100D03*
%TO.P,R3,2*%
%TO.N,OUT+*%
X90723200Y-41582100D03*
%TD*%
%TO.P,R1,1*%
%TO.N,Net-(D1-A)*%
X92548200Y-45646100D03*
%TO.P,R1,2*%
%TO.N,OUT+*%
X90723200Y-45646100D03*
%TD*%
D11*
%TO.P,J2,1,Pin_1*%
%TO.N,OUT+*%
X95300800Y-41381057D03*
%TD*%
%TO.P,J4,1,Pin_1*%
%TO.N,GND*%
X95554800Y-58674000D03*
%TD*%
D14*
%TO.P,C1,1*%
%TO.N,IN+*%
X63119000Y-47126000D03*
%TO.P,C1,2*%
%TO.N,GND*%
X63119000Y-45076000D03*
%TD*%
D15*
%TO.P,R5,1*%
%TO.N,OUT+*%
X76835000Y-44610000D03*
%TO.P,R5,2*%
%TO.N,Net-(U1-FB)*%
X76835000Y-46435000D03*
%TD*%
D11*
%TO.P,J3,1,Pin_1*%
%TO.N,GND*%
X62484000Y-58674000D03*
%TD*%
D16*
%TO.P,C5,1*%
%TO.N,OUT+*%
X90665700Y-43614100D03*
%TO.P,C5,2*%
%TO.N,GND*%
X92565700Y-43614100D03*
%TD*%
D17*
%TO.P,U1,1,VIN*%
%TO.N,IN+*%
X66675000Y-54356000D03*
%TO.P,U1,2,OUT*%
%TO.N,Net-(D2-K)*%
X68375000Y-54356000D03*
%TO.P,U1,3,GND*%
%TO.N,GND*%
X70075000Y-54356000D03*
D18*
X70075000Y-45206000D03*
D17*
%TO.P,U1,4,FB*%
%TO.N,Net-(U1-FB)*%
X71775000Y-54356000D03*
%TO.P,U1,5,~{ON}/OFF*%
%TO.N,GND*%
X73475000Y-54356000D03*
%TD*%
D19*
%TO.P,C4,1*%
%TO.N,OUT+*%
X93167200Y-55449600D03*
%TO.P,C4,2*%
%TO.N,GND*%
X93167200Y-52449600D03*
%TD*%
D20*
%TO.P,D1,1,K*%
%TO.N,GND*%
X92428300Y-47955200D03*
%TO.P,D1,2,A*%
%TO.N,Net-(D1-A)*%
X90553300Y-47955200D03*
%TD*%
D21*
%TO.P,C2,1*%
%TO.N,OUT+*%
X76880000Y-42879000D03*
%TO.P,C2,2*%
X76880000Y-41004000D03*
%TD*%
D22*
%TO.P,C6,1*%
%TO.N,Net-(U1-FB)*%
X70342800Y-58013600D03*
%TO.P,C6,2*%
%TO.N,Net-(D2-K)*%
X68442800Y-58013600D03*
%TD*%
D23*
%TO.P,R2,1*%
%TO.N,OUT+*%
X87249000Y-42672000D03*
%TO.P,R2,2,2*%
X84709000Y-45212000D03*
%TO.P,R2,3*%
X82169000Y-42672000D03*
%TD*%
D24*
%TO.P,C7,1*%
%TO.N,GND*%
X63246000Y-49088000D03*
%TO.P,C7,2*%
%TO.N,IN+*%
X63246000Y-50988000D03*
%TD*%
D15*
%TO.P,R4,1*%
%TO.N,Net-(U1-FB)*%
X76835000Y-48340000D03*
%TO.P,R4,2*%
%TO.N,GND*%
X76835000Y-50165000D03*
%TD*%
D25*
%TO.P,L1,1,+*%
%TO.N,Net-(D2-K)*%
X81108000Y-54864000D03*
%TO.P,L1,2,-*%
%TO.N,OUT+*%
X89408000Y-54864000D03*
%TD*%
D26*
%TO.N,GND*%
X94081600Y-43738800D03*
X78198000Y-50749200D03*
X64973200Y-52679600D03*
X64719200Y-58521600D03*
%TD*%
D27*
%TO.N,Net-(U1-FB)*%
X70342800Y-58013600D02*
X71775000Y-56581400D01*
X77845160Y-56957000D02*
X72076000Y-56957000D01*
X78798000Y-50303000D02*
X78798000Y-56004160D01*
X72076000Y-56957000D02*
X71775000Y-56656000D01*
X71775000Y-56581400D02*
X71775000Y-54356000D01*
X76835000Y-48340000D02*
X78798000Y-50303000D01*
X78798000Y-56004160D02*
X77845160Y-56957000D01*
X76835000Y-48340000D02*
X76835000Y-46435000D01*
X71775000Y-56656000D02*
X71775000Y-54356000D01*
%TO.N,Net-(D1-A)*%
X92573200Y-45694600D02*
X92524700Y-45646100D01*
X92548200Y-45960300D02*
X92548200Y-45646100D01*
X90553300Y-47955200D02*
X92548200Y-45960300D01*
%TO.N,Net-(D2-K)*%
X77597000Y-58769000D02*
X77326400Y-59039600D01*
X69468800Y-59039600D02*
X68442800Y-58013600D01*
X68442800Y-58013600D02*
X68442800Y-54423800D01*
X77597000Y-58375000D02*
X81108000Y-54864000D01*
X77326400Y-59039600D02*
X69468800Y-59039600D01*
X77597000Y-58769000D02*
X77597000Y-58375000D01*
X68442800Y-54423800D02*
X68375000Y-54356000D01*
%TO.N,IN+*%
X62220000Y-48025000D02*
X63119000Y-47126000D01*
X66360000Y-54671000D02*
X66675000Y-54356000D01*
X62220000Y-53645000D02*
X63246000Y-54671000D01*
X61634000Y-42963200D02*
X61634000Y-45641000D01*
X63246000Y-50988000D02*
X62220000Y-52014000D01*
X62220000Y-52014000D02*
X62220000Y-53645000D01*
X62220000Y-49962000D02*
X63246000Y-50988000D01*
X62484000Y-42113200D02*
X61634000Y-42963200D01*
X62220000Y-48025000D02*
X62220000Y-49962000D01*
X61634000Y-45641000D02*
X63119000Y-47126000D01*
X63246000Y-54671000D02*
X66360000Y-54671000D01*
%TO.N,OUT+*%
X95300800Y-41148000D02*
X95300800Y-41381057D01*
X80873600Y-50596800D02*
X80873600Y-49047400D01*
X80873600Y-49047400D02*
X84709000Y-45212000D01*
X76835000Y-41004000D02*
X76932000Y-41004000D01*
X91995500Y-40309800D02*
X94462600Y-40309800D01*
X90723200Y-45622600D02*
X90699700Y-45646100D01*
X76880000Y-41004000D02*
X76880000Y-42879000D01*
X90699700Y-45646100D02*
X90365700Y-45646100D01*
X89408000Y-54864000D02*
X87731600Y-53187600D01*
X88338900Y-41582100D02*
X90723200Y-41582100D01*
X87249000Y-42672000D02*
X88338900Y-41582100D01*
X90723200Y-43614100D02*
X90723200Y-45622600D01*
X92563081Y-54864000D02*
X93192600Y-55493519D01*
X92581600Y-54864000D02*
X93167200Y-55449600D01*
X91010500Y-45646100D02*
X90723200Y-45646100D01*
X84709000Y-45212000D02*
X87249000Y-42672000D01*
X90723200Y-41582100D02*
X91995500Y-40309800D01*
X89867500Y-55323500D02*
X89408000Y-54864000D01*
X82169000Y-42672000D02*
X84709000Y-45212000D01*
X83464400Y-53187600D02*
X80873600Y-50596800D01*
X82169000Y-42672000D02*
X80501000Y-41004000D01*
X76835000Y-44610000D02*
X76835000Y-42879000D01*
X80501000Y-41004000D02*
X76880000Y-41004000D01*
X87731600Y-53187600D02*
X83464400Y-53187600D01*
X90723200Y-43614100D02*
X90723200Y-41582100D01*
X94462600Y-40309800D02*
X95300800Y-41148000D01*
X76932000Y-41004000D02*
X77029000Y-41101000D01*
X89408000Y-54864000D02*
X92581600Y-54864000D01*
%TO.N,GND*%
X76835000Y-50165000D02*
X64323000Y-50165000D01*
X77419200Y-50749200D02*
X76835000Y-50165000D01*
X69945000Y-45076000D02*
X70075000Y-45206000D01*
X76835000Y-50996000D02*
X73475000Y-54356000D01*
X64719200Y-58521600D02*
X64770000Y-58572400D01*
X63246000Y-52771000D02*
X64262000Y-51755000D01*
X78198000Y-50749200D02*
X77419200Y-50749200D01*
X64566800Y-58674000D02*
X64719200Y-58521600D01*
X73888000Y-54769000D02*
X73475000Y-54356000D01*
X92548200Y-43596600D02*
X92565700Y-43614100D01*
X92548200Y-41582100D02*
X92548200Y-41503200D01*
X63119000Y-45076000D02*
X69945000Y-45076000D01*
X92565700Y-43614100D02*
X93361700Y-44410100D01*
X95554800Y-54837200D02*
X93167200Y-52449600D01*
X94081600Y-42926000D02*
X93284400Y-42128800D01*
X64881800Y-52771000D02*
X64973200Y-52679600D01*
X70075000Y-52056000D02*
X70075000Y-54356000D01*
X94081600Y-43738800D02*
X94081600Y-42926000D01*
X62484000Y-58674000D02*
X64566800Y-58674000D01*
X77597000Y-54769000D02*
X73888000Y-54769000D01*
X93284400Y-40845900D02*
X92548200Y-41582100D01*
X93167200Y-52449600D02*
X93167200Y-48694100D01*
X63246000Y-52771000D02*
X64881800Y-52771000D01*
X93361700Y-47021800D02*
X92428300Y-47955200D01*
X64323000Y-50165000D02*
X64272000Y-50114000D01*
X72310160Y-51755000D02*
X70376000Y-51755000D01*
X93361700Y-44410100D02*
X93361700Y-47021800D01*
X76835000Y-54007000D02*
X77597000Y-54769000D01*
X66193000Y-49088000D02*
X70075000Y-45206000D01*
X63246000Y-52771000D02*
X64272000Y-51745000D01*
X70075000Y-52056000D02*
X69774000Y-51755000D01*
X70376000Y-51755000D02*
X70075000Y-52056000D01*
X73475000Y-52919840D02*
X72310160Y-51755000D01*
X78333600Y-50749200D02*
X78198000Y-50749200D01*
X76835000Y-50165000D02*
X76835000Y-54007000D01*
X77597000Y-54769000D02*
X77597000Y-51485800D01*
X73475000Y-54356000D02*
X73475000Y-52919840D01*
X64262000Y-51755000D02*
X69774000Y-51755000D01*
X76835000Y-50165000D02*
X76835000Y-50996000D01*
X93167200Y-48694100D02*
X92428300Y-47955200D01*
X92548200Y-41582100D02*
X92548200Y-43596600D01*
X95554800Y-58674000D02*
X95554800Y-54837200D01*
X64272000Y-50114000D02*
X63246000Y-49088000D01*
X93284400Y-42128800D02*
X93284400Y-40845900D01*
X77597000Y-51485800D02*
X78333600Y-50749200D01*
X64272000Y-51745000D02*
X64272000Y-50114000D01*
X63246000Y-49088000D02*
X66193000Y-49088000D01*
%TD*%
%TA.AperFunction,Conductor*%
%TO.N,GND*%
G36*
X59591749Y-38764685D02*
G01*
X59598748Y-38764904D01*
X59646936Y-38767784D01*
X59648521Y-38767459D01*
X59673793Y-38764933D01*
X98502224Y-38882535D01*
X98523549Y-38884448D01*
X98577811Y-38894097D01*
X98609532Y-38904285D01*
X98655692Y-38926328D01*
X98683556Y-38944595D01*
X98722183Y-38978139D01*
X98744176Y-39003168D01*
X98772470Y-39045778D01*
X98787006Y-39075764D01*
X98802931Y-39124369D01*
X98808958Y-39157144D01*
X98810347Y-39186638D01*
X98809897Y-39197856D01*
X98810055Y-39242144D01*
X98809580Y-39253446D01*
X98806307Y-39290668D01*
X98806307Y-39290670D01*
X98808475Y-39302999D01*
X98810347Y-39324027D01*
X98886868Y-60707299D01*
X98884954Y-60729452D01*
X98875502Y-60782607D01*
X98865313Y-60814332D01*
X98843271Y-60860490D01*
X98825000Y-60888361D01*
X98791462Y-60926981D01*
X98766431Y-60948976D01*
X98723821Y-60977270D01*
X98693835Y-60991806D01*
X98645230Y-61007731D01*
X98612452Y-61013758D01*
X98582431Y-61015171D01*
X98574467Y-61014834D01*
X98574467Y-61015046D01*
X98528371Y-61014989D01*
X98517663Y-61014512D01*
X98478935Y-61011106D01*
X98478931Y-61011107D01*
X98468073Y-61013016D01*
X98446452Y-61014889D01*
X59607343Y-60967522D01*
X59585773Y-60965605D01*
X59542175Y-60957848D01*
X59510449Y-60947655D01*
X59464307Y-60925614D01*
X59436440Y-60907340D01*
X59397836Y-60873809D01*
X59375845Y-60848780D01*
X59347558Y-60806173D01*
X59333028Y-60776195D01*
X59317109Y-60727593D01*
X59311087Y-60694833D01*
X59309681Y-60664954D01*
X59310116Y-60654131D01*
X59310082Y-60645482D01*
X59309937Y-60608898D01*
X59310412Y-60597561D01*
X59313603Y-60561308D01*
X59311492Y-60549303D01*
X59309621Y-60528325D01*
X59309586Y-60519500D01*
X59301354Y-58424000D01*
X61156769Y-58424000D01*
X62050988Y-58424000D01*
X62018075Y-58481007D01*
X61984000Y-58608174D01*
X61984000Y-58739826D01*
X62018075Y-58866993D01*
X62050988Y-58924000D01*
X61156769Y-58924000D01*
X61167242Y-58990126D01*
X61167242Y-58990129D01*
X61232904Y-59192217D01*
X61329379Y-59381557D01*
X61454272Y-59553459D01*
X61454276Y-59553464D01*
X61604535Y-59703723D01*
X61604540Y-59703727D01*
X61776442Y-59828620D01*
X61965782Y-59925095D01*
X62167871Y-59990757D01*
X62234000Y-60001231D01*
X62234000Y-59107012D01*
X62291007Y-59139925D01*
X62418174Y-59174000D01*
X62549826Y-59174000D01*
X62676993Y-59139925D01*
X62734000Y-59107012D01*
X62734000Y-60001230D01*
X62800126Y-59990757D01*
X62800129Y-59990757D01*
X63002217Y-59925095D01*
X63191557Y-59828620D01*
X63363459Y-59703727D01*
X63363464Y-59703723D01*
X63513723Y-59553464D01*
X63513727Y-59553459D01*
X63638620Y-59381557D01*
X63735095Y-59192217D01*
X63800757Y-58990129D01*
X63800757Y-58990126D01*
X63811231Y-58924000D01*
X62917012Y-58924000D01*
X62949925Y-58866993D01*
X62984000Y-58739826D01*
X62984000Y-58608174D01*
X62949925Y-58481007D01*
X62917012Y-58424000D01*
X63811231Y-58424000D01*
X63800757Y-58357873D01*
X63800757Y-58357870D01*
X63735095Y-58155782D01*
X63638620Y-57966442D01*
X63513727Y-57794540D01*
X63513723Y-57794535D01*
X63363464Y-57644276D01*
X63363459Y-57644272D01*
X63191557Y-57519379D01*
X63002215Y-57422903D01*
X62800124Y-57357241D01*
X62734000Y-57346768D01*
X62734000Y-58240988D01*
X62676993Y-58208075D01*
X62549826Y-58174000D01*
X62418174Y-58174000D01*
X62291007Y-58208075D01*
X62234000Y-58240988D01*
X62234000Y-57346768D01*
X62233999Y-57346768D01*
X62167875Y-57357241D01*
X61965784Y-57422903D01*
X61776442Y-57519379D01*
X61604540Y-57644272D01*
X61604535Y-57644276D01*
X61454276Y-57794535D01*
X61454272Y-57794540D01*
X61329379Y-57966442D01*
X61232904Y-58155782D01*
X61167242Y-58357870D01*
X61167242Y-58357873D01*
X61156769Y-58424000D01*
X59301354Y-58424000D01*
X59251447Y-45720054D01*
X61033498Y-45720054D01*
X61069166Y-45853168D01*
X61074423Y-45872785D01*
X61077365Y-45877880D01*
X61077366Y-45877884D01*
X61077367Y-45877884D01*
X61153477Y-46009712D01*
X61153481Y-46009717D01*
X61272349Y-46128585D01*
X61272355Y-46128590D01*
X61882181Y-46738416D01*
X61915666Y-46799739D01*
X61918500Y-46826097D01*
X61918500Y-47425902D01*
X61898815Y-47492941D01*
X61882181Y-47513583D01*
X61739481Y-47656282D01*
X61739477Y-47656287D01*
X61722569Y-47685575D01*
X61722568Y-47685577D01*
X61660423Y-47793215D01*
X61619499Y-47945943D01*
X61619499Y-47945945D01*
X61619499Y-48114046D01*
X61619500Y-48114059D01*
X61619500Y-49875330D01*
X61619499Y-49875348D01*
X61619499Y-50041054D01*
X61619498Y-50041054D01*
X61660423Y-50193785D01*
X61677835Y-50223943D01*
X61677834Y-50223943D01*
X61677835Y-50223944D01*
X61739475Y-50330709D01*
X61739481Y-50330717D01*
X61858349Y-50449585D01*
X61858355Y-50449590D01*
X61985902Y-50577137D01*
X62019387Y-50638460D01*
X62021580Y-50677414D01*
X62020500Y-50687986D01*
X62020500Y-51288000D01*
X62020501Y-51288011D01*
X62021581Y-51298583D01*
X62021223Y-51300503D01*
X62021906Y-51302332D01*
X62014867Y-51334685D01*
X62008808Y-51367275D01*
X62007337Y-51369303D01*
X62007054Y-51370605D01*
X61985904Y-51398860D01*
X61851286Y-51533478D01*
X61851285Y-51533478D01*
X61851284Y-51533479D01*
X61739481Y-51645282D01*
X61739480Y-51645284D01*
X61704047Y-51706656D01*
X61660423Y-51782215D01*
X61619499Y-51934943D01*
X61619499Y-51934945D01*
X61619499Y-52103046D01*
X61619500Y-52103059D01*
X61619500Y-53558330D01*
X61619499Y-53558348D01*
X61619499Y-53724054D01*
X61619498Y-53724054D01*
X61646391Y-53824419D01*
X61660423Y-53876785D01*
X61678254Y-53907669D01*
X61689358Y-53926900D01*
X61689359Y-53926904D01*
X61689360Y-53926904D01*
X61739479Y-54013714D01*
X61739481Y-54013717D01*
X61858349Y-54132585D01*
X61858355Y-54132590D01*
X61985902Y-54260137D01*
X62019387Y-54321460D01*
X62021580Y-54360414D01*
X62020500Y-54370986D01*
X62020500Y-54971001D01*
X62020501Y-54971019D01*
X62031000Y-55073796D01*
X62031001Y-55073799D01*
X62086185Y-55240331D01*
X62086186Y-55240334D01*
X62178288Y-55389656D01*
X62302344Y-55513712D01*
X62451666Y-55605814D01*
X62618203Y-55660999D01*
X62720991Y-55671500D01*
X63771008Y-55671499D01*
X63771016Y-55671498D01*
X63771019Y-55671498D01*
X63827302Y-55665748D01*
X63873797Y-55660999D01*
X64040334Y-55605814D01*
X64189656Y-55513712D01*
X64313712Y-55389656D01*
X64350259Y-55330402D01*
X64402207Y-55283679D01*
X64455798Y-55271500D01*
X65500501Y-55271500D01*
X65567540Y-55291185D01*
X65613295Y-55343989D01*
X65624501Y-55395500D01*
X65624501Y-56456018D01*
X65635000Y-56558796D01*
X65635001Y-56558799D01*
X65647820Y-56597483D01*
X65690186Y-56725334D01*
X65782288Y-56874656D01*
X65906344Y-56998712D01*
X66055666Y-57090814D01*
X66222203Y-57145999D01*
X66324991Y-57156500D01*
X67025008Y-57156499D01*
X67025016Y-57156498D01*
X67025019Y-57156498D01*
X67081302Y-57150748D01*
X67127797Y-57145999D01*
X67294334Y-57090814D01*
X67326407Y-57071031D01*
X67393795Y-57052590D01*
X67460460Y-57073511D01*
X67505230Y-57127152D01*
X67513894Y-57196482D01*
X67509209Y-57215572D01*
X67452801Y-57385800D01*
X67452800Y-57385804D01*
X67442300Y-57488583D01*
X67442300Y-58538601D01*
X67442301Y-58538619D01*
X67452800Y-58641396D01*
X67452801Y-58641399D01*
X67485417Y-58739826D01*
X67507986Y-58807934D01*
X67600088Y-58957256D01*
X67724144Y-59081312D01*
X67873466Y-59173414D01*
X68040003Y-59228599D01*
X68142791Y-59239100D01*
X68742808Y-59239099D01*
X68753376Y-59238019D01*
X68755300Y-59238377D01*
X68757134Y-59237693D01*
X68789494Y-59244732D01*
X68822068Y-59250787D01*
X68824100Y-59252260D01*
X68825407Y-59252545D01*
X68853661Y-59273696D01*
X68983939Y-59403974D01*
X68983949Y-59403985D01*
X68988279Y-59408315D01*
X68988280Y-59408316D01*
X69100084Y-59520120D01*
X69157839Y-59553464D01*
X69186895Y-59570239D01*
X69186897Y-59570241D01*
X69224951Y-59592211D01*
X69237015Y-59599177D01*
X69389743Y-59640100D01*
X76072501Y-59640100D01*
X76139540Y-59659785D01*
X76185295Y-59712589D01*
X76196501Y-59764100D01*
X76196501Y-59819018D01*
X76207000Y-59921796D01*
X76207001Y-59921799D01*
X76233323Y-60001231D01*
X76262186Y-60088334D01*
X76354288Y-60237656D01*
X76478344Y-60361712D01*
X76627666Y-60453814D01*
X76794203Y-60508999D01*
X76896991Y-60519500D01*
X78297008Y-60519499D01*
X78399797Y-60508999D01*
X78566334Y-60453814D01*
X78715656Y-60361712D01*
X78839712Y-60237656D01*
X78931814Y-60088334D01*
X78986999Y-59921797D01*
X78997500Y-59819009D01*
X78997499Y-58424000D01*
X94227569Y-58424000D01*
X95121788Y-58424000D01*
X95088875Y-58481007D01*
X95054800Y-58608174D01*
X95054800Y-58739826D01*
X95088875Y-58866993D01*
X95121788Y-58924000D01*
X94227569Y-58924000D01*
X94238042Y-58990126D01*
X94238042Y-58990129D01*
X94303704Y-59192217D01*
X94400179Y-59381557D01*
X94525072Y-59553459D01*
X94525076Y-59553464D01*
X94675335Y-59703723D01*
X94675340Y-59703727D01*
X94847242Y-59828620D01*
X95036582Y-59925095D01*
X95238671Y-59990757D01*
X95304800Y-60001231D01*
X95304800Y-59107012D01*
X95361807Y-59139925D01*
X95488974Y-59174000D01*
X95620626Y-59174000D01*
X95747793Y-59139925D01*
X95804800Y-59107012D01*
X95804800Y-60001230D01*
X95870926Y-59990757D01*
X95870929Y-59990757D01*
X96073017Y-59925095D01*
X96262357Y-59828620D01*
X96434259Y-59703727D01*
X96434264Y-59703723D01*
X96584523Y-59553464D01*
X96584527Y-59553459D01*
X96709420Y-59381557D01*
X96805895Y-59192217D01*
X96871557Y-58990129D01*
X96871557Y-58990126D01*
X96882031Y-58924000D01*
X95987812Y-58924000D01*
X96020725Y-58866993D01*
X96054800Y-58739826D01*
X96054800Y-58608174D01*
X96020725Y-58481007D01*
X95987812Y-58424000D01*
X96882031Y-58424000D01*
X96871557Y-58357873D01*
X96871557Y-58357870D01*
X96805895Y-58155782D01*
X96709420Y-57966442D01*
X96584527Y-57794540D01*
X96584523Y-57794535D01*
X96434264Y-57644276D01*
X96434259Y-57644272D01*
X96262357Y-57519379D01*
X96073015Y-57422903D01*
X95870924Y-57357241D01*
X95804800Y-57346768D01*
X95804800Y-58240988D01*
X95747793Y-58208075D01*
X95620626Y-58174000D01*
X95488974Y-58174000D01*
X95361807Y-58208075D01*
X95304800Y-58240988D01*
X95304800Y-57346768D01*
X95304799Y-57346768D01*
X95238675Y-57357241D01*
X95036584Y-57422903D01*
X94847242Y-57519379D01*
X94675340Y-57644272D01*
X94675335Y-57644276D01*
X94525076Y-57794535D01*
X94525072Y-57794540D01*
X94400179Y-57966442D01*
X94303704Y-58155782D01*
X94238042Y-58357870D01*
X94238042Y-58357873D01*
X94227569Y-58424000D01*
X78997499Y-58424000D01*
X78997499Y-57875095D01*
X79017184Y-57808057D01*
X79033813Y-57787420D01*
X79620417Y-57200816D01*
X79681738Y-57167333D01*
X79708096Y-57164499D01*
X79710118Y-57164499D01*
X79710127Y-57164500D01*
X82505872Y-57164499D01*
X82565483Y-57158091D01*
X82700331Y-57107796D01*
X82815546Y-57021546D01*
X82901796Y-56906331D01*
X82952091Y-56771483D01*
X82958500Y-56711873D01*
X82958499Y-53803689D01*
X82967619Y-53772630D01*
X82975394Y-53741205D01*
X82977404Y-53739305D01*
X82978184Y-53736651D01*
X83002643Y-53715456D01*
X83026178Y-53693218D01*
X83028897Y-53692706D01*
X83030987Y-53690896D01*
X83063023Y-53686289D01*
X83094845Y-53680306D01*
X83097867Y-53681279D01*
X83100146Y-53680952D01*
X83129106Y-53688782D01*
X83137059Y-53692007D01*
X83232616Y-53747177D01*
X83344419Y-53777134D01*
X83385342Y-53788100D01*
X83385343Y-53788100D01*
X87431503Y-53788100D01*
X87460943Y-53796744D01*
X87490930Y-53803268D01*
X87495945Y-53807022D01*
X87498542Y-53807785D01*
X87519184Y-53824419D01*
X87521181Y-53826416D01*
X87554666Y-53887739D01*
X87557500Y-53914097D01*
X87557500Y-56711870D01*
X87557501Y-56711876D01*
X87563908Y-56771483D01*
X87614202Y-56906328D01*
X87614206Y-56906335D01*
X87700452Y-57021544D01*
X87700455Y-57021547D01*
X87815664Y-57107793D01*
X87815671Y-57107797D01*
X87950517Y-57158091D01*
X87950516Y-57158091D01*
X87957444Y-57158835D01*
X88010127Y-57164500D01*
X90805872Y-57164499D01*
X90865483Y-57158091D01*
X91000331Y-57107796D01*
X91115546Y-57021546D01*
X91201796Y-56906331D01*
X91252091Y-56771483D01*
X91258500Y-56711873D01*
X91258500Y-55588500D01*
X91278185Y-55521461D01*
X91330989Y-55475706D01*
X91382500Y-55464500D01*
X91742701Y-55464500D01*
X91809740Y-55484185D01*
X91855495Y-55536989D01*
X91866701Y-55588500D01*
X91866701Y-56597476D01*
X91873108Y-56657083D01*
X91923402Y-56791928D01*
X91923406Y-56791935D01*
X92009652Y-56907144D01*
X92009655Y-56907147D01*
X92124864Y-56993393D01*
X92124871Y-56993397D01*
X92259717Y-57043691D01*
X92259716Y-57043691D01*
X92266644Y-57044435D01*
X92319327Y-57050100D01*
X94015072Y-57050099D01*
X94074683Y-57043691D01*
X94209531Y-56993396D01*
X94324746Y-56907146D01*
X94410996Y-56791931D01*
X94461291Y-56657083D01*
X94467700Y-56597473D01*
X94467699Y-54301728D01*
X94461474Y-54243815D01*
X94461291Y-54242116D01*
X94410997Y-54107271D01*
X94410995Y-54107268D01*
X94410046Y-54106000D01*
X94348281Y-54023493D01*
X94323864Y-53958031D01*
X94338715Y-53889758D01*
X94348282Y-53874871D01*
X94410552Y-53791689D01*
X94410554Y-53791686D01*
X94460796Y-53656979D01*
X94460798Y-53656972D01*
X94467199Y-53597444D01*
X94467200Y-53597427D01*
X94467200Y-52699600D01*
X91867200Y-52699600D01*
X91867200Y-53597444D01*
X91873601Y-53656972D01*
X91873603Y-53656979D01*
X91923845Y-53791686D01*
X91923846Y-53791688D01*
X91986118Y-53874872D01*
X91992680Y-53892465D01*
X92003695Y-53907669D01*
X92004636Y-53924520D01*
X92010535Y-53940336D01*
X92006544Y-53958683D01*
X92007591Y-53977430D01*
X91997982Y-53998042D01*
X91995684Y-54008609D01*
X91994742Y-54010302D01*
X91990848Y-54017174D01*
X91923404Y-54107269D01*
X91891781Y-54192052D01*
X91886929Y-54200619D01*
X91868625Y-54218359D01*
X91853349Y-54238767D01*
X91843955Y-54242270D01*
X91836758Y-54249247D01*
X91811768Y-54254275D01*
X91787885Y-54263184D01*
X91779038Y-54263500D01*
X91382499Y-54263500D01*
X91315460Y-54243815D01*
X91269705Y-54191011D01*
X91258499Y-54139500D01*
X91258499Y-53016129D01*
X91258498Y-53016123D01*
X91256906Y-53001315D01*
X91252091Y-52956517D01*
X91201796Y-52821669D01*
X91201795Y-52821668D01*
X91201793Y-52821664D01*
X91115547Y-52706455D01*
X91115544Y-52706452D01*
X91000335Y-52620206D01*
X91000328Y-52620202D01*
X90865482Y-52569908D01*
X90865483Y-52569908D01*
X90805883Y-52563501D01*
X90805881Y-52563500D01*
X90805873Y-52563500D01*
X90805864Y-52563500D01*
X88010129Y-52563500D01*
X88010123Y-52563501D01*
X87950516Y-52569908D01*
X87902360Y-52587869D01*
X87854061Y-52595586D01*
X87840267Y-52595032D01*
X87810657Y-52587099D01*
X87652543Y-52587099D01*
X87652539Y-52587100D01*
X83764497Y-52587100D01*
X83697458Y-52567415D01*
X83676816Y-52550781D01*
X82427790Y-51301755D01*
X91867200Y-51301755D01*
X91867200Y-52199600D01*
X92917200Y-52199600D01*
X93417200Y-52199600D01*
X94467200Y-52199600D01*
X94467200Y-51301772D01*
X94467199Y-51301755D01*
X94460798Y-51242227D01*
X94460796Y-51242220D01*
X94410554Y-51107513D01*
X94410550Y-51107506D01*
X94324390Y-50992412D01*
X94324387Y-50992409D01*
X94209293Y-50906249D01*
X94209286Y-50906245D01*
X94074579Y-50856003D01*
X94074572Y-50856001D01*
X94015044Y-50849600D01*
X93417200Y-50849600D01*
X93417200Y-52199600D01*
X92917200Y-52199600D01*
X92917200Y-50849600D01*
X92319355Y-50849600D01*
X92259827Y-50856001D01*
X92259820Y-50856003D01*
X92125113Y-50906245D01*
X92125106Y-50906249D01*
X92010012Y-50992409D01*
X92010009Y-50992412D01*
X91923849Y-51107506D01*
X91923845Y-51107513D01*
X91873603Y-51242220D01*
X91873601Y-51242227D01*
X91867200Y-51301755D01*
X82427790Y-51301755D01*
X81510419Y-50384384D01*
X81476934Y-50323061D01*
X81474100Y-50296703D01*
X81474100Y-49347497D01*
X81493785Y-49280458D01*
X81510419Y-49259816D01*
X82850579Y-47919656D01*
X84330690Y-46439544D01*
X84392011Y-46406061D01*
X84437765Y-46404754D01*
X84612945Y-46432500D01*
X84612946Y-46432500D01*
X84805054Y-46432500D01*
X84805055Y-46432500D01*
X84994801Y-46402447D01*
X85177509Y-46343082D01*
X85348681Y-46255865D01*
X85504102Y-46142945D01*
X85639945Y-46007102D01*
X85752865Y-45851681D01*
X85840082Y-45680509D01*
X85899447Y-45497801D01*
X85929500Y-45308055D01*
X85929500Y-45115945D01*
X85901754Y-44940765D01*
X85910709Y-44871473D01*
X85936543Y-44833690D01*
X86870689Y-43899544D01*
X86932010Y-43866061D01*
X86977764Y-43864754D01*
X87152945Y-43892500D01*
X87152946Y-43892500D01*
X87345054Y-43892500D01*
X87345055Y-43892500D01*
X87534801Y-43862447D01*
X87717509Y-43803082D01*
X87888681Y-43715865D01*
X88044102Y-43602945D01*
X88179945Y-43467102D01*
X88292865Y-43311681D01*
X88380082Y-43140509D01*
X88439447Y-42957801D01*
X88469500Y-42768055D01*
X88469500Y-42575945D01*
X88441754Y-42400765D01*
X88442455Y-42395340D01*
X88440543Y-42390213D01*
X88446884Y-42361065D01*
X88450708Y-42331474D01*
X88454541Y-42325867D01*
X88455396Y-42321941D01*
X88476547Y-42293687D01*
X88551318Y-42218918D01*
X88612642Y-42185433D01*
X88638998Y-42182600D01*
X89630399Y-42182600D01*
X89697438Y-42202285D01*
X89743193Y-42255089D01*
X89748105Y-42267596D01*
X89775885Y-42351431D01*
X89775889Y-42351440D01*
X89864084Y-42494428D01*
X89882524Y-42561820D01*
X89861601Y-42628484D01*
X89846228Y-42647204D01*
X89822988Y-42670444D01*
X89730887Y-42819763D01*
X89730885Y-42819768D01*
X89709553Y-42884145D01*
X89675701Y-42986303D01*
X89675701Y-42986304D01*
X89675700Y-42986304D01*
X89665200Y-43089083D01*
X89665200Y-44139101D01*
X89665201Y-44139119D01*
X89675700Y-44241896D01*
X89675701Y-44241899D01*
X89730885Y-44408431D01*
X89730887Y-44408436D01*
X89822989Y-44557757D01*
X89846226Y-44580994D01*
X89879711Y-44642317D01*
X89874727Y-44712009D01*
X89864084Y-44733771D01*
X89775890Y-44876759D01*
X89775885Y-44876768D01*
X89760728Y-44922509D01*
X89720701Y-45043303D01*
X89720701Y-45043304D01*
X89720700Y-45043304D01*
X89710200Y-45146083D01*
X89710200Y-46146101D01*
X89710201Y-46146109D01*
X89720700Y-46248896D01*
X89720701Y-46248899D01*
X89775885Y-46415431D01*
X89775887Y-46415436D01*
X89867989Y-46564757D01*
X89962509Y-46659277D01*
X89995994Y-46720600D01*
X89991010Y-46790292D01*
X89949138Y-46846225D01*
X89939926Y-46852496D01*
X89844797Y-46911173D01*
X89721774Y-47034196D01*
X89721771Y-47034200D01*
X89630442Y-47182266D01*
X89630437Y-47182277D01*
X89575713Y-47347423D01*
X89565300Y-47449344D01*
X89565300Y-48461055D01*
X89575713Y-48562976D01*
X89630437Y-48728122D01*
X89630442Y-48728133D01*
X89721771Y-48876199D01*
X89721774Y-48876203D01*
X89844796Y-48999225D01*
X89844800Y-48999228D01*
X89992866Y-49090557D01*
X89992869Y-49090558D01*
X89992875Y-49090562D01*
X90158025Y-49145287D01*
X90259952Y-49155700D01*
X90259957Y-49155700D01*
X90846643Y-49155700D01*
X90846648Y-49155700D01*
X90948575Y-49145287D01*
X91113725Y-49090562D01*
X91261803Y-48999226D01*
X91384826Y-48876203D01*
X91385555Y-48875021D01*
X91386266Y-48874381D01*
X91389307Y-48870536D01*
X91389963Y-48871055D01*
X91437501Y-48828297D01*
X91506464Y-48817073D01*
X91570546Y-48844915D01*
X91592561Y-48870323D01*
X91592688Y-48870223D01*
X91594913Y-48873038D01*
X91596633Y-48875022D01*
X91597165Y-48875885D01*
X91597169Y-48875890D01*
X91720108Y-48998829D01*
X91868085Y-49090103D01*
X91868090Y-49090105D01*
X92033126Y-49144792D01*
X92134984Y-49155199D01*
X92134997Y-49155200D01*
X92178300Y-49155200D01*
X92678300Y-49155200D01*
X92721603Y-49155200D01*
X92721615Y-49155199D01*
X92823473Y-49144792D01*
X92988509Y-49090105D01*
X92988514Y-49090103D01*
X93136491Y-48998829D01*
X93259429Y-48875891D01*
X93350703Y-48727914D01*
X93350705Y-48727909D01*
X93405392Y-48562873D01*
X93415799Y-48461015D01*
X93415800Y-48461002D01*
X93415800Y-48205200D01*
X92678300Y-48205200D01*
X92678300Y-49155200D01*
X92178300Y-49155200D01*
X92178300Y-48079200D01*
X92197985Y-48012161D01*
X92250789Y-47966406D01*
X92302300Y-47955200D01*
X92428300Y-47955200D01*
X92428300Y-47829200D01*
X92447985Y-47762161D01*
X92500789Y-47716406D01*
X92552300Y-47705200D01*
X93415800Y-47705200D01*
X93415800Y-47449397D01*
X93415799Y-47449384D01*
X93405392Y-47347526D01*
X93350705Y-47182490D01*
X93350703Y-47182485D01*
X93259429Y-47034508D01*
X93164107Y-46939186D01*
X93130622Y-46877863D01*
X93135606Y-46808171D01*
X93177478Y-46752238D01*
X93186682Y-46745973D01*
X93279356Y-46688812D01*
X93403412Y-46564756D01*
X93495514Y-46415434D01*
X93550699Y-46248897D01*
X93561200Y-46146109D01*
X93561199Y-45146092D01*
X93558119Y-45115945D01*
X93550699Y-45043303D01*
X93550698Y-45043300D01*
X93537513Y-45003511D01*
X93495514Y-44876766D01*
X93403412Y-44727444D01*
X93403409Y-44727441D01*
X93398934Y-44721781D01*
X93401481Y-44719766D01*
X93374910Y-44671104D01*
X93379894Y-44601412D01*
X93404184Y-44563624D01*
X93403536Y-44563112D01*
X93408013Y-44557449D01*
X93500056Y-44408224D01*
X93500058Y-44408219D01*
X93555205Y-44241797D01*
X93555206Y-44241790D01*
X93565699Y-44139086D01*
X93565700Y-44139073D01*
X93565700Y-43864100D01*
X92689700Y-43864100D01*
X92622661Y-43844415D01*
X92576906Y-43791611D01*
X92565700Y-43740100D01*
X92565700Y-43614100D01*
X92439700Y-43614100D01*
X92372661Y-43594415D01*
X92326906Y-43541611D01*
X92315700Y-43490100D01*
X92315700Y-42896454D01*
X92301034Y-42869596D01*
X92298200Y-42843238D01*
X92298200Y-42274745D01*
X92798200Y-42274745D01*
X92812866Y-42301604D01*
X92815700Y-42327962D01*
X92815700Y-43364100D01*
X93565699Y-43364100D01*
X93565699Y-43089128D01*
X93565698Y-43089113D01*
X93555205Y-42986402D01*
X93500058Y-42819980D01*
X93500056Y-42819975D01*
X93408015Y-42670753D01*
X93403539Y-42665093D01*
X93404514Y-42664321D01*
X93374557Y-42609458D01*
X93379541Y-42539766D01*
X93400285Y-42507487D01*
X93398539Y-42506107D01*
X93403015Y-42500446D01*
X93495056Y-42351224D01*
X93495058Y-42351219D01*
X93550205Y-42184797D01*
X93550206Y-42184790D01*
X93560699Y-42082086D01*
X93560700Y-42082073D01*
X93560700Y-41832100D01*
X92798200Y-41832100D01*
X92798200Y-42274745D01*
X92298200Y-42274745D01*
X92298200Y-41706100D01*
X92317885Y-41639061D01*
X92370689Y-41593306D01*
X92422200Y-41582100D01*
X92548200Y-41582100D01*
X92548200Y-41456100D01*
X92567885Y-41389061D01*
X92620689Y-41343306D01*
X92672200Y-41332100D01*
X93560699Y-41332100D01*
X93560699Y-41082128D01*
X93560698Y-41082113D01*
X93557101Y-41046902D01*
X93559902Y-41031828D01*
X93557721Y-41016653D01*
X93566157Y-40998178D01*
X93569870Y-40978209D01*
X93580377Y-40967042D01*
X93586746Y-40953097D01*
X93603832Y-40942116D01*
X93617751Y-40927325D01*
X93633502Y-40923048D01*
X93645524Y-40915323D01*
X93680459Y-40910300D01*
X93863357Y-40910300D01*
X93930396Y-40929985D01*
X93976151Y-40982789D01*
X93986095Y-41051947D01*
X93983929Y-41063257D01*
X93983551Y-41064828D01*
X93950300Y-41274770D01*
X93950300Y-41487343D01*
X93971973Y-41624185D01*
X93983554Y-41697300D01*
X94041909Y-41876898D01*
X94049244Y-41899471D01*
X94145751Y-42088877D01*
X94270690Y-42260843D01*
X94421013Y-42411166D01*
X94592979Y-42536105D01*
X94592981Y-42536106D01*
X94592984Y-42536108D01*
X94782388Y-42632614D01*
X94984557Y-42698303D01*
X95194513Y-42731557D01*
X95194514Y-42731557D01*
X95407086Y-42731557D01*
X95407087Y-42731557D01*
X95617043Y-42698303D01*
X95819212Y-42632614D01*
X96008616Y-42536108D01*
X96080716Y-42483725D01*
X96180586Y-42411166D01*
X96180588Y-42411163D01*
X96180592Y-42411161D01*
X96330904Y-42260849D01*
X96330906Y-42260845D01*
X96330909Y-42260843D01*
X96455848Y-42088877D01*
X96455849Y-42088876D01*
X96455851Y-42088873D01*
X96552357Y-41899469D01*
X96618046Y-41697300D01*
X96651300Y-41487344D01*
X96651300Y-41274770D01*
X96618046Y-41064814D01*
X96552357Y-40862645D01*
X96455851Y-40673241D01*
X96455849Y-40673238D01*
X96455848Y-40673236D01*
X96330909Y-40501270D01*
X96180586Y-40350947D01*
X96008620Y-40226008D01*
X95819214Y-40129501D01*
X95819213Y-40129500D01*
X95819212Y-40129500D01*
X95617043Y-40063811D01*
X95617041Y-40063810D01*
X95617040Y-40063810D01*
X95452066Y-40037681D01*
X95407087Y-40030557D01*
X95194513Y-40030557D01*
X95194508Y-40030557D01*
X95117134Y-40042812D01*
X95111708Y-40042110D01*
X95106582Y-40044023D01*
X95077431Y-40037681D01*
X95047841Y-40033858D01*
X95042235Y-40030025D01*
X95038309Y-40029171D01*
X95010055Y-40008020D01*
X94950190Y-39948155D01*
X94950188Y-39948152D01*
X94831317Y-39829281D01*
X94831309Y-39829275D01*
X94714221Y-39761675D01*
X94714220Y-39761674D01*
X94700278Y-39753625D01*
X94694385Y-39750223D01*
X94541657Y-39709299D01*
X94383543Y-39709299D01*
X94375947Y-39709299D01*
X94375931Y-39709300D01*
X92082169Y-39709300D01*
X92082153Y-39709299D01*
X92074557Y-39709299D01*
X91916443Y-39709299D01*
X91763715Y-39750223D01*
X91763713Y-39750224D01*
X91743878Y-39761674D01*
X91743879Y-39761675D01*
X91626787Y-39829277D01*
X91626782Y-39829281D01*
X91514978Y-39941086D01*
X91110782Y-40345281D01*
X91049459Y-40378766D01*
X91023101Y-40381600D01*
X90410698Y-40381600D01*
X90410680Y-40381601D01*
X90307903Y-40392100D01*
X90307900Y-40392101D01*
X90141368Y-40447285D01*
X90141363Y-40447287D01*
X89992042Y-40539389D01*
X89867989Y-40663442D01*
X89775887Y-40812763D01*
X89775885Y-40812768D01*
X89748105Y-40896604D01*
X89708332Y-40954049D01*
X89643816Y-40980872D01*
X89630399Y-40981600D01*
X88259840Y-40981600D01*
X88218919Y-40992564D01*
X88218919Y-40992565D01*
X88181651Y-41002551D01*
X88107114Y-41022523D01*
X88107109Y-41022526D01*
X87970190Y-41101575D01*
X87970182Y-41101581D01*
X87858378Y-41213386D01*
X87627310Y-41444453D01*
X87565987Y-41477938D01*
X87520231Y-41479245D01*
X87374098Y-41456100D01*
X87345055Y-41451500D01*
X87152945Y-41451500D01*
X87123902Y-41456100D01*
X86963197Y-41481553D01*
X86780493Y-41540916D01*
X86609318Y-41628135D01*
X86520645Y-41692560D01*
X86453898Y-41741055D01*
X86453896Y-41741057D01*
X86453895Y-41741057D01*
X86318057Y-41876895D01*
X86318057Y-41876896D01*
X86318055Y-41876898D01*
X86281754Y-41926862D01*
X86205135Y-42032318D01*
X86117916Y-42203493D01*
X86058553Y-42386197D01*
X86028500Y-42575945D01*
X86028500Y-42768054D01*
X86056245Y-42943231D01*
X86047290Y-43012525D01*
X86021453Y-43050310D01*
X85087310Y-43984453D01*
X85025987Y-44017938D01*
X84980231Y-44019245D01*
X84862520Y-44000601D01*
X84805055Y-43991500D01*
X84612945Y-43991500D01*
X84437766Y-44019245D01*
X84368473Y-44010290D01*
X84330688Y-43984453D01*
X83396546Y-43050311D01*
X83363061Y-42988988D01*
X83361754Y-42943234D01*
X83389500Y-42768055D01*
X83389500Y-42575945D01*
X83359447Y-42386199D01*
X83300082Y-42203491D01*
X83212865Y-42032319D01*
X83099945Y-41876898D01*
X82964102Y-41741055D01*
X82808681Y-41628135D01*
X82683644Y-41564425D01*
X82637506Y-41540916D01*
X82454802Y-41481553D01*
X82359928Y-41466526D01*
X82265055Y-41451500D01*
X82072945Y-41451500D01*
X81897766Y-41479245D01*
X81828473Y-41470290D01*
X81790688Y-41444453D01*
X80988590Y-40642355D01*
X80988588Y-40642352D01*
X80869717Y-40523481D01*
X80869716Y-40523480D01*
X80782904Y-40473360D01*
X80782904Y-40473359D01*
X80782900Y-40473358D01*
X80732785Y-40444423D01*
X80580057Y-40403499D01*
X80421943Y-40403499D01*
X80414347Y-40403499D01*
X80414331Y-40403500D01*
X78059850Y-40403500D01*
X77992811Y-40383815D01*
X77954312Y-40344597D01*
X77924028Y-40295500D01*
X77924025Y-40295496D01*
X77801003Y-40172474D01*
X77800999Y-40172471D01*
X77652933Y-40081142D01*
X77652927Y-40081139D01*
X77652925Y-40081138D01*
X77624265Y-40071641D01*
X77487776Y-40026413D01*
X77385855Y-40016000D01*
X77385848Y-40016000D01*
X76374152Y-40016000D01*
X76374144Y-40016000D01*
X76272223Y-40026413D01*
X76107077Y-40081137D01*
X76107066Y-40081142D01*
X75959000Y-40172471D01*
X75958996Y-40172474D01*
X75918245Y-40213225D01*
X75856922Y-40246709D01*
X75787230Y-40241724D01*
X75742884Y-40213224D01*
X75693344Y-40163684D01*
X75544122Y-40071643D01*
X75544117Y-40071641D01*
X75377695Y-40016494D01*
X75377688Y-40016493D01*
X75274984Y-40006000D01*
X70325000Y-40006000D01*
X70325000Y-50405999D01*
X75274970Y-50405999D01*
X75274984Y-50405998D01*
X75377697Y-50395505D01*
X75472062Y-50364235D01*
X75541890Y-50361832D01*
X75601932Y-50397563D01*
X75633125Y-50460083D01*
X75634906Y-50475623D01*
X75635000Y-50477473D01*
X75645494Y-50580197D01*
X75700641Y-50746619D01*
X75700643Y-50746624D01*
X75792684Y-50895845D01*
X75916654Y-51019815D01*
X76065875Y-51111856D01*
X76065880Y-51111858D01*
X76232302Y-51167005D01*
X76232309Y-51167006D01*
X76335019Y-51177499D01*
X76584999Y-51177499D01*
X76585000Y-51177498D01*
X76585000Y-50289000D01*
X76604685Y-50221961D01*
X76657489Y-50176206D01*
X76709000Y-50165000D01*
X76961000Y-50165000D01*
X77028039Y-50184685D01*
X77073794Y-50237489D01*
X77085000Y-50289000D01*
X77085000Y-51177499D01*
X77334972Y-51177499D01*
X77334986Y-51177498D01*
X77437697Y-51167005D01*
X77604119Y-51111858D01*
X77604124Y-51111856D01*
X77753345Y-51019815D01*
X77877315Y-50895845D01*
X77967961Y-50748886D01*
X78019909Y-50702162D01*
X78088872Y-50690939D01*
X78152954Y-50718783D01*
X78191810Y-50776852D01*
X78197500Y-50813983D01*
X78197500Y-52895000D01*
X78177815Y-52962039D01*
X78125011Y-53007794D01*
X78073500Y-53019000D01*
X77847000Y-53019000D01*
X77847000Y-54645000D01*
X77827315Y-54712039D01*
X77774511Y-54757794D01*
X77723000Y-54769000D01*
X77597000Y-54769000D01*
X77597000Y-54895000D01*
X77577315Y-54962039D01*
X77524511Y-55007794D01*
X77473000Y-55019000D01*
X76197001Y-55019000D01*
X76197001Y-55818986D01*
X76207494Y-55921697D01*
X76262641Y-56088119D01*
X76262645Y-56088128D01*
X76311543Y-56167404D01*
X76329983Y-56234796D01*
X76309060Y-56301460D01*
X76255418Y-56346229D01*
X76206004Y-56356500D01*
X74649000Y-56356500D01*
X74581961Y-56336815D01*
X74536206Y-56284011D01*
X74525000Y-56232500D01*
X74525000Y-54606000D01*
X73599000Y-54606000D01*
X73531961Y-54586315D01*
X73486206Y-54533511D01*
X73475000Y-54482000D01*
X73475000Y-54356000D01*
X73349000Y-54356000D01*
X73281961Y-54336315D01*
X73236206Y-54283511D01*
X73225000Y-54232000D01*
X73225000Y-54106000D01*
X73725000Y-54106000D01*
X74524999Y-54106000D01*
X74524999Y-53719013D01*
X76197000Y-53719013D01*
X76197000Y-54519000D01*
X77347000Y-54519000D01*
X77347000Y-53019000D01*
X76897028Y-53019000D01*
X76897012Y-53019001D01*
X76794302Y-53029494D01*
X76627880Y-53084641D01*
X76627875Y-53084643D01*
X76478654Y-53176684D01*
X76354684Y-53300654D01*
X76262643Y-53449875D01*
X76262641Y-53449880D01*
X76207494Y-53616302D01*
X76207493Y-53616309D01*
X76197000Y-53719013D01*
X74524999Y-53719013D01*
X74524999Y-52256028D01*
X74524998Y-52256013D01*
X74514505Y-52153302D01*
X74459358Y-51986880D01*
X74459356Y-51986875D01*
X74367315Y-51837654D01*
X74243345Y-51713684D01*
X74094124Y-51621643D01*
X74094119Y-51621641D01*
X73927697Y-51566494D01*
X73927690Y-51566493D01*
X73824986Y-51556000D01*
X73725000Y-51556000D01*
X73725000Y-54106000D01*
X73225000Y-54106000D01*
X73225000Y-51555999D01*
X73125028Y-51556000D01*
X73125012Y-51556001D01*
X73022302Y-51566494D01*
X72855880Y-51621641D01*
X72855875Y-51621643D01*
X72706649Y-51713687D01*
X72702305Y-51717122D01*
X72637507Y-51743255D01*
X72568866Y-51730207D01*
X72548497Y-51717116D01*
X72543660Y-51713292D01*
X72543656Y-51713288D01*
X72394334Y-51621186D01*
X72227797Y-51566001D01*
X72227795Y-51566000D01*
X72125010Y-51555500D01*
X71424998Y-51555500D01*
X71424980Y-51555501D01*
X71322203Y-51566000D01*
X71322200Y-51566001D01*
X71155668Y-51621185D01*
X71155663Y-51621187D01*
X71051157Y-51685646D01*
X71006344Y-51713288D01*
X71006343Y-51713288D01*
X71006330Y-51713297D01*
X71001487Y-51717126D01*
X70936687Y-51743256D01*
X70868047Y-51730204D01*
X70847683Y-51717114D01*
X70843346Y-51713684D01*
X70694124Y-51621643D01*
X70694119Y-51621641D01*
X70527697Y-51566494D01*
X70527690Y-51566493D01*
X70424986Y-51556000D01*
X70325000Y-51556000D01*
X70325000Y-54232000D01*
X70305315Y-54299039D01*
X70252511Y-54344794D01*
X70201000Y-54356000D01*
X69949000Y-54356000D01*
X69881961Y-54336315D01*
X69836206Y-54283511D01*
X69825000Y-54232000D01*
X69825000Y-51555999D01*
X69725028Y-51556000D01*
X69725012Y-51556001D01*
X69622302Y-51566494D01*
X69455880Y-51621641D01*
X69455875Y-51621643D01*
X69306649Y-51713687D01*
X69302305Y-51717122D01*
X69237507Y-51743255D01*
X69168866Y-51730207D01*
X69148497Y-51717116D01*
X69143660Y-51713292D01*
X69143656Y-51713288D01*
X68994334Y-51621186D01*
X68827797Y-51566001D01*
X68827795Y-51566000D01*
X68725010Y-51555500D01*
X68024998Y-51555500D01*
X68024980Y-51555501D01*
X67922203Y-51566000D01*
X67922200Y-51566001D01*
X67755668Y-51621185D01*
X67755663Y-51621187D01*
X67606342Y-51713289D01*
X67601909Y-51716795D01*
X67537113Y-51742934D01*
X67468471Y-51729892D01*
X67448091Y-51716795D01*
X67443657Y-51713289D01*
X67443656Y-51713288D01*
X67294334Y-51621186D01*
X67127797Y-51566001D01*
X67127795Y-51566000D01*
X67025010Y-51555500D01*
X66324998Y-51555500D01*
X66324980Y-51555501D01*
X66222203Y-51566000D01*
X66222200Y-51566001D01*
X66055668Y-51621185D01*
X66055663Y-51621187D01*
X65906342Y-51713289D01*
X65782289Y-51837342D01*
X65690187Y-51986663D01*
X65690185Y-51986668D01*
X65668320Y-52052654D01*
X65635001Y-52153203D01*
X65635001Y-52153204D01*
X65635000Y-52153204D01*
X65624500Y-52255983D01*
X65624500Y-53946500D01*
X65604815Y-54013539D01*
X65552011Y-54059294D01*
X65500500Y-54070500D01*
X64455798Y-54070500D01*
X64388759Y-54050815D01*
X64350259Y-54011597D01*
X64313712Y-53952344D01*
X64189656Y-53828288D01*
X64186342Y-53826243D01*
X64184546Y-53824248D01*
X64183989Y-53823807D01*
X64184064Y-53823711D01*
X64139618Y-53774297D01*
X64128397Y-53705334D01*
X64156240Y-53641252D01*
X64186348Y-53615165D01*
X64189342Y-53613318D01*
X64313315Y-53489345D01*
X64405356Y-53340124D01*
X64405358Y-53340119D01*
X64460505Y-53173697D01*
X64460506Y-53173690D01*
X64470999Y-53070986D01*
X64471000Y-53070973D01*
X64471000Y-53021000D01*
X63370000Y-53021000D01*
X63302961Y-53001315D01*
X63257206Y-52948511D01*
X63246000Y-52897000D01*
X63246000Y-52645000D01*
X63265685Y-52577961D01*
X63318489Y-52532206D01*
X63370000Y-52521000D01*
X64470999Y-52521000D01*
X64470999Y-52471028D01*
X64470998Y-52471013D01*
X64460505Y-52368302D01*
X64405358Y-52201880D01*
X64405356Y-52201875D01*
X64313315Y-52052654D01*
X64228195Y-51967534D01*
X64194710Y-51906211D01*
X64199694Y-51836519D01*
X64228191Y-51792176D01*
X64313712Y-51706656D01*
X64405814Y-51557334D01*
X64460999Y-51390797D01*
X64471500Y-51288009D01*
X64471499Y-50687992D01*
X64470418Y-50677414D01*
X64460999Y-50585203D01*
X64449909Y-50551735D01*
X64428964Y-50488530D01*
X64426563Y-50418704D01*
X64462294Y-50358662D01*
X64524815Y-50327469D01*
X64594274Y-50335029D01*
X64599212Y-50337560D01*
X64599332Y-50337304D01*
X64605882Y-50340358D01*
X64772304Y-50395505D01*
X64772311Y-50395506D01*
X64875022Y-50405999D01*
X69825000Y-50405999D01*
X69825000Y-45456000D01*
X64169000Y-45456000D01*
X64101961Y-45436315D01*
X64056206Y-45383511D01*
X64045000Y-45332000D01*
X64045000Y-45326000D01*
X63243000Y-45326000D01*
X63175961Y-45306315D01*
X63130206Y-45253511D01*
X63119000Y-45202000D01*
X63119000Y-45076000D01*
X62993000Y-45076000D01*
X62925961Y-45056315D01*
X62880206Y-45003511D01*
X62869000Y-44952000D01*
X62869000Y-44001000D01*
X63369000Y-44001000D01*
X63369000Y-44826000D01*
X64325000Y-44826000D01*
X64392039Y-44845685D01*
X64437794Y-44898489D01*
X64449000Y-44950000D01*
X64449000Y-44956000D01*
X69825000Y-44956000D01*
X69825000Y-40006000D01*
X64875030Y-40006000D01*
X64875014Y-40006001D01*
X64772304Y-40016494D01*
X64605882Y-40071641D01*
X64605877Y-40071643D01*
X64456655Y-40163684D01*
X64332684Y-40287655D01*
X64240643Y-40436877D01*
X64240641Y-40436882D01*
X64185494Y-40603304D01*
X64185493Y-40603311D01*
X64175000Y-40706015D01*
X64175000Y-44021415D01*
X64155315Y-44088454D01*
X64102511Y-44134209D01*
X64033353Y-44144153D01*
X63985903Y-44126954D01*
X63888124Y-44066643D01*
X63888119Y-44066641D01*
X63721697Y-44011494D01*
X63721690Y-44011493D01*
X63618986Y-44001000D01*
X63369000Y-44001000D01*
X62869000Y-44001000D01*
X62619029Y-44001000D01*
X62619012Y-44001001D01*
X62516302Y-44011494D01*
X62397504Y-44050860D01*
X62327675Y-44053262D01*
X62267634Y-44017530D01*
X62236441Y-43955009D01*
X62234500Y-43933154D01*
X62234500Y-43263297D01*
X62254185Y-43196258D01*
X62270819Y-43175616D01*
X62488634Y-42957801D01*
X62709837Y-42736597D01*
X62771158Y-42703114D01*
X62778090Y-42701811D01*
X62800243Y-42698303D01*
X63002412Y-42632614D01*
X63191816Y-42536108D01*
X63263916Y-42483725D01*
X63363786Y-42411166D01*
X63363788Y-42411163D01*
X63363792Y-42411161D01*
X63514104Y-42260849D01*
X63514106Y-42260845D01*
X63514109Y-42260843D01*
X63639048Y-42088877D01*
X63639049Y-42088876D01*
X63639051Y-42088873D01*
X63735557Y-41899469D01*
X63801246Y-41697300D01*
X63834500Y-41487344D01*
X63834500Y-41274770D01*
X63801246Y-41064814D01*
X63735557Y-40862645D01*
X63639051Y-40673241D01*
X63639049Y-40673238D01*
X63639048Y-40673236D01*
X63514109Y-40501270D01*
X63363786Y-40350947D01*
X63191820Y-40226008D01*
X63002414Y-40129501D01*
X63002413Y-40129500D01*
X63002412Y-40129500D01*
X62800243Y-40063811D01*
X62800241Y-40063810D01*
X62800240Y-40063810D01*
X62635266Y-40037681D01*
X62590287Y-40030557D01*
X62377713Y-40030557D01*
X62332734Y-40037681D01*
X62167760Y-40063810D01*
X61965585Y-40129501D01*
X61776179Y-40226008D01*
X61604213Y-40350947D01*
X61453890Y-40501270D01*
X61328951Y-40673236D01*
X61232444Y-40862642D01*
X61166753Y-41064817D01*
X61133500Y-41274770D01*
X61133500Y-41487343D01*
X61155173Y-41624185D01*
X61166754Y-41697300D01*
X61232443Y-41899469D01*
X61325484Y-42082073D01*
X61328951Y-42088876D01*
X61405624Y-42194409D01*
X61417069Y-42226488D01*
X61428990Y-42258447D01*
X61428794Y-42259347D01*
X61429104Y-42260216D01*
X61421386Y-42293402D01*
X61414139Y-42326720D01*
X61413412Y-42327690D01*
X61413278Y-42328269D01*
X61392988Y-42354975D01*
X61357976Y-42389986D01*
X61265286Y-42482678D01*
X61265285Y-42482678D01*
X61265284Y-42482679D01*
X61153481Y-42594482D01*
X61153480Y-42594484D01*
X61112715Y-42665093D01*
X61109626Y-42670443D01*
X61109624Y-42670445D01*
X61074425Y-42731409D01*
X61074423Y-42731412D01*
X61050693Y-42819975D01*
X61033499Y-42884143D01*
X61033499Y-43042257D01*
X61033499Y-43042259D01*
X61033500Y-43052253D01*
X61033500Y-45554330D01*
X61033499Y-45554348D01*
X61033499Y-45720054D01*
X61033498Y-45720054D01*
X59251447Y-45720054D01*
X59225417Y-39094024D01*
X59227281Y-39072116D01*
X59230134Y-39055855D01*
X59237378Y-39014560D01*
X59247243Y-38983345D01*
X59270958Y-38932780D01*
X59288651Y-38905237D01*
X59324768Y-38862653D01*
X59349061Y-38840696D01*
X59357314Y-38835018D01*
X59395065Y-38809052D01*
X59424259Y-38794220D01*
X59476943Y-38775723D01*
X59508997Y-38769050D01*
X59565108Y-38764958D01*
X59574484Y-38764632D01*
X59591749Y-38764685D01*
G37*
%TD.AperFunction*%
%TD*%
M02*
