%TF.GenerationSoftware,KiCad,Pcbnew,9.0.6*%
%TF.CreationDate,2026-04-08T11:19:13+05:30*%
%TF.ProjectId,buck_converter,6275636b-5f63-46f6-9e76-65727465722e,rev?*%
%TF.SameCoordinates,Original*%
%TF.FileFunction,Legend,Top*%
%TF.FilePolarity,Positive*%
%FSLAX46Y46*%
G04 Gerber Fmt 4.6, Leading zero omitted, Abs format (unit mm)*
G04 Created by KiCad (PCBNEW 9.0.6) date 2026-04-08 11:19:13*
%MOMM*%
%LPD*%
G01*
G04 APERTURE LIST*
%ADD10C,0.100000*%
%ADD11C,0.150000*%
%ADD12C,0.120000*%
G04 APERTURE END LIST*
D10*
X59742304Y-40388265D02*
X60542304Y-40388265D01*
X59742304Y-40769217D02*
X60542304Y-40769217D01*
X60542304Y-40769217D02*
X59742304Y-41226360D01*
X59742304Y-41226360D02*
X60542304Y-41226360D01*
X60047066Y-41607312D02*
X60047066Y-42216836D01*
X59742304Y-41912074D02*
X60351828Y-41912074D01*
X97598095Y-59789353D02*
X97598095Y-59636972D01*
X97598095Y-59636972D02*
X97636190Y-59560782D01*
X97636190Y-59560782D02*
X97712380Y-59484591D01*
X97712380Y-59484591D02*
X97864761Y-59446496D01*
X97864761Y-59446496D02*
X98131428Y-59446496D01*
X98131428Y-59446496D02*
X98283809Y-59484591D01*
X98283809Y-59484591D02*
X98360000Y-59560782D01*
X98360000Y-59560782D02*
X98398095Y-59636972D01*
X98398095Y-59636972D02*
X98398095Y-59789353D01*
X98398095Y-59789353D02*
X98360000Y-59865544D01*
X98360000Y-59865544D02*
X98283809Y-59941734D01*
X98283809Y-59941734D02*
X98131428Y-59979830D01*
X98131428Y-59979830D02*
X97864761Y-59979830D01*
X97864761Y-59979830D02*
X97712380Y-59941734D01*
X97712380Y-59941734D02*
X97636190Y-59865544D01*
X97636190Y-59865544D02*
X97598095Y-59789353D01*
X97598095Y-59103639D02*
X98245714Y-59103639D01*
X98245714Y-59103639D02*
X98321904Y-59065544D01*
X98321904Y-59065544D02*
X98360000Y-59027449D01*
X98360000Y-59027449D02*
X98398095Y-58951258D01*
X98398095Y-58951258D02*
X98398095Y-58798877D01*
X98398095Y-58798877D02*
X98360000Y-58722687D01*
X98360000Y-58722687D02*
X98321904Y-58684592D01*
X98321904Y-58684592D02*
X98245714Y-58646496D01*
X98245714Y-58646496D02*
X97598095Y-58646496D01*
X97598095Y-58379830D02*
X97598095Y-57922687D01*
X98398095Y-58151259D02*
X97598095Y-58151259D01*
X98093333Y-57656020D02*
X98093333Y-57046497D01*
X97394895Y-42466553D02*
X97394895Y-42314172D01*
X97394895Y-42314172D02*
X97432990Y-42237982D01*
X97432990Y-42237982D02*
X97509180Y-42161791D01*
X97509180Y-42161791D02*
X97661561Y-42123696D01*
X97661561Y-42123696D02*
X97928228Y-42123696D01*
X97928228Y-42123696D02*
X98080609Y-42161791D01*
X98080609Y-42161791D02*
X98156800Y-42237982D01*
X98156800Y-42237982D02*
X98194895Y-42314172D01*
X98194895Y-42314172D02*
X98194895Y-42466553D01*
X98194895Y-42466553D02*
X98156800Y-42542744D01*
X98156800Y-42542744D02*
X98080609Y-42618934D01*
X98080609Y-42618934D02*
X97928228Y-42657030D01*
X97928228Y-42657030D02*
X97661561Y-42657030D01*
X97661561Y-42657030D02*
X97509180Y-42618934D01*
X97509180Y-42618934D02*
X97432990Y-42542744D01*
X97432990Y-42542744D02*
X97394895Y-42466553D01*
X97394895Y-41780839D02*
X98042514Y-41780839D01*
X98042514Y-41780839D02*
X98118704Y-41742744D01*
X98118704Y-41742744D02*
X98156800Y-41704649D01*
X98156800Y-41704649D02*
X98194895Y-41628458D01*
X98194895Y-41628458D02*
X98194895Y-41476077D01*
X98194895Y-41476077D02*
X98156800Y-41399887D01*
X98156800Y-41399887D02*
X98118704Y-41361792D01*
X98118704Y-41361792D02*
X98042514Y-41323696D01*
X98042514Y-41323696D02*
X97394895Y-41323696D01*
X97394895Y-41057030D02*
X97394895Y-40599887D01*
X98194895Y-40828459D02*
X97394895Y-40828459D01*
X97890133Y-40333220D02*
X97890133Y-39723697D01*
X98194895Y-40028458D02*
X97585371Y-40028458D01*
X59742304Y-57711065D02*
X60542304Y-57711065D01*
X59742304Y-58092017D02*
X60542304Y-58092017D01*
X60542304Y-58092017D02*
X59742304Y-58549160D01*
X59742304Y-58549160D02*
X60542304Y-58549160D01*
X60047066Y-58930112D02*
X60047066Y-59539636D01*
D11*
X61925580Y-53887666D02*
X61973200Y-53935285D01*
X61973200Y-53935285D02*
X62020819Y-54078142D01*
X62020819Y-54078142D02*
X62020819Y-54173380D01*
X62020819Y-54173380D02*
X61973200Y-54316237D01*
X61973200Y-54316237D02*
X61877961Y-54411475D01*
X61877961Y-54411475D02*
X61782723Y-54459094D01*
X61782723Y-54459094D02*
X61592247Y-54506713D01*
X61592247Y-54506713D02*
X61449390Y-54506713D01*
X61449390Y-54506713D02*
X61258914Y-54459094D01*
X61258914Y-54459094D02*
X61163676Y-54411475D01*
X61163676Y-54411475D02*
X61068438Y-54316237D01*
X61068438Y-54316237D02*
X61020819Y-54173380D01*
X61020819Y-54173380D02*
X61020819Y-54078142D01*
X61020819Y-54078142D02*
X61068438Y-53935285D01*
X61068438Y-53935285D02*
X61116057Y-53887666D01*
X61020819Y-53554332D02*
X61020819Y-52935285D01*
X61020819Y-52935285D02*
X61401771Y-53268618D01*
X61401771Y-53268618D02*
X61401771Y-53125761D01*
X61401771Y-53125761D02*
X61449390Y-53030523D01*
X61449390Y-53030523D02*
X61497009Y-52982904D01*
X61497009Y-52982904D02*
X61592247Y-52935285D01*
X61592247Y-52935285D02*
X61830342Y-52935285D01*
X61830342Y-52935285D02*
X61925580Y-52982904D01*
X61925580Y-52982904D02*
X61973200Y-53030523D01*
X61973200Y-53030523D02*
X62020819Y-53125761D01*
X62020819Y-53125761D02*
X62020819Y-53411475D01*
X62020819Y-53411475D02*
X61973200Y-53506713D01*
X61973200Y-53506713D02*
X61925580Y-53554332D01*
X75486419Y-58751694D02*
X74486419Y-58751694D01*
X74486419Y-58751694D02*
X74486419Y-58513599D01*
X74486419Y-58513599D02*
X74534038Y-58370742D01*
X74534038Y-58370742D02*
X74629276Y-58275504D01*
X74629276Y-58275504D02*
X74724514Y-58227885D01*
X74724514Y-58227885D02*
X74914990Y-58180266D01*
X74914990Y-58180266D02*
X75057847Y-58180266D01*
X75057847Y-58180266D02*
X75248323Y-58227885D01*
X75248323Y-58227885D02*
X75343561Y-58275504D01*
X75343561Y-58275504D02*
X75438800Y-58370742D01*
X75438800Y-58370742D02*
X75486419Y-58513599D01*
X75486419Y-58513599D02*
X75486419Y-58751694D01*
X74581657Y-57799313D02*
X74534038Y-57751694D01*
X74534038Y-57751694D02*
X74486419Y-57656456D01*
X74486419Y-57656456D02*
X74486419Y-57418361D01*
X74486419Y-57418361D02*
X74534038Y-57323123D01*
X74534038Y-57323123D02*
X74581657Y-57275504D01*
X74581657Y-57275504D02*
X74676895Y-57227885D01*
X74676895Y-57227885D02*
X74772133Y-57227885D01*
X74772133Y-57227885D02*
X74914990Y-57275504D01*
X74914990Y-57275504D02*
X75486419Y-57846932D01*
X75486419Y-57846932D02*
X75486419Y-57227885D01*
X61624380Y-46140666D02*
X61672000Y-46188285D01*
X61672000Y-46188285D02*
X61719619Y-46331142D01*
X61719619Y-46331142D02*
X61719619Y-46426380D01*
X61719619Y-46426380D02*
X61672000Y-46569237D01*
X61672000Y-46569237D02*
X61576761Y-46664475D01*
X61576761Y-46664475D02*
X61481523Y-46712094D01*
X61481523Y-46712094D02*
X61291047Y-46759713D01*
X61291047Y-46759713D02*
X61148190Y-46759713D01*
X61148190Y-46759713D02*
X60957714Y-46712094D01*
X60957714Y-46712094D02*
X60862476Y-46664475D01*
X60862476Y-46664475D02*
X60767238Y-46569237D01*
X60767238Y-46569237D02*
X60719619Y-46426380D01*
X60719619Y-46426380D02*
X60719619Y-46331142D01*
X60719619Y-46331142D02*
X60767238Y-46188285D01*
X60767238Y-46188285D02*
X60814857Y-46140666D01*
X61719619Y-45188285D02*
X61719619Y-45759713D01*
X61719619Y-45473999D02*
X60719619Y-45473999D01*
X60719619Y-45473999D02*
X60862476Y-45569237D01*
X60862476Y-45569237D02*
X60957714Y-45664475D01*
X60957714Y-45664475D02*
X61005333Y-45759713D01*
X78939819Y-45689166D02*
X78463628Y-46022499D01*
X78939819Y-46260594D02*
X77939819Y-46260594D01*
X77939819Y-46260594D02*
X77939819Y-45879642D01*
X77939819Y-45879642D02*
X77987438Y-45784404D01*
X77987438Y-45784404D02*
X78035057Y-45736785D01*
X78035057Y-45736785D02*
X78130295Y-45689166D01*
X78130295Y-45689166D02*
X78273152Y-45689166D01*
X78273152Y-45689166D02*
X78368390Y-45736785D01*
X78368390Y-45736785D02*
X78416009Y-45784404D01*
X78416009Y-45784404D02*
X78463628Y-45879642D01*
X78463628Y-45879642D02*
X78463628Y-46260594D01*
X77939819Y-44784404D02*
X77939819Y-45260594D01*
X77939819Y-45260594D02*
X78416009Y-45308213D01*
X78416009Y-45308213D02*
X78368390Y-45260594D01*
X78368390Y-45260594D02*
X78320771Y-45165356D01*
X78320771Y-45165356D02*
X78320771Y-44927261D01*
X78320771Y-44927261D02*
X78368390Y-44832023D01*
X78368390Y-44832023D02*
X78416009Y-44784404D01*
X78416009Y-44784404D02*
X78511247Y-44736785D01*
X78511247Y-44736785D02*
X78749342Y-44736785D01*
X78749342Y-44736785D02*
X78844580Y-44784404D01*
X78844580Y-44784404D02*
X78892200Y-44832023D01*
X78892200Y-44832023D02*
X78939819Y-44927261D01*
X78939819Y-44927261D02*
X78939819Y-45165356D01*
X78939819Y-45165356D02*
X78892200Y-45260594D01*
X78892200Y-45260594D02*
X78844580Y-45308213D01*
X78997980Y-42330666D02*
X79045600Y-42378285D01*
X79045600Y-42378285D02*
X79093219Y-42521142D01*
X79093219Y-42521142D02*
X79093219Y-42616380D01*
X79093219Y-42616380D02*
X79045600Y-42759237D01*
X79045600Y-42759237D02*
X78950361Y-42854475D01*
X78950361Y-42854475D02*
X78855123Y-42902094D01*
X78855123Y-42902094D02*
X78664647Y-42949713D01*
X78664647Y-42949713D02*
X78521790Y-42949713D01*
X78521790Y-42949713D02*
X78331314Y-42902094D01*
X78331314Y-42902094D02*
X78236076Y-42854475D01*
X78236076Y-42854475D02*
X78140838Y-42759237D01*
X78140838Y-42759237D02*
X78093219Y-42616380D01*
X78093219Y-42616380D02*
X78093219Y-42521142D01*
X78093219Y-42521142D02*
X78140838Y-42378285D01*
X78140838Y-42378285D02*
X78188457Y-42330666D01*
X78188457Y-41949713D02*
X78140838Y-41902094D01*
X78140838Y-41902094D02*
X78093219Y-41806856D01*
X78093219Y-41806856D02*
X78093219Y-41568761D01*
X78093219Y-41568761D02*
X78140838Y-41473523D01*
X78140838Y-41473523D02*
X78188457Y-41425904D01*
X78188457Y-41425904D02*
X78283695Y-41378285D01*
X78283695Y-41378285D02*
X78378933Y-41378285D01*
X78378933Y-41378285D02*
X78521790Y-41425904D01*
X78521790Y-41425904D02*
X79093219Y-41997332D01*
X79093219Y-41997332D02*
X79093219Y-41378285D01*
X67364780Y-58180266D02*
X67412400Y-58227885D01*
X67412400Y-58227885D02*
X67460019Y-58370742D01*
X67460019Y-58370742D02*
X67460019Y-58465980D01*
X67460019Y-58465980D02*
X67412400Y-58608837D01*
X67412400Y-58608837D02*
X67317161Y-58704075D01*
X67317161Y-58704075D02*
X67221923Y-58751694D01*
X67221923Y-58751694D02*
X67031447Y-58799313D01*
X67031447Y-58799313D02*
X66888590Y-58799313D01*
X66888590Y-58799313D02*
X66698114Y-58751694D01*
X66698114Y-58751694D02*
X66602876Y-58704075D01*
X66602876Y-58704075D02*
X66507638Y-58608837D01*
X66507638Y-58608837D02*
X66460019Y-58465980D01*
X66460019Y-58465980D02*
X66460019Y-58370742D01*
X66460019Y-58370742D02*
X66507638Y-58227885D01*
X66507638Y-58227885D02*
X66555257Y-58180266D01*
X66460019Y-57323123D02*
X66460019Y-57513599D01*
X66460019Y-57513599D02*
X66507638Y-57608837D01*
X66507638Y-57608837D02*
X66555257Y-57656456D01*
X66555257Y-57656456D02*
X66698114Y-57751694D01*
X66698114Y-57751694D02*
X66888590Y-57799313D01*
X66888590Y-57799313D02*
X67269542Y-57799313D01*
X67269542Y-57799313D02*
X67364780Y-57751694D01*
X67364780Y-57751694D02*
X67412400Y-57704075D01*
X67412400Y-57704075D02*
X67460019Y-57608837D01*
X67460019Y-57608837D02*
X67460019Y-57418361D01*
X67460019Y-57418361D02*
X67412400Y-57323123D01*
X67412400Y-57323123D02*
X67364780Y-57275504D01*
X67364780Y-57275504D02*
X67269542Y-57227885D01*
X67269542Y-57227885D02*
X67031447Y-57227885D01*
X67031447Y-57227885D02*
X66936209Y-57275504D01*
X66936209Y-57275504D02*
X66888590Y-57323123D01*
X66888590Y-57323123D02*
X66840971Y-57418361D01*
X66840971Y-57418361D02*
X66840971Y-57608837D01*
X66840971Y-57608837D02*
X66888590Y-57704075D01*
X66888590Y-57704075D02*
X66936209Y-57751694D01*
X66936209Y-57751694D02*
X67031447Y-57799313D01*
X61878380Y-50357066D02*
X61926000Y-50404685D01*
X61926000Y-50404685D02*
X61973619Y-50547542D01*
X61973619Y-50547542D02*
X61973619Y-50642780D01*
X61973619Y-50642780D02*
X61926000Y-50785637D01*
X61926000Y-50785637D02*
X61830761Y-50880875D01*
X61830761Y-50880875D02*
X61735523Y-50928494D01*
X61735523Y-50928494D02*
X61545047Y-50976113D01*
X61545047Y-50976113D02*
X61402190Y-50976113D01*
X61402190Y-50976113D02*
X61211714Y-50928494D01*
X61211714Y-50928494D02*
X61116476Y-50880875D01*
X61116476Y-50880875D02*
X61021238Y-50785637D01*
X61021238Y-50785637D02*
X60973619Y-50642780D01*
X60973619Y-50642780D02*
X60973619Y-50547542D01*
X60973619Y-50547542D02*
X61021238Y-50404685D01*
X61021238Y-50404685D02*
X61068857Y-50357066D01*
X60973619Y-50023732D02*
X60973619Y-49357066D01*
X60973619Y-49357066D02*
X61973619Y-49785637D01*
X78939819Y-49419166D02*
X78463628Y-49752499D01*
X78939819Y-49990594D02*
X77939819Y-49990594D01*
X77939819Y-49990594D02*
X77939819Y-49609642D01*
X77939819Y-49609642D02*
X77987438Y-49514404D01*
X77987438Y-49514404D02*
X78035057Y-49466785D01*
X78035057Y-49466785D02*
X78130295Y-49419166D01*
X78130295Y-49419166D02*
X78273152Y-49419166D01*
X78273152Y-49419166D02*
X78368390Y-49466785D01*
X78368390Y-49466785D02*
X78416009Y-49514404D01*
X78416009Y-49514404D02*
X78463628Y-49609642D01*
X78463628Y-49609642D02*
X78463628Y-49990594D01*
X78273152Y-48562023D02*
X78939819Y-48562023D01*
X77892200Y-48800118D02*
X78606485Y-49038213D01*
X78606485Y-49038213D02*
X78606485Y-48419166D01*
D12*
%TO.C,C3*%
X62511000Y-53982252D02*
X62511000Y-53459748D01*
X63981000Y-53982252D02*
X63981000Y-53459748D01*
%TO.C,J1*%
X61214000Y-40111057D02*
X61214000Y-42651057D01*
X61214000Y-40111057D02*
X63754000Y-40111057D01*
X61214000Y-42651057D02*
X63754000Y-42651057D01*
X63754000Y-40111057D02*
X63754000Y-42651057D01*
%TO.C,D2*%
X75947000Y-60279000D02*
X75947000Y-54769000D01*
X75947000Y-60279000D02*
X79247000Y-60279000D01*
X79247000Y-60279000D02*
X79247000Y-54769000D01*
%TO.C,R3*%
X91862764Y-40847100D02*
X91408636Y-40847100D01*
X91862764Y-42317100D02*
X91408636Y-42317100D01*
%TO.C,R1*%
X91862764Y-44911100D02*
X91408636Y-44911100D01*
X91862764Y-46381100D02*
X91408636Y-46381100D01*
%TO.C,J2*%
X94030800Y-40111057D02*
X94030800Y-42651057D01*
X94030800Y-40111057D02*
X96570800Y-40111057D01*
X94030800Y-42651057D02*
X96570800Y-42651057D01*
X96570800Y-40111057D02*
X96570800Y-42651057D01*
%TO.C,J4*%
X94284800Y-57404000D02*
X94284800Y-59944000D01*
X94284800Y-57404000D02*
X96824800Y-57404000D01*
X94284800Y-59944000D02*
X96824800Y-59944000D01*
X96824800Y-57404000D02*
X96824800Y-59944000D01*
%TO.C,C1*%
X62019000Y-44101000D02*
X62019000Y-48101000D01*
X62019000Y-48101000D02*
X64219000Y-48101000D01*
X64219000Y-44101000D02*
X62019000Y-44101000D01*
X64219000Y-48101000D02*
X64219000Y-44101000D01*
%TO.C,R5*%
X76100000Y-45295436D02*
X76100000Y-45749564D01*
X77570000Y-45295436D02*
X77570000Y-45749564D01*
%TO.C,J3*%
X61214000Y-57404000D02*
X61214000Y-59944000D01*
X61214000Y-57404000D02*
X63754000Y-57404000D01*
X61214000Y-59944000D02*
X63754000Y-59944000D01*
X63754000Y-57404000D02*
X63754000Y-59944000D01*
%TO.C,C5*%
X91354448Y-42879100D02*
X91876952Y-42879100D01*
X91354448Y-44349100D02*
X91876952Y-44349100D01*
%TO.C,U1*%
X64875000Y-50166000D02*
X64875000Y-51531000D01*
X64875000Y-51531000D02*
X65825000Y-51531000D01*
X75275000Y-50166000D02*
X75275000Y-51531000D01*
X75275000Y-51531000D02*
X74325000Y-51531000D01*
X65865000Y-54356000D02*
X65395000Y-54696000D01*
X65395000Y-54016000D01*
X65865000Y-54356000D01*
G36*
X65865000Y-54356000D02*
G01*
X65395000Y-54696000D01*
X65395000Y-54016000D01*
X65865000Y-54356000D01*
G37*
%TO.C,C4*%
X91407200Y-52189600D02*
X92107200Y-52189600D01*
X91407200Y-54820163D02*
X91407200Y-52189600D01*
X91544700Y-56137100D02*
X91919700Y-56137100D01*
X91732200Y-56324600D02*
X91732200Y-55949600D01*
X92107200Y-55520163D02*
X91407200Y-54820163D01*
X94227200Y-55520163D02*
X94927200Y-54820163D01*
X94927200Y-52189600D02*
X94227200Y-52189600D01*
X94927200Y-54820163D02*
X94927200Y-52189600D01*
%TO.C,D1*%
X90490800Y-48915200D02*
X93175800Y-48915200D01*
X93175800Y-46995200D02*
X90490800Y-46995200D01*
X93175800Y-48915200D02*
X93175800Y-46995200D01*
%TO.C,C2*%
X75920000Y-40941500D02*
X75920000Y-43626500D01*
X75920000Y-43626500D02*
X77840000Y-43626500D01*
X77840000Y-43626500D02*
X77840000Y-40941500D01*
%TO.C,C6*%
X69654052Y-57278600D02*
X69131548Y-57278600D01*
X69654052Y-58748600D02*
X69131548Y-58748600D01*
%TO.C,R2*%
X79824000Y-40642000D02*
X79824000Y-46982000D01*
X79824000Y-40642000D02*
X89594000Y-40642000D01*
X79824000Y-46982000D02*
X89594000Y-46982000D01*
X83439000Y-42672000D02*
X83185000Y-42672000D01*
X84709000Y-44196000D02*
X84709000Y-43180000D01*
X85979000Y-42672000D02*
X86233000Y-42672000D01*
X89594000Y-40642000D02*
X89594000Y-46982000D01*
X83439000Y-43180000D02*
X85979000Y-43180000D01*
X85979000Y-42164000D01*
X83439000Y-42164000D01*
X83439000Y-43180000D01*
X84963000Y-43688000D02*
X84455000Y-43688000D01*
X84709000Y-43180000D01*
X84963000Y-43688000D01*
G36*
X84963000Y-43688000D02*
G01*
X84455000Y-43688000D01*
X84709000Y-43180000D01*
X84963000Y-43688000D01*
G37*
%TO.C,C7*%
X62511000Y-49776748D02*
X62511000Y-50299252D01*
X63981000Y-49776748D02*
X63981000Y-50299252D01*
%TO.C,R4*%
X76100000Y-49025436D02*
X76100000Y-49479564D01*
X77570000Y-49025436D02*
X77570000Y-49479564D01*
%TO.C,L1*%
X79958000Y-49564000D02*
X90558000Y-49564000D01*
X79958000Y-52764000D02*
X79958000Y-49564000D01*
X79958000Y-60164000D02*
X79958000Y-56964000D01*
X90558000Y-49564000D02*
X90558000Y-52764000D01*
X90558000Y-56964000D02*
X90558000Y-60164000D01*
X90558000Y-60164000D02*
X79958000Y-60164000D01*
%TD*%
M02*
