%TF.GenerationSoftware,KiCad,Pcbnew,9.0.6*%
%TF.CreationDate,2026-03-27T12:53:32+05:30*%
%TF.ProjectId,ir_sensor,69725f73-656e-4736-9f72-2e6b69636164,rev?*%
%TF.SameCoordinates,Original*%
%TF.FileFunction,Copper,L1,Top*%
%TF.FilePolarity,Positive*%
%FSLAX46Y46*%
G04 Gerber Fmt 4.6, Leading zero omitted, Abs format (unit mm)*
G04 Created by KiCad (PCBNEW 9.0.6) date 2026-03-27 12:53:32*
%MOMM*%
%LPD*%
G01*
G04 APERTURE LIST*
G04 Aperture macros list*
%AMRoundRect*
0 Rectangle with rounded corners*
0 $1 Rounding radius*
0 $2 $3 $4 $5 $6 $7 $8 $9 X,Y pos of 4 corners*
0 Add a 4 corners polygon primitive as box body*
4,1,4,$2,$3,$4,$5,$6,$7,$8,$9,$2,$3,0*
0 Add four circle primitives for the rounded corners*
1,1,$1+$1,$2,$3*
1,1,$1+$1,$4,$5*
1,1,$1+$1,$6,$7*
1,1,$1+$1,$8,$9*
0 Add four rect primitives between the rounded corners*
20,1,$1+$1,$2,$3,$4,$5,0*
20,1,$1+$1,$4,$5,$6,$7,0*
20,1,$1+$1,$6,$7,$8,$9,0*
20,1,$1+$1,$8,$9,$2,$3,0*%
G04 Aperture macros list end*
%TA.AperFunction,SMDPad,CuDef*%
%ADD10RoundRect,0.243750X-0.243750X-0.456250X0.243750X-0.456250X0.243750X0.456250X-0.243750X0.456250X0*%
%TD*%
%TA.AperFunction,SMDPad,CuDef*%
%ADD11RoundRect,0.243750X0.243750X0.456250X-0.243750X0.456250X-0.243750X-0.456250X0.243750X-0.456250X0*%
%TD*%
%TA.AperFunction,SMDPad,CuDef*%
%ADD12RoundRect,0.218750X0.218750X0.256250X-0.218750X0.256250X-0.218750X-0.256250X0.218750X-0.256250X0*%
%TD*%
%TA.AperFunction,ComponentPad*%
%ADD13R,1.800000X1.800000*%
%TD*%
%TA.AperFunction,ComponentPad*%
%ADD14C,1.800000*%
%TD*%
%TA.AperFunction,SMDPad,CuDef*%
%ADD15RoundRect,0.249999X-0.750001X-0.640001X0.750001X-0.640001X0.750001X0.640001X-0.750001X0.640001X0*%
%TD*%
%TA.AperFunction,SMDPad,CuDef*%
%ADD16RoundRect,0.218750X-0.218750X-0.256250X0.218750X-0.256250X0.218750X0.256250X-0.218750X0.256250X0*%
%TD*%
%TA.AperFunction,ComponentPad*%
%ADD17R,1.700000X1.700000*%
%TD*%
%TA.AperFunction,ComponentPad*%
%ADD18C,1.700000*%
%TD*%
%TA.AperFunction,ComponentPad*%
%ADD19C,1.440000*%
%TD*%
%TA.AperFunction,ViaPad*%
%ADD20C,0.600000*%
%TD*%
%TA.AperFunction,Conductor*%
%ADD21C,0.200000*%
%TD*%
G04 APERTURE END LIST*
D10*
%TO.P,R4,1*%
%TO.N,5V*%
X156660000Y-58000000D03*
%TO.P,R4,2*%
%TO.N,Net-(D4-A)*%
X158535000Y-58000000D03*
%TD*%
%TO.P,R3,1*%
%TO.N,Net-(D2-K)*%
X144262500Y-58600000D03*
%TO.P,R3,2*%
%TO.N,GND*%
X146137500Y-58600000D03*
%TD*%
%TO.P,R2,1*%
%TO.N,Net-(R2-Pad1)*%
X152437500Y-58014000D03*
%TO.P,R2,2*%
%TO.N,OUT*%
X154312500Y-58014000D03*
%TD*%
D11*
%TO.P,R1,1*%
%TO.N,Net-(D1-A)*%
X144740000Y-71400000D03*
%TO.P,R1,2*%
%TO.N,GND*%
X142865000Y-71400000D03*
%TD*%
D12*
%TO.P,D4,1,K*%
%TO.N,GND*%
X161987500Y-59600000D03*
%TO.P,D4,2,A*%
%TO.N,Net-(D4-A)*%
X160412500Y-59600000D03*
%TD*%
D13*
%TO.P,D2,1,K*%
%TO.N,Net-(D2-K)*%
X137500000Y-66660000D03*
D14*
%TO.P,D2,2,A*%
%TO.N,5V*%
X137500000Y-69200000D03*
%TD*%
D13*
%TO.P,D1,1,K*%
%TO.N,5V*%
X137500000Y-59180000D03*
D14*
%TO.P,D1,2,A*%
%TO.N,Net-(D1-A)*%
X137500000Y-61720000D03*
%TD*%
D15*
%TO.P,U1,1*%
%TO.N,Net-(R2-Pad1)*%
X150050000Y-61150000D03*
%TO.P,U1,2,-*%
%TO.N,Net-(U1A--)*%
X150050000Y-63690000D03*
%TO.P,U1,3,+*%
%TO.N,Net-(D1-A)*%
X150050000Y-66230000D03*
%TO.P,U1,4,V-*%
%TO.N,GND*%
X150050000Y-68770000D03*
%TO.P,U1,5*%
%TO.N,N/C*%
X157670000Y-68770000D03*
%TO.P,U1,6*%
X157670000Y-66230000D03*
%TO.P,U1,7*%
X157670000Y-63690000D03*
%TO.P,U1,8,V+*%
%TO.N,5V*%
X157670000Y-61150000D03*
%TD*%
D16*
%TO.P,D3,1,K*%
%TO.N,GND*%
X160025000Y-70000000D03*
%TO.P,D3,2,A*%
%TO.N,OUT*%
X161600000Y-70000000D03*
%TD*%
D17*
%TO.P,J1,1,Pin_1*%
%TO.N,5V*%
X161150000Y-62250000D03*
D18*
%TO.P,J1,2,Pin_2*%
%TO.N,GND*%
X161150000Y-64790000D03*
%TO.P,J1,3,Pin_3*%
%TO.N,OUT*%
X161150000Y-67330000D03*
%TD*%
D19*
%TO.P,RV1,1*%
%TO.N,5V*%
X145200000Y-62500000D03*
%TO.P,RV1,2*%
%TO.N,Net-(U1A--)*%
X145200000Y-65040000D03*
%TO.P,RV1,3*%
%TO.N,GND*%
X145200000Y-67580000D03*
%TD*%
D20*
%TO.N,GND*%
X141200000Y-70400000D03*
X161701000Y-60667946D03*
%TD*%
D21*
%TO.N,Net-(R2-Pad1)*%
X152437500Y-58762500D02*
X152437500Y-58014000D01*
X150050000Y-61150000D02*
X152437500Y-58762500D01*
%TO.N,GND*%
X161701000Y-59886500D02*
X161987500Y-59600000D01*
X161701000Y-60667946D02*
X161701000Y-59886500D01*
%TO.N,Net-(D4-A)*%
X158812500Y-58000000D02*
X160412500Y-59600000D01*
X158622500Y-58000000D02*
X158812500Y-58000000D01*
%TO.N,OUT*%
X163600000Y-57000000D02*
X163600000Y-64880000D01*
X163201000Y-56601000D02*
X163600000Y-57000000D01*
X155813000Y-56601000D02*
X163201000Y-56601000D01*
X154400000Y-58014000D02*
X155813000Y-56601000D01*
X163600000Y-64880000D02*
X161150000Y-67330000D01*
%TO.N,Net-(D4-A)*%
X158622500Y-58000000D02*
X158622500Y-58422500D01*
%TO.N,5V*%
X157670000Y-61150000D02*
X157670000Y-59097500D01*
X157670000Y-59097500D02*
X156572500Y-58000000D01*
%TO.N,GND*%
X157622900Y-72401000D02*
X143778500Y-72401000D01*
X159999000Y-70024900D02*
X157622900Y-72401000D01*
X143778500Y-72401000D02*
X142777500Y-71400000D01*
X159999000Y-65941000D02*
X159999000Y-70024900D01*
X161150000Y-64790000D02*
X159999000Y-65941000D01*
%TO.N,Net-(D1-A)*%
X149570000Y-66230000D02*
X150050000Y-66230000D01*
X147431000Y-68369000D02*
X149570000Y-66230000D01*
X146556100Y-68369000D02*
X147431000Y-68369000D01*
X146205507Y-68018407D02*
X146556100Y-68369000D01*
X146221000Y-68002913D02*
X146205507Y-68018407D01*
X145622913Y-66559000D02*
X146221000Y-67157087D01*
X144777087Y-66559000D02*
X145622913Y-66559000D01*
X144179000Y-67157087D02*
X144777087Y-66559000D01*
X144777087Y-68601000D02*
X144179000Y-68002913D01*
X144179000Y-68002913D02*
X144179000Y-67157087D01*
X146223900Y-69171000D02*
X145638406Y-68585506D01*
X147056500Y-69171000D02*
X146223900Y-69171000D01*
X146221000Y-67157087D02*
X146221000Y-68002913D01*
X145638406Y-68585506D02*
X145622913Y-68601000D01*
X145622913Y-68601000D02*
X144777087Y-68601000D01*
X144827500Y-71400000D02*
X147056500Y-69171000D01*
X144827500Y-71227500D02*
X144827500Y-71400000D01*
X136000000Y-67800000D02*
X136200000Y-68000000D01*
X136200000Y-68000000D02*
X141600000Y-68000000D01*
X136000000Y-63220000D02*
X136000000Y-67800000D01*
X141600000Y-68000000D02*
X144827500Y-71227500D01*
X137500000Y-61720000D02*
X136000000Y-63220000D01*
%TO.N,GND*%
X145224000Y-57599000D02*
X142909114Y-57599000D01*
X146225000Y-58600000D02*
X145224000Y-57599000D01*
X142909114Y-57599000D02*
X142463500Y-58044614D01*
%TO.N,Net-(D2-K)*%
X142187500Y-60587500D02*
X144175000Y-58600000D01*
X141805000Y-60587500D02*
X142187500Y-60587500D01*
%TO.N,GND*%
X136499000Y-57779000D02*
X142197886Y-57779000D01*
X142197886Y-57779000D02*
X142463500Y-58044614D01*
X138060108Y-71600000D02*
X134999000Y-68538892D01*
X134999000Y-68538892D02*
X134999000Y-59279000D01*
X140000000Y-71600000D02*
X138060108Y-71600000D01*
X134999000Y-59279000D02*
X136499000Y-57779000D01*
X141200000Y-70400000D02*
X140000000Y-71600000D01*
X141600000Y-70800000D02*
X141200000Y-70400000D01*
X143205000Y-70800000D02*
X141600000Y-70800000D01*
%TO.N,Net-(D2-K)*%
X137500000Y-66660000D02*
X137500000Y-64892500D01*
X137500000Y-64892500D02*
X141805000Y-60587500D01*
%TO.N,5V*%
X157000000Y-60480000D02*
X157670000Y-61150000D01*
%TO.N,GND*%
X160025000Y-70000000D02*
X151280000Y-70000000D01*
%TO.N,OUT*%
X161150000Y-69550000D02*
X161600000Y-70000000D01*
X161150000Y-67330000D02*
X161150000Y-69550000D01*
%TO.N,GND*%
X150050000Y-68770000D02*
X151280000Y-70000000D01*
%TO.N,5V*%
X156320000Y-62500000D02*
X157670000Y-61150000D01*
X145200000Y-62500000D02*
X156320000Y-62500000D01*
X137500000Y-59180000D02*
X137880000Y-58800000D01*
X157432952Y-60923310D02*
X157349905Y-60849409D01*
X137316281Y-59375430D02*
X137437108Y-59243571D01*
X157349905Y-60849409D02*
X157267640Y-60778825D01*
X157008927Y-60572505D02*
X156921900Y-60508099D01*
X157670000Y-61150000D02*
X157592945Y-61073622D01*
X157592945Y-61073622D02*
X157512666Y-60996841D01*
X157512666Y-60996841D02*
X157432952Y-60923310D01*
X161150000Y-62250000D02*
X160900000Y-62500000D01*
X157181921Y-60707901D02*
X157097217Y-60640360D01*
X157670000Y-61150000D02*
X160050000Y-61150000D01*
X157267640Y-60778825D02*
X157181921Y-60707901D01*
X161150000Y-62250000D02*
X160050000Y-61150000D01*
X137437108Y-59243571D02*
X137500000Y-59180000D01*
X157097217Y-60640360D02*
X157008927Y-60572505D01*
%TO.N,Net-(D2-K)*%
X137500000Y-66660000D02*
X137732500Y-66660000D01*
%TO.N,GND*%
X150050000Y-68770000D02*
X146390000Y-68770000D01*
X146390000Y-68770000D02*
X145200000Y-67580000D01*
%TO.N,Net-(U1A--)*%
X145200000Y-65040000D02*
X144804472Y-65435528D01*
X148700000Y-65040000D02*
X150050000Y-63690000D01*
X145200000Y-65040000D02*
X148700000Y-65040000D01*
%TO.N,5V*%
X137500000Y-59180000D02*
X135400000Y-61280000D01*
X135400000Y-61280000D02*
X135400000Y-68372792D01*
X136227208Y-69200000D02*
X137500000Y-69200000D01*
X135400000Y-68372792D02*
X136227208Y-69200000D01*
%TO.N,Net-(D1-A)*%
X150020000Y-66200000D02*
X150050000Y-66230000D01*
%TD*%
%TA.AperFunction,Conductor*%
%TO.N,GND*%
G36*
X154831941Y-56520185D02*
G01*
X154877696Y-56572989D01*
X154887640Y-56642147D01*
X154858615Y-56705703D01*
X154852596Y-56712167D01*
X154779450Y-56785314D01*
X154718126Y-56818798D01*
X154679167Y-56820990D01*
X154605857Y-56813500D01*
X154605848Y-56813500D01*
X154019152Y-56813500D01*
X154019144Y-56813500D01*
X153917223Y-56823913D01*
X153752077Y-56878637D01*
X153752066Y-56878642D01*
X153604000Y-56969971D01*
X153603996Y-56969974D01*
X153480974Y-57092996D01*
X153480971Y-57093000D01*
X153480538Y-57093703D01*
X153480114Y-57094083D01*
X153476493Y-57098664D01*
X153475710Y-57098045D01*
X153428590Y-57140428D01*
X153359628Y-57151649D01*
X153295546Y-57123806D01*
X153273657Y-57098544D01*
X153273507Y-57098664D01*
X153270859Y-57095315D01*
X153269462Y-57093703D01*
X153269028Y-57093000D01*
X153269025Y-57092996D01*
X153146003Y-56969974D01*
X153145999Y-56969971D01*
X152997933Y-56878642D01*
X152997927Y-56878639D01*
X152997925Y-56878638D01*
X152997922Y-56878637D01*
X152832776Y-56823913D01*
X152730855Y-56813500D01*
X152730848Y-56813500D01*
X152144152Y-56813500D01*
X152144144Y-56813500D01*
X152042223Y-56823913D01*
X151877077Y-56878637D01*
X151877066Y-56878642D01*
X151729000Y-56969971D01*
X151728996Y-56969974D01*
X151605974Y-57092996D01*
X151605971Y-57093000D01*
X151514642Y-57241066D01*
X151514637Y-57241077D01*
X151459913Y-57406223D01*
X151449500Y-57508144D01*
X151449500Y-58519855D01*
X151459913Y-58621776D01*
X151464151Y-58634564D01*
X151502826Y-58751278D01*
X151505228Y-58821105D01*
X151472801Y-58877962D01*
X150627584Y-59723181D01*
X150566261Y-59756666D01*
X150539903Y-59759500D01*
X149249982Y-59759500D01*
X149147203Y-59770000D01*
X149147202Y-59770001D01*
X149086590Y-59790086D01*
X148980667Y-59825185D01*
X148980662Y-59825187D01*
X148831342Y-59917289D01*
X148707289Y-60041342D01*
X148615187Y-60190662D01*
X148615185Y-60190667D01*
X148592474Y-60259205D01*
X148560001Y-60357202D01*
X148560001Y-60357203D01*
X148560000Y-60357203D01*
X148549500Y-60459982D01*
X148549500Y-61775500D01*
X148529815Y-61842539D01*
X148477011Y-61888294D01*
X148425500Y-61899500D01*
X146335513Y-61899500D01*
X146268474Y-61879815D01*
X146235195Y-61848386D01*
X146230947Y-61842539D01*
X146130945Y-61704898D01*
X145995102Y-61569055D01*
X145839681Y-61456135D01*
X145721370Y-61395852D01*
X145668506Y-61368916D01*
X145485802Y-61309553D01*
X145390928Y-61294526D01*
X145296055Y-61279500D01*
X145103945Y-61279500D01*
X145040696Y-61289517D01*
X144914197Y-61309553D01*
X144731493Y-61368916D01*
X144560318Y-61456135D01*
X144471645Y-61520560D01*
X144404898Y-61569055D01*
X144404896Y-61569057D01*
X144404895Y-61569057D01*
X144269057Y-61704895D01*
X144269057Y-61704896D01*
X144269055Y-61704898D01*
X144221621Y-61770185D01*
X144156135Y-61860318D01*
X144068916Y-62031493D01*
X144009553Y-62214197D01*
X143988813Y-62345146D01*
X143979500Y-62403945D01*
X143979500Y-62596055D01*
X143982606Y-62615665D01*
X144009553Y-62785802D01*
X144068916Y-62968506D01*
X144132573Y-63093438D01*
X144156135Y-63139681D01*
X144269055Y-63295102D01*
X144404898Y-63430945D01*
X144560319Y-63543865D01*
X144671467Y-63600498D01*
X144731493Y-63631083D01*
X144796081Y-63652069D01*
X144853756Y-63691506D01*
X144880955Y-63755865D01*
X144869041Y-63824711D01*
X144821797Y-63876187D01*
X144796081Y-63887931D01*
X144731493Y-63908916D01*
X144560318Y-63996135D01*
X144516072Y-64028282D01*
X144404898Y-64109055D01*
X144404896Y-64109057D01*
X144404895Y-64109057D01*
X144269057Y-64244895D01*
X144269057Y-64244896D01*
X144269055Y-64244898D01*
X144220560Y-64311645D01*
X144156135Y-64400318D01*
X144068916Y-64571493D01*
X144009553Y-64754197D01*
X143988813Y-64885146D01*
X143979500Y-64943945D01*
X143979500Y-65136055D01*
X143982606Y-65155665D01*
X144009553Y-65325802D01*
X144068916Y-65508506D01*
X144136171Y-65640500D01*
X144156135Y-65679681D01*
X144269055Y-65835102D01*
X144269057Y-65835104D01*
X144372720Y-65938767D01*
X144406205Y-66000090D01*
X144401221Y-66069782D01*
X144372720Y-66114129D01*
X143803217Y-66683633D01*
X143803214Y-66683635D01*
X143803215Y-66683636D01*
X143698478Y-66788373D01*
X143674959Y-66829110D01*
X143663199Y-66849480D01*
X143619423Y-66925302D01*
X143578499Y-67078030D01*
X143578499Y-67078031D01*
X143578499Y-67078032D01*
X143578499Y-67246133D01*
X143578500Y-67246146D01*
X143578500Y-67916243D01*
X143578499Y-67916261D01*
X143578499Y-68081967D01*
X143578498Y-68081967D01*
X143578499Y-68081970D01*
X143612749Y-68209792D01*
X143619424Y-68234700D01*
X143627968Y-68249498D01*
X143627969Y-68249500D01*
X143698477Y-68371625D01*
X143698479Y-68371628D01*
X143698480Y-68371629D01*
X143810284Y-68483433D01*
X143810285Y-68483434D01*
X144408371Y-69081520D01*
X144408373Y-69081521D01*
X144408377Y-69081524D01*
X144472677Y-69118647D01*
X144545303Y-69160577D01*
X144698030Y-69201501D01*
X144698032Y-69201501D01*
X144863741Y-69201501D01*
X144863757Y-69201500D01*
X145353803Y-69201500D01*
X145420842Y-69221185D01*
X145441483Y-69237818D01*
X145703283Y-69499619D01*
X145736768Y-69560941D01*
X145731784Y-69630633D01*
X145703283Y-69674980D01*
X145206950Y-70171313D01*
X145145627Y-70204798D01*
X145106667Y-70206990D01*
X145033357Y-70199500D01*
X145033348Y-70199500D01*
X144700097Y-70199500D01*
X144633058Y-70179815D01*
X144612416Y-70163181D01*
X142087590Y-67638355D01*
X142087588Y-67638352D01*
X141968717Y-67519481D01*
X141968716Y-67519480D01*
X141870390Y-67462712D01*
X141870389Y-67462711D01*
X141831783Y-67440422D01*
X141775881Y-67425443D01*
X141679057Y-67399499D01*
X141520943Y-67399499D01*
X141513347Y-67399499D01*
X141513331Y-67399500D01*
X139024500Y-67399500D01*
X138957461Y-67379815D01*
X138911706Y-67327011D01*
X138900500Y-67275500D01*
X138900499Y-65712129D01*
X138900498Y-65712123D01*
X138898707Y-65695464D01*
X138894091Y-65652517D01*
X138892760Y-65648949D01*
X138843797Y-65517671D01*
X138843793Y-65517664D01*
X138757547Y-65402455D01*
X138757544Y-65402452D01*
X138642335Y-65316206D01*
X138642328Y-65316202D01*
X138507482Y-65265908D01*
X138507483Y-65265908D01*
X138447883Y-65259501D01*
X138447881Y-65259500D01*
X138447873Y-65259500D01*
X138447865Y-65259500D01*
X138281597Y-65259500D01*
X138214558Y-65239815D01*
X138168803Y-65187011D01*
X138158859Y-65117853D01*
X138187884Y-65054297D01*
X138193916Y-65047819D01*
X138337117Y-64904618D01*
X139748500Y-64904618D01*
X139748500Y-65095513D01*
X139763025Y-65127318D01*
X139766413Y-65135498D01*
X139840069Y-65332982D01*
X139842548Y-65340321D01*
X139856153Y-65385172D01*
X139858168Y-65392648D01*
X139872516Y-65453363D01*
X139874061Y-65460955D01*
X139881972Y-65507160D01*
X139883041Y-65514833D01*
X139894212Y-65618755D01*
X139894523Y-65622064D01*
X139896135Y-65642101D01*
X139896357Y-65645413D01*
X139897786Y-65672095D01*
X139897919Y-65675413D01*
X139898455Y-65695464D01*
X139898499Y-65698778D01*
X139898499Y-65750500D01*
X141250500Y-65750500D01*
X142248500Y-65750500D01*
X143098186Y-65750500D01*
X143054338Y-65615547D01*
X143052924Y-65610886D01*
X143044924Y-65582519D01*
X143043694Y-65577804D01*
X143034545Y-65539688D01*
X143033502Y-65534933D01*
X143027760Y-65506061D01*
X143026905Y-65501272D01*
X142990723Y-65272827D01*
X142990056Y-65268004D01*
X142986596Y-65238771D01*
X142986119Y-65233933D01*
X142983041Y-65194854D01*
X142982754Y-65189989D01*
X142981596Y-65160537D01*
X142981500Y-65155665D01*
X142981500Y-64924335D01*
X142981596Y-64919463D01*
X142982754Y-64890011D01*
X142983041Y-64885146D01*
X142986119Y-64846067D01*
X142986596Y-64841229D01*
X142990056Y-64811996D01*
X142990723Y-64807173D01*
X143026905Y-64578728D01*
X143027760Y-64573939D01*
X143033502Y-64545067D01*
X143034545Y-64540312D01*
X143043694Y-64502196D01*
X143044924Y-64497481D01*
X143052924Y-64469114D01*
X143054338Y-64464453D01*
X143124505Y-64248500D01*
X142248500Y-64248500D01*
X142248500Y-65750500D01*
X141250500Y-65750500D01*
X141250500Y-64248500D01*
X140404618Y-64248500D01*
X139748500Y-64904618D01*
X138337117Y-64904618D01*
X140837117Y-62404618D01*
X142248500Y-62404618D01*
X142248500Y-63250500D01*
X143111183Y-63250500D01*
X143054338Y-63075547D01*
X143052924Y-63070886D01*
X143044924Y-63042519D01*
X143043694Y-63037804D01*
X143034545Y-62999688D01*
X143033502Y-62994933D01*
X143027760Y-62966061D01*
X143026905Y-62961272D01*
X142990723Y-62732827D01*
X142990056Y-62728004D01*
X142986596Y-62698771D01*
X142986119Y-62693933D01*
X142983041Y-62654854D01*
X142982754Y-62649989D01*
X142981596Y-62620537D01*
X142981500Y-62615665D01*
X142981500Y-62384335D01*
X142981596Y-62379463D01*
X142982754Y-62350011D01*
X142983041Y-62345146D01*
X142986119Y-62306067D01*
X142986596Y-62301229D01*
X142990056Y-62271996D01*
X142990723Y-62267173D01*
X143026905Y-62038728D01*
X143027760Y-62033939D01*
X143033502Y-62005067D01*
X143034545Y-62000312D01*
X143043694Y-61962196D01*
X143044924Y-61957481D01*
X143051400Y-61934515D01*
X142976714Y-61977633D01*
X142976699Y-61977644D01*
X142889983Y-62027711D01*
X142882823Y-62031539D01*
X142838766Y-62053264D01*
X142831373Y-62056613D01*
X142770987Y-62081623D01*
X142763396Y-62084480D01*
X142716911Y-62100259D01*
X142709148Y-62102614D01*
X142493299Y-62160451D01*
X142492474Y-62160643D01*
X142248500Y-62404618D01*
X140837117Y-62404618D01*
X142017415Y-61224320D01*
X142078738Y-61190835D01*
X142105096Y-61188001D01*
X142266554Y-61188001D01*
X142266557Y-61188001D01*
X142419285Y-61147077D01*
X142477693Y-61113355D01*
X142556216Y-61068020D01*
X142668020Y-60956216D01*
X142668020Y-60956214D01*
X142678224Y-60946011D01*
X142678228Y-60946006D01*
X143795549Y-59828684D01*
X143856870Y-59795201D01*
X143895828Y-59793009D01*
X143969152Y-59800500D01*
X143969157Y-59800500D01*
X144555843Y-59800500D01*
X144555848Y-59800500D01*
X144657775Y-59790087D01*
X144822925Y-59735362D01*
X144971003Y-59644026D01*
X145094026Y-59521003D01*
X145094755Y-59519821D01*
X145095466Y-59519181D01*
X145098507Y-59515336D01*
X145099163Y-59515855D01*
X145146701Y-59473097D01*
X145215664Y-59461873D01*
X145279746Y-59489715D01*
X145301761Y-59515123D01*
X145301888Y-59515023D01*
X145304113Y-59517838D01*
X145305833Y-59519822D01*
X145306365Y-59520685D01*
X145306369Y-59520690D01*
X145429308Y-59643629D01*
X145577285Y-59734903D01*
X145577290Y-59734905D01*
X145742326Y-59789592D01*
X145844184Y-59799999D01*
X145844197Y-59800000D01*
X145887500Y-59800000D01*
X146387500Y-59800000D01*
X146430803Y-59800000D01*
X146430815Y-59799999D01*
X146532673Y-59789592D01*
X146697709Y-59734905D01*
X146697714Y-59734903D01*
X146845691Y-59643629D01*
X146968629Y-59520691D01*
X147059903Y-59372714D01*
X147059905Y-59372709D01*
X147114592Y-59207673D01*
X147124999Y-59105815D01*
X147125000Y-59105802D01*
X147125000Y-58850000D01*
X146387500Y-58850000D01*
X146387500Y-59800000D01*
X145887500Y-59800000D01*
X145887500Y-58350000D01*
X146387500Y-58350000D01*
X147125000Y-58350000D01*
X147125000Y-58094197D01*
X147124999Y-58094184D01*
X147114592Y-57992326D01*
X147059905Y-57827290D01*
X147059903Y-57827285D01*
X146968629Y-57679308D01*
X146845691Y-57556370D01*
X146751870Y-57498500D01*
X148002320Y-57498500D01*
X148070502Y-57704257D01*
X148072453Y-57710732D01*
X148083188Y-57750221D01*
X148084784Y-57756794D01*
X148096183Y-57810044D01*
X148097418Y-57816693D01*
X148103788Y-57857105D01*
X148104658Y-57863809D01*
X148119124Y-58005403D01*
X148119405Y-58008549D01*
X148120862Y-58027598D01*
X148121063Y-58030749D01*
X148122355Y-58056120D01*
X148122475Y-58059274D01*
X148122960Y-58078345D01*
X148123000Y-58081497D01*
X148123000Y-58250500D01*
X148750500Y-58250500D01*
X149748500Y-58250500D01*
X150451500Y-58250500D01*
X150451500Y-57498500D01*
X149748500Y-57498500D01*
X149748500Y-58250500D01*
X148750500Y-58250500D01*
X148750500Y-57498500D01*
X148002320Y-57498500D01*
X146751870Y-57498500D01*
X146697714Y-57465096D01*
X146697709Y-57465094D01*
X146532673Y-57410407D01*
X146430815Y-57400000D01*
X146387500Y-57400000D01*
X146387500Y-58350000D01*
X145887500Y-58350000D01*
X145887500Y-57400000D01*
X145844184Y-57400000D01*
X145742326Y-57410407D01*
X145577290Y-57465094D01*
X145577285Y-57465096D01*
X145429308Y-57556370D01*
X145306369Y-57679309D01*
X145306364Y-57679315D01*
X145305829Y-57680184D01*
X145305306Y-57680654D01*
X145301888Y-57684977D01*
X145301149Y-57684392D01*
X145253879Y-57726906D01*
X145184916Y-57738125D01*
X145120835Y-57710278D01*
X145098586Y-57684601D01*
X145098507Y-57684664D01*
X145097111Y-57682898D01*
X145094758Y-57680183D01*
X145094028Y-57678999D01*
X144971003Y-57555974D01*
X144970999Y-57555971D01*
X144822933Y-57464642D01*
X144822927Y-57464639D01*
X144822925Y-57464638D01*
X144822922Y-57464637D01*
X144657776Y-57409913D01*
X144555855Y-57399500D01*
X144555848Y-57399500D01*
X143969152Y-57399500D01*
X143969144Y-57399500D01*
X143867223Y-57409913D01*
X143702077Y-57464637D01*
X143702066Y-57464642D01*
X143554000Y-57555971D01*
X143553996Y-57555974D01*
X143430974Y-57678996D01*
X143430971Y-57679000D01*
X143339642Y-57827066D01*
X143339637Y-57827077D01*
X143284913Y-57992223D01*
X143274500Y-58094144D01*
X143274500Y-58599903D01*
X143254815Y-58666942D01*
X143238181Y-58687584D01*
X141975084Y-59950681D01*
X141913761Y-59984166D01*
X141887403Y-59987000D01*
X141725940Y-59987000D01*
X141685019Y-59997964D01*
X141685019Y-59997965D01*
X141647751Y-60007951D01*
X141573214Y-60027923D01*
X141573209Y-60027926D01*
X141436290Y-60106975D01*
X141436282Y-60106981D01*
X141324478Y-60218786D01*
X138771941Y-62771322D01*
X138710618Y-62804807D01*
X138640926Y-62799823D01*
X138584993Y-62757951D01*
X138560576Y-62692487D01*
X138575428Y-62624214D01*
X138583942Y-62610756D01*
X138609406Y-62575706D01*
X138697815Y-62454022D01*
X138797895Y-62257606D01*
X138866015Y-62047951D01*
X138900500Y-61830222D01*
X138900500Y-61609778D01*
X138866015Y-61392049D01*
X138829446Y-61279500D01*
X138797896Y-61182396D01*
X138797895Y-61182393D01*
X138763237Y-61114375D01*
X138697815Y-60985978D01*
X138676182Y-60956202D01*
X138568247Y-60807641D01*
X138568243Y-60807636D01*
X138518071Y-60757464D01*
X138484586Y-60696141D01*
X138489570Y-60626449D01*
X138531442Y-60570516D01*
X138562420Y-60553601D01*
X138642326Y-60523798D01*
X138642326Y-60523797D01*
X138642331Y-60523796D01*
X138757546Y-60437546D01*
X138843796Y-60322331D01*
X138874636Y-60239645D01*
X139892233Y-60239645D01*
X140618786Y-59513094D01*
X140753697Y-59378183D01*
X140759618Y-59372637D01*
X140796529Y-59340266D01*
X140802799Y-59335120D01*
X140854652Y-59295329D01*
X140861251Y-59290600D01*
X140902090Y-59263312D01*
X140908982Y-59259026D01*
X140927214Y-59248500D01*
X139898499Y-59248500D01*
X139898500Y-60141248D01*
X139898455Y-60144572D01*
X139897916Y-60164674D01*
X139897783Y-60167994D01*
X139896351Y-60194680D01*
X139896129Y-60197989D01*
X139894519Y-60217982D01*
X139894208Y-60221285D01*
X139892233Y-60239645D01*
X138874636Y-60239645D01*
X138894091Y-60187483D01*
X138900500Y-60127873D01*
X138900499Y-58232128D01*
X138894091Y-58172517D01*
X138843796Y-58037669D01*
X138843795Y-58037668D01*
X138843793Y-58037664D01*
X138757547Y-57922455D01*
X138757544Y-57922452D01*
X138642335Y-57836206D01*
X138642328Y-57836202D01*
X138507482Y-57785908D01*
X138507483Y-57785908D01*
X138447883Y-57779501D01*
X138447881Y-57779500D01*
X138447873Y-57779500D01*
X138447864Y-57779500D01*
X136552129Y-57779500D01*
X136552123Y-57779501D01*
X136492516Y-57785908D01*
X136357671Y-57836202D01*
X136357664Y-57836206D01*
X136242455Y-57922452D01*
X136242452Y-57922455D01*
X136156206Y-58037664D01*
X136156202Y-58037671D01*
X136105908Y-58172517D01*
X136101291Y-58215466D01*
X136099501Y-58232123D01*
X136099500Y-58232135D01*
X136099500Y-59679902D01*
X136079815Y-59746941D01*
X136063181Y-59767583D01*
X134919481Y-60911282D01*
X134919477Y-60911287D01*
X134872142Y-60993276D01*
X134872141Y-60993275D01*
X134840424Y-61048211D01*
X134840423Y-61048215D01*
X134799499Y-61200943D01*
X134799499Y-61200945D01*
X134799499Y-61369046D01*
X134799500Y-61369059D01*
X134799500Y-68286122D01*
X134799499Y-68286140D01*
X134799499Y-68451846D01*
X134799498Y-68451846D01*
X134840423Y-68604577D01*
X134856915Y-68633143D01*
X134861119Y-68640423D01*
X134911393Y-68727501D01*
X134919479Y-68741506D01*
X134919481Y-68741509D01*
X135038349Y-68860377D01*
X135038354Y-68860381D01*
X135858492Y-69680520D01*
X135858494Y-69680521D01*
X135858498Y-69680524D01*
X135958607Y-69738321D01*
X135995424Y-69759577D01*
X136148151Y-69800501D01*
X136158165Y-69800501D01*
X136225204Y-69820186D01*
X136268649Y-69868205D01*
X136273974Y-69878656D01*
X136302187Y-69934025D01*
X136431752Y-70112358D01*
X136431756Y-70112363D01*
X136587636Y-70268243D01*
X136587641Y-70268247D01*
X136743192Y-70381260D01*
X136765978Y-70397815D01*
X136894375Y-70463237D01*
X136962393Y-70497895D01*
X136962396Y-70497896D01*
X137048804Y-70525971D01*
X137172049Y-70566015D01*
X137389778Y-70600500D01*
X137389779Y-70600500D01*
X137610221Y-70600500D01*
X137610222Y-70600500D01*
X137827951Y-70566015D01*
X138037606Y-70497895D01*
X138234022Y-70397815D01*
X138412365Y-70268242D01*
X138568242Y-70112365D01*
X138697815Y-69934022D01*
X138797895Y-69737606D01*
X138866015Y-69527951D01*
X138900500Y-69310222D01*
X138900500Y-69089778D01*
X138866015Y-68872049D01*
X138866014Y-68872045D01*
X138830525Y-68762817D01*
X138828530Y-68692976D01*
X138864611Y-68633143D01*
X138927312Y-68602316D01*
X138948456Y-68600500D01*
X141299903Y-68600500D01*
X141366942Y-68620185D01*
X141387584Y-68636819D01*
X142739084Y-69988319D01*
X142772569Y-70049642D01*
X142767585Y-70119334D01*
X142725713Y-70175267D01*
X142660249Y-70199684D01*
X142651403Y-70200000D01*
X142571684Y-70200000D01*
X142469826Y-70210407D01*
X142304790Y-70265094D01*
X142304785Y-70265096D01*
X142156808Y-70356370D01*
X142033870Y-70479308D01*
X141942596Y-70627285D01*
X141942594Y-70627290D01*
X141887907Y-70792326D01*
X141877500Y-70894184D01*
X141877500Y-71150000D01*
X142741000Y-71150000D01*
X142808039Y-71169685D01*
X142853794Y-71222489D01*
X142865000Y-71274000D01*
X142865000Y-71526000D01*
X142845315Y-71593039D01*
X142792511Y-71638794D01*
X142741000Y-71650000D01*
X141877500Y-71650000D01*
X141877500Y-71905815D01*
X141887907Y-72007673D01*
X141942594Y-72172709D01*
X141942596Y-72172714D01*
X142033870Y-72320691D01*
X142156809Y-72443630D01*
X142156813Y-72443633D01*
X142199498Y-72469962D01*
X142246223Y-72521910D01*
X142257444Y-72590872D01*
X142229601Y-72654954D01*
X142171532Y-72693810D01*
X142134401Y-72699500D01*
X134624500Y-72699500D01*
X134557461Y-72679815D01*
X134511706Y-72627011D01*
X134500500Y-72575500D01*
X134500500Y-57615513D01*
X139748500Y-57615513D01*
X139763025Y-57647318D01*
X139766413Y-57655498D01*
X139840069Y-57852982D01*
X139842548Y-57860321D01*
X139856153Y-57905172D01*
X139858168Y-57912648D01*
X139872516Y-57973363D01*
X139874061Y-57980955D01*
X139881972Y-58027160D01*
X139883041Y-58034833D01*
X139894212Y-58138756D01*
X139894522Y-58142061D01*
X139896135Y-58162101D01*
X139896358Y-58165422D01*
X139897786Y-58192105D01*
X139897919Y-58195418D01*
X139898455Y-58215466D01*
X139898499Y-58218780D01*
X139898499Y-58250500D01*
X141250500Y-58250500D01*
X141250500Y-57498500D01*
X139748500Y-57498500D01*
X139748500Y-57615513D01*
X134500500Y-57615513D01*
X134500500Y-56624500D01*
X134520185Y-56557461D01*
X134572989Y-56511706D01*
X134624500Y-56500500D01*
X154764902Y-56500500D01*
X154831941Y-56520185D01*
G37*
%TD.AperFunction*%
%TA.AperFunction,Conductor*%
G36*
X143881648Y-72289708D02*
G01*
X143903913Y-72315398D01*
X143903993Y-72315336D01*
X143905390Y-72317103D01*
X143907738Y-72319812D01*
X143908468Y-72320995D01*
X143908474Y-72321003D01*
X144031497Y-72444026D01*
X144073546Y-72469962D01*
X144120269Y-72521909D01*
X144131492Y-72590872D01*
X144103648Y-72654954D01*
X144045579Y-72693810D01*
X144008448Y-72699500D01*
X143595599Y-72699500D01*
X143528560Y-72679815D01*
X143482805Y-72627011D01*
X143472861Y-72557853D01*
X143501886Y-72494297D01*
X143530502Y-72469962D01*
X143573186Y-72443633D01*
X143573190Y-72443630D01*
X143696128Y-72320692D01*
X143696659Y-72319832D01*
X143697180Y-72319363D01*
X143700612Y-72315023D01*
X143701353Y-72315608D01*
X143748601Y-72273102D01*
X143817563Y-72261872D01*
X143881648Y-72289708D01*
G37*
%TD.AperFunction*%
%TA.AperFunction,Conductor*%
G36*
X159742539Y-61770185D02*
G01*
X159788294Y-61822989D01*
X159799500Y-61874500D01*
X159799500Y-63147870D01*
X159799501Y-63147876D01*
X159805908Y-63207483D01*
X159856202Y-63342328D01*
X159856206Y-63342335D01*
X159942452Y-63457544D01*
X159942455Y-63457547D01*
X160057664Y-63543793D01*
X160057671Y-63543797D01*
X160102618Y-63560561D01*
X160192517Y-63594091D01*
X160252127Y-63600500D01*
X160262685Y-63600499D01*
X160329723Y-63620179D01*
X160350372Y-63636818D01*
X161020591Y-64307037D01*
X160957007Y-64324075D01*
X160842993Y-64389901D01*
X160749901Y-64482993D01*
X160684075Y-64597007D01*
X160667037Y-64660591D01*
X160034728Y-64028282D01*
X160034727Y-64028282D01*
X159995380Y-64082439D01*
X159898904Y-64271782D01*
X159833242Y-64473869D01*
X159833242Y-64473872D01*
X159800000Y-64683753D01*
X159800000Y-64896246D01*
X159833242Y-65106127D01*
X159833242Y-65106130D01*
X159898904Y-65308217D01*
X159995375Y-65497550D01*
X160034728Y-65551716D01*
X160667037Y-64919408D01*
X160684075Y-64982993D01*
X160749901Y-65097007D01*
X160842993Y-65190099D01*
X160957007Y-65255925D01*
X161020590Y-65272962D01*
X160388282Y-65905269D01*
X160388282Y-65905270D01*
X160442452Y-65944626D01*
X160442451Y-65944626D01*
X160451495Y-65949234D01*
X160502292Y-65997208D01*
X160519087Y-66065029D01*
X160496550Y-66131164D01*
X160451499Y-66170202D01*
X160442182Y-66174949D01*
X160270213Y-66299890D01*
X160119890Y-66450213D01*
X159994951Y-66622179D01*
X159898444Y-66811585D01*
X159832753Y-67013760D01*
X159804945Y-67189332D01*
X159799500Y-67223713D01*
X159799500Y-67436287D01*
X159809534Y-67499644D01*
X159831504Y-67638355D01*
X159832754Y-67646243D01*
X159896350Y-67841971D01*
X159898444Y-67848414D01*
X159994951Y-68037820D01*
X160119890Y-68209786D01*
X160270213Y-68360109D01*
X160442184Y-68485051D01*
X160442184Y-68485052D01*
X160481793Y-68505233D01*
X160532590Y-68553206D01*
X160549500Y-68615718D01*
X160549500Y-68916162D01*
X160529815Y-68983201D01*
X160477011Y-69028956D01*
X160407853Y-69038900D01*
X160396744Y-69036282D01*
X160396704Y-69036474D01*
X160390085Y-69035057D01*
X160291650Y-69025000D01*
X160275000Y-69025000D01*
X160275000Y-70974999D01*
X160291636Y-70974999D01*
X160291652Y-70974998D01*
X160390083Y-70964943D01*
X160549572Y-70912093D01*
X160549577Y-70912091D01*
X160692580Y-70823885D01*
X160724466Y-70792000D01*
X160785789Y-70758515D01*
X160855481Y-70763499D01*
X160899828Y-70792000D01*
X160932108Y-70824280D01*
X160932112Y-70824283D01*
X161075204Y-70912544D01*
X161075207Y-70912545D01*
X161075213Y-70912549D01*
X161234815Y-70965436D01*
X161333326Y-70975500D01*
X161333331Y-70975500D01*
X161866669Y-70975500D01*
X161866674Y-70975500D01*
X161965185Y-70965436D01*
X162124787Y-70912549D01*
X162267891Y-70824281D01*
X162386781Y-70705391D01*
X162475049Y-70562287D01*
X162527936Y-70402685D01*
X162538000Y-70304174D01*
X162538000Y-69695826D01*
X162527936Y-69597315D01*
X162475049Y-69437713D01*
X162475046Y-69437708D01*
X162475044Y-69437704D01*
X162386783Y-69294612D01*
X162386780Y-69294608D01*
X162267891Y-69175719D01*
X162267887Y-69175716D01*
X162124795Y-69087455D01*
X162124789Y-69087452D01*
X162124787Y-69087451D01*
X161965185Y-69034564D01*
X161965183Y-69034563D01*
X161863533Y-69024179D01*
X161863653Y-69023001D01*
X161802200Y-69001478D01*
X161759213Y-68946397D01*
X161750500Y-68900737D01*
X161750500Y-68615718D01*
X161770185Y-68548679D01*
X161818207Y-68505233D01*
X161857815Y-68485052D01*
X161857815Y-68485051D01*
X161857816Y-68485051D01*
X161949193Y-68418661D01*
X162029786Y-68360109D01*
X162029788Y-68360106D01*
X162029792Y-68360104D01*
X162180104Y-68209792D01*
X162180106Y-68209788D01*
X162180109Y-68209786D01*
X162305048Y-68037820D01*
X162305047Y-68037820D01*
X162305051Y-68037816D01*
X162401557Y-67848412D01*
X162467246Y-67646243D01*
X162500500Y-67436287D01*
X162500500Y-67223713D01*
X162467246Y-67013757D01*
X162453506Y-66971473D01*
X162451512Y-66901635D01*
X162483755Y-66845478D01*
X163687820Y-65641413D01*
X163749142Y-65607930D01*
X163818834Y-65612914D01*
X163874767Y-65654786D01*
X163899184Y-65720250D01*
X163899500Y-65729096D01*
X163899500Y-72575500D01*
X163879815Y-72642539D01*
X163827011Y-72688294D01*
X163775500Y-72699500D01*
X145471552Y-72699500D01*
X145404513Y-72679815D01*
X145358758Y-72627011D01*
X145348814Y-72557853D01*
X145377839Y-72494297D01*
X145406454Y-72469962D01*
X145448503Y-72444026D01*
X145571526Y-72321003D01*
X145662862Y-72172925D01*
X145717587Y-72007775D01*
X145728000Y-71905848D01*
X145728000Y-71400096D01*
X145747685Y-71333057D01*
X145764314Y-71312420D01*
X146685438Y-70391295D01*
X152248500Y-70391295D01*
X152248500Y-70750500D01*
X153750500Y-70750500D01*
X154748500Y-70750500D01*
X155790098Y-70750500D01*
X155771431Y-70733887D01*
X155766187Y-70728939D01*
X155601061Y-70563813D01*
X155596113Y-70558569D01*
X155567102Y-70525971D01*
X155562465Y-70520445D01*
X155526435Y-70474879D01*
X155522127Y-70469093D01*
X155497087Y-70433333D01*
X155493122Y-70427305D01*
X155417161Y-70304152D01*
X159087501Y-70304152D01*
X159097556Y-70402583D01*
X159150406Y-70562072D01*
X159150408Y-70562077D01*
X159238614Y-70705080D01*
X159357419Y-70823885D01*
X159500422Y-70912091D01*
X159500427Y-70912093D01*
X159659916Y-70964942D01*
X159758356Y-70974999D01*
X159775000Y-70974998D01*
X159775000Y-70250000D01*
X159087501Y-70250000D01*
X159087501Y-70304152D01*
X155417161Y-70304152D01*
X155370520Y-70228535D01*
X155366913Y-70222287D01*
X155346195Y-70183862D01*
X155342957Y-70177415D01*
X155318409Y-70124768D01*
X155315554Y-70118148D01*
X155299444Y-70077597D01*
X155296977Y-70070819D01*
X155224095Y-69850876D01*
X155222144Y-69844401D01*
X155211413Y-69804927D01*
X155209818Y-69798360D01*
X155198416Y-69745109D01*
X155197181Y-69738458D01*
X155190807Y-69698029D01*
X155189936Y-69691320D01*
X155175376Y-69548797D01*
X155175095Y-69545652D01*
X155173638Y-69526603D01*
X155173437Y-69523453D01*
X155172145Y-69498083D01*
X155172025Y-69494928D01*
X155171540Y-69475857D01*
X155171500Y-69472705D01*
X155171500Y-69248500D01*
X154748500Y-69248500D01*
X154748500Y-70750500D01*
X153750500Y-70750500D01*
X153750500Y-69248500D01*
X152548000Y-69248500D01*
X152548000Y-69472674D01*
X152547960Y-69475826D01*
X152547475Y-69494897D01*
X152547355Y-69498051D01*
X152546063Y-69523422D01*
X152545862Y-69526573D01*
X152544405Y-69545622D01*
X152544124Y-69548768D01*
X152529571Y-69691210D01*
X152528701Y-69697914D01*
X152522332Y-69738321D01*
X152521097Y-69744968D01*
X152509699Y-69798218D01*
X152508104Y-69804792D01*
X152497368Y-69844286D01*
X152495416Y-69850762D01*
X152422568Y-70070604D01*
X152420102Y-70077380D01*
X152403992Y-70117933D01*
X152401136Y-70124554D01*
X152376588Y-70177202D01*
X152373349Y-70183651D01*
X152352630Y-70222077D01*
X152349023Y-70228324D01*
X152248500Y-70391295D01*
X146685438Y-70391295D01*
X147415006Y-69661727D01*
X147415011Y-69661724D01*
X147425214Y-69651520D01*
X147425216Y-69651520D01*
X147537020Y-69539716D01*
X147583052Y-69459986D01*
X148550001Y-69459986D01*
X148560494Y-69562696D01*
X148560494Y-69562698D01*
X148615640Y-69729119D01*
X148615645Y-69729130D01*
X148707680Y-69878340D01*
X148707683Y-69878344D01*
X148831655Y-70002316D01*
X148831659Y-70002319D01*
X148980869Y-70094354D01*
X148980880Y-70094359D01*
X149147302Y-70149505D01*
X149250019Y-70159999D01*
X149799999Y-70159999D01*
X150300000Y-70159999D01*
X150849972Y-70159999D01*
X150849986Y-70159998D01*
X150952696Y-70149505D01*
X150952698Y-70149505D01*
X151119119Y-70094359D01*
X151119130Y-70094354D01*
X151268340Y-70002319D01*
X151268344Y-70002316D01*
X151392316Y-69878344D01*
X151392319Y-69878340D01*
X151484354Y-69729130D01*
X151484359Y-69729119D01*
X151539505Y-69562697D01*
X151549999Y-69459986D01*
X151550000Y-69459973D01*
X151550000Y-69020000D01*
X150300000Y-69020000D01*
X150300000Y-70159999D01*
X149799999Y-70159999D01*
X149800000Y-70159998D01*
X149800000Y-69020000D01*
X148550001Y-69020000D01*
X148550001Y-69459986D01*
X147583052Y-69459986D01*
X147595911Y-69437713D01*
X147616077Y-69402785D01*
X147657001Y-69250057D01*
X147657001Y-69091943D01*
X147644492Y-69045259D01*
X147646155Y-68975411D01*
X147685317Y-68917548D01*
X147702258Y-68905785D01*
X147712904Y-68899639D01*
X147799716Y-68849520D01*
X147911520Y-68737716D01*
X147911520Y-68737714D01*
X147921728Y-68727507D01*
X147921730Y-68727504D01*
X148338321Y-68310912D01*
X148399642Y-68277429D01*
X148469334Y-68282413D01*
X148525267Y-68324285D01*
X148549684Y-68389749D01*
X148550000Y-68398595D01*
X148550000Y-68520000D01*
X151549999Y-68520000D01*
X151549999Y-68080028D01*
X151549998Y-68080013D01*
X151539505Y-67977303D01*
X151539505Y-67977301D01*
X151484359Y-67810880D01*
X151484354Y-67810869D01*
X151392319Y-67661659D01*
X151392316Y-67661655D01*
X151318695Y-67588034D01*
X151285210Y-67526711D01*
X151287063Y-67500794D01*
X152432972Y-67500794D01*
X152495417Y-67689241D01*
X152497369Y-67695719D01*
X152508106Y-67735219D01*
X152509702Y-67741792D01*
X152521100Y-67795045D01*
X152522334Y-67801690D01*
X152528703Y-67842094D01*
X152529573Y-67848800D01*
X152544124Y-67991240D01*
X152544405Y-67994390D01*
X152545861Y-68013436D01*
X152546062Y-68016581D01*
X152547354Y-68041950D01*
X152547474Y-68045105D01*
X152547959Y-68064176D01*
X152547999Y-68067328D01*
X152547999Y-68250500D01*
X153750500Y-68250500D01*
X154748500Y-68250500D01*
X155171500Y-68250500D01*
X155171500Y-68067295D01*
X155171540Y-68064143D01*
X155172025Y-68045072D01*
X155172145Y-68041917D01*
X155173437Y-68016547D01*
X155173638Y-68013397D01*
X155175095Y-67994348D01*
X155175376Y-67991203D01*
X155189936Y-67848680D01*
X155190807Y-67841971D01*
X155197181Y-67801542D01*
X155198416Y-67794891D01*
X155209818Y-67741640D01*
X155211413Y-67735073D01*
X155222144Y-67695599D01*
X155224095Y-67689124D01*
X155286764Y-67500000D01*
X155224095Y-67310876D01*
X155222144Y-67304401D01*
X155211413Y-67264927D01*
X155209818Y-67258360D01*
X155198416Y-67205109D01*
X155197181Y-67198458D01*
X155190807Y-67158029D01*
X155189936Y-67151320D01*
X155175376Y-67008797D01*
X155175095Y-67005652D01*
X155173638Y-66986603D01*
X155173437Y-66983453D01*
X155172145Y-66958083D01*
X155172025Y-66954928D01*
X155171540Y-66935857D01*
X155171500Y-66932705D01*
X155171500Y-66748500D01*
X154748500Y-66748500D01*
X154748500Y-68250500D01*
X153750500Y-68250500D01*
X153750500Y-66748500D01*
X152548500Y-66748500D01*
X152548500Y-66932705D01*
X152548460Y-66935857D01*
X152547975Y-66954928D01*
X152547855Y-66958083D01*
X152546563Y-66983453D01*
X152546362Y-66986603D01*
X152544905Y-67005652D01*
X152544624Y-67008797D01*
X152530064Y-67151320D01*
X152529193Y-67158029D01*
X152522819Y-67198458D01*
X152521584Y-67205109D01*
X152510182Y-67258360D01*
X152508587Y-67264927D01*
X152497856Y-67304401D01*
X152495905Y-67310876D01*
X152432972Y-67500794D01*
X151287063Y-67500794D01*
X151290194Y-67457019D01*
X151318691Y-67412676D01*
X151392712Y-67338656D01*
X151484814Y-67189335D01*
X151539999Y-67022798D01*
X151550500Y-66920010D01*
X151550500Y-65539990D01*
X151539999Y-65437202D01*
X151484814Y-65270665D01*
X151392712Y-65121344D01*
X151319049Y-65047681D01*
X151285564Y-64986358D01*
X151287449Y-64960000D01*
X152433235Y-64960000D01*
X152495905Y-65149124D01*
X152497856Y-65155599D01*
X152508587Y-65195073D01*
X152510182Y-65201640D01*
X152521584Y-65254891D01*
X152522819Y-65261542D01*
X152529193Y-65301971D01*
X152530064Y-65308680D01*
X152544624Y-65451203D01*
X152544905Y-65454348D01*
X152546362Y-65473397D01*
X152546563Y-65476547D01*
X152547855Y-65501917D01*
X152547975Y-65505072D01*
X152548460Y-65524143D01*
X152548500Y-65527295D01*
X152548500Y-65750500D01*
X153750500Y-65750500D01*
X154748500Y-65750500D01*
X155171500Y-65750500D01*
X155171500Y-65527295D01*
X155171540Y-65524143D01*
X155172025Y-65505072D01*
X155172145Y-65501917D01*
X155173437Y-65476547D01*
X155173638Y-65473397D01*
X155175095Y-65454348D01*
X155175376Y-65451203D01*
X155189936Y-65308680D01*
X155190807Y-65301971D01*
X155197181Y-65261542D01*
X155198416Y-65254891D01*
X155209818Y-65201640D01*
X155211413Y-65195073D01*
X155222144Y-65155599D01*
X155224095Y-65149124D01*
X155286764Y-64960000D01*
X155224095Y-64770876D01*
X155222144Y-64764401D01*
X155211413Y-64724927D01*
X155209818Y-64718360D01*
X155198416Y-64665109D01*
X155197181Y-64658458D01*
X155190807Y-64618029D01*
X155189936Y-64611320D01*
X155175376Y-64468797D01*
X155175095Y-64465652D01*
X155173638Y-64446603D01*
X155173437Y-64443453D01*
X155172145Y-64418083D01*
X155172025Y-64414928D01*
X155171540Y-64395857D01*
X155171500Y-64392705D01*
X155171500Y-64248500D01*
X154748500Y-64248500D01*
X154748500Y-65750500D01*
X153750500Y-65750500D01*
X153750500Y-64248500D01*
X152548500Y-64248500D01*
X152548500Y-64392705D01*
X152548460Y-64395857D01*
X152547975Y-64414928D01*
X152547855Y-64418083D01*
X152546563Y-64443453D01*
X152546362Y-64446603D01*
X152544905Y-64465652D01*
X152544624Y-64468797D01*
X152530064Y-64611320D01*
X152529193Y-64618029D01*
X152522819Y-64658458D01*
X152521584Y-64665109D01*
X152510182Y-64718360D01*
X152508587Y-64724927D01*
X152497856Y-64764401D01*
X152495905Y-64770876D01*
X152433235Y-64960000D01*
X151287449Y-64960000D01*
X151290548Y-64916666D01*
X151319049Y-64872319D01*
X151351121Y-64840247D01*
X151392712Y-64798656D01*
X151484814Y-64649335D01*
X151539999Y-64482798D01*
X151550500Y-64380010D01*
X151550500Y-63224500D01*
X151570185Y-63157461D01*
X151622989Y-63111706D01*
X151674500Y-63100500D01*
X156045500Y-63100500D01*
X156112539Y-63120185D01*
X156158294Y-63172989D01*
X156169500Y-63224500D01*
X156169500Y-64380017D01*
X156180000Y-64482796D01*
X156209391Y-64571491D01*
X156235186Y-64649335D01*
X156306159Y-64764401D01*
X156327289Y-64798657D01*
X156400951Y-64872319D01*
X156434436Y-64933642D01*
X156429452Y-65003334D01*
X156400951Y-65047681D01*
X156327289Y-65121342D01*
X156235187Y-65270662D01*
X156235185Y-65270667D01*
X156220096Y-65316204D01*
X156180001Y-65437202D01*
X156180001Y-65437203D01*
X156180000Y-65437203D01*
X156169500Y-65539982D01*
X156169500Y-66920017D01*
X156180000Y-67022796D01*
X156235185Y-67189332D01*
X156235187Y-67189337D01*
X156270070Y-67245890D01*
X156324659Y-67334394D01*
X156327289Y-67338657D01*
X156400951Y-67412319D01*
X156434436Y-67473642D01*
X156429452Y-67543334D01*
X156400951Y-67587681D01*
X156327289Y-67661342D01*
X156235187Y-67810662D01*
X156235185Y-67810667D01*
X156230235Y-67825606D01*
X156180001Y-67977202D01*
X156180001Y-67977203D01*
X156180000Y-67977203D01*
X156169500Y-68079982D01*
X156169500Y-69460017D01*
X156180000Y-69562796D01*
X156235185Y-69729332D01*
X156235187Y-69729337D01*
X156244915Y-69745109D01*
X156327288Y-69878656D01*
X156451344Y-70002712D01*
X156600665Y-70094814D01*
X156767202Y-70149999D01*
X156869990Y-70160500D01*
X156869995Y-70160500D01*
X158470005Y-70160500D01*
X158470010Y-70160500D01*
X158572798Y-70149999D01*
X158739335Y-70094814D01*
X158888656Y-70002712D01*
X159012712Y-69878656D01*
X159048777Y-69820186D01*
X159055737Y-69808903D01*
X159107685Y-69762178D01*
X159161275Y-69750000D01*
X159775000Y-69750000D01*
X159775000Y-69024999D01*
X159758356Y-69025000D01*
X159659915Y-69035057D01*
X159500427Y-69087906D01*
X159500422Y-69087908D01*
X159359597Y-69174771D01*
X159292204Y-69193211D01*
X159225541Y-69172288D01*
X159180771Y-69118647D01*
X159170500Y-69069232D01*
X159170500Y-68079995D01*
X159170499Y-68079982D01*
X159164018Y-68016547D01*
X159159999Y-67977202D01*
X159104814Y-67810665D01*
X159012712Y-67661344D01*
X158939049Y-67587681D01*
X158905564Y-67526358D01*
X158910548Y-67456666D01*
X158939049Y-67412319D01*
X158971553Y-67379815D01*
X159012712Y-67338656D01*
X159104814Y-67189335D01*
X159159999Y-67022798D01*
X159170500Y-66920010D01*
X159170500Y-65539990D01*
X159159999Y-65437202D01*
X159104814Y-65270665D01*
X159012712Y-65121344D01*
X158939049Y-65047681D01*
X158905564Y-64986358D01*
X158910548Y-64916666D01*
X158939049Y-64872319D01*
X158971121Y-64840247D01*
X159012712Y-64798656D01*
X159104814Y-64649335D01*
X159159999Y-64482798D01*
X159170500Y-64380010D01*
X159170500Y-62999990D01*
X159159999Y-62897202D01*
X159104814Y-62730665D01*
X159012712Y-62581344D01*
X158939049Y-62507681D01*
X158905564Y-62446358D01*
X158910548Y-62376666D01*
X158939049Y-62332319D01*
X158970139Y-62301229D01*
X159012712Y-62258656D01*
X159104814Y-62109335D01*
X159159999Y-61942798D01*
X159168264Y-61861897D01*
X159194660Y-61797206D01*
X159251841Y-61757054D01*
X159291622Y-61750500D01*
X159675500Y-61750500D01*
X159742539Y-61770185D01*
G37*
%TD.AperFunction*%
%TA.AperFunction,Conductor*%
G36*
X162942539Y-57221185D02*
G01*
X162988294Y-57273989D01*
X162999500Y-57325500D01*
X162999500Y-58823507D01*
X162979815Y-58890546D01*
X162927011Y-58936301D01*
X162857853Y-58946245D01*
X162794297Y-58917220D01*
X162778236Y-58900421D01*
X162773885Y-58894919D01*
X162655080Y-58776114D01*
X162512077Y-58687908D01*
X162512072Y-58687906D01*
X162352583Y-58635057D01*
X162254150Y-58625000D01*
X162237500Y-58625000D01*
X162237500Y-60574999D01*
X162254136Y-60574999D01*
X162254152Y-60574998D01*
X162352583Y-60564943D01*
X162512072Y-60512093D01*
X162512077Y-60512091D01*
X162655080Y-60423885D01*
X162773888Y-60305077D01*
X162778233Y-60299583D01*
X162835254Y-60259205D01*
X162905053Y-60256065D01*
X162965469Y-60291160D01*
X162997321Y-60353347D01*
X162999500Y-60376492D01*
X162999500Y-64579902D01*
X162979815Y-64646941D01*
X162963181Y-64667583D01*
X162711681Y-64919082D01*
X162650358Y-64952567D01*
X162580666Y-64947583D01*
X162524733Y-64905711D01*
X162500316Y-64840247D01*
X162500000Y-64831401D01*
X162500000Y-64683753D01*
X162466757Y-64473872D01*
X162466757Y-64473869D01*
X162401095Y-64271782D01*
X162304624Y-64082449D01*
X162265270Y-64028282D01*
X162265269Y-64028282D01*
X161632962Y-64660590D01*
X161615925Y-64597007D01*
X161550099Y-64482993D01*
X161457007Y-64389901D01*
X161342993Y-64324075D01*
X161279409Y-64307037D01*
X161949627Y-63636818D01*
X162010950Y-63603333D01*
X162037307Y-63600499D01*
X162047872Y-63600499D01*
X162107483Y-63594091D01*
X162242331Y-63543796D01*
X162357546Y-63457546D01*
X162443796Y-63342331D01*
X162494091Y-63207483D01*
X162500500Y-63147873D01*
X162500499Y-61352128D01*
X162494091Y-61292517D01*
X162468655Y-61224320D01*
X162443797Y-61157671D01*
X162443793Y-61157664D01*
X162357547Y-61042455D01*
X162357544Y-61042452D01*
X162242335Y-60956206D01*
X162242328Y-60956202D01*
X162107482Y-60905908D01*
X162107483Y-60905908D01*
X162047883Y-60899501D01*
X162047881Y-60899500D01*
X162047873Y-60899500D01*
X162047865Y-60899500D01*
X160700097Y-60899500D01*
X160633058Y-60879815D01*
X160612416Y-60863181D01*
X160537590Y-60788355D01*
X160537588Y-60788352D01*
X160536417Y-60787181D01*
X160535997Y-60786412D01*
X160522097Y-60769457D01*
X160522095Y-60769454D01*
X160525498Y-60767185D01*
X160502932Y-60725858D01*
X160507916Y-60656166D01*
X160549788Y-60600233D01*
X160615252Y-60575816D01*
X160624098Y-60575500D01*
X160679169Y-60575500D01*
X160679174Y-60575500D01*
X160777685Y-60565436D01*
X160937287Y-60512549D01*
X161080391Y-60424281D01*
X161112672Y-60392000D01*
X161173995Y-60358515D01*
X161243687Y-60363499D01*
X161288034Y-60392000D01*
X161319919Y-60423885D01*
X161462922Y-60512091D01*
X161462927Y-60512093D01*
X161622416Y-60564942D01*
X161720856Y-60574999D01*
X161737500Y-60574998D01*
X161737500Y-58624999D01*
X161720856Y-58625000D01*
X161622415Y-58635057D01*
X161462927Y-58687906D01*
X161462922Y-58687908D01*
X161319919Y-58776114D01*
X161288033Y-58808000D01*
X161226709Y-58841485D01*
X161157018Y-58836499D01*
X161112673Y-58808000D01*
X161080392Y-58775719D01*
X161080387Y-58775716D01*
X160937295Y-58687455D01*
X160937289Y-58687452D01*
X160937287Y-58687451D01*
X160777685Y-58634564D01*
X160777683Y-58634563D01*
X160679181Y-58624500D01*
X160679174Y-58624500D01*
X160337598Y-58624500D01*
X160270559Y-58604815D01*
X160249917Y-58588181D01*
X159559319Y-57897583D01*
X159525834Y-57836260D01*
X159523000Y-57809902D01*
X159523000Y-57494157D01*
X159522999Y-57494144D01*
X159512587Y-57392225D01*
X159512586Y-57392222D01*
X159512586Y-57392220D01*
X159503402Y-57364505D01*
X159500999Y-57294677D01*
X159536730Y-57234635D01*
X159599250Y-57203442D01*
X159621107Y-57201500D01*
X162875500Y-57201500D01*
X162942539Y-57221185D01*
G37*
%TD.AperFunction*%
%TD*%
M02*
