%TF.GenerationSoftware,KiCad,Pcbnew,9.0.6*%
%TF.CreationDate,2026-03-27T12:53:32+05:30*%
%TF.ProjectId,ir_sensor,69725f73-656e-4736-9f72-2e6b69636164,rev?*%
%TF.SameCoordinates,Original*%
%TF.FileFunction,Legend,Top*%
%TF.FilePolarity,Positive*%
%FSLAX46Y46*%
G04 Gerber Fmt 4.6, Leading zero omitted, Abs format (unit mm)*
G04 Created by KiCad (PCBNEW 9.0.6) date 2026-03-27 12:53:32*
%MOMM*%
%LPD*%
G01*
G04 APERTURE LIST*
%ADD10C,0.200000*%
%ADD11C,0.100000*%
%ADD12C,0.150000*%
%ADD13C,0.120000*%
G04 APERTURE END LIST*
D10*
X149769673Y-71667219D02*
X149769673Y-70667219D01*
X150817291Y-71667219D02*
X150483958Y-71191028D01*
X150245863Y-71667219D02*
X150245863Y-70667219D01*
X150245863Y-70667219D02*
X150626815Y-70667219D01*
X150626815Y-70667219D02*
X150722053Y-70714838D01*
X150722053Y-70714838D02*
X150769672Y-70762457D01*
X150769672Y-70762457D02*
X150817291Y-70857695D01*
X150817291Y-70857695D02*
X150817291Y-71000552D01*
X150817291Y-71000552D02*
X150769672Y-71095790D01*
X150769672Y-71095790D02*
X150722053Y-71143409D01*
X150722053Y-71143409D02*
X150626815Y-71191028D01*
X150626815Y-71191028D02*
X150245863Y-71191028D01*
X151960149Y-71619600D02*
X152103006Y-71667219D01*
X152103006Y-71667219D02*
X152341101Y-71667219D01*
X152341101Y-71667219D02*
X152436339Y-71619600D01*
X152436339Y-71619600D02*
X152483958Y-71571980D01*
X152483958Y-71571980D02*
X152531577Y-71476742D01*
X152531577Y-71476742D02*
X152531577Y-71381504D01*
X152531577Y-71381504D02*
X152483958Y-71286266D01*
X152483958Y-71286266D02*
X152436339Y-71238647D01*
X152436339Y-71238647D02*
X152341101Y-71191028D01*
X152341101Y-71191028D02*
X152150625Y-71143409D01*
X152150625Y-71143409D02*
X152055387Y-71095790D01*
X152055387Y-71095790D02*
X152007768Y-71048171D01*
X152007768Y-71048171D02*
X151960149Y-70952933D01*
X151960149Y-70952933D02*
X151960149Y-70857695D01*
X151960149Y-70857695D02*
X152007768Y-70762457D01*
X152007768Y-70762457D02*
X152055387Y-70714838D01*
X152055387Y-70714838D02*
X152150625Y-70667219D01*
X152150625Y-70667219D02*
X152388720Y-70667219D01*
X152388720Y-70667219D02*
X152531577Y-70714838D01*
X153341101Y-71619600D02*
X153245863Y-71667219D01*
X153245863Y-71667219D02*
X153055387Y-71667219D01*
X153055387Y-71667219D02*
X152960149Y-71619600D01*
X152960149Y-71619600D02*
X152912530Y-71524361D01*
X152912530Y-71524361D02*
X152912530Y-71143409D01*
X152912530Y-71143409D02*
X152960149Y-71048171D01*
X152960149Y-71048171D02*
X153055387Y-71000552D01*
X153055387Y-71000552D02*
X153245863Y-71000552D01*
X153245863Y-71000552D02*
X153341101Y-71048171D01*
X153341101Y-71048171D02*
X153388720Y-71143409D01*
X153388720Y-71143409D02*
X153388720Y-71238647D01*
X153388720Y-71238647D02*
X152912530Y-71333885D01*
X153817292Y-71000552D02*
X153817292Y-71667219D01*
X153817292Y-71095790D02*
X153864911Y-71048171D01*
X153864911Y-71048171D02*
X153960149Y-71000552D01*
X153960149Y-71000552D02*
X154103006Y-71000552D01*
X154103006Y-71000552D02*
X154198244Y-71048171D01*
X154198244Y-71048171D02*
X154245863Y-71143409D01*
X154245863Y-71143409D02*
X154245863Y-71667219D01*
X154674435Y-71619600D02*
X154769673Y-71667219D01*
X154769673Y-71667219D02*
X154960149Y-71667219D01*
X154960149Y-71667219D02*
X155055387Y-71619600D01*
X155055387Y-71619600D02*
X155103006Y-71524361D01*
X155103006Y-71524361D02*
X155103006Y-71476742D01*
X155103006Y-71476742D02*
X155055387Y-71381504D01*
X155055387Y-71381504D02*
X154960149Y-71333885D01*
X154960149Y-71333885D02*
X154817292Y-71333885D01*
X154817292Y-71333885D02*
X154722054Y-71286266D01*
X154722054Y-71286266D02*
X154674435Y-71191028D01*
X154674435Y-71191028D02*
X154674435Y-71143409D01*
X154674435Y-71143409D02*
X154722054Y-71048171D01*
X154722054Y-71048171D02*
X154817292Y-71000552D01*
X154817292Y-71000552D02*
X154960149Y-71000552D01*
X154960149Y-71000552D02*
X155055387Y-71048171D01*
X155674435Y-71667219D02*
X155579197Y-71619600D01*
X155579197Y-71619600D02*
X155531578Y-71571980D01*
X155531578Y-71571980D02*
X155483959Y-71476742D01*
X155483959Y-71476742D02*
X155483959Y-71191028D01*
X155483959Y-71191028D02*
X155531578Y-71095790D01*
X155531578Y-71095790D02*
X155579197Y-71048171D01*
X155579197Y-71048171D02*
X155674435Y-71000552D01*
X155674435Y-71000552D02*
X155817292Y-71000552D01*
X155817292Y-71000552D02*
X155912530Y-71048171D01*
X155912530Y-71048171D02*
X155960149Y-71095790D01*
X155960149Y-71095790D02*
X156007768Y-71191028D01*
X156007768Y-71191028D02*
X156007768Y-71476742D01*
X156007768Y-71476742D02*
X155960149Y-71571980D01*
X155960149Y-71571980D02*
X155912530Y-71619600D01*
X155912530Y-71619600D02*
X155817292Y-71667219D01*
X155817292Y-71667219D02*
X155674435Y-71667219D01*
X156436340Y-71667219D02*
X156436340Y-71000552D01*
X156436340Y-71191028D02*
X156483959Y-71095790D01*
X156483959Y-71095790D02*
X156531578Y-71048171D01*
X156531578Y-71048171D02*
X156626816Y-71000552D01*
X156626816Y-71000552D02*
X156722054Y-71000552D01*
D11*
X162496895Y-70519925D02*
X162496895Y-70424687D01*
X162496895Y-70424687D02*
X162534990Y-70377068D01*
X162534990Y-70377068D02*
X162611180Y-70329449D01*
X162611180Y-70329449D02*
X162763561Y-70305639D01*
X162763561Y-70305639D02*
X163030228Y-70305639D01*
X163030228Y-70305639D02*
X163182609Y-70329449D01*
X163182609Y-70329449D02*
X163258800Y-70377068D01*
X163258800Y-70377068D02*
X163296895Y-70424687D01*
X163296895Y-70424687D02*
X163296895Y-70519925D01*
X163296895Y-70519925D02*
X163258800Y-70567544D01*
X163258800Y-70567544D02*
X163182609Y-70615163D01*
X163182609Y-70615163D02*
X163030228Y-70638972D01*
X163030228Y-70638972D02*
X162763561Y-70638972D01*
X162763561Y-70638972D02*
X162611180Y-70615163D01*
X162611180Y-70615163D02*
X162534990Y-70567544D01*
X162534990Y-70567544D02*
X162496895Y-70519925D01*
X162877847Y-69924686D02*
X162915942Y-69853258D01*
X162915942Y-69853258D02*
X162954038Y-69829448D01*
X162954038Y-69829448D02*
X163030228Y-69805639D01*
X163030228Y-69805639D02*
X163144514Y-69805639D01*
X163144514Y-69805639D02*
X163220704Y-69829448D01*
X163220704Y-69829448D02*
X163258800Y-69853258D01*
X163258800Y-69853258D02*
X163296895Y-69900877D01*
X163296895Y-69900877D02*
X163296895Y-70091353D01*
X163296895Y-70091353D02*
X162496895Y-70091353D01*
X162496895Y-70091353D02*
X162496895Y-69924686D01*
X162496895Y-69924686D02*
X162534990Y-69877067D01*
X162534990Y-69877067D02*
X162573085Y-69853258D01*
X162573085Y-69853258D02*
X162649276Y-69829448D01*
X162649276Y-69829448D02*
X162725466Y-69829448D01*
X162725466Y-69829448D02*
X162801657Y-69853258D01*
X162801657Y-69853258D02*
X162839752Y-69877067D01*
X162839752Y-69877067D02*
X162877847Y-69924686D01*
X162877847Y-69924686D02*
X162877847Y-70091353D01*
X162496895Y-69448496D02*
X163068323Y-69448496D01*
X163068323Y-69448496D02*
X163182609Y-69472305D01*
X163182609Y-69472305D02*
X163258800Y-69519924D01*
X163258800Y-69519924D02*
X163296895Y-69591353D01*
X163296895Y-69591353D02*
X163296895Y-69638972D01*
D12*
X163069819Y-68758458D02*
X163069819Y-68606077D01*
X163069819Y-68606077D02*
X163117438Y-68529887D01*
X163117438Y-68529887D02*
X163212676Y-68453696D01*
X163212676Y-68453696D02*
X163403152Y-68415601D01*
X163403152Y-68415601D02*
X163736485Y-68415601D01*
X163736485Y-68415601D02*
X163926961Y-68453696D01*
X163926961Y-68453696D02*
X164022200Y-68529887D01*
X164022200Y-68529887D02*
X164069819Y-68606077D01*
X164069819Y-68606077D02*
X164069819Y-68758458D01*
X164069819Y-68758458D02*
X164022200Y-68834649D01*
X164022200Y-68834649D02*
X163926961Y-68910839D01*
X163926961Y-68910839D02*
X163736485Y-68948935D01*
X163736485Y-68948935D02*
X163403152Y-68948935D01*
X163403152Y-68948935D02*
X163212676Y-68910839D01*
X163212676Y-68910839D02*
X163117438Y-68834649D01*
X163117438Y-68834649D02*
X163069819Y-68758458D01*
X163069819Y-68072744D02*
X163879342Y-68072744D01*
X163879342Y-68072744D02*
X163974580Y-68034649D01*
X163974580Y-68034649D02*
X164022200Y-67996554D01*
X164022200Y-67996554D02*
X164069819Y-67920363D01*
X164069819Y-67920363D02*
X164069819Y-67767982D01*
X164069819Y-67767982D02*
X164022200Y-67691792D01*
X164022200Y-67691792D02*
X163974580Y-67653697D01*
X163974580Y-67653697D02*
X163879342Y-67615601D01*
X163879342Y-67615601D02*
X163069819Y-67615601D01*
X163069819Y-67348935D02*
X163069819Y-66891792D01*
X164069819Y-67120364D02*
X163069819Y-67120364D01*
X163117438Y-65491792D02*
X163069819Y-65567982D01*
X163069819Y-65567982D02*
X163069819Y-65682268D01*
X163069819Y-65682268D02*
X163117438Y-65796554D01*
X163117438Y-65796554D02*
X163212676Y-65872744D01*
X163212676Y-65872744D02*
X163307914Y-65910839D01*
X163307914Y-65910839D02*
X163498390Y-65948935D01*
X163498390Y-65948935D02*
X163641247Y-65948935D01*
X163641247Y-65948935D02*
X163831723Y-65910839D01*
X163831723Y-65910839D02*
X163926961Y-65872744D01*
X163926961Y-65872744D02*
X164022200Y-65796554D01*
X164022200Y-65796554D02*
X164069819Y-65682268D01*
X164069819Y-65682268D02*
X164069819Y-65606077D01*
X164069819Y-65606077D02*
X164022200Y-65491792D01*
X164022200Y-65491792D02*
X163974580Y-65453696D01*
X163974580Y-65453696D02*
X163641247Y-65453696D01*
X163641247Y-65453696D02*
X163641247Y-65606077D01*
X164069819Y-65110839D02*
X163069819Y-65110839D01*
X163069819Y-65110839D02*
X164069819Y-64653696D01*
X164069819Y-64653696D02*
X163069819Y-64653696D01*
X164069819Y-64272744D02*
X163069819Y-64272744D01*
X163069819Y-64272744D02*
X163069819Y-64082268D01*
X163069819Y-64082268D02*
X163117438Y-63967982D01*
X163117438Y-63967982D02*
X163212676Y-63891792D01*
X163212676Y-63891792D02*
X163307914Y-63853697D01*
X163307914Y-63853697D02*
X163498390Y-63815601D01*
X163498390Y-63815601D02*
X163641247Y-63815601D01*
X163641247Y-63815601D02*
X163831723Y-63853697D01*
X163831723Y-63853697D02*
X163926961Y-63891792D01*
X163926961Y-63891792D02*
X164022200Y-63967982D01*
X164022200Y-63967982D02*
X164069819Y-64082268D01*
X164069819Y-64082268D02*
X164069819Y-64272744D01*
X163069819Y-63025125D02*
X164069819Y-62758458D01*
X164069819Y-62758458D02*
X163069819Y-62491792D01*
X163974580Y-61767982D02*
X164022200Y-61806078D01*
X164022200Y-61806078D02*
X164069819Y-61920363D01*
X164069819Y-61920363D02*
X164069819Y-61996554D01*
X164069819Y-61996554D02*
X164022200Y-62110840D01*
X164022200Y-62110840D02*
X163926961Y-62187030D01*
X163926961Y-62187030D02*
X163831723Y-62225125D01*
X163831723Y-62225125D02*
X163641247Y-62263221D01*
X163641247Y-62263221D02*
X163498390Y-62263221D01*
X163498390Y-62263221D02*
X163307914Y-62225125D01*
X163307914Y-62225125D02*
X163212676Y-62187030D01*
X163212676Y-62187030D02*
X163117438Y-62110840D01*
X163117438Y-62110840D02*
X163069819Y-61996554D01*
X163069819Y-61996554D02*
X163069819Y-61920363D01*
X163069819Y-61920363D02*
X163117438Y-61806078D01*
X163117438Y-61806078D02*
X163165057Y-61767982D01*
X163974580Y-60967982D02*
X164022200Y-61006078D01*
X164022200Y-61006078D02*
X164069819Y-61120363D01*
X164069819Y-61120363D02*
X164069819Y-61196554D01*
X164069819Y-61196554D02*
X164022200Y-61310840D01*
X164022200Y-61310840D02*
X163926961Y-61387030D01*
X163926961Y-61387030D02*
X163831723Y-61425125D01*
X163831723Y-61425125D02*
X163641247Y-61463221D01*
X163641247Y-61463221D02*
X163498390Y-61463221D01*
X163498390Y-61463221D02*
X163307914Y-61425125D01*
X163307914Y-61425125D02*
X163212676Y-61387030D01*
X163212676Y-61387030D02*
X163117438Y-61310840D01*
X163117438Y-61310840D02*
X163069819Y-61196554D01*
X163069819Y-61196554D02*
X163069819Y-61120363D01*
X163069819Y-61120363D02*
X163117438Y-61006078D01*
X163117438Y-61006078D02*
X163165057Y-60967982D01*
X160233333Y-58454819D02*
X159900000Y-57978628D01*
X159661905Y-58454819D02*
X159661905Y-57454819D01*
X159661905Y-57454819D02*
X160042857Y-57454819D01*
X160042857Y-57454819D02*
X160138095Y-57502438D01*
X160138095Y-57502438D02*
X160185714Y-57550057D01*
X160185714Y-57550057D02*
X160233333Y-57645295D01*
X160233333Y-57645295D02*
X160233333Y-57788152D01*
X160233333Y-57788152D02*
X160185714Y-57883390D01*
X160185714Y-57883390D02*
X160138095Y-57931009D01*
X160138095Y-57931009D02*
X160042857Y-57978628D01*
X160042857Y-57978628D02*
X159661905Y-57978628D01*
X161090476Y-57788152D02*
X161090476Y-58454819D01*
X160852381Y-57407200D02*
X160614286Y-58121485D01*
X160614286Y-58121485D02*
X161233333Y-58121485D01*
X147833333Y-59054819D02*
X147500000Y-58578628D01*
X147261905Y-59054819D02*
X147261905Y-58054819D01*
X147261905Y-58054819D02*
X147642857Y-58054819D01*
X147642857Y-58054819D02*
X147738095Y-58102438D01*
X147738095Y-58102438D02*
X147785714Y-58150057D01*
X147785714Y-58150057D02*
X147833333Y-58245295D01*
X147833333Y-58245295D02*
X147833333Y-58388152D01*
X147833333Y-58388152D02*
X147785714Y-58483390D01*
X147785714Y-58483390D02*
X147738095Y-58531009D01*
X147738095Y-58531009D02*
X147642857Y-58578628D01*
X147642857Y-58578628D02*
X147261905Y-58578628D01*
X148166667Y-58054819D02*
X148785714Y-58054819D01*
X148785714Y-58054819D02*
X148452381Y-58435771D01*
X148452381Y-58435771D02*
X148595238Y-58435771D01*
X148595238Y-58435771D02*
X148690476Y-58483390D01*
X148690476Y-58483390D02*
X148738095Y-58531009D01*
X148738095Y-58531009D02*
X148785714Y-58626247D01*
X148785714Y-58626247D02*
X148785714Y-58864342D01*
X148785714Y-58864342D02*
X148738095Y-58959580D01*
X148738095Y-58959580D02*
X148690476Y-59007200D01*
X148690476Y-59007200D02*
X148595238Y-59054819D01*
X148595238Y-59054819D02*
X148309524Y-59054819D01*
X148309524Y-59054819D02*
X148214286Y-59007200D01*
X148214286Y-59007200D02*
X148166667Y-58959580D01*
X150433333Y-58654819D02*
X150100000Y-58178628D01*
X149861905Y-58654819D02*
X149861905Y-57654819D01*
X149861905Y-57654819D02*
X150242857Y-57654819D01*
X150242857Y-57654819D02*
X150338095Y-57702438D01*
X150338095Y-57702438D02*
X150385714Y-57750057D01*
X150385714Y-57750057D02*
X150433333Y-57845295D01*
X150433333Y-57845295D02*
X150433333Y-57988152D01*
X150433333Y-57988152D02*
X150385714Y-58083390D01*
X150385714Y-58083390D02*
X150338095Y-58131009D01*
X150338095Y-58131009D02*
X150242857Y-58178628D01*
X150242857Y-58178628D02*
X149861905Y-58178628D01*
X150814286Y-57750057D02*
X150861905Y-57702438D01*
X150861905Y-57702438D02*
X150957143Y-57654819D01*
X150957143Y-57654819D02*
X151195238Y-57654819D01*
X151195238Y-57654819D02*
X151290476Y-57702438D01*
X151290476Y-57702438D02*
X151338095Y-57750057D01*
X151338095Y-57750057D02*
X151385714Y-57845295D01*
X151385714Y-57845295D02*
X151385714Y-57940533D01*
X151385714Y-57940533D02*
X151338095Y-58083390D01*
X151338095Y-58083390D02*
X150766667Y-58654819D01*
X150766667Y-58654819D02*
X151385714Y-58654819D01*
X146433333Y-71854819D02*
X146100000Y-71378628D01*
X145861905Y-71854819D02*
X145861905Y-70854819D01*
X145861905Y-70854819D02*
X146242857Y-70854819D01*
X146242857Y-70854819D02*
X146338095Y-70902438D01*
X146338095Y-70902438D02*
X146385714Y-70950057D01*
X146385714Y-70950057D02*
X146433333Y-71045295D01*
X146433333Y-71045295D02*
X146433333Y-71188152D01*
X146433333Y-71188152D02*
X146385714Y-71283390D01*
X146385714Y-71283390D02*
X146338095Y-71331009D01*
X146338095Y-71331009D02*
X146242857Y-71378628D01*
X146242857Y-71378628D02*
X145861905Y-71378628D01*
X147385714Y-71854819D02*
X146814286Y-71854819D01*
X147100000Y-71854819D02*
X147100000Y-70854819D01*
X147100000Y-70854819D02*
X147004762Y-70997676D01*
X147004762Y-70997676D02*
X146909524Y-71092914D01*
X146909524Y-71092914D02*
X146814286Y-71140533D01*
X141854819Y-68938094D02*
X140854819Y-68938094D01*
X140854819Y-68938094D02*
X140854819Y-68699999D01*
X140854819Y-68699999D02*
X140902438Y-68557142D01*
X140902438Y-68557142D02*
X140997676Y-68461904D01*
X140997676Y-68461904D02*
X141092914Y-68414285D01*
X141092914Y-68414285D02*
X141283390Y-68366666D01*
X141283390Y-68366666D02*
X141426247Y-68366666D01*
X141426247Y-68366666D02*
X141616723Y-68414285D01*
X141616723Y-68414285D02*
X141711961Y-68461904D01*
X141711961Y-68461904D02*
X141807200Y-68557142D01*
X141807200Y-68557142D02*
X141854819Y-68699999D01*
X141854819Y-68699999D02*
X141854819Y-68938094D01*
X140950057Y-67985713D02*
X140902438Y-67938094D01*
X140902438Y-67938094D02*
X140854819Y-67842856D01*
X140854819Y-67842856D02*
X140854819Y-67604761D01*
X140854819Y-67604761D02*
X140902438Y-67509523D01*
X140902438Y-67509523D02*
X140950057Y-67461904D01*
X140950057Y-67461904D02*
X141045295Y-67414285D01*
X141045295Y-67414285D02*
X141140533Y-67414285D01*
X141140533Y-67414285D02*
X141283390Y-67461904D01*
X141283390Y-67461904D02*
X141854819Y-68033332D01*
X141854819Y-68033332D02*
X141854819Y-67414285D01*
X141854819Y-61188094D02*
X140854819Y-61188094D01*
X140854819Y-61188094D02*
X140854819Y-60949999D01*
X140854819Y-60949999D02*
X140902438Y-60807142D01*
X140902438Y-60807142D02*
X140997676Y-60711904D01*
X140997676Y-60711904D02*
X141092914Y-60664285D01*
X141092914Y-60664285D02*
X141283390Y-60616666D01*
X141283390Y-60616666D02*
X141426247Y-60616666D01*
X141426247Y-60616666D02*
X141616723Y-60664285D01*
X141616723Y-60664285D02*
X141711961Y-60711904D01*
X141711961Y-60711904D02*
X141807200Y-60807142D01*
X141807200Y-60807142D02*
X141854819Y-60949999D01*
X141854819Y-60949999D02*
X141854819Y-61188094D01*
X141854819Y-59664285D02*
X141854819Y-60235713D01*
X141854819Y-59949999D02*
X140854819Y-59949999D01*
X140854819Y-59949999D02*
X140997676Y-60045237D01*
X140997676Y-60045237D02*
X141092914Y-60140475D01*
X141092914Y-60140475D02*
X141140533Y-60235713D01*
X153254819Y-65561904D02*
X154064342Y-65561904D01*
X154064342Y-65561904D02*
X154159580Y-65514285D01*
X154159580Y-65514285D02*
X154207200Y-65466666D01*
X154207200Y-65466666D02*
X154254819Y-65371428D01*
X154254819Y-65371428D02*
X154254819Y-65180952D01*
X154254819Y-65180952D02*
X154207200Y-65085714D01*
X154207200Y-65085714D02*
X154159580Y-65038095D01*
X154159580Y-65038095D02*
X154064342Y-64990476D01*
X154064342Y-64990476D02*
X153254819Y-64990476D01*
X154254819Y-63990476D02*
X154254819Y-64561904D01*
X154254819Y-64276190D02*
X153254819Y-64276190D01*
X153254819Y-64276190D02*
X153397676Y-64371428D01*
X153397676Y-64371428D02*
X153492914Y-64466666D01*
X153492914Y-64466666D02*
X153540533Y-64561904D01*
X162854819Y-59933333D02*
X163569104Y-59933333D01*
X163569104Y-59933333D02*
X163711961Y-59980952D01*
X163711961Y-59980952D02*
X163807200Y-60076190D01*
X163807200Y-60076190D02*
X163854819Y-60219047D01*
X163854819Y-60219047D02*
X163854819Y-60314285D01*
X163854819Y-58933333D02*
X163854819Y-59504761D01*
X163854819Y-59219047D02*
X162854819Y-59219047D01*
X162854819Y-59219047D02*
X162997676Y-59314285D01*
X162997676Y-59314285D02*
X163092914Y-59409523D01*
X163092914Y-59409523D02*
X163140533Y-59504761D01*
X142254819Y-64995238D02*
X141778628Y-65328571D01*
X142254819Y-65566666D02*
X141254819Y-65566666D01*
X141254819Y-65566666D02*
X141254819Y-65185714D01*
X141254819Y-65185714D02*
X141302438Y-65090476D01*
X141302438Y-65090476D02*
X141350057Y-65042857D01*
X141350057Y-65042857D02*
X141445295Y-64995238D01*
X141445295Y-64995238D02*
X141588152Y-64995238D01*
X141588152Y-64995238D02*
X141683390Y-65042857D01*
X141683390Y-65042857D02*
X141731009Y-65090476D01*
X141731009Y-65090476D02*
X141778628Y-65185714D01*
X141778628Y-65185714D02*
X141778628Y-65566666D01*
X141254819Y-64709523D02*
X142254819Y-64376190D01*
X142254819Y-64376190D02*
X141254819Y-64042857D01*
X142254819Y-63185714D02*
X142254819Y-63757142D01*
X142254819Y-63471428D02*
X141254819Y-63471428D01*
X141254819Y-63471428D02*
X141397676Y-63566666D01*
X141397676Y-63566666D02*
X141492914Y-63661904D01*
X141492914Y-63661904D02*
X141540533Y-63757142D01*
D13*
%TO.C,R4*%
X157338922Y-58710000D02*
X157856078Y-58710000D01*
X157338922Y-57290000D02*
X157856078Y-57290000D01*
%TO.C,R3*%
X144941422Y-59310000D02*
X145458578Y-59310000D01*
X144941422Y-57890000D02*
X145458578Y-57890000D01*
%TO.C,R2*%
X153116422Y-58724000D02*
X153633578Y-58724000D01*
X153116422Y-57304000D02*
X153633578Y-57304000D01*
%TO.C,R1*%
X144061078Y-70690000D02*
X143543922Y-70690000D01*
X144061078Y-72110000D02*
X143543922Y-72110000D01*
%TO.C,D4*%
X162600000Y-60100000D02*
X162600000Y-59100000D01*
%TO.C,D2*%
X139045000Y-65370000D02*
X135955000Y-65370000D01*
X139044830Y-65370000D02*
G75*
G02*
X137500000Y-70920000I-1544830J-2560000D01*
G01*
X137500000Y-70920000D02*
G75*
G02*
X135955170Y-65370000I0J2990000D01*
G01*
X140000000Y-67930000D02*
G75*
G02*
X135000000Y-67930000I-2500000J0D01*
G01*
X135000000Y-67930000D02*
G75*
G02*
X140000000Y-67930000I2500000J0D01*
G01*
%TO.C,D1*%
X139045000Y-57890000D02*
X135955000Y-57890000D01*
X139044830Y-57890000D02*
G75*
G02*
X137500000Y-63440000I-1544830J-2560000D01*
G01*
X137500000Y-63440000D02*
G75*
G02*
X135955170Y-57890000I0J2990000D01*
G01*
X140000000Y-60450000D02*
G75*
G02*
X135000000Y-60450000I-2500000J0D01*
G01*
X135000000Y-60450000D02*
G75*
G02*
X140000000Y-60450000I2500000J0D01*
G01*
%TO.C,U1*%
X151410000Y-59820000D02*
X151410000Y-70100000D01*
X151410000Y-70100000D02*
X156310000Y-70100000D01*
X152860000Y-59820000D02*
X151410000Y-59820000D01*
X156310000Y-59820000D02*
X154860000Y-59820000D01*
X156310000Y-70100000D02*
X156310000Y-59820000D01*
X154860000Y-59820000D02*
G75*
G02*
X152860000Y-59820000I-1000000J0D01*
G01*
%TO.C,D3*%
X159412500Y-69500000D02*
X159412500Y-70500000D01*
%TO.C,J1*%
X159770000Y-60870000D02*
X161150000Y-60870000D01*
X159770000Y-62250000D02*
X159770000Y-60870000D01*
X159770000Y-63520000D02*
X159770000Y-68710000D01*
X159770000Y-63520000D02*
X162530000Y-63520000D01*
X159770000Y-68710000D02*
X162530000Y-68710000D01*
X162530000Y-63520000D02*
X162530000Y-68710000D01*
%TO.C,RV1*%
X142680000Y-60165000D02*
X147730000Y-60165000D01*
X142680000Y-69915000D02*
X142680000Y-60165000D01*
X147730000Y-60165000D02*
X147730000Y-69915000D01*
X147730000Y-69915000D02*
X142680000Y-69915000D01*
%TD*%
M02*
