%TF.GenerationSoftware,KiCad,Pcbnew,9.0.6*%
%TF.CreationDate,2026-04-12T15:45:06+05:30*%
%TF.ProjectId,programmig_circuit,70726f67-7261-46d6-9d69-675f63697263,rev?*%
%TF.SameCoordinates,Original*%
%TF.FileFunction,Copper,L2,Bot*%
%TF.FilePolarity,Positive*%
%FSLAX46Y46*%
G04 Gerber Fmt 4.6, Leading zero omitted, Abs format (unit mm)*
G04 Created by KiCad (PCBNEW 9.0.6) date 2026-04-12 15:45:06*
%MOMM*%
%LPD*%
G01*
G04 APERTURE LIST*
%TA.AperFunction,ComponentPad*%
%ADD10R,1.700000X1.700000*%
%TD*%
%TA.AperFunction,ComponentPad*%
%ADD11C,1.700000*%
%TD*%
%TA.AperFunction,ComponentPad*%
%ADD12C,3.800000*%
%TD*%
%TA.AperFunction,ViaPad*%
%ADD13C,0.600000*%
%TD*%
%TA.AperFunction,Conductor*%
%ADD14C,0.200000*%
%TD*%
G04 APERTURE END LIST*
D10*
%TO.P,J1,1,Pin_1*%
%TO.N,Net-(J1-Pin_1)*%
X129200000Y-90260000D03*
D11*
%TO.P,J1,2,Pin_2*%
%TO.N,Net-(D2-A)*%
X129200000Y-92800000D03*
%TO.P,J1,3,Pin_3*%
%TO.N,Net-(J1-Pin_3)*%
X129200000Y-95340000D03*
%TO.P,J1,4,Pin_4*%
%TO.N,/PB3*%
X129200000Y-97880000D03*
%TO.P,J1,5,Pin_5*%
%TO.N,/PB4*%
X129200000Y-100420000D03*
%TO.P,J1,6,Pin_6*%
%TO.N,Net-(J1-Pin_6)*%
X129200000Y-102960000D03*
%TD*%
D12*
%TO.P,H1,1,1*%
%TO.N,GND*%
X115960000Y-91710000D03*
%TD*%
D10*
%TO.P,J2,1,Pin_1*%
%TO.N,/VIN*%
X115790000Y-102530000D03*
D11*
%TO.P,J2,2,Pin_2*%
%TO.N,GND*%
X118330000Y-102530000D03*
%TO.P,J2,3,Pin_3*%
%TO.N,+5V*%
X120870000Y-102530000D03*
%TD*%
D12*
%TO.P,H2,1,1*%
%TO.N,GND*%
X125120000Y-102570000D03*
%TD*%
D13*
%TO.N,GND*%
X103870000Y-103880000D03*
X121355607Y-93144393D03*
X111800000Y-103570000D03*
X113280000Y-94090000D03*
X108516295Y-98089229D03*
X125990000Y-93370000D03*
X123150000Y-91600000D03*
X122906050Y-89660162D03*
X120271343Y-93757187D03*
%TO.N,Net-(J4-D-)*%
X108230000Y-91380000D03*
X108831765Y-96611765D03*
%TO.N,/PB4*%
X122114485Y-93735515D03*
%TO.N,Net-(D2-A)*%
X113410000Y-95790000D03*
X124590000Y-96650000D03*
%TO.N,Net-(J1-Pin_1)*%
X120695607Y-92484393D03*
%TO.N,Net-(D3-K)*%
X108600000Y-104330000D03*
X112985999Y-95111599D03*
%TO.N,/PB4*%
X118340000Y-95900000D03*
X113500000Y-93100000D03*
%TO.N,/PB3*%
X111320036Y-89188144D03*
X122510000Y-97350000D03*
%TO.N,Net-(J1-Pin_6)*%
X123975735Y-99715735D03*
%TO.N,Net-(D3-A)*%
X122870000Y-99680000D03*
X114440000Y-100520000D03*
%TD*%
D14*
%TO.N,GND*%
X126661000Y-104111000D02*
X125120000Y-102570000D01*
X129676760Y-104111000D02*
X126661000Y-104111000D01*
X131153000Y-102634760D02*
X129676760Y-104111000D01*
X131153000Y-89911000D02*
X131153000Y-102634760D01*
X130351000Y-89109000D02*
X131153000Y-89911000D01*
X122521000Y-89109000D02*
X130351000Y-89109000D01*
X122606212Y-89960000D02*
X121710000Y-89960000D01*
X121690000Y-89940000D02*
X122521000Y-89109000D01*
X121710000Y-89960000D02*
X121690000Y-89940000D01*
X122906050Y-89660162D02*
X122606212Y-89960000D01*
X116490726Y-104599274D02*
X118360000Y-102730000D01*
X112829274Y-104599274D02*
X116490726Y-104599274D01*
X111800000Y-103570000D02*
X112829274Y-104599274D01*
%TO.N,Net-(D3-K)*%
X112510000Y-95587598D02*
X112985999Y-95111599D01*
X112510000Y-99320000D02*
X112510000Y-95587598D01*
X108600000Y-103230000D02*
X112510000Y-99320000D01*
X108600000Y-104330000D02*
X108600000Y-103230000D01*
%TO.N,/PB4*%
X116530000Y-95900000D02*
X118340000Y-95900000D01*
X113740000Y-93340000D02*
X113970000Y-93340000D01*
X113970000Y-93340000D02*
X116530000Y-95900000D01*
X113500000Y-93100000D02*
X113740000Y-93340000D01*
%TO.N,GND*%
X118007187Y-93757187D02*
X115960000Y-91710000D01*
X120271343Y-93757187D02*
X118007187Y-93757187D01*
%TO.N,Net-(J4-D-)*%
X108230000Y-96010000D02*
X108230000Y-91380000D01*
X108831765Y-96611765D02*
X108230000Y-96010000D01*
%TO.N,/PB4*%
X130752000Y-92724240D02*
X129676760Y-91649000D01*
X130752000Y-98868000D02*
X130752000Y-92724240D01*
X129200000Y-100420000D02*
X130752000Y-98868000D01*
X129676760Y-91649000D02*
X124201000Y-91649000D01*
X124201000Y-91649000D02*
X122114485Y-93735515D01*
%TO.N,Net-(D2-A)*%
X130351000Y-97403240D02*
X129597760Y-96650000D01*
X130351000Y-98356760D02*
X130351000Y-97403240D01*
X116651000Y-99031000D02*
X129676760Y-99031000D01*
X129676760Y-99031000D02*
X130351000Y-98356760D01*
X129597760Y-96650000D02*
X124590000Y-96650000D01*
X113410000Y-95790000D02*
X116651000Y-99031000D01*
X125350000Y-96650000D02*
X124590000Y-96650000D01*
X129200000Y-92800000D02*
X125350000Y-96650000D01*
%TO.N,Net-(J1-Pin_1)*%
X120695607Y-92484393D02*
X122920000Y-90260000D01*
X122920000Y-90260000D02*
X129200000Y-90260000D01*
%TO.N,/PB3*%
X122510000Y-95147315D02*
X122510000Y-97350000D01*
X116550829Y-89188144D02*
X122510000Y-95147315D01*
X111320036Y-89188144D02*
X116550829Y-89188144D01*
X123040000Y-97880000D02*
X122510000Y-97350000D01*
X129200000Y-97880000D02*
X123040000Y-97880000D01*
%TO.N,Net-(J1-Pin_6)*%
X125955735Y-99715735D02*
X129200000Y-102960000D01*
X123975735Y-99715735D02*
X125955735Y-99715735D01*
%TO.N,Net-(D3-A)*%
X122430000Y-100520000D02*
X114440000Y-100520000D01*
X122870000Y-99680000D02*
X122870000Y-100080000D01*
X122870000Y-100080000D02*
X122430000Y-100520000D01*
%TD*%
%TA.AperFunction,Conductor*%
%TO.N,GND*%
G36*
X110480723Y-88901385D02*
G01*
X110526491Y-88954178D01*
X110536452Y-89023334D01*
X110535328Y-89029908D01*
X110519536Y-89109302D01*
X110519536Y-89266990D01*
X110550297Y-89421633D01*
X110550300Y-89421645D01*
X110610638Y-89567316D01*
X110610645Y-89567329D01*
X110698246Y-89698432D01*
X110698249Y-89698436D01*
X110809743Y-89809930D01*
X110809747Y-89809933D01*
X110940850Y-89897534D01*
X110940863Y-89897541D01*
X111086534Y-89957879D01*
X111086539Y-89957881D01*
X111241189Y-89988643D01*
X111241192Y-89988644D01*
X111241194Y-89988644D01*
X111398880Y-89988644D01*
X111398881Y-89988643D01*
X111553533Y-89957881D01*
X111699215Y-89897538D01*
X111699221Y-89897534D01*
X111830911Y-89809542D01*
X111897589Y-89788664D01*
X111899802Y-89788644D01*
X116250732Y-89788644D01*
X116317771Y-89808329D01*
X116338413Y-89824963D01*
X121873181Y-95359731D01*
X121906666Y-95421054D01*
X121909500Y-95447412D01*
X121909500Y-96770234D01*
X121889815Y-96837273D01*
X121888602Y-96839125D01*
X121800609Y-96970814D01*
X121800602Y-96970827D01*
X121740264Y-97116498D01*
X121740261Y-97116510D01*
X121709500Y-97271153D01*
X121709500Y-97428846D01*
X121740261Y-97583489D01*
X121740264Y-97583501D01*
X121800602Y-97729172D01*
X121800609Y-97729185D01*
X121888210Y-97860288D01*
X121888213Y-97860292D01*
X121999707Y-97971786D01*
X121999711Y-97971789D01*
X122130814Y-98059390D01*
X122130827Y-98059397D01*
X122276498Y-98119735D01*
X122276503Y-98119737D01*
X122341147Y-98132595D01*
X122431849Y-98150638D01*
X122448605Y-98159402D01*
X122467085Y-98163423D01*
X122492123Y-98182167D01*
X122493760Y-98183023D01*
X122495339Y-98184574D01*
X122529584Y-98218819D01*
X122563069Y-98280142D01*
X122558085Y-98349834D01*
X122516213Y-98405767D01*
X122450749Y-98430184D01*
X122441903Y-98430500D01*
X116951097Y-98430500D01*
X116884058Y-98410815D01*
X116863416Y-98394181D01*
X114244574Y-95775339D01*
X114211089Y-95714016D01*
X114210638Y-95711849D01*
X114179738Y-95556510D01*
X114179737Y-95556503D01*
X114164954Y-95520814D01*
X114119397Y-95410827D01*
X114119390Y-95410814D01*
X114031789Y-95279711D01*
X114031786Y-95279707D01*
X113920292Y-95168213D01*
X113920288Y-95168210D01*
X113839771Y-95114410D01*
X113794966Y-95060798D01*
X113787045Y-95035499D01*
X113755737Y-94878109D01*
X113755737Y-94878107D01*
X113755736Y-94878102D01*
X113755734Y-94878097D01*
X113695396Y-94732426D01*
X113695389Y-94732413D01*
X113607788Y-94601310D01*
X113607785Y-94601306D01*
X113496291Y-94489812D01*
X113496287Y-94489809D01*
X113365184Y-94402208D01*
X113365171Y-94402201D01*
X113219500Y-94341863D01*
X113219488Y-94341860D01*
X113064844Y-94311099D01*
X113064841Y-94311099D01*
X112907157Y-94311099D01*
X112907154Y-94311099D01*
X112752509Y-94341860D01*
X112752497Y-94341863D01*
X112606826Y-94402201D01*
X112606813Y-94402208D01*
X112475710Y-94489809D01*
X112475706Y-94489812D01*
X112364212Y-94601306D01*
X112364209Y-94601310D01*
X112276608Y-94732413D01*
X112276601Y-94732426D01*
X112216263Y-94878097D01*
X112216260Y-94878107D01*
X112185361Y-95033447D01*
X112176597Y-95050200D01*
X112172579Y-95068677D01*
X112153833Y-95093718D01*
X112152976Y-95095358D01*
X112151430Y-95096932D01*
X112141287Y-95107074D01*
X112141285Y-95107075D01*
X112141284Y-95107078D01*
X112029481Y-95218880D01*
X112029475Y-95218888D01*
X111982936Y-95299498D01*
X111982936Y-95299499D01*
X111950423Y-95355812D01*
X111950423Y-95355813D01*
X111909499Y-95508541D01*
X111909499Y-95508543D01*
X111909499Y-95676644D01*
X111909500Y-95676657D01*
X111909500Y-99019902D01*
X111889815Y-99086941D01*
X111873181Y-99107583D01*
X108119481Y-102861282D01*
X108119479Y-102861285D01*
X108069361Y-102948094D01*
X108069359Y-102948096D01*
X108040425Y-102998209D01*
X108040424Y-102998210D01*
X108026972Y-103048414D01*
X107999499Y-103150943D01*
X107999499Y-103150945D01*
X107999499Y-103319046D01*
X107999500Y-103319059D01*
X107999500Y-103750234D01*
X107979815Y-103817273D01*
X107978602Y-103819125D01*
X107890609Y-103950814D01*
X107890602Y-103950827D01*
X107830264Y-104096498D01*
X107830261Y-104096510D01*
X107799500Y-104251153D01*
X107799500Y-104408846D01*
X107830261Y-104563490D01*
X107830945Y-104565745D01*
X107830956Y-104566983D01*
X107831451Y-104569472D01*
X107830978Y-104569565D01*
X107831566Y-104635612D01*
X107794317Y-104694724D01*
X107731022Y-104724313D01*
X107712628Y-104725737D01*
X102891905Y-104739154D01*
X102891782Y-104739154D01*
X102880831Y-104739173D01*
X102877623Y-104738369D01*
X102820497Y-104739281D01*
X102819587Y-104739283D01*
X102819049Y-104739126D01*
X102802245Y-104738096D01*
X102728979Y-104727883D01*
X102692444Y-104716860D01*
X102634523Y-104689060D01*
X102603070Y-104667451D01*
X102556345Y-104623354D01*
X102532952Y-104593203D01*
X102525626Y-104579962D01*
X102501847Y-104536983D01*
X102488732Y-104501149D01*
X102474969Y-104431967D01*
X102472593Y-104408982D01*
X102472391Y-104388197D01*
X102397342Y-96656448D01*
X102345360Y-91301153D01*
X107429500Y-91301153D01*
X107429500Y-91458846D01*
X107460261Y-91613489D01*
X107460264Y-91613501D01*
X107520602Y-91759172D01*
X107520609Y-91759185D01*
X107608602Y-91890874D01*
X107629480Y-91957551D01*
X107629500Y-91959765D01*
X107629500Y-95923330D01*
X107629499Y-95923348D01*
X107629499Y-96089054D01*
X107629498Y-96089054D01*
X107629499Y-96089057D01*
X107667958Y-96232586D01*
X107670424Y-96241787D01*
X107670425Y-96241789D01*
X107671158Y-96243059D01*
X107671161Y-96243063D01*
X107749477Y-96378712D01*
X107749481Y-96378717D01*
X107868349Y-96497585D01*
X107868355Y-96497590D01*
X107997190Y-96626425D01*
X108030675Y-96687748D01*
X108031126Y-96689914D01*
X108062026Y-96845256D01*
X108062029Y-96845266D01*
X108122367Y-96990937D01*
X108122374Y-96990950D01*
X108209975Y-97122053D01*
X108209978Y-97122057D01*
X108321472Y-97233551D01*
X108321476Y-97233554D01*
X108452579Y-97321155D01*
X108452592Y-97321162D01*
X108598263Y-97381500D01*
X108598268Y-97381502D01*
X108752918Y-97412264D01*
X108752921Y-97412265D01*
X108752923Y-97412265D01*
X108910609Y-97412265D01*
X108910610Y-97412264D01*
X109065262Y-97381502D01*
X109210944Y-97321159D01*
X109342054Y-97233554D01*
X109453554Y-97122054D01*
X109541159Y-96990944D01*
X109601502Y-96845262D01*
X109632265Y-96690607D01*
X109632265Y-96532923D01*
X109632265Y-96532920D01*
X109632264Y-96532918D01*
X109630050Y-96521786D01*
X109601502Y-96378268D01*
X109591659Y-96354505D01*
X109541162Y-96232592D01*
X109541155Y-96232579D01*
X109453554Y-96101476D01*
X109453551Y-96101472D01*
X109342057Y-95989978D01*
X109342053Y-95989975D01*
X109210950Y-95902374D01*
X109210937Y-95902367D01*
X109065266Y-95842029D01*
X109065256Y-95842026D01*
X108930308Y-95815183D01*
X108868397Y-95782798D01*
X108833823Y-95722082D01*
X108830500Y-95693566D01*
X108830500Y-93021153D01*
X112699500Y-93021153D01*
X112699500Y-93178846D01*
X112730261Y-93333489D01*
X112730264Y-93333501D01*
X112790602Y-93479172D01*
X112790609Y-93479185D01*
X112878210Y-93610288D01*
X112878213Y-93610292D01*
X112989707Y-93721786D01*
X112989711Y-93721789D01*
X113120814Y-93809390D01*
X113120827Y-93809397D01*
X113266498Y-93869735D01*
X113266503Y-93869737D01*
X113421153Y-93900499D01*
X113421156Y-93900500D01*
X113421158Y-93900500D01*
X113495334Y-93900500D01*
X113523029Y-93903632D01*
X113525236Y-93904137D01*
X113660942Y-93940500D01*
X113660943Y-93940500D01*
X113683929Y-93940500D01*
X113697598Y-93943632D01*
X113716336Y-93954134D01*
X113736942Y-93960185D01*
X113757583Y-93976818D01*
X116161284Y-96380520D01*
X116161286Y-96380521D01*
X116161290Y-96380524D01*
X116223621Y-96416510D01*
X116298216Y-96459577D01*
X116450943Y-96500501D01*
X116450945Y-96500501D01*
X116616654Y-96500501D01*
X116616670Y-96500500D01*
X117760234Y-96500500D01*
X117827273Y-96520185D01*
X117829125Y-96521398D01*
X117960814Y-96609390D01*
X117960827Y-96609397D01*
X118106498Y-96669735D01*
X118106503Y-96669737D01*
X118247092Y-96697702D01*
X118261153Y-96700499D01*
X118261156Y-96700500D01*
X118261158Y-96700500D01*
X118418844Y-96700500D01*
X118418845Y-96700499D01*
X118573497Y-96669737D01*
X118719179Y-96609394D01*
X118850289Y-96521789D01*
X118961789Y-96410289D01*
X119049394Y-96279179D01*
X119052854Y-96270827D01*
X119107163Y-96139711D01*
X119109737Y-96133497D01*
X119140500Y-95978842D01*
X119140500Y-95821158D01*
X119140500Y-95821155D01*
X119140499Y-95821153D01*
X119115120Y-95693566D01*
X119109737Y-95666503D01*
X119064172Y-95556498D01*
X119049397Y-95520827D01*
X119049390Y-95520814D01*
X118961789Y-95389711D01*
X118961786Y-95389707D01*
X118850292Y-95278213D01*
X118850288Y-95278210D01*
X118719185Y-95190609D01*
X118719172Y-95190602D01*
X118573501Y-95130264D01*
X118573489Y-95130261D01*
X118418845Y-95099500D01*
X118418842Y-95099500D01*
X118261158Y-95099500D01*
X118261155Y-95099500D01*
X118106510Y-95130261D01*
X118106498Y-95130264D01*
X117960827Y-95190602D01*
X117960814Y-95190609D01*
X117829125Y-95278602D01*
X117762447Y-95299480D01*
X117760234Y-95299500D01*
X116830098Y-95299500D01*
X116763059Y-95279815D01*
X116742417Y-95263181D01*
X114457590Y-92978355D01*
X114457588Y-92978352D01*
X114338717Y-92859481D01*
X114338712Y-92859477D01*
X114280686Y-92825976D01*
X114232470Y-92775409D01*
X114228125Y-92766041D01*
X114209397Y-92720827D01*
X114209390Y-92720814D01*
X114121789Y-92589711D01*
X114121786Y-92589707D01*
X114010292Y-92478213D01*
X114010288Y-92478210D01*
X113879185Y-92390609D01*
X113879172Y-92390602D01*
X113733501Y-92330264D01*
X113733489Y-92330261D01*
X113578845Y-92299500D01*
X113578842Y-92299500D01*
X113421158Y-92299500D01*
X113421155Y-92299500D01*
X113266510Y-92330261D01*
X113266498Y-92330264D01*
X113120827Y-92390602D01*
X113120814Y-92390609D01*
X112989711Y-92478210D01*
X112989707Y-92478213D01*
X112878213Y-92589707D01*
X112878210Y-92589711D01*
X112790609Y-92720814D01*
X112790602Y-92720827D01*
X112730264Y-92866498D01*
X112730261Y-92866510D01*
X112699500Y-93021153D01*
X108830500Y-93021153D01*
X108830500Y-91959765D01*
X108850185Y-91892726D01*
X108851398Y-91890874D01*
X108870288Y-91862604D01*
X108939394Y-91759179D01*
X108999737Y-91613497D01*
X109030500Y-91458842D01*
X109030500Y-91301158D01*
X109030500Y-91301155D01*
X109030499Y-91301153D01*
X109013856Y-91217483D01*
X108999737Y-91146503D01*
X108988080Y-91118360D01*
X108939397Y-91000827D01*
X108939390Y-91000814D01*
X108851789Y-90869711D01*
X108851786Y-90869707D01*
X108740292Y-90758213D01*
X108740288Y-90758210D01*
X108609185Y-90670609D01*
X108609172Y-90670602D01*
X108463501Y-90610264D01*
X108463489Y-90610261D01*
X108308845Y-90579500D01*
X108308842Y-90579500D01*
X108151158Y-90579500D01*
X108151155Y-90579500D01*
X107996510Y-90610261D01*
X107996498Y-90610264D01*
X107850827Y-90670602D01*
X107850814Y-90670609D01*
X107719711Y-90758210D01*
X107719707Y-90758213D01*
X107608213Y-90869707D01*
X107608210Y-90869711D01*
X107520609Y-91000814D01*
X107520602Y-91000827D01*
X107460264Y-91146498D01*
X107460261Y-91146510D01*
X107429500Y-91301153D01*
X102345360Y-91301153D01*
X102345313Y-91296270D01*
X102328872Y-89602539D01*
X102325280Y-89232460D01*
X102326291Y-89215413D01*
X102328979Y-89194551D01*
X102334391Y-89152545D01*
X102342653Y-89121330D01*
X102363877Y-89069609D01*
X102379925Y-89041581D01*
X102393814Y-89023334D01*
X102413779Y-88997104D01*
X102436521Y-88974172D01*
X102480716Y-88939947D01*
X102508608Y-88923668D01*
X102560144Y-88902017D01*
X102591295Y-88893492D01*
X102654200Y-88884853D01*
X102671011Y-88883702D01*
X110413680Y-88881718D01*
X110480723Y-88901385D01*
G37*
%TD.AperFunction*%
%TA.AperFunction,Conductor*%
G36*
X131309981Y-88876510D02*
G01*
X131366418Y-88876367D01*
X131366455Y-88876368D01*
X131385467Y-88877835D01*
X131458571Y-88889186D01*
X131495377Y-88901000D01*
X131552627Y-88929874D01*
X131584004Y-88952448D01*
X131629583Y-88997557D01*
X131630925Y-88999382D01*
X131631968Y-88999982D01*
X131652483Y-89028699D01*
X131660699Y-89044577D01*
X131681948Y-89085643D01*
X131694145Y-89122331D01*
X131706206Y-89195019D01*
X131707878Y-89214739D01*
X131778255Y-104316087D01*
X131776807Y-104335568D01*
X131765535Y-104408646D01*
X131764895Y-104410653D01*
X131765014Y-104411758D01*
X131753869Y-104445246D01*
X131725084Y-104502753D01*
X131702776Y-104534026D01*
X131657774Y-104579962D01*
X131626968Y-104602906D01*
X131570063Y-104632868D01*
X131533709Y-104645284D01*
X131462169Y-104657829D01*
X131441097Y-104659693D01*
X109489562Y-104720790D01*
X109422468Y-104701292D01*
X109376566Y-104648615D01*
X109366431Y-104579485D01*
X109368637Y-104569489D01*
X109368549Y-104569472D01*
X109396717Y-104427861D01*
X109400500Y-104408842D01*
X109400500Y-104251158D01*
X109400500Y-104251155D01*
X109400499Y-104251153D01*
X109369738Y-104096510D01*
X109369737Y-104096503D01*
X109369735Y-104096498D01*
X109309397Y-103950827D01*
X109309390Y-103950814D01*
X109221398Y-103819125D01*
X109215747Y-103801078D01*
X109205523Y-103785169D01*
X109201071Y-103754207D01*
X109200520Y-103752447D01*
X109200500Y-103750234D01*
X109200500Y-103530096D01*
X109220185Y-103463057D01*
X109236814Y-103442420D01*
X112868506Y-99810727D01*
X112868511Y-99810724D01*
X112878714Y-99800520D01*
X112878716Y-99800520D01*
X112990520Y-99688716D01*
X113047180Y-99590577D01*
X113069577Y-99551785D01*
X113110501Y-99399057D01*
X113110501Y-99240943D01*
X113110501Y-99233348D01*
X113110500Y-99233330D01*
X113110500Y-96697702D01*
X113116435Y-96677486D01*
X113117564Y-96656448D01*
X113126082Y-96644635D01*
X113130185Y-96630663D01*
X113146106Y-96616866D01*
X113158431Y-96599776D01*
X113171984Y-96594443D01*
X113182989Y-96584908D01*
X113203840Y-96581909D01*
X113223449Y-96574195D01*
X113248246Y-96575524D01*
X113252147Y-96574964D01*
X113258667Y-96576080D01*
X113319012Y-96588084D01*
X113331851Y-96590638D01*
X113393761Y-96623024D01*
X113395339Y-96624574D01*
X116166139Y-99395374D01*
X116166149Y-99395385D01*
X116170479Y-99399715D01*
X116170480Y-99399716D01*
X116282284Y-99511520D01*
X116282286Y-99511521D01*
X116331974Y-99540208D01*
X116331973Y-99540208D01*
X116331976Y-99540209D01*
X116419209Y-99590574D01*
X116419210Y-99590574D01*
X116419215Y-99590577D01*
X116571943Y-99631500D01*
X116730057Y-99631500D01*
X121945500Y-99631500D01*
X121946850Y-99631896D01*
X121948208Y-99631530D01*
X121980262Y-99641707D01*
X122012539Y-99651185D01*
X122013460Y-99652247D01*
X122014802Y-99652674D01*
X122036292Y-99678598D01*
X122058294Y-99703989D01*
X122058784Y-99705730D01*
X122059393Y-99706464D01*
X122060486Y-99711768D01*
X122068594Y-99740538D01*
X122069500Y-99747991D01*
X122069500Y-99758842D01*
X122072890Y-99775889D01*
X122073456Y-99780538D01*
X122068465Y-99810573D01*
X122065751Y-99840901D01*
X122062794Y-99844707D01*
X122062004Y-99849463D01*
X122041564Y-99872035D01*
X122022888Y-99896078D01*
X122018342Y-99897681D01*
X122015107Y-99901255D01*
X121985708Y-99909193D01*
X121956998Y-99919322D01*
X121950362Y-99919500D01*
X115019766Y-99919500D01*
X114952727Y-99899815D01*
X114950875Y-99898602D01*
X114819185Y-99810609D01*
X114819172Y-99810602D01*
X114673501Y-99750264D01*
X114673489Y-99750261D01*
X114518845Y-99719500D01*
X114518842Y-99719500D01*
X114361158Y-99719500D01*
X114361155Y-99719500D01*
X114206510Y-99750261D01*
X114206498Y-99750264D01*
X114060827Y-99810602D01*
X114060814Y-99810609D01*
X113929711Y-99898210D01*
X113929707Y-99898213D01*
X113818213Y-100009707D01*
X113818210Y-100009711D01*
X113730609Y-100140814D01*
X113730602Y-100140827D01*
X113670264Y-100286498D01*
X113670261Y-100286510D01*
X113639500Y-100441153D01*
X113639500Y-100598846D01*
X113670261Y-100753489D01*
X113670264Y-100753501D01*
X113730602Y-100899172D01*
X113730609Y-100899185D01*
X113818210Y-101030288D01*
X113818213Y-101030292D01*
X113929707Y-101141786D01*
X113929711Y-101141789D01*
X114060814Y-101229390D01*
X114060827Y-101229397D01*
X114206498Y-101289735D01*
X114206503Y-101289737D01*
X114352667Y-101318811D01*
X114361153Y-101320499D01*
X114361156Y-101320500D01*
X114361312Y-101320500D01*
X114361390Y-101320523D01*
X114367218Y-101321097D01*
X114367109Y-101322202D01*
X114428351Y-101340185D01*
X114474106Y-101392989D01*
X114484050Y-101462147D01*
X114477494Y-101487833D01*
X114445908Y-101572517D01*
X114440959Y-101618556D01*
X114439501Y-101632123D01*
X114439500Y-101632135D01*
X114439500Y-103427870D01*
X114439501Y-103427876D01*
X114445908Y-103487483D01*
X114496202Y-103622328D01*
X114496206Y-103622335D01*
X114582452Y-103737544D01*
X114582455Y-103737547D01*
X114697664Y-103823793D01*
X114697671Y-103823797D01*
X114832517Y-103874091D01*
X114832516Y-103874091D01*
X114839444Y-103874835D01*
X114892127Y-103880500D01*
X116687872Y-103880499D01*
X116747483Y-103874091D01*
X116882331Y-103823796D01*
X116997546Y-103737546D01*
X117083796Y-103622331D01*
X117134091Y-103487483D01*
X117140500Y-103427873D01*
X117140499Y-103403979D01*
X117143330Y-103390963D01*
X117153940Y-103371525D01*
X117160179Y-103350275D01*
X117176803Y-103329643D01*
X117176808Y-103329636D01*
X117176811Y-103329634D01*
X117176818Y-103329626D01*
X117847037Y-102659408D01*
X117864075Y-102722993D01*
X117929901Y-102837007D01*
X118022993Y-102930099D01*
X118137007Y-102995925D01*
X118200590Y-103012962D01*
X117568282Y-103645269D01*
X117568282Y-103645270D01*
X117622449Y-103684624D01*
X117811782Y-103781095D01*
X118013870Y-103846757D01*
X118223754Y-103880000D01*
X118436246Y-103880000D01*
X118646127Y-103846757D01*
X118646130Y-103846757D01*
X118848217Y-103781095D01*
X119037554Y-103684622D01*
X119091716Y-103645270D01*
X119091717Y-103645270D01*
X118459408Y-103012962D01*
X118522993Y-102995925D01*
X118637007Y-102930099D01*
X118730099Y-102837007D01*
X118795925Y-102722993D01*
X118812962Y-102659409D01*
X119445270Y-103291717D01*
X119445270Y-103291716D01*
X119484622Y-103237555D01*
X119489232Y-103228507D01*
X119537205Y-103177709D01*
X119605025Y-103160912D01*
X119671161Y-103183447D01*
X119710204Y-103228504D01*
X119714949Y-103237817D01*
X119839890Y-103409786D01*
X119990213Y-103560109D01*
X120162179Y-103685048D01*
X120162181Y-103685049D01*
X120162184Y-103685051D01*
X120351588Y-103781557D01*
X120553757Y-103847246D01*
X120763713Y-103880500D01*
X120763714Y-103880500D01*
X120976286Y-103880500D01*
X120976287Y-103880500D01*
X121186243Y-103847246D01*
X121388412Y-103781557D01*
X121577816Y-103685051D01*
X121664138Y-103622335D01*
X121749786Y-103560109D01*
X121749788Y-103560106D01*
X121749792Y-103560104D01*
X121900104Y-103409792D01*
X121900106Y-103409788D01*
X121900109Y-103409786D01*
X122025048Y-103237820D01*
X122025050Y-103237817D01*
X122025051Y-103237816D01*
X122121557Y-103048412D01*
X122187246Y-102846243D01*
X122220500Y-102636287D01*
X122220500Y-102423713D01*
X122187246Y-102213757D01*
X122121557Y-102011588D01*
X122025051Y-101822184D01*
X122025049Y-101822181D01*
X122025048Y-101822179D01*
X121900109Y-101650213D01*
X121749786Y-101499890D01*
X121577820Y-101374951D01*
X121538634Y-101354985D01*
X121487838Y-101307011D01*
X121471043Y-101239190D01*
X121493580Y-101173055D01*
X121548295Y-101129603D01*
X121594929Y-101120500D01*
X122343331Y-101120500D01*
X122343347Y-101120501D01*
X122350943Y-101120501D01*
X122509054Y-101120501D01*
X122509057Y-101120501D01*
X122661785Y-101079577D01*
X122711904Y-101050639D01*
X122798716Y-101000520D01*
X122910520Y-100888716D01*
X122910520Y-100888714D01*
X122920728Y-100878507D01*
X122920730Y-100878504D01*
X123238713Y-100560521D01*
X123238716Y-100560520D01*
X123350520Y-100448716D01*
X123369359Y-100416084D01*
X123378408Y-100406163D01*
X123397250Y-100394718D01*
X123413204Y-100379507D01*
X123426526Y-100376938D01*
X123438126Y-100369894D01*
X123460163Y-100370454D01*
X123481810Y-100366281D01*
X123496092Y-100371367D01*
X123507973Y-100371669D01*
X123520135Y-100379928D01*
X123538919Y-100386618D01*
X123596549Y-100425125D01*
X123596562Y-100425132D01*
X123653500Y-100448716D01*
X123742238Y-100485472D01*
X123896888Y-100516234D01*
X123896891Y-100516235D01*
X123896893Y-100516235D01*
X124054579Y-100516235D01*
X124054580Y-100516234D01*
X124209232Y-100485472D01*
X124354914Y-100425129D01*
X124383299Y-100406163D01*
X124486610Y-100337133D01*
X124553288Y-100316255D01*
X124555501Y-100316235D01*
X125655638Y-100316235D01*
X125722677Y-100335920D01*
X125743319Y-100352554D01*
X127866241Y-102475476D01*
X127899726Y-102536799D01*
X127896492Y-102601473D01*
X127882753Y-102643757D01*
X127849500Y-102853713D01*
X127849500Y-103066286D01*
X127876667Y-103237816D01*
X127882754Y-103276243D01*
X127932021Y-103427872D01*
X127948444Y-103478414D01*
X128044951Y-103667820D01*
X128169890Y-103839786D01*
X128320213Y-103990109D01*
X128492179Y-104115048D01*
X128492181Y-104115049D01*
X128492184Y-104115051D01*
X128681588Y-104211557D01*
X128883757Y-104277246D01*
X129093713Y-104310500D01*
X129093714Y-104310500D01*
X129306286Y-104310500D01*
X129306287Y-104310500D01*
X129516243Y-104277246D01*
X129718412Y-104211557D01*
X129907816Y-104115051D01*
X129933352Y-104096498D01*
X130079786Y-103990109D01*
X130079788Y-103990106D01*
X130079792Y-103990104D01*
X130230104Y-103839792D01*
X130230106Y-103839788D01*
X130230109Y-103839786D01*
X130355048Y-103667820D01*
X130355047Y-103667820D01*
X130355051Y-103667816D01*
X130451557Y-103478412D01*
X130517246Y-103276243D01*
X130550500Y-103066287D01*
X130550500Y-102853713D01*
X130517246Y-102643757D01*
X130451557Y-102441588D01*
X130355051Y-102252184D01*
X130355049Y-102252181D01*
X130355048Y-102252179D01*
X130230109Y-102080213D01*
X130079786Y-101929890D01*
X129907820Y-101804951D01*
X129907115Y-101804591D01*
X129899054Y-101800485D01*
X129848259Y-101752512D01*
X129831463Y-101684692D01*
X129853999Y-101618556D01*
X129899054Y-101579515D01*
X129907816Y-101575051D01*
X130011267Y-101499890D01*
X130079786Y-101450109D01*
X130079788Y-101450106D01*
X130079792Y-101450104D01*
X130230104Y-101299792D01*
X130230106Y-101299788D01*
X130230109Y-101299786D01*
X130355048Y-101127820D01*
X130355047Y-101127820D01*
X130355051Y-101127816D01*
X130451557Y-100938412D01*
X130517246Y-100736243D01*
X130550500Y-100526287D01*
X130550500Y-100313713D01*
X130517246Y-100103757D01*
X130503506Y-100061473D01*
X130501512Y-99991635D01*
X130533755Y-99935478D01*
X131110506Y-99358728D01*
X131110511Y-99358724D01*
X131120714Y-99348520D01*
X131120716Y-99348520D01*
X131232520Y-99236716D01*
X131311577Y-99099784D01*
X131351191Y-98951943D01*
X131352500Y-98947058D01*
X131352500Y-98788943D01*
X131352500Y-92813299D01*
X131352501Y-92813286D01*
X131352501Y-92645185D01*
X131352501Y-92645183D01*
X131311577Y-92492455D01*
X131269932Y-92420324D01*
X131232520Y-92355524D01*
X131120716Y-92243720D01*
X131120715Y-92243719D01*
X131116385Y-92239389D01*
X131116374Y-92239379D01*
X130456549Y-91579554D01*
X130423064Y-91518231D01*
X130428048Y-91448539D01*
X130444961Y-91417564D01*
X130493796Y-91352331D01*
X130544091Y-91217483D01*
X130550500Y-91157873D01*
X130550499Y-89362128D01*
X130544091Y-89302517D01*
X130530840Y-89266990D01*
X130493797Y-89167671D01*
X130493793Y-89167664D01*
X130424331Y-89074875D01*
X130399913Y-89009411D01*
X130414764Y-88941138D01*
X130464169Y-88891732D01*
X130523563Y-88876564D01*
X131300836Y-88876365D01*
X131300857Y-88876366D01*
X131300866Y-88876365D01*
X131301511Y-88876365D01*
X131309437Y-88876365D01*
X131309981Y-88876510D01*
G37*
%TD.AperFunction*%
%TA.AperFunction,Conductor*%
G36*
X117673212Y-101140185D02*
G01*
X117718967Y-101192989D01*
X117728911Y-101262147D01*
X117699886Y-101325703D01*
X117662469Y-101354984D01*
X117622443Y-101375378D01*
X117622440Y-101375380D01*
X117568282Y-101414727D01*
X117568282Y-101414728D01*
X118200591Y-102047037D01*
X118137007Y-102064075D01*
X118022993Y-102129901D01*
X117929901Y-102222993D01*
X117864075Y-102337007D01*
X117847037Y-102400591D01*
X117176818Y-101730372D01*
X117143333Y-101669049D01*
X117140499Y-101642691D01*
X117140499Y-101632129D01*
X117140498Y-101632123D01*
X117140497Y-101632116D01*
X117134091Y-101572517D01*
X117083796Y-101437669D01*
X117083795Y-101437668D01*
X117083793Y-101437664D01*
X116994819Y-101318811D01*
X116970401Y-101253347D01*
X116985252Y-101185074D01*
X117034657Y-101135668D01*
X117094085Y-101120500D01*
X117606173Y-101120500D01*
X117673212Y-101140185D01*
G37*
%TD.AperFunction*%
%TA.AperFunction,Conductor*%
G36*
X120212110Y-101140185D02*
G01*
X120257865Y-101192989D01*
X120267809Y-101262147D01*
X120238784Y-101325703D01*
X120201366Y-101354985D01*
X120162179Y-101374951D01*
X119990213Y-101499890D01*
X119839890Y-101650213D01*
X119714949Y-101822182D01*
X119710202Y-101831499D01*
X119662227Y-101882293D01*
X119594405Y-101899087D01*
X119528271Y-101876548D01*
X119489234Y-101831495D01*
X119484626Y-101822452D01*
X119445270Y-101768282D01*
X119445269Y-101768282D01*
X118812962Y-102400590D01*
X118795925Y-102337007D01*
X118730099Y-102222993D01*
X118637007Y-102129901D01*
X118522993Y-102064075D01*
X118459409Y-102047037D01*
X119091716Y-101414728D01*
X119037547Y-101375373D01*
X118997532Y-101354984D01*
X118946737Y-101307010D01*
X118929942Y-101239189D01*
X118952480Y-101173054D01*
X119007195Y-101129603D01*
X119053828Y-101120500D01*
X120145071Y-101120500D01*
X120212110Y-101140185D01*
G37*
%TD.AperFunction*%
%TA.AperFunction,Conductor*%
G36*
X127855237Y-92269185D02*
G01*
X127900992Y-92321989D01*
X127910936Y-92391147D01*
X127906130Y-92411812D01*
X127884556Y-92478210D01*
X127882753Y-92483760D01*
X127881376Y-92492455D01*
X127849500Y-92693713D01*
X127849500Y-92906287D01*
X127864666Y-93002041D01*
X127882754Y-93116244D01*
X127882754Y-93116247D01*
X127896491Y-93158523D01*
X127898486Y-93228364D01*
X127866241Y-93284522D01*
X125185593Y-95965170D01*
X125124270Y-95998655D01*
X125054578Y-95993671D01*
X125029021Y-95980591D01*
X124969184Y-95940609D01*
X124969172Y-95940602D01*
X124823501Y-95880264D01*
X124823489Y-95880261D01*
X124668845Y-95849500D01*
X124668842Y-95849500D01*
X124511158Y-95849500D01*
X124511155Y-95849500D01*
X124356510Y-95880261D01*
X124356498Y-95880264D01*
X124210827Y-95940602D01*
X124210814Y-95940609D01*
X124079711Y-96028210D01*
X124079707Y-96028213D01*
X123968213Y-96139707D01*
X123968210Y-96139711D01*
X123880609Y-96270814D01*
X123880602Y-96270827D01*
X123820264Y-96416498D01*
X123820261Y-96416510D01*
X123789500Y-96571153D01*
X123789500Y-96728846D01*
X123820261Y-96883489D01*
X123820264Y-96883501D01*
X123880602Y-97029172D01*
X123880609Y-97029185D01*
X123918979Y-97086609D01*
X123939857Y-97153286D01*
X123921373Y-97220667D01*
X123869394Y-97267357D01*
X123815877Y-97279500D01*
X123413924Y-97279500D01*
X123346885Y-97259815D01*
X123301130Y-97207011D01*
X123292307Y-97179692D01*
X123279738Y-97116508D01*
X123279737Y-97116507D01*
X123279737Y-97116503D01*
X123243569Y-97029185D01*
X123219397Y-96970827D01*
X123219390Y-96970814D01*
X123131398Y-96839125D01*
X123110520Y-96772447D01*
X123110500Y-96770234D01*
X123110500Y-95068260D01*
X123110500Y-95068258D01*
X123069577Y-94915531D01*
X123047972Y-94878109D01*
X122990524Y-94778605D01*
X122990521Y-94778601D01*
X122990520Y-94778599D01*
X122878716Y-94666795D01*
X122878715Y-94666794D01*
X122874385Y-94662464D01*
X122874374Y-94662454D01*
X122684680Y-94472760D01*
X122651195Y-94411437D01*
X122656179Y-94341745D01*
X122684681Y-94297397D01*
X122736271Y-94245807D01*
X122736274Y-94245804D01*
X122823879Y-94114694D01*
X122884222Y-93969012D01*
X122914985Y-93814357D01*
X122915123Y-93813665D01*
X122947508Y-93751754D01*
X122949003Y-93750231D01*
X124413416Y-92285819D01*
X124474739Y-92252334D01*
X124501097Y-92249500D01*
X127788198Y-92249500D01*
X127855237Y-92269185D01*
G37*
%TD.AperFunction*%
%TA.AperFunction,Conductor*%
G36*
X123969985Y-90880185D02*
G01*
X124015740Y-90932989D01*
X124025684Y-91002147D01*
X123996659Y-91065703D01*
X123964948Y-91091886D01*
X123928871Y-91112715D01*
X123919095Y-91118360D01*
X123875689Y-91143420D01*
X123832285Y-91168479D01*
X123832282Y-91168481D01*
X122099824Y-92900940D01*
X122038501Y-92934425D01*
X122036335Y-92934876D01*
X121880993Y-92965776D01*
X121880983Y-92965779D01*
X121735312Y-93026117D01*
X121735299Y-93026124D01*
X121604196Y-93113725D01*
X121604191Y-93113729D01*
X121552600Y-93165320D01*
X121544655Y-93169658D01*
X121539230Y-93176905D01*
X121514469Y-93186140D01*
X121491277Y-93198804D01*
X121482248Y-93198158D01*
X121473766Y-93201322D01*
X121447942Y-93195704D01*
X121421585Y-93193819D01*
X121412532Y-93188001D01*
X121405493Y-93186470D01*
X121377239Y-93165319D01*
X121344976Y-93133056D01*
X121311491Y-93071733D01*
X121316475Y-93002041D01*
X121329553Y-92976487D01*
X121405001Y-92863572D01*
X121465344Y-92717890D01*
X121490841Y-92589711D01*
X121496245Y-92562543D01*
X121528630Y-92500632D01*
X121530124Y-92499110D01*
X123132417Y-90896819D01*
X123193740Y-90863334D01*
X123220098Y-90860500D01*
X123902946Y-90860500D01*
X123969985Y-90880185D01*
G37*
%TD.AperFunction*%
%TA.AperFunction,Conductor*%
G36*
X127888802Y-88881038D02*
G01*
X127902253Y-88880077D01*
X127921673Y-88890681D01*
X127942907Y-88896910D01*
X127951740Y-88907099D01*
X127963576Y-88913562D01*
X127974181Y-88932984D01*
X127988675Y-88949703D01*
X127990597Y-88963049D01*
X127997060Y-88974885D01*
X127995481Y-88996958D01*
X127998636Y-89018859D01*
X127992929Y-89032640D01*
X127992076Y-89044577D01*
X127975161Y-89075554D01*
X127906204Y-89167668D01*
X127906202Y-89167671D01*
X127855908Y-89302517D01*
X127849501Y-89362116D01*
X127849501Y-89362123D01*
X127849500Y-89362135D01*
X127849500Y-89535500D01*
X127829815Y-89602539D01*
X127777011Y-89648294D01*
X127725500Y-89659500D01*
X123006670Y-89659500D01*
X123006654Y-89659499D01*
X122999058Y-89659499D01*
X122840943Y-89659499D01*
X122764579Y-89679961D01*
X122688214Y-89700423D01*
X122688209Y-89700426D01*
X122551290Y-89779475D01*
X122551282Y-89779481D01*
X120680946Y-91649818D01*
X120619623Y-91683303D01*
X120617457Y-91683754D01*
X120462115Y-91714654D01*
X120462105Y-91714657D01*
X120316434Y-91774995D01*
X120316416Y-91775005D01*
X120203514Y-91850444D01*
X120136837Y-91871322D01*
X120069457Y-91852837D01*
X120046943Y-91835023D01*
X117303531Y-89091611D01*
X117270046Y-89030288D01*
X117275030Y-88960596D01*
X117316902Y-88904663D01*
X117382366Y-88880246D01*
X117391171Y-88879930D01*
X127875862Y-88877243D01*
X127888802Y-88881038D01*
G37*
%TD.AperFunction*%
%TD*%
M02*
