%TF.GenerationSoftware,KiCad,Pcbnew,9.0.6*%
%TF.CreationDate,2026-04-12T15:45:06+05:30*%
%TF.ProjectId,programmig_circuit,70726f67-7261-46d6-9d69-675f63697263,rev?*%
%TF.SameCoordinates,Original*%
%TF.FileFunction,Legend,Top*%
%TF.FilePolarity,Positive*%
%FSLAX46Y46*%
G04 Gerber Fmt 4.6, Leading zero omitted, Abs format (unit mm)*
G04 Created by KiCad (PCBNEW 9.0.6) date 2026-04-12 15:45:06*
%MOMM*%
%LPD*%
G01*
G04 APERTURE LIST*
%ADD10C,0.100000*%
%ADD11C,0.200000*%
%ADD12C,0.120000*%
G04 APERTURE END LIST*
D10*
X131526895Y-99313734D02*
X130726895Y-99313734D01*
X130726895Y-99313734D02*
X130726895Y-99008972D01*
X130726895Y-99008972D02*
X130764990Y-98932782D01*
X130764990Y-98932782D02*
X130803085Y-98894687D01*
X130803085Y-98894687D02*
X130879276Y-98856591D01*
X130879276Y-98856591D02*
X130993561Y-98856591D01*
X130993561Y-98856591D02*
X131069752Y-98894687D01*
X131069752Y-98894687D02*
X131107847Y-98932782D01*
X131107847Y-98932782D02*
X131145942Y-99008972D01*
X131145942Y-99008972D02*
X131145942Y-99313734D01*
X131107847Y-98247068D02*
X131145942Y-98132782D01*
X131145942Y-98132782D02*
X131184038Y-98094687D01*
X131184038Y-98094687D02*
X131260228Y-98056591D01*
X131260228Y-98056591D02*
X131374514Y-98056591D01*
X131374514Y-98056591D02*
X131450704Y-98094687D01*
X131450704Y-98094687D02*
X131488800Y-98132782D01*
X131488800Y-98132782D02*
X131526895Y-98208972D01*
X131526895Y-98208972D02*
X131526895Y-98513734D01*
X131526895Y-98513734D02*
X130726895Y-98513734D01*
X130726895Y-98513734D02*
X130726895Y-98247068D01*
X130726895Y-98247068D02*
X130764990Y-98170877D01*
X130764990Y-98170877D02*
X130803085Y-98132782D01*
X130803085Y-98132782D02*
X130879276Y-98094687D01*
X130879276Y-98094687D02*
X130955466Y-98094687D01*
X130955466Y-98094687D02*
X131031657Y-98132782D01*
X131031657Y-98132782D02*
X131069752Y-98170877D01*
X131069752Y-98170877D02*
X131107847Y-98247068D01*
X131107847Y-98247068D02*
X131107847Y-98513734D01*
X130726895Y-97789925D02*
X130726895Y-97294687D01*
X130726895Y-97294687D02*
X131031657Y-97561353D01*
X131031657Y-97561353D02*
X131031657Y-97447068D01*
X131031657Y-97447068D02*
X131069752Y-97370877D01*
X131069752Y-97370877D02*
X131107847Y-97332782D01*
X131107847Y-97332782D02*
X131184038Y-97294687D01*
X131184038Y-97294687D02*
X131374514Y-97294687D01*
X131374514Y-97294687D02*
X131450704Y-97332782D01*
X131450704Y-97332782D02*
X131488800Y-97370877D01*
X131488800Y-97370877D02*
X131526895Y-97447068D01*
X131526895Y-97447068D02*
X131526895Y-97675639D01*
X131526895Y-97675639D02*
X131488800Y-97751830D01*
X131488800Y-97751830D02*
X131450704Y-97789925D01*
X131516895Y-96643734D02*
X130716895Y-96643734D01*
X130716895Y-96643734D02*
X130716895Y-96338972D01*
X130716895Y-96338972D02*
X130754990Y-96262782D01*
X130754990Y-96262782D02*
X130793085Y-96224687D01*
X130793085Y-96224687D02*
X130869276Y-96186591D01*
X130869276Y-96186591D02*
X130983561Y-96186591D01*
X130983561Y-96186591D02*
X131059752Y-96224687D01*
X131059752Y-96224687D02*
X131097847Y-96262782D01*
X131097847Y-96262782D02*
X131135942Y-96338972D01*
X131135942Y-96338972D02*
X131135942Y-96643734D01*
X131097847Y-95577068D02*
X131135942Y-95462782D01*
X131135942Y-95462782D02*
X131174038Y-95424687D01*
X131174038Y-95424687D02*
X131250228Y-95386591D01*
X131250228Y-95386591D02*
X131364514Y-95386591D01*
X131364514Y-95386591D02*
X131440704Y-95424687D01*
X131440704Y-95424687D02*
X131478800Y-95462782D01*
X131478800Y-95462782D02*
X131516895Y-95538972D01*
X131516895Y-95538972D02*
X131516895Y-95843734D01*
X131516895Y-95843734D02*
X130716895Y-95843734D01*
X130716895Y-95843734D02*
X130716895Y-95577068D01*
X130716895Y-95577068D02*
X130754990Y-95500877D01*
X130754990Y-95500877D02*
X130793085Y-95462782D01*
X130793085Y-95462782D02*
X130869276Y-95424687D01*
X130869276Y-95424687D02*
X130945466Y-95424687D01*
X130945466Y-95424687D02*
X131021657Y-95462782D01*
X131021657Y-95462782D02*
X131059752Y-95500877D01*
X131059752Y-95500877D02*
X131097847Y-95577068D01*
X131097847Y-95577068D02*
X131097847Y-95843734D01*
X130793085Y-95081830D02*
X130754990Y-95043734D01*
X130754990Y-95043734D02*
X130716895Y-94967544D01*
X130716895Y-94967544D02*
X130716895Y-94777068D01*
X130716895Y-94777068D02*
X130754990Y-94700877D01*
X130754990Y-94700877D02*
X130793085Y-94662782D01*
X130793085Y-94662782D02*
X130869276Y-94624687D01*
X130869276Y-94624687D02*
X130945466Y-94624687D01*
X130945466Y-94624687D02*
X131059752Y-94662782D01*
X131059752Y-94662782D02*
X131516895Y-95119925D01*
X131516895Y-95119925D02*
X131516895Y-94624687D01*
X131516895Y-93693734D02*
X130716895Y-93693734D01*
X130716895Y-93693734D02*
X130716895Y-93388972D01*
X130716895Y-93388972D02*
X130754990Y-93312782D01*
X130754990Y-93312782D02*
X130793085Y-93274687D01*
X130793085Y-93274687D02*
X130869276Y-93236591D01*
X130869276Y-93236591D02*
X130983561Y-93236591D01*
X130983561Y-93236591D02*
X131059752Y-93274687D01*
X131059752Y-93274687D02*
X131097847Y-93312782D01*
X131097847Y-93312782D02*
X131135942Y-93388972D01*
X131135942Y-93388972D02*
X131135942Y-93693734D01*
X131097847Y-92627068D02*
X131135942Y-92512782D01*
X131135942Y-92512782D02*
X131174038Y-92474687D01*
X131174038Y-92474687D02*
X131250228Y-92436591D01*
X131250228Y-92436591D02*
X131364514Y-92436591D01*
X131364514Y-92436591D02*
X131440704Y-92474687D01*
X131440704Y-92474687D02*
X131478800Y-92512782D01*
X131478800Y-92512782D02*
X131516895Y-92588972D01*
X131516895Y-92588972D02*
X131516895Y-92893734D01*
X131516895Y-92893734D02*
X130716895Y-92893734D01*
X130716895Y-92893734D02*
X130716895Y-92627068D01*
X130716895Y-92627068D02*
X130754990Y-92550877D01*
X130754990Y-92550877D02*
X130793085Y-92512782D01*
X130793085Y-92512782D02*
X130869276Y-92474687D01*
X130869276Y-92474687D02*
X130945466Y-92474687D01*
X130945466Y-92474687D02*
X131021657Y-92512782D01*
X131021657Y-92512782D02*
X131059752Y-92550877D01*
X131059752Y-92550877D02*
X131097847Y-92627068D01*
X131097847Y-92627068D02*
X131097847Y-92893734D01*
X131516895Y-91674687D02*
X131516895Y-92131830D01*
X131516895Y-91903258D02*
X130716895Y-91903258D01*
X130716895Y-91903258D02*
X130831180Y-91979449D01*
X130831180Y-91979449D02*
X130907371Y-92055639D01*
X130907371Y-92055639D02*
X130945466Y-92131830D01*
X131436895Y-91083734D02*
X130636895Y-91083734D01*
X130636895Y-91083734D02*
X130636895Y-90778972D01*
X130636895Y-90778972D02*
X130674990Y-90702782D01*
X130674990Y-90702782D02*
X130713085Y-90664687D01*
X130713085Y-90664687D02*
X130789276Y-90626591D01*
X130789276Y-90626591D02*
X130903561Y-90626591D01*
X130903561Y-90626591D02*
X130979752Y-90664687D01*
X130979752Y-90664687D02*
X131017847Y-90702782D01*
X131017847Y-90702782D02*
X131055942Y-90778972D01*
X131055942Y-90778972D02*
X131055942Y-91083734D01*
X131017847Y-90017068D02*
X131055942Y-89902782D01*
X131055942Y-89902782D02*
X131094038Y-89864687D01*
X131094038Y-89864687D02*
X131170228Y-89826591D01*
X131170228Y-89826591D02*
X131284514Y-89826591D01*
X131284514Y-89826591D02*
X131360704Y-89864687D01*
X131360704Y-89864687D02*
X131398800Y-89902782D01*
X131398800Y-89902782D02*
X131436895Y-89978972D01*
X131436895Y-89978972D02*
X131436895Y-90283734D01*
X131436895Y-90283734D02*
X130636895Y-90283734D01*
X130636895Y-90283734D02*
X130636895Y-90017068D01*
X130636895Y-90017068D02*
X130674990Y-89940877D01*
X130674990Y-89940877D02*
X130713085Y-89902782D01*
X130713085Y-89902782D02*
X130789276Y-89864687D01*
X130789276Y-89864687D02*
X130865466Y-89864687D01*
X130865466Y-89864687D02*
X130941657Y-89902782D01*
X130941657Y-89902782D02*
X130979752Y-89940877D01*
X130979752Y-89940877D02*
X131017847Y-90017068D01*
X131017847Y-90017068D02*
X131017847Y-90283734D01*
X130636895Y-89331353D02*
X130636895Y-89255163D01*
X130636895Y-89255163D02*
X130674990Y-89178972D01*
X130674990Y-89178972D02*
X130713085Y-89140877D01*
X130713085Y-89140877D02*
X130789276Y-89102782D01*
X130789276Y-89102782D02*
X130941657Y-89064687D01*
X130941657Y-89064687D02*
X131132133Y-89064687D01*
X131132133Y-89064687D02*
X131284514Y-89102782D01*
X131284514Y-89102782D02*
X131360704Y-89140877D01*
X131360704Y-89140877D02*
X131398800Y-89178972D01*
X131398800Y-89178972D02*
X131436895Y-89255163D01*
X131436895Y-89255163D02*
X131436895Y-89331353D01*
X131436895Y-89331353D02*
X131398800Y-89407544D01*
X131398800Y-89407544D02*
X131360704Y-89445639D01*
X131360704Y-89445639D02*
X131284514Y-89483734D01*
X131284514Y-89483734D02*
X131132133Y-89521830D01*
X131132133Y-89521830D02*
X130941657Y-89521830D01*
X130941657Y-89521830D02*
X130789276Y-89483734D01*
X130789276Y-89483734D02*
X130713085Y-89445639D01*
X130713085Y-89445639D02*
X130674990Y-89407544D01*
X130674990Y-89407544D02*
X130636895Y-89331353D01*
D11*
X118593958Y-89785168D02*
X118974911Y-89785168D01*
X118517768Y-90013740D02*
X118784435Y-89213740D01*
X118784435Y-89213740D02*
X119051101Y-90013740D01*
X119203482Y-89213740D02*
X119660625Y-89213740D01*
X119432053Y-90013740D02*
X119432053Y-89213740D01*
X119813006Y-89480406D02*
X120117768Y-89480406D01*
X119927292Y-89213740D02*
X119927292Y-89899454D01*
X119927292Y-89899454D02*
X119965387Y-89975645D01*
X119965387Y-89975645D02*
X120041577Y-90013740D01*
X120041577Y-90013740D02*
X120117768Y-90013740D01*
X120384435Y-90013740D02*
X120384435Y-89480406D01*
X120384435Y-89213740D02*
X120346339Y-89251835D01*
X120346339Y-89251835D02*
X120384435Y-89289930D01*
X120384435Y-89289930D02*
X120422530Y-89251835D01*
X120422530Y-89251835D02*
X120384435Y-89213740D01*
X120384435Y-89213740D02*
X120384435Y-89289930D01*
X120765387Y-89480406D02*
X120765387Y-90013740D01*
X120765387Y-89556597D02*
X120803482Y-89518502D01*
X120803482Y-89518502D02*
X120879672Y-89480406D01*
X120879672Y-89480406D02*
X120993958Y-89480406D01*
X120993958Y-89480406D02*
X121070149Y-89518502D01*
X121070149Y-89518502D02*
X121108244Y-89594692D01*
X121108244Y-89594692D02*
X121108244Y-90013740D01*
X121413006Y-89480406D02*
X121603482Y-90013740D01*
X121793959Y-89480406D02*
X121603482Y-90013740D01*
X121603482Y-90013740D02*
X121527292Y-90204216D01*
X121527292Y-90204216D02*
X121489197Y-90242311D01*
X121489197Y-90242311D02*
X121413006Y-90280406D01*
X122213006Y-89556597D02*
X122136816Y-89518502D01*
X122136816Y-89518502D02*
X122098721Y-89480406D01*
X122098721Y-89480406D02*
X122060625Y-89404216D01*
X122060625Y-89404216D02*
X122060625Y-89366121D01*
X122060625Y-89366121D02*
X122098721Y-89289930D01*
X122098721Y-89289930D02*
X122136816Y-89251835D01*
X122136816Y-89251835D02*
X122213006Y-89213740D01*
X122213006Y-89213740D02*
X122365387Y-89213740D01*
X122365387Y-89213740D02*
X122441578Y-89251835D01*
X122441578Y-89251835D02*
X122479673Y-89289930D01*
X122479673Y-89289930D02*
X122517768Y-89366121D01*
X122517768Y-89366121D02*
X122517768Y-89404216D01*
X122517768Y-89404216D02*
X122479673Y-89480406D01*
X122479673Y-89480406D02*
X122441578Y-89518502D01*
X122441578Y-89518502D02*
X122365387Y-89556597D01*
X122365387Y-89556597D02*
X122213006Y-89556597D01*
X122213006Y-89556597D02*
X122136816Y-89594692D01*
X122136816Y-89594692D02*
X122098721Y-89632787D01*
X122098721Y-89632787D02*
X122060625Y-89708978D01*
X122060625Y-89708978D02*
X122060625Y-89861359D01*
X122060625Y-89861359D02*
X122098721Y-89937549D01*
X122098721Y-89937549D02*
X122136816Y-89975645D01*
X122136816Y-89975645D02*
X122213006Y-90013740D01*
X122213006Y-90013740D02*
X122365387Y-90013740D01*
X122365387Y-90013740D02*
X122441578Y-89975645D01*
X122441578Y-89975645D02*
X122479673Y-89937549D01*
X122479673Y-89937549D02*
X122517768Y-89861359D01*
X122517768Y-89861359D02*
X122517768Y-89708978D01*
X122517768Y-89708978D02*
X122479673Y-89632787D01*
X122479673Y-89632787D02*
X122441578Y-89594692D01*
X122441578Y-89594692D02*
X122365387Y-89556597D01*
X123241578Y-89213740D02*
X122860626Y-89213740D01*
X122860626Y-89213740D02*
X122822530Y-89594692D01*
X122822530Y-89594692D02*
X122860626Y-89556597D01*
X122860626Y-89556597D02*
X122936816Y-89518502D01*
X122936816Y-89518502D02*
X123127292Y-89518502D01*
X123127292Y-89518502D02*
X123203483Y-89556597D01*
X123203483Y-89556597D02*
X123241578Y-89594692D01*
X123241578Y-89594692D02*
X123279673Y-89670883D01*
X123279673Y-89670883D02*
X123279673Y-89861359D01*
X123279673Y-89861359D02*
X123241578Y-89937549D01*
X123241578Y-89937549D02*
X123203483Y-89975645D01*
X123203483Y-89975645D02*
X123127292Y-90013740D01*
X123127292Y-90013740D02*
X122936816Y-90013740D01*
X122936816Y-90013740D02*
X122860626Y-89975645D01*
X122860626Y-89975645D02*
X122822530Y-89937549D01*
X123622531Y-89708978D02*
X124232055Y-89708978D01*
X124574911Y-89289930D02*
X124613007Y-89251835D01*
X124613007Y-89251835D02*
X124689197Y-89213740D01*
X124689197Y-89213740D02*
X124879673Y-89213740D01*
X124879673Y-89213740D02*
X124955864Y-89251835D01*
X124955864Y-89251835D02*
X124993959Y-89289930D01*
X124993959Y-89289930D02*
X125032054Y-89366121D01*
X125032054Y-89366121D02*
X125032054Y-89442311D01*
X125032054Y-89442311D02*
X124993959Y-89556597D01*
X124993959Y-89556597D02*
X124536816Y-90013740D01*
X124536816Y-90013740D02*
X125032054Y-90013740D01*
X125527293Y-89213740D02*
X125603483Y-89213740D01*
X125603483Y-89213740D02*
X125679674Y-89251835D01*
X125679674Y-89251835D02*
X125717769Y-89289930D01*
X125717769Y-89289930D02*
X125755864Y-89366121D01*
X125755864Y-89366121D02*
X125793959Y-89518502D01*
X125793959Y-89518502D02*
X125793959Y-89708978D01*
X125793959Y-89708978D02*
X125755864Y-89861359D01*
X125755864Y-89861359D02*
X125717769Y-89937549D01*
X125717769Y-89937549D02*
X125679674Y-89975645D01*
X125679674Y-89975645D02*
X125603483Y-90013740D01*
X125603483Y-90013740D02*
X125527293Y-90013740D01*
X125527293Y-90013740D02*
X125451102Y-89975645D01*
X125451102Y-89975645D02*
X125413007Y-89937549D01*
X125413007Y-89937549D02*
X125374912Y-89861359D01*
X125374912Y-89861359D02*
X125336816Y-89708978D01*
X125336816Y-89708978D02*
X125336816Y-89518502D01*
X125336816Y-89518502D02*
X125374912Y-89366121D01*
X125374912Y-89366121D02*
X125413007Y-89289930D01*
X125413007Y-89289930D02*
X125451102Y-89251835D01*
X125451102Y-89251835D02*
X125527293Y-89213740D01*
X126136817Y-90013740D02*
X126136817Y-89213740D01*
X126136817Y-89213740D02*
X126441579Y-89213740D01*
X126441579Y-89213740D02*
X126517769Y-89251835D01*
X126517769Y-89251835D02*
X126555864Y-89289930D01*
X126555864Y-89289930D02*
X126593960Y-89366121D01*
X126593960Y-89366121D02*
X126593960Y-89480406D01*
X126593960Y-89480406D02*
X126555864Y-89556597D01*
X126555864Y-89556597D02*
X126517769Y-89594692D01*
X126517769Y-89594692D02*
X126441579Y-89632787D01*
X126441579Y-89632787D02*
X126136817Y-89632787D01*
X119241578Y-91301695D02*
X119241578Y-90501695D01*
X119241578Y-90501695D02*
X119432054Y-90501695D01*
X119432054Y-90501695D02*
X119546340Y-90539790D01*
X119546340Y-90539790D02*
X119622530Y-90615980D01*
X119622530Y-90615980D02*
X119660625Y-90692171D01*
X119660625Y-90692171D02*
X119698721Y-90844552D01*
X119698721Y-90844552D02*
X119698721Y-90958838D01*
X119698721Y-90958838D02*
X119660625Y-91111219D01*
X119660625Y-91111219D02*
X119622530Y-91187409D01*
X119622530Y-91187409D02*
X119546340Y-91263600D01*
X119546340Y-91263600D02*
X119432054Y-91301695D01*
X119432054Y-91301695D02*
X119241578Y-91301695D01*
X120041578Y-90882647D02*
X120308244Y-90882647D01*
X120422530Y-91301695D02*
X120041578Y-91301695D01*
X120041578Y-91301695D02*
X120041578Y-90501695D01*
X120041578Y-90501695D02*
X120422530Y-90501695D01*
X120651102Y-90501695D02*
X120917769Y-91301695D01*
X120917769Y-91301695D02*
X121184435Y-90501695D01*
X122327292Y-90882647D02*
X122441578Y-90920742D01*
X122441578Y-90920742D02*
X122479673Y-90958838D01*
X122479673Y-90958838D02*
X122517769Y-91035028D01*
X122517769Y-91035028D02*
X122517769Y-91149314D01*
X122517769Y-91149314D02*
X122479673Y-91225504D01*
X122479673Y-91225504D02*
X122441578Y-91263600D01*
X122441578Y-91263600D02*
X122365388Y-91301695D01*
X122365388Y-91301695D02*
X122060626Y-91301695D01*
X122060626Y-91301695D02*
X122060626Y-90501695D01*
X122060626Y-90501695D02*
X122327292Y-90501695D01*
X122327292Y-90501695D02*
X122403483Y-90539790D01*
X122403483Y-90539790D02*
X122441578Y-90577885D01*
X122441578Y-90577885D02*
X122479673Y-90654076D01*
X122479673Y-90654076D02*
X122479673Y-90730266D01*
X122479673Y-90730266D02*
X122441578Y-90806457D01*
X122441578Y-90806457D02*
X122403483Y-90844552D01*
X122403483Y-90844552D02*
X122327292Y-90882647D01*
X122327292Y-90882647D02*
X122060626Y-90882647D01*
X123013007Y-90501695D02*
X123165388Y-90501695D01*
X123165388Y-90501695D02*
X123241578Y-90539790D01*
X123241578Y-90539790D02*
X123317769Y-90615980D01*
X123317769Y-90615980D02*
X123355864Y-90768361D01*
X123355864Y-90768361D02*
X123355864Y-91035028D01*
X123355864Y-91035028D02*
X123317769Y-91187409D01*
X123317769Y-91187409D02*
X123241578Y-91263600D01*
X123241578Y-91263600D02*
X123165388Y-91301695D01*
X123165388Y-91301695D02*
X123013007Y-91301695D01*
X123013007Y-91301695D02*
X122936816Y-91263600D01*
X122936816Y-91263600D02*
X122860626Y-91187409D01*
X122860626Y-91187409D02*
X122822530Y-91035028D01*
X122822530Y-91035028D02*
X122822530Y-90768361D01*
X122822530Y-90768361D02*
X122860626Y-90615980D01*
X122860626Y-90615980D02*
X122936816Y-90539790D01*
X122936816Y-90539790D02*
X123013007Y-90501695D01*
X123660625Y-91073123D02*
X124041578Y-91073123D01*
X123584435Y-91301695D02*
X123851102Y-90501695D01*
X123851102Y-90501695D02*
X124117768Y-91301695D01*
X124841578Y-91301695D02*
X124574911Y-90920742D01*
X124384435Y-91301695D02*
X124384435Y-90501695D01*
X124384435Y-90501695D02*
X124689197Y-90501695D01*
X124689197Y-90501695D02*
X124765387Y-90539790D01*
X124765387Y-90539790D02*
X124803482Y-90577885D01*
X124803482Y-90577885D02*
X124841578Y-90654076D01*
X124841578Y-90654076D02*
X124841578Y-90768361D01*
X124841578Y-90768361D02*
X124803482Y-90844552D01*
X124803482Y-90844552D02*
X124765387Y-90882647D01*
X124765387Y-90882647D02*
X124689197Y-90920742D01*
X124689197Y-90920742D02*
X124384435Y-90920742D01*
X125184435Y-91301695D02*
X125184435Y-90501695D01*
X125184435Y-90501695D02*
X125374911Y-90501695D01*
X125374911Y-90501695D02*
X125489197Y-90539790D01*
X125489197Y-90539790D02*
X125565387Y-90615980D01*
X125565387Y-90615980D02*
X125603482Y-90692171D01*
X125603482Y-90692171D02*
X125641578Y-90844552D01*
X125641578Y-90844552D02*
X125641578Y-90958838D01*
X125641578Y-90958838D02*
X125603482Y-91111219D01*
X125603482Y-91111219D02*
X125565387Y-91187409D01*
X125565387Y-91187409D02*
X125489197Y-91263600D01*
X125489197Y-91263600D02*
X125374911Y-91301695D01*
X125374911Y-91301695D02*
X125184435Y-91301695D01*
D10*
X131586895Y-101933734D02*
X130786895Y-101933734D01*
X130786895Y-101933734D02*
X130786895Y-101628972D01*
X130786895Y-101628972D02*
X130824990Y-101552782D01*
X130824990Y-101552782D02*
X130863085Y-101514687D01*
X130863085Y-101514687D02*
X130939276Y-101476591D01*
X130939276Y-101476591D02*
X131053561Y-101476591D01*
X131053561Y-101476591D02*
X131129752Y-101514687D01*
X131129752Y-101514687D02*
X131167847Y-101552782D01*
X131167847Y-101552782D02*
X131205942Y-101628972D01*
X131205942Y-101628972D02*
X131205942Y-101933734D01*
X131167847Y-100867068D02*
X131205942Y-100752782D01*
X131205942Y-100752782D02*
X131244038Y-100714687D01*
X131244038Y-100714687D02*
X131320228Y-100676591D01*
X131320228Y-100676591D02*
X131434514Y-100676591D01*
X131434514Y-100676591D02*
X131510704Y-100714687D01*
X131510704Y-100714687D02*
X131548800Y-100752782D01*
X131548800Y-100752782D02*
X131586895Y-100828972D01*
X131586895Y-100828972D02*
X131586895Y-101133734D01*
X131586895Y-101133734D02*
X130786895Y-101133734D01*
X130786895Y-101133734D02*
X130786895Y-100867068D01*
X130786895Y-100867068D02*
X130824990Y-100790877D01*
X130824990Y-100790877D02*
X130863085Y-100752782D01*
X130863085Y-100752782D02*
X130939276Y-100714687D01*
X130939276Y-100714687D02*
X131015466Y-100714687D01*
X131015466Y-100714687D02*
X131091657Y-100752782D01*
X131091657Y-100752782D02*
X131129752Y-100790877D01*
X131129752Y-100790877D02*
X131167847Y-100867068D01*
X131167847Y-100867068D02*
X131167847Y-101133734D01*
X131053561Y-99990877D02*
X131586895Y-99990877D01*
X130748800Y-100181353D02*
X131320228Y-100371830D01*
X131320228Y-100371830D02*
X131320228Y-99876591D01*
X131606895Y-104553734D02*
X130806895Y-104553734D01*
X130806895Y-104553734D02*
X130806895Y-104248972D01*
X130806895Y-104248972D02*
X130844990Y-104172782D01*
X130844990Y-104172782D02*
X130883085Y-104134687D01*
X130883085Y-104134687D02*
X130959276Y-104096591D01*
X130959276Y-104096591D02*
X131073561Y-104096591D01*
X131073561Y-104096591D02*
X131149752Y-104134687D01*
X131149752Y-104134687D02*
X131187847Y-104172782D01*
X131187847Y-104172782D02*
X131225942Y-104248972D01*
X131225942Y-104248972D02*
X131225942Y-104553734D01*
X131187847Y-103487068D02*
X131225942Y-103372782D01*
X131225942Y-103372782D02*
X131264038Y-103334687D01*
X131264038Y-103334687D02*
X131340228Y-103296591D01*
X131340228Y-103296591D02*
X131454514Y-103296591D01*
X131454514Y-103296591D02*
X131530704Y-103334687D01*
X131530704Y-103334687D02*
X131568800Y-103372782D01*
X131568800Y-103372782D02*
X131606895Y-103448972D01*
X131606895Y-103448972D02*
X131606895Y-103753734D01*
X131606895Y-103753734D02*
X130806895Y-103753734D01*
X130806895Y-103753734D02*
X130806895Y-103487068D01*
X130806895Y-103487068D02*
X130844990Y-103410877D01*
X130844990Y-103410877D02*
X130883085Y-103372782D01*
X130883085Y-103372782D02*
X130959276Y-103334687D01*
X130959276Y-103334687D02*
X131035466Y-103334687D01*
X131035466Y-103334687D02*
X131111657Y-103372782D01*
X131111657Y-103372782D02*
X131149752Y-103410877D01*
X131149752Y-103410877D02*
X131187847Y-103487068D01*
X131187847Y-103487068D02*
X131187847Y-103753734D01*
X130806895Y-102572782D02*
X130806895Y-102953734D01*
X130806895Y-102953734D02*
X131187847Y-102991830D01*
X131187847Y-102991830D02*
X131149752Y-102953734D01*
X131149752Y-102953734D02*
X131111657Y-102877544D01*
X131111657Y-102877544D02*
X131111657Y-102687068D01*
X131111657Y-102687068D02*
X131149752Y-102610877D01*
X131149752Y-102610877D02*
X131187847Y-102572782D01*
X131187847Y-102572782D02*
X131264038Y-102534687D01*
X131264038Y-102534687D02*
X131454514Y-102534687D01*
X131454514Y-102534687D02*
X131530704Y-102572782D01*
X131530704Y-102572782D02*
X131568800Y-102610877D01*
X131568800Y-102610877D02*
X131606895Y-102687068D01*
X131606895Y-102687068D02*
X131606895Y-102877544D01*
X131606895Y-102877544D02*
X131568800Y-102953734D01*
X131568800Y-102953734D02*
X131530704Y-102991830D01*
X120086265Y-104592133D02*
X120695789Y-104592133D01*
X120391027Y-104896895D02*
X120391027Y-104287371D01*
X121457693Y-104096895D02*
X121076741Y-104096895D01*
X121076741Y-104096895D02*
X121038645Y-104477847D01*
X121038645Y-104477847D02*
X121076741Y-104439752D01*
X121076741Y-104439752D02*
X121152931Y-104401657D01*
X121152931Y-104401657D02*
X121343407Y-104401657D01*
X121343407Y-104401657D02*
X121419598Y-104439752D01*
X121419598Y-104439752D02*
X121457693Y-104477847D01*
X121457693Y-104477847D02*
X121495788Y-104554038D01*
X121495788Y-104554038D02*
X121495788Y-104744514D01*
X121495788Y-104744514D02*
X121457693Y-104820704D01*
X121457693Y-104820704D02*
X121419598Y-104858800D01*
X121419598Y-104858800D02*
X121343407Y-104896895D01*
X121343407Y-104896895D02*
X121152931Y-104896895D01*
X121152931Y-104896895D02*
X121076741Y-104858800D01*
X121076741Y-104858800D02*
X121038645Y-104820704D01*
X121724360Y-104096895D02*
X121991027Y-104896895D01*
X121991027Y-104896895D02*
X122257693Y-104096895D01*
X117615312Y-104084990D02*
X117539122Y-104046895D01*
X117539122Y-104046895D02*
X117424836Y-104046895D01*
X117424836Y-104046895D02*
X117310550Y-104084990D01*
X117310550Y-104084990D02*
X117234360Y-104161180D01*
X117234360Y-104161180D02*
X117196265Y-104237371D01*
X117196265Y-104237371D02*
X117158169Y-104389752D01*
X117158169Y-104389752D02*
X117158169Y-104504038D01*
X117158169Y-104504038D02*
X117196265Y-104656419D01*
X117196265Y-104656419D02*
X117234360Y-104732609D01*
X117234360Y-104732609D02*
X117310550Y-104808800D01*
X117310550Y-104808800D02*
X117424836Y-104846895D01*
X117424836Y-104846895D02*
X117501027Y-104846895D01*
X117501027Y-104846895D02*
X117615312Y-104808800D01*
X117615312Y-104808800D02*
X117653408Y-104770704D01*
X117653408Y-104770704D02*
X117653408Y-104504038D01*
X117653408Y-104504038D02*
X117501027Y-104504038D01*
X117996265Y-104846895D02*
X117996265Y-104046895D01*
X117996265Y-104046895D02*
X118453408Y-104846895D01*
X118453408Y-104846895D02*
X118453408Y-104046895D01*
X118834360Y-104846895D02*
X118834360Y-104046895D01*
X118834360Y-104046895D02*
X119024836Y-104046895D01*
X119024836Y-104046895D02*
X119139122Y-104084990D01*
X119139122Y-104084990D02*
X119215312Y-104161180D01*
X119215312Y-104161180D02*
X119253407Y-104237371D01*
X119253407Y-104237371D02*
X119291503Y-104389752D01*
X119291503Y-104389752D02*
X119291503Y-104504038D01*
X119291503Y-104504038D02*
X119253407Y-104656419D01*
X119253407Y-104656419D02*
X119215312Y-104732609D01*
X119215312Y-104732609D02*
X119139122Y-104808800D01*
X119139122Y-104808800D02*
X119024836Y-104846895D01*
X119024836Y-104846895D02*
X118834360Y-104846895D01*
X114751979Y-104066895D02*
X115018646Y-104866895D01*
X115018646Y-104866895D02*
X115285312Y-104066895D01*
X115551979Y-104866895D02*
X115551979Y-104066895D01*
X115932931Y-104866895D02*
X115932931Y-104066895D01*
X115932931Y-104066895D02*
X116390074Y-104866895D01*
X116390074Y-104866895D02*
X116390074Y-104066895D01*
X122903408Y-94490704D02*
X122865312Y-94528800D01*
X122865312Y-94528800D02*
X122751027Y-94566895D01*
X122751027Y-94566895D02*
X122674836Y-94566895D01*
X122674836Y-94566895D02*
X122560550Y-94528800D01*
X122560550Y-94528800D02*
X122484360Y-94452609D01*
X122484360Y-94452609D02*
X122446265Y-94376419D01*
X122446265Y-94376419D02*
X122408169Y-94224038D01*
X122408169Y-94224038D02*
X122408169Y-94109752D01*
X122408169Y-94109752D02*
X122446265Y-93957371D01*
X122446265Y-93957371D02*
X122484360Y-93881180D01*
X122484360Y-93881180D02*
X122560550Y-93804990D01*
X122560550Y-93804990D02*
X122674836Y-93766895D01*
X122674836Y-93766895D02*
X122751027Y-93766895D01*
X122751027Y-93766895D02*
X122865312Y-93804990D01*
X122865312Y-93804990D02*
X122903408Y-93843085D01*
X123398646Y-93766895D02*
X123551027Y-93766895D01*
X123551027Y-93766895D02*
X123627217Y-93804990D01*
X123627217Y-93804990D02*
X123703408Y-93881180D01*
X123703408Y-93881180D02*
X123741503Y-94033561D01*
X123741503Y-94033561D02*
X123741503Y-94300228D01*
X123741503Y-94300228D02*
X123703408Y-94452609D01*
X123703408Y-94452609D02*
X123627217Y-94528800D01*
X123627217Y-94528800D02*
X123551027Y-94566895D01*
X123551027Y-94566895D02*
X123398646Y-94566895D01*
X123398646Y-94566895D02*
X123322455Y-94528800D01*
X123322455Y-94528800D02*
X123246265Y-94452609D01*
X123246265Y-94452609D02*
X123208169Y-94300228D01*
X123208169Y-94300228D02*
X123208169Y-94033561D01*
X123208169Y-94033561D02*
X123246265Y-93881180D01*
X123246265Y-93881180D02*
X123322455Y-93804990D01*
X123322455Y-93804990D02*
X123398646Y-93766895D01*
X124084360Y-94566895D02*
X124084360Y-93766895D01*
X124084360Y-93766895D02*
X124541503Y-94566895D01*
X124541503Y-94566895D02*
X124541503Y-93766895D01*
X124808169Y-93766895D02*
X125265312Y-93766895D01*
X125036740Y-94566895D02*
X125036740Y-93766895D01*
X125989122Y-94566895D02*
X125722455Y-94185942D01*
X125531979Y-94566895D02*
X125531979Y-93766895D01*
X125531979Y-93766895D02*
X125836741Y-93766895D01*
X125836741Y-93766895D02*
X125912931Y-93804990D01*
X125912931Y-93804990D02*
X125951026Y-93843085D01*
X125951026Y-93843085D02*
X125989122Y-93919276D01*
X125989122Y-93919276D02*
X125989122Y-94033561D01*
X125989122Y-94033561D02*
X125951026Y-94109752D01*
X125951026Y-94109752D02*
X125912931Y-94147847D01*
X125912931Y-94147847D02*
X125836741Y-94185942D01*
X125836741Y-94185942D02*
X125531979Y-94185942D01*
X126484360Y-93766895D02*
X126636741Y-93766895D01*
X126636741Y-93766895D02*
X126712931Y-93804990D01*
X126712931Y-93804990D02*
X126789122Y-93881180D01*
X126789122Y-93881180D02*
X126827217Y-94033561D01*
X126827217Y-94033561D02*
X126827217Y-94300228D01*
X126827217Y-94300228D02*
X126789122Y-94452609D01*
X126789122Y-94452609D02*
X126712931Y-94528800D01*
X126712931Y-94528800D02*
X126636741Y-94566895D01*
X126636741Y-94566895D02*
X126484360Y-94566895D01*
X126484360Y-94566895D02*
X126408169Y-94528800D01*
X126408169Y-94528800D02*
X126331979Y-94452609D01*
X126331979Y-94452609D02*
X126293883Y-94300228D01*
X126293883Y-94300228D02*
X126293883Y-94033561D01*
X126293883Y-94033561D02*
X126331979Y-93881180D01*
X126331979Y-93881180D02*
X126408169Y-93804990D01*
X126408169Y-93804990D02*
X126484360Y-93766895D01*
X127551026Y-94566895D02*
X127170074Y-94566895D01*
X127170074Y-94566895D02*
X127170074Y-93766895D01*
X122436265Y-97626895D02*
X122436265Y-96826895D01*
X122436265Y-96826895D02*
X122741027Y-96826895D01*
X122741027Y-96826895D02*
X122817217Y-96864990D01*
X122817217Y-96864990D02*
X122855312Y-96903085D01*
X122855312Y-96903085D02*
X122893408Y-96979276D01*
X122893408Y-96979276D02*
X122893408Y-97093561D01*
X122893408Y-97093561D02*
X122855312Y-97169752D01*
X122855312Y-97169752D02*
X122817217Y-97207847D01*
X122817217Y-97207847D02*
X122741027Y-97245942D01*
X122741027Y-97245942D02*
X122436265Y-97245942D01*
X123388646Y-96826895D02*
X123541027Y-96826895D01*
X123541027Y-96826895D02*
X123617217Y-96864990D01*
X123617217Y-96864990D02*
X123693408Y-96941180D01*
X123693408Y-96941180D02*
X123731503Y-97093561D01*
X123731503Y-97093561D02*
X123731503Y-97360228D01*
X123731503Y-97360228D02*
X123693408Y-97512609D01*
X123693408Y-97512609D02*
X123617217Y-97588800D01*
X123617217Y-97588800D02*
X123541027Y-97626895D01*
X123541027Y-97626895D02*
X123388646Y-97626895D01*
X123388646Y-97626895D02*
X123312455Y-97588800D01*
X123312455Y-97588800D02*
X123236265Y-97512609D01*
X123236265Y-97512609D02*
X123198169Y-97360228D01*
X123198169Y-97360228D02*
X123198169Y-97093561D01*
X123198169Y-97093561D02*
X123236265Y-96941180D01*
X123236265Y-96941180D02*
X123312455Y-96864990D01*
X123312455Y-96864990D02*
X123388646Y-96826895D01*
X123998169Y-96826895D02*
X124188645Y-97626895D01*
X124188645Y-97626895D02*
X124341026Y-97055466D01*
X124341026Y-97055466D02*
X124493407Y-97626895D01*
X124493407Y-97626895D02*
X124683884Y-96826895D01*
X124988646Y-97207847D02*
X125255312Y-97207847D01*
X125369598Y-97626895D02*
X124988646Y-97626895D01*
X124988646Y-97626895D02*
X124988646Y-96826895D01*
X124988646Y-96826895D02*
X125369598Y-96826895D01*
X126169599Y-97626895D02*
X125902932Y-97245942D01*
X125712456Y-97626895D02*
X125712456Y-96826895D01*
X125712456Y-96826895D02*
X126017218Y-96826895D01*
X126017218Y-96826895D02*
X126093408Y-96864990D01*
X126093408Y-96864990D02*
X126131503Y-96903085D01*
X126131503Y-96903085D02*
X126169599Y-96979276D01*
X126169599Y-96979276D02*
X126169599Y-97093561D01*
X126169599Y-97093561D02*
X126131503Y-97169752D01*
X126131503Y-97169752D02*
X126093408Y-97207847D01*
X126093408Y-97207847D02*
X126017218Y-97245942D01*
X126017218Y-97245942D02*
X125712456Y-97245942D01*
D12*
%TO.C,C3*%
X107161252Y-102925000D02*
X106638748Y-102925000D01*
X107161252Y-101455000D02*
X106638748Y-101455000D01*
%TO.C,C1*%
X104190000Y-102277836D02*
X104190000Y-102062164D01*
X104910000Y-102277836D02*
X104910000Y-102062164D01*
%TO.C,R4*%
X106534420Y-104480000D02*
X106815580Y-104480000D01*
X106534420Y-103460000D02*
X106815580Y-103460000D01*
%TO.C,J1*%
X127820000Y-88880000D02*
X129200000Y-88880000D01*
X127820000Y-90260000D02*
X127820000Y-88880000D01*
X127820000Y-91530000D02*
X127820000Y-104340000D01*
X127820000Y-91530000D02*
X130580000Y-91530000D01*
X127820000Y-104340000D02*
X130580000Y-104340000D01*
X130580000Y-91530000D02*
X130580000Y-104340000D01*
%TO.C,Z2*%
X110328748Y-95265000D02*
X110851252Y-95265000D01*
X110328748Y-96735000D02*
X110851252Y-96735000D01*
%TO.C,Z1*%
X110328748Y-93145000D02*
X110851252Y-93145000D01*
X110328748Y-94615000D02*
X110851252Y-94615000D01*
%TO.C,J4*%
X103530000Y-100185000D02*
X103270000Y-100185000D01*
X107580000Y-100185000D02*
X105810000Y-100185000D01*
X107580000Y-100185000D02*
X107580000Y-99805000D01*
X103270000Y-92565000D02*
X103530000Y-92565000D01*
X105810000Y-92565000D02*
X107580000Y-92565000D01*
X107580000Y-92565000D02*
X107580000Y-92945000D01*
%TO.C,U2*%
X110430000Y-99650000D02*
X113010000Y-99650000D01*
X113010000Y-100630000D02*
X113010000Y-99650000D01*
X113010000Y-103390000D02*
X113010000Y-104370000D01*
X113010000Y-104370000D02*
X110290000Y-104370000D01*
X109880000Y-99800000D02*
X109640000Y-99470000D01*
X110120000Y-99470000D01*
X109880000Y-99800000D01*
G36*
X109880000Y-99800000D02*
G01*
X109640000Y-99470000D01*
X110120000Y-99470000D01*
X109880000Y-99800000D01*
G37*
%TO.C,R3*%
X110224420Y-91530000D02*
X110505580Y-91530000D01*
X110224420Y-92550000D02*
X110505580Y-92550000D01*
%TO.C,R2*%
X112240000Y-91330580D02*
X112240000Y-91049420D01*
X113260000Y-91330580D02*
X113260000Y-91049420D01*
%TO.C,R1*%
X110224420Y-89930000D02*
X110505580Y-89930000D01*
X110224420Y-90950000D02*
X110505580Y-90950000D01*
%TO.C,J2*%
X114410000Y-103910000D02*
X114410000Y-102530000D01*
X115790000Y-103910000D02*
X114410000Y-103910000D01*
X117060000Y-103910000D02*
X122250000Y-103910000D01*
X117060000Y-103910000D02*
X117060000Y-101150000D01*
X122250000Y-103910000D02*
X122250000Y-101150000D01*
X117060000Y-101150000D02*
X122250000Y-101150000D01*
%TO.C,D3*%
X125212500Y-99020000D02*
X125212500Y-98020000D01*
%TO.C,D2*%
X125212500Y-95940000D02*
X125212500Y-94940000D01*
%TO.C,D1*%
X108860000Y-99220000D02*
X112870000Y-99220000D01*
X108860000Y-97220000D02*
X112870000Y-97220000D01*
X108860000Y-97220000D02*
X108860000Y-99220000D01*
D11*
%TO.C,U1*%
X121728500Y-99665000D02*
G75*
G02*
X121601500Y-99665000I-63500J0D01*
G01*
X121601500Y-99665000D02*
G75*
G02*
X121728500Y-99665000I63500J0D01*
G01*
D12*
X121865000Y-99365000D02*
X121865000Y-94265000D01*
X121865000Y-94265000D02*
X114265000Y-94265000D01*
X114265000Y-94265000D02*
X114265000Y-99865000D01*
X114265000Y-99865000D02*
X121365000Y-99865000D01*
%TD*%
M02*
