M48
; DRILL file {KiCad 9.0.6} date 2026-04-12T15:51:00+0530
; FORMAT={-:-/ absolute / metric / decimal}
; #@! TF.CreationDate,2026-04-12T15:51:00+05:30
; #@! TF.GenerationSoftware,Kicad,Pcbnew,9.0.6
; #@! TF.FileFunction,Plated,1,2,PTH
FMAT,2
METRIC
; #@! TA.AperFunction,Plated,PTH,ViaDrill
T1C0.300
; #@! TA.AperFunction,Plated,PTH,ComponentDrill
T2C1.000
; #@! TA.AperFunction,Plated,PTH,ComponentDrill
T3C2.200
%
G90
G05
T1
X103.87Y-103.88
X108.23Y-91.38
X108.516Y-98.089
X108.6Y-104.33
X108.832Y-96.612
X111.32Y-89.188
X111.8Y-103.57
X112.986Y-95.112
X113.28Y-94.09
X113.41Y-95.79
X113.5Y-93.1
X114.44Y-100.52
X118.34Y-95.9
X120.271Y-93.757
X120.696Y-92.484
X121.356Y-93.144
X122.114Y-93.736
X122.51Y-97.35
X122.87Y-99.68
X122.906Y-89.66
X123.15Y-91.6
X123.976Y-99.716
X124.59Y-96.65
X125.99Y-93.37
T2
X115.79Y-102.53
X118.33Y-102.53
X120.87Y-102.53
X129.2Y-90.26
X129.2Y-92.8
X129.2Y-95.34
X129.2Y-97.88
X129.2Y-100.42
X129.2Y-102.96
T3
X115.96Y-91.71
X125.12Y-102.57
M30
