%TF.GenerationSoftware,KiCad,Pcbnew,9.0.6*%
%TF.CreationDate,2026-04-12T15:45:06+05:30*%
%TF.ProjectId,programmig_circuit,70726f67-7261-46d6-9d69-675f63697263,rev?*%
%TF.SameCoordinates,Original*%
%TF.FileFunction,Paste,Top*%
%TF.FilePolarity,Positive*%
%FSLAX46Y46*%
G04 Gerber Fmt 4.6, Leading zero omitted, Abs format (unit mm)*
G04 Created by KiCad (PCBNEW 9.0.6) date 2026-04-12 15:45:06*
%MOMM*%
%LPD*%
G01*
G04 APERTURE LIST*
G04 Aperture macros list*
%AMRoundRect*
0 Rectangle with rounded corners*
0 $1 Rounding radius*
0 $2 $3 $4 $5 $6 $7 $8 $9 X,Y pos of 4 corners*
0 Add a 4 corners polygon primitive as box body*
4,1,4,$2,$3,$4,$5,$6,$7,$8,$9,$2,$3,0*
0 Add four circle primitives for the rounded corners*
1,1,$1+$1,$2,$3*
1,1,$1+$1,$4,$5*
1,1,$1+$1,$6,$7*
1,1,$1+$1,$8,$9*
0 Add four rect primitives between the rounded corners*
20,1,$1+$1,$2,$3,$4,$5,0*
20,1,$1+$1,$4,$5,$6,$7,0*
20,1,$1+$1,$6,$7,$8,$9,0*
20,1,$1+$1,$8,$9,$2,$3,0*%
%AMFreePoly0*
4,1,9,3.862500,-0.866500,0.737500,-0.866500,0.737500,-0.450000,-0.737500,-0.450000,-0.737500,0.450000,0.737500,0.450000,0.737500,0.866500,3.862500,0.866500,3.862500,-0.866500,3.862500,-0.866500,$1*%
G04 Aperture macros list end*
%ADD10RoundRect,0.250000X0.250000X0.475000X-0.250000X0.475000X-0.250000X-0.475000X0.250000X-0.475000X0*%
%ADD11RoundRect,0.140000X0.170000X-0.140000X0.170000X0.140000X-0.170000X0.140000X-0.170000X-0.140000X0*%
%ADD12RoundRect,0.225000X-0.225000X-0.250000X0.225000X-0.250000X0.225000X0.250000X-0.225000X0.250000X0*%
%ADD13RoundRect,0.250000X-0.250000X-0.475000X0.250000X-0.475000X0.250000X0.475000X-0.250000X0.475000X0*%
%ADD14R,1.300000X1.650000*%
%ADD15R,1.550000X1.425000*%
%ADD16R,1.900000X1.000000*%
%ADD17R,1.900000X1.800000*%
%ADD18R,1.380000X0.450000*%
%ADD19RoundRect,0.225000X-0.425000X-0.225000X0.425000X-0.225000X0.425000X0.225000X-0.425000X0.225000X0*%
%ADD20FreePoly0,0.000000*%
%ADD21RoundRect,0.225000X0.250000X-0.225000X0.250000X0.225000X-0.250000X0.225000X-0.250000X-0.225000X0*%
%ADD22RoundRect,0.218750X0.218750X0.256250X-0.218750X0.256250X-0.218750X-0.256250X0.218750X-0.256250X0*%
%ADD23RoundRect,0.225000X-0.225000X-0.375000X0.225000X-0.375000X0.225000X0.375000X-0.225000X0.375000X0*%
%ADD24RoundRect,0.150000X0.825000X0.150000X-0.825000X0.150000X-0.825000X-0.150000X0.825000X-0.150000X0*%
G04 APERTURE END LIST*
D10*
%TO.C,C3*%
X107850000Y-102190000D03*
X105950000Y-102190000D03*
%TD*%
D11*
%TO.C,C1*%
X104550000Y-102650000D03*
X104550000Y-101690000D03*
%TD*%
D12*
%TO.C,R4*%
X107450000Y-103970000D03*
X105900000Y-103970000D03*
%TD*%
D13*
%TO.C,Z2*%
X109640000Y-96000000D03*
X111540000Y-96000000D03*
%TD*%
%TO.C,Z1*%
X109640000Y-93880000D03*
X111540000Y-93880000D03*
%TD*%
D14*
%TO.C,J4*%
X104670000Y-99750000D03*
D15*
X107245000Y-98862500D03*
D16*
X104670000Y-97925000D03*
D17*
X104670000Y-95225000D03*
D15*
X107245000Y-93887500D03*
D14*
X104670000Y-93000000D03*
D18*
X107330000Y-97675000D03*
X107330000Y-97025000D03*
X107330000Y-96375000D03*
X107330000Y-95725000D03*
X107330000Y-95075000D03*
%TD*%
D19*
%TO.C,U2*%
X109700000Y-100510000D03*
D20*
X109787500Y-102010000D03*
D19*
X109700000Y-103510000D03*
%TD*%
D12*
%TO.C,R3*%
X109590000Y-92040000D03*
X111140000Y-92040000D03*
%TD*%
D21*
%TO.C,R2*%
X112750000Y-91965000D03*
X112750000Y-90415000D03*
%TD*%
D12*
%TO.C,R1*%
X109590000Y-90440000D03*
X111140000Y-90440000D03*
%TD*%
D22*
%TO.C,D3*%
X124600000Y-98520000D03*
X123025000Y-98520000D03*
%TD*%
%TO.C,D2*%
X124600000Y-95440000D03*
X123025000Y-95440000D03*
%TD*%
D23*
%TO.C,D1*%
X112870000Y-98220000D03*
X109570000Y-98220000D03*
%TD*%
D24*
%TO.C,U1*%
X115590000Y-98970000D03*
X115590000Y-97700000D03*
X115590000Y-96430000D03*
X115590000Y-95160000D03*
X120540000Y-95160000D03*
X120540000Y-96430000D03*
X120540000Y-97700000D03*
X120540000Y-98970000D03*
%TD*%
M02*
