%TF.GenerationSoftware,KiCad,Pcbnew,9.0.6*%
%TF.CreationDate,2026-04-12T15:45:06+05:30*%
%TF.ProjectId,programmig_circuit,70726f67-7261-46d6-9d69-675f63697263,rev?*%
%TF.SameCoordinates,Original*%
%TF.FileFunction,Copper,L1,Top*%
%TF.FilePolarity,Positive*%
%FSLAX46Y46*%
G04 Gerber Fmt 4.6, Leading zero omitted, Abs format (unit mm)*
G04 Created by KiCad (PCBNEW 9.0.6) date 2026-04-12 15:45:06*
%MOMM*%
%LPD*%
G01*
G04 APERTURE LIST*
G04 Aperture macros list*
%AMRoundRect*
0 Rectangle with rounded corners*
0 $1 Rounding radius*
0 $2 $3 $4 $5 $6 $7 $8 $9 X,Y pos of 4 corners*
0 Add a 4 corners polygon primitive as box body*
4,1,4,$2,$3,$4,$5,$6,$7,$8,$9,$2,$3,0*
0 Add four circle primitives for the rounded corners*
1,1,$1+$1,$2,$3*
1,1,$1+$1,$4,$5*
1,1,$1+$1,$6,$7*
1,1,$1+$1,$8,$9*
0 Add four rect primitives between the rounded corners*
20,1,$1+$1,$2,$3,$4,$5,0*
20,1,$1+$1,$4,$5,$6,$7,0*
20,1,$1+$1,$6,$7,$8,$9,0*
20,1,$1+$1,$8,$9,$2,$3,0*%
%AMFreePoly0*
4,1,9,3.862500,-0.866500,0.737500,-0.866500,0.737500,-0.450000,-0.737500,-0.450000,-0.737500,0.450000,0.737500,0.450000,0.737500,0.866500,3.862500,0.866500,3.862500,-0.866500,3.862500,-0.866500,$1*%
G04 Aperture macros list end*
%TA.AperFunction,SMDPad,CuDef*%
%ADD10RoundRect,0.250000X0.250000X0.475000X-0.250000X0.475000X-0.250000X-0.475000X0.250000X-0.475000X0*%
%TD*%
%TA.AperFunction,SMDPad,CuDef*%
%ADD11RoundRect,0.140000X0.170000X-0.140000X0.170000X0.140000X-0.170000X0.140000X-0.170000X-0.140000X0*%
%TD*%
%TA.AperFunction,SMDPad,CuDef*%
%ADD12RoundRect,0.225000X-0.225000X-0.250000X0.225000X-0.250000X0.225000X0.250000X-0.225000X0.250000X0*%
%TD*%
%TA.AperFunction,ComponentPad*%
%ADD13R,1.700000X1.700000*%
%TD*%
%TA.AperFunction,ComponentPad*%
%ADD14C,1.700000*%
%TD*%
%TA.AperFunction,ComponentPad*%
%ADD15C,3.800000*%
%TD*%
%TA.AperFunction,SMDPad,CuDef*%
%ADD16RoundRect,0.250000X-0.250000X-0.475000X0.250000X-0.475000X0.250000X0.475000X-0.250000X0.475000X0*%
%TD*%
%TA.AperFunction,SMDPad,CuDef*%
%ADD17R,1.300000X1.650000*%
%TD*%
%TA.AperFunction,SMDPad,CuDef*%
%ADD18R,1.550000X1.425000*%
%TD*%
%TA.AperFunction,SMDPad,CuDef*%
%ADD19R,1.900000X1.000000*%
%TD*%
%TA.AperFunction,SMDPad,CuDef*%
%ADD20R,1.900000X1.800000*%
%TD*%
%TA.AperFunction,SMDPad,CuDef*%
%ADD21R,1.380000X0.450000*%
%TD*%
%TA.AperFunction,SMDPad,CuDef*%
%ADD22RoundRect,0.225000X-0.425000X-0.225000X0.425000X-0.225000X0.425000X0.225000X-0.425000X0.225000X0*%
%TD*%
%TA.AperFunction,SMDPad,CuDef*%
%ADD23FreePoly0,0.000000*%
%TD*%
%TA.AperFunction,SMDPad,CuDef*%
%ADD24RoundRect,0.225000X0.250000X-0.225000X0.250000X0.225000X-0.250000X0.225000X-0.250000X-0.225000X0*%
%TD*%
%TA.AperFunction,SMDPad,CuDef*%
%ADD25RoundRect,0.218750X0.218750X0.256250X-0.218750X0.256250X-0.218750X-0.256250X0.218750X-0.256250X0*%
%TD*%
%TA.AperFunction,SMDPad,CuDef*%
%ADD26RoundRect,0.225000X-0.225000X-0.375000X0.225000X-0.375000X0.225000X0.375000X-0.225000X0.375000X0*%
%TD*%
%TA.AperFunction,SMDPad,CuDef*%
%ADD27RoundRect,0.150000X0.825000X0.150000X-0.825000X0.150000X-0.825000X-0.150000X0.825000X-0.150000X0*%
%TD*%
%TA.AperFunction,ViaPad*%
%ADD28C,0.600000*%
%TD*%
%TA.AperFunction,Conductor*%
%ADD29C,0.200000*%
%TD*%
G04 APERTURE END LIST*
D10*
%TO.P,C3,1*%
%TO.N,Net-(D3-A)*%
X107850000Y-102190000D03*
%TO.P,C3,2*%
%TO.N,GND*%
X105950000Y-102190000D03*
%TD*%
D11*
%TO.P,C1,1*%
%TO.N,Net-(D3-A)*%
X104550000Y-102650000D03*
%TO.P,C1,2*%
%TO.N,GND*%
X104550000Y-101690000D03*
%TD*%
D12*
%TO.P,R4,2*%
%TO.N,Net-(D3-K)*%
X107450000Y-103970000D03*
%TO.P,R4,1*%
%TO.N,GND*%
X105900000Y-103970000D03*
%TD*%
D13*
%TO.P,J1,1,Pin_1*%
%TO.N,Net-(J1-Pin_1)*%
X129200000Y-90260000D03*
D14*
%TO.P,J1,2,Pin_2*%
%TO.N,Net-(D2-A)*%
X129200000Y-92800000D03*
%TO.P,J1,3,Pin_3*%
%TO.N,Net-(J1-Pin_3)*%
X129200000Y-95340000D03*
%TO.P,J1,4,Pin_4*%
%TO.N,/PB3*%
X129200000Y-97880000D03*
%TO.P,J1,5,Pin_5*%
%TO.N,/PB4*%
X129200000Y-100420000D03*
%TO.P,J1,6,Pin_6*%
%TO.N,Net-(J1-Pin_6)*%
X129200000Y-102960000D03*
%TD*%
D15*
%TO.P,H1,1,1*%
%TO.N,GND*%
X115960000Y-91710000D03*
%TD*%
D16*
%TO.P,Z2,1,K*%
%TO.N,Net-(J4-D-)*%
X109640000Y-96000000D03*
%TO.P,Z2,2,A*%
%TO.N,GND*%
X111540000Y-96000000D03*
%TD*%
%TO.P,Z1,1,K*%
%TO.N,Net-(J4-D+)*%
X109640000Y-93880000D03*
%TO.P,Z1,2,A*%
%TO.N,GND*%
X111540000Y-93880000D03*
%TD*%
D17*
%TO.P,J4,6,Shield*%
%TO.N,unconnected-(J4-Shield-Pad6)*%
X104670000Y-99750000D03*
D18*
%TO.N,unconnected-(J4-Shield-Pad6)_4*%
X107245000Y-98862500D03*
D19*
%TO.N,unconnected-(J4-Shield-Pad6)_5*%
X104670000Y-97925000D03*
D20*
%TO.N,unconnected-(J4-Shield-Pad6)_1*%
X104670000Y-95225000D03*
D18*
%TO.N,unconnected-(J4-Shield-Pad6)_3*%
X107245000Y-93887500D03*
D17*
%TO.N,unconnected-(J4-Shield-Pad6)_2*%
X104670000Y-93000000D03*
D21*
%TO.P,J4,5,GND*%
%TO.N,GND*%
X107330000Y-97675000D03*
%TO.P,J4,4,ID*%
%TO.N,unconnected-(J4-ID-Pad4)*%
X107330000Y-97025000D03*
%TO.P,J4,3,D+*%
%TO.N,Net-(J4-D+)*%
X107330000Y-96375000D03*
%TO.P,J4,2,D-*%
%TO.N,Net-(J4-D-)*%
X107330000Y-95725000D03*
%TO.P,J4,1,VBUS*%
%TO.N,Net-(D1-K)*%
X107330000Y-95075000D03*
%TD*%
D22*
%TO.P,U2,1,OUT*%
%TO.N,Net-(D3-A)*%
X109700000Y-100510000D03*
D23*
%TO.P,U2,2,GND*%
%TO.N,GND*%
X109787500Y-102010000D03*
D22*
%TO.P,U2,3,IN*%
%TO.N,/VIN*%
X109700000Y-103510000D03*
%TD*%
D12*
%TO.P,R3,1*%
%TO.N,Net-(J4-D-)*%
X109590000Y-92040000D03*
%TO.P,R3,2*%
%TO.N,/PB4*%
X111140000Y-92040000D03*
%TD*%
D24*
%TO.P,R2,1*%
%TO.N,GND*%
X112750000Y-91965000D03*
%TO.P,R2,2*%
%TO.N,Net-(D2-K)*%
X112750000Y-90415000D03*
%TD*%
D12*
%TO.P,R1,1*%
%TO.N,Net-(J4-D+)*%
X109590000Y-90440000D03*
%TO.P,R1,2*%
%TO.N,/PB3*%
X111140000Y-90440000D03*
%TD*%
D13*
%TO.P,J2,1,Pin_1*%
%TO.N,/VIN*%
X115790000Y-102530000D03*
D14*
%TO.P,J2,2,Pin_2*%
%TO.N,GND*%
X118330000Y-102530000D03*
%TO.P,J2,3,Pin_3*%
%TO.N,+5V*%
X120870000Y-102530000D03*
%TD*%
D15*
%TO.P,H2,1,1*%
%TO.N,GND*%
X125120000Y-102570000D03*
%TD*%
D25*
%TO.P,D3,1,K*%
%TO.N,Net-(D3-K)*%
X124600000Y-98520000D03*
%TO.P,D3,2,A*%
%TO.N,Net-(D3-A)*%
X123025000Y-98520000D03*
%TD*%
%TO.P,D2,1,K*%
%TO.N,Net-(D2-K)*%
X124600000Y-95440000D03*
%TO.P,D2,2,A*%
%TO.N,Net-(D2-A)*%
X123025000Y-95440000D03*
%TD*%
D26*
%TO.P,D1,2,A*%
%TO.N,+5V*%
X112870000Y-98220000D03*
%TO.P,D1,1,K*%
%TO.N,Net-(D1-K)*%
X109570000Y-98220000D03*
%TD*%
D27*
%TO.P,U1,8,VCC*%
%TO.N,+5V*%
X115590000Y-98970000D03*
%TO.P,U1,7,PB2*%
%TO.N,Net-(J1-Pin_3)*%
X115590000Y-97700000D03*
%TO.P,U1,6,PB1*%
%TO.N,Net-(D2-A)*%
X115590000Y-96430000D03*
%TO.P,U1,5,AREF/PB0*%
%TO.N,Net-(J1-Pin_1)*%
X115590000Y-95160000D03*
%TO.P,U1,4,GND*%
%TO.N,GND*%
X120540000Y-95160000D03*
%TO.P,U1,3,XTAL2/PB4*%
%TO.N,/PB4*%
X120540000Y-96430000D03*
%TO.P,U1,2,XTAL1/PB3*%
%TO.N,/PB3*%
X120540000Y-97700000D03*
%TO.P,U1,1,~{RESET}/PB5*%
%TO.N,Net-(J1-Pin_6)*%
X120540000Y-98970000D03*
%TD*%
D28*
%TO.N,GND*%
X103870000Y-103880000D03*
X121355607Y-93144393D03*
X111800000Y-103570000D03*
X113280000Y-94090000D03*
X108516295Y-98089229D03*
X125990000Y-93370000D03*
X123150000Y-91600000D03*
X122906050Y-89660162D03*
X120271343Y-93757187D03*
%TO.N,Net-(J4-D-)*%
X108230000Y-91380000D03*
X108831765Y-96611765D03*
%TO.N,/PB4*%
X122114485Y-93735515D03*
%TO.N,Net-(D2-A)*%
X113410000Y-95790000D03*
X124590000Y-96650000D03*
%TO.N,Net-(J1-Pin_1)*%
X120695607Y-92484393D03*
%TO.N,Net-(D3-K)*%
X108600000Y-104330000D03*
X112985999Y-95111599D03*
%TO.N,/PB4*%
X118340000Y-95900000D03*
X113500000Y-93100000D03*
%TO.N,/PB3*%
X111320036Y-89188144D03*
X122510000Y-97350000D03*
%TO.N,Net-(J1-Pin_6)*%
X123975735Y-99715735D03*
%TO.N,Net-(D3-A)*%
X122870000Y-99680000D03*
X114440000Y-100520000D03*
%TD*%
D29*
%TO.N,/PB4*%
X111211160Y-92040000D02*
X111140000Y-92040000D01*
X112271160Y-93100000D02*
X111211160Y-92040000D01*
X113500000Y-93100000D02*
X112271160Y-93100000D01*
%TO.N,Net-(J4-D+)*%
X110341000Y-93179000D02*
X109640000Y-93880000D01*
X110341000Y-91541000D02*
X110341000Y-93179000D01*
X109991000Y-91191000D02*
X110341000Y-91541000D01*
%TO.N,GND*%
X122906050Y-91356050D02*
X123150000Y-91600000D01*
X122906050Y-89660162D02*
X122906050Y-91356050D01*
X104895000Y-103880000D02*
X103870000Y-103880000D01*
X105860000Y-102915000D02*
X104895000Y-103880000D01*
X105550000Y-102190000D02*
X105550000Y-102915000D01*
X104550000Y-101690000D02*
X105360000Y-101690000D01*
X105360000Y-101690000D02*
X105860000Y-102190000D01*
X120742813Y-93757187D02*
X121355607Y-93144393D01*
X120271343Y-93757187D02*
X120742813Y-93757187D01*
%TO.N,Net-(D3-A)*%
X104193450Y-101109000D02*
X106679000Y-101109000D01*
X103939000Y-102039000D02*
X103939000Y-101363450D01*
X103939000Y-101363450D02*
X104193450Y-101109000D01*
X104550000Y-102650000D02*
X103939000Y-102039000D01*
X106679000Y-101109000D02*
X107760000Y-102190000D01*
X107760000Y-101275000D02*
X108525000Y-100510000D01*
X107760000Y-102190000D02*
X107760000Y-101275000D01*
%TO.N,Net-(D3-K)*%
X108600000Y-104330000D02*
X107810000Y-104330000D01*
X107810000Y-104330000D02*
X107450000Y-103970000D01*
%TO.N,Net-(D3-A)*%
X108525000Y-100510000D02*
X109700000Y-100510000D01*
%TO.N,Net-(D3-K)*%
X108600000Y-104330000D02*
X108570000Y-104300000D01*
%TO.N,GND*%
X111347500Y-103570000D02*
X111800000Y-103570000D01*
X109787500Y-102010000D02*
X111347500Y-103570000D01*
%TO.N,/VIN*%
X110806625Y-104616625D02*
X109700000Y-103510000D01*
X115820000Y-102730000D02*
X113942102Y-104607898D01*
X113942102Y-104607898D02*
X110806625Y-104616625D01*
%TO.N,GND*%
X113070000Y-93880000D02*
X113280000Y-94090000D01*
X111540000Y-93880000D02*
X113070000Y-93880000D01*
%TO.N,Net-(D3-K)*%
X124600000Y-98045001D02*
X124600000Y-98520000D01*
X122937031Y-96382032D02*
X124600000Y-98045001D01*
X121487968Y-97099000D02*
X122204936Y-96382032D01*
X118889132Y-97099000D02*
X121487968Y-97099000D01*
X118488132Y-96698000D02*
X118889132Y-97099000D01*
X117474968Y-96698000D02*
X118488132Y-96698000D01*
X116605968Y-95829000D02*
X117474968Y-96698000D01*
X122204936Y-96382032D02*
X122937031Y-96382032D01*
X114011000Y-95561000D02*
X114279000Y-95829000D01*
X113658943Y-95189000D02*
X114011000Y-95541057D01*
X114011000Y-95541057D02*
X114011000Y-95561000D01*
X113639000Y-95189000D02*
X113658943Y-95189000D01*
X113561599Y-95111599D02*
X113639000Y-95189000D01*
X114279000Y-95829000D02*
X116605968Y-95829000D01*
X112985999Y-95111599D02*
X113561599Y-95111599D01*
%TO.N,GND*%
X108510771Y-98089229D02*
X108516295Y-98089229D01*
X108510000Y-98090000D02*
X108510771Y-98089229D01*
X108095000Y-97675000D02*
X108510000Y-98090000D01*
X107330000Y-97675000D02*
X108095000Y-97675000D01*
X115610000Y-92060000D02*
X115960000Y-91710000D01*
X112750000Y-92060000D02*
X115610000Y-92060000D01*
X124920000Y-93370000D02*
X125990000Y-93370000D01*
X123150000Y-91600000D02*
X124920000Y-93370000D01*
X120271343Y-93731343D02*
X120271343Y-93757187D01*
X120540000Y-95160000D02*
X120540000Y-94000000D01*
X120540000Y-94000000D02*
X120271343Y-93731343D01*
%TO.N,Net-(J1-Pin_3)*%
X129170000Y-95340000D02*
X129200000Y-95340000D01*
X124020000Y-100520000D02*
X124970000Y-99570000D01*
X123440000Y-100890000D02*
X123810000Y-100520000D01*
X124970000Y-99570000D02*
X124970000Y-99540000D01*
X124970000Y-99540000D02*
X129170000Y-95340000D01*
X119140000Y-100890000D02*
X123440000Y-100890000D01*
X115950000Y-97700000D02*
X119140000Y-100890000D01*
X115590000Y-97700000D02*
X115950000Y-97700000D01*
X123810000Y-100520000D02*
X124020000Y-100520000D01*
%TO.N,Net-(J4-D-)*%
X108930000Y-91380000D02*
X109590000Y-92040000D01*
X108230000Y-91380000D02*
X108930000Y-91380000D01*
X108800000Y-96580000D02*
X108831765Y-96611765D01*
X109060000Y-96580000D02*
X108800000Y-96580000D01*
X109640000Y-96000000D02*
X109060000Y-96580000D01*
%TO.N,/PB4*%
X120886968Y-96430000D02*
X120540000Y-96430000D01*
X122114485Y-95202483D02*
X120886968Y-96430000D01*
X122114485Y-93735515D02*
X122114485Y-95202483D01*
%TO.N,Net-(D2-A)*%
X124302500Y-96650000D02*
X123092500Y-95440000D01*
X124590000Y-96650000D02*
X124302500Y-96650000D01*
%TO.N,Net-(J1-Pin_1)*%
X118020000Y-95160000D02*
X120695607Y-92484393D01*
X115590000Y-95160000D02*
X118020000Y-95160000D01*
%TO.N,/PB4*%
X118870000Y-96430000D02*
X120540000Y-96430000D01*
X118340000Y-95900000D02*
X118870000Y-96430000D01*
%TO.N,/PB3*%
X122160000Y-97700000D02*
X120540000Y-97700000D01*
X122510000Y-97350000D02*
X122160000Y-97700000D01*
X111320036Y-89130036D02*
X111320036Y-89188144D01*
X111320000Y-89130000D02*
X111320036Y-89130036D01*
X111140000Y-89310000D02*
X111320000Y-89130000D01*
X111140000Y-90440000D02*
X111140000Y-89310000D01*
%TO.N,Net-(J1-Pin_6)*%
X123990000Y-99730000D02*
X123975735Y-99715735D01*
X123439000Y-100281000D02*
X123990000Y-99730000D01*
X121851000Y-100281000D02*
X123439000Y-100281000D01*
X120540000Y-98970000D02*
X121851000Y-100281000D01*
%TO.N,Net-(D3-A)*%
X122870000Y-98675000D02*
X123025000Y-98520000D01*
X122870000Y-99680000D02*
X122870000Y-98675000D01*
X114430000Y-100510000D02*
X114440000Y-100520000D01*
X109700000Y-100510000D02*
X114430000Y-100510000D01*
%TO.N,+5V*%
X120324999Y-102730000D02*
X120900000Y-102730000D01*
X116564999Y-98970000D02*
X120324999Y-102730000D01*
X115590000Y-98970000D02*
X116564999Y-98970000D01*
X113620000Y-98970000D02*
X112870000Y-98220000D01*
X115590000Y-98970000D02*
X113620000Y-98970000D01*
%TO.N,Net-(D2-K)*%
X118736500Y-89509000D02*
X124667500Y-95440000D01*
X113751000Y-89509000D02*
X118736500Y-89509000D01*
X112750000Y-90510000D02*
X113751000Y-89509000D01*
%TO.N,Net-(J4-D+)*%
X109240000Y-90440000D02*
X109991000Y-91191000D01*
%TO.N,Net-(D1-K)*%
X108321000Y-99876000D02*
X109570000Y-98627000D01*
X106169000Y-95346000D02*
X106169000Y-99876000D01*
X106440000Y-95075000D02*
X106169000Y-95346000D01*
X109570000Y-98627000D02*
X109570000Y-98220000D01*
X107330000Y-95075000D02*
X106440000Y-95075000D01*
X106169000Y-99876000D02*
X108321000Y-99876000D01*
%TO.N,Net-(J4-D-)*%
X108438000Y-93192000D02*
X109590000Y-92040000D01*
X108438000Y-95589900D02*
X108438000Y-93192000D01*
X108302900Y-95725000D02*
X108438000Y-95589900D01*
X107330000Y-95725000D02*
X108302900Y-95725000D01*
%TO.N,Net-(J4-D+)*%
X108839000Y-94681000D02*
X109640000Y-93880000D01*
X108839000Y-95756000D02*
X108839000Y-94681000D01*
X108220000Y-96375000D02*
X108839000Y-95756000D01*
X107330000Y-96375000D02*
X108220000Y-96375000D01*
%TO.N,Net-(D2-A)*%
X115590000Y-96430000D02*
X114050000Y-96430000D01*
X114050000Y-96430000D02*
X113410000Y-95790000D01*
%TD*%
%TA.AperFunction,Conductor*%
%TO.N,GND*%
G36*
X110480723Y-88901385D02*
G01*
X110526491Y-88954178D01*
X110536452Y-89023334D01*
X110535328Y-89029908D01*
X110519536Y-89109302D01*
X110519536Y-89266988D01*
X110537116Y-89355365D01*
X110539499Y-89379551D01*
X110539500Y-89399053D01*
X110539500Y-89499995D01*
X110519815Y-89567034D01*
X110480600Y-89605532D01*
X110461952Y-89617034D01*
X110452677Y-89626309D01*
X110391353Y-89659792D01*
X110321661Y-89654805D01*
X110277318Y-89626306D01*
X110268044Y-89617032D01*
X110268040Y-89617029D01*
X110123705Y-89528001D01*
X110123699Y-89527998D01*
X110123697Y-89527997D01*
X110123694Y-89527996D01*
X109962709Y-89474651D01*
X109863346Y-89464500D01*
X109316662Y-89464500D01*
X109316644Y-89464501D01*
X109217292Y-89474650D01*
X109217289Y-89474651D01*
X109056305Y-89527996D01*
X109056294Y-89528001D01*
X108911959Y-89617029D01*
X108911955Y-89617032D01*
X108792032Y-89736955D01*
X108792029Y-89736959D01*
X108703001Y-89881294D01*
X108702996Y-89881305D01*
X108649651Y-90042290D01*
X108639500Y-90141647D01*
X108639500Y-90141655D01*
X108639500Y-90360937D01*
X108639499Y-90360943D01*
X108639499Y-90435097D01*
X108639499Y-90497587D01*
X108619814Y-90564626D01*
X108567010Y-90610381D01*
X108506545Y-90619074D01*
X108497852Y-90620324D01*
X108497851Y-90620323D01*
X108497851Y-90620324D01*
X108497849Y-90620323D01*
X108468051Y-90612149D01*
X108463500Y-90610264D01*
X108463498Y-90610263D01*
X108463497Y-90610263D01*
X108463494Y-90610262D01*
X108463489Y-90610261D01*
X108308845Y-90579500D01*
X108308842Y-90579500D01*
X108151158Y-90579500D01*
X108151155Y-90579500D01*
X107996510Y-90610261D01*
X107996498Y-90610264D01*
X107850827Y-90670602D01*
X107850814Y-90670609D01*
X107719711Y-90758210D01*
X107719707Y-90758213D01*
X107608213Y-90869707D01*
X107608210Y-90869711D01*
X107520609Y-91000814D01*
X107520602Y-91000827D01*
X107460264Y-91146498D01*
X107460261Y-91146510D01*
X107429500Y-91301153D01*
X107429500Y-91458846D01*
X107460261Y-91613489D01*
X107460264Y-91613501D01*
X107520602Y-91759172D01*
X107520609Y-91759185D01*
X107608210Y-91890288D01*
X107608213Y-91890292D01*
X107719707Y-92001786D01*
X107719711Y-92001789D01*
X107850814Y-92089390D01*
X107850827Y-92089397D01*
X107996498Y-92149735D01*
X107996503Y-92149737D01*
X108151153Y-92180499D01*
X108151156Y-92180500D01*
X108300902Y-92180500D01*
X108367941Y-92200185D01*
X108413696Y-92252989D01*
X108423640Y-92322147D01*
X108394615Y-92385703D01*
X108388583Y-92392181D01*
X108142582Y-92638181D01*
X108081259Y-92671666D01*
X108054901Y-92674500D01*
X106422129Y-92674500D01*
X106422123Y-92674501D01*
X106362516Y-92680908D01*
X106227671Y-92731202D01*
X106227664Y-92731206D01*
X106112455Y-92817452D01*
X106043765Y-92909210D01*
X105987831Y-92951080D01*
X105918139Y-92956064D01*
X105856817Y-92922578D01*
X105823332Y-92861255D01*
X105820499Y-92834898D01*
X105820499Y-92127129D01*
X105820498Y-92127123D01*
X105820497Y-92127116D01*
X105814091Y-92067517D01*
X105779250Y-91974104D01*
X105763797Y-91932671D01*
X105763793Y-91932664D01*
X105677547Y-91817455D01*
X105677544Y-91817452D01*
X105562335Y-91731206D01*
X105562328Y-91731202D01*
X105427482Y-91680908D01*
X105427483Y-91680908D01*
X105367883Y-91674501D01*
X105367881Y-91674500D01*
X105367873Y-91674500D01*
X105367864Y-91674500D01*
X103972129Y-91674500D01*
X103972123Y-91674501D01*
X103912516Y-91680908D01*
X103777671Y-91731202D01*
X103777664Y-91731206D01*
X103662455Y-91817452D01*
X103662452Y-91817455D01*
X103576206Y-91932664D01*
X103576202Y-91932671D01*
X103525908Y-92067517D01*
X103521856Y-92105214D01*
X103519501Y-92127123D01*
X103519500Y-92127135D01*
X103519500Y-93787819D01*
X103499815Y-93854858D01*
X103469812Y-93887085D01*
X103362452Y-93967455D01*
X103276206Y-94082664D01*
X103276202Y-94082671D01*
X103225908Y-94217517D01*
X103219501Y-94277116D01*
X103219500Y-94277135D01*
X103219500Y-96172870D01*
X103219501Y-96172876D01*
X103225908Y-96232483D01*
X103276202Y-96367328D01*
X103276206Y-96367335D01*
X103362452Y-96482544D01*
X103362455Y-96482547D01*
X103477664Y-96568793D01*
X103477671Y-96568797D01*
X103612517Y-96619091D01*
X103612516Y-96619091D01*
X103619444Y-96619835D01*
X103672127Y-96625500D01*
X105444500Y-96625499D01*
X105453185Y-96628049D01*
X105462147Y-96626761D01*
X105486187Y-96637739D01*
X105511539Y-96645184D01*
X105517466Y-96652024D01*
X105525703Y-96655786D01*
X105539990Y-96678018D01*
X105557294Y-96697987D01*
X105559581Y-96708502D01*
X105563477Y-96714564D01*
X105568500Y-96749499D01*
X105568500Y-96800500D01*
X105548815Y-96867539D01*
X105496011Y-96913294D01*
X105444500Y-96924500D01*
X103672129Y-96924500D01*
X103672123Y-96924501D01*
X103612516Y-96930908D01*
X103477671Y-96981202D01*
X103477664Y-96981206D01*
X103362455Y-97067452D01*
X103362452Y-97067455D01*
X103276206Y-97182664D01*
X103276202Y-97182671D01*
X103225908Y-97317517D01*
X103219501Y-97377116D01*
X103219500Y-97377135D01*
X103219500Y-98472870D01*
X103219501Y-98472876D01*
X103225908Y-98532483D01*
X103276202Y-98667328D01*
X103276206Y-98667335D01*
X103345358Y-98759709D01*
X103362454Y-98782546D01*
X103469811Y-98862914D01*
X103511682Y-98918847D01*
X103519500Y-98962180D01*
X103519500Y-100622870D01*
X103519501Y-100622876D01*
X103525909Y-100682484D01*
X103564567Y-100786134D01*
X103565324Y-100796731D01*
X103570179Y-100806182D01*
X103567773Y-100830975D01*
X103569551Y-100855825D01*
X103564280Y-100866989D01*
X103563433Y-100875726D01*
X103551954Y-100893099D01*
X103545740Y-100906264D01*
X103541219Y-100911994D01*
X103458480Y-100994734D01*
X103415270Y-101069577D01*
X103410792Y-101077331D01*
X103410791Y-101077334D01*
X103379423Y-101131664D01*
X103379423Y-101131665D01*
X103338499Y-101284393D01*
X103338499Y-101284395D01*
X103338499Y-101452496D01*
X103338500Y-101452509D01*
X103338500Y-101952330D01*
X103338499Y-101952348D01*
X103338499Y-102118054D01*
X103338498Y-102118054D01*
X103355794Y-102182602D01*
X103379423Y-102270785D01*
X103385481Y-102281278D01*
X103385483Y-102281285D01*
X103385485Y-102281285D01*
X103458475Y-102407709D01*
X103458481Y-102407717D01*
X103577349Y-102526585D01*
X103577355Y-102526590D01*
X103703181Y-102652416D01*
X103736666Y-102713739D01*
X103739500Y-102740097D01*
X103739500Y-102854697D01*
X103742356Y-102890991D01*
X103742357Y-102890997D01*
X103787504Y-103046390D01*
X103787505Y-103046393D01*
X103787506Y-103046395D01*
X103799270Y-103066287D01*
X103869881Y-103185684D01*
X103869887Y-103185692D01*
X103984307Y-103300112D01*
X103984311Y-103300115D01*
X103984313Y-103300117D01*
X104123605Y-103382494D01*
X104152755Y-103390963D01*
X104279002Y-103427642D01*
X104279005Y-103427642D01*
X104279007Y-103427643D01*
X104315310Y-103430500D01*
X104315318Y-103430500D01*
X104784682Y-103430500D01*
X104784690Y-103430500D01*
X104817189Y-103427942D01*
X104827310Y-103427146D01*
X104827524Y-103429869D01*
X104885101Y-103435880D01*
X104939639Y-103479553D01*
X104961909Y-103545779D01*
X104960201Y-103565594D01*
X104960832Y-103565659D01*
X104950000Y-103671677D01*
X104950000Y-103720000D01*
X105650000Y-103720000D01*
X105650000Y-102966362D01*
X105669685Y-102899323D01*
X105686319Y-102878681D01*
X105700000Y-102865000D01*
X105700000Y-102314000D01*
X105719685Y-102246961D01*
X105772489Y-102201206D01*
X105824000Y-102190000D01*
X106076000Y-102190000D01*
X106143039Y-102209685D01*
X106188794Y-102262489D01*
X106200000Y-102314000D01*
X106200000Y-103443638D01*
X106180315Y-103510677D01*
X106163681Y-103531319D01*
X106150000Y-103545000D01*
X106150000Y-103846000D01*
X106130315Y-103913039D01*
X106077511Y-103958794D01*
X106026000Y-103970000D01*
X105900000Y-103970000D01*
X105900000Y-104096000D01*
X105880315Y-104163039D01*
X105827511Y-104208794D01*
X105776000Y-104220000D01*
X104950001Y-104220000D01*
X104950001Y-104268322D01*
X104960144Y-104367607D01*
X105013452Y-104528481D01*
X105013454Y-104528486D01*
X105023281Y-104544417D01*
X105041721Y-104611810D01*
X105020798Y-104678473D01*
X104967156Y-104723243D01*
X104918087Y-104733514D01*
X102891905Y-104739154D01*
X102891782Y-104739154D01*
X102880831Y-104739173D01*
X102877623Y-104738369D01*
X102820497Y-104739281D01*
X102819587Y-104739283D01*
X102819049Y-104739126D01*
X102802245Y-104738096D01*
X102728979Y-104727883D01*
X102692444Y-104716860D01*
X102634523Y-104689060D01*
X102603070Y-104667451D01*
X102556345Y-104623354D01*
X102532952Y-104593203D01*
X102529496Y-104586957D01*
X102501847Y-104536983D01*
X102488732Y-104501149D01*
X102488022Y-104497580D01*
X102474969Y-104431967D01*
X102472593Y-104408982D01*
X102472391Y-104388197D01*
X102325280Y-89232460D01*
X102326291Y-89215413D01*
X102328979Y-89194551D01*
X102334391Y-89152545D01*
X102342653Y-89121330D01*
X102363877Y-89069609D01*
X102379925Y-89041581D01*
X102394364Y-89022612D01*
X102413779Y-88997104D01*
X102436521Y-88974172D01*
X102480716Y-88939947D01*
X102508608Y-88923668D01*
X102553812Y-88904677D01*
X102560144Y-88902016D01*
X102591295Y-88893492D01*
X102654200Y-88884853D01*
X102671011Y-88883702D01*
X110413680Y-88881718D01*
X110480723Y-88901385D01*
G37*
%TD.AperFunction*%
%TA.AperFunction,Conductor*%
G36*
X131309981Y-88876510D02*
G01*
X131366418Y-88876367D01*
X131366455Y-88876368D01*
X131385467Y-88877835D01*
X131458571Y-88889186D01*
X131495377Y-88901000D01*
X131552627Y-88929874D01*
X131584004Y-88952448D01*
X131629583Y-88997557D01*
X131630925Y-88999382D01*
X131631968Y-88999982D01*
X131652483Y-89028699D01*
X131660699Y-89044577D01*
X131681948Y-89085643D01*
X131694145Y-89122331D01*
X131706206Y-89195019D01*
X131707878Y-89214739D01*
X131778255Y-104316087D01*
X131776807Y-104335568D01*
X131765535Y-104408646D01*
X131764895Y-104410653D01*
X131765014Y-104411758D01*
X131753869Y-104445246D01*
X131725084Y-104502753D01*
X131702776Y-104534026D01*
X131657774Y-104579962D01*
X131626968Y-104602906D01*
X131570063Y-104632868D01*
X131533709Y-104645284D01*
X131462169Y-104657829D01*
X131441097Y-104659693D01*
X114993468Y-104705472D01*
X114926374Y-104685974D01*
X114880472Y-104633297D01*
X114870336Y-104564167D01*
X114899184Y-104500530D01*
X114905428Y-104493805D01*
X115482416Y-103916818D01*
X115543739Y-103883333D01*
X115570097Y-103880499D01*
X116687871Y-103880499D01*
X116687872Y-103880499D01*
X116747483Y-103874091D01*
X116882331Y-103823796D01*
X116997546Y-103737546D01*
X117083796Y-103622331D01*
X117134091Y-103487483D01*
X117140500Y-103427873D01*
X117140499Y-103403979D01*
X117143330Y-103390963D01*
X117153940Y-103371525D01*
X117160179Y-103350275D01*
X117176803Y-103329643D01*
X117176808Y-103329636D01*
X117176811Y-103329634D01*
X117176818Y-103329626D01*
X117847037Y-102659408D01*
X117864075Y-102722993D01*
X117929901Y-102837007D01*
X118022993Y-102930099D01*
X118137007Y-102995925D01*
X118200590Y-103012962D01*
X117568282Y-103645269D01*
X117568282Y-103645270D01*
X117622449Y-103684624D01*
X117811782Y-103781095D01*
X118013870Y-103846757D01*
X118223754Y-103880000D01*
X118436246Y-103880000D01*
X118646127Y-103846757D01*
X118646130Y-103846757D01*
X118848217Y-103781095D01*
X119037554Y-103684622D01*
X119091716Y-103645270D01*
X119091717Y-103645270D01*
X118459408Y-103012962D01*
X118522993Y-102995925D01*
X118637007Y-102930099D01*
X118730099Y-102837007D01*
X118795925Y-102722993D01*
X118812962Y-102659408D01*
X119445270Y-103291717D01*
X119445270Y-103291716D01*
X119484622Y-103237555D01*
X119489232Y-103228507D01*
X119537205Y-103177709D01*
X119605025Y-103160912D01*
X119671161Y-103183447D01*
X119710204Y-103228504D01*
X119714949Y-103237817D01*
X119839890Y-103409786D01*
X119990213Y-103560109D01*
X120162179Y-103685048D01*
X120162181Y-103685049D01*
X120162184Y-103685051D01*
X120351588Y-103781557D01*
X120553757Y-103847246D01*
X120763713Y-103880500D01*
X120763714Y-103880500D01*
X120976286Y-103880500D01*
X120976287Y-103880500D01*
X121186243Y-103847246D01*
X121388412Y-103781557D01*
X121577816Y-103685051D01*
X121664138Y-103622335D01*
X121749786Y-103560109D01*
X121749788Y-103560106D01*
X121749792Y-103560104D01*
X121900104Y-103409792D01*
X121900106Y-103409788D01*
X121900109Y-103409786D01*
X122025048Y-103237820D01*
X122025050Y-103237817D01*
X122025051Y-103237816D01*
X122121557Y-103048412D01*
X122187246Y-102846243D01*
X122220500Y-102636287D01*
X122220500Y-102423713D01*
X122187246Y-102213757D01*
X122121557Y-102011588D01*
X122025051Y-101822184D01*
X121932874Y-101695312D01*
X121927115Y-101687385D01*
X121903635Y-101621579D01*
X121919461Y-101553525D01*
X121969567Y-101504830D01*
X122027433Y-101490500D01*
X123353331Y-101490500D01*
X123353347Y-101490501D01*
X123360943Y-101490501D01*
X123519054Y-101490501D01*
X123519057Y-101490501D01*
X123671785Y-101449577D01*
X123722147Y-101420500D01*
X123808716Y-101370520D01*
X123920520Y-101258716D01*
X123920520Y-101258714D01*
X123930721Y-101248514D01*
X123930725Y-101248508D01*
X124022858Y-101156376D01*
X124084181Y-101122893D01*
X124094354Y-101121120D01*
X124099052Y-101120501D01*
X124099057Y-101120501D01*
X124251785Y-101079577D01*
X124301904Y-101050639D01*
X124388716Y-101000520D01*
X124500520Y-100888716D01*
X124500520Y-100888714D01*
X124510728Y-100878507D01*
X124510730Y-100878504D01*
X125328506Y-100060728D01*
X125328511Y-100060724D01*
X125338714Y-100050520D01*
X125338716Y-100050520D01*
X125450520Y-99938716D01*
X125483339Y-99881868D01*
X125503042Y-99856191D01*
X127637819Y-97721415D01*
X127699142Y-97687930D01*
X127768834Y-97692914D01*
X127824767Y-97734786D01*
X127849184Y-97800250D01*
X127849500Y-97809096D01*
X127849500Y-97986287D01*
X127858406Y-98042517D01*
X127869156Y-98110393D01*
X127882754Y-98196243D01*
X127941919Y-98378334D01*
X127948444Y-98398414D01*
X128044951Y-98587820D01*
X128169890Y-98759786D01*
X128320213Y-98910109D01*
X128492182Y-99035050D01*
X128500946Y-99039516D01*
X128551742Y-99087491D01*
X128568536Y-99155312D01*
X128545998Y-99221447D01*
X128500946Y-99260484D01*
X128492182Y-99264949D01*
X128320213Y-99389890D01*
X128169890Y-99540213D01*
X128044951Y-99712179D01*
X127948444Y-99901585D01*
X127882753Y-100103760D01*
X127853385Y-100289184D01*
X127849500Y-100313713D01*
X127849500Y-100526287D01*
X127882754Y-100736243D01*
X127937997Y-100906264D01*
X127948444Y-100938414D01*
X128044951Y-101127820D01*
X128169890Y-101299786D01*
X128320213Y-101450109D01*
X128492182Y-101575050D01*
X128500946Y-101579516D01*
X128551742Y-101627491D01*
X128568536Y-101695312D01*
X128545998Y-101761447D01*
X128500946Y-101800484D01*
X128492182Y-101804949D01*
X128320213Y-101929890D01*
X128169890Y-102080213D01*
X128044951Y-102252179D01*
X127948444Y-102441585D01*
X127882753Y-102643760D01*
X127849500Y-102853713D01*
X127849500Y-103066286D01*
X127880381Y-103261264D01*
X127882754Y-103276243D01*
X127937144Y-103443638D01*
X127948444Y-103478414D01*
X128044951Y-103667820D01*
X128169890Y-103839786D01*
X128320213Y-103990109D01*
X128492179Y-104115048D01*
X128492181Y-104115049D01*
X128492184Y-104115051D01*
X128681588Y-104211557D01*
X128883757Y-104277246D01*
X129093713Y-104310500D01*
X129093714Y-104310500D01*
X129306286Y-104310500D01*
X129306287Y-104310500D01*
X129516243Y-104277246D01*
X129718412Y-104211557D01*
X129907816Y-104115051D01*
X129934038Y-104096000D01*
X130079786Y-103990109D01*
X130079788Y-103990106D01*
X130079792Y-103990104D01*
X130230104Y-103839792D01*
X130230106Y-103839788D01*
X130230109Y-103839786D01*
X130355048Y-103667820D01*
X130355047Y-103667820D01*
X130355051Y-103667816D01*
X130451557Y-103478412D01*
X130517246Y-103276243D01*
X130550500Y-103066287D01*
X130550500Y-102853713D01*
X130517246Y-102643757D01*
X130451557Y-102441588D01*
X130355051Y-102252184D01*
X130355049Y-102252181D01*
X130355048Y-102252179D01*
X130230109Y-102080213D01*
X130079786Y-101929890D01*
X129907820Y-101804951D01*
X129907115Y-101804591D01*
X129899054Y-101800485D01*
X129848259Y-101752512D01*
X129831463Y-101684692D01*
X129853999Y-101618556D01*
X129899054Y-101579515D01*
X129907816Y-101575051D01*
X129929789Y-101559086D01*
X130079786Y-101450109D01*
X130079788Y-101450106D01*
X130079792Y-101450104D01*
X130230104Y-101299792D01*
X130230106Y-101299788D01*
X130230109Y-101299786D01*
X130347182Y-101138647D01*
X130355051Y-101127816D01*
X130451557Y-100938412D01*
X130517246Y-100736243D01*
X130550500Y-100526287D01*
X130550500Y-100313713D01*
X130517246Y-100103757D01*
X130451557Y-99901588D01*
X130355051Y-99712184D01*
X130355049Y-99712181D01*
X130355048Y-99712179D01*
X130230109Y-99540213D01*
X130079786Y-99389890D01*
X129907820Y-99264951D01*
X129907115Y-99264591D01*
X129899054Y-99260485D01*
X129848259Y-99212512D01*
X129831463Y-99144692D01*
X129853999Y-99078556D01*
X129899054Y-99039515D01*
X129907816Y-99035051D01*
X130062476Y-98922685D01*
X130079786Y-98910109D01*
X130079788Y-98910106D01*
X130079792Y-98910104D01*
X130230104Y-98759792D01*
X130230106Y-98759788D01*
X130230109Y-98759786D01*
X130355048Y-98587820D01*
X130355047Y-98587820D01*
X130355051Y-98587816D01*
X130451557Y-98398412D01*
X130517246Y-98196243D01*
X130550500Y-97986287D01*
X130550500Y-97773713D01*
X130517246Y-97563757D01*
X130451557Y-97361588D01*
X130355051Y-97172184D01*
X130355049Y-97172181D01*
X130355048Y-97172179D01*
X130230109Y-97000213D01*
X130079786Y-96849890D01*
X129907820Y-96724951D01*
X129907115Y-96724591D01*
X129899054Y-96720485D01*
X129848259Y-96672512D01*
X129831463Y-96604692D01*
X129853999Y-96538556D01*
X129899054Y-96499515D01*
X129907816Y-96495051D01*
X129929789Y-96479086D01*
X130079786Y-96370109D01*
X130079788Y-96370106D01*
X130079792Y-96370104D01*
X130230104Y-96219792D01*
X130230106Y-96219788D01*
X130230109Y-96219786D01*
X130355048Y-96047820D01*
X130355047Y-96047820D01*
X130355051Y-96047816D01*
X130451557Y-95858412D01*
X130517246Y-95656243D01*
X130550500Y-95446287D01*
X130550500Y-95233713D01*
X130517246Y-95023757D01*
X130451557Y-94821588D01*
X130355051Y-94632184D01*
X130355049Y-94632181D01*
X130355048Y-94632179D01*
X130230109Y-94460213D01*
X130079786Y-94309890D01*
X129907820Y-94184951D01*
X129907115Y-94184591D01*
X129899054Y-94180485D01*
X129848259Y-94132512D01*
X129831463Y-94064692D01*
X129853999Y-93998556D01*
X129899054Y-93959515D01*
X129907816Y-93955051D01*
X130001364Y-93887085D01*
X130079786Y-93830109D01*
X130079788Y-93830106D01*
X130079792Y-93830104D01*
X130230104Y-93679792D01*
X130230106Y-93679788D01*
X130230109Y-93679786D01*
X130355048Y-93507820D01*
X130355047Y-93507820D01*
X130355051Y-93507816D01*
X130451557Y-93318412D01*
X130517246Y-93116243D01*
X130550500Y-92906287D01*
X130550500Y-92693713D01*
X130517246Y-92483757D01*
X130451557Y-92281588D01*
X130355051Y-92092184D01*
X130355049Y-92092181D01*
X130355048Y-92092179D01*
X130230109Y-91920213D01*
X130116569Y-91806673D01*
X130083084Y-91745350D01*
X130088068Y-91675658D01*
X130129940Y-91619725D01*
X130160915Y-91602810D01*
X130292331Y-91553796D01*
X130407546Y-91467546D01*
X130493796Y-91352331D01*
X130544091Y-91217483D01*
X130550500Y-91157873D01*
X130550499Y-89362128D01*
X130544091Y-89302517D01*
X130529309Y-89262885D01*
X130493797Y-89167671D01*
X130493793Y-89167664D01*
X130424331Y-89074875D01*
X130399913Y-89009411D01*
X130414764Y-88941138D01*
X130464169Y-88891732D01*
X130523563Y-88876564D01*
X131300836Y-88876365D01*
X131300857Y-88876366D01*
X131300866Y-88876365D01*
X131301511Y-88876365D01*
X131309437Y-88876365D01*
X131309981Y-88876510D01*
G37*
%TD.AperFunction*%
%TA.AperFunction,Conductor*%
G36*
X113914256Y-101130185D02*
G01*
X113925882Y-101138647D01*
X113929710Y-101141789D01*
X114060814Y-101229390D01*
X114060827Y-101229397D01*
X114206498Y-101289735D01*
X114206503Y-101289737D01*
X114361153Y-101320499D01*
X114361156Y-101320500D01*
X114361312Y-101320500D01*
X114361390Y-101320523D01*
X114367218Y-101321097D01*
X114367109Y-101322202D01*
X114428351Y-101340185D01*
X114474106Y-101392989D01*
X114484050Y-101462147D01*
X114477494Y-101487833D01*
X114445908Y-101572517D01*
X114445156Y-101579516D01*
X114439501Y-101632123D01*
X114439500Y-101632135D01*
X114439500Y-103209902D01*
X114419815Y-103276941D01*
X114403181Y-103297583D01*
X113728851Y-103971912D01*
X113667528Y-104005397D01*
X113641515Y-104008231D01*
X111106229Y-104015287D01*
X111076595Y-104006675D01*
X111046457Y-104000119D01*
X111041648Y-103996519D01*
X111039135Y-103995789D01*
X111018203Y-103978968D01*
X110886818Y-103847583D01*
X110853333Y-103786260D01*
X110850499Y-103759910D01*
X110850499Y-103236656D01*
X110840349Y-103137292D01*
X110787003Y-102976303D01*
X110786999Y-102976297D01*
X110786998Y-102976294D01*
X110697970Y-102831959D01*
X110697967Y-102831955D01*
X110578044Y-102712032D01*
X110578040Y-102712029D01*
X110433705Y-102623001D01*
X110433699Y-102622998D01*
X110433697Y-102622997D01*
X110351700Y-102595826D01*
X110272709Y-102569651D01*
X110173346Y-102559500D01*
X109226662Y-102559500D01*
X109226644Y-102559501D01*
X109127292Y-102569650D01*
X109127285Y-102569652D01*
X109013502Y-102607356D01*
X108943674Y-102609758D01*
X108883632Y-102574026D01*
X108852440Y-102511505D01*
X108850499Y-102489650D01*
X108850499Y-101664998D01*
X108850498Y-101664981D01*
X108839999Y-101562203D01*
X108838581Y-101555578D01*
X108840288Y-101555212D01*
X108838187Y-101494158D01*
X108873917Y-101434115D01*
X108936436Y-101402921D01*
X108997295Y-101407272D01*
X109127292Y-101450349D01*
X109226655Y-101460500D01*
X110173344Y-101460499D01*
X110173352Y-101460498D01*
X110173355Y-101460498D01*
X110227760Y-101454940D01*
X110272708Y-101450349D01*
X110433697Y-101397003D01*
X110578044Y-101307968D01*
X110697968Y-101188044D01*
X110709465Y-101169403D01*
X110761412Y-101122679D01*
X110815004Y-101110500D01*
X113847217Y-101110500D01*
X113914256Y-101130185D01*
G37*
%TD.AperFunction*%
%TA.AperFunction,Conductor*%
G36*
X116531941Y-99790185D02*
G01*
X116552583Y-99806819D01*
X117832128Y-101086364D01*
X117865613Y-101147687D01*
X117860629Y-101217379D01*
X117818757Y-101273312D01*
X117800742Y-101284529D01*
X117622448Y-101375375D01*
X117622440Y-101375380D01*
X117568282Y-101414727D01*
X117568282Y-101414728D01*
X118200591Y-102047037D01*
X118137007Y-102064075D01*
X118022993Y-102129901D01*
X117929901Y-102222993D01*
X117864075Y-102337007D01*
X117847037Y-102400591D01*
X117176818Y-101730372D01*
X117143333Y-101669049D01*
X117140499Y-101642691D01*
X117140499Y-101632129D01*
X117140498Y-101632123D01*
X117140497Y-101632116D01*
X117134091Y-101572517D01*
X117127773Y-101555578D01*
X117083797Y-101437671D01*
X117083793Y-101437664D01*
X116997547Y-101322455D01*
X116997544Y-101322452D01*
X116882335Y-101236206D01*
X116882328Y-101236202D01*
X116747482Y-101185908D01*
X116747483Y-101185908D01*
X116687883Y-101179501D01*
X116687881Y-101179500D01*
X116687873Y-101179500D01*
X116687865Y-101179500D01*
X115194078Y-101179500D01*
X115127039Y-101159815D01*
X115081284Y-101107011D01*
X115071340Y-101037853D01*
X115090976Y-100986609D01*
X115149390Y-100899185D01*
X115149390Y-100899184D01*
X115149394Y-100899179D01*
X115159109Y-100875726D01*
X115209735Y-100753501D01*
X115209737Y-100753497D01*
X115240500Y-100598842D01*
X115240500Y-100441158D01*
X115240500Y-100441155D01*
X115240499Y-100441153D01*
X115209738Y-100286510D01*
X115209737Y-100286503D01*
X115177566Y-100208834D01*
X115149397Y-100140827D01*
X115149390Y-100140814D01*
X115061789Y-100009711D01*
X115061786Y-100009707D01*
X115034260Y-99982181D01*
X115000775Y-99920858D01*
X115005759Y-99851166D01*
X115047631Y-99795233D01*
X115113095Y-99770816D01*
X115121941Y-99770500D01*
X116464902Y-99770500D01*
X116531941Y-99790185D01*
G37*
%TD.AperFunction*%
%TA.AperFunction,Conductor*%
G36*
X118503442Y-90129185D02*
G01*
X118524084Y-90145819D01*
X120125412Y-91747147D01*
X120158897Y-91808470D01*
X120153913Y-91878162D01*
X120125412Y-91922509D01*
X120073820Y-91974100D01*
X120073817Y-91974104D01*
X119986216Y-92105207D01*
X119986209Y-92105220D01*
X119925871Y-92250891D01*
X119925868Y-92250901D01*
X119894969Y-92406241D01*
X119862584Y-92468152D01*
X119861033Y-92469730D01*
X117807584Y-94523181D01*
X117746261Y-94556666D01*
X117719903Y-94559500D01*
X116935808Y-94559500D01*
X116868769Y-94539815D01*
X116848126Y-94523180D01*
X116816870Y-94491923D01*
X116816862Y-94491917D01*
X116675396Y-94408255D01*
X116675393Y-94408254D01*
X116517573Y-94362402D01*
X116517567Y-94362401D01*
X116480701Y-94359500D01*
X116480694Y-94359500D01*
X114699306Y-94359500D01*
X114699298Y-94359500D01*
X114662432Y-94362401D01*
X114662426Y-94362402D01*
X114504606Y-94408254D01*
X114504603Y-94408255D01*
X114363137Y-94491917D01*
X114363129Y-94491923D01*
X114246923Y-94608129D01*
X114246916Y-94608138D01*
X114208878Y-94672458D01*
X114201969Y-94678908D01*
X114198309Y-94687623D01*
X114176844Y-94702368D01*
X114157809Y-94720142D01*
X114148509Y-94721833D01*
X114140719Y-94727185D01*
X114114688Y-94727984D01*
X114089067Y-94732645D01*
X114078471Y-94729097D01*
X114070883Y-94729331D01*
X114052873Y-94720527D01*
X114038343Y-94715663D01*
X114029588Y-94710409D01*
X114027659Y-94708480D01*
X113993690Y-94688868D01*
X113992807Y-94688338D01*
X113991791Y-94687236D01*
X113968929Y-94669693D01*
X113930316Y-94631080D01*
X113930315Y-94631079D01*
X113812157Y-94562861D01*
X113793384Y-94552022D01*
X113640656Y-94511098D01*
X113640653Y-94511098D01*
X113565763Y-94511098D01*
X113498724Y-94491413D01*
X113496872Y-94490200D01*
X113365184Y-94402208D01*
X113365171Y-94402201D01*
X113219500Y-94341863D01*
X113219488Y-94341860D01*
X113064844Y-94311099D01*
X113064841Y-94311099D01*
X112907157Y-94311099D01*
X112907154Y-94311099D01*
X112752509Y-94341860D01*
X112752497Y-94341863D01*
X112711452Y-94358865D01*
X112641983Y-94366334D01*
X112579504Y-94335059D01*
X112543852Y-94274969D01*
X112540000Y-94244304D01*
X112540000Y-94130000D01*
X111790000Y-94130000D01*
X111790000Y-97224999D01*
X111839972Y-97224999D01*
X111839986Y-97224998D01*
X111947399Y-97214025D01*
X112016092Y-97226794D01*
X112066976Y-97274675D01*
X112083897Y-97342465D01*
X112065540Y-97402480D01*
X111982998Y-97536300D01*
X111982996Y-97536305D01*
X111929651Y-97697290D01*
X111919500Y-97796647D01*
X111919500Y-98643337D01*
X111919501Y-98643355D01*
X111929650Y-98742707D01*
X111929651Y-98742710D01*
X111982996Y-98903694D01*
X111983001Y-98903705D01*
X112072029Y-99048040D01*
X112072032Y-99048044D01*
X112191955Y-99167967D01*
X112191959Y-99167970D01*
X112336294Y-99256998D01*
X112336297Y-99256999D01*
X112336303Y-99257003D01*
X112497292Y-99310349D01*
X112596655Y-99320500D01*
X113069900Y-99320499D01*
X113136939Y-99340183D01*
X113157581Y-99356817D01*
X113251285Y-99450521D01*
X113292589Y-99474367D01*
X113333895Y-99498215D01*
X113333896Y-99498216D01*
X113388209Y-99529574D01*
X113388210Y-99529574D01*
X113388215Y-99529577D01*
X113540943Y-99570500D01*
X114017098Y-99570500D01*
X114084137Y-99590185D01*
X114129892Y-99642989D01*
X114139836Y-99712147D01*
X114110811Y-99775703D01*
X114084037Y-99798880D01*
X114074747Y-99804837D01*
X114060821Y-99810606D01*
X113943138Y-99889238D01*
X113942139Y-99889880D01*
X113909666Y-99899380D01*
X113877413Y-99909480D01*
X113875200Y-99909500D01*
X110815004Y-99909500D01*
X110747965Y-99889815D01*
X110709465Y-99850596D01*
X110697968Y-99831956D01*
X110578044Y-99712032D01*
X110578040Y-99712029D01*
X110433705Y-99623001D01*
X110433699Y-99622998D01*
X110433697Y-99622997D01*
X110367791Y-99601158D01*
X110272709Y-99569651D01*
X110173352Y-99559500D01*
X110173345Y-99559500D01*
X109937757Y-99559500D01*
X109870718Y-99539815D01*
X109824963Y-99487011D01*
X109815019Y-99417853D01*
X109844044Y-99354297D01*
X109902822Y-99316523D01*
X109925156Y-99312142D01*
X109932229Y-99311419D01*
X109942708Y-99310349D01*
X110103697Y-99257003D01*
X110248044Y-99167968D01*
X110367968Y-99048044D01*
X110457003Y-98903697D01*
X110510349Y-98742708D01*
X110520500Y-98643345D01*
X110520499Y-97796656D01*
X110518155Y-97773713D01*
X110510349Y-97697292D01*
X110510348Y-97697289D01*
X110480579Y-97607451D01*
X110457003Y-97536303D01*
X110456999Y-97536297D01*
X110456998Y-97536294D01*
X110367970Y-97391959D01*
X110367967Y-97391955D01*
X110274760Y-97298748D01*
X110241275Y-97237425D01*
X110246259Y-97167733D01*
X110288131Y-97111800D01*
X110297333Y-97105535D01*
X110358656Y-97067712D01*
X110482712Y-96943656D01*
X110484752Y-96940347D01*
X110486745Y-96938555D01*
X110487193Y-96937989D01*
X110487289Y-96938065D01*
X110536694Y-96893623D01*
X110605656Y-96882395D01*
X110669740Y-96910234D01*
X110695829Y-96940339D01*
X110697681Y-96943341D01*
X110697683Y-96943344D01*
X110821654Y-97067315D01*
X110970875Y-97159356D01*
X110970880Y-97159358D01*
X111137302Y-97214505D01*
X111137309Y-97214506D01*
X111240019Y-97224999D01*
X111289999Y-97224998D01*
X111290000Y-97224998D01*
X111290000Y-94004000D01*
X111309685Y-93936961D01*
X111362489Y-93891206D01*
X111414000Y-93880000D01*
X111540000Y-93880000D01*
X111540000Y-93754000D01*
X111559685Y-93686961D01*
X111612489Y-93641206D01*
X111664000Y-93630000D01*
X111954922Y-93630000D01*
X111996564Y-93637201D01*
X112007166Y-93640981D01*
X112039376Y-93659577D01*
X112114820Y-93679792D01*
X112119664Y-93681090D01*
X112119667Y-93681091D01*
X112133129Y-93684698D01*
X112192102Y-93700500D01*
X112192103Y-93700500D01*
X112920234Y-93700500D01*
X112987273Y-93720185D01*
X112989125Y-93721398D01*
X113120814Y-93809390D01*
X113120827Y-93809397D01*
X113256520Y-93865602D01*
X113266503Y-93869737D01*
X113421153Y-93900499D01*
X113421156Y-93900500D01*
X113421158Y-93900500D01*
X113578844Y-93900500D01*
X113578845Y-93900499D01*
X113733497Y-93869737D01*
X113879179Y-93809394D01*
X114010289Y-93721789D01*
X114121789Y-93610289D01*
X114209394Y-93479179D01*
X114269737Y-93333497D01*
X114300500Y-93178842D01*
X114300500Y-93021158D01*
X114300500Y-93021155D01*
X114300499Y-93021153D01*
X114299374Y-93015499D01*
X114269737Y-92866503D01*
X114256646Y-92834898D01*
X114209397Y-92720827D01*
X114209390Y-92720814D01*
X114121789Y-92589711D01*
X114121786Y-92589707D01*
X114010292Y-92478213D01*
X114010288Y-92478210D01*
X113879185Y-92390609D01*
X113879172Y-92390602D01*
X113801427Y-92358400D01*
X113747023Y-92314560D01*
X113724958Y-92248266D01*
X113725010Y-92241472D01*
X113725000Y-92241472D01*
X113725000Y-92215000D01*
X112874000Y-92215000D01*
X112806961Y-92195315D01*
X112761206Y-92142511D01*
X112750000Y-92091000D01*
X112750000Y-91839000D01*
X112769685Y-91771961D01*
X112822489Y-91726206D01*
X112874000Y-91715000D01*
X113724999Y-91715000D01*
X113724999Y-91691692D01*
X113724998Y-91691677D01*
X113714855Y-91592392D01*
X113661547Y-91431518D01*
X113661542Y-91431507D01*
X113572575Y-91287271D01*
X113572572Y-91287267D01*
X113563339Y-91278034D01*
X113529854Y-91216711D01*
X113534838Y-91147019D01*
X113563343Y-91102668D01*
X113572968Y-91093044D01*
X113662003Y-90948697D01*
X113715349Y-90787708D01*
X113725500Y-90688345D01*
X113725499Y-90435096D01*
X113745183Y-90368058D01*
X113761809Y-90347425D01*
X113963418Y-90145816D01*
X114024741Y-90112334D01*
X114051098Y-90109500D01*
X118436403Y-90109500D01*
X118503442Y-90129185D01*
G37*
%TD.AperFunction*%
%TA.AperFunction,Conductor*%
G36*
X127888802Y-88881038D02*
G01*
X127902253Y-88880077D01*
X127921673Y-88890681D01*
X127942907Y-88896910D01*
X127951740Y-88907099D01*
X127963576Y-88913562D01*
X127974181Y-88932984D01*
X127988675Y-88949703D01*
X127990597Y-88963049D01*
X127997060Y-88974885D01*
X127995481Y-88996958D01*
X127998636Y-89018859D01*
X127992929Y-89032640D01*
X127992076Y-89044577D01*
X127975161Y-89075554D01*
X127906204Y-89167668D01*
X127906202Y-89167671D01*
X127855908Y-89302517D01*
X127850227Y-89355365D01*
X127849501Y-89362123D01*
X127849500Y-89362135D01*
X127849500Y-91157870D01*
X127849501Y-91157876D01*
X127855908Y-91217483D01*
X127906202Y-91352328D01*
X127906206Y-91352335D01*
X127992452Y-91467544D01*
X127992455Y-91467547D01*
X128107664Y-91553793D01*
X128107671Y-91553797D01*
X128239082Y-91602810D01*
X128295016Y-91644681D01*
X128319433Y-91710145D01*
X128304582Y-91778418D01*
X128283431Y-91806673D01*
X128169889Y-91920215D01*
X128044951Y-92092179D01*
X127948444Y-92281585D01*
X127882753Y-92483760D01*
X127849500Y-92693713D01*
X127849500Y-92906286D01*
X127881160Y-93106183D01*
X127882754Y-93116243D01*
X127937596Y-93285030D01*
X127948444Y-93318414D01*
X128044951Y-93507820D01*
X128169890Y-93679786D01*
X128320213Y-93830109D01*
X128492182Y-93955050D01*
X128500946Y-93959516D01*
X128551742Y-94007491D01*
X128568536Y-94075312D01*
X128545998Y-94141447D01*
X128500946Y-94180484D01*
X128492182Y-94184949D01*
X128320213Y-94309890D01*
X128169890Y-94460213D01*
X128044951Y-94632179D01*
X127948444Y-94821585D01*
X127882753Y-95023760D01*
X127872656Y-95087511D01*
X127849500Y-95233713D01*
X127849500Y-95446287D01*
X127856547Y-95490778D01*
X127882753Y-95656240D01*
X127882753Y-95656241D01*
X127889135Y-95675883D01*
X127891128Y-95745725D01*
X127858884Y-95801879D01*
X125672778Y-97987985D01*
X125611455Y-98021470D01*
X125541763Y-98016486D01*
X125485830Y-97974614D01*
X125479244Y-97963610D01*
X125478841Y-97963860D01*
X125386783Y-97814612D01*
X125386780Y-97814608D01*
X125267891Y-97695719D01*
X125267887Y-97695716D01*
X125124795Y-97607455D01*
X125124789Y-97607452D01*
X125124787Y-97607451D01*
X125013481Y-97570567D01*
X124956038Y-97530796D01*
X124929215Y-97466281D01*
X124941530Y-97397505D01*
X124983596Y-97349761D01*
X125009339Y-97332560D01*
X125100289Y-97271789D01*
X125211789Y-97160289D01*
X125299394Y-97029179D01*
X125359737Y-96883497D01*
X125390500Y-96728842D01*
X125390500Y-96571158D01*
X125390500Y-96571155D01*
X125390499Y-96571153D01*
X125375361Y-96495051D01*
X125359737Y-96416503D01*
X125319957Y-96320467D01*
X125312489Y-96250998D01*
X125343764Y-96188519D01*
X125346839Y-96185333D01*
X125362993Y-96169179D01*
X125386781Y-96145391D01*
X125475049Y-96002287D01*
X125527936Y-95842685D01*
X125538000Y-95744174D01*
X125538000Y-95135826D01*
X125527936Y-95037315D01*
X125475049Y-94877713D01*
X125475045Y-94877707D01*
X125475044Y-94877704D01*
X125386783Y-94734612D01*
X125386780Y-94734608D01*
X125267891Y-94615719D01*
X125267887Y-94615716D01*
X125124795Y-94527455D01*
X125124789Y-94527452D01*
X125124787Y-94527451D01*
X124965185Y-94474564D01*
X124965183Y-94474563D01*
X124866681Y-94464500D01*
X124866674Y-94464500D01*
X124592598Y-94464500D01*
X124525559Y-94444815D01*
X124504917Y-94428181D01*
X119224090Y-89147355D01*
X119224088Y-89147352D01*
X119167869Y-89091133D01*
X119134384Y-89029810D01*
X119139368Y-88960118D01*
X119181240Y-88904185D01*
X119246704Y-88879768D01*
X119255502Y-88879452D01*
X127875862Y-88877243D01*
X127888802Y-88881038D01*
G37*
%TD.AperFunction*%
%TA.AperFunction,Conductor*%
G36*
X121388502Y-93026085D02*
G01*
X121432852Y-93054587D01*
X121465115Y-93086850D01*
X121498600Y-93148173D01*
X121493616Y-93217865D01*
X121480537Y-93243421D01*
X121405093Y-93356331D01*
X121405087Y-93356342D01*
X121344749Y-93502013D01*
X121344746Y-93502025D01*
X121313985Y-93656668D01*
X121313985Y-93814361D01*
X121344746Y-93969004D01*
X121344749Y-93969016D01*
X121405087Y-94114687D01*
X121405094Y-94114700D01*
X121440113Y-94167109D01*
X121460991Y-94233787D01*
X121442506Y-94301167D01*
X121390528Y-94347857D01*
X121337011Y-94360000D01*
X120790000Y-94360000D01*
X120790000Y-95036000D01*
X120770315Y-95103039D01*
X120717511Y-95148794D01*
X120666000Y-95160000D01*
X120414000Y-95160000D01*
X120346961Y-95140315D01*
X120301206Y-95087511D01*
X120290000Y-95036000D01*
X120290000Y-94360000D01*
X119968597Y-94360000D01*
X119901558Y-94340315D01*
X119855803Y-94287511D01*
X119845859Y-94218353D01*
X119874884Y-94154797D01*
X119880908Y-94148327D01*
X120710271Y-93318964D01*
X120771592Y-93285481D01*
X120773759Y-93285030D01*
X120774448Y-93284893D01*
X120774449Y-93284893D01*
X120929104Y-93254130D01*
X121074786Y-93193787D01*
X121205896Y-93106182D01*
X121257492Y-93054585D01*
X121318811Y-93021102D01*
X121388502Y-93026085D01*
G37*
%TD.AperFunction*%
%TD*%
M02*
