%TF.GenerationSoftware,KiCad,Pcbnew,9.0.6*%
%TF.CreationDate,2026-05-13T17:24:16+05:30*%
%TF.ProjectId,usb_uart_cp2102,7573625f-7561-4727-945f-637032313032,rev?*%
%TF.SameCoordinates,Original*%
%TF.FileFunction,Copper,L1,Top*%
%TF.FilePolarity,Positive*%
%FSLAX46Y46*%
G04 Gerber Fmt 4.6, Leading zero omitted, Abs format (unit mm)*
G04 Created by KiCad (PCBNEW 9.0.6) date 2026-05-13 17:24:16*
%MOMM*%
%LPD*%
G01*
G04 APERTURE LIST*
G04 Aperture macros list*
%AMRoundRect*
0 Rectangle with rounded corners*
0 $1 Rounding radius*
0 $2 $3 $4 $5 $6 $7 $8 $9 X,Y pos of 4 corners*
0 Add a 4 corners polygon primitive as box body*
4,1,4,$2,$3,$4,$5,$6,$7,$8,$9,$2,$3,0*
0 Add four circle primitives for the rounded corners*
1,1,$1+$1,$2,$3*
1,1,$1+$1,$4,$5*
1,1,$1+$1,$6,$7*
1,1,$1+$1,$8,$9*
0 Add four rect primitives between the rounded corners*
20,1,$1+$1,$2,$3,$4,$5,0*
20,1,$1+$1,$4,$5,$6,$7,0*
20,1,$1+$1,$6,$7,$8,$9,0*
20,1,$1+$1,$8,$9,$2,$3,0*%
G04 Aperture macros list end*
%TA.AperFunction,SMDPad,CuDef*%
%ADD10RoundRect,0.250000X-0.250000X-0.475000X0.250000X-0.475000X0.250000X0.475000X-0.250000X0.475000X0*%
%TD*%
%TA.AperFunction,SMDPad,CuDef*%
%ADD11RoundRect,0.250000X-0.262500X-0.450000X0.262500X-0.450000X0.262500X0.450000X-0.262500X0.450000X0*%
%TD*%
%TA.AperFunction,SMDPad,CuDef*%
%ADD12RoundRect,0.250000X0.262500X0.450000X-0.262500X0.450000X-0.262500X-0.450000X0.262500X-0.450000X0*%
%TD*%
%TA.AperFunction,SMDPad,CuDef*%
%ADD13RoundRect,0.062500X-0.337500X-0.062500X0.337500X-0.062500X0.337500X0.062500X-0.337500X0.062500X0*%
%TD*%
%TA.AperFunction,SMDPad,CuDef*%
%ADD14RoundRect,0.062500X-0.062500X-0.337500X0.062500X-0.337500X0.062500X0.337500X-0.062500X0.337500X0*%
%TD*%
%TA.AperFunction,HeatsinkPad*%
%ADD15R,3.350000X3.350000*%
%TD*%
%TA.AperFunction,SMDPad,CuDef*%
%ADD16RoundRect,0.162500X-0.367500X-0.162500X0.367500X-0.162500X0.367500X0.162500X-0.367500X0.162500X0*%
%TD*%
%TA.AperFunction,SMDPad,CuDef*%
%ADD17R,2.000000X1.200000*%
%TD*%
%TA.AperFunction,ComponentPad*%
%ADD18C,1.800000*%
%TD*%
%TA.AperFunction,SMDPad,CuDef*%
%ADD19RoundRect,0.218750X0.218750X0.256250X-0.218750X0.256250X-0.218750X-0.256250X0.218750X-0.256250X0*%
%TD*%
%TA.AperFunction,ComponentPad*%
%ADD20R,1.700000X1.700000*%
%TD*%
%TA.AperFunction,ComponentPad*%
%ADD21C,1.700000*%
%TD*%
%TA.AperFunction,SMDPad,CuDef*%
%ADD22RoundRect,0.218750X-0.218750X-0.256250X0.218750X-0.256250X0.218750X0.256250X-0.218750X0.256250X0*%
%TD*%
%TA.AperFunction,ViaPad*%
%ADD23C,0.600000*%
%TD*%
%TA.AperFunction,Conductor*%
%ADD24C,0.200000*%
%TD*%
G04 APERTURE END LIST*
D10*
%TO.P,C2,2*%
%TO.N,Net-(U1-~{DTR})*%
X168500000Y-72000000D03*
%TO.P,C2,1*%
%TO.N,RST*%
X166600000Y-72000000D03*
%TD*%
%TO.P,C1,2*%
%TO.N,GND*%
X168400000Y-78350000D03*
%TO.P,C1,1*%
%TO.N,PWR_5V*%
X166500000Y-78350000D03*
%TD*%
D11*
%TO.P,R4,2*%
%TO.N,Net-(D2-K)*%
X168412500Y-82800000D03*
%TO.P,R4,1*%
%TO.N,RX*%
X166587500Y-82800000D03*
%TD*%
D12*
%TO.P,R5,2*%
%TO.N,PWR_5V*%
X166587500Y-80600000D03*
%TO.P,R5,1*%
%TO.N,Net-(U1-~{RST})*%
X168412500Y-80600000D03*
%TD*%
D10*
%TO.P,C3,2*%
%TO.N,GND*%
X168450000Y-74000000D03*
%TO.P,C3,1*%
%TO.N,PWR_5V*%
X166550000Y-74000000D03*
%TD*%
D12*
%TO.P,R3,2*%
%TO.N,TX*%
X166637500Y-85000000D03*
%TO.P,R3,1*%
%TO.N,Net-(D1-K)*%
X168462500Y-85000000D03*
%TD*%
D10*
%TO.P,C4,2*%
%TO.N,GND*%
X168400000Y-76150000D03*
%TO.P,C4,1*%
%TO.N,PWR_5V*%
X166500000Y-76150000D03*
%TD*%
D13*
%TO.P,U1,1,~{DCD}*%
%TO.N,unconnected-(U1-~{DCD}-Pad1)*%
X170150000Y-77350000D03*
%TO.P,U1,2,~{RI}/CLK*%
%TO.N,unconnected-(U1-~{RI}{slash}CLK-Pad2)*%
X170150000Y-77850000D03*
%TO.P,U1,3,GND*%
%TO.N,GND*%
X170150000Y-78350000D03*
%TO.P,U1,4,D+*%
%TO.N,DP*%
X170150000Y-78850000D03*
%TO.P,U1,5,D-*%
%TO.N,DN*%
X170150000Y-79350000D03*
%TO.P,U1,6,VDD*%
%TO.N,PWR_5V*%
X170150000Y-79850000D03*
%TO.P,U1,7,VREGIN*%
X170150000Y-80350000D03*
D14*
%TO.P,U1,8,VBUS*%
X171100000Y-81300000D03*
%TO.P,U1,9,~{RST}*%
%TO.N,Net-(U1-~{RST})*%
X171600000Y-81300000D03*
%TO.P,U1,10,NC*%
%TO.N,unconnected-(U1-NC-Pad10)*%
X172100000Y-81300000D03*
%TO.P,U1,11,~{SUSPEND}*%
%TO.N,unconnected-(U1-~{SUSPEND}-Pad11)*%
X172600000Y-81300000D03*
%TO.P,U1,12,SUSPEND*%
%TO.N,unconnected-(U1-SUSPEND-Pad12)*%
X173100000Y-81300000D03*
%TO.P,U1,13,CHREN*%
%TO.N,unconnected-(U1-CHREN-Pad13)*%
X173600000Y-81300000D03*
%TO.P,U1,14,CHR1*%
%TO.N,unconnected-(U1-CHR1-Pad14)*%
X174100000Y-81300000D03*
D13*
%TO.P,U1,15,CHR0*%
%TO.N,unconnected-(U1-CHR0-Pad15)*%
X175050000Y-80350000D03*
%TO.P,U1,16,~{WAKEUP}/GPIO.3*%
%TO.N,unconnected-(U1-~{WAKEUP}{slash}GPIO.3-Pad16)*%
X175050000Y-79850000D03*
%TO.P,U1,17,RS485/GPIO.2*%
%TO.N,unconnected-(U1-RS485{slash}GPIO.2-Pad17)*%
X175050000Y-79350000D03*
%TO.P,U1,18,~{RXT}/GPIO.1*%
%TO.N,unconnected-(U1-~{RXT}{slash}GPIO.1-Pad18)*%
X175050000Y-78850000D03*
%TO.P,U1,19,~{TXT}/GPIO.0*%
%TO.N,unconnected-(U1-~{TXT}{slash}GPIO.0-Pad19)*%
X175050000Y-78350000D03*
%TO.P,U1,20,GPIO.6*%
%TO.N,unconnected-(U1-GPIO.6-Pad20)*%
X175050000Y-77850000D03*
%TO.P,U1,21,GPIO.5*%
%TO.N,unconnected-(U1-GPIO.5-Pad21)*%
X175050000Y-77350000D03*
D14*
%TO.P,U1,22,GPIO.4*%
%TO.N,unconnected-(U1-GPIO.4-Pad22)*%
X174100000Y-76400000D03*
%TO.P,U1,23,~{CTS}*%
%TO.N,unconnected-(U1-~{CTS}-Pad23)*%
X173600000Y-76400000D03*
%TO.P,U1,24,~{RTS}*%
%TO.N,unconnected-(U1-~{RTS}-Pad24)*%
X173100000Y-76400000D03*
%TO.P,U1,25,RXD*%
%TO.N,Net-(D2-K)*%
X172600000Y-76400000D03*
%TO.P,U1,26,TXD*%
%TO.N,Net-(D1-K)*%
X172100000Y-76400000D03*
%TO.P,U1,27,~{DSR}*%
%TO.N,unconnected-(U1-~{DSR}-Pad27)*%
X171600000Y-76400000D03*
%TO.P,U1,28,~{DTR}*%
%TO.N,Net-(U1-~{DTR})*%
X171100000Y-76400000D03*
D15*
%TO.P,U1,29,GND*%
%TO.N,GND*%
X172600000Y-78850000D03*
%TD*%
D16*
%TO.P,D3,1,L1*%
%TO.N,DP*%
X162450000Y-76450000D03*
%TO.P,D3,2,VN*%
%TO.N,GND*%
X162450000Y-77400000D03*
%TO.P,D3,3,L2*%
%TO.N,DN*%
X162450000Y-78350000D03*
%TO.P,D3,4,L2*%
%TO.N,Net-(D3-L2-Pad4)*%
X164650000Y-78350000D03*
%TO.P,D3,5,VP*%
%TO.N,unconnected-(D3-VP-Pad5)*%
X164650000Y-77400000D03*
%TO.P,D3,6,L1*%
%TO.N,Net-(D3-L1-Pad6)*%
X164650000Y-76450000D03*
%TD*%
D12*
%TO.P,R1,1*%
%TO.N,Net-(D2-A)*%
X172975000Y-83300000D03*
%TO.P,R1,2*%
%TO.N,PWR_5V*%
X171150000Y-83300000D03*
%TD*%
D17*
%TO.P,P1,1,5V*%
%TO.N,PWR_5V*%
X177650000Y-75150000D03*
%TO.P,P1,2,D-*%
%TO.N,DN*%
X177650000Y-77650000D03*
%TO.P,P1,3,D+*%
%TO.N,DP*%
X177650000Y-79650000D03*
%TO.P,P1,4,GND*%
%TO.N,GND*%
X177650000Y-82150000D03*
D18*
%TO.P,P1,5,SHIELD*%
%TO.N,unconnected-(P1-SHIELD-Pad5)*%
X179350000Y-84500000D03*
%TO.N,unconnected-(P1-SHIELD-Pad5)_5*%
X179850000Y-84500000D03*
%TO.N,unconnected-(P1-SHIELD-Pad5)_4*%
X180350000Y-84500000D03*
%TO.N,unconnected-(P1-SHIELD-Pad5)_3*%
X180850000Y-84500000D03*
%TO.N,unconnected-(P1-SHIELD-Pad5)_6*%
X179400000Y-72800000D03*
%TO.N,unconnected-(P1-SHIELD-Pad5)_1*%
X179900000Y-72800000D03*
%TO.N,unconnected-(P1-SHIELD-Pad5)_7*%
X180400000Y-72800000D03*
%TO.N,unconnected-(P1-SHIELD-Pad5)_2*%
X180900000Y-72800000D03*
%TD*%
D11*
%TO.P,R6,1*%
%TO.N,DP*%
X162937500Y-74100000D03*
%TO.P,R6,2*%
%TO.N,Net-(D3-L1-Pad6)*%
X164762500Y-74100000D03*
%TD*%
D19*
%TO.P,D1,1,K*%
%TO.N,Net-(D1-K)*%
X172600000Y-72250000D03*
%TO.P,D1,2,A*%
%TO.N,Net-(D1-A)*%
X171025000Y-72250000D03*
%TD*%
D11*
%TO.P,R8,1*%
%TO.N,DN*%
X162925000Y-71850000D03*
%TO.P,R8,2*%
%TO.N,Net-(D3-L2-Pad4)*%
X164750000Y-71850000D03*
%TD*%
D20*
%TO.P,J1,1,Pin_1*%
%TO.N,RST*%
X159550000Y-83700000D03*
D21*
%TO.P,J1,2,Pin_2*%
%TO.N,TX*%
X159550000Y-81160000D03*
%TO.P,J1,3,Pin_3*%
%TO.N,RX*%
X159550000Y-78620000D03*
%TO.P,J1,4,Pin_4*%
%TO.N,GND*%
X159550000Y-76080000D03*
%TO.P,J1,5,Pin_5*%
%TO.N,PWR_5V*%
X159550000Y-73540000D03*
%TD*%
D11*
%TO.P,R2,1*%
%TO.N,Net-(D1-A)*%
X171100000Y-74300000D03*
%TO.P,R2,2*%
%TO.N,PWR_5V*%
X172925000Y-74300000D03*
%TD*%
D22*
%TO.P,D2,1,K*%
%TO.N,Net-(D2-K)*%
X171225000Y-85200000D03*
%TO.P,D2,2,A*%
%TO.N,Net-(D2-A)*%
X172800000Y-85200000D03*
%TD*%
D23*
%TO.N,PWR_5V*%
X160000000Y-71300000D03*
X177550000Y-73950000D03*
%TO.N,GND*%
X158250000Y-71250000D03*
X177350000Y-71150000D03*
X167550000Y-74500042D03*
X177050000Y-83200000D03*
X168700000Y-77300000D03*
X164156499Y-72979182D03*
%TO.N,Net-(D1-K)*%
X172050000Y-75634464D03*
X169531985Y-84768015D03*
%TO.N,Net-(D2-K)*%
X174777937Y-75627139D03*
X171392451Y-84500000D03*
%TO.N,Net-(U1-~{RST})*%
X175150000Y-82450000D03*
X169650000Y-81000000D03*
%TO.N,DP*%
X176550001Y-81000000D03*
X162450000Y-80000000D03*
X177750000Y-80825000D03*
X169396897Y-76705250D03*
%TO.N,DN*%
X169500000Y-73900000D03*
X165600000Y-79700000D03*
X162100000Y-72400000D03*
X175850000Y-74050000D03*
%TD*%
D24*
%TO.N,GND*%
X177150000Y-70950000D02*
X177350000Y-71150000D01*
X167699000Y-73249000D02*
X167699000Y-71052000D01*
X167699000Y-71052000D02*
X167801000Y-70950000D01*
X167801000Y-70950000D02*
X177150000Y-70950000D01*
X168450000Y-74000000D02*
X167699000Y-73249000D01*
%TO.N,PWR_5V*%
X171100000Y-83264100D02*
X171100000Y-81300000D01*
X172061500Y-84225600D02*
X171100000Y-83264100D01*
X172061500Y-85777600D02*
X172061500Y-84225600D01*
X173316100Y-86000000D02*
X172283900Y-86000000D01*
X175950001Y-83366099D02*
X173316100Y-86000000D01*
X175900000Y-79499999D02*
X175950001Y-79549999D01*
X172283900Y-86000000D02*
X172061500Y-85777600D01*
X174650000Y-74300000D02*
X175900000Y-75550000D01*
X175900000Y-75550000D02*
X175900000Y-79499999D01*
X172925000Y-74300000D02*
X174650000Y-74300000D01*
X175950001Y-79549999D02*
X175950001Y-83366099D01*
X169734202Y-79850000D02*
X170150000Y-79850000D01*
X167588500Y-81601000D02*
X170799000Y-81601000D01*
X177650000Y-75150000D02*
X177650000Y-75000057D01*
X170799000Y-81601000D02*
X171100000Y-81300000D01*
X166500000Y-80512500D02*
X166587500Y-80600000D01*
X166550000Y-78300000D02*
X166500000Y-78350000D01*
X177650000Y-75000057D02*
X176098943Y-73449000D01*
X171100000Y-83250000D02*
X171150000Y-83300000D01*
X176098943Y-73449000D02*
X173776000Y-73449000D01*
X177550000Y-73950000D02*
X177550000Y-75050000D01*
X173776000Y-73449000D02*
X172925000Y-74300000D01*
X170150000Y-79850000D02*
X170150000Y-80350000D01*
X166550000Y-74000000D02*
X166550000Y-78300000D01*
X171100000Y-81300000D02*
X171100000Y-83250000D01*
X177550000Y-75050000D02*
X177650000Y-75150000D01*
X166587500Y-80600000D02*
X167588500Y-81601000D01*
X159550000Y-71750000D02*
X160000000Y-71300000D01*
X170150000Y-80350000D02*
X171100000Y-81300000D01*
X159550000Y-73540000D02*
X159550000Y-71750000D01*
X166500000Y-78350000D02*
X166500000Y-80512500D01*
%TO.N,GND*%
X163750000Y-76629999D02*
X162979999Y-77400000D01*
X167500000Y-74800000D02*
X167500000Y-74550042D01*
X168400000Y-77600000D02*
X168700000Y-77300000D01*
X159550000Y-76080000D02*
X158200000Y-74730000D01*
X163750000Y-73385681D02*
X163750000Y-76629999D01*
X168450000Y-74000000D02*
X167650000Y-74800000D01*
X177050000Y-82750000D02*
X177650000Y-82150000D01*
X168400000Y-78350000D02*
X168400000Y-77600000D01*
X177050000Y-83200000D02*
X177050000Y-82750000D01*
X158200000Y-71300000D02*
X158250000Y-71250000D01*
X169400062Y-75650062D02*
X168899938Y-75650062D01*
X162979999Y-77400000D02*
X162450000Y-77400000D01*
X170150000Y-78350000D02*
X172100000Y-78350000D01*
X168899938Y-75650062D02*
X168400000Y-76150000D01*
X168400000Y-78350000D02*
X168400000Y-76150000D01*
X158200000Y-74730000D02*
X158200000Y-71300000D01*
X164156499Y-72979182D02*
X163750000Y-73385681D01*
X167650000Y-74800000D02*
X167500000Y-74800000D01*
X172100000Y-78350000D02*
X172600000Y-78850000D01*
X167500000Y-74550042D02*
X167550000Y-74500042D01*
X172600000Y-78850000D02*
X169400062Y-75650062D01*
%TO.N,RST*%
X161218000Y-72989900D02*
X161218000Y-76277760D01*
X159073240Y-77469000D02*
X158399000Y-78143240D01*
X165300000Y-70700000D02*
X162576340Y-70700000D01*
X162576340Y-70700000D02*
X161250000Y-72026340D01*
X161218000Y-76277760D02*
X160026760Y-77469000D01*
X166600000Y-72000000D02*
X165300000Y-70700000D01*
X160026760Y-77469000D02*
X159073240Y-77469000D01*
X158399000Y-82549000D02*
X159550000Y-83700000D01*
X161250000Y-72957900D02*
X161218000Y-72989900D01*
X161250000Y-72026340D02*
X161250000Y-72957900D01*
X158399000Y-78143240D02*
X158399000Y-82549000D01*
%TO.N,Net-(U1-~{DTR})*%
X168400000Y-71800000D02*
X170286500Y-73686500D01*
X170286500Y-73686500D02*
X170286500Y-75586500D01*
X170286500Y-75586500D02*
X171100000Y-76400000D01*
%TO.N,Net-(D1-A)*%
X171100000Y-74300000D02*
X171100000Y-72325000D01*
X171100000Y-72325000D02*
X171025000Y-72250000D01*
%TO.N,Net-(D1-K)*%
X172100000Y-72750000D02*
X172100000Y-76400000D01*
X172600000Y-72250000D02*
X172100000Y-72750000D01*
X172100000Y-75705266D02*
X172100000Y-76400000D01*
X172050000Y-75655266D02*
X172100000Y-75705266D01*
X169531985Y-84918015D02*
X169450000Y-85000000D01*
X169531985Y-84768015D02*
X169531985Y-84918015D01*
X169450000Y-85000000D02*
X168462500Y-85000000D01*
X172050000Y-75634464D02*
X172050000Y-75655266D01*
X168625000Y-85300000D02*
X168375000Y-85050000D01*
%TO.N,Net-(D2-K)*%
X174777937Y-75477937D02*
X174777937Y-75627139D01*
X174750000Y-75450000D02*
X174777937Y-75477937D01*
X171392451Y-84500000D02*
X171225000Y-84667451D01*
X174500000Y-75700000D02*
X174750000Y-75450000D01*
X168412500Y-82800000D02*
X170912500Y-85300000D01*
X170912500Y-85300000D02*
X171225000Y-85300000D01*
X172600000Y-76400000D02*
X172600000Y-75984202D01*
X172600000Y-75984202D02*
X172884202Y-75700000D01*
X172884202Y-75700000D02*
X174500000Y-75700000D01*
X171225000Y-84667451D02*
X171225000Y-85300000D01*
%TO.N,Net-(D2-A)*%
X172800000Y-83475000D02*
X172975000Y-83300000D01*
X172800000Y-85300000D02*
X172800000Y-83475000D01*
X172600000Y-83300000D02*
X172975000Y-83300000D01*
%TO.N,RX*%
X163959000Y-80709000D02*
X166050000Y-82800000D01*
X159550000Y-78620000D02*
X161639000Y-80709000D01*
X166050000Y-82800000D02*
X166587500Y-82800000D01*
X161639000Y-80709000D02*
X163959000Y-80709000D01*
%TO.N,Net-(U1-~{RST})*%
X169250000Y-80600000D02*
X169650000Y-81000000D01*
X168412500Y-80600000D02*
X169250000Y-80600000D01*
X172183202Y-82299000D02*
X174999000Y-82299000D01*
X171600000Y-81300000D02*
X171600000Y-81715798D01*
X171600000Y-81715798D02*
X172183202Y-82299000D01*
X174999000Y-82299000D02*
X175150000Y-82450000D01*
%TO.N,DP*%
X161519001Y-79069001D02*
X162450000Y-80000000D01*
X162937500Y-75962500D02*
X162450000Y-76450000D01*
X161519001Y-76851000D02*
X161519001Y-79069001D01*
X177300000Y-81000000D02*
X177650000Y-80650000D01*
X177650000Y-80650000D02*
X177650000Y-79650000D01*
X169350000Y-78550000D02*
X169650000Y-78850000D01*
X177751001Y-79751001D02*
X177650000Y-79650000D01*
X161920001Y-76450000D02*
X161519001Y-76851000D01*
X162937500Y-74100000D02*
X162937500Y-75962500D01*
X169650000Y-78850000D02*
X170150000Y-78850000D01*
X169350000Y-76752147D02*
X169350000Y-78550000D01*
X177949999Y-79550000D02*
X177275000Y-79550000D01*
X177750000Y-80825000D02*
X177751001Y-80823999D01*
X162450000Y-76450000D02*
X161920001Y-76450000D01*
X177751001Y-80823999D02*
X177751001Y-79751001D01*
X169396897Y-76705250D02*
X169350000Y-76752147D01*
X176550001Y-81000000D02*
X177300000Y-81000000D01*
%TO.N,DN*%
X163800000Y-79700000D02*
X165600000Y-79700000D01*
X167914840Y-79376000D02*
X170124000Y-79376000D01*
X177650000Y-77650000D02*
X176300000Y-76300000D01*
X167599000Y-75439840D02*
X167599000Y-79060160D01*
X169251000Y-74149000D02*
X169251000Y-74710160D01*
X167599000Y-79060160D02*
X167914840Y-79376000D01*
X162450000Y-78350000D02*
X163800000Y-79700000D01*
X170124000Y-79376000D02*
X170150000Y-79350000D01*
X169251000Y-74710160D02*
X168935160Y-75026000D01*
X176300000Y-76300000D02*
X176300000Y-74500000D01*
X169500000Y-73900000D02*
X169251000Y-74149000D01*
X168935160Y-75026000D02*
X168012840Y-75026000D01*
X176300000Y-74500000D02*
X175850000Y-74050000D01*
X162375000Y-72400000D02*
X162925000Y-71850000D01*
X168012840Y-75026000D02*
X167599000Y-75439840D01*
X162100000Y-72400000D02*
X162375000Y-72400000D01*
%TO.N,Net-(D3-L1-Pad6)*%
X164762500Y-76337500D02*
X164650000Y-76450000D01*
X164762500Y-74100000D02*
X164762500Y-76337500D01*
%TO.N,Net-(D3-L2-Pad4)*%
X165179999Y-78350000D02*
X164650000Y-78350000D01*
X164750000Y-71850000D02*
X165600000Y-72700000D01*
X165600000Y-77929999D02*
X165179999Y-78350000D01*
X165600000Y-72700000D02*
X165600000Y-77929999D01*
%TO.N,TX*%
X165373000Y-82733000D02*
X163750000Y-81110000D01*
X161462900Y-81100000D02*
X159610000Y-81100000D01*
X165373000Y-83735500D02*
X165373000Y-82733000D01*
X163750000Y-81110000D02*
X161472900Y-81110000D01*
X161472900Y-81110000D02*
X161462900Y-81100000D01*
X166637500Y-85000000D02*
X165373000Y-83735500D01*
X159610000Y-81100000D02*
X159550000Y-81160000D01*
%TD*%
%TA.AperFunction,Conductor*%
%TO.N,GND*%
G36*
X159385098Y-70570185D02*
G01*
X159430853Y-70622989D01*
X159440797Y-70692147D01*
X159411772Y-70755703D01*
X159405740Y-70762181D01*
X159378213Y-70789707D01*
X159378210Y-70789711D01*
X159290609Y-70920814D01*
X159290602Y-70920827D01*
X159230264Y-71066498D01*
X159230261Y-71066508D01*
X159199362Y-71221848D01*
X159166977Y-71283759D01*
X159165427Y-71285337D01*
X159069478Y-71381286D01*
X159039053Y-71433985D01*
X159020129Y-71466763D01*
X158990423Y-71518215D01*
X158949499Y-71670943D01*
X158949499Y-71670945D01*
X158949499Y-71839046D01*
X158949500Y-71839059D01*
X158949500Y-72254281D01*
X158929815Y-72321320D01*
X158881795Y-72364765D01*
X158842185Y-72384947D01*
X158842184Y-72384948D01*
X158670213Y-72509890D01*
X158519890Y-72660213D01*
X158394951Y-72832179D01*
X158298444Y-73021585D01*
X158232753Y-73223760D01*
X158215821Y-73330666D01*
X158199500Y-73433713D01*
X158199500Y-73646287D01*
X158232754Y-73856243D01*
X158295547Y-74049500D01*
X158298444Y-74058414D01*
X158394951Y-74247820D01*
X158519890Y-74419786D01*
X158670213Y-74570109D01*
X158842179Y-74695048D01*
X158842181Y-74695049D01*
X158842184Y-74695051D01*
X158851493Y-74699794D01*
X158902290Y-74747766D01*
X158919087Y-74815587D01*
X158896552Y-74881722D01*
X158851505Y-74920760D01*
X158842446Y-74925376D01*
X158842440Y-74925380D01*
X158788282Y-74964727D01*
X158788282Y-74964728D01*
X159420591Y-75597037D01*
X159357007Y-75614075D01*
X159242993Y-75679901D01*
X159149901Y-75772993D01*
X159084075Y-75887007D01*
X159067037Y-75950591D01*
X158434728Y-75318282D01*
X158434727Y-75318282D01*
X158395380Y-75372439D01*
X158298904Y-75561782D01*
X158233242Y-75763869D01*
X158233242Y-75763872D01*
X158200000Y-75973753D01*
X158200000Y-76186246D01*
X158233242Y-76396127D01*
X158233242Y-76396130D01*
X158298904Y-76598217D01*
X158395375Y-76787550D01*
X158434728Y-76841716D01*
X159067037Y-76209408D01*
X159084075Y-76272993D01*
X159149901Y-76387007D01*
X159242993Y-76480099D01*
X159357007Y-76545925D01*
X159420591Y-76562962D01*
X159151373Y-76832181D01*
X159090050Y-76865666D01*
X159063692Y-76868500D01*
X158994181Y-76868500D01*
X158957757Y-76878259D01*
X158957758Y-76878260D01*
X158841454Y-76909423D01*
X158841449Y-76909426D01*
X158704530Y-76988475D01*
X158704522Y-76988481D01*
X157918481Y-77774522D01*
X157918479Y-77774525D01*
X157868361Y-77861334D01*
X157868359Y-77861336D01*
X157839425Y-77911449D01*
X157839424Y-77911450D01*
X157829255Y-77949401D01*
X157798499Y-78064183D01*
X157798499Y-78064185D01*
X157798499Y-78232286D01*
X157798500Y-78232299D01*
X157798500Y-82462330D01*
X157798499Y-82462348D01*
X157798499Y-82628054D01*
X157798498Y-82628054D01*
X157798499Y-82628057D01*
X157839423Y-82780785D01*
X157849262Y-82797827D01*
X157867362Y-82829175D01*
X157867363Y-82829179D01*
X157867364Y-82829179D01*
X157918479Y-82917714D01*
X157918481Y-82917717D01*
X158037349Y-83036585D01*
X158037355Y-83036590D01*
X158163181Y-83162416D01*
X158196666Y-83223739D01*
X158199500Y-83250097D01*
X158199500Y-84597870D01*
X158199501Y-84597876D01*
X158205908Y-84657483D01*
X158256202Y-84792328D01*
X158256206Y-84792335D01*
X158342452Y-84907544D01*
X158342455Y-84907547D01*
X158457664Y-84993793D01*
X158457671Y-84993797D01*
X158592517Y-85044091D01*
X158592516Y-85044091D01*
X158599444Y-85044835D01*
X158652127Y-85050500D01*
X160447872Y-85050499D01*
X160507483Y-85044091D01*
X160642331Y-84993796D01*
X160757546Y-84907546D01*
X160843796Y-84792331D01*
X160894091Y-84657483D01*
X160900500Y-84597873D01*
X160900499Y-82802128D01*
X160894091Y-82742517D01*
X160877190Y-82697204D01*
X160843797Y-82607671D01*
X160843793Y-82607664D01*
X160757547Y-82492455D01*
X160757544Y-82492452D01*
X160642335Y-82406206D01*
X160642328Y-82406202D01*
X160510917Y-82357189D01*
X160454983Y-82315318D01*
X160430566Y-82249853D01*
X160445418Y-82181580D01*
X160466563Y-82153332D01*
X160580104Y-82039792D01*
X160591578Y-82024000D01*
X160705048Y-81867820D01*
X160705047Y-81867820D01*
X160705051Y-81867816D01*
X160755806Y-81768203D01*
X160803779Y-81717409D01*
X160866290Y-81700500D01*
X161340198Y-81700500D01*
X161372289Y-81704724D01*
X161393843Y-81710500D01*
X161551957Y-81710500D01*
X163449903Y-81710500D01*
X163516942Y-81730185D01*
X163537584Y-81746819D01*
X164736181Y-82945416D01*
X164769666Y-83006739D01*
X164772500Y-83033097D01*
X164772500Y-83648830D01*
X164772499Y-83648848D01*
X164772499Y-83814554D01*
X164772498Y-83814554D01*
X164772499Y-83814557D01*
X164813423Y-83967285D01*
X164832600Y-84000500D01*
X164872341Y-84069334D01*
X164892479Y-84104214D01*
X164892481Y-84104217D01*
X165011349Y-84223085D01*
X165011355Y-84223090D01*
X165588181Y-84799916D01*
X165621666Y-84861239D01*
X165624500Y-84887597D01*
X165624500Y-85500001D01*
X165624501Y-85500019D01*
X165635000Y-85602796D01*
X165635001Y-85602799D01*
X165690185Y-85769331D01*
X165690186Y-85769334D01*
X165782288Y-85918656D01*
X165906344Y-86042712D01*
X166055666Y-86134814D01*
X166222203Y-86189999D01*
X166324991Y-86200500D01*
X166950008Y-86200499D01*
X166950016Y-86200498D01*
X166950019Y-86200498D01*
X167006302Y-86194748D01*
X167052797Y-86189999D01*
X167219334Y-86134814D01*
X167368656Y-86042712D01*
X167462319Y-85949049D01*
X167523642Y-85915564D01*
X167593334Y-85920548D01*
X167637681Y-85949049D01*
X167731344Y-86042712D01*
X167880666Y-86134814D01*
X168047203Y-86189999D01*
X168149991Y-86200500D01*
X168775008Y-86200499D01*
X168775016Y-86200498D01*
X168775019Y-86200498D01*
X168831302Y-86194748D01*
X168877797Y-86189999D01*
X169044334Y-86134814D01*
X169193656Y-86042712D01*
X169317712Y-85918656D01*
X169409814Y-85769334D01*
X169438562Y-85682576D01*
X169442775Y-85676491D01*
X169443888Y-85669171D01*
X169462392Y-85648158D01*
X169478333Y-85625134D01*
X169486314Y-85620992D01*
X169490064Y-85616735D01*
X169518534Y-85604276D01*
X169522285Y-85602330D01*
X169528703Y-85600501D01*
X169529057Y-85600501D01*
X169681785Y-85559577D01*
X169691009Y-85554250D01*
X169705754Y-85550049D01*
X169709190Y-85550076D01*
X169715543Y-85547684D01*
X169765482Y-85537752D01*
X169911164Y-85477409D01*
X170024077Y-85401963D01*
X170054376Y-85392475D01*
X170084122Y-85381381D01*
X170087477Y-85382110D01*
X170090754Y-85381085D01*
X170121372Y-85389484D01*
X170152395Y-85396233D01*
X170156109Y-85399013D01*
X170158134Y-85399569D01*
X170180649Y-85417384D01*
X170258031Y-85494766D01*
X170291516Y-85556089D01*
X170293708Y-85569842D01*
X170297063Y-85602679D01*
X170297064Y-85602686D01*
X170349950Y-85762284D01*
X170349955Y-85762295D01*
X170438216Y-85905387D01*
X170438219Y-85905391D01*
X170557108Y-86024280D01*
X170557112Y-86024283D01*
X170700204Y-86112544D01*
X170700207Y-86112545D01*
X170700213Y-86112549D01*
X170859815Y-86165436D01*
X170958326Y-86175500D01*
X170958331Y-86175500D01*
X171491669Y-86175500D01*
X171491674Y-86175500D01*
X171540563Y-86170505D01*
X171542485Y-86170862D01*
X171544318Y-86170179D01*
X171576695Y-86177221D01*
X171609254Y-86183274D01*
X171611283Y-86184745D01*
X171612591Y-86185030D01*
X171640834Y-86206173D01*
X171640845Y-86206181D01*
X171692784Y-86258120D01*
X171692785Y-86258120D01*
X171699853Y-86265188D01*
X171799039Y-86364374D01*
X171799060Y-86364397D01*
X171822482Y-86387819D01*
X171855967Y-86449142D01*
X171850983Y-86518834D01*
X171809111Y-86574767D01*
X171743647Y-86599184D01*
X171734801Y-86599500D01*
X156874500Y-86599500D01*
X156807461Y-86579815D01*
X156761706Y-86527011D01*
X156750500Y-86475500D01*
X156750500Y-70674500D01*
X156770185Y-70607461D01*
X156822989Y-70561706D01*
X156874500Y-70550500D01*
X159318059Y-70550500D01*
X159385098Y-70570185D01*
G37*
%TD.AperFunction*%
%TA.AperFunction,Conductor*%
G36*
X179278314Y-81614173D02*
G01*
X179291647Y-81612257D01*
X179311790Y-81621456D01*
X179333427Y-81626163D01*
X179351152Y-81639431D01*
X179355203Y-81641282D01*
X179361681Y-81647314D01*
X179480342Y-81765975D01*
X179480345Y-81765977D01*
X179652402Y-81880941D01*
X179843580Y-81960130D01*
X180046535Y-82000500D01*
X180046536Y-82000500D01*
X180050191Y-82001227D01*
X180112102Y-82033611D01*
X180146676Y-82094327D01*
X180150000Y-82122844D01*
X180150000Y-82984372D01*
X180130315Y-83051411D01*
X180077511Y-83097166D01*
X180008353Y-83107110D01*
X180006603Y-83106845D01*
X179960227Y-83099500D01*
X179960222Y-83099500D01*
X179739778Y-83099500D01*
X179739772Y-83099500D01*
X179619397Y-83118565D01*
X179580603Y-83118565D01*
X179460228Y-83099500D01*
X179460222Y-83099500D01*
X179239778Y-83099500D01*
X179234906Y-83099500D01*
X179234906Y-83097973D01*
X179173145Y-83084999D01*
X179123388Y-83035947D01*
X179108049Y-82967782D01*
X179115611Y-82932411D01*
X179143597Y-82857376D01*
X179143598Y-82857372D01*
X179149999Y-82797844D01*
X179150000Y-82797827D01*
X179150000Y-82400000D01*
X177900000Y-82400000D01*
X177900000Y-83250000D01*
X178320031Y-83250000D01*
X178387070Y-83269685D01*
X178432825Y-83322489D01*
X178442769Y-83391647D01*
X178413744Y-83455203D01*
X178407712Y-83461681D01*
X178281756Y-83587636D01*
X178281752Y-83587641D01*
X178152187Y-83765974D01*
X178052104Y-83962393D01*
X178052103Y-83962396D01*
X177983985Y-84172047D01*
X177952187Y-84372815D01*
X177949500Y-84389778D01*
X177949500Y-84610222D01*
X177966742Y-84719086D01*
X177983985Y-84827952D01*
X178052103Y-85037603D01*
X178052104Y-85037606D01*
X178152187Y-85234025D01*
X178281752Y-85412358D01*
X178281756Y-85412363D01*
X178437636Y-85568243D01*
X178437641Y-85568247D01*
X178576553Y-85669171D01*
X178615978Y-85697815D01*
X178742504Y-85762284D01*
X178812393Y-85797895D01*
X178812396Y-85797896D01*
X178898204Y-85825776D01*
X179022049Y-85866015D01*
X179239778Y-85900500D01*
X179239779Y-85900500D01*
X179460221Y-85900500D01*
X179460222Y-85900500D01*
X179580604Y-85881433D01*
X179619396Y-85881433D01*
X179739778Y-85900500D01*
X179739779Y-85900500D01*
X179960218Y-85900500D01*
X179960222Y-85900500D01*
X180006604Y-85893153D01*
X180075893Y-85902107D01*
X180129346Y-85947102D01*
X180149987Y-86013853D01*
X180150000Y-86015626D01*
X180150000Y-86475500D01*
X180130315Y-86542539D01*
X180077511Y-86588294D01*
X180026000Y-86599500D01*
X173865198Y-86599500D01*
X173843955Y-86593262D01*
X173821870Y-86591684D01*
X173811083Y-86583610D01*
X173798159Y-86579815D01*
X173783662Y-86563085D01*
X173765935Y-86549816D01*
X173761225Y-86537191D01*
X173752404Y-86527011D01*
X173749253Y-86505098D01*
X173741514Y-86484352D01*
X173744377Y-86471187D01*
X173742460Y-86457853D01*
X173751657Y-86437712D01*
X173756363Y-86416079D01*
X173769634Y-86398349D01*
X173771485Y-86394297D01*
X173777498Y-86387837D01*
X173796620Y-86368716D01*
X173796621Y-86368713D01*
X176430521Y-83734815D01*
X176509578Y-83597883D01*
X176550502Y-83445156D01*
X176550502Y-83374000D01*
X176570187Y-83306961D01*
X176622991Y-83261206D01*
X176674502Y-83250000D01*
X177400000Y-83250000D01*
X177400000Y-82274000D01*
X177419685Y-82206961D01*
X177472489Y-82161206D01*
X177524000Y-82150000D01*
X177650000Y-82150000D01*
X177650000Y-82024000D01*
X177669685Y-81956961D01*
X177722489Y-81911206D01*
X177774000Y-81900000D01*
X179150000Y-81900000D01*
X179150000Y-81734995D01*
X179156238Y-81713749D01*
X179157818Y-81691661D01*
X179165890Y-81680877D01*
X179169685Y-81667956D01*
X179186418Y-81653456D01*
X179199690Y-81635728D01*
X179212310Y-81631020D01*
X179222489Y-81622201D01*
X179244406Y-81619049D01*
X179265154Y-81611311D01*
X179278314Y-81614173D01*
G37*
%TD.AperFunction*%
%TA.AperFunction,Conductor*%
G36*
X173881699Y-77282352D02*
G01*
X173890528Y-77286009D01*
X174000599Y-77300500D01*
X174032923Y-77300499D01*
X174040275Y-77301382D01*
X174065845Y-77312344D01*
X174092536Y-77320181D01*
X174097510Y-77325920D01*
X174104491Y-77328914D01*
X174120073Y-77351958D01*
X174138293Y-77372984D01*
X174139374Y-77380503D01*
X174143628Y-77386794D01*
X174149500Y-77424495D01*
X174149500Y-77449402D01*
X174163989Y-77559468D01*
X174166094Y-77567322D01*
X174162814Y-77568200D01*
X174168581Y-77622073D01*
X174165517Y-77632522D01*
X174166095Y-77632677D01*
X174163990Y-77640529D01*
X174149500Y-77750598D01*
X174149500Y-77949403D01*
X174163989Y-78059468D01*
X174166094Y-78067322D01*
X174162814Y-78068200D01*
X174168581Y-78122073D01*
X174165517Y-78132522D01*
X174166095Y-78132677D01*
X174163990Y-78140529D01*
X174149500Y-78250598D01*
X174149500Y-78449403D01*
X174163989Y-78559468D01*
X174166094Y-78567322D01*
X174162814Y-78568200D01*
X174168581Y-78622073D01*
X174165517Y-78632522D01*
X174166095Y-78632677D01*
X174163990Y-78640529D01*
X174149500Y-78750598D01*
X174149500Y-78949403D01*
X174163989Y-79059468D01*
X174166094Y-79067322D01*
X174162814Y-79068200D01*
X174168581Y-79122073D01*
X174165517Y-79132522D01*
X174166095Y-79132677D01*
X174163990Y-79140529D01*
X174149500Y-79250598D01*
X174149500Y-79449403D01*
X174163989Y-79559468D01*
X174166094Y-79567322D01*
X174162814Y-79568200D01*
X174168581Y-79622073D01*
X174165517Y-79632522D01*
X174166095Y-79632677D01*
X174163990Y-79640529D01*
X174149500Y-79750598D01*
X174149500Y-79949403D01*
X174163989Y-80059468D01*
X174166094Y-80067322D01*
X174163268Y-80068079D01*
X174169678Y-80114775D01*
X174167646Y-80131702D01*
X174163991Y-80140528D01*
X174149500Y-80250599D01*
X174149500Y-80282917D01*
X174148617Y-80290275D01*
X174137651Y-80315851D01*
X174129815Y-80342539D01*
X174124077Y-80347510D01*
X174121085Y-80354491D01*
X174098033Y-80370077D01*
X174077011Y-80388294D01*
X174068286Y-80390192D01*
X174063205Y-80393628D01*
X174051204Y-80393908D01*
X174025504Y-80399500D01*
X174000597Y-80399500D01*
X173890531Y-80413989D01*
X173882678Y-80416094D01*
X173881802Y-80412824D01*
X173827853Y-80418567D01*
X173817477Y-80415518D01*
X173817323Y-80416095D01*
X173809470Y-80413990D01*
X173699401Y-80399500D01*
X173500596Y-80399500D01*
X173390531Y-80413989D01*
X173382678Y-80416094D01*
X173381802Y-80412824D01*
X173327853Y-80418567D01*
X173317477Y-80415518D01*
X173317323Y-80416095D01*
X173309470Y-80413990D01*
X173199401Y-80399500D01*
X173000596Y-80399500D01*
X172890531Y-80413989D01*
X172882678Y-80416094D01*
X172881802Y-80412824D01*
X172827853Y-80418567D01*
X172817477Y-80415518D01*
X172817323Y-80416095D01*
X172809470Y-80413990D01*
X172699401Y-80399500D01*
X172500596Y-80399500D01*
X172390531Y-80413989D01*
X172382678Y-80416094D01*
X172381802Y-80412824D01*
X172327853Y-80418567D01*
X172317477Y-80415518D01*
X172317323Y-80416095D01*
X172309470Y-80413990D01*
X172199401Y-80399500D01*
X172000596Y-80399500D01*
X171890531Y-80413989D01*
X171882678Y-80416094D01*
X171881802Y-80412824D01*
X171827853Y-80418567D01*
X171817477Y-80415518D01*
X171817323Y-80416095D01*
X171809470Y-80413990D01*
X171699401Y-80399500D01*
X171500596Y-80399500D01*
X171390531Y-80413989D01*
X171382678Y-80416094D01*
X171381924Y-80413281D01*
X171335224Y-80419678D01*
X171318297Y-80417646D01*
X171309472Y-80413991D01*
X171199401Y-80399500D01*
X171167082Y-80399500D01*
X171159724Y-80398617D01*
X171134147Y-80387651D01*
X171107460Y-80379815D01*
X171102488Y-80374077D01*
X171095508Y-80371085D01*
X171079921Y-80348033D01*
X171061705Y-80327011D01*
X171059807Y-80318286D01*
X171056371Y-80313205D01*
X171056090Y-80301202D01*
X171050499Y-80275500D01*
X171050499Y-80250597D01*
X171039165Y-80164505D01*
X171036009Y-80140528D01*
X171036008Y-80140525D01*
X171033905Y-80132674D01*
X171037207Y-80131789D01*
X171031392Y-80078075D01*
X171034501Y-80067485D01*
X171033905Y-80067326D01*
X171036008Y-80059475D01*
X171036008Y-80059474D01*
X171036009Y-80059472D01*
X171050500Y-79949401D01*
X171050499Y-79750600D01*
X171036009Y-79640528D01*
X171036008Y-79640525D01*
X171033905Y-79632674D01*
X171037207Y-79631789D01*
X171031392Y-79578075D01*
X171034501Y-79567485D01*
X171033905Y-79567326D01*
X171036008Y-79559475D01*
X171036008Y-79559474D01*
X171036009Y-79559472D01*
X171050500Y-79449401D01*
X171050499Y-79250600D01*
X171036009Y-79140528D01*
X171036008Y-79140525D01*
X171033905Y-79132674D01*
X171037207Y-79131789D01*
X171031392Y-79078075D01*
X171034501Y-79067485D01*
X171033905Y-79067326D01*
X171036008Y-79059475D01*
X171036008Y-79059474D01*
X171036009Y-79059472D01*
X171050500Y-78949401D01*
X171050499Y-78750600D01*
X171050499Y-78750598D01*
X171050499Y-78750596D01*
X171036011Y-78640536D01*
X171033906Y-78632682D01*
X171037007Y-78631850D01*
X171031128Y-78577382D01*
X171034147Y-78567389D01*
X171033418Y-78567194D01*
X171035521Y-78559342D01*
X171046626Y-78475000D01*
X171018506Y-78475000D01*
X171014835Y-78473922D01*
X171011107Y-78474779D01*
X170981574Y-78464155D01*
X170951467Y-78455315D01*
X170947917Y-78452048D01*
X170945361Y-78451129D01*
X170920115Y-78426466D01*
X170919348Y-78425466D01*
X170894167Y-78360292D01*
X170908219Y-78291850D01*
X170919348Y-78274534D01*
X170920115Y-78273534D01*
X170941055Y-78258236D01*
X170957044Y-78241870D01*
X170966404Y-78239718D01*
X170976534Y-78232319D01*
X171018506Y-78225000D01*
X171046626Y-78225000D01*
X171035521Y-78140659D01*
X171033418Y-78132807D01*
X171037041Y-78131835D01*
X171030919Y-78079884D01*
X171034495Y-78067484D01*
X171033905Y-78067326D01*
X171036008Y-78059475D01*
X171036008Y-78059474D01*
X171036009Y-78059472D01*
X171050500Y-77949401D01*
X171050499Y-77750600D01*
X171036009Y-77640528D01*
X171036008Y-77640525D01*
X171033905Y-77632674D01*
X171036757Y-77631909D01*
X171030321Y-77585225D01*
X171032352Y-77568299D01*
X171036009Y-77559472D01*
X171050500Y-77449401D01*
X171050499Y-77417083D01*
X171051383Y-77409724D01*
X171062347Y-77384149D01*
X171070185Y-77357460D01*
X171075922Y-77352488D01*
X171078916Y-77345507D01*
X171101968Y-77329919D01*
X171122989Y-77311705D01*
X171131712Y-77309807D01*
X171136796Y-77306370D01*
X171148802Y-77306089D01*
X171174500Y-77300499D01*
X171199402Y-77300499D01*
X171228382Y-77296683D01*
X171309472Y-77286009D01*
X171309475Y-77286007D01*
X171317326Y-77283905D01*
X171318210Y-77287207D01*
X171371925Y-77281392D01*
X171382514Y-77284501D01*
X171382674Y-77283905D01*
X171390524Y-77286008D01*
X171390526Y-77286008D01*
X171390528Y-77286009D01*
X171500599Y-77300500D01*
X171699400Y-77300499D01*
X171699401Y-77300499D01*
X171716087Y-77298302D01*
X171809472Y-77286009D01*
X171809475Y-77286007D01*
X171817326Y-77283905D01*
X171818210Y-77287207D01*
X171871925Y-77281392D01*
X171882514Y-77284501D01*
X171882674Y-77283905D01*
X171890524Y-77286008D01*
X171890526Y-77286008D01*
X171890528Y-77286009D01*
X172000599Y-77300500D01*
X172199400Y-77300499D01*
X172199401Y-77300499D01*
X172216087Y-77298302D01*
X172309472Y-77286009D01*
X172309475Y-77286007D01*
X172317326Y-77283905D01*
X172318210Y-77287207D01*
X172371925Y-77281392D01*
X172382514Y-77284501D01*
X172382674Y-77283905D01*
X172390524Y-77286008D01*
X172390526Y-77286008D01*
X172390528Y-77286009D01*
X172500599Y-77300500D01*
X172699400Y-77300499D01*
X172699401Y-77300499D01*
X172716087Y-77298302D01*
X172809472Y-77286009D01*
X172809475Y-77286007D01*
X172817326Y-77283905D01*
X172818210Y-77287207D01*
X172871925Y-77281392D01*
X172882514Y-77284501D01*
X172882674Y-77283905D01*
X172890524Y-77286008D01*
X172890526Y-77286008D01*
X172890528Y-77286009D01*
X173000599Y-77300500D01*
X173199400Y-77300499D01*
X173199401Y-77300499D01*
X173216087Y-77298302D01*
X173309472Y-77286009D01*
X173309475Y-77286007D01*
X173317326Y-77283905D01*
X173318210Y-77287207D01*
X173371925Y-77281392D01*
X173382514Y-77284501D01*
X173382674Y-77283905D01*
X173390524Y-77286008D01*
X173390526Y-77286008D01*
X173390528Y-77286009D01*
X173500599Y-77300500D01*
X173699400Y-77300499D01*
X173699401Y-77300499D01*
X173716087Y-77298302D01*
X173809472Y-77286009D01*
X173809475Y-77286007D01*
X173817326Y-77283905D01*
X173818071Y-77286686D01*
X173829490Y-77281146D01*
X173864775Y-77280321D01*
X173881699Y-77282352D01*
G37*
%TD.AperFunction*%
%TA.AperFunction,Conductor*%
G36*
X168593039Y-75646185D02*
G01*
X168638794Y-75698989D01*
X168650000Y-75750500D01*
X168650000Y-76391946D01*
X168640561Y-76439399D01*
X168627160Y-76471751D01*
X168627158Y-76471755D01*
X168596397Y-76626403D01*
X168596397Y-76784096D01*
X168627158Y-76938739D01*
X168627160Y-76938747D01*
X168640561Y-76971099D01*
X168650000Y-77018552D01*
X168650000Y-78100000D01*
X168658083Y-78108083D01*
X168667187Y-78112240D01*
X168692539Y-78119685D01*
X168698466Y-78126525D01*
X168706703Y-78130287D01*
X168720992Y-78152521D01*
X168738294Y-78172489D01*
X168740581Y-78183003D01*
X168744477Y-78189065D01*
X168749500Y-78224000D01*
X168749500Y-78463330D01*
X168749499Y-78463348D01*
X168749499Y-78476000D01*
X168729814Y-78543039D01*
X168677010Y-78588794D01*
X168625499Y-78600000D01*
X168524000Y-78600000D01*
X168456961Y-78580315D01*
X168411206Y-78527511D01*
X168400000Y-78476000D01*
X168400000Y-78350000D01*
X168323500Y-78350000D01*
X168256461Y-78330315D01*
X168210706Y-78277511D01*
X168199500Y-78226000D01*
X168199500Y-75750500D01*
X168202050Y-75741814D01*
X168200762Y-75732853D01*
X168211740Y-75708812D01*
X168219185Y-75683461D01*
X168226025Y-75677533D01*
X168229787Y-75669297D01*
X168252021Y-75655007D01*
X168271989Y-75637706D01*
X168282503Y-75635418D01*
X168288565Y-75631523D01*
X168323500Y-75626500D01*
X168526000Y-75626500D01*
X168593039Y-75646185D01*
G37*
%TD.AperFunction*%
%TA.AperFunction,Conductor*%
G36*
X169605335Y-75307575D02*
G01*
X169661268Y-75349447D01*
X169685684Y-75414911D01*
X169686000Y-75423756D01*
X169686000Y-75499830D01*
X169685999Y-75499848D01*
X169685999Y-75507443D01*
X169685999Y-75665557D01*
X169691389Y-75685671D01*
X169713926Y-75769781D01*
X169713880Y-75771694D01*
X169714828Y-75773359D01*
X169713052Y-75806473D01*
X169712263Y-75839630D01*
X169711189Y-75841216D01*
X169711087Y-75843128D01*
X169691687Y-75870029D01*
X169673100Y-75897493D01*
X169671340Y-75898246D01*
X169670220Y-75899800D01*
X169639348Y-75911946D01*
X169608872Y-75924997D01*
X169606419Y-75924902D01*
X169605202Y-75925381D01*
X169569958Y-75923491D01*
X169499806Y-75909536D01*
X169437896Y-75877150D01*
X169403322Y-75816434D01*
X169399999Y-75787919D01*
X169399999Y-75625028D01*
X169399998Y-75625013D01*
X169389506Y-75522308D01*
X169388324Y-75518741D01*
X169388243Y-75516409D01*
X169388089Y-75515687D01*
X169388217Y-75515659D01*
X169387788Y-75503182D01*
X169382346Y-75488601D01*
X169386610Y-75468979D01*
X169385919Y-75448913D01*
X169394083Y-75434592D01*
X169397184Y-75420325D01*
X169418307Y-75392104D01*
X169418329Y-75392066D01*
X169420844Y-75389549D01*
X169425881Y-75384513D01*
X169425884Y-75384511D01*
X169425889Y-75384505D01*
X169474320Y-75336074D01*
X169535643Y-75302590D01*
X169605335Y-75307575D01*
G37*
%TD.AperFunction*%
%TA.AperFunction,Conductor*%
G36*
X163861416Y-75018265D02*
G01*
X163893334Y-75020548D01*
X163896384Y-75022508D01*
X163899011Y-75022827D01*
X163929116Y-75041249D01*
X163933579Y-75044947D01*
X164031344Y-75142712D01*
X164110457Y-75191509D01*
X164117116Y-75197026D01*
X164132008Y-75219111D01*
X164149821Y-75238915D01*
X164151239Y-75247632D01*
X164156178Y-75254956D01*
X164162000Y-75292507D01*
X164162000Y-75539364D01*
X164142315Y-75606403D01*
X164089511Y-75652158D01*
X164074890Y-75657749D01*
X164008401Y-75678467D01*
X163870608Y-75761766D01*
X163870607Y-75761767D01*
X163751460Y-75880915D01*
X163749648Y-75879103D01*
X163702753Y-75912616D01*
X163632968Y-75916057D01*
X163572400Y-75881224D01*
X163540280Y-75819175D01*
X163538000Y-75795504D01*
X163538000Y-75292507D01*
X163557685Y-75225468D01*
X163596903Y-75186968D01*
X163668656Y-75142712D01*
X163762319Y-75049049D01*
X163765097Y-75047531D01*
X163766750Y-75044831D01*
X163795563Y-75030896D01*
X163823642Y-75015564D01*
X163826799Y-75015789D01*
X163829650Y-75014411D01*
X163861416Y-75018265D01*
G37*
%TD.AperFunction*%
%TA.AperFunction,Conductor*%
G36*
X180093039Y-70570185D02*
G01*
X180138794Y-70622989D01*
X180150000Y-70674500D01*
X180150000Y-71276452D01*
X180130315Y-71343491D01*
X180077511Y-71389246D01*
X180015216Y-71398203D01*
X180015084Y-71399882D01*
X180010228Y-71399500D01*
X180010222Y-71399500D01*
X179789778Y-71399500D01*
X179789772Y-71399500D01*
X179669397Y-71418565D01*
X179630603Y-71418565D01*
X179510228Y-71399500D01*
X179510222Y-71399500D01*
X179289778Y-71399500D01*
X179217201Y-71410995D01*
X179072047Y-71433985D01*
X178862396Y-71502103D01*
X178862393Y-71502104D01*
X178665974Y-71602187D01*
X178487641Y-71731752D01*
X178487636Y-71731756D01*
X178331756Y-71887636D01*
X178331752Y-71887641D01*
X178202187Y-72065974D01*
X178102104Y-72262393D01*
X178102103Y-72262396D01*
X178033985Y-72472047D01*
X177999500Y-72689778D01*
X177999500Y-72910222D01*
X177999499Y-72910222D01*
X178025801Y-73076284D01*
X178016846Y-73145577D01*
X177971850Y-73199029D01*
X177905098Y-73219668D01*
X177855877Y-73210243D01*
X177814621Y-73193155D01*
X177783497Y-73180263D01*
X177783493Y-73180262D01*
X177783489Y-73180261D01*
X177628845Y-73149500D01*
X177628842Y-73149500D01*
X177471158Y-73149500D01*
X177471155Y-73149500D01*
X177316510Y-73180261D01*
X177316498Y-73180264D01*
X177170827Y-73240602D01*
X177170814Y-73240609D01*
X177039711Y-73328210D01*
X177039706Y-73328214D01*
X177021228Y-73346692D01*
X176959904Y-73380176D01*
X176890213Y-73375190D01*
X176845868Y-73346690D01*
X176586533Y-73087355D01*
X176586531Y-73087352D01*
X176467660Y-72968481D01*
X176467659Y-72968480D01*
X176367828Y-72910843D01*
X176330728Y-72889423D01*
X176178000Y-72848499D01*
X176019886Y-72848499D01*
X176012290Y-72848499D01*
X176012274Y-72848500D01*
X173855062Y-72848500D01*
X173855058Y-72848499D01*
X173696943Y-72848499D01*
X173650146Y-72861038D01*
X173637483Y-72861773D01*
X173615304Y-72856634D01*
X173592543Y-72856093D01*
X173581915Y-72848899D01*
X173569416Y-72846004D01*
X173553537Y-72829692D01*
X173534681Y-72816930D01*
X173529629Y-72805133D01*
X173520679Y-72795939D01*
X173516139Y-72773628D01*
X173507178Y-72752701D01*
X173508736Y-72737248D01*
X173506747Y-72727472D01*
X173510765Y-72717124D01*
X173512595Y-72698979D01*
X173527936Y-72652685D01*
X173538000Y-72554174D01*
X173538000Y-71945826D01*
X173527936Y-71847315D01*
X173475049Y-71687713D01*
X173475045Y-71687707D01*
X173475044Y-71687704D01*
X173386783Y-71544612D01*
X173386780Y-71544608D01*
X173267891Y-71425719D01*
X173267887Y-71425716D01*
X173124795Y-71337455D01*
X173124789Y-71337452D01*
X173124787Y-71337451D01*
X172965185Y-71284564D01*
X172965183Y-71284563D01*
X172866681Y-71274500D01*
X172866674Y-71274500D01*
X172333326Y-71274500D01*
X172333318Y-71274500D01*
X172234816Y-71284563D01*
X172234815Y-71284564D01*
X172155719Y-71310773D01*
X172075215Y-71337450D01*
X172075204Y-71337455D01*
X171932112Y-71425716D01*
X171932108Y-71425719D01*
X171900181Y-71457647D01*
X171838858Y-71491132D01*
X171769166Y-71486148D01*
X171724819Y-71457647D01*
X171692891Y-71425719D01*
X171692887Y-71425716D01*
X171549795Y-71337455D01*
X171549789Y-71337452D01*
X171549787Y-71337451D01*
X171390185Y-71284564D01*
X171390183Y-71284563D01*
X171291681Y-71274500D01*
X171291674Y-71274500D01*
X170758326Y-71274500D01*
X170758318Y-71274500D01*
X170659816Y-71284563D01*
X170659815Y-71284564D01*
X170580719Y-71310773D01*
X170500215Y-71337450D01*
X170500204Y-71337455D01*
X170357112Y-71425716D01*
X170357108Y-71425719D01*
X170238219Y-71544608D01*
X170238216Y-71544612D01*
X170149955Y-71687704D01*
X170149950Y-71687715D01*
X170135356Y-71731758D01*
X170097064Y-71847315D01*
X170097064Y-71847316D01*
X170097063Y-71847316D01*
X170087000Y-71945818D01*
X170087000Y-72338403D01*
X170067315Y-72405442D01*
X170014511Y-72451197D01*
X169945353Y-72461141D01*
X169881797Y-72432116D01*
X169875319Y-72426084D01*
X169536818Y-72087583D01*
X169503333Y-72026260D01*
X169500499Y-71999902D01*
X169500499Y-71474998D01*
X169500498Y-71474981D01*
X169489999Y-71372203D01*
X169489998Y-71372200D01*
X169480485Y-71343491D01*
X169434814Y-71205666D01*
X169342712Y-71056344D01*
X169218656Y-70932288D01*
X169069334Y-70840186D01*
X168924537Y-70792205D01*
X168867094Y-70752433D01*
X168840271Y-70687918D01*
X168852586Y-70619142D01*
X168900129Y-70567942D01*
X168963543Y-70550500D01*
X180026000Y-70550500D01*
X180093039Y-70570185D01*
G37*
%TD.AperFunction*%
%TA.AperFunction,Conductor*%
G36*
X168103494Y-70570185D02*
G01*
X168149249Y-70622989D01*
X168159193Y-70692147D01*
X168130168Y-70755703D01*
X168075459Y-70792206D01*
X167930668Y-70840185D01*
X167930663Y-70840187D01*
X167781342Y-70932289D01*
X167657285Y-71056346D01*
X167655537Y-71059182D01*
X167653829Y-71060717D01*
X167652807Y-71062011D01*
X167652585Y-71061836D01*
X167603589Y-71105905D01*
X167534626Y-71117126D01*
X167470544Y-71089282D01*
X167444463Y-71059182D01*
X167442714Y-71056346D01*
X167318657Y-70932289D01*
X167318656Y-70932288D01*
X167169334Y-70840186D01*
X167024537Y-70792205D01*
X166967094Y-70752433D01*
X166940271Y-70687918D01*
X166952586Y-70619142D01*
X167000129Y-70567942D01*
X167063543Y-70550500D01*
X168036455Y-70550500D01*
X168103494Y-70570185D01*
G37*
%TD.AperFunction*%
%TD*%
M02*
