%TF.GenerationSoftware,KiCad,Pcbnew,9.0.6*%
%TF.CreationDate,2026-05-13T17:24:16+05:30*%
%TF.ProjectId,usb_uart_cp2102,7573625f-7561-4727-945f-637032313032,rev?*%
%TF.SameCoordinates,Original*%
%TF.FileFunction,Legend,Top*%
%TF.FilePolarity,Positive*%
%FSLAX46Y46*%
G04 Gerber Fmt 4.6, Leading zero omitted, Abs format (unit mm)*
G04 Created by KiCad (PCBNEW 9.0.6) date 2026-05-13 17:24:16*
%MOMM*%
%LPD*%
G01*
G04 APERTURE LIST*
%ADD10C,0.150000*%
%ADD11C,0.120000*%
%ADD12C,0.200000*%
G04 APERTURE END LIST*
D10*
X172475125Y-71205704D02*
X172017982Y-71205704D01*
X172246554Y-70405704D02*
X172246554Y-71205704D01*
X171827506Y-71205704D02*
X171294172Y-70405704D01*
X171294172Y-71205704D02*
X171827506Y-70405704D01*
X171646303Y-86844295D02*
X171379636Y-86463342D01*
X171189160Y-86844295D02*
X171189160Y-86044295D01*
X171189160Y-86044295D02*
X171493922Y-86044295D01*
X171493922Y-86044295D02*
X171570112Y-86082390D01*
X171570112Y-86082390D02*
X171608207Y-86120485D01*
X171608207Y-86120485D02*
X171646303Y-86196676D01*
X171646303Y-86196676D02*
X171646303Y-86310961D01*
X171646303Y-86310961D02*
X171608207Y-86387152D01*
X171608207Y-86387152D02*
X171570112Y-86425247D01*
X171570112Y-86425247D02*
X171493922Y-86463342D01*
X171493922Y-86463342D02*
X171189160Y-86463342D01*
X171912969Y-86044295D02*
X172446303Y-86844295D01*
X172446303Y-86044295D02*
X171912969Y-86844295D01*
X157380704Y-80539874D02*
X157380704Y-80997017D01*
X156580704Y-80768445D02*
X157380704Y-80768445D01*
X157380704Y-81187493D02*
X156580704Y-81720827D01*
X157380704Y-81720827D02*
X156580704Y-81187493D01*
X156885466Y-72154160D02*
X156885466Y-72763684D01*
X156580704Y-72458922D02*
X157190228Y-72458922D01*
X157380704Y-73525588D02*
X157380704Y-73144636D01*
X157380704Y-73144636D02*
X156999752Y-73106540D01*
X156999752Y-73106540D02*
X157037847Y-73144636D01*
X157037847Y-73144636D02*
X157075942Y-73220826D01*
X157075942Y-73220826D02*
X157075942Y-73411302D01*
X157075942Y-73411302D02*
X157037847Y-73487493D01*
X157037847Y-73487493D02*
X156999752Y-73525588D01*
X156999752Y-73525588D02*
X156923561Y-73563683D01*
X156923561Y-73563683D02*
X156733085Y-73563683D01*
X156733085Y-73563683D02*
X156656895Y-73525588D01*
X156656895Y-73525588D02*
X156618800Y-73487493D01*
X156618800Y-73487493D02*
X156580704Y-73411302D01*
X156580704Y-73411302D02*
X156580704Y-73220826D01*
X156580704Y-73220826D02*
X156618800Y-73144636D01*
X156618800Y-73144636D02*
X156656895Y-73106540D01*
X157380704Y-73792255D02*
X156580704Y-74058922D01*
X156580704Y-74058922D02*
X157380704Y-74325588D01*
X156580704Y-83361303D02*
X156961657Y-83094636D01*
X156580704Y-82904160D02*
X157380704Y-82904160D01*
X157380704Y-82904160D02*
X157380704Y-83208922D01*
X157380704Y-83208922D02*
X157342609Y-83285112D01*
X157342609Y-83285112D02*
X157304514Y-83323207D01*
X157304514Y-83323207D02*
X157228323Y-83361303D01*
X157228323Y-83361303D02*
X157114038Y-83361303D01*
X157114038Y-83361303D02*
X157037847Y-83323207D01*
X157037847Y-83323207D02*
X156999752Y-83285112D01*
X156999752Y-83285112D02*
X156961657Y-83208922D01*
X156961657Y-83208922D02*
X156961657Y-82904160D01*
X156618800Y-83666064D02*
X156580704Y-83780350D01*
X156580704Y-83780350D02*
X156580704Y-83970826D01*
X156580704Y-83970826D02*
X156618800Y-84047017D01*
X156618800Y-84047017D02*
X156656895Y-84085112D01*
X156656895Y-84085112D02*
X156733085Y-84123207D01*
X156733085Y-84123207D02*
X156809276Y-84123207D01*
X156809276Y-84123207D02*
X156885466Y-84085112D01*
X156885466Y-84085112D02*
X156923561Y-84047017D01*
X156923561Y-84047017D02*
X156961657Y-83970826D01*
X156961657Y-83970826D02*
X156999752Y-83818445D01*
X156999752Y-83818445D02*
X157037847Y-83742255D01*
X157037847Y-83742255D02*
X157075942Y-83704160D01*
X157075942Y-83704160D02*
X157152133Y-83666064D01*
X157152133Y-83666064D02*
X157228323Y-83666064D01*
X157228323Y-83666064D02*
X157304514Y-83704160D01*
X157304514Y-83704160D02*
X157342609Y-83742255D01*
X157342609Y-83742255D02*
X157380704Y-83818445D01*
X157380704Y-83818445D02*
X157380704Y-84008922D01*
X157380704Y-84008922D02*
X157342609Y-84123207D01*
X157380704Y-84351779D02*
X157380704Y-84808922D01*
X156580704Y-84580350D02*
X157380704Y-84580350D01*
X156580704Y-78561303D02*
X156961657Y-78294636D01*
X156580704Y-78104160D02*
X157380704Y-78104160D01*
X157380704Y-78104160D02*
X157380704Y-78408922D01*
X157380704Y-78408922D02*
X157342609Y-78485112D01*
X157342609Y-78485112D02*
X157304514Y-78523207D01*
X157304514Y-78523207D02*
X157228323Y-78561303D01*
X157228323Y-78561303D02*
X157114038Y-78561303D01*
X157114038Y-78561303D02*
X157037847Y-78523207D01*
X157037847Y-78523207D02*
X156999752Y-78485112D01*
X156999752Y-78485112D02*
X156961657Y-78408922D01*
X156961657Y-78408922D02*
X156961657Y-78104160D01*
X157380704Y-78827969D02*
X156580704Y-79361303D01*
X157380704Y-79361303D02*
X156580704Y-78827969D01*
X157392609Y-75523207D02*
X157430704Y-75447017D01*
X157430704Y-75447017D02*
X157430704Y-75332731D01*
X157430704Y-75332731D02*
X157392609Y-75218445D01*
X157392609Y-75218445D02*
X157316419Y-75142255D01*
X157316419Y-75142255D02*
X157240228Y-75104160D01*
X157240228Y-75104160D02*
X157087847Y-75066064D01*
X157087847Y-75066064D02*
X156973561Y-75066064D01*
X156973561Y-75066064D02*
X156821180Y-75104160D01*
X156821180Y-75104160D02*
X156744990Y-75142255D01*
X156744990Y-75142255D02*
X156668800Y-75218445D01*
X156668800Y-75218445D02*
X156630704Y-75332731D01*
X156630704Y-75332731D02*
X156630704Y-75408922D01*
X156630704Y-75408922D02*
X156668800Y-75523207D01*
X156668800Y-75523207D02*
X156706895Y-75561303D01*
X156706895Y-75561303D02*
X156973561Y-75561303D01*
X156973561Y-75561303D02*
X156973561Y-75408922D01*
X156630704Y-75904160D02*
X157430704Y-75904160D01*
X157430704Y-75904160D02*
X156630704Y-76361303D01*
X156630704Y-76361303D02*
X157430704Y-76361303D01*
X156630704Y-76742255D02*
X157430704Y-76742255D01*
X157430704Y-76742255D02*
X157430704Y-76932731D01*
X157430704Y-76932731D02*
X157392609Y-77047017D01*
X157392609Y-77047017D02*
X157316419Y-77123207D01*
X157316419Y-77123207D02*
X157240228Y-77161302D01*
X157240228Y-77161302D02*
X157087847Y-77199398D01*
X157087847Y-77199398D02*
X156973561Y-77199398D01*
X156973561Y-77199398D02*
X156821180Y-77161302D01*
X156821180Y-77161302D02*
X156744990Y-77123207D01*
X156744990Y-77123207D02*
X156668800Y-77047017D01*
X156668800Y-77047017D02*
X156630704Y-76932731D01*
X156630704Y-76932731D02*
X156630704Y-76742255D01*
D11*
%TO.C,C2*%
X167288748Y-72735000D02*
X167811252Y-72735000D01*
X167288748Y-71265000D02*
X167811252Y-71265000D01*
%TO.C,C1*%
X167188748Y-79085000D02*
X167711252Y-79085000D01*
X167188748Y-77615000D02*
X167711252Y-77615000D01*
%TO.C,R4*%
X169200000Y-83800000D02*
X169200000Y-81800000D01*
X169200000Y-81800000D02*
X165800000Y-81800000D01*
X165800000Y-83800000D02*
X169200000Y-83800000D01*
X165800000Y-81800000D02*
X165800000Y-83800000D01*
%TO.C,R5*%
X169200000Y-81600000D02*
X169200000Y-79600000D01*
X169200000Y-79600000D02*
X165800000Y-79600000D01*
X165800000Y-81600000D02*
X169200000Y-81600000D01*
X165800000Y-79600000D02*
X165800000Y-81600000D01*
%TO.C,C3*%
X167238748Y-74735000D02*
X167761252Y-74735000D01*
X167238748Y-73265000D02*
X167761252Y-73265000D01*
%TO.C,R3*%
X169250000Y-86000000D02*
X169250000Y-84000000D01*
X169250000Y-84000000D02*
X165850000Y-84000000D01*
X165850000Y-86000000D02*
X169250000Y-86000000D01*
X165850000Y-84000000D02*
X165850000Y-86000000D01*
%TO.C,C4*%
X167188748Y-76885000D02*
X167711252Y-76885000D01*
X167188748Y-75415000D02*
X167711252Y-75415000D01*
%TO.C,U1*%
X169990000Y-76240000D02*
X170715000Y-76240000D01*
X169990000Y-76965000D02*
X169990000Y-76240000D01*
X169990000Y-81460000D02*
X169990000Y-80735000D01*
X170715000Y-81460000D02*
X169990000Y-81460000D01*
X174485000Y-76240000D02*
X175210000Y-76240000D01*
X175210000Y-76240000D02*
X175210000Y-76965000D01*
X175210000Y-80735000D02*
X175210000Y-81460000D01*
X175210000Y-81460000D02*
X174485000Y-81460000D01*
X169490000Y-77350000D02*
X169160000Y-77590000D01*
X169160000Y-77110000D01*
X169490000Y-77350000D01*
G36*
X169490000Y-77350000D02*
G01*
X169160000Y-77590000D01*
X169160000Y-77110000D01*
X169490000Y-77350000D01*
G37*
%TO.C,D3*%
X161550000Y-76000000D02*
X161550000Y-79300000D01*
X161550000Y-79300000D02*
X165550000Y-79300000D01*
X165550000Y-75500000D02*
X162050000Y-75500000D01*
X165550000Y-79300000D02*
X165550000Y-75500000D01*
D12*
X161813500Y-75700000D02*
G75*
G02*
X161686500Y-75700000I-63500J0D01*
G01*
X161686500Y-75700000D02*
G75*
G02*
X161813500Y-75700000I63500J0D01*
G01*
D11*
%TO.C,R1*%
X170362500Y-82300000D02*
X170362500Y-84300000D01*
X170362500Y-84300000D02*
X173762500Y-84300000D01*
X173762500Y-82300000D02*
X170362500Y-82300000D01*
X173762500Y-84300000D02*
X173762500Y-82300000D01*
%TO.C,R6*%
X162150000Y-73100000D02*
X162150000Y-75100000D01*
X162150000Y-75100000D02*
X165550000Y-75100000D01*
X165550000Y-73100000D02*
X162150000Y-73100000D01*
X165550000Y-75100000D02*
X165550000Y-73100000D01*
%TO.C,D1*%
X173212500Y-72750000D02*
X173212500Y-71750000D01*
%TO.C,R8*%
X162137500Y-70850000D02*
X162137500Y-72850000D01*
X162137500Y-72850000D02*
X165537500Y-72850000D01*
X165537500Y-70850000D02*
X162137500Y-70850000D01*
X165537500Y-72850000D02*
X165537500Y-70850000D01*
%TO.C,J1*%
X158170000Y-82430000D02*
X158170000Y-72160000D01*
X160930000Y-72160000D02*
X158170000Y-72160000D01*
X160930000Y-82430000D02*
X158170000Y-82430000D01*
X160930000Y-82430000D02*
X160930000Y-72160000D01*
X160930000Y-83700000D02*
X160930000Y-85080000D01*
X160930000Y-85080000D02*
X159550000Y-85080000D01*
%TO.C,R2*%
X170312500Y-73300000D02*
X170312500Y-75300000D01*
X170312500Y-75300000D02*
X173712500Y-75300000D01*
X173712500Y-73300000D02*
X170312500Y-73300000D01*
X173712500Y-75300000D02*
X173712500Y-73300000D01*
%TO.C,D2*%
X170612500Y-84700000D02*
X170612500Y-85700000D01*
%TD*%
M02*
