M48
; DRILL file {KiCad 9.0.6} date 2026-05-13T17:24:14+0530
; FORMAT={-:-/ absolute / metric / decimal}
; #@! TF.CreationDate,2026-05-13T17:24:14+05:30
; #@! TF.GenerationSoftware,Kicad,Pcbnew,9.0.6
; #@! TF.FileFunction,Plated,1,2,PTH
FMAT,2
METRIC
; #@! TA.AperFunction,Plated,PTH,ViaDrill
T1C0.300
; #@! TA.AperFunction,Plated,PTH,ComponentDrill
T2C1.000
; #@! TA.AperFunction,Plated,PTH,ComponentDrill
T3C1.100
%
G90
G05
T1
X158.25Y-71.25
X160.0Y-71.3
X162.1Y-72.4
X162.45Y-80.0
X164.156Y-72.979
X165.6Y-79.7
X167.55Y-74.5
X168.7Y-77.3
X169.397Y-76.705
X169.5Y-73.9
X169.532Y-84.768
X169.65Y-81.0
X171.392Y-84.5
X172.05Y-75.634
X174.778Y-75.627
X175.15Y-82.45
X175.85Y-74.05
X176.55Y-81.0
X177.05Y-83.2
X177.35Y-71.15
X177.55Y-73.95
X177.75Y-80.825
T2
X159.55Y-73.54
X159.55Y-76.08
X159.55Y-78.62
X159.55Y-81.16
X159.55Y-83.7
X179.35Y-84.5
X179.4Y-72.8
X179.85Y-84.5
X179.9Y-72.8
X180.35Y-84.5
X180.4Y-72.8
X180.85Y-84.5
X180.9Y-72.8
T3
X180.15Y-76.35
X180.15Y-80.95
M30
