M48
; DRILL file {KiCad 9.0.6} date 2026-06-03T18:03:23+0530
; FORMAT={-:-/ absolute / metric / decimal}
; #@! TF.CreationDate,2026-06-03T18:03:23+05:30
; #@! TF.GenerationSoftware,Kicad,Pcbnew,9.0.6
; #@! TF.FileFunction,Plated,1,2,PTH
FMAT,2
METRIC
; #@! TA.AperFunction,Plated,PTH,ComponentDrill
T1C0.800
; #@! TA.AperFunction,Plated,PTH,ComponentDrill
T2C1.000
; #@! TA.AperFunction,Plated,PTH,ComponentDrill
T3C3.200
%
G90
G05
T1
X100.076Y-79.248
X100.076Y-89.408
X159.004Y-94.488
X159.004Y-102.108
X159.512Y-104.8
X159.512Y-114.96
X169.164Y-94.488
X169.164Y-102.108
T2
X104.648Y-79.756
X107.188Y-79.756
X108.712Y-26.665
X108.712Y-29.205
X108.712Y-44.196
X108.712Y-46.736
X108.712Y-92.456
X108.712Y-94.996
X108.712Y-97.536
X108.712Y-100.076
X108.712Y-102.616
X108.712Y-105.156
X108.712Y-107.696
X108.712Y-110.236
X108.712Y-112.776
X108.712Y-115.316
X108.712Y-117.856
X108.712Y-120.396
X108.712Y-122.936
X108.712Y-125.476
X108.712Y-128.016
X109.728Y-58.928
X109.728Y-79.756
X112.268Y-58.928
X114.808Y-58.928
X117.348Y-58.928
X117.348Y-92.456
X117.348Y-94.996
X117.348Y-97.536
X117.348Y-100.076
X117.348Y-102.616
X117.348Y-105.156
X117.348Y-107.696
X117.348Y-110.236
X117.348Y-112.776
X117.348Y-115.316
X117.348Y-117.856
X117.348Y-120.396
X117.348Y-122.936
X117.348Y-125.476
X117.348Y-128.016
X119.888Y-58.928
X131.318Y-59.436
X133.858Y-59.436
X134.62Y-26.665
X134.62Y-29.205
X134.62Y-44.196
X134.62Y-46.736
X136.398Y-59.436
X138.938Y-59.436
X139.7Y-26.665
X139.7Y-29.205
X139.7Y-44.196
X139.7Y-46.736
X142.748Y-92.456
X142.748Y-94.996
X142.748Y-97.536
X142.748Y-100.076
X142.748Y-102.616
X142.748Y-105.156
X142.748Y-107.696
X142.748Y-110.236
X142.748Y-112.776
X142.748Y-115.316
X142.748Y-117.856
X142.748Y-120.396
X142.748Y-122.936
X142.748Y-125.476
X142.748Y-128.016
X150.368Y-25.908
X150.368Y-69.088
X151.892Y-92.456
X151.892Y-94.996
X151.892Y-97.536
X151.892Y-100.076
X151.892Y-102.616
X151.892Y-105.156
X151.892Y-107.696
X151.892Y-110.236
X151.892Y-112.776
X151.892Y-115.316
X151.892Y-117.856
X151.892Y-120.396
X151.892Y-122.936
X151.892Y-125.476
X151.892Y-128.016
X152.908Y-25.908
X152.908Y-69.088
X155.448Y-25.908
X155.448Y-69.088
X157.988Y-25.908
X157.988Y-69.088
X167.132Y-110.744
X167.132Y-113.284
X167.132Y-115.824
X167.132Y-118.364
X167.132Y-120.904
X167.132Y-123.444
X167.132Y-125.984
X167.132Y-128.524
X178.308Y-25.908
X178.308Y-69.088
X180.848Y-25.908
X180.848Y-69.088
X182.372Y-110.744
X182.372Y-113.284
X182.372Y-115.824
X182.372Y-118.364
X182.372Y-120.904
X182.372Y-123.444
X182.372Y-125.984
X182.372Y-128.524
X182.397Y-79.004
X182.397Y-81.544
X182.397Y-84.084
X182.397Y-86.624
X183.388Y-25.908
X183.388Y-69.088
X185.928Y-25.908
X185.928Y-69.088
X188.468Y-78.994
X188.468Y-81.534
X188.468Y-84.074
X188.468Y-86.614
T3
X100.076Y-24.384
X100.076Y-127.0
X192.024Y-24.892
X192.024Y-127.0
M30
