%TF.GenerationSoftware,KiCad,Pcbnew,9.0.6*%
%TF.CreationDate,2026-06-03T18:03:16+05:30*%
%TF.ProjectId,patient_health_monitoring_system,70617469-656e-4745-9f68-65616c74685f,rev?*%
%TF.SameCoordinates,Original*%
%TF.FileFunction,Soldermask,Bot*%
%TF.FilePolarity,Negative*%
%FSLAX46Y46*%
G04 Gerber Fmt 4.6, Leading zero omitted, Abs format (unit mm)*
G04 Created by KiCad (PCBNEW 9.0.6) date 2026-06-03 18:03:16*
%MOMM*%
%LPD*%
G01*
G04 APERTURE LIST*
%ADD10R,1.700000X1.700000*%
%ADD11C,1.700000*%
%ADD12C,1.600000*%
%ADD13C,6.000000*%
G04 APERTURE END LIST*
D10*
%TO.C,J21*%
X182397000Y-79004000D03*
D11*
X182397000Y-81544000D03*
X182397000Y-84084000D03*
X182397000Y-86624000D03*
%TD*%
D10*
%TO.C,J20*%
X139700000Y-26665000D03*
D11*
X139700000Y-29205000D03*
%TD*%
D10*
%TO.C,J19*%
X139700000Y-44196000D03*
D11*
X139700000Y-46736000D03*
%TD*%
D10*
%TO.C,J17*%
X182372000Y-110744000D03*
D11*
X182372000Y-113284000D03*
X182372000Y-115824000D03*
X182372000Y-118364000D03*
X182372000Y-120904000D03*
X182372000Y-123444000D03*
X182372000Y-125984000D03*
X182372000Y-128524000D03*
%TD*%
D10*
%TO.C,J16*%
X167132000Y-110744000D03*
D11*
X167132000Y-113284000D03*
X167132000Y-115824000D03*
X167132000Y-118364000D03*
X167132000Y-120904000D03*
X167132000Y-123444000D03*
X167132000Y-125984000D03*
X167132000Y-128524000D03*
%TD*%
D10*
%TO.C,J15*%
X108712000Y-92456000D03*
D11*
X108712000Y-94996000D03*
X108712000Y-97536000D03*
X108712000Y-100076000D03*
X108712000Y-102616000D03*
X108712000Y-105156000D03*
X108712000Y-107696000D03*
X108712000Y-110236000D03*
X108712000Y-112776000D03*
X108712000Y-115316000D03*
X108712000Y-117856000D03*
X108712000Y-120396000D03*
X108712000Y-122936000D03*
X108712000Y-125476000D03*
X108712000Y-128016000D03*
%TD*%
D10*
%TO.C,J14*%
X151892000Y-92456000D03*
D11*
X151892000Y-94996000D03*
X151892000Y-97536000D03*
X151892000Y-100076000D03*
X151892000Y-102616000D03*
X151892000Y-105156000D03*
X151892000Y-107696000D03*
X151892000Y-110236000D03*
X151892000Y-112776000D03*
X151892000Y-115316000D03*
X151892000Y-117856000D03*
X151892000Y-120396000D03*
X151892000Y-122936000D03*
X151892000Y-125476000D03*
X151892000Y-128016000D03*
%TD*%
D10*
%TO.C,J13*%
X131318000Y-59436000D03*
D11*
X133858000Y-59436000D03*
X136398000Y-59436000D03*
X138938000Y-59436000D03*
%TD*%
D10*
%TO.C,J12*%
X108712000Y-44196000D03*
D11*
X108712000Y-46736000D03*
%TD*%
D10*
%TO.C,J11*%
X150368000Y-69088000D03*
D11*
X152908000Y-69088000D03*
X155448000Y-69088000D03*
X157988000Y-69088000D03*
%TD*%
D10*
%TO.C,J10*%
X178308000Y-69088000D03*
D11*
X180848000Y-69088000D03*
X183388000Y-69088000D03*
X185928000Y-69088000D03*
%TD*%
D10*
%TO.C,J9*%
X150368000Y-25908000D03*
D11*
X152908000Y-25908000D03*
X155448000Y-25908000D03*
X157988000Y-25908000D03*
%TD*%
D10*
%TO.C,J8*%
X108712000Y-26665000D03*
D11*
X108712000Y-29205000D03*
%TD*%
D10*
%TO.C,J7*%
X134620000Y-26665000D03*
D11*
X134620000Y-29205000D03*
%TD*%
D10*
%TO.C,J6*%
X134620000Y-44196000D03*
D11*
X134620000Y-46736000D03*
%TD*%
D10*
%TO.C,J5*%
X188468000Y-78994000D03*
D11*
X188468000Y-81534000D03*
X188468000Y-84074000D03*
X188468000Y-86614000D03*
%TD*%
D10*
%TO.C,J4*%
X104648000Y-79756000D03*
D11*
X107188000Y-79756000D03*
X109728000Y-79756000D03*
%TD*%
D10*
%TO.C,J3*%
X178308000Y-25908000D03*
D11*
X180848000Y-25908000D03*
X183388000Y-25908000D03*
X185928000Y-25908000D03*
%TD*%
D10*
%TO.C,J2*%
X109728000Y-58928000D03*
D11*
X112268000Y-58928000D03*
X114808000Y-58928000D03*
X117348000Y-58928000D03*
X119888000Y-58928000D03*
%TD*%
D10*
%TO.C,J18*%
X117348000Y-92456000D03*
D11*
X117348000Y-94996000D03*
X117348000Y-97536000D03*
X117348000Y-100076000D03*
X117348000Y-102616000D03*
X117348000Y-105156000D03*
X117348000Y-107696000D03*
X117348000Y-110236000D03*
X117348000Y-112776000D03*
X117348000Y-115316000D03*
X117348000Y-117856000D03*
X117348000Y-120396000D03*
X117348000Y-122936000D03*
X117348000Y-125476000D03*
X117348000Y-128016000D03*
%TD*%
D10*
%TO.C,J1*%
X142748000Y-92456000D03*
D11*
X142748000Y-94996000D03*
X142748000Y-97536000D03*
X142748000Y-100076000D03*
X142748000Y-102616000D03*
X142748000Y-105156000D03*
X142748000Y-107696000D03*
X142748000Y-110236000D03*
X142748000Y-112776000D03*
X142748000Y-115316000D03*
X142748000Y-117856000D03*
X142748000Y-120396000D03*
X142748000Y-122936000D03*
X142748000Y-125476000D03*
X142748000Y-128016000D03*
%TD*%
D12*
%TO.C,R13*%
X159512000Y-114960400D03*
X159512000Y-104800400D03*
%TD*%
%TO.C,R2*%
X159004000Y-102108000D03*
X169164000Y-102108000D03*
%TD*%
%TO.C,R3*%
X159004000Y-94488000D03*
X169164000Y-94488000D03*
%TD*%
%TO.C,R1*%
X100076000Y-89408000D03*
X100076000Y-79248000D03*
%TD*%
D13*
%TO.C,H3*%
X100076000Y-127000000D03*
%TD*%
%TO.C,H1*%
X100076000Y-24384000D03*
%TD*%
%TO.C,H2*%
X192024000Y-24892000D03*
%TD*%
%TO.C,H4*%
X192024000Y-127000000D03*
%TD*%
M02*
