%TF.GenerationSoftware,KiCad,Pcbnew,9.0.6*%
%TF.CreationDate,2026-05-14T22:47:15+05:30*%
%TF.ProjectId,esp32_rtc_display,65737033-325f-4727-9463-5f646973706c,rev?*%
%TF.SameCoordinates,Original*%
%TF.FileFunction,Soldermask,Top*%
%TF.FilePolarity,Negative*%
%FSLAX46Y46*%
G04 Gerber Fmt 4.6, Leading zero omitted, Abs format (unit mm)*
G04 Created by KiCad (PCBNEW 9.0.6) date 2026-05-14 22:47:15*
%MOMM*%
%LPD*%
G01*
G04 APERTURE LIST*
G04 Aperture macros list*
%AMRoundRect*
0 Rectangle with rounded corners*
0 $1 Rounding radius*
0 $2 $3 $4 $5 $6 $7 $8 $9 X,Y pos of 4 corners*
0 Add a 4 corners polygon primitive as box body*
4,1,4,$2,$3,$4,$5,$6,$7,$8,$9,$2,$3,0*
0 Add four circle primitives for the rounded corners*
1,1,$1+$1,$2,$3*
1,1,$1+$1,$4,$5*
1,1,$1+$1,$6,$7*
1,1,$1+$1,$8,$9*
0 Add four rect primitives between the rounded corners*
20,1,$1+$1,$2,$3,$4,$5,0*
20,1,$1+$1,$4,$5,$6,$7,0*
20,1,$1+$1,$6,$7,$8,$9,0*
20,1,$1+$1,$8,$9,$2,$3,0*%
G04 Aperture macros list end*
%ADD10C,2.000000*%
%ADD11RoundRect,0.250000X-0.450000X0.262500X-0.450000X-0.262500X0.450000X-0.262500X0.450000X0.262500X0*%
%ADD12RoundRect,0.250000X-0.262500X-0.450000X0.262500X-0.450000X0.262500X0.450000X-0.262500X0.450000X0*%
%ADD13RoundRect,0.250000X0.262500X0.450000X-0.262500X0.450000X-0.262500X-0.450000X0.262500X-0.450000X0*%
%ADD14R,1.700000X1.700000*%
%ADD15C,1.700000*%
%ADD16C,1.500000*%
%ADD17RoundRect,0.250000X0.450000X-0.262500X0.450000X0.262500X-0.450000X0.262500X-0.450000X-0.262500X0*%
%ADD18R,1.050000X1.500000*%
%ADD19O,1.050000X1.500000*%
%ADD20RoundRect,0.200000X-0.250000X-0.200000X0.250000X-0.200000X0.250000X0.200000X-0.250000X0.200000X0*%
%ADD21RoundRect,0.250000X0.250000X0.475000X-0.250000X0.475000X-0.250000X-0.475000X0.250000X-0.475000X0*%
%ADD22RoundRect,0.250000X-0.475000X0.250000X-0.475000X-0.250000X0.475000X-0.250000X0.475000X0.250000X0*%
%ADD23RoundRect,0.218750X0.256250X-0.218750X0.256250X0.218750X-0.256250X0.218750X-0.256250X-0.218750X0*%
%ADD24RoundRect,0.150000X-0.875000X-0.150000X0.875000X-0.150000X0.875000X0.150000X-0.875000X0.150000X0*%
%ADD25R,6.000000X2.500000*%
%ADD26C,17.800000*%
%ADD27R,1.500000X0.900000*%
%ADD28R,0.900000X1.500000*%
%ADD29C,0.600000*%
%ADD30R,4.200000X4.200000*%
%ADD31R,0.400000X1.400000*%
%ADD32O,1.050000X1.900000*%
%ADD33R,1.150000X1.450000*%
%ADD34R,1.750000X1.900000*%
%ADD35RoundRect,0.375000X-0.375000X-0.375000X0.375000X-0.375000X0.375000X0.375000X-0.375000X0.375000X0*%
%ADD36RoundRect,0.375000X-0.625000X-0.375000X0.625000X-0.375000X0.625000X0.375000X-0.625000X0.375000X0*%
%ADD37RoundRect,0.500000X-0.500000X-1.400000X0.500000X-1.400000X0.500000X1.400000X-0.500000X1.400000X0*%
%ADD38RoundRect,0.062500X-0.350000X-0.062500X0.350000X-0.062500X0.350000X0.062500X-0.350000X0.062500X0*%
%ADD39RoundRect,0.062500X-0.062500X-0.350000X0.062500X-0.350000X0.062500X0.350000X-0.062500X0.350000X0*%
%ADD40R,2.600000X2.600000*%
%ADD41RoundRect,0.250000X-0.250000X-0.475000X0.250000X-0.475000X0.250000X0.475000X-0.250000X0.475000X0*%
%ADD42RoundRect,0.162500X-0.367500X-0.162500X0.367500X-0.162500X0.367500X0.162500X-0.367500X0.162500X0*%
G04 APERTURE END LIST*
D10*
%TO.C,SW2*%
X99040200Y-119000200D03*
X105540200Y-119000200D03*
X99040200Y-123500200D03*
X105540200Y-123500200D03*
%TD*%
D11*
%TO.C,R9*%
X170665200Y-104187700D03*
X170665200Y-106012700D03*
%TD*%
D12*
%TO.C,R13*%
X129340200Y-116200200D03*
X131165200Y-116200200D03*
%TD*%
D13*
%TO.C,R1*%
X148927700Y-99250200D03*
X147102700Y-99250200D03*
%TD*%
D12*
%TO.C,R20*%
X117852700Y-114200200D03*
X119677700Y-114200200D03*
%TD*%
D14*
%TO.C,J2*%
X126860200Y-120000200D03*
D15*
X124320200Y-120000200D03*
X121780200Y-120000200D03*
X119240200Y-120000200D03*
%TD*%
D13*
%TO.C,R19*%
X123390200Y-114175200D03*
X121565200Y-114175200D03*
%TD*%
D16*
%TO.C,ST1*%
X170815200Y-85875200D03*
%TD*%
D17*
%TO.C,R16*%
X154940200Y-109537700D03*
X154940200Y-107712700D03*
%TD*%
D18*
%TO.C,Q4*%
X134600200Y-110575200D03*
D19*
X135870200Y-110575200D03*
X137140200Y-110575200D03*
%TD*%
D20*
%TO.C,Q6*%
X143215200Y-100225200D03*
X143215200Y-102125200D03*
X145215200Y-101175200D03*
%TD*%
D11*
%TO.C,R5*%
X170715200Y-95800200D03*
X170715200Y-97625200D03*
%TD*%
D13*
%TO.C,R4*%
X152540200Y-103600200D03*
X150715200Y-103600200D03*
%TD*%
D21*
%TO.C,C2*%
X121140200Y-92425200D03*
X119240200Y-92425200D03*
%TD*%
D16*
%TO.C,ST4*%
X152741000Y-123850400D03*
%TD*%
D13*
%TO.C,R12*%
X127315200Y-116350200D03*
X125490200Y-116350200D03*
%TD*%
D11*
%TO.C,R11*%
X170665200Y-99962700D03*
X170665200Y-101787700D03*
%TD*%
%TO.C,R8*%
X154940200Y-100412700D03*
X154940200Y-102237700D03*
%TD*%
D12*
%TO.C,R22*%
X139777700Y-113200200D03*
X141602700Y-113200200D03*
%TD*%
%TO.C,R14*%
X121552700Y-116375200D03*
X123377700Y-116375200D03*
%TD*%
D20*
%TO.C,Q5*%
X143215200Y-96325200D03*
X143215200Y-98225200D03*
X145215200Y-97275200D03*
%TD*%
D21*
%TO.C,C3*%
X117590200Y-92425200D03*
X115690200Y-92425200D03*
%TD*%
D22*
%TO.C,C1*%
X121065200Y-103750200D03*
X121065200Y-105650200D03*
%TD*%
D13*
%TO.C,R26*%
X152540200Y-101450200D03*
X150715200Y-101450200D03*
%TD*%
D21*
%TO.C,C7*%
X113840200Y-92350200D03*
X111940200Y-92350200D03*
%TD*%
%TO.C,C5*%
X117515200Y-90300200D03*
X115615200Y-90300200D03*
%TD*%
D16*
%TO.C,ST3*%
X118197000Y-124079000D03*
%TD*%
D23*
%TO.C,D2*%
X141665200Y-118825200D03*
X141665200Y-117250200D03*
%TD*%
D10*
%TO.C,SW1*%
X109015200Y-119000200D03*
X115515200Y-119000200D03*
X109015200Y-123500200D03*
X115515200Y-123500200D03*
%TD*%
D12*
%TO.C,R2*%
X147040200Y-103600200D03*
X148865200Y-103600200D03*
%TD*%
D24*
%TO.C,U2*%
X144265200Y-111705200D03*
X144265200Y-112975200D03*
X144265200Y-114245200D03*
X144265200Y-115515200D03*
X144265200Y-116785200D03*
X144265200Y-118055200D03*
X144265200Y-119325200D03*
X144265200Y-120595200D03*
X153565200Y-120595200D03*
X153565200Y-119325200D03*
X153565200Y-118055200D03*
X153565200Y-116785200D03*
X153565200Y-115515200D03*
X153565200Y-114245200D03*
X153565200Y-112975200D03*
X153565200Y-111705200D03*
%TD*%
D12*
%TO.C,R21*%
X139815200Y-115400200D03*
X141640200Y-115400200D03*
%TD*%
D25*
%TO.C,BT1*%
X105415200Y-92025200D03*
X105415200Y-114925200D03*
D26*
X105415200Y-103475200D03*
%TD*%
D27*
%TO.C,U3*%
X123215200Y-88865200D03*
X123215200Y-90135200D03*
X123215200Y-91405200D03*
X123215200Y-92675200D03*
X123215200Y-93945200D03*
X123215200Y-95215200D03*
X123215200Y-96485200D03*
X123215200Y-97755200D03*
X123215200Y-99025200D03*
X123215200Y-100295200D03*
X123215200Y-101565200D03*
X123215200Y-102835200D03*
X123215200Y-104105200D03*
X123215200Y-105375200D03*
D28*
X126255200Y-106625200D03*
X127525200Y-106625200D03*
X128795200Y-106625200D03*
X130065200Y-106625200D03*
X131335200Y-106625200D03*
X132605200Y-106625200D03*
X133875200Y-106625200D03*
X135145200Y-106625200D03*
X136415200Y-106625200D03*
X137685200Y-106625200D03*
D27*
X140715200Y-105375200D03*
X140715200Y-104105200D03*
X140715200Y-102835200D03*
X140715200Y-101565200D03*
X140715200Y-100295200D03*
X140715200Y-99025200D03*
X140715200Y-97755200D03*
X140715200Y-96485200D03*
X140715200Y-95215200D03*
X140715200Y-93945200D03*
X140715200Y-92675200D03*
X140715200Y-91405200D03*
X140715200Y-90135200D03*
X140715200Y-88865200D03*
D29*
X129760200Y-95442700D03*
X129760200Y-96967700D03*
X130522700Y-94680200D03*
X130522700Y-96205200D03*
X130522700Y-97730200D03*
X131285200Y-95442700D03*
D30*
X131285200Y-96205200D03*
D29*
X131285200Y-96967700D03*
X132047700Y-94680200D03*
X132047700Y-96205200D03*
X132047700Y-97730200D03*
X132810200Y-95442700D03*
X132810200Y-96967700D03*
%TD*%
D17*
%TO.C,R7*%
X154940200Y-105887700D03*
X154940200Y-104062700D03*
%TD*%
D13*
%TO.C,R15*%
X119677700Y-116400200D03*
X117852700Y-116400200D03*
%TD*%
D31*
%TO.C,J1*%
X134270200Y-119030200D03*
X134920200Y-119030200D03*
X135570200Y-119030200D03*
X136220200Y-119030200D03*
X136870200Y-119030200D03*
D32*
X131995200Y-121680200D03*
D33*
X133250200Y-119450200D03*
D34*
X134445200Y-121680200D03*
X136695200Y-121680200D03*
D33*
X137890200Y-119450200D03*
D32*
X139145200Y-121680200D03*
%TD*%
D13*
%TO.C,R17*%
X131165200Y-114050200D03*
X129340200Y-114050200D03*
%TD*%
D35*
%TO.C,U5*%
X157780200Y-95125200D03*
D16*
X157780200Y-97665200D03*
X157780200Y-100205200D03*
X157780200Y-102745200D03*
X157780200Y-105285200D03*
X157780200Y-107825200D03*
X157780200Y-110365200D03*
X157780200Y-112905200D03*
X167940200Y-112905200D03*
X167940200Y-107825200D03*
X167940200Y-102745200D03*
X167940200Y-100205200D03*
X167940200Y-97665200D03*
X167940200Y-95125200D03*
%TD*%
%TO.C,ST2*%
X97315200Y-89150200D03*
%TD*%
D36*
%TO.C,U1*%
X143865200Y-89350200D03*
X143865200Y-91650200D03*
D37*
X150165200Y-91650200D03*
D36*
X143865200Y-93950200D03*
%TD*%
D38*
%TO.C,U4*%
X144127700Y-106437700D03*
X144127700Y-106937700D03*
X144127700Y-107437700D03*
X144127700Y-107937700D03*
X144127700Y-108437700D03*
X144127700Y-108937700D03*
D39*
X144815200Y-109625200D03*
X145315200Y-109625200D03*
X145815200Y-109625200D03*
X146315200Y-109625200D03*
X146815200Y-109625200D03*
X147315200Y-109625200D03*
D38*
X148002700Y-108937700D03*
X148002700Y-108437700D03*
X148002700Y-107937700D03*
X148002700Y-107437700D03*
X148002700Y-106937700D03*
X148002700Y-106437700D03*
D39*
X147315200Y-105750200D03*
X146815200Y-105750200D03*
X146315200Y-105750200D03*
X145815200Y-105750200D03*
X145315200Y-105750200D03*
X144815200Y-105750200D03*
D40*
X146065200Y-107687700D03*
%TD*%
D12*
%TO.C,R24*%
X147065200Y-101450200D03*
X148890200Y-101450200D03*
%TD*%
D18*
%TO.C,Q2*%
X123200200Y-110575200D03*
D19*
X124470200Y-110575200D03*
X125740200Y-110575200D03*
%TD*%
D41*
%TO.C,C6*%
X111965200Y-90300200D03*
X113865200Y-90300200D03*
%TD*%
D18*
%TO.C,Q1*%
X117500200Y-110625200D03*
D19*
X118770200Y-110625200D03*
X120040200Y-110625200D03*
%TD*%
D12*
%TO.C,R25*%
X150752700Y-97100200D03*
X152577700Y-97100200D03*
%TD*%
D13*
%TO.C,R3*%
X152565200Y-99225200D03*
X150740200Y-99225200D03*
%TD*%
D12*
%TO.C,R18*%
X125490200Y-114100200D03*
X127315200Y-114100200D03*
%TD*%
D17*
%TO.C,R10*%
X170715200Y-94012700D03*
X170715200Y-92187700D03*
%TD*%
D11*
%TO.C,R6*%
X170665200Y-107900200D03*
X170665200Y-109725200D03*
%TD*%
D42*
%TO.C,D1*%
X116790200Y-103925200D03*
X116790200Y-104875200D03*
X116790200Y-105825200D03*
X118990200Y-105825200D03*
X118990200Y-104875200D03*
X118990200Y-103925200D03*
%TD*%
D41*
%TO.C,C4*%
X119315200Y-90200200D03*
X121215200Y-90200200D03*
%TD*%
D18*
%TO.C,Q3*%
X128860200Y-110525200D03*
D19*
X130130200Y-110525200D03*
X131400200Y-110525200D03*
%TD*%
D12*
%TO.C,R23*%
X147102700Y-97050200D03*
X148927700Y-97050200D03*
%TD*%
M02*
