%TF.GenerationSoftware,KiCad,Pcbnew,9.0.6*%
%TF.CreationDate,2026-05-14T22:47:15+05:30*%
%TF.ProjectId,esp32_rtc_display,65737033-325f-4727-9463-5f646973706c,rev?*%
%TF.SameCoordinates,Original*%
%TF.FileFunction,Legend,Top*%
%TF.FilePolarity,Positive*%
%FSLAX46Y46*%
G04 Gerber Fmt 4.6, Leading zero omitted, Abs format (unit mm)*
G04 Created by KiCad (PCBNEW 9.0.6) date 2026-05-14 22:47:15*
%MOMM*%
%LPD*%
G01*
G04 APERTURE LIST*
%ADD10C,0.100000*%
%ADD11C,0.120000*%
%ADD12C,0.200000*%
G04 APERTURE END LIST*
D10*
X118783408Y-122680495D02*
X118516741Y-122299542D01*
X118326265Y-122680495D02*
X118326265Y-121880495D01*
X118326265Y-121880495D02*
X118631027Y-121880495D01*
X118631027Y-121880495D02*
X118707217Y-121918590D01*
X118707217Y-121918590D02*
X118745312Y-121956685D01*
X118745312Y-121956685D02*
X118783408Y-122032876D01*
X118783408Y-122032876D02*
X118783408Y-122147161D01*
X118783408Y-122147161D02*
X118745312Y-122223352D01*
X118745312Y-122223352D02*
X118707217Y-122261447D01*
X118707217Y-122261447D02*
X118631027Y-122299542D01*
X118631027Y-122299542D02*
X118326265Y-122299542D01*
X119050074Y-121880495D02*
X119583408Y-122680495D01*
X119583408Y-121880495D02*
X119050074Y-122680495D01*
X120599579Y-121931295D02*
X121056722Y-121931295D01*
X120828150Y-122731295D02*
X120828150Y-121931295D01*
X121247198Y-121931295D02*
X121780532Y-122731295D01*
X121780532Y-121931295D02*
X121247198Y-122731295D01*
X123408112Y-121969390D02*
X123331922Y-121931295D01*
X123331922Y-121931295D02*
X123217636Y-121931295D01*
X123217636Y-121931295D02*
X123103350Y-121969390D01*
X123103350Y-121969390D02*
X123027160Y-122045580D01*
X123027160Y-122045580D02*
X122989065Y-122121771D01*
X122989065Y-122121771D02*
X122950969Y-122274152D01*
X122950969Y-122274152D02*
X122950969Y-122388438D01*
X122950969Y-122388438D02*
X122989065Y-122540819D01*
X122989065Y-122540819D02*
X123027160Y-122617009D01*
X123027160Y-122617009D02*
X123103350Y-122693200D01*
X123103350Y-122693200D02*
X123217636Y-122731295D01*
X123217636Y-122731295D02*
X123293827Y-122731295D01*
X123293827Y-122731295D02*
X123408112Y-122693200D01*
X123408112Y-122693200D02*
X123446208Y-122655104D01*
X123446208Y-122655104D02*
X123446208Y-122388438D01*
X123446208Y-122388438D02*
X123293827Y-122388438D01*
X123789065Y-122731295D02*
X123789065Y-121931295D01*
X123789065Y-121931295D02*
X124246208Y-122731295D01*
X124246208Y-122731295D02*
X124246208Y-121931295D01*
X124627160Y-122731295D02*
X124627160Y-121931295D01*
X124627160Y-121931295D02*
X124817636Y-121931295D01*
X124817636Y-121931295D02*
X124931922Y-121969390D01*
X124931922Y-121969390D02*
X125008112Y-122045580D01*
X125008112Y-122045580D02*
X125046207Y-122121771D01*
X125046207Y-122121771D02*
X125084303Y-122274152D01*
X125084303Y-122274152D02*
X125084303Y-122388438D01*
X125084303Y-122388438D02*
X125046207Y-122540819D01*
X125046207Y-122540819D02*
X125008112Y-122617009D01*
X125008112Y-122617009D02*
X124931922Y-122693200D01*
X124931922Y-122693200D02*
X124817636Y-122731295D01*
X124817636Y-122731295D02*
X124627160Y-122731295D01*
X125452865Y-122401133D02*
X126062389Y-122401133D01*
X125757627Y-122705895D02*
X125757627Y-122096371D01*
X126367150Y-121905895D02*
X126862388Y-121905895D01*
X126862388Y-121905895D02*
X126595722Y-122210657D01*
X126595722Y-122210657D02*
X126710007Y-122210657D01*
X126710007Y-122210657D02*
X126786198Y-122248752D01*
X126786198Y-122248752D02*
X126824293Y-122286847D01*
X126824293Y-122286847D02*
X126862388Y-122363038D01*
X126862388Y-122363038D02*
X126862388Y-122553514D01*
X126862388Y-122553514D02*
X126824293Y-122629704D01*
X126824293Y-122629704D02*
X126786198Y-122667800D01*
X126786198Y-122667800D02*
X126710007Y-122705895D01*
X126710007Y-122705895D02*
X126481436Y-122705895D01*
X126481436Y-122705895D02*
X126405245Y-122667800D01*
X126405245Y-122667800D02*
X126367150Y-122629704D01*
X127205246Y-122629704D02*
X127243341Y-122667800D01*
X127243341Y-122667800D02*
X127205246Y-122705895D01*
X127205246Y-122705895D02*
X127167150Y-122667800D01*
X127167150Y-122667800D02*
X127205246Y-122629704D01*
X127205246Y-122629704D02*
X127205246Y-122705895D01*
X127510007Y-121905895D02*
X128005245Y-121905895D01*
X128005245Y-121905895D02*
X127738579Y-122210657D01*
X127738579Y-122210657D02*
X127852864Y-122210657D01*
X127852864Y-122210657D02*
X127929055Y-122248752D01*
X127929055Y-122248752D02*
X127967150Y-122286847D01*
X127967150Y-122286847D02*
X128005245Y-122363038D01*
X128005245Y-122363038D02*
X128005245Y-122553514D01*
X128005245Y-122553514D02*
X127967150Y-122629704D01*
X127967150Y-122629704D02*
X127929055Y-122667800D01*
X127929055Y-122667800D02*
X127852864Y-122705895D01*
X127852864Y-122705895D02*
X127624293Y-122705895D01*
X127624293Y-122705895D02*
X127548102Y-122667800D01*
X127548102Y-122667800D02*
X127510007Y-122629704D01*
X128233817Y-121905895D02*
X128500484Y-122705895D01*
X128500484Y-122705895D02*
X128767150Y-121905895D01*
X99809665Y-117244895D02*
X99809665Y-116444895D01*
X100342998Y-116444895D02*
X100495379Y-116444895D01*
X100495379Y-116444895D02*
X100571569Y-116482990D01*
X100571569Y-116482990D02*
X100647760Y-116559180D01*
X100647760Y-116559180D02*
X100685855Y-116711561D01*
X100685855Y-116711561D02*
X100685855Y-116978228D01*
X100685855Y-116978228D02*
X100647760Y-117130609D01*
X100647760Y-117130609D02*
X100571569Y-117206800D01*
X100571569Y-117206800D02*
X100495379Y-117244895D01*
X100495379Y-117244895D02*
X100342998Y-117244895D01*
X100342998Y-117244895D02*
X100266807Y-117206800D01*
X100266807Y-117206800D02*
X100190617Y-117130609D01*
X100190617Y-117130609D02*
X100152521Y-116978228D01*
X100152521Y-116978228D02*
X100152521Y-116711561D01*
X100152521Y-116711561D02*
X100190617Y-116559180D01*
X100190617Y-116559180D02*
X100266807Y-116482990D01*
X100266807Y-116482990D02*
X100342998Y-116444895D01*
X101181093Y-116444895D02*
X101257283Y-116444895D01*
X101257283Y-116444895D02*
X101333474Y-116482990D01*
X101333474Y-116482990D02*
X101371569Y-116521085D01*
X101371569Y-116521085D02*
X101409664Y-116597276D01*
X101409664Y-116597276D02*
X101447759Y-116749657D01*
X101447759Y-116749657D02*
X101447759Y-116940133D01*
X101447759Y-116940133D02*
X101409664Y-117092514D01*
X101409664Y-117092514D02*
X101371569Y-117168704D01*
X101371569Y-117168704D02*
X101333474Y-117206800D01*
X101333474Y-117206800D02*
X101257283Y-117244895D01*
X101257283Y-117244895D02*
X101181093Y-117244895D01*
X101181093Y-117244895D02*
X101104902Y-117206800D01*
X101104902Y-117206800D02*
X101066807Y-117168704D01*
X101066807Y-117168704D02*
X101028712Y-117092514D01*
X101028712Y-117092514D02*
X100990616Y-116940133D01*
X100990616Y-116940133D02*
X100990616Y-116749657D01*
X100990616Y-116749657D02*
X101028712Y-116597276D01*
X101028712Y-116597276D02*
X101066807Y-116521085D01*
X101066807Y-116521085D02*
X101104902Y-116482990D01*
X101104902Y-116482990D02*
X101181093Y-116444895D01*
X102362045Y-117206800D02*
X102476331Y-117244895D01*
X102476331Y-117244895D02*
X102666807Y-117244895D01*
X102666807Y-117244895D02*
X102742998Y-117206800D01*
X102742998Y-117206800D02*
X102781093Y-117168704D01*
X102781093Y-117168704D02*
X102819188Y-117092514D01*
X102819188Y-117092514D02*
X102819188Y-117016323D01*
X102819188Y-117016323D02*
X102781093Y-116940133D01*
X102781093Y-116940133D02*
X102742998Y-116902038D01*
X102742998Y-116902038D02*
X102666807Y-116863942D01*
X102666807Y-116863942D02*
X102514426Y-116825847D01*
X102514426Y-116825847D02*
X102438236Y-116787752D01*
X102438236Y-116787752D02*
X102400141Y-116749657D01*
X102400141Y-116749657D02*
X102362045Y-116673466D01*
X102362045Y-116673466D02*
X102362045Y-116597276D01*
X102362045Y-116597276D02*
X102400141Y-116521085D01*
X102400141Y-116521085D02*
X102438236Y-116482990D01*
X102438236Y-116482990D02*
X102514426Y-116444895D01*
X102514426Y-116444895D02*
X102704903Y-116444895D01*
X102704903Y-116444895D02*
X102819188Y-116482990D01*
X103085855Y-116711561D02*
X103238236Y-117244895D01*
X103238236Y-117244895D02*
X103390617Y-116863942D01*
X103390617Y-116863942D02*
X103542998Y-117244895D01*
X103542998Y-117244895D02*
X103695379Y-116711561D01*
X104000141Y-117244895D02*
X104000141Y-116711561D01*
X104000141Y-116444895D02*
X103962045Y-116482990D01*
X103962045Y-116482990D02*
X104000141Y-116521085D01*
X104000141Y-116521085D02*
X104038236Y-116482990D01*
X104038236Y-116482990D02*
X104000141Y-116444895D01*
X104000141Y-116444895D02*
X104000141Y-116521085D01*
X104266807Y-116711561D02*
X104571569Y-116711561D01*
X104381093Y-116444895D02*
X104381093Y-117130609D01*
X104381093Y-117130609D02*
X104419188Y-117206800D01*
X104419188Y-117206800D02*
X104495378Y-117244895D01*
X104495378Y-117244895D02*
X104571569Y-117244895D01*
X105181093Y-117206800D02*
X105104902Y-117244895D01*
X105104902Y-117244895D02*
X104952521Y-117244895D01*
X104952521Y-117244895D02*
X104876331Y-117206800D01*
X104876331Y-117206800D02*
X104838236Y-117168704D01*
X104838236Y-117168704D02*
X104800140Y-117092514D01*
X104800140Y-117092514D02*
X104800140Y-116863942D01*
X104800140Y-116863942D02*
X104838236Y-116787752D01*
X104838236Y-116787752D02*
X104876331Y-116749657D01*
X104876331Y-116749657D02*
X104952521Y-116711561D01*
X104952521Y-116711561D02*
X105104902Y-116711561D01*
X105104902Y-116711561D02*
X105181093Y-116749657D01*
X105523950Y-117244895D02*
X105523950Y-116444895D01*
X105866807Y-117244895D02*
X105866807Y-116825847D01*
X105866807Y-116825847D02*
X105828712Y-116749657D01*
X105828712Y-116749657D02*
X105752521Y-116711561D01*
X105752521Y-116711561D02*
X105638235Y-116711561D01*
X105638235Y-116711561D02*
X105562045Y-116749657D01*
X105562045Y-116749657D02*
X105523950Y-116787752D01*
X110147465Y-116775047D02*
X110414131Y-116775047D01*
X110528417Y-117194095D02*
X110147465Y-117194095D01*
X110147465Y-117194095D02*
X110147465Y-116394095D01*
X110147465Y-116394095D02*
X110528417Y-116394095D01*
X110871275Y-117194095D02*
X110871275Y-116394095D01*
X110871275Y-116394095D02*
X111328418Y-117194095D01*
X111328418Y-117194095D02*
X111328418Y-116394095D01*
X112280798Y-117156000D02*
X112395084Y-117194095D01*
X112395084Y-117194095D02*
X112585560Y-117194095D01*
X112585560Y-117194095D02*
X112661751Y-117156000D01*
X112661751Y-117156000D02*
X112699846Y-117117904D01*
X112699846Y-117117904D02*
X112737941Y-117041714D01*
X112737941Y-117041714D02*
X112737941Y-116965523D01*
X112737941Y-116965523D02*
X112699846Y-116889333D01*
X112699846Y-116889333D02*
X112661751Y-116851238D01*
X112661751Y-116851238D02*
X112585560Y-116813142D01*
X112585560Y-116813142D02*
X112433179Y-116775047D01*
X112433179Y-116775047D02*
X112356989Y-116736952D01*
X112356989Y-116736952D02*
X112318894Y-116698857D01*
X112318894Y-116698857D02*
X112280798Y-116622666D01*
X112280798Y-116622666D02*
X112280798Y-116546476D01*
X112280798Y-116546476D02*
X112318894Y-116470285D01*
X112318894Y-116470285D02*
X112356989Y-116432190D01*
X112356989Y-116432190D02*
X112433179Y-116394095D01*
X112433179Y-116394095D02*
X112623656Y-116394095D01*
X112623656Y-116394095D02*
X112737941Y-116432190D01*
X113004608Y-116660761D02*
X113156989Y-117194095D01*
X113156989Y-117194095D02*
X113309370Y-116813142D01*
X113309370Y-116813142D02*
X113461751Y-117194095D01*
X113461751Y-117194095D02*
X113614132Y-116660761D01*
X113918894Y-117194095D02*
X113918894Y-116660761D01*
X113918894Y-116394095D02*
X113880798Y-116432190D01*
X113880798Y-116432190D02*
X113918894Y-116470285D01*
X113918894Y-116470285D02*
X113956989Y-116432190D01*
X113956989Y-116432190D02*
X113918894Y-116394095D01*
X113918894Y-116394095D02*
X113918894Y-116470285D01*
X114185560Y-116660761D02*
X114490322Y-116660761D01*
X114299846Y-116394095D02*
X114299846Y-117079809D01*
X114299846Y-117079809D02*
X114337941Y-117156000D01*
X114337941Y-117156000D02*
X114414131Y-117194095D01*
X114414131Y-117194095D02*
X114490322Y-117194095D01*
X115099846Y-117156000D02*
X115023655Y-117194095D01*
X115023655Y-117194095D02*
X114871274Y-117194095D01*
X114871274Y-117194095D02*
X114795084Y-117156000D01*
X114795084Y-117156000D02*
X114756989Y-117117904D01*
X114756989Y-117117904D02*
X114718893Y-117041714D01*
X114718893Y-117041714D02*
X114718893Y-116813142D01*
X114718893Y-116813142D02*
X114756989Y-116736952D01*
X114756989Y-116736952D02*
X114795084Y-116698857D01*
X114795084Y-116698857D02*
X114871274Y-116660761D01*
X114871274Y-116660761D02*
X115023655Y-116660761D01*
X115023655Y-116660761D02*
X115099846Y-116698857D01*
X115442703Y-117194095D02*
X115442703Y-116394095D01*
X115785560Y-117194095D02*
X115785560Y-116775047D01*
X115785560Y-116775047D02*
X115747465Y-116698857D01*
X115747465Y-116698857D02*
X115671274Y-116660761D01*
X115671274Y-116660761D02*
X115556988Y-116660761D01*
X115556988Y-116660761D02*
X115480798Y-116698857D01*
X115480798Y-116698857D02*
X115442703Y-116736952D01*
X141050914Y-120740095D02*
X140669962Y-120740095D01*
X140669962Y-120740095D02*
X140669962Y-119940095D01*
X141317581Y-120321047D02*
X141584247Y-120321047D01*
X141698533Y-120740095D02*
X141317581Y-120740095D01*
X141317581Y-120740095D02*
X141317581Y-119940095D01*
X141317581Y-119940095D02*
X141698533Y-119940095D01*
X142041391Y-120740095D02*
X142041391Y-119940095D01*
X142041391Y-119940095D02*
X142231867Y-119940095D01*
X142231867Y-119940095D02*
X142346153Y-119978190D01*
X142346153Y-119978190D02*
X142422343Y-120054380D01*
X142422343Y-120054380D02*
X142460438Y-120130571D01*
X142460438Y-120130571D02*
X142498534Y-120282952D01*
X142498534Y-120282952D02*
X142498534Y-120397238D01*
X142498534Y-120397238D02*
X142460438Y-120549619D01*
X142460438Y-120549619D02*
X142422343Y-120625809D01*
X142422343Y-120625809D02*
X142346153Y-120702000D01*
X142346153Y-120702000D02*
X142231867Y-120740095D01*
X142231867Y-120740095D02*
X142041391Y-120740095D01*
D11*
%TO.C,SW2*%
X98790200Y-120500200D02*
X98790200Y-122000200D01*
X100040200Y-124500200D02*
X104540200Y-124500200D01*
X104540200Y-118000200D02*
X100040200Y-118000200D01*
X105790200Y-122000200D02*
X105790200Y-120500200D01*
%TO.C,R9*%
X169665200Y-103400200D02*
X169665200Y-106800200D01*
X169665200Y-106800200D02*
X171665200Y-106800200D01*
X171665200Y-103400200D02*
X169665200Y-103400200D01*
X171665200Y-106800200D02*
X171665200Y-103400200D01*
%TO.C,R13*%
X128552700Y-115200200D02*
X128552700Y-117200200D01*
X128552700Y-117200200D02*
X131952700Y-117200200D01*
X131952700Y-115200200D02*
X128552700Y-115200200D01*
X131952700Y-117200200D02*
X131952700Y-115200200D01*
%TO.C,R1*%
X146315200Y-98250200D02*
X146315200Y-100250200D01*
X146315200Y-100250200D02*
X149715200Y-100250200D01*
X149715200Y-98250200D02*
X146315200Y-98250200D01*
X149715200Y-100250200D02*
X149715200Y-98250200D01*
%TO.C,R20*%
X117065200Y-113200200D02*
X117065200Y-115200200D01*
X117065200Y-115200200D02*
X120465200Y-115200200D01*
X120465200Y-113200200D02*
X117065200Y-113200200D01*
X120465200Y-115200200D02*
X120465200Y-113200200D01*
%TO.C,J2*%
X117860200Y-118620200D02*
X117860200Y-121380200D01*
X125590200Y-118620200D02*
X117860200Y-118620200D01*
X125590200Y-118620200D02*
X125590200Y-121380200D01*
X125590200Y-121380200D02*
X117860200Y-121380200D01*
X126860200Y-118620200D02*
X128240200Y-118620200D01*
X128240200Y-118620200D02*
X128240200Y-120000200D01*
%TO.C,R19*%
X120777700Y-113175200D02*
X120777700Y-115175200D01*
X120777700Y-115175200D02*
X124177700Y-115175200D01*
X124177700Y-113175200D02*
X120777700Y-113175200D01*
X124177700Y-115175200D02*
X124177700Y-113175200D01*
%TO.C,R16*%
X153940200Y-106925200D02*
X153940200Y-110325200D01*
X153940200Y-110325200D02*
X155940200Y-110325200D01*
X155940200Y-106925200D02*
X153940200Y-106925200D01*
X155940200Y-110325200D02*
X155940200Y-106925200D01*
%TO.C,Q4*%
X134070200Y-112425200D02*
X137670200Y-112425200D01*
X134031722Y-112413678D02*
G75*
G02*
X135870200Y-107975199I1838478J1838478D01*
G01*
X135870200Y-107975200D02*
G75*
G02*
X137708678Y-112413678I0J-2600000D01*
G01*
%TO.C,Q6*%
X142415200Y-99375200D02*
X142415200Y-102975200D01*
X142415200Y-102975200D02*
X146015200Y-102975200D01*
X146015200Y-99375200D02*
X142415200Y-99375200D01*
X146015200Y-102975200D02*
X146015200Y-99375200D01*
%TO.C,R5*%
X169715200Y-95012700D02*
X169715200Y-98412700D01*
X169715200Y-98412700D02*
X171715200Y-98412700D01*
X171715200Y-95012700D02*
X169715200Y-95012700D01*
X171715200Y-98412700D02*
X171715200Y-95012700D01*
%TO.C,R4*%
X149927700Y-102600200D02*
X149927700Y-104600200D01*
X149927700Y-104600200D02*
X153327700Y-104600200D01*
X153327700Y-102600200D02*
X149927700Y-102600200D01*
X153327700Y-104600200D02*
X153327700Y-102600200D01*
%TO.C,C2*%
X120451452Y-91690200D02*
X119928948Y-91690200D01*
X120451452Y-93160200D02*
X119928948Y-93160200D01*
%TO.C,R12*%
X124702700Y-115350200D02*
X124702700Y-117350200D01*
X124702700Y-117350200D02*
X128102700Y-117350200D01*
X128102700Y-115350200D02*
X124702700Y-115350200D01*
X128102700Y-117350200D02*
X128102700Y-115350200D01*
%TO.C,R11*%
X169665200Y-99175200D02*
X169665200Y-102575200D01*
X169665200Y-102575200D02*
X171665200Y-102575200D01*
X171665200Y-99175200D02*
X169665200Y-99175200D01*
X171665200Y-102575200D02*
X171665200Y-99175200D01*
%TO.C,R8*%
X153940200Y-99625200D02*
X153940200Y-103025200D01*
X153940200Y-103025200D02*
X155940200Y-103025200D01*
X155940200Y-99625200D02*
X153940200Y-99625200D01*
X155940200Y-103025200D02*
X155940200Y-99625200D01*
%TO.C,R22*%
X138990200Y-112200200D02*
X138990200Y-114200200D01*
X138990200Y-114200200D02*
X142390200Y-114200200D01*
X142390200Y-112200200D02*
X138990200Y-112200200D01*
X142390200Y-114200200D02*
X142390200Y-112200200D01*
%TO.C,R14*%
X120765200Y-115375200D02*
X120765200Y-117375200D01*
X120765200Y-117375200D02*
X124165200Y-117375200D01*
X124165200Y-115375200D02*
X120765200Y-115375200D01*
X124165200Y-117375200D02*
X124165200Y-115375200D01*
%TO.C,Q5*%
X142415200Y-95475200D02*
X142415200Y-99075200D01*
X142415200Y-99075200D02*
X146015200Y-99075200D01*
X146015200Y-95475200D02*
X142415200Y-95475200D01*
X146015200Y-99075200D02*
X146015200Y-95475200D01*
%TO.C,C3*%
X116901452Y-91690200D02*
X116378948Y-91690200D01*
X116901452Y-93160200D02*
X116378948Y-93160200D01*
%TO.C,C1*%
X120330200Y-104438948D02*
X120330200Y-104961452D01*
X121800200Y-104438948D02*
X121800200Y-104961452D01*
%TO.C,R26*%
X149927700Y-100450200D02*
X149927700Y-102450200D01*
X149927700Y-102450200D02*
X153327700Y-102450200D01*
X153327700Y-100450200D02*
X149927700Y-100450200D01*
X153327700Y-102450200D02*
X153327700Y-100450200D01*
%TO.C,C7*%
X113151452Y-91615200D02*
X112628948Y-91615200D01*
X113151452Y-93085200D02*
X112628948Y-93085200D01*
%TO.C,C5*%
X116826452Y-89565200D02*
X116303948Y-89565200D01*
X116826452Y-91035200D02*
X116303948Y-91035200D01*
%TO.C,D2*%
X141165200Y-119437700D02*
X142165200Y-119437700D01*
%TO.C,SW1*%
X108765200Y-120500200D02*
X108765200Y-122000200D01*
X110015200Y-124500200D02*
X114515200Y-124500200D01*
X114515200Y-118000200D02*
X110015200Y-118000200D01*
X115765200Y-122000200D02*
X115765200Y-120500200D01*
%TO.C,R2*%
X146252700Y-102600200D02*
X146252700Y-104600200D01*
X146252700Y-104600200D02*
X149652700Y-104600200D01*
X149652700Y-102600200D02*
X146252700Y-102600200D01*
X149652700Y-104600200D02*
X149652700Y-102600200D01*
%TO.C,U2*%
X145055200Y-110890200D02*
X152775200Y-110890200D01*
X145055200Y-111145200D02*
X145055200Y-110890200D01*
X145055200Y-121410200D02*
X145055200Y-121155200D01*
X152775200Y-110890200D02*
X152775200Y-111145200D01*
X152775200Y-121155200D02*
X152775200Y-121410200D01*
X152775200Y-121410200D02*
X145055200Y-121410200D01*
X144265200Y-111140200D02*
X143925200Y-110670200D01*
X144605200Y-110670200D01*
X144265200Y-111140200D01*
G36*
X144265200Y-111140200D02*
G01*
X143925200Y-110670200D01*
X144605200Y-110670200D01*
X144265200Y-111140200D01*
G37*
%TO.C,R21*%
X139027700Y-114400200D02*
X139027700Y-116400200D01*
X139027700Y-116400200D02*
X142427700Y-116400200D01*
X142427700Y-114400200D02*
X139027700Y-114400200D01*
X142427700Y-116400200D02*
X142427700Y-114400200D01*
%TO.C,BT1*%
X97455200Y-111055200D02*
X97455200Y-107835200D01*
X97525200Y-96105200D02*
X97525200Y-98905200D01*
X110415200Y-92925200D02*
X108765200Y-92925200D01*
X110415200Y-114025200D02*
X108745200Y-114025200D01*
X113165200Y-95675200D02*
X110415200Y-92925200D01*
X113165200Y-95675200D02*
X113165200Y-98475200D01*
X113215200Y-108475200D02*
X113215200Y-111175200D01*
X113215200Y-111175200D02*
X110415200Y-114025200D01*
%TO.C,U3*%
X122845200Y-81255200D02*
X122845200Y-87415200D01*
X122845200Y-81255200D02*
X141085200Y-81255200D01*
X122845200Y-106215200D02*
X122845200Y-106995200D01*
X122845200Y-106995200D02*
X123845200Y-106995200D01*
X141085200Y-81255200D02*
X141085200Y-87670200D01*
X141085200Y-106215200D02*
X141085200Y-106995200D01*
X141085200Y-106995200D02*
X140085200Y-106995200D01*
X122840200Y-88140200D02*
X122340200Y-88140200D01*
X122840200Y-87640200D01*
X122840200Y-88140200D01*
G36*
X122840200Y-88140200D02*
G01*
X122340200Y-88140200D01*
X122840200Y-87640200D01*
X122840200Y-88140200D01*
G37*
%TO.C,R7*%
X153940200Y-103275200D02*
X153940200Y-106675200D01*
X153940200Y-106675200D02*
X155940200Y-106675200D01*
X155940200Y-103275200D02*
X153940200Y-103275200D01*
X155940200Y-106675200D02*
X155940200Y-103275200D01*
%TO.C,R15*%
X117065200Y-115400200D02*
X117065200Y-117400200D01*
X117065200Y-117400200D02*
X120465200Y-117400200D01*
X120465200Y-115400200D02*
X117065200Y-115400200D01*
X120465200Y-117400200D02*
X120465200Y-115400200D01*
%TO.C,J1*%
X131760200Y-118770200D02*
X132420200Y-118770200D01*
X131760200Y-120500200D02*
X131760200Y-118770200D01*
X131760200Y-123070200D02*
X131760200Y-122860200D01*
X133810200Y-118070200D02*
X133810200Y-118460200D01*
X133810200Y-118070200D02*
X134260200Y-118070200D01*
X139380200Y-118770200D02*
X138730200Y-118770200D01*
X139380200Y-120500200D02*
X139380200Y-118770200D01*
X139380200Y-123070200D02*
X139380200Y-122860200D01*
%TO.C,R17*%
X128552700Y-113050200D02*
X128552700Y-115050200D01*
X128552700Y-115050200D02*
X131952700Y-115050200D01*
X131952700Y-113050200D02*
X128552700Y-113050200D01*
X131952700Y-115050200D02*
X131952700Y-113050200D01*
%TO.C,U5*%
X156180200Y-94125200D02*
X156180200Y-96125200D01*
X156350200Y-83815200D02*
X156350200Y-124215200D01*
X156350200Y-83815200D02*
X169370200Y-83815200D01*
X156350200Y-124215200D02*
X169370200Y-124215200D01*
X169370200Y-83815200D02*
X169370200Y-124215200D01*
%TO.C,U1*%
X145165200Y-88240200D02*
X148925200Y-88240200D01*
X145165200Y-95060200D02*
X148925200Y-95060200D01*
X148925200Y-88240200D02*
X148925200Y-89500200D01*
X148925200Y-95060200D02*
X148925200Y-93800200D01*
X143885200Y-88340200D02*
X143645200Y-88010200D01*
X144125200Y-88010200D01*
X143885200Y-88340200D01*
G36*
X143885200Y-88340200D02*
G01*
X143645200Y-88010200D01*
X144125200Y-88010200D01*
X143885200Y-88340200D01*
G37*
%TO.C,U4*%
X143955200Y-105577700D02*
X144430200Y-105577700D01*
X143955200Y-106052700D02*
X143955200Y-105577700D01*
X143955200Y-109797700D02*
X143955200Y-109322700D01*
X144430200Y-109797700D02*
X143955200Y-109797700D01*
X147700200Y-105577700D02*
X148175200Y-105577700D01*
X148175200Y-105577700D02*
X148175200Y-106052700D01*
X148175200Y-109322700D02*
X148175200Y-109797700D01*
X148175200Y-109797700D02*
X147700200Y-109797700D01*
X143455200Y-106437700D02*
X143125200Y-106677700D01*
X143125200Y-106197700D01*
X143455200Y-106437700D01*
G36*
X143455200Y-106437700D02*
G01*
X143125200Y-106677700D01*
X143125200Y-106197700D01*
X143455200Y-106437700D01*
G37*
%TO.C,R24*%
X146277700Y-100450200D02*
X146277700Y-102450200D01*
X146277700Y-102450200D02*
X149677700Y-102450200D01*
X149677700Y-100450200D02*
X146277700Y-100450200D01*
X149677700Y-102450200D02*
X149677700Y-100450200D01*
%TO.C,Q2*%
X122670200Y-112425200D02*
X126270200Y-112425200D01*
X122631722Y-112413678D02*
G75*
G02*
X124470200Y-107975199I1838478J1838478D01*
G01*
X124470200Y-107975200D02*
G75*
G02*
X126308678Y-112413678I0J-2600000D01*
G01*
%TO.C,C6*%
X112653948Y-89565200D02*
X113176452Y-89565200D01*
X112653948Y-91035200D02*
X113176452Y-91035200D01*
%TO.C,Q1*%
X116970200Y-112475200D02*
X120570200Y-112475200D01*
X116931722Y-112463678D02*
G75*
G02*
X118770200Y-108025199I1838478J1838478D01*
G01*
X118770200Y-108025200D02*
G75*
G02*
X120608678Y-112463678I0J-2600000D01*
G01*
%TO.C,R25*%
X149965200Y-96100200D02*
X149965200Y-98100200D01*
X149965200Y-98100200D02*
X153365200Y-98100200D01*
X153365200Y-96100200D02*
X149965200Y-96100200D01*
X153365200Y-98100200D02*
X153365200Y-96100200D01*
%TO.C,R3*%
X149952700Y-98225200D02*
X149952700Y-100225200D01*
X149952700Y-100225200D02*
X153352700Y-100225200D01*
X153352700Y-98225200D02*
X149952700Y-98225200D01*
X153352700Y-100225200D02*
X153352700Y-98225200D01*
%TO.C,R18*%
X124702700Y-113100200D02*
X124702700Y-115100200D01*
X124702700Y-115100200D02*
X128102700Y-115100200D01*
X128102700Y-113100200D02*
X124702700Y-113100200D01*
X128102700Y-115100200D02*
X128102700Y-113100200D01*
%TO.C,R10*%
X169715200Y-91400200D02*
X169715200Y-94800200D01*
X169715200Y-94800200D02*
X171715200Y-94800200D01*
X171715200Y-91400200D02*
X169715200Y-91400200D01*
X171715200Y-94800200D02*
X171715200Y-91400200D01*
%TO.C,R6*%
X169665200Y-107112700D02*
X169665200Y-110512700D01*
X169665200Y-110512700D02*
X171665200Y-110512700D01*
X171665200Y-107112700D02*
X169665200Y-107112700D01*
X171665200Y-110512700D02*
X171665200Y-107112700D01*
%TO.C,D1*%
X115890200Y-103475200D02*
X115890200Y-106775200D01*
X115890200Y-106775200D02*
X119890200Y-106775200D01*
X119890200Y-102975200D02*
X116390200Y-102975200D01*
X119890200Y-106775200D02*
X119890200Y-102975200D01*
D12*
X116153700Y-103175200D02*
G75*
G02*
X116026700Y-103175200I-63500J0D01*
G01*
X116026700Y-103175200D02*
G75*
G02*
X116153700Y-103175200I63500J0D01*
G01*
D11*
%TO.C,C4*%
X120003948Y-89465200D02*
X120526452Y-89465200D01*
X120003948Y-90935200D02*
X120526452Y-90935200D01*
%TO.C,Q3*%
X128330200Y-112375200D02*
X131930200Y-112375200D01*
X128291722Y-112363678D02*
G75*
G02*
X130130200Y-107925199I1838478J1838478D01*
G01*
X130130200Y-107925200D02*
G75*
G02*
X131968678Y-112363678I0J-2600000D01*
G01*
%TO.C,R23*%
X146315200Y-96050200D02*
X146315200Y-98050200D01*
X146315200Y-98050200D02*
X149715200Y-98050200D01*
X149715200Y-96050200D02*
X146315200Y-96050200D01*
X149715200Y-98050200D02*
X149715200Y-96050200D01*
%TD*%
M02*
