%TF.GenerationSoftware,KiCad,Pcbnew,9.0.6*%
%TF.CreationDate,2026-05-14T22:47:15+05:30*%
%TF.ProjectId,esp32_rtc_display,65737033-325f-4727-9463-5f646973706c,rev?*%
%TF.SameCoordinates,Original*%
%TF.FileFunction,Soldermask,Bot*%
%TF.FilePolarity,Negative*%
%FSLAX46Y46*%
G04 Gerber Fmt 4.6, Leading zero omitted, Abs format (unit mm)*
G04 Created by KiCad (PCBNEW 9.0.6) date 2026-05-14 22:47:15*
%MOMM*%
%LPD*%
G01*
G04 APERTURE LIST*
G04 Aperture macros list*
%AMRoundRect*
0 Rectangle with rounded corners*
0 $1 Rounding radius*
0 $2 $3 $4 $5 $6 $7 $8 $9 X,Y pos of 4 corners*
0 Add a 4 corners polygon primitive as box body*
4,1,4,$2,$3,$4,$5,$6,$7,$8,$9,$2,$3,0*
0 Add four circle primitives for the rounded corners*
1,1,$1+$1,$2,$3*
1,1,$1+$1,$4,$5*
1,1,$1+$1,$6,$7*
1,1,$1+$1,$8,$9*
0 Add four rect primitives between the rounded corners*
20,1,$1+$1,$2,$3,$4,$5,0*
20,1,$1+$1,$4,$5,$6,$7,0*
20,1,$1+$1,$6,$7,$8,$9,0*
20,1,$1+$1,$8,$9,$2,$3,0*%
G04 Aperture macros list end*
%ADD10C,2.000000*%
%ADD11R,1.700000X1.700000*%
%ADD12C,1.700000*%
%ADD13R,1.050000X1.500000*%
%ADD14O,1.050000X1.500000*%
%ADD15O,1.050000X1.900000*%
%ADD16RoundRect,0.375000X-0.375000X-0.375000X0.375000X-0.375000X0.375000X0.375000X-0.375000X0.375000X0*%
%ADD17C,1.500000*%
G04 APERTURE END LIST*
D10*
%TO.C,SW2*%
X99040200Y-119000200D03*
X105540200Y-119000200D03*
X99040200Y-123500200D03*
X105540200Y-123500200D03*
%TD*%
D11*
%TO.C,J2*%
X126860200Y-120000200D03*
D12*
X124320200Y-120000200D03*
X121780200Y-120000200D03*
X119240200Y-120000200D03*
%TD*%
D13*
%TO.C,Q4*%
X134600200Y-110575200D03*
D14*
X135870200Y-110575200D03*
X137140200Y-110575200D03*
%TD*%
D10*
%TO.C,SW1*%
X109015200Y-119000200D03*
X115515200Y-119000200D03*
X109015200Y-123500200D03*
X115515200Y-123500200D03*
%TD*%
D15*
%TO.C,J1*%
X131995200Y-121680200D03*
X139145200Y-121680200D03*
%TD*%
D16*
%TO.C,U5*%
X157780200Y-95125200D03*
D17*
X157780200Y-97665200D03*
X157780200Y-100205200D03*
X157780200Y-102745200D03*
X157780200Y-105285200D03*
X157780200Y-107825200D03*
X157780200Y-110365200D03*
X157780200Y-112905200D03*
X167940200Y-112905200D03*
X167940200Y-107825200D03*
X167940200Y-102745200D03*
X167940200Y-100205200D03*
X167940200Y-97665200D03*
X167940200Y-95125200D03*
%TD*%
D13*
%TO.C,Q2*%
X123200200Y-110575200D03*
D14*
X124470200Y-110575200D03*
X125740200Y-110575200D03*
%TD*%
D13*
%TO.C,Q1*%
X117500200Y-110625200D03*
D14*
X118770200Y-110625200D03*
X120040200Y-110625200D03*
%TD*%
D13*
%TO.C,Q3*%
X128860200Y-110525200D03*
D14*
X130130200Y-110525200D03*
X131400200Y-110525200D03*
%TD*%
M02*
