M48
; DRILL file {KiCad 9.0.6} date 2026-05-14T22:47:11+0530
; FORMAT={-:-/ absolute / metric / decimal}
; #@! TF.CreationDate,2026-05-14T22:47:11+05:30
; #@! TF.GenerationSoftware,Kicad,Pcbnew,9.0.6
; #@! TF.FileFunction,Plated,1,2,PTH
FMAT,2
METRIC
; #@! TA.AperFunction,Plated,PTH,ViaDrill
T1C0.300
; #@! TA.AperFunction,Plated,PTH,ComponentDrill
T2C0.300
; #@! TA.AperFunction,Plated,PTH,ComponentDrill
T3C0.450
; #@! TA.AperFunction,Plated,PTH,ComponentDrill
T4C0.700
; #@! TA.AperFunction,Plated,PTH,ComponentDrill
T5C0.750
; #@! TA.AperFunction,Plated,PTH,ComponentDrill
T6C1.000
; #@! TA.AperFunction,Plated,PTH,ComponentDrill
T7C1.100
%
G90
G05
T1
X96.963Y-121.641
X105.415Y-114.925
X112.685Y-97.003
X114.915Y-112.625
X115.216Y-95.758
X115.708Y-114.529
X116.765Y-107.425
X117.029Y-93.98
X119.678Y-116.4
X119.815Y-122.7
X119.886Y-106.389
X119.975Y-112.344
X120.815Y-99.7
X121.04Y-97.85
X121.34Y-102.55
X121.365Y-101.45
X121.725Y-109.125
X121.815Y-122.7
X124.496Y-91.491
X125.74Y-112.7
X129.265Y-118.325
X129.628Y-123.901
X130.389Y-112.175
X131.049Y-118.202
X132.827Y-113.411
X133.767Y-113.375
X134.072Y-100.533
X134.606Y-115.199
X136.069Y-112.175
X136.416Y-96.02
X136.946Y-113.375
X137.298Y-96.926
X138.364Y-118.0
X138.451Y-92.32
X138.568Y-93.52
X138.815Y-110.7
X139.05Y-98.781
X139.751Y-113.349
X139.787Y-108.702
X139.812Y-116.688
X142.04Y-97.7
X142.098Y-111.198
X142.5Y-110.106
X142.53Y-103.2
X142.815Y-105.7
X142.815Y-106.7
X142.815Y-113.7
X142.99Y-104.879
X143.007Y-97.701
X143.576Y-104.293
X143.623Y-109.477
X144.036Y-96.932
X144.232Y-91.567
X144.511Y-102.235
X144.815Y-104.822
X145.07Y-98.901
X146.137Y-89.052
X146.747Y-95.539
X147.815Y-111.7
X148.89Y-101.45
X148.928Y-97.05
X149.515Y-112.09
X149.815Y-105.7
X150.531Y-103.962
X150.539Y-96.901
X150.709Y-91.44
X150.815Y-107.01
X150.954Y-103.525
X152.106Y-95.402
X152.154Y-106.375
X152.563Y-107.798
X152.665Y-103.657
X152.847Y-99.192
X153.445Y-105.834
X154.539Y-91.364
X154.661Y-99.4
X155.04Y-95.125
X155.586Y-96.545
X155.611Y-98.933
X159.264Y-92.92
X159.447Y-103.937
X159.472Y-101.524
X159.675Y-106.68
X161.074Y-97.562
X167.219Y-109.957
X168.21Y-92.177
X170.496Y-101.829
T2
X129.76Y-95.443
X129.76Y-96.968
X130.523Y-94.68
X130.523Y-96.205
X130.523Y-97.73
X131.285Y-95.443
X131.285Y-96.968
X132.048Y-94.68
X132.048Y-96.205
X132.048Y-97.73
X132.81Y-95.443
X132.81Y-96.968
T4
X157.78Y-95.125
X157.78Y-97.665
X157.78Y-100.205
X157.78Y-102.745
X157.78Y-105.285
X157.78Y-107.825
X157.78Y-110.365
X157.78Y-112.905
X167.94Y-95.125
X167.94Y-97.665
X167.94Y-100.205
X167.94Y-102.745
X167.94Y-107.825
X167.94Y-112.905
T5
X117.5Y-110.625
X118.77Y-110.625
X120.04Y-110.625
X123.2Y-110.575
X124.47Y-110.575
X125.74Y-110.575
X128.86Y-110.525
X130.13Y-110.525
X131.4Y-110.525
X134.6Y-110.575
X135.87Y-110.575
X137.14Y-110.575
T6
X119.24Y-120.0
X121.78Y-120.0
X124.32Y-120.0
X126.86Y-120.0
T7
X99.04Y-119.0
X99.04Y-123.5
X105.54Y-119.0
X105.54Y-123.5
X109.015Y-119.0
X109.015Y-123.5
X115.515Y-119.0
X115.515Y-123.5
T3
G00X131.995Y-122.08
M15
G01X131.995Y-121.28
M16
G05
G00X139.145Y-121.28
M15
G01X139.145Y-122.08
M16
G05
M30
